<?xml version="1.0" standalone="no"?>
<!DOCTYPE svg PUBLIC "-//W3C//DTD SVG 1.1//EN" "http://www.w3.org/Graphics/SVG/1.1/DTD/svg11.dtd" >
<svg xmlns="http://www.w3.org/2000/svg" xmlns:xlink="http://www.w3.org/1999/xlink" version="1.1">
<metadata>
Created by FontForge 20170910 at Thu Dec  7 00:14:09 2006
 By Jimmy Wärting
Copyright (c) JT Types Ltd, 2006. All rights reserved.
</metadata>
<defs>
<font id="BlissPro-Light" horiz-adv-x="523" >
  <font-face 
    font-family="Bliss Pro Light"
    font-weight="300"
    font-stretch="normal"
    units-per-em="1000"
    panose-1="2 0 5 6 5 0 0 2 0 4"
    ascent="800"
    descent="-200"
    x-height="473"
    cap-height="659"
    bbox="-179 -241 1121 953"
    underline-thickness="50"
    underline-position="-50"
    stemh="60"
    stemv="76"
    unicode-range="U+0020-FB02"
  />
<missing-glyph horiz-adv-x="550" 
d="M50 0v659h450v-659h-450zM101 48h348v563h-348v-563zM231 222c-20 20 -29 38 -29 60c0 76 130 98 130 172c0 29 -23 47 -55 47c-31 0 -58 -15 -85 -39l-27 35c29 30 70 51 117 51c65 0 106 -38 106 -91c0 -91 -132 -129 -132 -172c0 -16 9 -26 17 -35zM255 107
c-22 0 -38 17 -38 39c0 23 16 40 38 40c21 0 37 -17 37 -40c0 -22 -16 -39 -37 -39z" />
    <glyph glyph-name="fi" unicode="fi" horiz-adv-x="526" 
d="M99 0v413h-63v60h63v83c0 116 71 152 136 152c23 0 51 -5 73 -15l-16 -60c-15 6 -33 11 -51 11c-48 0 -69 -31 -69 -85v-86h120l-22 -60h-98v-413h-73zM378 0v473h73v-473h-73zM414 580c-29 0 -49 21 -49 49s20 50 49 50c30 0 50 -21 50 -50c0 -28 -21 -49 -50 -49z" />
    <glyph glyph-name="fl" unicode="fl" horiz-adv-x="543" 
d="M99 0v413h-63v60h63v83c0 116 71 152 136 152c23 0 51 -5 73 -15l-16 -60c-15 6 -33 11 -51 11c-48 0 -69 -31 -69 -85v-86h120l-22 -60h-98v-413h-73zM371 86v622h73v-599c0 -39 12 -50 37 -50c8 0 22 4 29 7l16 -58c-19 -9 -44 -14 -66 -14c-60 0 -89 35 -89 92z" />
    <glyph glyph-name=".notdef" horiz-adv-x="550" 
d="M50 0v659h450v-659h-450zM101 48h348v563h-348v-563zM231 222c-20 20 -29 38 -29 60c0 76 130 98 130 172c0 29 -23 47 -55 47c-31 0 -58 -15 -85 -39l-27 35c29 30 70 51 117 51c65 0 106 -38 106 -91c0 -91 -132 -129 -132 -172c0 -16 9 -26 17 -35zM255 107
c-22 0 -38 17 -38 39c0 23 16 40 38 40c21 0 37 -17 37 -40c0 -22 -16 -39 -37 -39z" />
    <glyph glyph-name="space" unicode=" " horiz-adv-x="226" 
 />
    <glyph glyph-name="exclam" unicode="!" horiz-adv-x="267" 
d="M114 175c-17 123 -17 184 -17 433v51h73v-52c0 -249 -1 -309 -18 -432h-38zM133 -8c-26 0 -47 23 -47 50s21 49 47 49c27 0 48 -22 48 -49s-21 -50 -48 -50z" />
    <glyph glyph-name="quotedbl" unicode="&#x22;" horiz-adv-x="340" 
d="M73 489l-11 219h73l-9 -219h-53zM218 489l-11 219h73l-9 -219h-53z" />
    <glyph glyph-name="numbersign" unicode="#" horiz-adv-x="668" 
d="M128 0l37 179h-124v62h138l37 176h-124v62h137l37 179h70l-37 -179h131l37 179h71l-38 -179h125v-62h-138l-37 -176h124v-62h-137l-37 -179h-70l37 179h-131l-37 -179h-71zM249 241h131l37 176h-131z" />
    <glyph glyph-name="dollar" unicode="$" 
d="M220 -80v98c-68 4 -112 25 -145 46l30 56c30 -20 77 -41 133 -41c55 0 121 23 121 93c0 145 -270 139 -270 321c0 74 51 142 146 153v94h60v-93c47 -4 89 -17 113 -28v-65c-37 19 -86 33 -134 33c-62 0 -110 -29 -110 -90c0 -135 271 -132 271 -319
c0 -85 -56 -143 -155 -159v-99h-60z" />
    <glyph glyph-name="percent" unicode="%" horiz-adv-x="827" 
d="M206 318c-81 0 -148 58 -148 173s67 173 148 173c82 0 148 -58 148 -173s-66 -173 -148 -173zM206 369c55 0 86 50 86 122s-31 122 -86 122c-54 0 -85 -50 -85 -122s31 -122 85 -122zM621 -10c-82 0 -148 59 -148 173c0 115 66 174 148 174c81 0 148 -59 148 -174
c0 -114 -67 -173 -148 -173zM621 42c54 0 85 49 85 121c0 73 -31 122 -85 122c-55 0 -86 -49 -86 -122c0 -72 31 -121 86 -121zM175 0l411 659h66l-412 -659h-65z" />
    <glyph glyph-name="ampersand" unicode="&#x26;" horiz-adv-x="715" 
d="M480 77c-65 -54 -142 -87 -226 -87c-126 0 -196 86 -196 183c0 91 49 152 146 194c-52 61 -82 97 -82 159c0 76 66 138 167 138c103 0 168 -56 168 -140c0 -78 -54 -130 -144 -175c40 -48 117 -131 171 -182c39 41 75 93 98 157l64 -16c-27 -72 -66 -135 -114 -185
c44 -41 78 -67 122 -67c8 0 16 2 22 4l17 -59c-14 -5 -33 -7 -50 -7c-56 0 -107 33 -163 83zM263 53c55 0 112 23 167 67c-58 56 -140 144 -187 200c-82 -37 -108 -83 -108 -140c0 -74 49 -127 128 -127zM272 397c68 32 109 75 109 126c0 33 -22 83 -91 83
c-64 0 -92 -41 -92 -79c0 -41 30 -80 74 -130z" />
    <glyph glyph-name="quotesingle" unicode="'" horiz-adv-x="195" 
d="M73 489l-12 219h74l-10 -219h-52z" />
    <glyph glyph-name="parenleft" unicode="(" horiz-adv-x="313" 
d="M237 -236c-125 148 -159 326 -159 504s34 356 159 505l50 -36c-92 -130 -133 -246 -133 -469s41 -339 133 -468z" />
    <glyph glyph-name="parenright" unicode=")" horiz-adv-x="313" 
d="M26 -200c92 129 134 245 134 468s-42 339 -134 469l50 36c125 -149 159 -327 159 -505s-34 -356 -158 -504z" />
    <glyph glyph-name="asterisk" unicode="*" horiz-adv-x="474" 
d="M207 337c-1 50 11 110 14 160c-38 -27 -85 -67 -131 -92l-30 51c45 27 104 47 146 68c-41 20 -100 40 -145 68l28 51c46 -25 94 -67 133 -93c-4 46 -15 108 -14 161h59c1 -51 -11 -112 -14 -161c39 27 86 67 133 93l29 -52c-45 -26 -106 -47 -148 -67
c42 -20 102 -41 147 -68l-29 -52c-46 26 -94 68 -133 94c4 -46 16 -108 15 -161h-60z" />
    <glyph glyph-name="plus" unicode="+" 
d="M227 0v222h-202v63h202v216h69v-216h202v-63h-202v-222h-69z" />
    <glyph glyph-name="comma" unicode="," horiz-adv-x="223" 
d="M39 -117c33 54 46 101 46 150c0 22 -2 44 -7 67l74 14c4 -22 6 -44 6 -64c0 -66 -22 -127 -82 -188z" />
    <glyph glyph-name="hyphen" unicode="-" horiz-adv-x="356" 
d="M54 215v65h249v-65h-249z" />
    <glyph glyph-name="period" unicode="." horiz-adv-x="223" 
d="M112 -8c-27 0 -48 23 -48 50s21 49 48 49c26 0 47 -22 47 -49s-21 -50 -47 -50z" />
    <glyph glyph-name="slash" unicode="/" horiz-adv-x="352" 
d="M17 -33l249 729h71l-249 -729h-71z" />
    <glyph glyph-name="zero" unicode="0" horiz-adv-x="552" 
d="M276 -10c-132 0 -223 119 -223 337s91 337 223 337c131 0 223 -119 223 -337s-92 -337 -223 -337zM276 54c90 0 146 102 146 273s-55 273 -146 273c-90 0 -146 -102 -146 -273s55 -273 146 -273z" />
    <glyph glyph-name="one" unicode="1" horiz-adv-x="410" 
d="M218 0v584l-155 -76l-26 59l193 97h61v-664h-73z" />
    <glyph glyph-name="two" unicode="2" horiz-adv-x="504" 
d="M40 0c29 348 324 335 324 498c0 73 -54 102 -118 102s-122 -23 -160 -44l-23 58c42 25 113 50 189 50c129 0 190 -71 190 -162c0 -201 -273 -193 -310 -439h309v-63h-401z" />
    <glyph glyph-name="three" unicode="3" horiz-adv-x="526" 
d="M38 22l20 61c42 -18 89 -29 142 -29c94 0 172 40 172 132c0 57 -31 95 -94 109c-22 5 -50 7 -85 7h-72v63h61c131 0 172 57 172 124c0 65 -38 111 -120 111c-63 0 -119 -23 -157 -44l-23 58c46 26 112 50 185 50c130 0 192 -78 192 -170c0 -76 -37 -125 -107 -152v-2
c77 -16 125 -69 125 -153c0 -108 -79 -197 -250 -197c-61 0 -119 13 -161 32z" />
    <glyph glyph-name="four" unicode="4" horiz-adv-x="547" 
d="M47 175v55l315 434h52v-427h97v-62h-97v-175h-72v175h-295zM128 236c22 0 54 1 80 1h134v158c0 59 2 114 5 149z" />
    <glyph glyph-name="five" unicode="5" horiz-adv-x="506" 
d="M48 18l20 60c30 -13 70 -24 121 -24c96 0 171 47 171 143c0 64 -33 101 -82 119c-30 12 -67 14 -114 14h-72v329h345l-17 -63h-256v-204h26c47 0 86 -4 118 -15c80 -27 129 -87 129 -178c0 -116 -77 -209 -250 -209c-62 0 -111 14 -139 28z" />
    <glyph glyph-name="six" unicode="6" horiz-adv-x="534" 
d="M283 -10c-125 0 -230 98 -230 311c0 198 105 363 281 363c38 0 79 -6 120 -25l-21 -60c-32 15 -64 22 -97 22c-107 0 -190 -89 -205 -242c41 26 98 50 163 50c110 0 197 -71 197 -202c0 -135 -87 -217 -208 -217zM282 53c82 0 132 51 132 147c0 92 -55 146 -131 146
c-56 0 -114 -26 -152 -54c-1 -143 60 -239 151 -239z" />
    <glyph glyph-name="seven" unicode="7" horiz-adv-x="468" 
d="M85 0c47 250 153 452 257 596h-299l-17 63h413v-31c-130 -173 -232 -383 -277 -628h-77z" />
    <glyph glyph-name="eight" unicode="8" horiz-adv-x="548" 
d="M269 -10c-136 0 -216 70 -216 178c0 90 59 148 129 172v2c-57 25 -109 69 -109 150c0 100 79 172 203 172c127 0 195 -80 195 -167c0 -82 -52 -130 -107 -155v-2c65 -24 131 -67 131 -166c0 -106 -86 -184 -226 -184zM273 52c74 0 145 39 145 118c0 87 -82 115 -166 140
c-59 -18 -122 -60 -122 -133c0 -86 68 -125 143 -125zM293 369c49 18 101 56 101 123c0 62 -45 111 -120 111c-71 0 -123 -41 -123 -104c0 -80 69 -110 142 -130z" />
    <glyph glyph-name="nine" unicode="9" horiz-adv-x="528" 
d="M198 -10c-45 0 -92 8 -137 27l19 62c35 -16 74 -26 119 -26c118 0 190 90 200 252h-2c-39 -34 -91 -60 -158 -60c-94 0 -196 56 -196 203c0 126 85 216 206 216c136 0 226 -102 226 -311c0 -222 -95 -363 -277 -363zM254 308c58 0 115 35 143 73c0 134 -58 221 -149 221
c-80 0 -128 -64 -128 -148c0 -89 47 -146 134 -146z" />
    <glyph glyph-name="colon" unicode=":" horiz-adv-x="223" 
d="M112 342c-27 0 -48 23 -48 50s21 49 48 49c26 0 47 -22 47 -49s-21 -50 -47 -50zM112 -8c-27 0 -48 23 -48 50s21 49 48 49c26 0 47 -22 47 -49s-21 -50 -47 -50z" />
    <glyph glyph-name="semicolon" unicode=";" horiz-adv-x="223" 
d="M109 342c-26 0 -47 23 -47 50s21 49 47 49c27 0 48 -22 48 -49s-21 -50 -48 -50zM39 -117c33 54 46 101 46 150c0 22 -2 44 -7 67l74 14c4 -22 6 -44 6 -64c0 -66 -22 -127 -82 -188z" />
    <glyph glyph-name="less" unicode="&#x3c;" horiz-adv-x="592" 
d="M70 228v64l418 188v-66l-349 -153v-2l349 -153v-66z" />
    <glyph glyph-name="equal" unicode="=" 
d="M25 137v63h473v-63h-473zM25 307v62h473v-62h-473z" />
    <glyph glyph-name="greater" unicode="&#x3e;" horiz-adv-x="592" 
d="M105 40v66l348 153v2l-348 153v66l418 -188v-64z" />
    <glyph glyph-name="question" unicode="?" horiz-adv-x="456" 
d="M158 176c-25 27 -38 56 -38 88c0 122 197 147 197 257c0 52 -38 80 -87 80c-52 0 -94 -21 -134 -58l-35 49c46 44 110 72 176 72c100 0 159 -58 159 -138c0 -144 -202 -174 -202 -262c0 -20 7 -37 23 -55zM192 -8c-26 0 -47 23 -47 50s21 49 47 49c27 0 47 -22 47 -49
s-20 -50 -47 -50z" />
    <glyph glyph-name="at" unicode="@" horiz-adv-x="768" 
d="M476 -64l16 -50c-48 -19 -103 -26 -149 -26c-177 0 -305 129 -305 330c0 234 165 380 358 380c192 0 334 -125 334 -314c0 -152 -74 -226 -167 -226c-52 0 -89 30 -97 84h-2c-18 -39 -68 -83 -135 -83c-60 0 -124 39 -124 155c0 133 88 224 201 224c50 0 97 -16 136 -40
l-22 -163c-2 -19 -4 -36 -4 -52c0 -41 12 -71 53 -71c60 0 101 66 101 169c0 136 -92 265 -276 265c-161 0 -295 -122 -295 -324c0 -182 111 -282 252 -282c41 0 91 8 125 24zM464 253l11 83c-22 15 -48 20 -69 20c-75 0 -134 -68 -134 -168c0 -67 27 -102 70 -102
c46 0 106 33 122 167z" />
    <glyph glyph-name="A" unicode="A" horiz-adv-x="587" 
d="M17 0l250 661h51l252 -661h-80l-65 177h-265l-65 -177h-78zM183 239h218l-68 190c-21 58 -31 89 -39 114h-2c-8 -25 -19 -56 -40 -114z" />
    <glyph glyph-name="B" unicode="B" horiz-adv-x="534" 
d="M86 0v659h153c140 0 202 -77 202 -167c0 -67 -33 -120 -87 -143v-2c74 -16 128 -77 128 -160c0 -111 -78 -187 -224 -187h-172zM160 62h98c89 0 148 35 148 123c0 74 -55 121 -139 121h-107v-244zM160 368h72c88 0 135 43 135 116c0 66 -38 113 -132 113h-75v-229z" />
    <glyph glyph-name="C" unicode="C" horiz-adv-x="590" 
d="M532 95l20 -59c-62 -33 -124 -46 -184 -46c-197 0 -314 138 -314 331s132 343 327 343c70 0 130 -16 163 -35v-70c-46 25 -95 41 -162 41c-151 0 -250 -122 -250 -274c0 -161 93 -272 243 -272c61 0 112 17 157 41z" />
    <glyph glyph-name="D" unicode="D" horiz-adv-x="647" 
d="M86 0v659h158c236 0 349 -138 349 -326c0 -189 -114 -333 -352 -333h-155zM160 63h80c205 0 275 125 275 273c0 151 -86 260 -277 260h-78v-533z" />
    <glyph glyph-name="E" unicode="E" horiz-adv-x="468" 
d="M86 0v659h318l-24 -63h-220v-228h217v-63h-217v-242h250v-63h-324z" />
    <glyph glyph-name="F" unicode="F" horiz-adv-x="447" 
d="M86 0v659h319l-24 -63h-221v-228h217v-63h-217v-305h-74z" />
    <glyph glyph-name="G" unicode="G" horiz-adv-x="673" 
d="M595 311v-271c-44 -23 -124 -50 -216 -50c-196 0 -325 137 -325 330c0 202 136 344 340 344c77 0 141 -19 180 -35v-70c-47 24 -105 42 -176 42c-170 0 -266 -113 -266 -273c0 -169 100 -274 256 -274c55 0 104 12 134 27v230h73z" />
    <glyph glyph-name="H" unicode="H" horiz-adv-x="680" 
d="M86 0v659h74v-290h361v290h73v-659h-73v306h-361v-306h-74z" />
    <glyph glyph-name="I" unicode="I" horiz-adv-x="246" 
d="M86 0v659h74v-659h-74z" />
    <glyph glyph-name="J" unicode="J" horiz-adv-x="288" 
d="M-26 -173l13 63c17 -6 36 -8 51 -8c74 0 90 44 90 110v667h74v-682c0 -95 -46 -159 -163 -159c-24 0 -48 4 -65 9z" />
    <glyph glyph-name="K" unicode="K" horiz-adv-x="537" 
d="M86 0v659h74v-302h2l250 302h88l-274 -326l292 -333h-93l-263 301h-2v-301h-74z" />
    <glyph glyph-name="L" unicode="L" horiz-adv-x="428" 
d="M86 0v659h74v-596h245v-63h-319z" />
    <glyph glyph-name="M" unicode="M" horiz-adv-x="791" 
d="M86 0v659h69l184 -277c28 -42 45 -68 61 -95h2c16 27 35 57 61 99l173 273h69v-659h-74v423c0 34 0 77 2 112h-2c-14 -27 -34 -60 -47 -80l-163 -260h-39l-177 265c-14 20 -33 48 -45 73h-2c2 -31 2 -77 2 -109v-424h-74z" />
    <glyph glyph-name="N" unicode="N" horiz-adv-x="716" 
d="M630 0h-62l-316 418c-40 52 -70 94 -93 127h-2c2 -33 3 -61 3 -113v-432h-74v659h71l304 -402c42 -56 73 -100 96 -133h2c-2 35 -2 64 -2 116v419h73v-659z" />
    <glyph glyph-name="O" unicode="O" horiz-adv-x="750" 
d="M375 -10c-184 0 -321 132 -321 336c0 200 136 338 321 338c187 0 321 -141 321 -338c0 -206 -141 -336 -321 -336zM375 54c147 0 243 109 243 272c0 155 -87 274 -243 274c-147 0 -243 -111 -243 -274s96 -272 243 -272z" />
    <glyph glyph-name="P" unicode="P" horiz-adv-x="502" 
d="M86 0v659h124c64 0 108 -10 143 -30c60 -34 95 -95 95 -178c0 -77 -33 -147 -110 -183c-33 -15 -76 -25 -135 -25h-43v-243h-74zM160 305h49c42 0 73 8 96 20c44 23 67 66 67 126c0 55 -22 100 -63 124c-23 14 -54 22 -99 22h-50v-292z" />
    <glyph glyph-name="Q" unicode="Q" horiz-adv-x="750" 
d="M290 0c-139 34 -236 154 -236 326c0 200 136 338 321 338c187 0 321 -141 321 -338c0 -200 -131 -328 -307 -334c47 -57 95 -86 164 -86c31 0 58 5 77 12l17 -59c-29 -11 -66 -17 -105 -17c-117 0 -189 72 -252 158zM375 54c147 0 243 109 243 272
c0 155 -87 274 -243 274c-147 0 -243 -111 -243 -274s96 -272 243 -272z" />
    <glyph glyph-name="R" unicode="R" horiz-adv-x="540" 
d="M86 0v659h134c69 0 115 -13 149 -35c53 -33 77 -87 77 -145c0 -91 -49 -148 -134 -174v-2c20 -10 45 -47 79 -105l120 -198h-86l-115 191c-31 52 -56 84 -76 89h-74v-280h-74zM160 342h62c36 0 65 7 91 22c34 20 57 57 57 108c0 39 -13 73 -42 94c-21 18 -54 31 -105 31
h-63v-255z" />
    <glyph glyph-name="S" unicode="S" horiz-adv-x="491" 
d="M53 40l31 58c32 -21 82 -44 143 -44c71 0 133 29 133 107c0 158 -290 139 -290 336c0 93 71 167 194 167c60 0 113 -15 143 -30v-69c-41 23 -91 36 -141 36c-59 0 -119 -26 -119 -97c0 -149 290 -133 290 -338c0 -110 -85 -176 -211 -176c-75 0 -134 23 -173 50z" />
    <glyph glyph-name="T" unicode="T" horiz-adv-x="496" 
d="M209 0v596h-189v63h473l-24 -63h-186v-596h-74z" />
    <glyph glyph-name="U" unicode="U" horiz-adv-x="652" 
d="M326 -10c-120 0 -198 49 -230 140c-10 31 -15 67 -15 106v423h74v-416c0 -35 4 -66 13 -92c23 -62 76 -98 158 -98c83 0 135 36 158 98c10 26 13 57 13 95v413h74v-423c0 -41 -5 -77 -17 -108c-32 -90 -111 -138 -228 -138z" />
    <glyph glyph-name="V" unicode="V" horiz-adv-x="607" 
d="M276 -3l-260 662h80l155 -401c22 -57 38 -102 53 -144h2c13 39 28 84 52 146l154 399h80l-262 -662h-54z" />
    <glyph glyph-name="W" unicode="W" horiz-adv-x="900" 
d="M238 -3l-222 662h82l128 -396c13 -43 31 -96 44 -148h2c16 55 31 98 48 147l98 285l-39 112h80l133 -398c14 -41 33 -95 46 -145h2c13 52 26 97 41 143l125 400h78l-218 -662h-59l-105 309c-18 53 -32 94 -46 142h-3c-14 -48 -26 -84 -46 -142l-109 -309h-60z" />
    <glyph glyph-name="X" unicode="X" horiz-adv-x="588" 
d="M21 0l230 332l-216 327h86l178 -270l184 270h84l-224 -326l221 -333h-85l-183 276l-191 -276h-84z" />
    <glyph glyph-name="Y" unicode="Y" horiz-adv-x="536" 
d="M233 0v263l-217 396h82l172 -323h2l168 323h80l-214 -397v-262h-73z" />
    <glyph glyph-name="Z" unicode="Z" horiz-adv-x="546" 
d="M50 0l331 596h-308l-21 63h444l-329 -596h346v-63h-463z" />
    <glyph glyph-name="bracketleft" unicode="[" horiz-adv-x="277" 
d="M86 -233v1004h164v-58h-96v-888h96v-58h-164z" />
    <glyph glyph-name="backslash" unicode="\" horiz-adv-x="362" 
d="M269 -33l-249 729h72l249 -729h-72z" />
    <glyph glyph-name="bracketright" unicode="]" horiz-adv-x="277" 
d="M28 -233v58h96v888h-96v58h164v-1004h-164z" />
    <glyph glyph-name="asciicircum" unicode="^" horiz-adv-x="586" 
d="M99 287l161 372h66l161 -372h-67l-126 303h-2l-127 -303h-66z" />
    <glyph glyph-name="underscore" unicode="_" horiz-adv-x="448" 
d="M0 -116v50h448v-50h-448z" />
    <glyph glyph-name="grave" unicode="`" horiz-adv-x="360" 
d="M165 531l-86 147h87l58 -147h-59z" />
    <glyph glyph-name="a" unicode="a" horiz-adv-x="461" 
d="M344 0l-14 53c-37 -35 -83 -63 -142 -63c-86 0 -150 55 -150 146c0 63 32 106 80 128c32 16 70 21 118 23l90 3v30c0 72 -43 104 -102 104c-57 0 -97 -19 -130 -39l-28 52c55 35 114 48 166 48c98 0 168 -48 168 -161v-163c0 -93 3 -137 9 -161h-65zM326 234l-83 -3
c-41 -1 -68 -7 -89 -18c-27 -15 -41 -42 -41 -73c0 -52 34 -88 88 -88c59 0 103 39 125 62v120z" />
    <glyph glyph-name="b" unicode="b" horiz-adv-x="500" 
d="M201 -10c-59 0 -105 14 -132 29v689h73v-245c31 12 62 22 107 22c118 0 212 -81 212 -235c0 -165 -110 -260 -260 -260zM211 53c103 0 174 75 174 194c0 103 -50 175 -146 175c-51 0 -80 -18 -97 -25v-331c25 -9 49 -13 69 -13z" />
    <glyph glyph-name="c" unicode="c" horiz-adv-x="425" 
d="M264 -10c-145 0 -224 109 -224 242c0 138 89 253 235 253c47 0 89 -13 118 -29v-65c-31 19 -68 32 -114 32c-101 0 -163 -79 -163 -186c0 -117 61 -184 157 -184c50 0 85 16 114 32l23 -52c-34 -23 -88 -43 -146 -43z" />
    <glyph glyph-name="d" unicode="d" horiz-adv-x="507" 
d="M287 -10c-136 0 -247 81 -247 241c0 153 109 254 244 254c28 0 54 -3 80 -10v233h73v-686c-33 -18 -90 -32 -150 -32zM290 53c25 0 54 5 74 13v344c-24 8 -42 12 -75 12c-94 0 -173 -68 -173 -189c0 -110 65 -180 174 -180z" />
    <glyph glyph-name="e" unicode="e" horiz-adv-x="463" 
d="M423 224h-307c1 -97 57 -172 157 -172c45 0 84 14 117 32l23 -52c-41 -27 -98 -42 -150 -42c-150 0 -223 114 -223 252c0 144 80 243 194 243c120 0 189 -94 189 -243v-18zM116 281h230c-2 72 -37 144 -111 144c-73 0 -117 -65 -119 -144z" />
    <glyph glyph-name="f" unicode="f" horiz-adv-x="302" 
d="M99 0v413h-63v60h63v83c0 116 71 152 136 152c23 0 51 -5 73 -15l-16 -60c-15 6 -33 11 -51 11c-48 0 -69 -31 -69 -85v-86h120l-22 -60h-98v-413h-73z" />
    <glyph glyph-name="g" unicode="g" horiz-adv-x="474" 
d="M227 -237c-125 0 -207 50 -207 136c0 48 28 93 88 122c-21 12 -34 34 -34 59c0 22 9 56 50 93c-44 29 -73 79 -73 143c0 95 72 168 174 168c41 0 69 -9 89 -18c5 -2 7 -2 10 1c23 23 54 39 97 39c12 0 24 -2 29 -3l-18 -58c-9 2 -18 3 -27 3c-16 0 -32 -4 -46 -13
c36 -32 54 -77 54 -122c0 -102 -74 -171 -183 -171c-23 0 -44 4 -62 10c-18 -20 -25 -37 -25 -54c0 -94 312 -11 312 -187c0 -89 -87 -148 -228 -148zM233 -179c100 0 148 37 148 82c0 86 -141 71 -228 97c-24 -16 -65 -43 -65 -89c0 -57 60 -90 145 -90zM231 203
c61 0 107 39 107 111c0 63 -44 109 -107 109s-107 -42 -107 -108c0 -65 40 -112 107 -112z" />
    <glyph glyph-name="h" unicode="h" horiz-adv-x="510" 
d="M69 0v708h73v-295c50 42 103 72 164 72c74 0 140 -47 140 -166v-319h-73v294c0 71 -18 125 -85 125c-53 0 -101 -32 -146 -71v-348h-73z" />
    <glyph glyph-name="i" unicode="i" horiz-adv-x="225" 
d="M76 0v473h73v-473h-73zM112 580c-29 0 -49 21 -49 49s20 50 49 50c30 0 50 -21 50 -50c0 -28 -21 -49 -50 -49z" />
    <glyph glyph-name="j" unicode="j" horiz-adv-x="236" 
d="M-49 -223l16 61c13 -6 28 -10 47 -10c51 0 73 30 73 101v544h73v-558c0 -107 -61 -152 -137 -152c-25 0 -50 4 -72 14zM123 580c-28 0 -48 21 -48 49s20 50 48 50c30 0 50 -21 50 -50c0 -28 -21 -49 -50 -49z" />
    <glyph glyph-name="k" unicode="k" horiz-adv-x="439" 
d="M69 0v708h73v-409h2l180 174h89l-207 -200l229 -273h-89l-202 243h-2v-243h-73z" />
    <glyph glyph-name="l" unicode="l" horiz-adv-x="242" 
d="M69 86v622h73v-599c0 -39 12 -50 37 -50c8 0 22 4 29 7l16 -58c-19 -9 -44 -14 -66 -14c-60 0 -89 35 -89 92z" />
    <glyph glyph-name="m" unicode="m" horiz-adv-x="802" 
d="M65 0v473h62l9 -61c50 43 104 73 164 73c55 0 100 -27 122 -81c56 50 116 81 176 81c76 0 140 -49 140 -166v-319h-73v296c0 69 -16 123 -83 123c-51 0 -100 -31 -145 -70c1 -10 2 -20 2 -29v-320h-73v295c0 70 -16 124 -83 124c-52 0 -100 -31 -144 -70v-349h-74z" />
    <glyph glyph-name="n" unicode="n" horiz-adv-x="506" 
d="M65 0v473h62l9 -61c52 44 105 73 166 73c74 0 140 -47 140 -166v-319h-73v294c0 71 -18 125 -85 125c-53 0 -101 -32 -145 -71v-348h-74z" />
    <glyph glyph-name="o" unicode="o" horiz-adv-x="516" 
d="M258 -10c-132 0 -218 109 -218 247c0 139 85 248 219 248c131 0 218 -109 218 -248c0 -138 -86 -247 -219 -247zM258 53c87 0 142 76 142 184c0 109 -55 185 -141 185c-88 0 -143 -76 -143 -185c0 -108 55 -184 142 -184z" />
    <glyph glyph-name="p" unicode="p" horiz-adv-x="501" 
d="M65 -237v693c50 19 105 29 156 29c150 0 240 -90 240 -246c0 -154 -102 -249 -239 -249c-30 0 -60 7 -83 17v-244h-74zM139 73c27 -13 50 -20 81 -20c107 0 165 75 165 188c0 125 -72 181 -166 181c-29 0 -54 -4 -80 -12v-337z" />
    <glyph glyph-name="q" unicode="q" horiz-adv-x="504" 
d="M242 -10c-106 0 -202 83 -202 234c0 168 113 261 255 261c58 0 115 -15 145 -28v-694h-73v263c-40 -26 -82 -36 -125 -36zM255 53c55 0 90 23 112 41v314c-22 9 -50 14 -76 14c-111 0 -175 -80 -175 -194c0 -104 57 -175 139 -175z" />
    <glyph glyph-name="r" unicode="r" horiz-adv-x="320" 
d="M65 0v473h62l9 -60c52 57 92 72 133 72c19 0 39 -5 51 -12l-26 -67c-12 6 -24 10 -41 10c-34 0 -68 -21 -114 -68v-348h-74z" />
    <glyph glyph-name="s" unicode="s" horiz-adv-x="379" 
d="M26 30l24 57c27 -17 65 -35 118 -35c55 0 101 22 101 76c0 103 -221 70 -221 227c0 72 55 130 160 130c45 0 86 -10 117 -22v-65c-32 14 -68 26 -114 26c-45 0 -91 -15 -91 -66c0 -105 223 -69 223 -229c0 -94 -78 -139 -175 -139c-62 0 -112 21 -142 40z" />
    <glyph glyph-name="t" unicode="t" horiz-adv-x="347" 
d="M208 -10c-68 0 -106 40 -106 110v313h-80v60h80v107l73 24v-131h141l-22 -60h-119v-301c0 -41 17 -59 49 -59c31 0 58 13 77 26l26 -52c-29 -21 -72 -37 -119 -37z" />
    <glyph glyph-name="u" unicode="u" horiz-adv-x="505" 
d="M204 -10c-45 0 -104 20 -127 88c-8 26 -12 50 -12 86v309h74v-291c0 -32 1 -54 8 -74c12 -37 39 -53 78 -53c55 0 108 34 133 67v351h73v-313c0 -92 4 -136 10 -160h-66l-14 55c-42 -37 -95 -65 -157 -65z" />
    <glyph glyph-name="v" unicode="v" horiz-adv-x="447" 
d="M193 -3l-183 476h77l138 -378h2l134 378h76l-181 -476h-63z" />
    <glyph glyph-name="w" unicode="w" horiz-adv-x="690" 
d="M167 -3l-156 476h77l112 -377h2l109 377h69l113 -377h2l110 377h75l-157 -476h-64l-112 379h-2l-113 -379h-65z" />
    <glyph glyph-name="x" unicode="x" horiz-adv-x="444" 
d="M11 0l171 237l-164 236h82l125 -183l128 183h80l-167 -234l166 -239h-81l-129 186l-130 -186h-81z" />
    <glyph glyph-name="y" unicode="y" horiz-adv-x="466" 
d="M456 473l-177 -510c-61 -174 -133 -200 -210 -200c-35 0 -60 6 -84 16l18 61c18 -8 40 -14 65 -14c62 0 113 45 150 171l-208 476h80l161 -383h2l126 383h77z" />
    <glyph glyph-name="z" unicode="z" horiz-adv-x="382" 
d="M21 0l240 413h-209l-17 60h336l-238 -413h236v-60h-348z" />
    <glyph glyph-name="braceleft" unicode="{" horiz-adv-x="313" 
d="M268 -222c-119 17 -153 79 -153 174v216c0 44 -18 72 -68 75v60c50 3 68 31 68 75v216c0 95 34 157 153 174l14 -67c-70 -11 -95 -48 -95 -113v-196c0 -86 -35 -112 -67 -118v-2c32 -6 67 -32 67 -118v-196c0 -65 25 -102 95 -113z" />
    <glyph glyph-name="bar" unicode="|" horiz-adv-x="243" 
d="M87 -237v1017h70v-1017h-70z" />
    <glyph glyph-name="braceright" unicode="}" horiz-adv-x="313" 
d="M32 -155c70 11 95 48 95 113v196c0 86 35 112 67 118v2c-32 6 -67 32 -67 118v196c0 65 -25 102 -95 113l14 67c119 -17 153 -79 153 -174v-216c0 -44 18 -72 68 -75v-60c-50 -3 -68 -31 -68 -75v-216c0 -95 -34 -157 -153 -174z" />
    <glyph glyph-name="asciitilde" unicode="~" 
d="M68 211l-41 44c44 45 84 65 129 65c70 0 155 -61 213 -61c34 0 54 15 86 44l41 -44c-44 -45 -84 -65 -129 -65c-66 0 -158 61 -213 61c-34 0 -54 -15 -86 -44z" />
    <glyph glyph-name="exclamdown" unicode="&#xa1;" horiz-adv-x="267" 
d="M133 385c-26 0 -47 23 -47 50s21 49 47 49c27 0 48 -22 48 -49s-21 -50 -48 -50zM97 -181v52c0 249 0 309 17 431h38c17 -122 17 -183 17 -432v-51h-72z" />
    <glyph glyph-name="cent" unicode="&#xa2;" 
d="M250 0v105c-108 18 -173 112 -173 222c0 109 67 209 174 230v102h60v-96c43 -1 79 -13 104 -27v-61c-30 17 -66 28 -114 28c-85 0 -151 -69 -151 -170c0 -108 62 -170 147 -170c53 0 85 14 113 29l21 -54c-28 -17 -72 -32 -121 -35v-103h-60z" />
    <glyph glyph-name="sterling" unicode="&#xa3;" 
d="M69 0v53c80 40 91 181 91 253h-79v62h79v87c0 177 121 209 191 209c47 0 81 -9 109 -19l-15 -60c-24 9 -50 16 -86 16c-63 0 -126 -34 -126 -153v-80h191l-22 -62h-169c0 -90 -14 -190 -69 -246v-2c31 2 60 4 98 4h196v-62h-389z" />
    <glyph glyph-name="currency" unicode="&#xa4;" 
d="M459 83l-64 65c-37 -28 -84 -45 -134 -45s-96 16 -134 45l-64 -65l-47 47l65 64c-29 37 -46 84 -46 135c0 50 16 97 45 134l-65 64l47 47l64 -65c38 29 84 46 135 46c50 0 97 -17 135 -46l64 64l46 -46l-64 -64c28 -38 45 -84 45 -134c0 -51 -17 -97 -46 -135l64 -64z
M261 163c90 0 160 75 160 166s-70 165 -160 165c-91 0 -161 -74 -161 -165s70 -166 161 -166z" />
    <glyph glyph-name="yen" unicode="&#xa5;" 
d="M225 0v123h-156v55h156v84h-156v55h131l-164 342h79l146 -323h1l145 323h79l-164 -342h131v-55h-155v-84h155v-55h-155v-123h-73z" />
    <glyph glyph-name="brokenbar" unicode="&#xa6;" horiz-adv-x="243" 
d="M87 -237v355h70v-355h-70zM87 426v354h70v-354h-70z" />
    <glyph glyph-name="section" unicode="&#xa7;" horiz-adv-x="526" 
d="M54 -115l31 56c31 -20 82 -43 142 -43c62 0 131 21 131 100c0 146 -292 118 -292 307c0 61 35 114 85 144c-29 26 -50 62 -50 114c0 92 73 160 184 160c67 0 121 -16 150 -31l-1 -67c-40 23 -90 36 -143 36c-58 0 -116 -28 -116 -92c0 -148 294 -114 294 -317
c0 -62 -32 -109 -82 -141c27 -25 46 -60 46 -108c0 -115 -92 -168 -206 -168c-80 0 -138 26 -173 50zM347 143c30 22 52 55 52 99c0 101 -119 125 -206 178c-33 -19 -57 -52 -57 -98c0 -100 124 -124 211 -179z" />
    <glyph glyph-name="dieresis" unicode="&#xa8;" horiz-adv-x="360" 
d="M91 561c-24 0 -43 19 -43 43c0 25 19 44 43 44s44 -19 44 -44c0 -24 -20 -43 -44 -43zM269 561c-24 0 -44 19 -44 43c0 25 20 44 44 44s43 -19 43 -44c0 -24 -19 -43 -43 -43z" />
    <glyph glyph-name="copyright" unicode="&#xa9;" horiz-adv-x="780" 
d="M390 -10c-192 0 -332 148 -332 337s140 337 332 337c191 0 332 -148 332 -337s-141 -337 -332 -337zM390 34c161 0 280 125 280 293s-119 292 -280 292s-280 -124 -280 -292s119 -293 280 -293zM492 200l17 -40c-29 -18 -70 -33 -114 -33c-113 0 -178 87 -178 195
c0 110 68 204 187 204c36 0 70 -9 93 -22v-50c-25 15 -56 25 -93 25c-81 0 -133 -63 -133 -152c0 -97 50 -154 129 -154c42 0 69 14 92 27z" />
    <glyph glyph-name="ordfeminine" unicode="&#xaa;" horiz-adv-x="352" 
d="M27 140v51h295v-51h-295zM250 270l-9 34c-25 -23 -60 -41 -100 -41c-62 0 -109 39 -109 105c0 68 50 106 149 108l54 2v15c0 45 -30 65 -70 65c-37 0 -65 -11 -91 -26l-24 44c38 25 80 35 121 35c71 0 125 -33 125 -120v-106c0 -61 3 -92 10 -115h-56zM235 356v73l-56 -2
c-53 -2 -83 -19 -83 -56c0 -32 21 -55 55 -55c37 0 68 25 84 40z" />
    <glyph glyph-name="guillemotleft" unicode="&#xab;" horiz-adv-x="551" 
d="M266 415l-135 -174l135 -174l-53 -34l-166 208l166 208zM475 415l-134 -174l134 -174l-52 -34l-166 208l166 208z" />
    <glyph glyph-name="logicalnot" unicode="&#xac;" 
d="M429 14v221h-404v63h473v-284h-69z" />
    <glyph glyph-name="registered" unicode="&#xae;" horiz-adv-x="580" 
d="M289 180c-139 0 -238 106 -238 242c0 137 99 242 238 242c137 0 238 -105 238 -242c0 -136 -101 -242 -238 -242zM289 217c116 0 197 90 197 205c0 116 -81 205 -197 205c-117 0 -198 -89 -198 -205c0 -115 81 -205 198 -205zM212 298v258h66c21 0 36 -2 47 -6
c30 -11 45 -36 45 -64c0 -37 -23 -60 -62 -68v-2c19 -13 42 -55 78 -118h-44c-36 65 -58 103 -73 110h-19v-110h-38zM250 438h20c32 0 59 11 59 46c0 17 -9 31 -22 36c-10 5 -21 6 -38 6h-19v-88z" />
    <glyph glyph-name="macron" unicode="&#xaf;" horiz-adv-x="360" 
d="M56 574v59h248v-59h-248z" />
    <glyph glyph-name="degree" unicode="&#xb0;" horiz-adv-x="394" 
d="M196 353c-88 0 -153 66 -153 153s66 153 154 153s154 -66 154 -153s-67 -153 -155 -153zM197 406c53 0 95 42 95 100s-42 100 -95 100s-95 -42 -95 -100s42 -100 95 -100z" />
    <glyph glyph-name="plusminus" unicode="&#xb1;" 
d="M227 120v158h-202v63h202v158h69v-158h202v-63h-202v-158h-69zM25 0v63h473v-63h-473z" />
    <glyph glyph-name="twosuperior" unicode="&#xb2;" horiz-adv-x="327" 
d="M30 404c9 191 190 198 190 285c0 30 -23 50 -61 50c-34 0 -64 -13 -95 -30l-21 48c37 21 78 36 123 36c78 0 119 -42 119 -101c0 -111 -158 -124 -181 -232h181v-56h-255z" />
    <glyph glyph-name="threesuperior" unicode="&#xb3;" horiz-adv-x="330" 
d="M21 419l17 50c28 -13 58 -19 85 -19c52 0 91 17 91 63c0 23 -13 43 -41 52c-16 6 -31 8 -64 8h-40v51h35c27 0 47 4 61 10c27 12 37 34 37 53c0 37 -30 52 -65 52c-34 0 -61 -9 -87 -21l-19 48c32 15 71 27 115 27c73 0 121 -40 121 -99c0 -44 -27 -75 -69 -90v-2
c51 -9 81 -43 81 -94c0 -59 -47 -111 -154 -111c-34 0 -76 8 -104 22z" />
    <glyph glyph-name="acute" unicode="&#xb4;" horiz-adv-x="360" 
d="M137 531l58 147h83l-85 -147h-56z" />
    <glyph glyph-name="mu" unicode="&#xb5;" horiz-adv-x="531" 
d="M360 199v274h73v-328c0 -72 14 -85 42 -85c8 0 22 3 29 7l15 -59c-17 -8 -42 -14 -60 -14c-54 0 -79 40 -82 88h-2c-28 -57 -76 -92 -138 -92c-37 0 -75 15 -98 47h-2c3 -39 3 -89 3 -131v-143h-73v710h73v-310c0 -63 36 -108 99 -108c56 0 121 42 121 144z" />
    <glyph glyph-name="paragraph" unicode="&#xb6;" horiz-adv-x="609" 
d="M265 -160v380c-120 5 -199 94 -199 219c0 126 82 220 223 220h217v-819h-66v762h-109v-762h-66z" />
    <glyph glyph-name="periodcentered" unicode="&#xb7;" horiz-adv-x="223" 
d="M112 204c-27 0 -48 23 -48 50s21 49 48 49c26 0 47 -22 47 -49s-21 -50 -47 -50z" />
    <glyph glyph-name="cedilla" unicode="&#xb8;" horiz-adv-x="360" 
d="M89 -200l13 43c16 -7 32 -10 50 -10c29 0 54 12 54 39c0 36 -42 38 -86 38l28 90h59l-17 -54c42 -3 81 -21 81 -72c0 -54 -46 -86 -115 -86c-31 0 -52 6 -67 12z" />
    <glyph glyph-name="onesuperior" unicode="&#xb9;" horiz-adv-x="324" 
d="M176 404v322l-119 -47l-23 48l154 65h50v-388h-62z" />
    <glyph glyph-name="ordmasculine" unicode="&#xba;" horiz-adv-x="375" 
d="M33 140v51h308v-51h-308zM187 263c-95 0 -158 77 -158 174s63 174 159 174c95 0 158 -77 158 -174s-62 -174 -159 -174zM187 317c58 0 96 50 96 120s-38 120 -95 120c-59 0 -96 -50 -96 -120s37 -120 95 -120z" />
    <glyph glyph-name="guillemotright" unicode="&#xbb;" horiz-adv-x="551" 
d="M76 67l135 174l-135 174l53 34l166 -208l-166 -208zM286 67l134 174l-134 174l52 34l166 -208l-166 -208z" />
    <glyph glyph-name="onequarter" unicode="&#xbc;" horiz-adv-x="861" 
d="M173 0l411 659h66l-412 -659h-65zM195 270v322l-119 -47l-23 48l154 65h50v-388h-62zM464 88v41l192 259h55v-250h53v-50h-53v-88h-62v88h-185zM533 138h73h43v42c0 33 0 70 3 119z" />
    <glyph glyph-name="onehalf" unicode="&#xbd;" horiz-adv-x="861" 
d="M166 0l411 659h66l-412 -659h-65zM190 270v322l-119 -47l-23 48l154 65h50v-388h-62zM529 0c9 191 190 198 190 285c0 30 -23 50 -61 50c-34 0 -64 -13 -95 -30l-21 48c37 21 78 36 123 36c78 0 119 -42 119 -101c0 -111 -158 -124 -181 -232h181v-56h-255z" />
    <glyph glyph-name="threequarters" unicode="&#xbe;" horiz-adv-x="861" 
d="M206 0l411 659h66l-412 -659h-65zM485 88v41l192 259h55v-250h53v-50h-53v-88h-62v88h-185zM554 138h73h43v42c0 33 0 70 3 119zM51 285l17 50c28 -13 58 -19 85 -19c52 0 91 17 91 63c0 23 -13 43 -41 52c-16 6 -31 8 -64 8h-40v51h35c27 0 47 4 61 10
c27 12 37 34 37 53c0 37 -30 52 -65 52c-34 0 -61 -9 -87 -21l-19 48c32 15 71 27 115 27c73 0 121 -40 121 -99c0 -44 -27 -75 -69 -90v-2c51 -9 81 -43 81 -94c0 -59 -47 -111 -154 -111c-34 0 -76 8 -104 22z" />
    <glyph glyph-name="questiondown" unicode="&#xbf;" horiz-adv-x="453" 
d="M265 386c-27 0 -48 22 -48 50c0 27 21 49 48 49c26 0 47 -22 47 -49c0 -28 -21 -50 -47 -50zM361 -65l35 -50c-47 -44 -110 -72 -177 -72c-100 0 -158 59 -158 138c0 144 202 174 202 262c0 21 -7 37 -23 55l59 33c25 -26 37 -56 37 -87c0 -123 -197 -148 -197 -257
c0 -53 38 -81 88 -81c51 0 94 22 134 59z" />
    <glyph glyph-name="Agrave" unicode="&#xc0;" horiz-adv-x="587" 
d="M17 0l250 661h51l252 -661h-80l-65 177h-265l-65 -177h-78zM183 239h218l-68 190c-21 58 -31 89 -39 114h-2c-8 -25 -19 -56 -40 -114zM277 696l-86 147h87l58 -147h-59z" />
    <glyph glyph-name="Aacute" unicode="&#xc1;" horiz-adv-x="587" 
d="M17 0l250 661h51l252 -661h-80l-65 177h-265l-65 -177h-78zM183 239h218l-68 190c-21 58 -31 89 -39 114h-2c-8 -25 -19 -56 -40 -114zM249 696l58 147h83l-85 -147h-56z" />
    <glyph glyph-name="Acircumflex" unicode="&#xc2;" horiz-adv-x="587" 
d="M17 0l250 661h51l252 -661h-80l-65 177h-265l-65 -177h-78zM183 239h218l-68 190c-21 58 -31 89 -39 114h-2c-8 -25 -19 -56 -40 -114zM161 696l98 147h69l99 -147h-64l-69 100l-70 -100h-63z" />
    <glyph glyph-name="Atilde" unicode="&#xc3;" horiz-adv-x="587" 
d="M17 0l250 661h51l252 -661h-80l-65 177h-265l-65 -177h-78zM183 239h218l-68 190c-21 58 -31 89 -39 114h-2c-8 -25 -19 -56 -40 -114zM153 726v23c0 47 31 76 71 76c54 0 94 -48 128 -48c21 0 26 18 26 42h53v-22c0 -48 -31 -77 -71 -77c-53 0 -94 48 -128 48
c-21 0 -26 -18 -26 -42h-53z" />
    <glyph glyph-name="Adieresis" unicode="&#xc4;" horiz-adv-x="587" 
d="M17 0l250 661h51l252 -661h-80l-65 177h-265l-65 -177h-78zM183 239h218l-68 190c-21 58 -31 89 -39 114h-2c-8 -25 -19 -56 -40 -114zM203 706c-24 0 -43 19 -43 44c0 24 19 43 43 43s44 -19 44 -43c0 -25 -20 -44 -44 -44zM381 706c-24 0 -44 19 -44 44
c0 24 20 43 44 43s43 -19 43 -43c0 -25 -19 -44 -43 -44z" />
    <glyph glyph-name="Aring" unicode="&#xc5;" horiz-adv-x="587" 
d="M17 0l247 654c-46 9 -76 43 -76 92c0 58 43 95 103 95s103 -37 103 -95c0 -48 -30 -82 -74 -91l250 -655h-80l-65 177h-265l-65 -177h-78zM183 239h218l-68 191c-21 59 -31 90 -39 117h-2c-8 -27 -19 -58 -40 -117zM291 692c30 0 50 21 50 54s-20 54 -50 54
s-49 -21 -49 -54s19 -54 49 -54z" />
    <glyph glyph-name="AE" unicode="&#xc6;" horiz-adv-x="797" 
d="M16 0l343 659h374l-24 -63h-274l40 -228h231v-63h-220l42 -242h211v-63h-276l-31 177h-245l-92 -177h-79zM220 239h202l-33 195c-6 35 -11 73 -17 110h-2c-15 -36 -37 -80 -60 -125z" />
    <glyph glyph-name="Ccedilla" unicode="&#xc7;" horiz-adv-x="590" 
d="M246 -200l13 43c16 -7 32 -10 50 -10c29 0 54 12 54 39c0 35 -40 39 -86 38l26 86c-157 26 -249 154 -249 325c0 193 132 343 327 343c70 0 130 -16 163 -35v-70c-46 25 -95 41 -162 41c-151 0 -250 -122 -250 -274c0 -161 93 -272 243 -272c61 0 112 17 157 41l20 -59
c-60 -33 -135 -49 -191 -45l-14 -45c42 -3 81 -21 81 -72c0 -54 -46 -86 -115 -86c-31 0 -52 6 -67 12z" />
    <glyph glyph-name="Egrave" unicode="&#xc8;" horiz-adv-x="468" 
d="M86 0v659h318l-24 -63h-220v-228h217v-63h-217v-242h250v-63h-324zM224 696l-86 147h87l58 -147h-59z" />
    <glyph glyph-name="Eacute" unicode="&#xc9;" horiz-adv-x="468" 
d="M86 0v659h318l-24 -63h-220v-228h217v-63h-217v-242h250v-63h-324zM199 696l58 147h83l-85 -147h-56z" />
    <glyph glyph-name="Ecircumflex" unicode="&#xca;" horiz-adv-x="468" 
d="M86 0v659h318l-24 -63h-220v-228h217v-63h-217v-242h250v-63h-324zM108 696l98 147h69l99 -147h-64l-69 100l-70 -100h-63z" />
    <glyph glyph-name="Edieresis" unicode="&#xcb;" horiz-adv-x="468" 
d="M86 0v659h318l-24 -63h-220v-228h217v-63h-217v-242h250v-63h-324zM153 706c-24 0 -43 19 -43 44c0 24 19 43 43 43s44 -19 44 -43c0 -25 -20 -44 -44 -44zM331 706c-24 0 -44 19 -44 44c0 24 20 43 44 43s43 -19 43 -43c0 -25 -19 -44 -43 -44z" />
    <glyph glyph-name="Igrave" unicode="&#xcc;" horiz-adv-x="246" 
d="M86 0v659h74v-659h-74zM107 696l-86 147h87l58 -147h-59z" />
    <glyph glyph-name="Iacute" unicode="&#xcd;" horiz-adv-x="246" 
d="M86 0v659h74v-659h-74zM79 696l58 147h83l-85 -147h-56z" />
    <glyph glyph-name="Icircumflex" unicode="&#xce;" horiz-adv-x="246" 
d="M86 0v659h74v-659h-74zM-11 696l98 147h69l99 -147h-64l-69 100l-70 -100h-63z" />
    <glyph glyph-name="Idieresis" unicode="&#xcf;" horiz-adv-x="246" 
d="M86 0v659h74v-659h-74zM33 706c-24 0 -43 19 -43 44c0 24 19 43 43 43s44 -19 44 -43c0 -25 -20 -44 -44 -44zM211 706c-24 0 -44 19 -44 44c0 24 20 43 44 43s43 -19 43 -43c0 -25 -19 -44 -43 -44z" />
    <glyph glyph-name="Eth" unicode="&#xd0;" horiz-adv-x="647" 
d="M86 0v302h-77v62h77v295h158c236 0 349 -138 349 -326c0 -189 -114 -333 -352 -333h-155zM160 63h80c205 0 275 125 275 273c0 151 -86 260 -277 260h-78v-232h164v-62h-164v-239z" />
    <glyph glyph-name="Ntilde" unicode="&#xd1;" horiz-adv-x="716" 
d="M630 0h-62l-316 418c-40 52 -70 94 -93 127h-2c2 -33 3 -61 3 -113v-432h-74v659h71l304 -402c42 -56 73 -100 96 -133h2c-2 35 -2 64 -2 116v419h73v-659zM222 726v23c0 47 31 76 71 76c54 0 94 -48 128 -48c21 0 26 18 26 42h53v-22c0 -48 -31 -77 -71 -77
c-53 0 -94 48 -128 48c-21 0 -26 -18 -26 -42h-53z" />
    <glyph glyph-name="Ograve" unicode="&#xd2;" horiz-adv-x="750" 
d="M375 -10c-184 0 -321 132 -321 336c0 200 136 338 321 338c187 0 321 -141 321 -338c0 -206 -141 -336 -321 -336zM375 54c147 0 243 109 243 272c0 155 -87 274 -243 274c-147 0 -243 -111 -243 -274s96 -272 243 -272zM359 696l-86 147h87l58 -147h-59z" />
    <glyph glyph-name="Oacute" unicode="&#xd3;" horiz-adv-x="750" 
d="M375 -10c-184 0 -321 132 -321 336c0 200 136 338 321 338c187 0 321 -141 321 -338c0 -206 -141 -336 -321 -336zM375 54c147 0 243 109 243 272c0 155 -87 274 -243 274c-147 0 -243 -111 -243 -274s96 -272 243 -272zM338 696l58 147h83l-85 -147h-56z" />
    <glyph glyph-name="Ocircumflex" unicode="&#xd4;" horiz-adv-x="750" 
d="M375 -10c-184 0 -321 132 -321 336c0 200 136 338 321 338c187 0 321 -141 321 -338c0 -206 -141 -336 -321 -336zM375 54c147 0 243 109 243 272c0 155 -87 274 -243 274c-147 0 -243 -111 -243 -274s96 -272 243 -272zM244 696l98 147h69l99 -147h-64l-69 100l-70 -100
h-63z" />
    <glyph glyph-name="Otilde" unicode="&#xd5;" horiz-adv-x="750" 
d="M375 -10c-184 0 -321 132 -321 336c0 200 136 338 321 338c187 0 321 -141 321 -338c0 -206 -141 -336 -321 -336zM375 54c147 0 243 109 243 272c0 155 -87 274 -243 274c-147 0 -243 -111 -243 -274s96 -272 243 -272zM238 726v23c0 47 31 76 71 76
c54 0 94 -48 128 -48c21 0 26 18 26 42h53v-22c0 -48 -31 -77 -71 -77c-53 0 -94 48 -128 48c-21 0 -26 -18 -26 -42h-53z" />
    <glyph glyph-name="Odieresis" unicode="&#xd6;" horiz-adv-x="750" 
d="M375 -10c-184 0 -321 132 -321 336c0 200 136 338 321 338c187 0 321 -141 321 -338c0 -206 -141 -336 -321 -336zM375 54c147 0 243 109 243 272c0 155 -87 274 -243 274c-147 0 -243 -111 -243 -274s96 -272 243 -272zM289 706c-24 0 -43 19 -43 44c0 24 19 43 43 43
s44 -19 44 -43c0 -25 -20 -44 -44 -44zM467 706c-24 0 -44 19 -44 44c0 24 20 43 44 43s43 -19 43 -43c0 -25 -19 -44 -43 -44z" />
    <glyph glyph-name="multiply" unicode="&#xd7;" horiz-adv-x="537" 
d="M84 21l-47 47l184 185l-184 183l47 47l184 -183l184 183l46 -46l-183 -184l183 -184l-46 -47l-184 184z" />
    <glyph glyph-name="Oslash" unicode="&#xd8;" horiz-adv-x="752" 
d="M110 -15l-48 39l68 76c-47 57 -75 134 -75 226c0 200 136 338 321 338c76 0 143 -25 196 -67l68 78l49 -39l-72 -80c50 -58 80 -138 80 -230c0 -206 -141 -336 -321 -336c-78 0 -147 25 -201 69zM570 501l-351 -391c41 -36 94 -56 157 -56c147 0 244 109 244 272
c0 67 -17 128 -50 175zM178 156l351 391c-39 33 -90 54 -153 54c-147 0 -244 -112 -244 -275c0 -67 16 -125 46 -170z" />
    <glyph glyph-name="Ugrave" unicode="&#xd9;" horiz-adv-x="652" 
d="M326 -10c-120 0 -198 49 -230 140c-10 31 -15 67 -15 106v423h74v-416c0 -35 4 -66 13 -92c23 -62 76 -98 158 -98c83 0 135 36 158 98c10 26 13 57 13 95v413h74v-423c0 -41 -5 -77 -17 -108c-32 -90 -111 -138 -228 -138zM310 696l-86 147h87l58 -147h-59z" />
    <glyph glyph-name="Uacute" unicode="&#xda;" horiz-adv-x="652" 
d="M326 -10c-120 0 -198 49 -230 140c-10 31 -15 67 -15 106v423h74v-416c0 -35 4 -66 13 -92c23 -62 76 -98 158 -98c83 0 135 36 158 98c10 26 13 57 13 95v413h74v-423c0 -41 -5 -77 -17 -108c-32 -90 -111 -138 -228 -138zM292 696l58 147h83l-85 -147h-56z" />
    <glyph glyph-name="Ucircumflex" unicode="&#xdb;" horiz-adv-x="652" 
d="M326 -10c-120 0 -198 49 -230 140c-10 31 -15 67 -15 106v423h74v-416c0 -35 4 -66 13 -92c23 -62 76 -98 158 -98c83 0 135 36 158 98c10 26 13 57 13 95v413h74v-423c0 -41 -5 -77 -17 -108c-32 -90 -111 -138 -228 -138zM197 696l98 147h69l99 -147h-64l-69 100
l-70 -100h-63z" />
    <glyph glyph-name="Udieresis" unicode="&#xdc;" horiz-adv-x="652" 
d="M326 -10c-120 0 -198 49 -230 140c-10 31 -15 67 -15 106v423h74v-416c0 -35 4 -66 13 -92c23 -62 76 -98 158 -98c83 0 135 36 158 98c10 26 13 57 13 95v413h74v-423c0 -41 -5 -77 -17 -108c-32 -90 -111 -138 -228 -138zM241 706c-24 0 -43 19 -43 44
c0 24 19 43 43 43s44 -19 44 -43c0 -25 -20 -44 -44 -44zM419 706c-24 0 -44 19 -44 44c0 24 20 43 44 43s43 -19 43 -43c0 -25 -19 -44 -43 -44z" />
    <glyph glyph-name="Yacute" unicode="&#xdd;" horiz-adv-x="536" 
d="M233 0v263l-217 396h82l172 -323h2l168 323h80l-214 -397v-262h-73zM228 696l58 147h83l-85 -147h-56z" />
    <glyph glyph-name="Thorn" unicode="&#xde;" horiz-adv-x="502" 
d="M86 0v659h74v-113h50c64 0 108 -11 143 -30c60 -34 95 -96 95 -179c0 -76 -33 -146 -110 -182c-33 -16 -76 -25 -135 -25h-43v-130h-74zM160 192h49c42 0 73 7 96 19c44 23 67 67 67 126c0 56 -22 101 -63 125c-23 14 -54 22 -99 22h-50v-292z" />
    <glyph glyph-name="germandbls" unicode="&#xdf;" horiz-adv-x="568" 
d="M65 -141v633c0 174 117 216 201 216c99 0 195 -57 195 -208v-23c-68 -14 -103 -36 -103 -79c0 -93 174 -101 174 -259c0 -104 -82 -149 -173 -149c-62 0 -112 21 -139 38l24 58c27 -17 63 -34 111 -34c57 0 103 21 103 85c0 118 -173 122 -173 252c0 62 37 104 104 125
c-2 83 -45 132 -124 132c-67 0 -126 -39 -126 -150v-637h-74z" />
    <glyph glyph-name="agrave" unicode="&#xe0;" horiz-adv-x="461" 
d="M344 0l-14 53c-37 -35 -83 -63 -142 -63c-86 0 -150 55 -150 146c0 63 32 106 80 128c32 16 70 21 118 23l90 3v30c0 72 -43 104 -102 104c-57 0 -97 -19 -130 -39l-28 52c55 35 114 48 166 48c98 0 168 -48 168 -161v-163c0 -93 3 -137 9 -161h-65zM326 234l-83 -3
c-41 -1 -68 -7 -89 -18c-27 -15 -41 -42 -41 -73c0 -52 34 -88 88 -88c59 0 103 39 125 62v120zM214 531l-86 147h87l58 -147h-59z" />
    <glyph glyph-name="aacute" unicode="&#xe1;" horiz-adv-x="461" 
d="M344 0l-14 53c-37 -35 -83 -63 -142 -63c-86 0 -150 55 -150 146c0 63 32 106 80 128c32 16 70 21 118 23l90 3v30c0 72 -43 104 -102 104c-57 0 -97 -19 -130 -39l-28 52c55 35 114 48 166 48c98 0 168 -48 168 -161v-163c0 -93 3 -137 9 -161h-65zM326 234l-83 -3
c-41 -1 -68 -7 -89 -18c-27 -15 -41 -42 -41 -73c0 -52 34 -88 88 -88c59 0 103 39 125 62v120zM186 531l58 147h83l-85 -147h-56z" />
    <glyph glyph-name="acircumflex" unicode="&#xe2;" horiz-adv-x="461" 
d="M344 0l-14 53c-37 -35 -83 -63 -142 -63c-86 0 -150 55 -150 146c0 63 32 106 80 128c32 16 70 21 118 23l90 3v30c0 72 -43 104 -102 104c-57 0 -97 -19 -130 -39l-28 52c55 35 114 48 166 48c98 0 168 -48 168 -161v-163c0 -93 3 -137 9 -161h-65zM326 234l-83 -3
c-41 -1 -68 -7 -89 -18c-27 -15 -41 -42 -41 -73c0 -52 34 -88 88 -88c59 0 103 39 125 62v120zM96 531l98 147h69l99 -147h-64l-69 100l-70 -100h-63z" />
    <glyph glyph-name="atilde" unicode="&#xe3;" horiz-adv-x="461" 
d="M344 0l-14 53c-37 -35 -83 -63 -142 -63c-86 0 -150 55 -150 146c0 63 32 106 80 128c32 16 70 21 118 23l90 3v30c0 72 -43 104 -102 104c-57 0 -97 -19 -130 -39l-28 52c55 35 114 48 166 48c98 0 168 -48 168 -161v-163c0 -93 3 -137 9 -161h-65zM326 234l-83 -3
c-41 -1 -68 -7 -89 -18c-27 -15 -41 -42 -41 -73c0 -52 34 -88 88 -88c59 0 103 39 125 62v120zM90 554v22c0 48 31 77 71 77c54 0 94 -48 128 -48c21 0 26 18 26 42h53v-22c0 -48 -31 -77 -71 -77c-53 0 -94 48 -128 48c-21 0 -26 -18 -26 -42h-53z" />
    <glyph glyph-name="adieresis" unicode="&#xe4;" horiz-adv-x="461" 
d="M344 0l-14 53c-37 -35 -83 -63 -142 -63c-86 0 -150 55 -150 146c0 63 32 106 80 128c32 16 70 21 118 23l90 3v30c0 72 -43 104 -102 104c-57 0 -97 -19 -130 -39l-28 52c55 35 114 48 166 48c98 0 168 -48 168 -161v-163c0 -93 3 -137 9 -161h-65zM326 234l-83 -3
c-41 -1 -68 -7 -89 -18c-27 -15 -41 -42 -41 -73c0 -52 34 -88 88 -88c59 0 103 39 125 62v120zM140 561c-24 0 -43 19 -43 43c0 25 19 44 43 44s44 -19 44 -44c0 -24 -20 -43 -44 -43zM318 561c-24 0 -44 19 -44 43c0 25 20 44 44 44s43 -19 43 -44c0 -24 -19 -43 -43 -43z
" />
    <glyph glyph-name="aring" unicode="&#xe5;" horiz-adv-x="461" 
d="M344 0l-14 53c-37 -35 -83 -63 -142 -63c-86 0 -150 55 -150 146c0 63 32 106 80 128c32 16 70 21 118 23l90 3v30c0 72 -43 104 -102 104c-57 0 -97 -19 -130 -39l-28 52c55 35 114 48 166 48c98 0 168 -48 168 -161v-163c0 -93 3 -137 9 -161h-65zM326 234l-83 -3
c-41 -1 -68 -7 -89 -18c-27 -15 -41 -42 -41 -73c0 -52 34 -88 88 -88c59 0 103 39 125 62v120zM229 524c-60 0 -103 37 -103 95c0 57 43 95 103 95s103 -38 103 -95c0 -58 -43 -95 -103 -95zM229 564c30 0 49 21 49 55c0 33 -19 54 -49 54s-49 -21 -49 -54
c0 -34 19 -55 49 -55z" />
    <glyph glyph-name="ae" unicode="&#xe6;" horiz-adv-x="749" 
d="M191 -10c-86 0 -153 54 -153 146c0 101 80 146 195 146h96v38c0 72 -45 104 -104 104c-58 0 -98 -20 -131 -40l-28 53c55 35 113 48 165 48c66 0 119 -25 144 -81h2c33 53 83 81 145 81c117 0 186 -93 186 -243v-17h-307c2 -98 58 -173 157 -173c45 0 84 14 117 32
l23 -52c-41 -27 -98 -42 -150 -42c-83 0 -143 37 -179 93c-41 -52 -102 -93 -178 -93zM201 52c60 0 113 42 142 83c-9 27 -14 57 -14 90h-89c-80 0 -127 -28 -127 -87c0 -51 34 -86 88 -86zM402 282h229c-2 72 -37 143 -111 143c-72 0 -116 -64 -118 -143z" />
    <glyph glyph-name="ccedilla" unicode="&#xe7;" horiz-adv-x="425" 
d="M150 -200l13 43c16 -7 32 -10 50 -10c29 0 53 12 53 39c0 39 -49 37 -85 38l26 86c-109 24 -167 121 -167 236c0 138 89 253 235 253c47 0 89 -13 118 -29v-65c-31 19 -68 32 -114 32c-101 0 -163 -79 -163 -186c0 -117 61 -184 157 -184c50 0 85 16 114 32l23 -52
c-34 -23 -88 -43 -141 -43h-4l-14 -44c41 -3 81 -21 81 -72c0 -54 -46 -86 -116 -86c-30 0 -52 6 -66 12z" />
    <glyph glyph-name="egrave" unicode="&#xe8;" horiz-adv-x="463" 
d="M423 224h-307c1 -97 57 -172 157 -172c45 0 84 14 117 32l23 -52c-41 -27 -98 -42 -150 -42c-150 0 -223 114 -223 252c0 144 80 243 194 243c120 0 189 -94 189 -243v-18zM116 281h230c-2 72 -37 144 -111 144c-73 0 -117 -65 -119 -144zM222 531l-86 147h87l58 -147
h-59z" />
    <glyph glyph-name="eacute" unicode="&#xe9;" horiz-adv-x="463" 
d="M423 224h-307c1 -97 57 -172 157 -172c45 0 84 14 117 32l23 -52c-41 -27 -98 -42 -150 -42c-150 0 -223 114 -223 252c0 144 80 243 194 243c120 0 189 -94 189 -243v-18zM116 281h230c-2 72 -37 144 -111 144c-73 0 -117 -65 -119 -144zM194 531l58 147h83l-85 -147
h-56z" />
    <glyph glyph-name="ecircumflex" unicode="&#xea;" horiz-adv-x="463" 
d="M423 224h-307c1 -97 57 -172 157 -172c45 0 84 14 117 32l23 -52c-41 -27 -98 -42 -150 -42c-150 0 -223 114 -223 252c0 144 80 243 194 243c120 0 189 -94 189 -243v-18zM116 281h230c-2 72 -37 144 -111 144c-73 0 -117 -65 -119 -144zM104 531l98 147h69l99 -147h-64
l-69 100l-70 -100h-63z" />
    <glyph glyph-name="edieresis" unicode="&#xeb;" horiz-adv-x="463" 
d="M423 224h-307c1 -97 57 -172 157 -172c45 0 84 14 117 32l23 -52c-41 -27 -98 -42 -150 -42c-150 0 -223 114 -223 252c0 144 80 243 194 243c120 0 189 -94 189 -243v-18zM116 281h230c-2 72 -37 144 -111 144c-73 0 -117 -65 -119 -144zM148 561c-24 0 -43 19 -43 43
c0 25 19 44 43 44s44 -19 44 -44c0 -24 -20 -43 -44 -43zM326 561c-24 0 -44 19 -44 43c0 25 20 44 44 44s43 -19 43 -44c0 -24 -19 -43 -43 -43z" />
    <glyph glyph-name="igrave" unicode="&#xec;" horiz-adv-x="225" 
d="M99 531l-86 147h87l58 -147h-59zM76 0v473h73v-473h-73z" />
    <glyph glyph-name="iacute" unicode="&#xed;" horiz-adv-x="225" 
d="M71 531l58 147h83l-85 -147h-56zM76 0v473h73v-473h-73z" />
    <glyph glyph-name="icircumflex" unicode="&#xee;" horiz-adv-x="225" 
d="M76 0v473h73v-473h-73zM-19 531l98 147h69l99 -147h-64l-69 100l-70 -100h-63z" />
    <glyph glyph-name="idieresis" unicode="&#xef;" horiz-adv-x="225" 
d="M25 561c-24 0 -43 19 -43 43c0 25 19 44 43 44s44 -19 44 -44c0 -24 -20 -43 -44 -43zM203 561c-24 0 -44 19 -44 43c0 25 20 44 44 44s43 -19 43 -44c0 -24 -19 -43 -43 -43zM76 0v473h73v-473h-73z" />
    <glyph glyph-name="eth" unicode="&#xf0;" horiz-adv-x="535" 
d="M438 665l-94 -44c102 -80 133 -212 133 -332c0 -206 -94 -299 -220 -299c-131 0 -217 107 -217 245c0 140 80 248 211 248c66 0 127 -36 157 -87h2c-12 69 -54 147 -126 196l-131 -61l-21 43l97 44c-32 16 -78 26 -125 29l13 61c75 -7 139 -28 184 -55l116 55zM258 52
c88 0 142 74 142 188c0 105 -55 181 -142 181c-88 0 -142 -77 -142 -185c0 -109 56 -184 142 -184z" />
    <glyph glyph-name="ntilde" unicode="&#xf1;" horiz-adv-x="506" 
d="M65 0v473h62l9 -61c52 44 105 73 166 73c74 0 140 -47 140 -166v-319h-73v294c0 71 -18 125 -85 125c-53 0 -101 -32 -145 -71v-348h-74zM105 554v22c0 48 31 77 71 77c54 0 94 -48 128 -48c21 0 26 18 26 42h53v-22c0 -48 -31 -77 -71 -77c-53 0 -94 48 -128 48
c-21 0 -26 -18 -26 -42h-53z" />
    <glyph glyph-name="ograve" unicode="&#xf2;" horiz-adv-x="516" 
d="M258 -10c-132 0 -218 109 -218 247c0 139 85 248 219 248c131 0 218 -109 218 -248c0 -138 -86 -247 -219 -247zM258 53c87 0 142 76 142 184c0 109 -55 185 -141 185c-88 0 -143 -76 -143 -185c0 -108 55 -184 142 -184zM239 531l-86 147h87l58 -147h-59z" />
    <glyph glyph-name="oacute" unicode="&#xf3;" horiz-adv-x="516" 
d="M258 -10c-132 0 -218 109 -218 247c0 139 85 248 219 248c131 0 218 -109 218 -248c0 -138 -86 -247 -219 -247zM258 53c87 0 142 76 142 184c0 109 -55 185 -141 185c-88 0 -143 -76 -143 -185c0 -108 55 -184 142 -184zM225 531l58 147h83l-85 -147h-56z" />
    <glyph glyph-name="ocircumflex" unicode="&#xf4;" horiz-adv-x="516" 
d="M258 -10c-132 0 -218 109 -218 247c0 139 85 248 219 248c131 0 218 -109 218 -248c0 -138 -86 -247 -219 -247zM258 53c87 0 142 76 142 184c0 109 -55 185 -141 185c-88 0 -143 -76 -143 -185c0 -108 55 -184 142 -184zM125 531l98 147h69l99 -147h-64l-69 100
l-70 -100h-63z" />
    <glyph glyph-name="otilde" unicode="&#xf5;" horiz-adv-x="516" 
d="M258 -10c-132 0 -218 109 -218 247c0 139 85 248 219 248c131 0 218 -109 218 -248c0 -138 -86 -247 -219 -247zM258 53c87 0 142 76 142 184c0 109 -55 185 -141 185c-88 0 -143 -76 -143 -185c0 -108 55 -184 142 -184zM119 554v22c0 48 31 77 71 77
c54 0 94 -48 128 -48c21 0 26 18 26 42h53v-22c0 -48 -31 -77 -71 -77c-53 0 -94 48 -128 48c-21 0 -26 -18 -26 -42h-53z" />
    <glyph glyph-name="odieresis" unicode="&#xf6;" horiz-adv-x="516" 
d="M258 -10c-132 0 -218 109 -218 247c0 139 85 248 219 248c131 0 218 -109 218 -248c0 -138 -86 -247 -219 -247zM258 53c87 0 142 76 142 184c0 109 -55 185 -141 185c-88 0 -143 -76 -143 -185c0 -108 55 -184 142 -184zM169 561c-24 0 -43 19 -43 43c0 25 19 44 43 44
s44 -19 44 -44c0 -24 -20 -43 -44 -43zM347 561c-24 0 -44 19 -44 43c0 25 20 44 44 44s43 -19 43 -44c0 -24 -19 -43 -43 -43z" />
    <glyph glyph-name="divide" unicode="&#xf7;" 
d="M262 375c-26 0 -46 22 -46 48s20 47 46 47c25 0 46 -21 46 -47s-21 -48 -46 -48zM25 222v63h473v-63h-473zM262 35c-26 0 -46 22 -46 48s20 47 46 47c25 0 46 -21 46 -47s-21 -48 -46 -48z" />
    <glyph glyph-name="oslash" unicode="&#xf8;" horiz-adv-x="516" 
d="M85 -20l-39 33l48 57c-34 44 -54 102 -54 167c0 139 85 248 219 248c51 0 95 -18 130 -47l41 52l40 -32l-46 -55c33 -44 53 -101 53 -166c0 -138 -86 -247 -219 -247c-51 0 -95 17 -129 45zM170 86c23 -22 53 -34 88 -34c87 0 143 77 143 185c0 41 -8 78 -22 108z
M139 128l209 259c-23 23 -54 37 -89 37c-88 0 -144 -78 -144 -187c0 -42 8 -80 24 -109z" />
    <glyph glyph-name="ugrave" unicode="&#xf9;" horiz-adv-x="505" 
d="M204 -10c-45 0 -104 20 -127 88c-8 26 -12 50 -12 86v309h74v-291c0 -32 1 -54 8 -74c12 -37 39 -53 78 -53c55 0 108 34 133 67v351h73v-313c0 -92 4 -136 10 -160h-66l-14 55c-42 -37 -95 -65 -157 -65zM231 531l-86 147h87l58 -147h-59z" />
    <glyph glyph-name="uacute" unicode="&#xfa;" horiz-adv-x="505" 
d="M204 -10c-45 0 -104 20 -127 88c-8 26 -12 50 -12 86v309h74v-291c0 -32 1 -54 8 -74c12 -37 39 -53 78 -53c55 0 108 34 133 67v351h73v-313c0 -92 4 -136 10 -160h-66l-14 55c-42 -37 -95 -65 -157 -65zM212 531l58 147h83l-85 -147h-56z" />
    <glyph glyph-name="ucircumflex" unicode="&#xfb;" horiz-adv-x="505" 
d="M204 -10c-45 0 -104 20 -127 88c-8 26 -12 50 -12 86v309h74v-291c0 -32 1 -54 8 -74c12 -37 39 -53 78 -53c55 0 108 34 133 67v351h73v-313c0 -92 4 -136 10 -160h-66l-14 55c-42 -37 -95 -65 -157 -65zM119 531l98 147h69l99 -147h-64l-69 100l-70 -100h-63z" />
    <glyph glyph-name="udieresis" unicode="&#xfc;" horiz-adv-x="505" 
d="M204 -10c-45 0 -104 20 -127 88c-8 26 -12 50 -12 86v309h74v-291c0 -32 1 -54 8 -74c12 -37 39 -53 78 -53c55 0 108 34 133 67v351h73v-313c0 -92 4 -136 10 -160h-66l-14 55c-42 -37 -95 -65 -157 -65zM163 561c-24 0 -43 19 -43 43c0 25 19 44 43 44s44 -19 44 -44
c0 -24 -20 -43 -44 -43zM341 561c-24 0 -44 19 -44 43c0 25 20 44 44 44s43 -19 43 -44c0 -24 -19 -43 -43 -43z" />
    <glyph glyph-name="yacute" unicode="&#xfd;" horiz-adv-x="466" 
d="M456 473l-177 -510c-61 -174 -133 -200 -210 -200c-35 0 -60 6 -84 16l18 61c18 -8 40 -14 65 -14c62 0 113 45 150 171l-208 476h80l161 -383h2l126 383h77zM196 531l58 147h83l-85 -147h-56z" />
    <glyph glyph-name="thorn" unicode="&#xfe;" horiz-adv-x="505" 
d="M69 -237v945h73v-234c23 6 56 11 87 11c147 0 236 -90 236 -244s-101 -251 -239 -251c-30 0 -60 7 -84 17v-244h-73zM142 73c28 -14 51 -20 82 -20c107 0 165 75 165 188c0 125 -72 181 -166 181c-30 0 -55 -4 -81 -13v-336z" />
    <glyph glyph-name="ydieresis" unicode="&#xff;" horiz-adv-x="466" 
d="M456 473l-177 -510c-61 -174 -133 -200 -210 -200c-35 0 -60 6 -84 16l18 61c18 -8 40 -14 65 -14c62 0 113 45 150 171l-208 476h80l161 -383h2l126 383h77zM150 561c-24 0 -43 19 -43 43c0 25 19 44 43 44s44 -19 44 -44c0 -24 -20 -43 -44 -43zM328 561
c-24 0 -44 19 -44 43c0 25 20 44 44 44s43 -19 43 -44c0 -24 -19 -43 -43 -43z" />
    <glyph glyph-name="Amacron" unicode="&#x100;" horiz-adv-x="587" 
d="M17 0l250 661h51l252 -661h-80l-65 177h-265l-65 -177h-78zM183 239h218l-68 190c-21 58 -31 89 -39 114h-2c-8 -25 -19 -56 -40 -114zM168 717v59h248v-59h-248z" />
    <glyph glyph-name="amacron" unicode="&#x101;" horiz-adv-x="461" 
d="M344 0l-14 53c-37 -35 -83 -63 -142 -63c-86 0 -150 55 -150 146c0 63 32 106 80 128c32 16 70 21 118 23l90 3v30c0 72 -43 104 -102 104c-57 0 -97 -19 -130 -39l-28 52c55 35 114 48 166 48c98 0 168 -48 168 -161v-163c0 -93 3 -137 9 -161h-65zM326 234l-83 -3
c-41 -1 -68 -7 -89 -18c-27 -15 -41 -42 -41 -73c0 -52 34 -88 88 -88c59 0 103 39 125 62v120zM105 574v59h248v-59h-248z" />
    <glyph glyph-name="Abreve" unicode="&#x102;" horiz-adv-x="587" 
d="M17 0l250 661h51l252 -661h-80l-65 177h-265l-65 -177h-78zM183 239h218l-68 190c-21 58 -31 89 -39 114h-2c-8 -25 -19 -56 -40 -114zM364 825h53c-5 -74 -52 -122 -126 -122c-75 0 -119 48 -124 122h53c7 -40 28 -69 72 -69s66 29 72 69z" />
    <glyph glyph-name="abreve" unicode="&#x103;" horiz-adv-x="461" 
d="M344 0l-14 53c-37 -35 -83 -63 -142 -63c-86 0 -150 55 -150 146c0 63 32 106 80 128c32 16 70 21 118 23l90 3v30c0 72 -43 104 -102 104c-57 0 -97 -19 -130 -39l-28 52c55 35 114 48 166 48c98 0 168 -48 168 -161v-163c0 -93 3 -137 9 -161h-65zM326 234l-83 -3
c-41 -1 -68 -7 -89 -18c-27 -15 -41 -42 -41 -73c0 -52 34 -88 88 -88c59 0 103 39 125 62v120zM301 666h53c-5 -74 -52 -122 -126 -122c-75 0 -119 48 -124 122h53c7 -40 28 -69 72 -69s66 29 72 69z" />
    <glyph glyph-name="Aogonek" unicode="&#x104;" horiz-adv-x="587" 
d="M17 0l250 661h51l252 -661c-67 -28 -116 -74 -116 -121c0 -24 12 -41 38 -41c11 0 24 3 39 7l10 -47c-22 -7 -44 -11 -62 -11c-59 0 -90 37 -90 80c0 71 60 114 99 140l-63 170h-265l-65 -177h-78zM183 239h218l-68 190c-21 58 -31 89 -39 114h-2
c-8 -25 -19 -56 -40 -114z" />
    <glyph glyph-name="aogonek" unicode="&#x105;" horiz-adv-x="461" 
d="M409 -3c-57 -28 -104 -70 -104 -118c0 -24 12 -41 38 -41c11 0 23 3 38 7l10 -47c-22 -7 -43 -11 -61 -11c-59 0 -90 37 -90 80c0 74 65 118 101 142l-11 44c-37 -35 -83 -63 -142 -63c-86 0 -150 55 -150 146c0 63 32 106 80 128c32 16 70 21 118 23l90 3v30
c0 72 -43 104 -102 104c-57 0 -97 -19 -130 -39l-28 52c55 35 114 48 166 48c98 0 168 -48 168 -161v-164c0 -92 3 -140 9 -163zM201 52c59 0 103 39 125 62v120l-83 -3c-41 -1 -68 -7 -89 -18c-27 -15 -41 -42 -41 -73c0 -52 34 -88 88 -88z" />
    <glyph glyph-name="Cacute" unicode="&#x106;" horiz-adv-x="590" 
d="M532 95l20 -59c-62 -33 -124 -46 -184 -46c-197 0 -314 138 -314 331s132 343 327 343c70 0 130 -16 163 -35v-70c-46 25 -95 41 -162 41c-151 0 -250 -122 -250 -274c0 -161 93 -272 243 -272c61 0 112 17 157 41zM293 696l58 147h83l-85 -147h-56z" />
    <glyph glyph-name="cacute" unicode="&#x107;" horiz-adv-x="425" 
d="M264 -10c-145 0 -224 109 -224 242c0 138 89 253 235 253c47 0 89 -13 118 -29v-65c-31 19 -68 32 -114 32c-101 0 -163 -79 -163 -186c0 -117 61 -184 157 -184c50 0 85 16 114 32l23 -52c-34 -23 -88 -43 -146 -43zM205 531l58 147h83l-85 -147h-56z" />
    <glyph glyph-name="Ccircumflex" unicode="&#x108;" horiz-adv-x="590" 
d="M532 95l20 -59c-62 -33 -124 -46 -184 -46c-197 0 -314 138 -314 331s132 343 327 343c70 0 130 -16 163 -35v-70c-46 25 -95 41 -162 41c-151 0 -250 -122 -250 -274c0 -161 93 -272 243 -272c61 0 112 17 157 41zM207 696l98 147h69l99 -147h-64l-69 100l-70 -100h-63z
" />
    <glyph glyph-name="ccircumflex" unicode="&#x109;" horiz-adv-x="425" 
d="M264 -10c-145 0 -224 109 -224 242c0 138 89 253 235 253c47 0 89 -13 118 -29v-65c-31 19 -68 32 -114 32c-101 0 -163 -79 -163 -186c0 -117 61 -184 157 -184c50 0 85 16 114 32l23 -52c-34 -23 -88 -43 -146 -43zM115 531l98 147h69l99 -147h-64l-69 100l-70 -100
h-63z" />
    <glyph glyph-name="Cdotaccent" unicode="&#x10a;" horiz-adv-x="590" 
d="M532 95l20 -59c-62 -33 -124 -46 -184 -46c-197 0 -314 138 -314 331s132 343 327 343c70 0 130 -16 163 -35v-70c-46 25 -95 41 -162 41c-151 0 -250 -122 -250 -274c0 -161 93 -272 243 -272c61 0 112 17 157 41zM343 718c-28 0 -48 21 -48 49s20 50 48 50
c30 0 50 -21 50 -50c0 -28 -21 -49 -50 -49z" />
    <glyph glyph-name="cdotaccent" unicode="&#x10b;" horiz-adv-x="425" 
d="M264 -10c-145 0 -224 109 -224 242c0 138 89 253 235 253c47 0 89 -13 118 -29v-65c-31 19 -68 32 -114 32c-101 0 -163 -79 -163 -186c0 -117 61 -184 157 -184c50 0 85 16 114 32l23 -52c-34 -23 -88 -43 -146 -43zM247 580c-28 0 -48 21 -48 49s20 50 48 50
c30 0 50 -21 50 -50c0 -28 -21 -49 -50 -49z" />
    <glyph glyph-name="Ccaron" unicode="&#x10c;" horiz-adv-x="590" 
d="M532 95l20 -59c-62 -33 -124 -46 -184 -46c-197 0 -314 138 -314 331s132 343 327 343c70 0 130 -16 163 -35v-70c-46 25 -95 41 -162 41c-151 0 -250 -122 -250 -274c0 -161 93 -272 243 -272c61 0 112 17 157 41zM305 696l-98 147h64l70 -100l69 100h63l-99 -147h-69z
" />
    <glyph glyph-name="ccaron" unicode="&#x10d;" horiz-adv-x="425" 
d="M264 -10c-145 0 -224 109 -224 242c0 138 89 253 235 253c47 0 89 -13 118 -29v-65c-31 19 -68 32 -114 32c-101 0 -163 -79 -163 -186c0 -117 61 -184 157 -184c50 0 85 16 114 32l23 -52c-34 -23 -88 -43 -146 -43zM213 532l-98 147h64l70 -100l69 100h63l-99 -147h-69
z" />
    <glyph glyph-name="Dcaron" unicode="&#x10e;" horiz-adv-x="647" 
d="M86 0v659h158c236 0 349 -138 349 -326c0 -189 -114 -333 -352 -333h-155zM160 63h80c205 0 275 125 275 273c0 151 -86 260 -277 260h-78v-533zM251 696l-98 147h64l70 -100l69 100h63l-99 -147h-69z" />
    <glyph glyph-name="dcaron" unicode="&#x10f;" horiz-adv-x="509" 
d="M287 -10c-136 0 -247 81 -247 241c0 153 109 254 244 254c28 0 54 -3 80 -10v233h73v-686c-33 -18 -90 -32 -150 -32zM290 53c25 0 54 5 74 13v344c-24 8 -42 12 -75 12c-94 0 -173 -68 -173 -189c0 -110 65 -180 174 -180zM477 513l36 195h75l-55 -195h-56z" />
    <glyph glyph-name="Dcroat" unicode="&#x110;" horiz-adv-x="647" 
d="M86 0v302h-77v62h77v295h158c236 0 349 -138 349 -326c0 -189 -114 -333 -352 -333h-155zM160 63h80c205 0 275 125 275 273c0 151 -86 260 -277 260h-78v-232h164v-62h-164v-239z" />
    <glyph glyph-name="dcroat" unicode="&#x111;" horiz-adv-x="509" 
d="M283 -10c-132 0 -243 81 -243 241c0 153 109 254 245 254c29 0 52 -3 79 -10v90h-133v59h133v84h73v-84h62v-59h-62v-542c-33 -18 -87 -33 -154 -33zM290 54c25 0 54 4 74 12v345c-24 8 -42 12 -75 12c-95 0 -174 -68 -174 -189c0 -108 64 -180 175 -180z" />
    <glyph glyph-name="Emacron" unicode="&#x112;" horiz-adv-x="468" 
d="M86 0v659h318l-24 -63h-220v-228h217v-63h-217v-242h250v-63h-324zM118 717v59h248v-59h-248z" />
    <glyph glyph-name="emacron" unicode="&#x113;" horiz-adv-x="463" 
d="M423 224h-307c1 -97 57 -172 157 -172c45 0 84 14 117 32l23 -52c-41 -27 -98 -42 -150 -42c-150 0 -223 114 -223 252c0 144 80 243 194 243c120 0 189 -94 189 -243v-18zM116 281h230c-2 72 -37 144 -111 144c-73 0 -117 -65 -119 -144zM112 574v59h248v-59h-248z" />
    <glyph glyph-name="Ebreve" unicode="&#x114;" horiz-adv-x="468" 
d="M86 0v659h318l-24 -63h-220v-228h217v-63h-217v-242h250v-63h-324zM312 825h53c-5 -74 -52 -122 -126 -122c-75 0 -119 48 -124 122h53c7 -40 28 -69 72 -69s66 29 72 69z" />
    <glyph glyph-name="ebreve" unicode="&#x115;" horiz-adv-x="463" 
d="M423 224h-307c1 -97 57 -172 157 -172c45 0 84 14 117 32l23 -52c-41 -27 -98 -42 -150 -42c-150 0 -223 114 -223 252c0 144 80 243 194 243c120 0 189 -94 189 -243v-18zM116 281h230c-2 72 -37 144 -111 144c-73 0 -117 -65 -119 -144zM309 666h53
c-5 -74 -52 -122 -126 -122c-75 0 -119 48 -124 122h53c7 -40 28 -69 72 -69s66 29 72 69z" />
    <glyph glyph-name="Edotaccent" unicode="&#x116;" horiz-adv-x="468" 
d="M86 0v659h318l-24 -63h-220v-228h217v-63h-217v-242h250v-63h-324zM239 718c-28 0 -48 21 -48 49s20 50 48 50c30 0 50 -21 50 -50c0 -28 -21 -49 -50 -49z" />
    <glyph glyph-name="edotaccent" unicode="&#x117;" horiz-adv-x="463" 
d="M423 224h-307c1 -97 57 -172 157 -172c45 0 84 14 117 32l23 -52c-41 -27 -98 -42 -150 -42c-150 0 -223 114 -223 252c0 144 80 243 194 243c120 0 189 -94 189 -243v-18zM116 281h230c-2 72 -37 144 -111 144c-73 0 -117 -65 -119 -144zM236 580c-28 0 -48 21 -48 49
s20 50 48 50c30 0 50 -21 50 -50c0 -28 -21 -49 -50 -49z" />
    <glyph glyph-name="Eogonek" unicode="&#x118;" horiz-adv-x="468" 
d="M86 0v659h318l-24 -63h-220v-228h217v-63h-217v-242h250v-63h-16c-59 -29 -108 -73 -108 -121c0 -24 13 -41 39 -41c11 0 23 3 38 7l10 -47c-22 -7 -43 -11 -61 -11c-59 0 -90 37 -90 80c0 64 49 107 89 133h-225z" />
    <glyph glyph-name="eogonek" unicode="&#x119;" horiz-adv-x="463" 
d="M206 -133c0 57 40 97 76 123v2c-6 -1 -16 -2 -24 -2c-147 1 -218 115 -218 252c0 144 79 243 194 243c120 0 188 -94 188 -243v-18h-307c2 -97 57 -172 158 -172c44 0 84 14 116 32l24 -52c-59 -34 -143 -91 -143 -153c0 -24 13 -41 39 -41c11 0 23 3 38 7l10 -47
c-22 -7 -43 -11 -61 -11c-60 0 -90 37 -90 80zM116 281h229c-1 72 -36 144 -111 144c-72 0 -117 -65 -118 -144z" />
    <glyph glyph-name="Ecaron" unicode="&#x11a;" horiz-adv-x="468" 
d="M86 0v659h318l-24 -63h-220v-228h217v-63h-217v-242h250v-63h-324zM207 696l-98 147h64l70 -100l69 100h63l-99 -147h-69z" />
    <glyph glyph-name="ecaron" unicode="&#x11b;" horiz-adv-x="463" 
d="M423 224h-307c1 -97 57 -172 157 -172c45 0 84 14 117 32l23 -52c-41 -27 -98 -42 -150 -42c-150 0 -223 114 -223 252c0 144 80 243 194 243c120 0 189 -94 189 -243v-18zM116 281h230c-2 72 -37 144 -111 144c-73 0 -117 -65 -119 -144zM202 532l-98 147h64l70 -100
l69 100h63l-99 -147h-69z" />
    <glyph glyph-name="Gcircumflex" unicode="&#x11c;" horiz-adv-x="673" 
d="M595 311v-271c-44 -23 -124 -50 -216 -50c-196 0 -325 137 -325 330c0 202 136 344 340 344c77 0 141 -19 180 -35v-70c-47 24 -105 42 -176 42c-170 0 -266 -113 -266 -273c0 -169 100 -274 256 -274c55 0 104 12 134 27v230h73zM230 696l98 147h69l99 -147h-64l-69 100
l-70 -100h-63z" />
    <glyph glyph-name="gcircumflex" unicode="&#x11d;" horiz-adv-x="474" 
d="M227 -237c-125 0 -207 50 -207 136c0 48 28 93 88 122c-21 12 -34 34 -34 59c0 22 9 56 50 93c-44 29 -73 79 -73 143c0 95 72 168 174 168c41 0 69 -9 89 -18c5 -2 7 -2 10 1c23 23 54 39 97 39c12 0 24 -2 29 -3l-18 -58c-9 2 -18 3 -27 3c-16 0 -32 -4 -46 -13
c36 -32 54 -77 54 -122c0 -102 -74 -171 -183 -171c-23 0 -44 4 -62 10c-18 -20 -25 -37 -25 -54c0 -94 312 -11 312 -187c0 -89 -87 -148 -228 -148zM233 -179c100 0 148 37 148 82c0 86 -141 71 -228 97c-24 -16 -65 -43 -65 -89c0 -57 60 -90 145 -90zM231 203
c61 0 107 39 107 111c0 63 -44 109 -107 109s-107 -42 -107 -108c0 -65 40 -112 107 -112zM98 531l98 147h69l99 -147h-64l-69 100l-70 -100h-63z" />
    <glyph glyph-name="Gbreve" unicode="&#x11e;" horiz-adv-x="673" 
d="M595 311v-271c-44 -23 -124 -50 -216 -50c-196 0 -325 137 -325 330c0 202 136 344 340 344c77 0 141 -19 180 -35v-70c-47 24 -105 42 -176 42c-170 0 -266 -113 -266 -273c0 -169 100 -274 256 -274c55 0 104 12 134 27v230h73zM432 825h53c-5 -74 -52 -122 -126 -122
c-75 0 -119 48 -124 122h53c7 -40 28 -69 72 -69s66 29 72 69z" />
    <glyph glyph-name="gbreve" unicode="&#x11f;" horiz-adv-x="474" 
d="M227 -237c-125 0 -207 50 -207 136c0 48 28 93 88 122c-21 12 -34 34 -34 59c0 22 9 56 50 93c-44 29 -73 79 -73 143c0 95 72 168 174 168c41 0 69 -9 89 -18c5 -2 7 -2 10 1c23 23 54 39 97 39c12 0 24 -2 29 -3l-18 -58c-9 2 -18 3 -27 3c-16 0 -32 -4 -46 -13
c36 -32 54 -77 54 -122c0 -102 -74 -171 -183 -171c-23 0 -44 4 -62 10c-18 -20 -25 -37 -25 -54c0 -94 312 -11 312 -187c0 -89 -87 -148 -228 -148zM233 -179c100 0 148 37 148 82c0 86 -141 71 -228 97c-24 -16 -65 -43 -65 -89c0 -57 60 -90 145 -90zM231 203
c61 0 107 39 107 111c0 63 -44 109 -107 109s-107 -42 -107 -108c0 -65 40 -112 107 -112zM303 666h53c-5 -74 -52 -122 -126 -122c-75 0 -119 48 -124 122h53c7 -40 28 -69 72 -69s66 29 72 69z" />
    <glyph glyph-name="Gdotaccent" unicode="&#x120;" horiz-adv-x="673" 
d="M595 311v-271c-44 -23 -124 -50 -216 -50c-196 0 -325 137 -325 330c0 202 136 344 340 344c77 0 141 -19 180 -35v-70c-47 24 -105 42 -176 42c-170 0 -266 -113 -266 -273c0 -169 100 -274 256 -274c55 0 104 12 134 27v230h73zM361 718c-28 0 -48 21 -48 49
s20 50 48 50c30 0 50 -21 50 -50c0 -28 -21 -49 -50 -49z" />
    <glyph glyph-name="gdotaccent" unicode="&#x121;" horiz-adv-x="474" 
d="M227 -237c-125 0 -207 50 -207 136c0 48 28 93 88 122c-21 12 -34 34 -34 59c0 22 9 56 50 93c-44 29 -73 79 -73 143c0 95 72 168 174 168c41 0 69 -9 89 -18c5 -2 7 -2 10 1c23 23 54 39 97 39c12 0 24 -2 29 -3l-18 -58c-9 2 -18 3 -27 3c-16 0 -32 -4 -46 -13
c36 -32 54 -77 54 -122c0 -102 -74 -171 -183 -171c-23 0 -44 4 -62 10c-18 -20 -25 -37 -25 -54c0 -94 312 -11 312 -187c0 -89 -87 -148 -228 -148zM233 -179c100 0 148 37 148 82c0 86 -141 71 -228 97c-24 -16 -65 -43 -65 -89c0 -57 60 -90 145 -90zM231 203
c61 0 107 39 107 111c0 63 -44 109 -107 109s-107 -42 -107 -108c0 -65 40 -112 107 -112zM230 580c-28 0 -48 21 -48 49s20 50 48 50c30 0 50 -21 50 -50c0 -28 -21 -49 -50 -49z" />
    <glyph glyph-name="Gcommaaccent" unicode="&#x122;" horiz-adv-x="672" 
d="M594 311v-271c-44 -23 -124 -50 -216 -50c-196 0 -325 137 -325 330c0 202 136 344 340 344c77 0 141 -19 180 -35v-70c-47 24 -105 42 -176 42c-170 0 -266 -113 -266 -273c0 -169 100 -274 256 -274c55 0 104 12 134 27v230h73zM301 -237l-20 48c57 16 71 41 71 71
c0 20 -9 43 -24 66h67c15 -19 24 -49 24 -73c0 -51 -33 -93 -118 -112z" />
    <glyph glyph-name="gcommaaccent" unicode="&#x123;" horiz-adv-x="474" 
d="M262 531h-66c-15 19 -24 49 -24 73c0 51 33 93 118 112l20 -48c-58 -16 -72 -41 -72 -71c0 -20 9 -43 24 -66zM227 -237c-125 0 -207 50 -207 136c0 48 28 93 88 122c-21 12 -34 34 -34 59c0 22 9 56 50 93c-44 29 -73 79 -73 143c0 95 72 168 174 168c41 0 69 -9 89 -18
c5 -2 7 -2 10 1c23 23 54 39 97 39c12 0 24 -2 29 -3l-18 -58c-9 2 -18 3 -27 3c-16 0 -32 -4 -46 -13c36 -32 54 -77 54 -122c0 -102 -74 -171 -183 -171c-23 0 -44 4 -62 10c-18 -20 -25 -37 -25 -54c0 -94 312 -11 312 -187c0 -89 -87 -148 -228 -148zM233 -179
c100 0 148 37 148 82c0 86 -141 71 -228 97c-24 -16 -65 -43 -65 -89c0 -57 60 -90 145 -90zM231 203c61 0 107 39 107 111c0 63 -44 109 -107 109s-107 -42 -107 -108c0 -65 40 -112 107 -112z" />
    <glyph glyph-name="Hcircumflex" unicode="&#x124;" horiz-adv-x="680" 
d="M86 0v659h74v-290h361v290h73v-659h-73v306h-361v-306h-74zM211 696l98 147h69l99 -147h-64l-69 100l-70 -100h-63z" />
    <glyph glyph-name="hcircumflex" unicode="&#x125;" horiz-adv-x="510" 
d="M69 0v708h73v-295c50 42 103 72 164 72c74 0 140 -47 140 -166v-319h-73v294c0 71 -18 125 -85 125c-53 0 -101 -32 -146 -71v-348h-73zM-25 726l98 147h69l99 -147h-64l-69 100l-70 -100h-63z" />
    <glyph glyph-name="Hbar" unicode="&#x126;" horiz-adv-x="680" 
d="M86 0v478h-63v60h63v121h74v-121h361v121h73v-121h63v-60h-63v-478h-73v306h-361v-306h-74zM160 369h361v109h-361v-109z" />
    <glyph glyph-name="hbar" unicode="&#x127;" horiz-adv-x="506" 
d="M65 0v559h-63v60h63v89h74v-89h137v-60h-137v-146c49 42 102 72 163 72c74 0 140 -47 140 -166v-319h-73v294c0 71 -18 125 -85 125c-53 0 -101 -32 -145 -71v-348h-74z" />
    <glyph glyph-name="Itilde" unicode="&#x128;" horiz-adv-x="246" 
d="M86 0v659h74v-659h-74zM-17 726v23c0 47 31 76 71 76c54 0 94 -48 128 -48c21 0 26 18 26 42h53v-22c0 -48 -31 -77 -71 -77c-53 0 -94 48 -128 48c-21 0 -26 -18 -26 -42h-53z" />
    <glyph glyph-name="itilde" unicode="&#x129;" horiz-adv-x="225" 
d="M-25 554v22c0 48 31 77 71 77c54 0 94 -48 128 -48c21 0 26 18 26 42h53v-22c0 -48 -31 -77 -71 -77c-53 0 -94 48 -128 48c-21 0 -26 -18 -26 -42h-53zM76 0v473h73v-473h-73z" />
    <glyph glyph-name="imacron" unicode="&#x12b;" horiz-adv-x="225" 
d="M-10 574v59h248v-59h-248zM76 0v473h73v-473h-73z" />
    <glyph glyph-name="Ibreve" unicode="&#x12c;" horiz-adv-x="246" 
d="M86 0v659h74v-659h-74zM194 825h53c-5 -74 -52 -122 -126 -122c-75 0 -119 48 -124 122h53c7 -40 28 -69 72 -69s66 29 72 69z" />
    <glyph glyph-name="Iogonek" unicode="&#x12e;" horiz-adv-x="246" 
d="M86 6v653h74v-659c-47 -30 -77 -75 -77 -115c0 -30 13 -47 40 -47c11 0 23 3 37 7l10 -47c-22 -7 -43 -11 -61 -11c-60 0 -91 36 -91 87c0 55 32 98 68 132z" />
    <glyph glyph-name="iogonek" unicode="&#x12f;" horiz-adv-x="225" 
d="M8 -126c0 55 31 98 68 132v467h73v-473c-47 -30 -76 -75 -76 -115c0 -30 13 -47 40 -47c11 0 23 3 37 7l10 -47c-22 -7 -43 -11 -61 -11c-60 0 -91 36 -91 87zM112 580c-29 0 -49 21 -49 49s20 50 49 50c30 0 50 -21 50 -50c0 -28 -21 -49 -50 -49z" />
    <glyph glyph-name="Idotaccent" unicode="&#x130;" horiz-adv-x="246" 
d="M86 0v659h74v-659h-74zM123 718c-28 0 -48 21 -48 49s20 50 48 50c30 0 50 -21 50 -50c0 -28 -21 -49 -50 -49z" />
    <glyph glyph-name="dotlessi" unicode="&#x131;" horiz-adv-x="225" 
d="M76 0v473h73v-473h-73z" />
    <glyph glyph-name="IJ" unicode="&#x132;" horiz-adv-x="534" 
d="M86 0v659h74v-659h-74zM220 -173l13 63c17 -6 36 -8 51 -8c74 0 90 44 90 110v667h74v-682c0 -95 -46 -159 -163 -159c-24 0 -48 4 -65 9z" />
    <glyph glyph-name="ij" unicode="&#x133;" horiz-adv-x="461" 
d="M76 0v473h73v-473h-73zM112 580c-29 0 -49 21 -49 49s20 50 49 50c30 0 50 -21 50 -50c0 -28 -21 -49 -50 -49zM176 -223l16 61c13 -6 28 -10 47 -10c51 0 73 30 73 101v544h73v-558c0 -107 -61 -152 -137 -152c-25 0 -50 4 -72 14zM348 580c-28 0 -48 21 -48 49
s20 50 48 50c30 0 50 -21 50 -50c0 -28 -21 -49 -50 -49z" />
    <glyph glyph-name="Jcircumflex" unicode="&#x134;" horiz-adv-x="288" 
d="M-26 -173l13 63c17 -6 36 -8 51 -8c74 0 90 44 90 110v667h74v-682c0 -95 -46 -159 -163 -159c-24 0 -48 4 -65 9zM31 696l98 147h69l99 -147h-64l-69 100l-70 -100h-63z" />
    <glyph glyph-name="jcircumflex" unicode="&#x135;" horiz-adv-x="236" 
d="M-49 -222l16 58c14 -6 28 -11 48 -11c52 0 72 34 72 104v544h73v-556c0 -112 -66 -154 -134 -154c-25 0 -51 4 -75 15zM-15 531l98 147h69l99 -147h-63l-70 100l-70 -100h-63z" />
    <glyph glyph-name="Kcommaaccent" unicode="&#x136;" horiz-adv-x="537" 
d="M86 0v659h74v-302h2l250 302h88l-274 -326l292 -333h-93l-263 301h-2v-301h-74zM206 -237l-20 48c57 16 71 41 71 71c0 20 -9 43 -24 66h67c15 -19 24 -49 24 -73c0 -51 -33 -93 -118 -112z" />
    <glyph glyph-name="kcommaaccent" unicode="&#x137;" horiz-adv-x="439" 
d="M69 0v708h73v-409h2l180 174h89l-207 -200l229 -273h-89l-202 243h-2v-243h-73zM163 -237l-20 48c57 16 71 41 71 71c0 20 -9 43 -24 66h67c15 -19 24 -49 24 -73c0 -51 -33 -93 -118 -112z" />
    <glyph glyph-name="Lacute" unicode="&#x139;" horiz-adv-x="428" 
d="M86 0v659h74v-596h245v-63h-319zM89 696l58 147h83l-85 -147h-56z" />
    <glyph glyph-name="lacute" unicode="&#x13a;" horiz-adv-x="242" 
d="M72 732l50 127h82l-74 -127h-58zM69 86v622h73v-599c0 -39 12 -50 37 -50c8 0 22 4 29 7l16 -58c-19 -9 -44 -14 -66 -14c-60 0 -89 35 -89 92z" />
    <glyph glyph-name="Lcommaaccent" unicode="&#x13b;" horiz-adv-x="428" 
d="M86 0v659h74v-596h245v-63h-319zM174 -237l-20 48c57 16 71 41 71 71c0 20 -9 43 -24 66h67c15 -19 24 -49 24 -73c0 -51 -33 -93 -118 -112z" />
    <glyph glyph-name="lcommaaccent" unicode="&#x13c;" horiz-adv-x="242" 
d="M67 86v622h73v-599c0 -39 12 -50 37 -50c8 0 22 4 29 7l16 -58c-19 -9 -44 -14 -66 -14c-60 0 -89 35 -89 92zM78 -237l-20 48c57 16 71 41 71 71c0 20 -9 43 -24 66h67c15 -19 24 -49 24 -73c0 -51 -33 -93 -118 -112z" />
    <glyph glyph-name="Lcaron" unicode="&#x13d;" horiz-adv-x="428" 
d="M86 0v659h74v-596h245v-63h-319zM253 513l36 195h75l-55 -195h-56z" />
    <glyph glyph-name="lcaron" unicode="&#x13e;" horiz-adv-x="242" 
d="M69 86v622h73v-599c0 -39 12 -50 37 -50c8 0 22 4 29 7l16 -58c-19 -9 -44 -14 -66 -14c-60 0 -89 35 -89 92zM182 513l36 195h75l-55 -195h-56z" />
    <glyph glyph-name="Ldot" unicode="&#x13f;" horiz-adv-x="428" 
d="M86 0v659h74v-596h245v-63h-319zM335 295c-27 0 -48 23 -48 50s21 49 48 49c26 0 47 -22 47 -49s-21 -50 -47 -50z" />
    <glyph glyph-name="ldot" unicode="&#x140;" horiz-adv-x="270" 
d="M69 86v622h73v-599c0 -39 12 -50 37 -50c8 0 22 4 29 7l16 -58c-19 -9 -44 -14 -66 -14c-60 0 -89 35 -89 92zM242 288c-27 0 -48 23 -48 50s21 49 48 49c26 0 47 -22 47 -49s-21 -50 -47 -50z" />
    <glyph glyph-name="Lslash" unicode="&#x141;" horiz-adv-x="428" 
d="M27 210v70l59 35v344h74v-301l160 95v-69l-160 -95v-226h245v-63h-319v245z" />
    <glyph glyph-name="lslash" unicode="&#x142;" horiz-adv-x="271" 
d="M32 250v70l60 35v353h73v-309l69 41v-71l-69 -41v-217c0 -39 11 -50 36 -50c8 0 22 3 29 6l16 -59c-19 -9 -44 -14 -66 -14c-60 0 -88 35 -88 92v199z" />
    <glyph glyph-name="Nacute" unicode="&#x143;" horiz-adv-x="716" 
d="M630 0h-62l-316 418c-40 52 -70 94 -93 127h-2c2 -33 3 -61 3 -113v-432h-74v659h71l304 -402c42 -56 73 -100 96 -133h2c-2 35 -2 64 -2 116v419h73v-659zM319 696l58 147h83l-85 -147h-56z" />
    <glyph glyph-name="nacute" unicode="&#x144;" horiz-adv-x="506" 
d="M65 0v473h62l9 -61c52 44 105 73 166 73c74 0 140 -47 140 -166v-319h-73v294c0 71 -18 125 -85 125c-53 0 -101 -32 -145 -71v-348h-74zM201 531l58 147h83l-85 -147h-56z" />
    <glyph glyph-name="Ncommaaccent" unicode="&#x145;" horiz-adv-x="716" 
d="M630 0h-62l-316 418c-40 52 -70 94 -93 127h-2c2 -33 3 -61 3 -113v-432h-74v659h71l304 -402c42 -56 73 -100 96 -133h2c-2 35 -2 64 -2 116v419h73v-659zM299 -237l-20 48c57 16 71 41 71 71c0 20 -9 43 -24 66h67c15 -19 24 -49 24 -73c0 -51 -33 -93 -118 -112z" />
    <glyph glyph-name="ncommaaccent" unicode="&#x146;" horiz-adv-x="506" 
d="M65 0v473h62l9 -61c52 44 105 73 166 73c74 0 140 -47 140 -166v-319h-73v294c0 71 -18 125 -85 125c-53 0 -101 -32 -145 -71v-348h-74zM187 -237l-20 48c57 16 71 41 71 71c0 20 -9 43 -24 66h67c15 -19 24 -49 24 -73c0 -51 -33 -93 -118 -112z" />
    <glyph glyph-name="Ncaron" unicode="&#x147;" horiz-adv-x="716" 
d="M630 0h-62l-316 418c-40 52 -70 94 -93 127h-2c2 -33 3 -61 3 -113v-432h-74v659h71l304 -402c42 -56 73 -100 96 -133h2c-2 35 -2 64 -2 116v419h73v-659zM326 696l-98 147h64l70 -100l69 100h63l-99 -147h-69z" />
    <glyph glyph-name="ncaron" unicode="&#x148;" horiz-adv-x="506" 
d="M65 0v473h62l9 -61c52 44 105 73 166 73c74 0 140 -47 140 -166v-319h-73v294c0 71 -18 125 -85 125c-53 0 -101 -32 -145 -71v-348h-74zM206 532l-98 147h64l70 -100l69 100h63l-99 -147h-69z" />
    <glyph glyph-name="Eng" unicode="&#x14a;" horiz-adv-x="718" 
d="M86 0v659h71l306 -402c42 -56 73 -100 95 -133h2c-1 35 -2 64 -2 116v419h74v-699c0 -109 -61 -157 -142 -157c-27 0 -52 4 -74 14l17 61c13 -6 29 -10 50 -10c55 0 75 34 75 105v43l-306 402c-40 52 -70 94 -93 127h-2c2 -33 3 -61 3 -113v-432h-74z" />
    <glyph glyph-name="eng" unicode="&#x14b;" horiz-adv-x="506" 
d="M234 -181l15 61c13 -6 28 -10 47 -10c51 0 73 30 73 101v323c0 71 -18 125 -85 125c-53 0 -101 -32 -145 -71v-348h-74v473h62l9 -61c52 44 105 73 166 73c74 0 140 -47 140 -166v-362c0 -107 -61 -152 -137 -152c-25 0 -50 4 -71 14z" />
    <glyph glyph-name="Omacron" unicode="&#x14c;" horiz-adv-x="750" 
d="M375 -10c-184 0 -321 132 -321 336c0 200 136 338 321 338c187 0 321 -141 321 -338c0 -206 -141 -336 -321 -336zM375 54c147 0 243 109 243 272c0 155 -87 274 -243 274c-147 0 -243 -111 -243 -274s96 -272 243 -272zM254 717v59h248v-59h-248z" />
    <glyph glyph-name="omacron" unicode="&#x14d;" horiz-adv-x="516" 
d="M258 -10c-132 0 -218 109 -218 247c0 139 85 248 219 248c131 0 218 -109 218 -248c0 -138 -86 -247 -219 -247zM258 53c87 0 142 76 142 184c0 109 -55 185 -141 185c-88 0 -143 -76 -143 -185c0 -108 55 -184 142 -184zM134 574v59h248v-59h-248z" />
    <glyph glyph-name="Obreve" unicode="&#x14e;" horiz-adv-x="750" 
d="M375 -10c-184 0 -321 132 -321 336c0 200 136 338 321 338c187 0 321 -141 321 -338c0 -206 -141 -336 -321 -336zM375 54c147 0 243 109 243 272c0 155 -87 274 -243 274c-147 0 -243 -111 -243 -274s96 -272 243 -272zM449 825h53c-5 -74 -52 -122 -126 -122
c-75 0 -119 48 -124 122h53c7 -40 28 -69 72 -69s66 29 72 69z" />
    <glyph glyph-name="obreve" unicode="&#x14f;" horiz-adv-x="516" 
d="M258 -10c-132 0 -218 109 -218 247c0 139 85 248 219 248c131 0 218 -109 218 -248c0 -138 -86 -247 -219 -247zM258 53c87 0 142 76 142 184c0 109 -55 185 -141 185c-88 0 -143 -76 -143 -185c0 -108 55 -184 142 -184zM330 666h53c-5 -74 -52 -122 -126 -122
c-75 0 -119 48 -124 122h53c7 -40 28 -69 72 -69s66 29 72 69z" />
    <glyph glyph-name="Ohungarumlaut" unicode="&#x150;" horiz-adv-x="750" 
d="M375 -10c-184 0 -321 132 -321 336c0 200 136 338 321 338c187 0 321 -141 321 -338c0 -206 -141 -336 -321 -336zM375 54c147 0 243 109 243 272c0 155 -87 274 -243 274c-147 0 -243 -111 -243 -274s96 -272 243 -272zM277 696l58 147h86l-86 -147h-58zM437 696l58 147
h86l-85 -147h-59z" />
    <glyph glyph-name="ohungarumlaut" unicode="&#x151;" horiz-adv-x="516" 
d="M258 -10c-132 0 -218 109 -218 247c0 139 85 248 219 248c131 0 218 -109 218 -248c0 -138 -86 -247 -219 -247zM258 53c87 0 142 76 142 184c0 109 -55 185 -141 185c-88 0 -143 -76 -143 -185c0 -108 55 -184 142 -184zM155 531l58 147h86l-86 -147h-58zM315 531
l58 147h86l-85 -147h-59z" />
    <glyph glyph-name="OE" unicode="&#x152;" horiz-adv-x="867" 
d="M809 0h-214c-93 0 -168 -10 -213 -10c-67 0 -131 16 -181 48c-90 54 -146 154 -146 287c0 128 55 233 147 290c50 32 113 49 189 49c50 0 120 -5 192 -5h220l-23 -63h-221v-228h217v-63h-217v-242h250v-63zM387 54c33 0 75 3 98 8v532c-15 2 -65 6 -96 6
c-58 0 -106 -13 -145 -40c-72 -45 -111 -130 -111 -234c0 -108 41 -194 118 -237c37 -23 84 -35 136 -35z" />
    <glyph glyph-name="oe" unicode="&#x153;" horiz-adv-x="821" 
d="M257 -10c-131 0 -217 109 -217 247c0 139 85 248 217 248c81 0 144 -41 175 -106h2c28 66 87 106 158 106c118 0 189 -94 189 -243v-18h-308c2 -97 59 -172 158 -172c44 0 84 14 116 32l24 -52c-41 -27 -98 -42 -151 -42c-88 0 -150 43 -184 110h-2
c-34 -68 -94 -110 -177 -110zM258 52c87 0 140 77 140 185c0 109 -53 186 -139 186c-88 0 -143 -77 -143 -186c0 -108 55 -185 142 -185zM474 281h229c-1 72 -36 144 -111 144c-72 0 -117 -65 -118 -144z" />
    <glyph glyph-name="Racute" unicode="&#x154;" horiz-adv-x="540" 
d="M86 0v659h134c69 0 115 -13 149 -35c53 -33 77 -87 77 -145c0 -91 -49 -148 -134 -174v-2c20 -10 45 -47 79 -105l120 -198h-86l-115 191c-31 52 -56 84 -76 89h-74v-280h-74zM160 342h62c36 0 65 7 91 22c34 20 57 57 57 108c0 39 -13 73 -42 94c-21 18 -54 31 -105 31
h-63v-255zM197 696l58 147h83l-85 -147h-56z" />
    <glyph glyph-name="racute" unicode="&#x155;" horiz-adv-x="320" 
d="M65 0v473h62l9 -60c52 57 92 72 133 72c19 0 39 -5 51 -12l-26 -67c-12 6 -24 10 -41 10c-34 0 -68 -21 -114 -68v-348h-74zM127 531l58 147h83l-85 -147h-56z" />
    <glyph glyph-name="Rcommaaccent" unicode="&#x156;" horiz-adv-x="540" 
d="M86 0v659h134c69 0 115 -13 149 -35c53 -33 77 -87 77 -145c0 -91 -49 -148 -134 -174v-2c20 -10 45 -47 79 -105l120 -198h-86l-115 191c-31 52 -56 84 -76 89h-74v-280h-74zM160 342h62c36 0 65 7 91 22c34 20 57 57 57 108c0 39 -13 73 -42 94c-21 18 -54 31 -105 31
h-63v-255zM213 -237l-20 48c57 16 71 41 71 71c0 20 -9 43 -24 66h67c15 -19 24 -49 24 -73c0 -51 -33 -93 -118 -112z" />
    <glyph glyph-name="rcommaaccent" unicode="&#x157;" horiz-adv-x="320" 
d="M65 0v473h62l9 -60c52 57 92 72 133 72c19 0 39 -5 51 -12l-26 -67c-12 6 -24 10 -41 10c-34 0 -68 -21 -114 -68v-348h-74zM48 -237l-20 48c57 16 71 41 71 71c0 20 -9 43 -24 66h67c15 -19 24 -49 24 -73c0 -51 -33 -93 -118 -112z" />
    <glyph glyph-name="Rcaron" unicode="&#x158;" horiz-adv-x="540" 
d="M86 0v659h134c69 0 115 -13 149 -35c53 -33 77 -87 77 -145c0 -91 -49 -148 -134 -174v-2c20 -10 45 -47 79 -105l120 -198h-86l-115 191c-31 52 -56 84 -76 89h-74v-280h-74zM160 342h62c36 0 65 7 91 22c34 20 57 57 57 108c0 39 -13 73 -42 94c-21 18 -54 31 -105 31
h-63v-255zM205 696l-98 147h64l70 -100l69 100h63l-99 -147h-69z" />
    <glyph glyph-name="rcaron" unicode="&#x159;" horiz-adv-x="320" 
d="M58 0v473h62l9 -60c52 57 92 72 133 72c19 0 39 -5 51 -12l-26 -67c-12 6 -24 10 -41 10c-34 0 -68 -21 -114 -68v-348h-74zM134 532l-98 147h64l70 -100l69 100h63l-99 -147h-69z" />
    <glyph glyph-name="Sacute" unicode="&#x15a;" horiz-adv-x="490" 
d="M53 40l31 58c32 -21 82 -44 143 -44c71 0 133 29 133 107c0 158 -290 139 -290 336c0 93 71 167 194 167c60 0 113 -15 143 -30v-69c-41 23 -91 36 -141 36c-59 0 -119 -26 -119 -97c0 -149 290 -133 290 -338c0 -110 -85 -176 -211 -176c-75 0 -134 23 -173 50zM222 696
l58 147h83l-85 -147h-56z" />
    <glyph glyph-name="sacute" unicode="&#x15b;" horiz-adv-x="379" 
d="M26 30l24 57c27 -17 65 -35 118 -35c55 0 101 22 101 76c0 103 -221 70 -221 227c0 72 55 130 160 130c45 0 86 -10 117 -22v-65c-32 14 -68 26 -114 26c-45 0 -91 -15 -91 -66c0 -105 223 -69 223 -229c0 -94 -78 -139 -175 -139c-62 0 -112 21 -142 40zM158 531l58 147
h83l-85 -147h-56z" />
    <glyph glyph-name="Scircumflex" unicode="&#x15c;" horiz-adv-x="490" 
d="M53 40l31 58c32 -21 82 -44 143 -44c71 0 133 29 133 107c0 158 -290 139 -290 336c0 93 71 167 194 167c60 0 113 -15 143 -30v-69c-41 23 -91 36 -141 36c-59 0 -119 -26 -119 -97c0 -149 290 -133 290 -338c0 -110 -85 -176 -211 -176c-75 0 -134 23 -173 50zM116 696
l98 147h69l99 -147h-64l-69 100l-70 -100h-63z" />
    <glyph glyph-name="scircumflex" unicode="&#x15d;" horiz-adv-x="379" 
d="M26 30l24 57c27 -17 65 -35 118 -35c55 0 101 22 101 76c0 103 -221 70 -221 227c0 72 55 130 160 130c45 0 86 -10 117 -22v-65c-32 14 -68 26 -114 26c-45 0 -91 -15 -91 -66c0 -105 223 -69 223 -229c0 -94 -78 -139 -175 -139c-62 0 -112 21 -142 40zM58 531l98 147
h69l99 -147h-64l-69 100l-70 -100h-63z" />
    <glyph glyph-name="Scedilla" unicode="&#x15e;" horiz-adv-x="481" 
d="M140 -200l14 43c16 -7 32 -10 50 -10c29 0 53 12 53 39c0 35 -40 38 -85 38l25 81c-62 5 -110 26 -144 49l31 58c32 -21 82 -44 143 -44c71 0 133 29 133 107c0 158 -290 139 -290 336c0 93 71 167 194 167c60 0 113 -15 143 -30v-69c-41 23 -91 36 -141 36
c-59 0 -119 -26 -119 -97c0 -149 290 -133 290 -338c0 -102 -72 -165 -181 -174l-14 -46c41 -3 81 -21 81 -72c0 -54 -46 -86 -116 -86c-30 0 -52 6 -67 12z" />
    <glyph glyph-name="scedilla" unicode="&#x15f;" horiz-adv-x="379" 
d="M85 -200l13 43c16 -7 32 -10 50 -10c29 0 53 12 53 39c0 39 -48 37 -85 38l25 82c-50 4 -90 22 -115 38l24 57c27 -17 65 -35 118 -35c55 0 101 22 101 76c0 103 -221 70 -221 227c0 72 55 130 160 130c45 0 86 -10 117 -22v-65c-32 14 -68 26 -114 26
c-45 0 -91 -15 -91 -66c0 -105 223 -69 223 -229c0 -84 -62 -128 -143 -137l-14 -46c41 -3 81 -21 81 -72c0 -54 -46 -86 -116 -86c-30 0 -52 6 -66 12z" />
    <glyph glyph-name="Scaron" unicode="&#x160;" horiz-adv-x="490" 
d="M53 40l31 58c32 -21 82 -44 143 -44c71 0 133 29 133 107c0 158 -290 139 -290 336c0 93 71 167 194 167c60 0 113 -15 143 -30v-69c-41 23 -91 36 -141 36c-59 0 -119 -26 -119 -97c0 -149 290 -133 290 -338c0 -110 -85 -176 -211 -176c-75 0 -134 23 -173 50zM212 696
l-98 147h64l70 -100l69 100h63l-99 -147h-69z" />
    <glyph glyph-name="scaron" unicode="&#x161;" horiz-adv-x="379" 
d="M26 30l24 57c27 -17 65 -35 118 -35c55 0 101 22 101 76c0 103 -221 70 -221 227c0 72 55 130 160 130c45 0 86 -10 117 -22v-65c-32 14 -68 26 -114 26c-45 0 -91 -15 -91 -66c0 -105 223 -69 223 -229c0 -94 -78 -139 -175 -139c-62 0 -112 21 -142 40zM155 532
l-98 147h64l70 -100l69 100h63l-99 -147h-69z" />
    <glyph glyph-name="Tcommaaccent" unicode="&#x162;" horiz-adv-x="496" 
d="M209 0v596h-189v63h473l-24 -63h-186v-596h-74zM182 -237l-20 48c57 16 71 41 71 71c0 20 -9 43 -24 66h67c15 -19 24 -49 24 -73c0 -51 -33 -93 -118 -112z" />
    <glyph glyph-name="tcommaaccent" unicode="&#x163;" horiz-adv-x="347" 
d="M208 -10c-68 0 -106 40 -106 110v313h-80v60h80v107l73 24v-131h141l-22 -60h-119v-301c0 -41 17 -59 49 -59c31 0 58 13 77 26l26 -52c-29 -21 -72 -37 -119 -37zM119 -237l-20 48c57 16 71 41 71 71c0 20 -9 43 -24 66h67c15 -19 24 -49 24 -73
c0 -51 -33 -93 -118 -112z" />
    <glyph glyph-name="Tcaron" unicode="&#x164;" horiz-adv-x="496" 
d="M209 0v596h-189v63h473l-24 -63h-186v-596h-74zM214 696l-98 147h64l70 -100l69 100h63l-99 -147h-69z" />
    <glyph glyph-name="tcaron" unicode="&#x165;" horiz-adv-x="347" 
d="M208 -10c-68 0 -106 40 -106 110v313h-80v60h80v107l73 24v-131h141l-22 -60h-119v-301c0 -41 17 -59 49 -59c31 0 58 13 77 26l26 -52c-29 -21 -72 -37 -119 -37zM221 513l36 195h75l-55 -195h-56z" />
    <glyph glyph-name="Tbar" unicode="&#x166;" horiz-adv-x="496" 
d="M209 0v294h-116v62h116v240h-189v63h473l-24 -63h-186v-240h117v-62h-117v-294h-74z" />
    <glyph glyph-name="tbar" unicode="&#x167;" horiz-adv-x="347" 
d="M22 236v60h80v117h-80v60h80v107l73 24v-131h141l-22 -60h-119v-117h92v-60h-92v-124c0 -41 17 -59 49 -59c31 0 60 17 80 30l23 -52c-34 -24 -79 -41 -120 -41c-68 0 -105 40 -105 110v136h-80z" />
    <glyph glyph-name="Utilde" unicode="&#x168;" horiz-adv-x="652" 
d="M326 -10c-120 0 -198 49 -230 140c-10 31 -15 67 -15 106v423h74v-416c0 -35 4 -66 13 -92c23 -62 76 -98 158 -98c83 0 135 36 158 98c10 26 13 57 13 95v413h74v-423c0 -41 -5 -77 -17 -108c-32 -90 -111 -138 -228 -138zM191 726v23c0 47 31 76 71 76
c54 0 94 -48 128 -48c21 0 26 18 26 42h53v-22c0 -48 -31 -77 -71 -77c-53 0 -94 48 -128 48c-21 0 -26 -18 -26 -42h-53z" />
    <glyph glyph-name="utilde" unicode="&#x169;" horiz-adv-x="505" 
d="M204 -10c-45 0 -104 20 -127 88c-8 26 -12 50 -12 86v309h74v-291c0 -32 1 -54 8 -74c12 -37 39 -53 78 -53c55 0 108 34 133 67v351h73v-313c0 -92 4 -136 10 -160h-66l-14 55c-42 -37 -95 -65 -157 -65zM113 554v22c0 48 31 77 71 77c54 0 94 -48 128 -48
c21 0 26 18 26 42h53v-22c0 -48 -31 -77 -71 -77c-53 0 -94 48 -128 48c-21 0 -26 -18 -26 -42h-53z" />
    <glyph glyph-name="Umacron" unicode="&#x16a;" horiz-adv-x="652" 
d="M326 -10c-120 0 -198 49 -230 140c-10 31 -15 67 -15 106v423h74v-416c0 -35 4 -66 13 -92c23 -62 76 -98 158 -98c83 0 135 36 158 98c10 26 13 57 13 95v413h74v-423c0 -41 -5 -77 -17 -108c-32 -90 -111 -138 -228 -138zM206 717v59h248v-59h-248z" />
    <glyph glyph-name="umacron" unicode="&#x16b;" horiz-adv-x="505" 
d="M204 -10c-45 0 -104 20 -127 88c-8 26 -12 50 -12 86v309h74v-291c0 -32 1 -54 8 -74c12 -37 39 -53 78 -53c55 0 108 34 133 67v351h73v-313c0 -92 4 -136 10 -160h-66l-14 55c-42 -37 -95 -65 -157 -65zM128 574v59h248v-59h-248z" />
    <glyph glyph-name="Ubreve" unicode="&#x16c;" horiz-adv-x="652" 
d="M326 -10c-120 0 -198 49 -230 140c-10 31 -15 67 -15 106v423h74v-416c0 -35 4 -66 13 -92c23 -62 76 -98 158 -98c83 0 135 36 158 98c10 26 13 57 13 95v413h74v-423c0 -41 -5 -77 -17 -108c-32 -90 -111 -138 -228 -138zM401 825h53c-5 -74 -52 -122 -126 -122
c-75 0 -119 48 -124 122h53c7 -40 28 -69 72 -69s66 29 72 69z" />
    <glyph glyph-name="ubreve" unicode="&#x16d;" horiz-adv-x="505" 
d="M204 -10c-45 0 -104 20 -127 88c-8 26 -12 50 -12 86v309h74v-291c0 -32 1 -54 8 -74c12 -37 39 -53 78 -53c55 0 108 34 133 67v351h73v-313c0 -92 4 -136 10 -160h-66l-14 55c-42 -37 -95 -65 -157 -65zM321 666h53c-5 -74 -52 -122 -126 -122c-75 0 -119 48 -124 122
h53c7 -40 28 -69 72 -69s66 29 72 69z" />
    <glyph glyph-name="Uring" unicode="&#x16e;" horiz-adv-x="652" 
d="M326 -10c-120 0 -198 49 -230 140c-10 31 -15 67 -15 106v423h74v-416c0 -35 4 -66 13 -92c23 -62 76 -98 158 -98c83 0 135 36 158 98c10 26 13 57 13 95v413h74v-423c0 -41 -5 -77 -17 -108c-32 -90 -111 -138 -228 -138zM330 653c-60 0 -103 37 -103 95s43 95 103 95
s103 -37 103 -95s-43 -95 -103 -95zM330 694c30 0 49 21 49 54s-19 54 -49 54s-49 -21 -49 -54s19 -54 49 -54z" />
    <glyph glyph-name="uring" unicode="&#x16f;" horiz-adv-x="505" 
d="M204 -10c-45 0 -104 20 -127 88c-8 26 -12 50 -12 86v309h74v-291c0 -32 1 -54 8 -74c12 -37 39 -53 78 -53c55 0 108 34 133 67v351h73v-313c0 -92 4 -136 10 -160h-66l-14 55c-42 -37 -95 -65 -157 -65zM252 524c-60 0 -103 37 -103 95c0 57 43 95 103 95
s103 -38 103 -95c0 -58 -43 -95 -103 -95zM252 564c30 0 49 21 49 55c0 33 -19 54 -49 54s-49 -21 -49 -54c0 -34 19 -55 49 -55z" />
    <glyph glyph-name="Uhungarumlaut" unicode="&#x170;" horiz-adv-x="652" 
d="M326 -10c-120 0 -198 49 -230 140c-10 31 -15 67 -15 106v423h74v-416c0 -35 4 -66 13 -92c23 -62 76 -98 158 -98c83 0 135 36 158 98c10 26 13 57 13 95v413h74v-423c0 -41 -5 -77 -17 -108c-32 -90 -111 -138 -228 -138zM209 696l58 147h86l-86 -147h-58zM369 696
l58 147h86l-85 -147h-59z" />
    <glyph glyph-name="uhungarumlaut" unicode="&#x171;" horiz-adv-x="505" 
d="M204 -10c-45 0 -104 20 -127 88c-8 26 -12 50 -12 86v309h74v-291c0 -32 1 -54 8 -74c12 -37 39 -53 78 -53c55 0 108 34 133 67v351h73v-313c0 -92 4 -136 10 -160h-66l-14 55c-42 -37 -95 -65 -157 -65zM140 531l58 147h86l-86 -147h-58zM300 531l58 147h86l-85 -147
h-59z" />
    <glyph glyph-name="Uogonek" unicode="&#x172;" horiz-adv-x="652" 
d="M400 -155l10 -47c-22 -7 -44 -11 -62 -11c-59 0 -90 37 -90 80c0 55 37 94 72 121v2c-125 -1 -202 49 -234 140c-10 31 -15 67 -15 106v423h74v-416c0 -35 4 -66 13 -92c23 -62 76 -98 158 -98c83 0 135 36 158 98c10 26 13 57 13 95v413h74v-423c0 -41 -5 -77 -17 -108
c-20 -57 -59 -96 -110 -117c-63 -27 -121 -82 -121 -132c0 -24 12 -41 38 -41c11 0 24 3 39 7z" />
    <glyph glyph-name="uogonek" unicode="&#x173;" horiz-adv-x="505" 
d="M374 9l-13 46c-42 -37 -95 -65 -157 -65c-45 0 -104 20 -127 88c-8 26 -12 50 -12 86v309h74v-291c0 -32 1 -54 8 -74c12 -37 39 -53 78 -53c55 0 108 34 133 67v351h73v-312c0 -96 4 -141 10 -164c-58 -28 -105 -70 -105 -118c0 -24 12 -41 38 -41c11 0 23 3 38 7
l11 -47c-23 -7 -44 -11 -62 -11c-59 0 -90 37 -90 80c0 72 64 118 103 142z" />
    <glyph glyph-name="Wcircumflex" unicode="&#x174;" horiz-adv-x="900" 
d="M238 -3l-222 662h82l128 -396c13 -43 31 -96 44 -148h2c16 55 31 98 48 147l98 285l-39 112h80l133 -398c14 -41 33 -95 46 -145h2c13 52 26 97 41 143l125 400h78l-218 -662h-59l-105 309c-18 53 -32 94 -46 142h-3c-14 -48 -26 -84 -46 -142l-109 -309h-60zM322 696
l98 147h69l99 -147h-64l-69 100l-70 -100h-63z" />
    <glyph glyph-name="wcircumflex" unicode="&#x175;" horiz-adv-x="690" 
d="M167 -3l-156 476h77l112 -377h2l109 377h69l113 -377h2l110 377h75l-157 -476h-64l-112 379h-2l-113 -379h-65zM212 531l98 147h69l99 -147h-64l-69 100l-70 -100h-63z" />
    <glyph glyph-name="Ycircumflex" unicode="&#x176;" horiz-adv-x="536" 
d="M233 0v263l-217 396h82l172 -323h2l168 323h80l-214 -397v-262h-73zM138 696l98 147h69l99 -147h-64l-69 100l-70 -100h-63z" />
    <glyph glyph-name="ycircumflex" unicode="&#x177;" horiz-adv-x="466" 
d="M456 473l-177 -510c-61 -174 -133 -200 -210 -200c-35 0 -60 6 -84 16l18 61c18 -8 40 -14 65 -14c62 0 113 45 150 171l-208 476h80l161 -383h2l126 383h77zM106 531l98 147h69l99 -147h-64l-69 100l-70 -100h-63z" />
    <glyph glyph-name="Ydieresis" unicode="&#x178;" horiz-adv-x="536" 
d="M233 0v263l-217 396h82l172 -323h2l168 323h80l-214 -397v-262h-73zM182 706c-24 0 -43 19 -43 44c0 24 19 43 43 43s44 -19 44 -43c0 -25 -20 -44 -44 -44zM360 706c-24 0 -44 19 -44 44c0 24 20 43 44 43s43 -19 43 -43c0 -25 -19 -44 -43 -44z" />
    <glyph glyph-name="Zacute" unicode="&#x179;" horiz-adv-x="546" 
d="M50 0l331 596h-308l-21 63h444l-329 -596h346v-63h-463zM238 696l58 147h83l-85 -147h-56z" />
    <glyph glyph-name="zacute" unicode="&#x17a;" horiz-adv-x="382" 
d="M21 0l240 413h-209l-17 60h336l-238 -413h236v-60h-348zM158 531l58 147h83l-85 -147h-56z" />
    <glyph glyph-name="Zdotaccent" unicode="&#x17b;" horiz-adv-x="546" 
d="M50 0l331 596h-308l-21 63h444l-329 -596h346v-63h-463zM280 718c-28 0 -48 21 -48 49s20 50 48 50c30 0 50 -21 50 -50c0 -28 -21 -49 -50 -49z" />
    <glyph glyph-name="zdotaccent" unicode="&#x17c;" horiz-adv-x="382" 
d="M21 0l240 413h-209l-17 60h336l-238 -413h236v-60h-348zM200 580c-28 0 -48 21 -48 49s20 50 48 50c30 0 50 -21 50 -50c0 -28 -21 -49 -50 -49z" />
    <glyph glyph-name="Zcaron" unicode="&#x17d;" horiz-adv-x="546" 
d="M50 0l331 596h-308l-21 63h444l-329 -596h346v-63h-463zM245 696l-98 147h64l70 -100l69 100h63l-99 -147h-69z" />
    <glyph glyph-name="zcaron" unicode="&#x17e;" horiz-adv-x="382" 
d="M21 0l240 413h-209l-17 60h336l-238 -413h236v-60h-348zM166 532l-98 147h64l70 -100l69 100h63l-99 -147h-69z" />
    <glyph glyph-name="florin" unicode="&#x192;" 
d="M279 320l-27 -297c-6 -70 -20 -112 -44 -140c-35 -40 -85 -53 -129 -53c-38 0 -69 7 -102 23l28 59c20 -11 44 -17 70 -17c33 0 60 12 76 35c14 19 22 46 24 82l28 308h-98v60h103l12 134c5 60 16 95 34 122c34 55 90 72 139 72c38 0 71 -7 103 -23l-28 -58
c-20 10 -44 16 -70 16c-36 0 -64 -16 -80 -42c-12 -20 -17 -43 -20 -78l-13 -143h125l-22 -60h-109z" />
    <glyph glyph-name="Aringacute" unicode="&#x1fa;" horiz-adv-x="587" 
d="M17 0l247 654c-46 9 -76 43 -76 92c0 53 37 89 90 94l43 113h86l-73 -120c37 -13 60 -45 60 -87c0 -48 -30 -82 -74 -91l250 -655h-80l-65 177h-265l-65 -177h-78zM183 239h218l-68 191c-21 59 -31 90 -39 117h-2c-8 -27 -19 -58 -40 -117zM291 692c30 0 50 21 50 54
s-20 54 -50 54s-49 -21 -49 -54s19 -54 49 -54z" />
    <glyph glyph-name="aringacute" unicode="&#x1fb;" horiz-adv-x="461" 
d="M229 517c-60 0 -103 37 -103 95c0 52 35 87 86 93l52 135h86l-83 -139c39 -12 65 -45 65 -89c0 -58 -43 -95 -103 -95zM229 557c30 0 49 21 49 55c0 33 -19 54 -49 54s-49 -21 -49 -54c0 -34 19 -55 49 -55zM188 -10c-86 0 -150 55 -150 146c0 63 32 106 80 128
c32 16 70 21 118 23l90 3v30c0 72 -43 104 -102 104c-57 0 -97 -19 -130 -39l-28 52c55 35 114 48 166 48c98 0 168 -48 168 -161v-164c0 -92 3 -136 9 -160h-65l-14 53c-37 -35 -83 -63 -142 -63zM201 52c59 0 103 39 125 62v120l-83 -3c-41 -1 -68 -7 -89 -18
c-27 -15 -41 -42 -41 -73c0 -52 34 -88 88 -88z" />
    <glyph glyph-name="AEacute" unicode="&#x1fc;" horiz-adv-x="797" 
d="M16 0l343 659h374l-24 -63h-274l40 -228h231v-63h-220l42 -242h211v-63h-276l-31 177h-245l-92 -177h-79zM220 239h202l-33 195c-6 35 -11 73 -17 110h-2c-15 -36 -37 -80 -60 -125zM440 696l58 147h83l-85 -147h-56z" />
    <glyph glyph-name="aeacute" unicode="&#x1fd;" horiz-adv-x="748" 
d="M191 -10c-86 0 -153 54 -153 146c0 101 80 146 195 146h96v38c0 72 -45 104 -104 104c-58 0 -98 -20 -131 -40l-28 53c55 35 113 48 165 48c66 0 119 -25 144 -81h2c33 53 83 81 145 81c117 0 186 -93 186 -243v-17h-307c2 -98 58 -173 157 -173c45 0 84 14 117 32
l23 -52c-41 -27 -98 -42 -150 -42c-83 0 -143 37 -179 93c-41 -52 -102 -93 -178 -93zM201 52c60 0 113 42 142 83c-9 27 -14 57 -14 90h-89c-80 0 -127 -28 -127 -87c0 -51 34 -86 88 -86zM402 282h229c-2 72 -37 143 -111 143c-72 0 -116 -64 -118 -143zM347 531l58 147
h83l-85 -147h-56z" />
    <glyph glyph-name="Oslashacute" unicode="&#x1fe;" horiz-adv-x="752" 
d="M110 -15l-48 39l68 76c-47 57 -75 134 -75 226c0 200 136 338 321 338c76 0 143 -25 196 -67l68 78l49 -39l-72 -80c50 -58 80 -138 80 -230c0 -206 -141 -336 -321 -336c-78 0 -147 25 -201 69zM570 501l-351 -391c41 -36 94 -56 157 -56c147 0 244 109 244 272
c0 67 -17 128 -50 175zM178 156l351 391c-39 33 -90 54 -153 54c-147 0 -244 -112 -244 -275c0 -67 16 -125 46 -170zM338 696l58 147h83l-85 -147h-56z" />
    <glyph glyph-name="oslashacute" unicode="&#x1ff;" horiz-adv-x="516" 
d="M225 531l58 147h83l-85 -147h-56zM85 -20l-39 33l48 57c-34 44 -54 102 -54 167c0 139 85 248 219 248c51 0 95 -18 130 -47l41 52l40 -32l-46 -55c33 -44 53 -101 53 -166c0 -138 -86 -247 -219 -247c-51 0 -95 17 -129 45zM170 86c23 -22 53 -34 88 -34
c87 0 143 77 143 185c0 41 -8 78 -22 108zM139 128l209 259c-23 23 -54 37 -89 37c-88 0 -144 -78 -144 -187c0 -42 8 -80 24 -109z" />
    <glyph glyph-name="Scommaaccent" unicode="&#x218;" horiz-adv-x="490" 
d="M53 40l31 58c32 -21 82 -44 143 -44c71 0 133 29 133 107c0 158 -290 139 -290 336c0 93 71 167 194 167c60 0 113 -15 143 -30v-69c-41 23 -91 36 -141 36c-59 0 -119 -26 -119 -97c0 -149 290 -133 290 -338c0 -110 -85 -176 -211 -176c-75 0 -134 23 -173 50z
M172 -237l-20 48c57 16 71 41 71 71c0 20 -9 43 -24 66h67c15 -19 24 -49 24 -73c0 -51 -33 -93 -118 -112z" />
    <glyph glyph-name="scommaaccent" unicode="&#x219;" horiz-adv-x="379" 
d="M26 30l24 57c27 -17 65 -35 118 -35c55 0 101 22 101 76c0 103 -221 70 -221 227c0 72 55 130 160 130c45 0 86 -10 117 -22v-65c-32 14 -68 26 -114 26c-45 0 -91 -15 -91 -66c0 -105 223 -69 223 -229c0 -94 -78 -139 -175 -139c-62 0 -112 21 -142 40zM126 -237
l-20 48c57 16 71 41 71 71c0 20 -9 43 -24 66h67c15 -19 24 -49 24 -73c0 -51 -33 -93 -118 -112z" />
    <glyph glyph-name="circumflex" unicode="&#x2c6;" horiz-adv-x="360" 
d="M47 531l98 147h69l99 -147h-64l-69 100l-70 -100h-63z" />
    <glyph glyph-name="caron" unicode="&#x2c7;" horiz-adv-x="360" 
d="M145 532l-98 147h64l70 -100l69 100h63l-99 -147h-69z" />
    <glyph glyph-name="breve" unicode="&#x2d8;" horiz-adv-x="360" 
d="M252 666h53c-5 -74 -52 -122 -126 -122c-75 0 -119 48 -124 122h53c7 -40 28 -69 72 -69s66 29 72 69z" />
    <glyph glyph-name="dotaccent" unicode="&#x2d9;" horiz-adv-x="360" 
d="M179 580c-28 0 -48 21 -48 49s20 50 48 50c30 0 50 -21 50 -50c0 -28 -21 -49 -50 -49z" />
    <glyph glyph-name="ring" unicode="&#x2da;" horiz-adv-x="360" 
d="M180 524c-60 0 -103 37 -103 95c0 57 43 95 103 95s103 -38 103 -95c0 -58 -43 -95 -103 -95zM180 564c30 0 49 21 49 55c0 33 -19 54 -49 54s-49 -21 -49 -54c0 -34 19 -55 49 -55z" />
    <glyph glyph-name="ogonek" unicode="&#x2db;" horiz-adv-x="360" 
d="M235 -155l10 -47c-22 -7 -43 -11 -61 -11c-60 0 -91 37 -91 80c0 74 66 118 108 146l65 -13c-60 -31 -108 -73 -108 -121c0 -24 13 -41 39 -41c10 0 23 3 38 7z" />
    <glyph glyph-name="tilde" unicode="&#x2dc;" horiz-adv-x="360" 
d="M41 554v22c0 48 31 77 71 77c54 0 94 -48 128 -48c21 0 26 18 26 42h53v-22c0 -48 -31 -77 -71 -77c-53 0 -94 48 -128 48c-21 0 -26 -18 -26 -42h-53z" />
    <glyph glyph-name="hungarumlaut" unicode="&#x2dd;" horiz-adv-x="360" 
d="M82 531l58 147h86l-86 -147h-58zM242 531l58 147h86l-85 -147h-59z" />
    <glyph glyph-name="uni0315" unicode="&#x315;" horiz-adv-x="360" 
d="M119 513l36 195h75l-55 -195h-56z" />
    <glyph glyph-name="uni0326" unicode="&#x326;" horiz-adv-x="360" 
d="M131 -237l-20 48c57 16 71 41 71 71c0 20 -9 43 -24 66h67c15 -19 24 -49 24 -73c0 -51 -33 -93 -118 -112z" />
    <glyph glyph-name="Alphatonos" unicode="&#x386;" horiz-adv-x="594" 
d="M33 473l40 186h78l-55 -186h-63zM20 0l250 661h51l252 -661h-79l-66 177h-265l-64 -177h-79zM187 239h217l-68 190c-20 58 -31 89 -39 114h-2c-7 -25 -19 -56 -40 -114z" />
    <glyph glyph-name="Epsilontonos" unicode="&#x388;" horiz-adv-x="558" 
d="M3 473l40 186h78l-55 -186h-63zM173 0v659h318l-24 -63h-220v-228h217v-63h-217v-242h250v-63h-324z" />
    <glyph glyph-name="Etatonos" unicode="&#x389;" horiz-adv-x="766" 
d="M3 473l40 186h78l-55 -186h-63zM169 0v659h74v-290h361v290h73v-659h-73v306h-361v-306h-74z" />
    <glyph glyph-name="Iotatonos" unicode="&#x38a;" horiz-adv-x="336" 
d="M173 0v659h74v-659h-74zM3 473l40 186h78l-55 -186h-63z" />
    <glyph glyph-name="Omicrontonos" unicode="&#x38c;" horiz-adv-x="813" 
d="M3 473l40 186h78l-55 -186h-63zM440 -10c-184 0 -321 132 -321 336c0 200 136 338 321 338c187 0 321 -141 321 -338c0 -206 -141 -336 -321 -336zM440 54c147 0 243 109 243 272c0 155 -88 274 -243 274c-147 0 -243 -111 -243 -274s96 -272 243 -272z" />
    <glyph glyph-name="Upsilontonos" unicode="&#x38e;" horiz-adv-x="697" 
d="M3 473l40 186h78l-55 -186h-63zM380 0v198c0 114 -76 264 -225 461h85c61 -80 151 -219 176 -316h3c23 102 102 223 173 316h83c-124 -169 -221 -315 -221 -465v-194h-74z" />
    <glyph glyph-name="Omegatonos" unicode="&#x38f;" horiz-adv-x="799" 
d="M3 473l40 186h78l-55 -186h-63zM123 0v63h64c27 0 69 -3 89 -6v2c-89 62 -155 161 -155 288c0 159 106 317 312 317s313 -158 313 -317c0 -127 -67 -226 -156 -288v-2c21 3 62 6 90 6h64v-63h-252v51c114 70 176 172 176 294c0 131 -77 255 -235 255
c-157 0 -234 -124 -234 -255c0 -122 62 -224 175 -294v-51h-251z" />
    <glyph glyph-name="iotadieresistonos" unicode="&#x390;" horiz-adv-x="246" 
d="M165 -6c-60 0 -96 35 -96 99v380h73v-367c0 -35 16 -47 40 -47c11 0 27 4 34 7l17 -58c-19 -9 -46 -14 -68 -14zM27 562c-24 0 -42 18 -42 42s18 42 42 42c23 0 41 -18 41 -42s-18 -42 -41 -42zM72 531l48 167h76l-73 -167h-51zM224 562c-24 0 -42 18 -42 42s18 42 42 42
c23 0 42 -18 42 -42s-19 -42 -42 -42z" />
    <glyph glyph-name="Alpha" unicode="&#x391;" horiz-adv-x="594" 
d="M20 0l250 661h51l252 -661h-80l-65 177h-265l-65 -177h-78zM186 239h218l-68 190c-21 58 -31 89 -39 114h-2c-8 -25 -19 -56 -40 -114z" />
    <glyph glyph-name="Beta" unicode="&#x392;" horiz-adv-x="541" 
d="M89 0v659h153c140 0 202 -77 202 -167c0 -67 -33 -120 -87 -143v-2c74 -16 128 -77 128 -160c0 -111 -78 -187 -224 -187h-172zM163 62h98c89 0 148 35 148 123c0 74 -55 121 -139 121h-107v-244zM163 368h72c88 0 135 43 135 116c0 66 -38 113 -132 113h-75v-229z" />
    <glyph glyph-name="Gamma" unicode="&#x393;" horiz-adv-x="425" 
d="M89 0v659h328l-23 -63h-231v-596h-74z" />
    <glyph glyph-name="Epsilon" unicode="&#x395;" horiz-adv-x="474" 
d="M89 0v659h318l-24 -63h-220v-228h217v-63h-217v-242h250v-63h-324z" />
    <glyph glyph-name="Zeta" unicode="&#x396;" horiz-adv-x="547" 
d="M53 0l331 596h-308l-21 63h444l-329 -596h346v-63h-463z" />
    <glyph glyph-name="Eta" unicode="&#x397;" horiz-adv-x="687" 
d="M89 0v659h74v-290h361v290h73v-659h-73v306h-361v-306h-74z" />
    <glyph glyph-name="Theta" unicode="&#x398;" horiz-adv-x="747" 
d="M373 -10c-183 0 -321 132 -321 336c0 200 136 338 321 338c188 0 321 -141 321 -338c0 -206 -140 -336 -321 -336zM373 54c147 0 244 109 244 272c0 155 -88 274 -244 274c-147 0 -243 -111 -243 -274s96 -272 243 -272zM537 367v-63h-332v63h332z" />
    <glyph glyph-name="Iota" unicode="&#x399;" horiz-adv-x="252" 
d="M89 0v659h74v-659h-74z" />
    <glyph glyph-name="Kappa" unicode="&#x39a;" horiz-adv-x="536" 
d="M89 0v659h74v-302h2l250 302h88l-274 -326l292 -333h-93l-263 301h-2v-301h-74z" />
    <glyph glyph-name="Lambda" unicode="&#x39b;" horiz-adv-x="595" 
d="M20 0l250 661h53l251 -661h-80l-156 428c-16 43 -32 90 -40 115h-2c-7 -25 -24 -72 -39 -114l-157 -429h-80z" />
    <glyph glyph-name="Mu" unicode="&#x39c;" horiz-adv-x="797" 
d="M89 0v659h69l184 -277c28 -42 45 -68 61 -95h2c16 27 35 57 61 99l173 273h69v-659h-74v423c0 34 0 77 2 112h-2c-14 -27 -34 -60 -47 -80l-163 -260h-39l-177 265c-14 20 -33 48 -45 73h-2c2 -31 2 -77 2 -109v-424h-74z" />
    <glyph glyph-name="Nu" unicode="&#x39d;" horiz-adv-x="723" 
d="M633 0h-62l-316 418c-40 52 -70 94 -93 127h-2c2 -33 3 -61 3 -113v-432h-74v659h71l304 -402c42 -56 73 -100 96 -133h2c-2 35 -2 64 -2 116v419h73v-659z" />
    <glyph glyph-name="Xi" unicode="&#x39e;" horiz-adv-x="530" 
d="M42 0v63h445v-63h-445zM103 306v63h321v-63h-321zM59 596v63h422l-24 -63h-398z" />
    <glyph glyph-name="Omicron" unicode="&#x39f;" horiz-adv-x="747" 
d="M378 -10c-184 0 -321 132 -321 336c0 200 136 338 321 338c187 0 321 -141 321 -338c0 -206 -141 -336 -321 -336zM378 54c147 0 243 109 243 272c0 155 -87 274 -243 274c-147 0 -243 -111 -243 -274s96 -272 243 -272z" />
    <glyph glyph-name="Pi" unicode="&#x3a0;" horiz-adv-x="660" 
d="M89 0v659h481v-659h-73v596h-334v-596h-74z" />
    <glyph glyph-name="Rho" unicode="&#x3a1;" horiz-adv-x="497" 
d="M89 0v659h124c64 0 108 -10 143 -30c60 -34 95 -95 95 -178c0 -77 -33 -147 -110 -183c-33 -15 -76 -25 -135 -25h-43v-243h-74zM163 305h49c42 0 73 8 96 20c44 23 67 66 67 126c0 55 -22 100 -63 124c-23 14 -54 22 -99 22h-50v-292z" />
    <glyph glyph-name="Sigma" unicode="&#x3a3;" horiz-adv-x="511" 
d="M29 0l199 350l-187 309h421l-23 -63h-276l145 -245l-161 -288h307v-63h-425z" />
    <glyph glyph-name="Tau" unicode="&#x3a4;" horiz-adv-x="502" 
d="M212 0v596h-189v63h473l-24 -63h-186v-596h-74z" />
    <glyph glyph-name="Upsilon" unicode="&#x3a5;" horiz-adv-x="564" 
d="M247 0v198c0 114 -76 264 -225 461h85c61 -80 151 -219 176 -316h2c23 102 103 223 174 316h83c-124 -169 -221 -315 -221 -465v-194h-74z" />
    <glyph glyph-name="Phi" unicode="&#x3a6;" horiz-adv-x="752" 
d="M339 -20v63c-173 11 -286 117 -286 283c0 169 116 275 286 288v60h73v-60c170 -13 286 -119 286 -288c0 -166 -112 -272 -286 -283v-63h-73zM339 107v442c-129 -9 -209 -86 -209 -223c0 -129 73 -210 209 -219zM412 107c137 9 210 90 210 219c0 137 -81 214 -210 223
v-442z" />
    <glyph glyph-name="Chi" unicode="&#x3a7;" horiz-adv-x="585" 
d="M24 0l230 332l-216 327h86l178 -270l184 270h84l-224 -326l221 -333h-85l-183 276l-191 -276h-84z" />
    <glyph glyph-name="Psi" unicode="&#x3a8;" horiz-adv-x="726" 
d="M326 0v219c-164 10 -252 98 -252 341c0 28 1 64 4 99h73c-2 -33 -3 -69 -3 -92c0 -202 55 -275 178 -281v373h74v-373c123 6 177 79 177 281c0 23 0 59 -2 92h73c2 -35 3 -71 3 -99c0 -243 -87 -331 -251 -341v-219h-74z" />
    <glyph glyph-name="uni03A9" unicode="&#x3a9;" horiz-adv-x="732" 
d="M425 0v51c113 70 175 172 175 294c0 131 -77 255 -234 255s-235 -124 -235 -255c0 -122 62 -224 176 -294v-51h-252v63h65c27 0 68 -3 89 -6v2c-89 62 -156 161 -156 288c0 159 107 317 313 317s312 -158 312 -317c0 -127 -66 -226 -155 -288v-2c20 3 62 6 89 6h64v-63
h-251z" />
    <glyph glyph-name="Iotadieresis" unicode="&#x3aa;" horiz-adv-x="252" 
d="M89 0v659h74v-659h-74zM37 706c-24 0 -43 19 -43 44c0 24 19 43 43 43s44 -19 44 -43c0 -25 -20 -44 -44 -44zM215 706c-24 0 -44 19 -44 44c0 24 20 43 44 43s43 -19 43 -43c0 -25 -19 -44 -43 -44z" />
    <glyph glyph-name="Upsilondieresis" unicode="&#x3ab;" horiz-adv-x="564" 
d="M247 0v198c0 114 -76 264 -225 461h85c61 -80 151 -219 176 -316h2c23 102 103 223 174 316h83c-124 -169 -221 -315 -221 -465v-194h-74zM195 706c-24 0 -43 19 -43 44c0 24 19 43 43 43s44 -19 44 -43c0 -25 -20 -44 -44 -44zM373 706c-24 0 -44 19 -44 44
c0 24 20 43 44 43s43 -19 43 -43c0 -25 -19 -44 -43 -44z" />
    <glyph glyph-name="alphatonos" unicode="&#x3ac;" horiz-adv-x="571" 
d="M221 -10c-108 0 -178 106 -178 247c0 137 67 248 178 248c88 0 133 -61 160 -152h2c14 49 30 100 50 146l63 -25c-31 -69 -61 -146 -82 -214c11 -39 21 -73 29 -99c18 -56 31 -80 62 -80c8 0 18 2 26 6l17 -62c-15 -8 -34 -10 -48 -10c-48 0 -73 25 -90 67
c-11 24 -19 53 -27 86h-2c-19 -74 -68 -158 -160 -158zM223 53c75 0 111 95 128 191c-25 95 -58 178 -123 178s-110 -79 -110 -185c0 -99 42 -184 105 -184zM387 698l-110 -167h-62l79 167h93z" />
    <glyph glyph-name="epsilontonos" unicode="&#x3ad;" horiz-adv-x="429" 
d="M371 698l-110 -167h-62l79 167h93zM245 -10c-139 0 -198 69 -198 141c0 61 38 102 98 114v2c-56 17 -87 55 -87 107c0 78 67 131 176 131c53 0 107 -11 144 -27v-64c-38 18 -87 30 -137 30c-62 0 -109 -26 -109 -74c0 -35 32 -76 121 -76c10 0 45 0 65 1v-60
c-17 2 -49 2 -60 2c-82 0 -136 -27 -136 -82c0 -57 58 -84 125 -84c59 0 103 16 144 38l25 -52c-40 -24 -96 -47 -171 -47z" />
    <glyph glyph-name="etatonos" unicode="&#x3ae;" horiz-adv-x="558" 
d="M112 0v351c0 57 -14 68 -36 68c-8 0 -20 -2 -27 -6l-17 59c19 9 42 13 59 13c49 0 79 -30 86 -75h2c52 44 107 75 169 75c74 0 141 -47 141 -166v-556h-73v531c0 71 -19 125 -86 125c-52 0 -100 -32 -145 -71v-348h-73zM448 698l-110 -167h-62l79 167h93z" />
    <glyph glyph-name="iotatonos" unicode="&#x3af;" horiz-adv-x="246" 
d="M165 -6c-60 0 -96 35 -96 99v380h73v-367c0 -35 16 -47 40 -47c11 0 27 4 34 7l17 -58c-19 -9 -46 -14 -68 -14zM244 698l-110 -167h-62l79 167h93z" />
    <glyph glyph-name="upsilondieresistonos" unicode="&#x3b0;" horiz-adv-x="545" 
d="M25 472c19 9 42 13 60 13c55 0 92 -30 92 -122c0 -45 -9 -95 -9 -149c0 -104 36 -161 114 -161c89 0 133 81 133 207c0 67 -21 156 -58 213h79c31 -53 55 -135 55 -215c0 -156 -71 -268 -208 -268c-123 0 -190 76 -190 212c0 56 10 101 10 151c0 55 -14 66 -35 66
c-9 0 -19 -3 -26 -6zM171 562c-24 0 -42 18 -42 42s18 42 42 42c23 0 41 -18 41 -42s-18 -42 -41 -42zM216 531l48 167h76l-73 -167h-51zM368 562c-24 0 -42 18 -42 42s18 42 42 42c23 0 42 -18 42 -42s-19 -42 -42 -42z" />
    <glyph glyph-name="alpha" unicode="&#x3b1;" horiz-adv-x="571" 
d="M221 -10c-108 0 -178 106 -178 247c0 137 67 248 178 248c88 0 133 -61 160 -152h2c14 49 30 100 50 146l63 -25c-31 -69 -61 -146 -82 -214c11 -39 21 -73 29 -99c18 -56 31 -80 62 -80c8 0 18 2 26 6l17 -62c-15 -8 -34 -10 -48 -10c-48 0 -73 25 -90 67
c-11 24 -19 53 -27 86h-2c-19 -74 -68 -158 -160 -158zM223 53c75 0 111 95 128 191c-25 95 -58 178 -123 178s-110 -79 -110 -185c0 -99 42 -184 105 -184z" />
    <glyph glyph-name="beta" unicode="&#x3b2;" horiz-adv-x="528" 
d="M81 -237v745c0 140 83 200 186 200c127 0 186 -95 186 -181c0 -92 -49 -144 -101 -161v-2c72 -13 129 -81 129 -172c0 -123 -81 -202 -197 -202c-57 0 -102 19 -128 37h-2v-264h-73zM154 98c30 -27 74 -45 124 -45c77 0 127 47 127 139c0 86 -53 141 -157 141
c-6 0 -16 0 -26 -1v62c10 -1 22 -1 27 -1c73 0 128 44 128 130c0 70 -42 122 -111 122c-68 0 -112 -49 -112 -143v-404z" />
    <glyph glyph-name="gamma" unicode="&#x3b3;" horiz-adv-x="527" 
d="M282 98h2c42 185 126 320 179 385c18 -16 35 -31 54 -47c-85 -110 -164 -247 -212 -488v-185h-79c0 40 1 110 8 192c-8 273 -63 465 -171 465c-10 0 -19 -1 -25 -3l-15 61c12 4 29 7 46 7c138 0 206 -175 213 -387z" />
    <glyph glyph-name="delta" unicode="&#x3b4;" horiz-adv-x="520" 
d="M225 437v2c-52 39 -95 78 -95 141c0 80 68 128 157 128c69 0 136 -19 185 -41l-24 -59c-42 19 -96 37 -155 38c-46 0 -88 -16 -88 -65c0 -110 271 -150 271 -368c0 -121 -81 -223 -220 -223c-132 0 -213 95 -213 213s70 199 182 234zM401 210c0 89 -56 140 -117 186
c-106 -23 -165 -93 -165 -191c0 -87 50 -152 136 -152c83 0 146 58 146 157z" />
    <glyph glyph-name="epsilon" unicode="&#x3b5;" horiz-adv-x="429" 
d="M245 -10c-139 0 -198 69 -198 141c0 61 38 102 98 114v2c-56 17 -87 55 -87 107c0 78 67 131 176 131c53 0 107 -11 144 -27v-64c-38 18 -87 30 -137 30c-62 0 -109 -26 -109 -74c0 -35 32 -76 121 -76c10 0 45 0 65 1v-60c-17 2 -49 2 -60 2c-82 0 -136 -27 -136 -82
c0 -57 58 -84 125 -84c59 0 103 16 144 38l25 -52c-40 -24 -96 -47 -171 -47z" />
    <glyph glyph-name="zeta" unicode="&#x3b6;" horiz-adv-x="437" 
d="M298 -147c13 19 44 62 44 93c0 108 -290 36 -290 283c0 198 132 342 258 415v3c-63 -14 -138 -24 -212 -26l-19 62c87 0 238 11 331 25l4 -47c-175 -104 -285 -253 -285 -426c0 -206 290 -116 290 -276c0 -51 -37 -106 -61 -139z" />
    <glyph glyph-name="eta" unicode="&#x3b7;" horiz-adv-x="558" 
d="M112 0v351c0 57 -14 68 -36 68c-8 0 -20 -2 -27 -6l-17 59c19 9 42 13 59 13c49 0 79 -30 86 -75h2c52 44 107 75 169 75c74 0 141 -47 141 -166v-556h-73v531c0 71 -19 125 -86 125c-52 0 -100 -32 -145 -71v-348h-73z" />
    <glyph glyph-name="theta" unicode="&#x3b8;" horiz-adv-x="524" 
d="M262 -10c-142 0 -211 125 -211 359s70 359 211 359c142 0 211 -125 211 -359s-70 -359 -211 -359zM262 53c94 0 132 96 135 275h-270c2 -179 41 -275 135 -275zM127 389h269c-4 166 -43 256 -134 256c-90 0 -130 -90 -135 -256z" />
    <glyph glyph-name="iota" unicode="&#x3b9;" horiz-adv-x="246" 
d="M165 -6c-60 0 -96 35 -96 99v380h73v-367c0 -35 16 -47 40 -47c11 0 27 4 34 7l17 -58c-19 -9 -46 -14 -68 -14z" />
    <glyph glyph-name="kappa" unicode="&#x3ba;" horiz-adv-x="524" 
d="M152 0h-73v473h73v-232h2c89 114 228 204 309 240l29 -62c-67 -28 -156 -88 -224 -150l224 -269h-89l-186 224c-24 -25 -46 -51 -65 -77v-147z" />
    <glyph glyph-name="lambda" unicode="&#x3bb;" horiz-adv-x="466" 
d="M20 0l203 472c-48 145 -77 173 -125 173c-18 0 -37 -4 -54 -11l-19 57c24 10 55 17 77 17c97 0 137 -64 193 -230l163 -478h-78l-121 379h-2l-158 -379h-79z" />
    <glyph glyph-name="uni03BC" unicode="&#x3bc;" horiz-adv-x="538" 
d="M363 199v274h73v-328c0 -72 14 -85 42 -85c8 0 22 3 29 7l15 -59c-17 -8 -42 -14 -60 -14c-54 0 -79 40 -82 88h-2c-28 -57 -76 -92 -138 -92c-37 0 -75 15 -98 47h-2c3 -39 3 -89 3 -131v-143h-73v710h73v-310c0 -63 36 -108 99 -108c56 0 121 42 121 144z" />
    <glyph glyph-name="nu" unicode="&#x3bd;" horiz-adv-x="458" 
d="M175 -3l-162 476h76l130 -391h2c73 82 119 165 119 263c0 37 -7 82 -25 128h79c17 -43 23 -88 23 -124c0 -127 -75 -238 -191 -352h-51z" />
    <glyph glyph-name="xi" unicode="&#x3be;" horiz-adv-x="438" 
d="M302 -146c14 19 41 58 41 89c0 106 -280 49 -280 244c0 90 67 139 130 157v2c-52 15 -89 52 -89 112c0 79 60 139 174 185v3c-56 -11 -124 -21 -186 -22l-18 61c86 0 244 9 338 23l4 -47c-145 -54 -236 -113 -236 -193c0 -66 50 -92 141 -92c8 0 25 0 40 1v-60
c-15 2 -31 2 -38 2c-87 0 -184 -29 -184 -124c0 -147 281 -85 281 -240c0 -50 -35 -102 -59 -135z" />
    <glyph glyph-name="omicron" unicode="&#x3bf;" 
d="M261 -10c-132 0 -218 109 -218 247c0 139 85 248 219 248c131 0 218 -109 218 -248c0 -138 -86 -247 -219 -247zM261 53c87 0 142 76 142 184c0 109 -55 185 -141 185c-88 0 -143 -76 -143 -185c0 -108 55 -184 142 -184z" />
    <glyph glyph-name="pi" unicode="&#x3c0;" horiz-adv-x="579" 
d="M111 0v413h-84v60h526l-21 -60h-85v-306c0 -31 9 -47 35 -47c6 0 13 1 21 4l14 -61c-17 -6 -36 -9 -53 -9c-66 0 -90 40 -90 94v325h-190v-413h-73z" />
    <glyph glyph-name="rho" unicode="&#x3c1;" horiz-adv-x="520" 
d="M70 -237v486c0 153 72 236 195 236c128 0 212 -90 212 -245c0 -148 -82 -250 -216 -250c-48 0 -89 16 -116 36h-2v-263h-73zM143 96c34 -28 75 -43 113 -43c99 0 145 82 145 189c0 125 -65 181 -134 181c-89 0 -124 -77 -124 -176v-151z" />
    <glyph glyph-name="sigmafinal" unicode="&#x3c2;" horiz-adv-x="418" 
d="M258 -145c20 27 43 61 43 92c0 114 -258 78 -258 310c0 133 76 228 215 228c48 0 91 -13 120 -29v-65c-31 19 -70 32 -117 32c-99 0 -142 -73 -142 -163c0 -193 258 -143 258 -300c0 -52 -34 -106 -60 -140z" />
    <glyph glyph-name="sigma" unicode="&#x3c3;" horiz-adv-x="551" 
d="M389 414v-2c42 -48 69 -106 69 -192c0 -124 -79 -230 -208 -230c-130 0 -207 100 -207 234c0 165 106 249 245 249h269l-23 -63h-64c-22 0 -58 1 -81 4zM119 224c0 -102 46 -171 131 -171c84 0 133 74 133 171c0 81 -34 147 -70 187h-15c-119 0 -179 -75 -179 -187z" />
    <glyph glyph-name="tau" unicode="&#x3c4;" horiz-adv-x="430" 
d="M285 -10c-71 0 -127 37 -127 116v307h-133v60h396l-21 -60h-169v-299c0 -43 30 -61 65 -61c24 0 51 8 70 21l26 -52c-27 -19 -63 -32 -107 -32z" />
    <glyph glyph-name="upsilon" unicode="&#x3c5;" horiz-adv-x="545" 
d="M25 472c19 9 42 13 60 13c55 0 92 -30 92 -122c0 -45 -9 -95 -9 -149c0 -104 36 -161 114 -161c89 0 133 81 133 207c0 67 -21 156 -58 213h79c31 -53 55 -135 55 -215c0 -156 -71 -268 -208 -268c-123 0 -190 76 -190 212c0 56 10 101 10 151c0 55 -14 66 -35 66
c-9 0 -19 -3 -26 -6z" />
    <glyph glyph-name="phi" unicode="&#x3c6;" horiz-adv-x="661" 
d="M294 -237v228c-152 12 -251 116 -251 246c0 131 98 235 251 248v223h73v-223c152 -13 251 -117 251 -247c0 -131 -99 -235 -251 -247v-228h-73zM294 52v371c-104 -10 -176 -85 -176 -186s72 -175 176 -185zM367 52c102 10 175 84 175 186c0 101 -73 176 -175 185v-371z
" />
    <glyph glyph-name="chi" unicode="&#x3c7;" horiz-adv-x="462" 
d="M72 -237h-78l194 375c-50 177 -80 280 -136 280c-10 0 -18 -1 -25 -4l-16 60c11 5 31 9 50 9c83 0 118 -79 175 -273h2l134 263h76l-180 -348c55 -190 85 -301 143 -301c9 0 18 2 25 4l16 -60c-11 -4 -31 -9 -50 -9c-86 0 -121 88 -182 295h-2z" />
    <glyph glyph-name="psi" unicode="&#x3c8;" horiz-adv-x="658" 
d="M359 -237h-72v228c-149 8 -236 87 -236 231c0 51 10 92 10 138c0 42 -7 78 -22 113h74c17 -34 22 -78 22 -113c0 -43 -8 -86 -8 -133c0 -107 55 -169 160 -175v656h72v-656c113 9 181 86 181 215c0 67 -18 149 -61 206h79c36 -53 57 -135 57 -208
c0 -160 -92 -264 -256 -274v-228z" />
    <glyph glyph-name="omega" unicode="&#x3c9;" horiz-adv-x="736" 
d="M369 125h-2c-19 -83 -73 -135 -152 -135c-111 0 -172 96 -172 211c0 120 59 218 121 279l75 -14c-83 -81 -121 -169 -121 -260s35 -152 104 -152c83 0 111 100 111 195c0 23 -1 71 -4 100h79c-4 -29 -5 -77 -5 -100c0 -95 29 -195 112 -195c68 0 104 61 104 152
s-39 179 -122 260l75 14c63 -61 121 -159 121 -279c0 -115 -61 -211 -171 -211c-80 0 -134 52 -153 135z" />
    <glyph glyph-name="iotadieresis" unicode="&#x3ca;" horiz-adv-x="246" 
d="M165 -6c-60 0 -96 35 -96 99v380h73v-367c0 -35 16 -47 40 -47c11 0 27 4 34 7l17 -58c-19 -9 -46 -14 -68 -14zM19 561c-24 0 -43 19 -43 43c0 25 19 44 43 44s44 -19 44 -44c0 -24 -20 -43 -44 -43zM197 561c-24 0 -44 19 -44 43c0 25 20 44 44 44s43 -19 43 -44
c0 -24 -19 -43 -43 -43z" />
    <glyph glyph-name="upsilondieresis" unicode="&#x3cb;" horiz-adv-x="545" 
d="M25 472c19 9 42 13 60 13c55 0 92 -30 92 -122c0 -45 -9 -95 -9 -149c0 -104 36 -161 114 -161c89 0 133 81 133 207c0 67 -21 156 -58 213h79c31 -53 55 -135 55 -215c0 -156 -71 -268 -208 -268c-123 0 -190 76 -190 212c0 56 10 101 10 151c0 55 -14 66 -35 66
c-9 0 -19 -3 -26 -6zM175 561c-24 0 -43 19 -43 43c0 25 19 44 43 44s44 -19 44 -44c0 -24 -20 -43 -44 -43zM353 561c-24 0 -44 19 -44 43c0 25 20 44 44 44s43 -19 43 -44c0 -24 -19 -43 -43 -43z" />
    <glyph glyph-name="omicrontonos" unicode="&#x3cc;" 
d="M261 -10c-132 0 -218 109 -218 247c0 139 85 248 219 248c131 0 218 -109 218 -248c0 -138 -86 -247 -219 -247zM261 53c87 0 142 76 142 184c0 109 -55 185 -141 185c-88 0 -143 -76 -143 -185c0 -108 55 -184 142 -184zM402 698l-110 -167h-62l79 167h93z" />
    <glyph glyph-name="upsilontonos" unicode="&#x3cd;" horiz-adv-x="545" 
d="M391 698l-110 -167h-62l79 167h93zM25 472c19 9 42 13 60 13c55 0 92 -30 92 -122c0 -45 -9 -95 -9 -149c0 -104 36 -161 114 -161c89 0 133 81 133 207c0 67 -21 156 -58 213h79c31 -53 55 -135 55 -215c0 -156 -71 -268 -208 -268c-123 0 -190 76 -190 212
c0 56 10 101 10 151c0 55 -14 66 -35 66c-9 0 -19 -3 -26 -6z" />
    <glyph glyph-name="omegatonos" unicode="&#x3ce;" horiz-adv-x="745" 
d="M373 125h-2c-19 -83 -73 -135 -152 -135c-111 0 -172 96 -172 211c0 120 59 218 121 279l75 -14c-83 -81 -121 -169 -121 -260s35 -152 104 -152c83 0 111 100 111 195c0 23 -1 71 -4 100h79c-4 -29 -5 -77 -5 -100c0 -95 29 -195 112 -195c68 0 104 61 104 152
s-39 179 -122 260l75 14c63 -61 121 -159 121 -279c0 -115 -61 -211 -171 -211c-80 0 -134 52 -153 135zM512 698l-110 -167h-62l79 167h93z" />
    <glyph glyph-name="uni0400" unicode="&#x400;" horiz-adv-x="474" 
d="M89 0v659h318l-24 -63h-220v-228h217v-63h-217v-242h250v-63h-324zM227 696l-86 147h87l58 -147h-59z" />
    <glyph glyph-name="afii10023" unicode="&#x401;" horiz-adv-x="474" 
d="M89 0v659h318l-24 -63h-220v-228h217v-63h-217v-242h250v-63h-324zM156 706c-24 0 -43 19 -43 44c0 24 19 43 43 43s44 -19 44 -43c0 -25 -20 -44 -44 -44zM334 706c-24 0 -44 19 -44 44c0 24 20 43 44 43s43 -19 43 -43c0 -25 -19 -44 -43 -44z" />
    <glyph glyph-name="afii10051" unicode="&#x402;" horiz-adv-x="699" 
d="M213 0v597h-190v62h498l-23 -62h-212v-218c26 3 60 5 88 5c196 0 267 -78 267 -204c0 -103 -68 -186 -185 -186c-26 0 -53 5 -75 13l18 60c17 -6 33 -9 54 -9c66 0 112 46 112 126c0 106 -70 135 -194 135c-25 0 -63 -2 -85 -5v-314h-73z" />
    <glyph glyph-name="afii10052" unicode="&#x403;" horiz-adv-x="425" 
d="M89 0v659h328l-23 -63h-231v-596h-74zM213 696l58 147h83l-85 -147h-56z" />
    <glyph glyph-name="afii10053" unicode="&#x404;" horiz-adv-x="600" 
d="M364 -10c-200 0 -307 135 -307 331c0 197 121 343 319 343c67 0 134 -16 167 -35v-69c-46 24 -99 41 -166 41c-142 0 -231 -96 -241 -234h342v-61h-344c4 -152 87 -252 236 -252c61 0 116 17 161 41l21 -59c-62 -33 -128 -46 -188 -46z" />
    <glyph glyph-name="afii10054" unicode="&#x405;" horiz-adv-x="498" 
d="M56 40l31 58c32 -21 82 -44 143 -44c71 0 133 29 133 107c0 158 -290 139 -290 336c0 93 71 167 194 167c60 0 113 -15 143 -30v-69c-41 23 -91 36 -141 36c-59 0 -119 -26 -119 -97c0 -149 290 -133 290 -338c0 -110 -85 -176 -211 -176c-75 0 -134 23 -173 50z" />
    <glyph glyph-name="afii10055" unicode="&#x406;" horiz-adv-x="252" 
d="M89 0v659h74v-659h-74z" />
    <glyph glyph-name="afii10056" unicode="&#x407;" horiz-adv-x="252" 
d="M89 0v659h74v-659h-74zM37 706c-24 0 -43 19 -43 44c0 24 19 43 43 43s44 -19 44 -43c0 -25 -20 -44 -44 -44zM215 706c-24 0 -44 19 -44 44c0 24 20 43 44 43s43 -19 43 -43c0 -25 -19 -44 -43 -44z" />
    <glyph glyph-name="afii10057" unicode="&#x408;" horiz-adv-x="294" 
d="M-23 -173l13 63c17 -6 36 -8 51 -8c74 0 90 44 90 110v667h74v-682c0 -95 -46 -159 -163 -159c-24 0 -48 4 -65 9z" />
    <glyph glyph-name="afii10058" unicode="&#x409;" horiz-adv-x="881" 
d="M516 62h65c112 0 169 43 169 133c0 54 -20 91 -59 112c-29 16 -68 22 -124 22h-51v-267zM38 -6c-4 0 -17 0 -26 3v69c10 -2 16 -2 21 -2c30 0 59 15 80 53c62 111 107 402 117 542h286v-268h48c75 0 129 -10 170 -31c63 -32 92 -89 92 -162c0 -118 -70 -198 -248 -198
h-135v597h-148c-10 -130 -55 -407 -122 -522c-34 -58 -79 -81 -135 -81z" />
    <glyph glyph-name="afii10059" unicode="&#x40a;" horiz-adv-x="945" 
d="M89 0v659h74v-290h340v290h73v-268h52c75 0 129 -10 170 -31c63 -32 92 -89 92 -162c0 -118 -70 -198 -248 -198h-139v306h-340v-306h-74zM576 62h69c112 0 169 43 169 133c0 54 -20 91 -59 112c-29 16 -68 22 -124 22h-55v-267z" />
    <glyph glyph-name="afii10060" unicode="&#x40b;" horiz-adv-x="724" 
d="M213 0v597h-190v62h497l-24 -62h-210v-214c34 5 71 8 103 8c116 0 207 -25 239 -126c9 -27 12 -58 12 -99v-166h-74v156c0 39 -3 64 -9 86c-22 71 -87 85 -166 85c-29 0 -69 -4 -105 -9v-318h-73z" />
    <glyph glyph-name="afii10061" unicode="&#x40c;" horiz-adv-x="572" 
d="M258 696l58 147h83l-85 -147h-56zM89 0v659h74v-298h67c106 0 115 140 158 234c20 41 49 69 101 69c13 0 29 -1 42 -6v-68c-13 5 -22 6 -32 6c-25 0 -39 -13 -50 -34c-32 -63 -46 -185 -121 -227v-2c34 -11 59 -49 89 -104l124 -229h-84l-114 216c-32 59 -59 83 -79 83
h-101v-299h-74z" />
    <glyph glyph-name="uni040D" unicode="&#x40d;" horiz-adv-x="721" 
d="M89 0v659h74v-419c0 -52 -1 -81 -2 -116h2c22 33 53 77 95 133l304 402h69v-659h-73v432c0 52 1 80 2 113h-2c-23 -33 -52 -75 -92 -127l-316 -418h-61zM336 696l-86 147h87l58 -147h-59z" />
    <glyph glyph-name="afii10062" unicode="&#x40e;" horiz-adv-x="564" 
d="M133 -7c-11 0 -27 1 -39 4v65c12 -2 22 -3 34 -3c61 0 89 44 128 127l-231 473h82l185 -391h2l171 391h80l-229 -508c-51 -113 -106 -158 -183 -158zM282 701c-98 0 -151 58 -150 138h64c0 -44 24 -81 86 -81c63 0 86 37 86 81h64c2 -80 -54 -138 -150 -138z" />
    <glyph glyph-name="afii10145" unicode="&#x40f;" horiz-adv-x="661" 
d="M89 0v659h74v-594h335v594h73v-659h-205v-182h-72v182h-205z" />
    <glyph glyph-name="afii10017" unicode="&#x410;" horiz-adv-x="594" 
d="M20 0l250 661h51l252 -661h-80l-65 177h-265l-65 -177h-78zM186 239h218l-68 190c-21 58 -31 89 -39 114h-2c-8 -25 -19 -56 -40 -114z" />
    <glyph glyph-name="afii10018" unicode="&#x411;" horiz-adv-x="541" 
d="M163 62h77c112 0 170 42 170 132c0 53 -20 92 -60 112c-29 15 -69 19 -124 19h-63v-263zM89 0v659h368l-23 -62h-271v-210h60c74 0 128 -8 169 -28c64 -31 93 -88 93 -162c0 -118 -70 -197 -248 -197h-148z" />
    <glyph glyph-name="afii10019" unicode="&#x412;" horiz-adv-x="541" 
d="M89 0v659h153c140 0 202 -77 202 -167c0 -67 -33 -120 -87 -143v-2c74 -16 128 -77 128 -160c0 -111 -78 -187 -224 -187h-172zM163 62h98c89 0 148 35 148 123c0 74 -55 121 -139 121h-107v-244zM163 368h72c88 0 135 43 135 116c0 66 -38 113 -132 113h-75v-229z" />
    <glyph glyph-name="afii10020" unicode="&#x413;" horiz-adv-x="425" 
d="M89 0v659h328l-23 -63h-231v-596h-74z" />
    <glyph glyph-name="afii10021" unicode="&#x414;" horiz-adv-x="638" 
d="M17 -182v245h39c96 127 169 345 206 596h270v-596h76v-245h-73v182h-445v-182h-73zM458 63v534h-137c-35 -248 -111 -429 -179 -532v-2h316z" />
    <glyph glyph-name="afii10022" unicode="&#x415;" horiz-adv-x="474" 
d="M89 0v659h318l-24 -63h-220v-228h217v-63h-217v-242h250v-63h-324z" />
    <glyph glyph-name="afii10024" unicode="&#x416;" horiz-adv-x="869" 
d="M31 0l116 224c31 59 56 97 90 108v2c-75 42 -82 166 -115 228c-10 21 -24 34 -49 34c-10 0 -20 -1 -32 -6v68c13 5 28 6 41 6c50 0 81 -28 100 -69c43 -94 46 -235 152 -235h64v299h73v-299h64c107 0 109 141 152 235c19 41 50 69 100 69c13 0 28 -1 41 -6v-68
c-12 5 -22 6 -32 6c-25 0 -38 -13 -49 -34c-32 -62 -40 -186 -115 -228v-2c34 -11 59 -49 90 -108l116 -224h-84l-108 215c-30 60 -57 83 -77 83h-98v-298h-73v298h-97c-20 0 -48 -23 -78 -83l-108 -215h-84z" />
    <glyph glyph-name="afii10025" unicode="&#x417;" horiz-adv-x="507" 
d="M215 -10c-63 0 -114 13 -151 31v67c39 -19 87 -34 149 -34c87 0 158 40 158 132c0 75 -48 119 -172 119c-13 0 -38 0 -55 -1v65c15 -2 32 -2 43 -2c126 0 168 55 168 119c0 68 -43 114 -133 114c-50 0 -94 -12 -139 -35l-22 58c37 21 97 41 167 41
c136 0 203 -78 203 -172c0 -76 -37 -126 -113 -152v-2c80 -14 130 -68 130 -153c0 -107 -72 -195 -233 -195z" />
    <glyph glyph-name="afii10026" unicode="&#x418;" horiz-adv-x="721" 
d="M89 0v659h74v-419c0 -52 -1 -81 -2 -116h2c22 33 53 77 95 133l304 402h69v-659h-73v432c0 52 1 80 2 113h-2c-23 -33 -52 -75 -92 -127l-316 -418h-61z" />
    <glyph glyph-name="afii10027" unicode="&#x419;" horiz-adv-x="721" 
d="M89 0v659h74v-419c0 -52 -1 -81 -2 -116h2c22 33 53 77 95 133l304 402h69v-659h-73v432c0 52 1 80 2 113h-2c-23 -33 -52 -75 -92 -127l-316 -418h-61zM361 701c-98 0 -151 58 -150 138h64c0 -44 24 -81 86 -81c63 0 86 37 86 81h64c2 -80 -54 -138 -150 -138z" />
    <glyph glyph-name="afii10028" unicode="&#x41a;" horiz-adv-x="572" 
d="M89 0v659h74v-298h67c106 0 115 140 158 234c20 41 49 69 101 69c13 0 29 -1 42 -6v-68c-13 5 -22 6 -32 6c-25 0 -39 -13 -50 -34c-32 -63 -46 -185 -121 -227v-2c34 -11 59 -49 89 -104l124 -229h-84l-114 216c-32 59 -59 83 -79 83h-101v-299h-74z" />
    <glyph glyph-name="afii10029" unicode="&#x41b;" horiz-adv-x="617" 
d="M38 -6c-4 0 -17 0 -26 3v69c10 -2 16 -2 21 -2c30 0 59 15 80 53c62 111 107 402 117 542h298v-659h-74v597h-159c-10 -130 -55 -407 -122 -522c-34 -58 -79 -81 -135 -81z" />
    <glyph glyph-name="afii10030" unicode="&#x41c;" horiz-adv-x="797" 
d="M89 0v659h69l184 -277c28 -42 45 -68 61 -95h2c16 27 35 57 61 99l173 273h69v-659h-74v423c0 34 0 77 2 112h-2c-14 -27 -34 -60 -47 -80l-163 -260h-39l-177 265c-14 20 -33 48 -45 73h-2c2 -31 2 -77 2 -109v-424h-74z" />
    <glyph glyph-name="afii10031" unicode="&#x41d;" horiz-adv-x="687" 
d="M89 0v659h74v-290h361v290h73v-659h-73v306h-361v-306h-74z" />
    <glyph glyph-name="afii10032" unicode="&#x41e;" horiz-adv-x="756" 
d="M378 -10c-184 0 -321 132 -321 336c0 200 136 338 321 338c187 0 321 -141 321 -338c0 -206 -141 -336 -321 -336zM378 54c147 0 243 109 243 272c0 155 -87 274 -243 274c-147 0 -243 -111 -243 -274s96 -272 243 -272z" />
    <glyph glyph-name="afii10033" unicode="&#x41f;" horiz-adv-x="660" 
d="M89 0v659h481v-659h-73v596h-334v-596h-74z" />
    <glyph glyph-name="afii10034" unicode="&#x420;" horiz-adv-x="497" 
d="M89 0v659h124c64 0 108 -10 143 -30c60 -34 95 -95 95 -178c0 -77 -33 -147 -110 -183c-33 -15 -76 -25 -135 -25h-43v-243h-74zM163 305h49c42 0 73 8 96 20c44 23 67 66 67 126c0 55 -22 100 -63 124c-23 14 -54 22 -99 22h-50v-292z" />
    <glyph glyph-name="afii10035" unicode="&#x421;" horiz-adv-x="593" 
d="M543 95l20 -59c-62 -33 -124 -46 -184 -46c-197 0 -314 138 -314 331s132 343 327 343c70 0 130 -16 163 -35v-70c-46 25 -95 41 -162 41c-151 0 -250 -122 -250 -274c0 -161 93 -272 243 -272c61 0 112 17 157 41z" />
    <glyph glyph-name="afii10036" unicode="&#x422;" horiz-adv-x="502" 
d="M212 0v596h-189v63h473l-24 -63h-186v-596h-74z" />
    <glyph glyph-name="afii10037" unicode="&#x423;" horiz-adv-x="564" 
d="M133 -7c-11 0 -27 1 -39 4v65c12 -2 22 -3 34 -3c61 0 89 44 128 127l-231 473h82l185 -391h2l171 391h80l-229 -508c-51 -113 -106 -158 -183 -158z" />
    <glyph glyph-name="afii10038" unicode="&#x424;" horiz-adv-x="733" 
d="M331 -18v91c-170 9 -274 94 -274 254c0 162 107 252 274 262v85h74v-85c168 -11 271 -104 271 -262c0 -161 -105 -245 -271 -254v-91h-74zM331 138v387c-124 -7 -198 -70 -198 -198c0 -121 67 -183 198 -189zM405 138c121 7 195 61 195 189c0 120 -65 189 -195 197v-386z
" />
    <glyph glyph-name="afii10039" unicode="&#x425;" horiz-adv-x="595" 
d="M24 0l230 332l-216 327h86l178 -270l184 270h84l-224 -326l221 -333h-85l-183 276l-191 -276h-84z" />
    <glyph glyph-name="afii10040" unicode="&#x426;" horiz-adv-x="671" 
d="M89 0v659h74v-596h329v596h73v-596h76v-245h-72v182h-480z" />
    <glyph glyph-name="afii10041" unicode="&#x427;" horiz-adv-x="591" 
d="M428 0v276c-34 -5 -72 -8 -103 -8c-116 0 -208 25 -240 126c-9 27 -12 58 -12 99v166h74v-156c0 -39 3 -64 9 -86c22 -71 88 -85 167 -85c29 0 69 4 105 9v318h74v-659h-74z" />
    <glyph glyph-name="afii10042" unicode="&#x428;" horiz-adv-x="879" 
d="M89 0v659h74v-596h240v596h73v-596h240v596h74v-659h-701z" />
    <glyph glyph-name="afii10043" unicode="&#x429;" horiz-adv-x="888" 
d="M89 0v659h74v-596h236v596h73v-596h236v596h74v-596h76v-245h-73v182h-696z" />
    <glyph glyph-name="afii10044" unicode="&#x42a;" horiz-adv-x="668" 
d="M225 0v597h-199l-23 62h295v-268h52c75 0 129 -10 170 -31c63 -32 92 -89 92 -162c0 -118 -70 -198 -248 -198h-139zM298 62h69c112 0 169 43 169 133c0 54 -20 91 -59 112c-29 16 -68 22 -124 22h-55v-267z" />
    <glyph glyph-name="afii10045" unicode="&#x42b;" horiz-adv-x="715" 
d="M89 0v659h74v-268h45c74 0 127 -9 167 -29c65 -32 96 -89 96 -164c0 -118 -70 -198 -248 -198h-134zM163 62h63c112 0 169 43 169 133c0 55 -21 92 -61 113c-29 15 -67 21 -122 21h-49v-267zM552 0v659h73v-659h-73z" />
    <glyph glyph-name="afii10046" unicode="&#x42c;" horiz-adv-x="541" 
d="M163 62h77c112 0 170 43 170 133c0 54 -20 92 -60 113c-28 16 -68 21 -125 21h-62v-267zM89 0v659h74v-268h59c73 0 127 -9 168 -28c65 -32 95 -90 95 -165c0 -118 -70 -198 -248 -198h-148z" />
    <glyph glyph-name="afii10047" unicode="&#x42d;" horiz-adv-x="587" 
d="M220 -10c-70 0 -129 15 -164 31v67c39 -19 93 -34 160 -34c145 0 230 88 236 252h-317v61h317c-8 132 -89 234 -233 234c-59 0 -108 -15 -149 -35l-22 58c44 22 103 40 175 40c203 0 307 -153 307 -335c0 -201 -108 -339 -310 -339z" />
    <glyph glyph-name="afii10048" unicode="&#x42e;" horiz-adv-x="969" 
d="M89 0v659h74v-290h151c16 174 134 295 298 295c179 0 299 -145 299 -338c0 -202 -127 -336 -299 -336c-169 0 -292 126 -299 316h-150v-306h-74zM612 54c137 0 221 113 221 272c0 151 -75 274 -221 274c-138 0 -222 -115 -222 -274s84 -272 222 -272z" />
    <glyph glyph-name="afii10049" unicode="&#x42f;" horiz-adv-x="558" 
d="M31 0l108 206c25 49 44 80 72 95v2c-79 24 -120 86 -120 165c0 127 92 191 213 191h165v-659h-73v280h-103c-20 0 -47 -23 -77 -83l-100 -197h-85zM168 465c0 -86 61 -123 141 -123h87v255h-82c-86 0 -146 -43 -146 -132z" />
    <glyph glyph-name="afii10065" unicode="&#x430;" horiz-adv-x="468" 
d="M347 0l-14 53c-37 -35 -83 -63 -142 -63c-86 0 -150 55 -150 146c0 63 32 106 80 128c32 16 70 21 118 23l90 3v30c0 72 -43 104 -102 104c-57 0 -97 -19 -130 -39l-28 52c55 35 114 48 166 48c98 0 168 -48 168 -161v-163c0 -93 3 -137 9 -161h-65zM329 234l-83 -3
c-41 -1 -68 -7 -89 -18c-27 -15 -41 -42 -41 -73c0 -52 34 -88 88 -88c59 0 103 39 125 62v120z" />
    <glyph glyph-name="afii10066" unicode="&#x431;" horiz-adv-x="503" 
d="M251 -10c-123 0 -207 88 -207 309c0 116 27 210 59 254c53 77 120 90 316 155v-73c-172 -56 -228 -69 -261 -122c-16 -26 -28 -65 -33 -107h2c33 21 85 44 142 44c136 0 191 -97 191 -225c0 -135 -71 -235 -209 -235zM253 53c94 0 131 72 131 169c0 89 -30 167 -124 167
c-54 0 -100 -23 -140 -48c-1 -15 -1 -31 -1 -45c0 -171 51 -243 134 -243z" />
    <glyph glyph-name="afii10067" unicode="&#x432;" horiz-adv-x="464" 
d="M69 0v473h164c133 0 176 -65 176 -127c0 -56 -34 -89 -78 -103v-2c49 -11 90 -47 90 -108c0 -66 -43 -133 -177 -133h-175zM141 57h104c75 0 102 29 102 78c0 50 -33 78 -92 78h-114v-156zM141 268h102c61 0 92 24 92 73c0 45 -25 75 -101 75h-93v-148z" />
    <glyph glyph-name="afii10068" unicode="&#x433;" horiz-adv-x="388" 
d="M69 0v473h307l-23 -66h-210v-407h-74z" />
    <glyph glyph-name="afii10069" unicode="&#x434;" horiz-adv-x="531" 
d="M21 -162v223h27c70 92 109 199 142 412h240v-412h67v-223h-70v162h-336v-162h-70zM357 61v350h-111c-25 -170 -63 -266 -116 -348v-2h227z" />
    <glyph glyph-name="afii10070" unicode="&#x435;" horiz-adv-x="470" 
d="M426 224h-307c1 -97 57 -172 157 -172c45 0 84 14 117 32l23 -52c-41 -27 -98 -42 -150 -42c-150 0 -223 114 -223 252c0 144 80 243 194 243c120 0 189 -94 189 -243v-18zM119 281h230c-2 72 -37 144 -111 144c-73 0 -117 -65 -119 -144z" />
    <glyph glyph-name="afii10072" unicode="&#x436;" horiz-adv-x="680" 
d="M26 0l84 176c16 36 30 57 57 65v2c-52 28 -51 119 -77 159c-8 12 -20 18 -34 18c-8 0 -15 -2 -23 -5v65c9 4 24 5 34 5c37 0 61 -17 76 -42c36 -63 32 -174 100 -174h62v204h70v-204h62c68 0 63 111 100 174c15 25 39 42 76 42c10 0 25 -1 34 -5v-65c-8 3 -15 5 -23 5
c-14 0 -26 -6 -34 -18c-26 -40 -25 -131 -77 -159v-2c27 -8 40 -29 57 -65l84 -176h-77l-71 159c-18 40 -36 52 -50 52h-81v-211h-70v211h-82c-13 0 -31 -12 -49 -52l-71 -159h-77z" />
    <glyph glyph-name="afii10073" unicode="&#x437;" horiz-adv-x="417" 
d="M187 -10c-53 0 -99 15 -132 31v62c41 -21 80 -33 129 -33c70 0 111 30 111 85c0 57 -49 81 -134 81c-6 0 -26 0 -40 -2v60c16 -1 40 -1 48 -1c91 0 116 41 116 78c0 48 -39 74 -98 74c-41 0 -83 -15 -112 -29l-21 55c38 20 89 34 138 34c101 0 167 -53 167 -128
c0 -53 -34 -93 -89 -109v-3c64 -13 99 -53 99 -114c0 -69 -55 -141 -182 -141z" />
    <glyph glyph-name="afii10074" unicode="&#x438;" horiz-adv-x="532" 
d="M69 0v473h73v-271c0 -36 -1 -64 -3 -95h2c19 29 38 57 67 99l185 267h70v-473h-73v271c0 36 1 64 3 95h-2c-18 -29 -36 -57 -66 -99l-187 -267h-69z" />
    <glyph glyph-name="afii10075" unicode="&#x439;" horiz-adv-x="532" 
d="M69 0v473h73v-271c0 -36 -1 -64 -3 -95h2c19 29 38 57 67 99l185 267h70v-473h-73v271c0 36 1 64 3 95h-2c-18 -29 -36 -57 -66 -99l-187 -267h-69zM271 544c-96 0 -148 61 -146 142h63c0 -45 22 -86 83 -86s83 41 83 86h64c1 -81 -53 -142 -147 -142z" />
    <glyph glyph-name="afii10076" unicode="&#x43a;" horiz-adv-x="455" 
d="M69 0v473h74v-203h64c68 0 67 110 101 169c18 30 43 46 80 46c11 0 24 -1 33 -5v-64c-8 3 -15 4 -22 4c-15 0 -26 -6 -34 -19c-26 -40 -29 -130 -81 -158v-2c27 -7 40 -29 58 -65l88 -176h-78l-75 159c-18 39 -35 52 -49 52h-85v-211h-74z" />
    <glyph glyph-name="afii10077" unicode="&#x43b;" horiz-adv-x="498" 
d="M31 -8c-3 0 -13 0 -21 2v67c6 -1 12 -1 14 -1c21 0 40 12 57 38c38 61 82 207 101 375h246v-473h-73v409h-114c-19 -158 -64 -300 -109 -363c-26 -37 -59 -54 -101 -54z" />
    <glyph glyph-name="afii10078" unicode="&#x43c;" horiz-adv-x="593" 
d="M69 0v473h75l101 -169c19 -32 38 -68 51 -93h2c11 23 32 60 52 94l99 168h75v-473h-72v268c0 32 0 69 3 90h-3c-12 -22 -31 -54 -47 -82l-91 -150h-36l-90 151c-18 30 -35 59 -46 81h-3c2 -22 3 -65 3 -98v-260h-73z" />
    <glyph glyph-name="afii10079" unicode="&#x43d;" horiz-adv-x="514" 
d="M69 0v473h74v-188h229v188h73v-473h-73v221h-229v-221h-74z" />
    <glyph glyph-name="afii10080" unicode="&#x43e;" 
d="M261 -10c-132 0 -218 109 -218 247c0 139 85 248 219 248c131 0 218 -109 218 -248c0 -138 -86 -247 -219 -247zM261 53c87 0 142 76 142 184c0 109 -55 185 -141 185c-88 0 -143 -76 -143 -185c0 -108 55 -184 142 -184z" />
    <glyph glyph-name="afii10081" unicode="&#x43f;" horiz-adv-x="508" 
d="M69 0v473h370v-473h-73v407h-223v-407h-74z" />
    <glyph glyph-name="afii10082" unicode="&#x440;" horiz-adv-x="507" 
d="M68 -237v693c50 19 105 29 156 29c150 0 240 -90 240 -246c0 -154 -102 -249 -239 -249c-30 0 -60 7 -83 17v-244h-74zM142 73c27 -13 50 -20 81 -20c107 0 165 75 165 188c0 125 -72 181 -166 181c-29 0 -54 -4 -80 -12v-337z" />
    <glyph glyph-name="afii10083" unicode="&#x441;" horiz-adv-x="431" 
d="M267 -10c-145 0 -224 109 -224 242c0 138 89 253 235 253c47 0 89 -13 118 -29v-65c-31 19 -68 32 -114 32c-101 0 -163 -79 -163 -186c0 -117 61 -184 157 -184c50 0 85 16 114 32l23 -52c-34 -23 -88 -43 -146 -43z" />
    <glyph glyph-name="afii10084" unicode="&#x442;" horiz-adv-x="434" 
d="M176 0v409h-152v64h399l-23 -64h-151v-409h-73z" />
    <glyph glyph-name="afii10085" unicode="&#x443;" horiz-adv-x="472" 
d="M459 473l-177 -510c-61 -174 -133 -200 -210 -200c-35 0 -60 6 -84 16l18 61c18 -8 40 -14 65 -14c62 0 113 45 150 171l-208 476h80l161 -383h2l126 383h77z" />
    <glyph glyph-name="afii10086" unicode="&#x444;" horiz-adv-x="643" 
d="M286 -237v228c-160 11 -243 117 -243 246c0 130 82 235 243 247v202h71v-202c160 -12 242 -117 242 -246c0 -130 -82 -236 -242 -247v-228h-71zM286 53v368c-108 -10 -169 -85 -169 -184s62 -174 169 -184zM357 53c107 10 168 85 168 185c0 98 -61 173 -168 183v-368z
" />
    <glyph glyph-name="afii10087" unicode="&#x445;" horiz-adv-x="450" 
d="M14 0l171 237l-164 236h82l125 -183l128 183h80l-167 -234l166 -239h-81l-129 186l-130 -186h-81z" />
    <glyph glyph-name="afii10088" unicode="&#x446;" horiz-adv-x="528" 
d="M69 0v473h74v-410h211v410h73v-410h67v-225h-70v162h-355z" />
    <glyph glyph-name="afii10089" unicode="&#x447;" horiz-adv-x="477" 
d="M334 0v194c-38 -7 -72 -11 -101 -11c-119 0 -176 51 -176 137v153h73v-142c0 -54 26 -87 108 -87c26 0 61 4 96 10v219h74v-473h-74z" />
    <glyph glyph-name="afii10090" unicode="&#x448;" horiz-adv-x="686" 
d="M69 0v473h72v-410h166v410h72v-410h166v410h72v-473h-548z" />
    <glyph glyph-name="afii10091" unicode="&#x449;" horiz-adv-x="709" 
d="M69 0v473h72v-410h162v410h71v-410h162v410h72v-410h67v-225h-71v162h-535z" />
    <glyph glyph-name="afii10092" unicode="&#x44a;" horiz-adv-x="585" 
d="M204 0v411h-173l-21 62h267v-185c22 1 40 2 60 2c154 0 202 -65 202 -143c0 -73 -41 -147 -195 -147h-140zM277 60h65c99 0 122 38 122 85c0 52 -30 84 -127 84c-21 0 -39 -1 -60 -3v-166z" />
    <glyph glyph-name="afii10093" unicode="&#x44b;" horiz-adv-x="607" 
d="M69 0v473h74v-185c22 1 40 2 57 2c148 0 197 -65 197 -143c0 -73 -40 -147 -194 -147h-134zM143 60h58c99 0 121 38 121 85c0 52 -28 84 -122 84c-19 0 -36 -1 -57 -3v-166zM464 0v473h73v-473h-73z" />
    <glyph glyph-name="afii10094" unicode="&#x44c;" horiz-adv-x="456" 
d="M69 0v473h74v-185c22 1 39 2 59 2c161 0 209 -66 209 -144c0 -73 -40 -146 -199 -146h-143zM143 60h67c104 0 126 37 126 85c0 52 -28 84 -133 84c-21 0 -39 -1 -60 -3v-166z" />
    <glyph glyph-name="afii10095" unicode="&#x44d;" horiz-adv-x="447" 
d="M181 -10c-48 0 -91 13 -125 30v62c31 -17 72 -32 121 -32c95 0 148 60 153 165h-217v57h216c-8 88 -60 153 -153 153c-36 0 -77 -12 -103 -27l-21 56c36 19 84 31 129 31c148 0 223 -115 223 -247c0 -140 -70 -248 -223 -248z" />
    <glyph glyph-name="afii10096" unicode="&#x44e;" horiz-adv-x="705" 
d="M69 0v473h74v-197h104c14 119 87 209 207 209c131 0 208 -109 208 -248c0 -138 -76 -247 -209 -247c-123 0 -198 96 -207 222h-103v-212h-74zM453 53c87 0 133 76 133 184c0 109 -45 185 -132 185c-88 0 -133 -76 -133 -185c0 -108 46 -184 132 -184z" />
    <glyph glyph-name="afii10097" unicode="&#x44f;" horiz-adv-x="475" 
d="M40 0l68 144c15 32 29 53 49 62v2c-55 19 -83 67 -83 122c0 76 49 143 165 143h166v-473h-73v186h-103c-14 0 -34 -12 -52 -52l-59 -134h-78zM149 326c0 -48 31 -81 88 -81h95v168h-87c-67 0 -96 -35 -96 -87z" />
    <glyph glyph-name="uni0450" unicode="&#x450;" horiz-adv-x="470" 
d="M426 224h-307c1 -97 57 -172 157 -172c45 0 84 14 117 32l23 -52c-41 -27 -98 -42 -150 -42c-150 0 -223 114 -223 252c0 144 80 243 194 243c120 0 189 -94 189 -243v-18zM119 281h230c-2 72 -37 144 -111 144c-73 0 -117 -65 -119 -144zM225 531l-86 147h87l58 -147
h-59z" />
    <glyph glyph-name="afii10071" unicode="&#x451;" horiz-adv-x="470" 
d="M426 224h-307c1 -97 57 -172 157 -172c45 0 84 14 117 32l23 -52c-41 -27 -98 -42 -150 -42c-150 0 -223 114 -223 252c0 144 80 243 194 243c120 0 189 -94 189 -243v-18zM119 281h230c-2 72 -37 144 -111 144c-73 0 -117 -65 -119 -144zM151 561c-24 0 -43 19 -43 43
c0 25 19 44 43 44s44 -19 44 -44c0 -24 -20 -43 -44 -43zM329 561c-24 0 -44 19 -44 43c0 25 20 44 44 44s43 -19 43 -44c0 -24 -19 -43 -43 -43z" />
    <glyph glyph-name="afii10099" unicode="&#x452;" horiz-adv-x="512" 
d="M74 0v559h-64v60h64v89h73v-89h147v-60h-147v-163c43 43 93 72 151 72c94 0 170 -78 170 -261c0 -181 -69 -290 -191 -352l-34 55c111 60 150 158 150 294c0 122 -35 198 -110 198c-52 0 -93 -27 -136 -71v-331h-73z" />
    <glyph glyph-name="afii10100" unicode="&#x453;" horiz-adv-x="388" 
d="M192 531l58 147h83l-85 -147h-56zM69 0v473h307l-23 -66h-210v-407h-74z" />
    <glyph glyph-name="afii10101" unicode="&#x454;" horiz-adv-x="448" 
d="M263 -10c-148 0 -220 108 -220 242c0 140 80 253 230 253c48 0 92 -13 120 -29v-63c-31 19 -70 32 -116 32c-94 0 -150 -63 -160 -153h216v-57h-216c3 -106 59 -164 154 -164c50 0 87 16 117 32l24 -50c-34 -23 -91 -43 -149 -43z" />
    <glyph glyph-name="afii10102" unicode="&#x455;" horiz-adv-x="385" 
d="M29 30l24 57c27 -17 65 -35 118 -35c55 0 101 22 101 76c0 103 -221 70 -221 227c0 72 55 130 160 130c45 0 86 -10 117 -22v-65c-32 14 -68 26 -114 26c-45 0 -91 -15 -91 -66c0 -105 223 -69 223 -229c0 -94 -78 -139 -175 -139c-62 0 -112 21 -142 40z" />
    <glyph glyph-name="afii10103" unicode="&#x456;" horiz-adv-x="225" 
d="M76 0v473h73v-473h-73zM112 580c-29 0 -49 21 -49 49s20 50 49 50c30 0 50 -21 50 -50c0 -28 -21 -49 -50 -49z" />
    <glyph glyph-name="afii10104" unicode="&#x457;" horiz-adv-x="225" 
d="M25 561c-24 0 -43 19 -43 43c0 25 19 44 43 44s44 -19 44 -44c0 -24 -20 -43 -44 -43zM203 561c-24 0 -44 19 -44 43c0 25 20 44 44 44s43 -19 43 -44c0 -24 -19 -43 -43 -43zM76 0v473h73v-473h-73z" />
    <glyph glyph-name="afii10105" unicode="&#x458;" horiz-adv-x="236" 
d="M-49 -223l16 61c13 -6 28 -10 47 -10c51 0 73 30 73 101v544h73v-558c0 -107 -61 -152 -137 -152c-25 0 -50 4 -72 14zM123 580c-28 0 -48 21 -48 49s20 50 48 50c30 0 50 -21 50 -50c0 -28 -21 -49 -50 -49z" />
    <glyph glyph-name="afii10106" unicode="&#x459;" horiz-adv-x="729" 
d="M417 60h68c99 0 124 38 124 85c0 52 -30 84 -132 84c-20 0 -39 -1 -60 -3v-166zM31 -8c-3 0 -13 0 -21 2v67c6 -1 12 -1 14 -1c21 0 40 12 57 38c38 61 82 207 101 375h235v-185c22 1 40 2 60 2c158 0 207 -65 207 -143c0 -73 -44 -147 -197 -147h-142v409h-104
c-19 -158 -64 -300 -109 -363c-26 -37 -59 -54 -101 -54z" />
    <glyph glyph-name="afii10107" unicode="&#x45a;" horiz-adv-x="743" 
d="M69 0v473h74v-188h215v188h73v-185c22 1 40 2 60 2c158 0 206 -65 206 -143c0 -73 -40 -147 -196 -147h-143v221h-215v-221h-74zM431 60h68c102 0 123 38 123 85c0 52 -30 84 -131 84c-21 0 -39 -1 -60 -3v-166z" />
    <glyph glyph-name="afii10108" unicode="&#x45b;" horiz-adv-x="525" 
d="M74 0v559h-64v60h64v89h73v-89h139v-60h-139v-163c49 42 103 72 164 72c77 0 144 -47 144 -167v-301h-73v283c0 69 -18 119 -89 119c-53 0 -101 -32 -146 -71v-331h-73z" />
    <glyph glyph-name="afii10109" unicode="&#x45c;" horiz-adv-x="455" 
d="M198 531l58 147h83l-85 -147h-56zM69 0v473h74v-203h64c68 0 67 110 101 169c18 30 43 46 80 46c11 0 24 -1 33 -5v-64c-8 3 -15 4 -22 4c-15 0 -26 -6 -34 -19c-26 -40 -29 -130 -81 -158v-2c27 -7 40 -29 58 -65l88 -176h-78l-75 159c-18 39 -35 52 -49 52h-85v-211
h-74z" />
    <glyph glyph-name="uni045D" unicode="&#x45d;" horiz-adv-x="532" 
d="M248 531l-86 147h87l58 -147h-59zM69 0v473h73v-271c0 -36 -1 -64 -3 -95h2c19 29 38 57 67 99l185 267h70v-473h-73v271c0 36 1 64 3 95h-2c-18 -29 -36 -57 -66 -99l-187 -267h-69z" />
    <glyph glyph-name="afii10110" unicode="&#x45e;" horiz-adv-x="472" 
d="M459 473l-177 -510c-61 -174 -133 -200 -210 -200c-35 0 -60 6 -84 16l18 61c18 -8 40 -14 65 -14c62 0 113 45 150 171l-208 476h80l161 -383h2l126 383h77zM241 544c-96 0 -148 61 -146 142h63c0 -45 22 -86 83 -86s83 41 83 86h64c1 -81 -53 -142 -147 -142z" />
    <glyph glyph-name="afii10193" unicode="&#x45f;" horiz-adv-x="505" 
d="M217 -162v162h-148v473h74v-410h219v410h73v-473h-147v-162h-71z" />
    <glyph glyph-name="afii10146" unicode="&#x462;" horiz-adv-x="588" 
d="M136 0v508h-130v62h130v99h74v-99h167l-23 -62h-144v-122h60c72 0 125 -8 166 -27c65 -31 97 -88 97 -163c0 -117 -71 -196 -248 -196h-149zM210 62h78c111 0 169 42 169 131c0 53 -20 91 -60 111c-29 15 -69 20 -124 20h-63v-262z" />
    <glyph glyph-name="afii10194" unicode="&#x463;" horiz-adv-x="508" 
d="M121 0v414h-121v59h121v131h73v-131h169l-22 -59h-147v-129c22 2 40 3 60 3c160 0 209 -65 209 -143c0 -73 -41 -145 -199 -145h-143zM194 59h68c103 0 126 37 126 85c0 52 -29 83 -133 83c-21 0 -39 -1 -61 -2v-166z" />
    <glyph glyph-name="afii10147" unicode="&#x472;" horiz-adv-x="752" 
d="M376 -10c-191 0 -319 124 -319 336c0 208 127 338 319 338c195 0 319 -134 319 -338c0 -213 -131 -336 -319 -336zM376 54c148 0 236 94 240 252h-480c4 -158 91 -252 240 -252zM137 369h478c-10 137 -90 232 -239 232c-142 0 -228 -89 -239 -232z" />
    <glyph glyph-name="afii10195" unicode="&#x473;" horiz-adv-x="519" 
d="M259 -10c-138 0 -216 103 -216 247c0 145 78 248 217 248c137 0 216 -103 216 -248c0 -144 -78 -247 -217 -247zM259 51c87 0 137 63 140 164h-280c3 -101 53 -164 140 -164zM119 272h279c-6 94 -56 152 -138 152c-84 0 -134 -58 -141 -152z" />
    <glyph glyph-name="afii10148" unicode="&#x474;" horiz-adv-x="635" 
d="M270 -3l-251 662h80l148 -401c21 -57 36 -102 50 -144h2c45 177 84 312 111 392c32 89 70 158 162 158c16 0 36 -2 50 -6v-68c-11 4 -24 6 -36 6c-62 0 -84 -55 -107 -117c-32 -85 -73 -234 -148 -482h-61z" />
    <glyph glyph-name="afii10196" unicode="&#x475;" horiz-adv-x="469" 
d="M192 -3l-179 476h77l132 -377h2c24 97 47 185 66 245c33 103 65 144 133 144c15 0 28 -2 37 -5v-64c-6 3 -15 5 -27 5c-36 0 -57 -36 -79 -105c-21 -61 -55 -178 -94 -319h-68z" />
    <glyph glyph-name="afii10050" unicode="&#x490;" horiz-adv-x="462" 
d="M89 0v659h280v162l68 18v-242h-274v-597h-74z" />
    <glyph glyph-name="afii10098" unicode="&#x491;" horiz-adv-x="398" 
d="M69 0v473h238v145l66 17v-227h-230v-408h-74z" />
    <glyph glyph-name="Wgrave" unicode="&#x1e80;" horiz-adv-x="900" 
d="M238 -3l-222 662h82l128 -396c13 -43 31 -96 44 -148h2c16 55 31 98 48 147l98 285l-39 112h80l133 -398c14 -41 33 -95 46 -145h2c13 52 26 97 41 143l125 400h78l-218 -662h-59l-105 309c-18 53 -32 94 -46 142h-3c-14 -48 -26 -84 -46 -142l-109 -309h-60zM420 696
l-86 147h87l58 -147h-59z" />
    <glyph glyph-name="wgrave" unicode="&#x1e81;" horiz-adv-x="690" 
d="M167 -3l-156 476h77l112 -377h2l109 377h69l113 -377h2l110 377h75l-157 -476h-64l-112 379h-2l-113 -379h-65zM330 531l-86 147h87l58 -147h-59z" />
    <glyph glyph-name="Wacute" unicode="&#x1e82;" horiz-adv-x="900" 
d="M238 -3l-222 662h82l128 -396c13 -43 31 -96 44 -148h2c16 55 31 98 48 147l98 285l-39 112h80l133 -398c14 -41 33 -95 46 -145h2c13 52 26 97 41 143l125 400h78l-218 -662h-59l-105 309c-18 53 -32 94 -46 142h-3c-14 -48 -26 -84 -46 -142l-109 -309h-60zM412 696
l58 147h83l-85 -147h-56z" />
    <glyph glyph-name="wacute" unicode="&#x1e83;" horiz-adv-x="690" 
d="M167 -3l-156 476h77l112 -377h2l109 377h69l113 -377h2l110 377h75l-157 -476h-64l-112 379h-2l-113 -379h-65zM302 531l58 147h83l-85 -147h-56z" />
    <glyph glyph-name="Wdieresis" unicode="&#x1e84;" horiz-adv-x="900" 
d="M238 -3l-222 662h82l128 -396c13 -43 31 -96 44 -148h2c16 55 31 98 48 147l98 285l-39 112h80l133 -398c14 -41 33 -95 46 -145h2c13 52 26 97 41 143l125 400h78l-218 -662h-59l-105 309c-18 53 -32 94 -46 142h-3c-14 -48 -26 -84 -46 -142l-109 -309h-60zM366 706
c-24 0 -43 19 -43 44c0 24 19 43 43 43s44 -19 44 -43c0 -25 -20 -44 -44 -44zM544 706c-24 0 -44 19 -44 44c0 24 20 43 44 43s43 -19 43 -43c0 -25 -19 -44 -43 -44z" />
    <glyph glyph-name="wdieresis" unicode="&#x1e85;" horiz-adv-x="690" 
d="M167 -3l-156 476h77l112 -377h2l109 377h69l113 -377h2l110 377h75l-157 -476h-64l-112 379h-2l-113 -379h-65zM256 561c-24 0 -43 19 -43 43c0 25 19 44 43 44s44 -19 44 -44c0 -24 -20 -43 -44 -43zM434 561c-24 0 -44 19 -44 43c0 25 20 44 44 44s43 -19 43 -44
c0 -24 -19 -43 -43 -43z" />
    <glyph glyph-name="Ygrave" unicode="&#x1ef2;" horiz-adv-x="536" 
d="M233 0v263l-217 396h82l172 -323h2l168 323h80l-214 -397v-262h-73zM256 696l-86 147h87l58 -147h-59z" />
    <glyph glyph-name="ygrave" unicode="&#x1ef3;" horiz-adv-x="466" 
d="M456 473l-177 -510c-61 -174 -133 -200 -210 -200c-35 0 -60 6 -84 16l18 61c18 -8 40 -14 65 -14c62 0 113 45 150 171l-208 476h80l161 -383h2l126 383h77zM224 531l-86 147h87l58 -147h-59z" />
    <glyph glyph-name="endash" unicode="&#x2013;" horiz-adv-x="450" 
d="M0 224v59h450v-59h-450z" />
    <glyph glyph-name="emdash" unicode="&#x2014;" horiz-adv-x="800" 
d="M0 224v59h800v-59h-800z" />
    <glyph glyph-name="quoteleft" unicode="&#x2018;" horiz-adv-x="227" 
d="M96 454c-20 42 -31 80 -31 123s12 90 40 140l41 -10c-10 -34 -14 -64 -14 -93c0 -47 11 -86 32 -128z" />
    <glyph glyph-name="quoteright" unicode="&#x2019;" horiz-adv-x="227" 
d="M130 717c20 -42 32 -80 32 -123s-13 -91 -40 -140l-42 9c10 34 15 64 15 93c0 48 -12 86 -32 128z" />
    <glyph glyph-name="quotesinglbase" unicode="&#x201a;" horiz-adv-x="227" 
d="M130 117c20 -42 32 -80 32 -123s-13 -91 -40 -140l-42 9c10 34 15 64 15 93c0 48 -12 86 -32 128z" />
    <glyph glyph-name="quotedblleft" unicode="&#x201c;" horiz-adv-x="385" 
d="M96 454c-20 42 -31 80 -31 123s12 90 40 140l41 -10c-10 -34 -14 -64 -14 -93c0 -47 11 -86 32 -128zM255 454c-20 42 -32 80 -32 123s13 90 40 140l42 -10c-10 -34 -15 -64 -15 -93c0 -47 12 -86 32 -128z" />
    <glyph glyph-name="quotedblright" unicode="&#x201d;" horiz-adv-x="385" 
d="M289 717c20 -42 31 -80 31 -123s-12 -91 -40 -140l-41 9c10 34 14 64 14 93c0 48 -11 86 -32 128zM130 717c20 -42 32 -80 32 -123s-13 -91 -40 -140l-42 9c10 34 15 64 15 93c0 48 -12 86 -32 128z" />
    <glyph glyph-name="quotedblbase" unicode="&#x201e;" horiz-adv-x="385" 
d="M289 117c20 -42 31 -80 31 -123s-12 -91 -40 -140l-41 9c10 34 14 64 14 93c0 48 -11 86 -32 128zM130 117c20 -42 32 -80 32 -123s-13 -91 -40 -140l-42 9c10 34 15 64 15 93c0 48 -12 86 -32 128z" />
    <glyph glyph-name="dagger" unicode="&#x2020;" horiz-adv-x="511" 
d="M221 -46v151c0 182 7 259 6 309c-39 -1 -109 -11 -153 -11v73c44 -1 113 -11 154 -13c0 45 -9 112 -9 161h73c0 -49 -9 -116 -9 -161c41 2 110 12 154 13v-73c-44 0 -114 10 -154 11c0 -50 7 -127 7 -309v-151h-69z" />
    <glyph glyph-name="daggerdbl" unicode="&#x2021;" horiz-adv-x="511" 
d="M219 -46c0 49 9 116 9 161c-41 -2 -110 -12 -154 -13v74c44 0 114 -10 153 -11c1 29 -5 66 -5 118c0 58 6 100 5 131c-39 -1 -109 -11 -153 -11v73c44 -1 113 -11 154 -13c0 45 -9 112 -9 161h73c0 -49 -9 -116 -9 -161c41 2 110 12 154 13v-73c-44 0 -114 10 -154 11
c0 -30 5 -72 5 -131c0 -52 -5 -90 -5 -118c40 1 110 11 154 11v-74c-44 1 -113 11 -154 13c0 -45 9 -112 9 -161h-73z" />
    <glyph glyph-name="bullet" unicode="&#x2022;" horiz-adv-x="298" 
d="M148 213c-57 0 -101 47 -101 105c0 59 44 105 101 105c59 0 103 -46 103 -105c0 -58 -44 -105 -103 -105z" />
    <glyph glyph-name="ellipsis" unicode="&#x2026;" horiz-adv-x="894" 
d="M163 -8c-26 0 -47 23 -47 50s21 49 47 49c27 0 48 -22 48 -49s-21 -50 -48 -50zM447 -8c-27 0 -48 23 -48 50s21 49 48 49c26 0 47 -22 47 -49s-21 -50 -47 -50zM730 -8c-26 0 -47 23 -47 50s21 49 47 49c27 0 48 -22 48 -49s-21 -50 -48 -50z" />
    <glyph glyph-name="perthousand" unicode="&#x2030;" horiz-adv-x="1179" 
d="M206 318c-81 0 -148 58 -148 173s67 173 148 173c82 0 148 -58 148 -173s-66 -173 -148 -173zM206 369c55 0 86 50 86 122s-31 122 -86 122c-54 0 -85 -50 -85 -122s31 -122 85 -122zM621 -10c-82 0 -148 59 -148 173c0 115 66 174 148 174c81 0 148 -59 148 -174
c0 -114 -67 -173 -148 -173zM621 42c54 0 85 49 85 121c0 73 -31 122 -85 122c-55 0 -86 -49 -86 -122c0 -72 31 -121 86 -121zM973 -10c-82 0 -148 59 -148 173c0 115 66 174 148 174c81 0 148 -59 148 -174c0 -114 -67 -173 -148 -173zM973 42c54 0 85 49 85 121
c0 73 -31 122 -85 122c-55 0 -86 -49 -86 -122c0 -72 31 -121 86 -121zM175 0l411 659h66l-412 -659h-65z" />
    <glyph glyph-name="guilsinglleft" unicode="&#x2039;" horiz-adv-x="342" 
d="M266 415l-135 -174l135 -174l-53 -34l-166 208l166 208z" />
    <glyph glyph-name="guilsinglright" unicode="&#x203a;" horiz-adv-x="342" 
d="M211 241l-135 174l53 34l166 -208l-166 -208l-53 34z" />
    <glyph glyph-name="fraction" unicode="&#x2044;" horiz-adv-x="119" 
d="M-179 0l411 659h66l-412 -659h-65z" />
    <glyph glyph-name="zerosuperior" unicode="&#x2070;" horiz-adv-x="368" 
d="M183 397c-81 0 -140 70 -140 199s59 197 142 197c82 0 141 -70 141 -200c0 -128 -60 -196 -143 -196zM186 450c53 0 75 65 75 142c0 92 -28 148 -78 148c-52 0 -75 -65 -75 -141c0 -92 29 -149 78 -149z" />
    <glyph glyph-name="foursuperior" unicode="&#x2074;" horiz-adv-x="368" 
d="M34 492v41l192 259h55v-250h53v-50h-53v-88h-62v88h-185zM103 542h73h43v42c0 33 0 70 3 119z" />
    <glyph glyph-name="fivesuperior" unicode="&#x2075;" horiz-adv-x="332" 
d="M32 419l18 51c27 -14 52 -20 82 -20c53 0 86 23 86 70c0 29 -13 45 -33 55c-17 7 -39 10 -73 10h-52v199h224l-14 -53h-149v-96h18c34 0 60 -4 80 -13c45 -18 64 -55 64 -101c0 -72 -51 -124 -150 -124c-38 0 -75 8 -101 22z" />
    <glyph glyph-name="sixsuperior" unicode="&#x2076;" horiz-adv-x="347" 
d="M183 397c-75 0 -140 56 -140 182c0 118 68 214 175 214c30 0 53 -5 77 -16l-17 -50c-14 7 -33 13 -58 13c-54 0 -98 -41 -109 -115h2c22 13 50 22 80 22c69 0 121 -45 121 -122c0 -80 -58 -128 -131 -128zM186 449c39 0 65 25 65 73c0 44 -29 72 -70 72
c-25 0 -53 -13 -72 -26c-1 -69 28 -119 77 -119z" />
    <glyph glyph-name="sevensuperior" unicode="&#x2077;" horiz-adv-x="312" 
d="M59 404c33 146 94 253 150 327h-174l-14 53h270v-32c-80 -96 -133 -201 -163 -348h-69z" />
    <glyph glyph-name="eightsuperior" unicode="&#x2078;" horiz-adv-x="368" 
d="M180 397c-82 0 -136 39 -136 106c0 53 34 84 73 98v2c-33 15 -61 43 -61 88c0 62 51 102 127 102c77 0 126 -41 126 -102c0 -44 -28 -73 -60 -87v-2c37 -12 75 -39 75 -95c0 -69 -62 -110 -144 -110zM182 450c38 0 77 18 77 58s-38 58 -86 70c-30 -8 -65 -29 -65 -69
s36 -59 74 -59zM190 625c24 9 55 30 55 65c0 28 -24 50 -62 50c-36 0 -62 -18 -62 -49c0 -38 32 -56 69 -66z" />
    <glyph glyph-name="ninesuperior" unicode="&#x2079;" horiz-adv-x="347" 
d="M133 397c-29 0 -60 5 -89 17l17 52c23 -12 46 -16 70 -16c62 0 103 41 110 121h-2c-22 -16 -49 -28 -85 -28c-62 0 -120 35 -120 120c0 77 53 130 128 130c84 0 142 -60 142 -187s-62 -209 -171 -209zM165 595c29 0 60 18 74 37c-1 69 -32 108 -77 108
c-41 0 -65 -30 -65 -71c0 -44 24 -74 68 -74z" />
    <glyph glyph-name="plussuperior" unicode="&#x207a;" horiz-adv-x="413" 
d="M179 434v135h-127v54h127v131h55v-131h127v-54h-127v-135h-55z" />
    <glyph glyph-name="minussuperior" unicode="&#x207b;" horiz-adv-x="413" 
d="M52 569v54h309v-54h-309z" />
    <glyph glyph-name="equalsuperior" unicode="&#x207c;" horiz-adv-x="413" 
d="M52 506v53h309v-53h-309zM52 633v53h309v-53h-309z" />
    <glyph glyph-name="parenleftsuperior" unicode="&#x207d;" horiz-adv-x="239" 
d="M160 357c-71 64 -103 148 -103 239s32 175 103 239l38 -31c-52 -56 -79 -121 -79 -208s27 -152 79 -208z" />
    <glyph glyph-name="parenrightsuperior" unicode="&#x207e;" horiz-adv-x="239" 
d="M41 388c53 56 79 121 79 208s-26 152 -79 208l39 31c70 -64 102 -148 102 -239s-32 -175 -102 -239z" />
    <glyph glyph-name="n.superior" unicode="&#x207f;" horiz-adv-x="377" 
d="M52 270v332h52l5 -38c35 28 73 47 115 47c55 0 103 -36 103 -119v-222h-60v206c0 47 -14 79 -56 79c-35 0 -66 -20 -98 -45v-240h-61z" />
    <glyph glyph-name="zeroinferior" unicode="&#x2080;" horiz-adv-x="368" 
d="M183 -187c-81 0 -140 70 -140 199s59 197 142 197c82 0 141 -70 141 -200c0 -128 -60 -196 -143 -196zM186 -134c53 0 75 65 75 142c0 92 -28 148 -78 148c-52 0 -75 -65 -75 -141c0 -92 29 -149 78 -149z" />
    <glyph glyph-name="oneinferior" unicode="&#x2081;" horiz-adv-x="324" 
d="M176 -180v322l-119 -47l-23 48l154 65h50v-388h-62z" />
    <glyph glyph-name="twoinferior" unicode="&#x2082;" horiz-adv-x="327" 
d="M30 -180c9 191 190 198 190 285c0 30 -23 50 -61 50c-34 0 -64 -13 -95 -30l-21 48c37 21 78 36 123 36c78 0 119 -42 119 -101c0 -111 -158 -124 -181 -232h181v-56h-255z" />
    <glyph glyph-name="threeinferior" unicode="&#x2083;" horiz-adv-x="330" 
d="M21 -165l17 50c28 -13 58 -19 85 -19c52 0 91 17 91 63c0 23 -13 43 -41 52c-16 6 -31 8 -64 8h-40v51h35c27 0 47 4 61 10c27 12 37 34 37 53c0 37 -30 52 -65 52c-34 0 -61 -9 -87 -21l-19 48c32 15 71 27 115 27c73 0 121 -40 121 -99c0 -44 -27 -75 -69 -90v-2
c51 -9 81 -43 81 -94c0 -59 -47 -111 -154 -111c-34 0 -76 8 -104 22z" />
    <glyph glyph-name="fourinferior" unicode="&#x2084;" horiz-adv-x="368" 
d="M34 -92v41l192 259h55v-250h53v-50h-53v-88h-62v88h-185zM103 -42h73h43v42c0 33 0 70 3 119z" />
    <glyph glyph-name="fiveinferior" unicode="&#x2085;" horiz-adv-x="332" 
d="M32 -165l18 51c27 -14 52 -20 82 -20c53 0 86 23 86 70c0 29 -13 45 -33 55c-17 7 -39 10 -73 10h-52v199h224l-14 -53h-149v-96h18c34 0 60 -4 80 -13c45 -18 64 -55 64 -101c0 -72 -51 -124 -150 -124c-38 0 -75 8 -101 22z" />
    <glyph glyph-name="sixinferior" unicode="&#x2086;" horiz-adv-x="347" 
d="M183 -187c-75 0 -140 56 -140 182c0 118 68 214 175 214c30 0 53 -5 77 -16l-17 -50c-14 7 -33 13 -58 13c-54 0 -98 -41 -109 -115h2c22 13 50 22 80 22c69 0 121 -45 121 -122c0 -80 -58 -128 -131 -128zM186 -135c39 0 65 25 65 73c0 44 -29 72 -70 72
c-25 0 -53 -13 -72 -26c-1 -69 28 -119 77 -119z" />
    <glyph glyph-name="seveninferior" unicode="&#x2087;" horiz-adv-x="312" 
d="M59 -180c33 146 94 253 150 327h-174l-14 53h270v-32c-80 -96 -133 -201 -163 -348h-69z" />
    <glyph glyph-name="eightinferior" unicode="&#x2088;" horiz-adv-x="368" 
d="M180 -187c-82 0 -136 39 -136 106c0 53 34 84 73 98v2c-33 15 -61 43 -61 88c0 62 51 102 127 102c77 0 126 -41 126 -102c0 -44 -28 -73 -60 -87v-2c37 -12 75 -39 75 -95c0 -69 -62 -110 -144 -110zM182 -134c38 0 77 18 77 58s-38 58 -86 70c-30 -8 -65 -29 -65 -69
s36 -59 74 -59zM190 41c24 9 55 30 55 65c0 28 -24 50 -62 50c-36 0 -62 -18 -62 -49c0 -38 32 -56 69 -66z" />
    <glyph glyph-name="nineinferior" unicode="&#x2089;" horiz-adv-x="347" 
d="M133 -187c-29 0 -60 5 -89 17l17 52c23 -12 46 -16 70 -16c62 0 103 41 110 121h-2c-22 -16 -49 -28 -85 -28c-62 0 -120 35 -120 120c0 77 53 130 128 130c84 0 142 -60 142 -187s-62 -209 -171 -209zM165 11c29 0 60 18 74 37c-1 69 -32 108 -77 108
c-41 0 -65 -30 -65 -71c0 -44 24 -74 68 -74z" />
    <glyph glyph-name="parenleftinferior" unicode="&#x208d;" horiz-adv-x="239" 
d="M160 -227c-71 64 -103 148 -103 239s32 175 103 239l38 -31c-52 -56 -79 -121 -79 -208s27 -152 79 -208z" />
    <glyph glyph-name="parenrightinferior" unicode="&#x208e;" horiz-adv-x="239" 
d="M41 -196c53 56 79 121 79 208s-26 152 -79 208l39 31c70 -64 102 -148 102 -239s-32 -175 -102 -239z" />
    <glyph glyph-name="Euro" unicode="&#x20ac;" 
d="M472 91l29 -58c-51 -33 -108 -43 -155 -43c-148 0 -226 94 -251 225h-71v55h63c-1 17 -1 38 -1 52c0 17 1 41 3 62h-65v55h75c32 130 119 225 250 225c57 0 103 -16 133 -33v-73c-43 25 -79 38 -126 38c-93 0 -153 -62 -178 -157h270l-20 -55h-261c-3 -20 -3 -43 -3 -59
c0 -14 0 -36 2 -55h254l-20 -55h-223c22 -91 77 -160 173 -160c46 0 79 11 122 36z" />
    <glyph glyph-name="afii61289" unicode="&#x2113;" horiz-adv-x="466" 
d="M18 147l-17 63c30 8 58 17 84 27v145c0 204 83 282 179 282c89 0 131 -63 131 -140c0 -118 -84 -247 -236 -324c3 -107 46 -144 98 -144c34 0 70 11 112 45l33 -54c-40 -32 -91 -57 -153 -57c-94 0 -154 64 -162 178c-22 -8 -45 -15 -69 -21zM158 372v-99
c113 67 162 165 162 253c0 43 -19 77 -59 77c-55 0 -103 -66 -103 -231z" />
    <glyph glyph-name="afii61352" unicode="&#x2116;" horiz-adv-x="1042" 
d="M82 0v659h70l252 -378c29 -43 63 -97 92 -146h3c-2 36 -3 65 -3 118v406h73v-659h-61l-264 394c-30 45 -63 97 -89 139h-2c1 -35 2 -63 2 -115v-418h-73zM662 140v51h308v-51h-308zM815 263c-95 0 -157 77 -157 174s62 174 158 174s158 -77 158 -174s-62 -174 -159 -174z
M815 317c59 0 97 50 97 120s-38 120 -96 120s-95 -50 -95 -120s37 -120 94 -120z" />
    <glyph glyph-name="uni2117" unicode="&#x2117;" horiz-adv-x="780" 
d="M390 -10c-192 0 -332 148 -332 337s140 337 332 337c191 0 332 -148 332 -337s-141 -337 -332 -337zM390 34c161 0 280 125 280 293s-119 292 -280 292s-280 -124 -280 -292s119 -293 280 -293zM291 132v388h105c85 0 136 -47 136 -123c0 -77 -50 -126 -141 -126h-48
v-139h-52zM343 317h51c60 0 84 32 84 78c0 47 -23 79 -81 79h-54v-157z" />
    <glyph glyph-name="trademark" unicode="&#x2122;" horiz-adv-x="830" 
d="M135 264v345h-109v50h286l-14 -50h-104v-345h-59zM350 264v395h53l100 -149c19 -29 33 -53 41 -70h3c8 17 21 41 41 70l99 149h54v-395h-59v222c0 39 1 61 4 83h-2c-9 -16 -24 -42 -36 -61l-87 -130h-31l-86 130c-13 19 -28 45 -37 61h-2c3 -22 4 -44 4 -83v-222h-59z
" />
    <glyph glyph-name="estimated" unicode="&#x212e;" horiz-adv-x="754" 
d="M590 119h90c-68 -85 -170 -129 -304 -129c-185 0 -351 114 -351 311c0 199 166 310 355 310c237 0 352 -163 348 -326h-556v-160c43 -63 124 -97 209 -97c90 0 159 30 209 91zM172 324h414v152c-44 63 -115 97 -206 97c-92 0 -163 -34 -208 -97v-152z" />
    <glyph glyph-name="onethird" unicode="&#x2153;" horiz-adv-x="861" 
d="M172 0l411 659h66l-412 -659h-65zM194 270v322l-119 -47l-23 48l154 65h50v-388h-62zM535 14l17 50c28 -13 58 -19 85 -19c52 0 91 17 91 63c0 23 -13 43 -41 52c-16 6 -31 8 -64 8h-40v51h35c27 0 47 4 61 10c27 12 37 34 37 53c0 37 -30 52 -65 52
c-34 0 -61 -9 -87 -21l-19 48c32 15 71 27 115 27c73 0 121 -40 121 -99c0 -44 -27 -75 -69 -90v-2c51 -9 81 -43 81 -94c0 -59 -47 -111 -154 -111c-34 0 -76 8 -104 22z" />
    <glyph glyph-name="twothirds" unicode="&#x2154;" horiz-adv-x="861" 
d="M181 0l411 659h66l-412 -659h-65zM35 270c9 191 190 198 190 285c0 30 -23 50 -61 50c-34 0 -64 -13 -95 -30l-21 48c37 21 78 36 123 36c78 0 119 -42 119 -101c0 -111 -158 -124 -181 -232h181v-56h-255zM535 14l17 50c28 -13 58 -19 85 -19c52 0 91 17 91 63
c0 23 -13 43 -41 52c-16 6 -31 8 -64 8h-40v51h35c27 0 47 4 61 10c27 12 37 34 37 53c0 37 -30 52 -65 52c-34 0 -61 -9 -87 -21l-19 48c32 15 71 27 115 27c73 0 121 -40 121 -99c0 -44 -27 -75 -69 -90v-2c51 -9 81 -43 81 -94c0 -59 -47 -111 -154 -111
c-34 0 -76 8 -104 22z" />
    <glyph glyph-name="oneeighth" unicode="&#x215b;" horiz-adv-x="861" 
d="M159 0l411 659h66l-412 -659h-65zM183 270v322l-119 -47l-23 48l154 65h50v-388h-62zM647 -8c-82 0 -136 39 -136 106c0 53 34 84 73 98v2c-33 15 -61 43 -61 88c0 62 51 102 127 102c77 0 126 -41 126 -102c0 -44 -28 -73 -60 -87v-2c37 -12 75 -39 75 -95
c0 -69 -62 -110 -144 -110zM649 45c38 0 77 18 77 58s-38 58 -86 70c-30 -8 -65 -29 -65 -69s36 -59 74 -59zM657 220c24 9 55 30 55 65c0 28 -24 50 -62 50c-36 0 -62 -18 -62 -49c0 -38 32 -56 69 -66z" />
    <glyph glyph-name="threeeighths" unicode="&#x215c;" horiz-adv-x="861" 
d="M183 0l411 659h66l-412 -659h-65zM660 -8c-82 0 -136 39 -136 106c0 53 34 84 73 98v2c-33 15 -61 43 -61 88c0 62 51 102 127 102c77 0 126 -41 126 -102c0 -44 -28 -73 -60 -87v-2c37 -12 75 -39 75 -95c0 -69 -62 -110 -144 -110zM662 45c38 0 77 18 77 58
s-38 58 -86 70c-30 -8 -65 -29 -65 -69s36 -59 74 -59zM670 220c24 9 55 30 55 65c0 28 -24 50 -62 50c-36 0 -62 -18 -62 -49c0 -38 32 -56 69 -66zM49 285l17 50c28 -13 58 -19 85 -19c52 0 91 17 91 63c0 23 -13 43 -41 52c-16 6 -31 8 -64 8h-40v51h35c27 0 47 4 61 10
c27 12 37 34 37 53c0 37 -30 52 -65 52c-34 0 -61 -9 -87 -21l-19 48c32 15 71 27 115 27c73 0 121 -40 121 -99c0 -44 -27 -75 -69 -90v-2c51 -9 81 -43 81 -94c0 -59 -47 -111 -154 -111c-34 0 -76 8 -104 22z" />
    <glyph glyph-name="fiveeighths" unicode="&#x215d;" horiz-adv-x="861" 
d="M172 0l411 659h66l-412 -659h-65zM44 285l18 51c27 -14 52 -20 82 -20c53 0 86 23 86 70c0 29 -13 45 -33 55c-17 7 -39 10 -73 10h-52v199h224l-14 -53h-149v-96h18c34 0 60 -4 80 -13c45 -18 64 -55 64 -101c0 -72 -51 -124 -150 -124c-38 0 -75 8 -101 22zM659 -8
c-82 0 -136 39 -136 106c0 53 34 84 73 98v2c-33 15 -61 43 -61 88c0 62 51 102 127 102c77 0 126 -41 126 -102c0 -44 -28 -73 -60 -87v-2c37 -12 75 -39 75 -95c0 -69 -62 -110 -144 -110zM661 45c38 0 77 18 77 58s-38 58 -86 70c-30 -8 -65 -29 -65 -69s36 -59 74 -59z
M669 220c24 9 55 30 55 65c0 28 -24 50 -62 50c-36 0 -62 -18 -62 -49c0 -38 32 -56 69 -66z" />
    <glyph glyph-name="seveneighths" unicode="&#x215e;" horiz-adv-x="861" 
d="M158 0l411 659h66l-412 -659h-65zM648 -8c-82 0 -136 39 -136 106c0 53 34 84 73 98v2c-33 15 -61 43 -61 88c0 62 51 102 127 102c77 0 126 -41 126 -102c0 -44 -28 -73 -60 -87v-2c37 -12 75 -39 75 -95c0 -69 -62 -110 -144 -110zM650 45c38 0 77 18 77 58
s-38 58 -86 70c-30 -8 -65 -29 -65 -69s36 -59 74 -59zM658 220c24 9 55 30 55 65c0 28 -24 50 -62 50c-36 0 -62 -18 -62 -49c0 -38 32 -56 69 -66zM130 270c33 146 94 253 150 327h-174l-14 53h270v-32c-80 -96 -133 -201 -163 -348h-69z" />
    <glyph glyph-name="partialdiff" unicode="&#x2202;" horiz-adv-x="507" 
d="M209 -10c-107 0 -179 76 -179 194c0 134 94 236 233 236c40 0 85 -8 124 -30l1 1c-10 127 -73 212 -175 212c-45 0 -85 -11 -129 -33l-22 54c52 29 112 40 154 40c169 0 251 -133 251 -311c0 -222 -108 -363 -258 -363zM216 52c88 0 169 92 175 274
c-43 25 -86 32 -120 32c-101 0 -165 -69 -165 -173c0 -84 45 -133 110 -133z" />
    <glyph glyph-name="Delta" unicode="&#x2206;" horiz-adv-x="609" 
d="M19 0l255 661h61l255 -661h-571zM278 481l-156 -418h364l-154 417c-14 37 -21 63 -26 85h-1c-6 -23 -14 -48 -27 -84z" />
    <glyph glyph-name="product" unicode="&#x220f;" horiz-adv-x="635" 
d="M108 -180v776h-88v63h611l-23 -63h-87v-776h-74v776h-266v-776h-73z" />
    <glyph glyph-name="summation" unicode="&#x2211;" horiz-adv-x="573" 
d="M23 -180l267 429l-251 410h513l-22 -63h-364l210 -346l-226 -367h394v-63h-521z" />
    <glyph glyph-name="minus" unicode="&#x2212;" 
d="M25 222v63h473v-63h-473z" />
    <glyph glyph-name="radical" unicode="&#x221a;" horiz-adv-x="657" 
d="M318 -122l-154 447l-88 -35l-22 59l159 62l106 -321c15 -48 27 -93 37 -130h2c8 36 20 86 31 127l199 740h74l-262 -949h-82z" />
    <glyph glyph-name="infinity" unicode="&#x221e;" horiz-adv-x="768" 
d="M194 101c-102 0 -164 77 -164 165c0 89 62 165 164 165c82 0 138 -55 188 -115c50 60 106 115 192 115c102 0 164 -76 164 -165c0 -88 -62 -165 -164 -165c-86 0 -142 55 -192 115c-51 -60 -107 -115 -188 -115zM199 168c59 0 102 45 145 98c-43 53 -86 99 -145 99
c-56 0 -94 -39 -94 -99c0 -59 38 -98 94 -98zM569 168c56 0 94 39 94 98c0 60 -38 99 -94 99c-59 0 -102 -47 -146 -99c44 -53 87 -98 146 -98z" />
    <glyph glyph-name="integral" unicode="&#x222b;" horiz-adv-x="304" 
d="M-39 -222l16 61c16 -7 33 -11 52 -11c47 0 68 31 68 85v643c0 116 71 152 137 152c22 0 50 -5 72 -15l-15 -61c-16 7 -33 11 -52 11c-48 0 -69 -31 -69 -85v-643c0 -116 -71 -152 -136 -152c-23 0 -50 5 -73 15z" />
    <glyph glyph-name="approxequal" unicode="&#x2248;" 
d="M68 123l-41 44c44 45 84 65 129 65c70 0 155 -61 213 -61c34 0 54 14 86 44l41 -44c-44 -45 -84 -65 -129 -65c-66 0 -158 61 -213 61c-34 0 -54 -15 -86 -44zM68 295l-41 44c44 45 84 64 129 64c70 0 155 -61 213 -61c34 0 54 15 86 44l41 -44c-44 -45 -84 -64 -129 -64
c-66 0 -158 61 -213 61c-34 0 -54 -15 -86 -44z" />
    <glyph glyph-name="notequal" unicode="&#x2260;" 
d="M121 34l50 103h-146v63h177l51 107h-228v62h259l48 98h73l-48 -98h141v-62h-172l-52 -107h224v-63h-255l-50 -103h-72z" />
    <glyph glyph-name="lessequal" unicode="&#x2264;" 
d="M48 270v68l418 156v-65l-341 -124v-2l341 -124v-66zM25 0v63h473v-63h-473z" />
    <glyph glyph-name="greaterequal" unicode="&#x2265;" 
d="M58 113v66l341 124v2l-341 124v65l418 -156v-68zM25 0v63h474v-63h-474z" />
    <glyph glyph-name="lozenge" unicode="&#x25ca;" horiz-adv-x="471" 
d="M199 0l-140 289l140 289h73l141 -289l-141 -289h-73zM236 63h2l107 226l-108 226h-2l-109 -226z" />
    <glyph glyph-name="Imacron" horiz-adv-x="246" 
d="M86 0v659h74v-659h-74zM-2 717v59h248v-59h-248z" />
    <glyph glyph-name="F.small" horiz-adv-x="427" 
d="M86 0v530h300l-24 -61h-203v-178h199v-59h-199v-232h-73z" />
    <glyph glyph-name="D.small" horiz-adv-x="563" 
d="M86 0v530h142c193 0 288 -102 288 -263c0 -160 -102 -267 -287 -267h-143zM159 61h74c150 0 207 91 207 207c0 123 -64 201 -210 201h-71v-408z" />
    <glyph glyph-name="P.small" horiz-adv-x="444" 
d="M86 0v530h133c116 0 185 -64 185 -168s-68 -172 -194 -172h-51v-190h-73zM159 249h57c78 0 114 44 114 111c0 66 -35 110 -113 110h-58v-221z" />
    <glyph glyph-name="ibreve" horiz-adv-x="225" 
d="M186 666h53c-5 -74 -52 -122 -126 -122c-75 0 -119 48 -124 122h53c7 -40 28 -69 72 -69s66 29 72 69zM76 0v473h73v-473h-73z" />
    <glyph glyph-name="Aacute.small" horiz-adv-x="495" 
d="M214 566l58 147h83l-85 -147h-56zM12 0l210 534h51l210 -534h-77l-49 129h-221l-47 -129h-77zM159 188h176l-53 144c-11 28 -23 62 -34 94h-2c-11 -32 -23 -67 -34 -95z" />
    <glyph glyph-name="Agrave.small" horiz-adv-x="495" 
d="M222 566l-86 147h87l58 -147h-59zM12 0l210 534h51l210 -534h-77l-49 129h-221l-47 -129h-77zM159 188h176l-53 144c-11 28 -23 62 -34 94h-2c-11 -32 -23 -67 -34 -95z" />
    <glyph glyph-name="Z.small" horiz-adv-x="465" 
d="M40 0l277 469h-245l-22 61h379l-275 -469h278v-61h-392z" />
    <glyph glyph-name="Y.small" horiz-adv-x="447" 
d="M221 278h2c16 31 31 59 46 87l89 165h78l-178 -315v-215h-73v215l-173 315h78l86 -164c15 -29 29 -57 45 -88z" />
    <glyph glyph-name="X.small" horiz-adv-x="496" 
d="M25 530h83l144 -208l145 208h82l-184 -262l189 -268h-82l-152 220l-156 -220h-82l196 270z" />
    <glyph glyph-name="W.small" horiz-adv-x="725" 
d="M502 113h2c10 38 21 74 35 118l98 299h77l-183 -532h-53l-74 219c-11 33 -25 77 -34 107h-2c-9 -29 -24 -75 -37 -108l-81 -218h-52l-186 532h78l102 -300c12 -35 27 -84 36 -117h2c9 34 26 85 38 117l67 184l-38 116h73l98 -297c12 -37 25 -83 34 -120z" />
    <glyph glyph-name="V.small" horiz-adv-x="511" 
d="M254 101h2c17 43 32 84 48 125l120 304h76l-220 -532h-50l-218 532h76l118 -302c16 -41 32 -84 48 -127z" />
    <glyph glyph-name="U.small" horiz-adv-x="586" 
d="M504 530v-335c0 -144 -91 -206 -214 -206c-120 0 -208 61 -208 205v336h73v-333c0 -103 55 -146 138 -146c82 0 138 43 138 146v333h73z" />
    <glyph glyph-name="T.small" horiz-adv-x="430" 
d="M180 0v469h-164v61h415l-24 -61h-154v-469h-73z" />
    <glyph glyph-name="S.small" horiz-adv-x="414" 
d="M44 27l26 56c29 -17 70 -32 117 -32c54 0 109 27 109 86c0 132 -235 94 -235 263c0 78 59 140 162 140c50 0 97 -13 123 -25v-64c-37 18 -78 28 -118 28c-44 0 -92 -20 -92 -74c0 -121 236 -81 236 -261c0 -101 -83 -154 -182 -154c-58 0 -109 15 -146 37z" />
    <glyph glyph-name="R.small" horiz-adv-x="480" 
d="M305 236v-2c20 -14 40 -40 68 -84l93 -150h-82l-86 141c-22 37 -45 64 -62 71h-77v-212h-73v530h140c135 0 183 -75 183 -153c0 -62 -33 -118 -104 -141zM159 272h75c64 0 102 40 102 99c0 57 -35 99 -108 99h-69v-198z" />
    <glyph glyph-name="Q.small" horiz-adv-x="620" 
d="M246 -2c-117 27 -199 130 -199 267c0 162 113 275 263 275c149 0 263 -113 263 -275c0 -151 -101 -261 -236 -273v-2c28 -38 71 -57 130 -57c17 0 38 3 53 8l17 -58c-21 -7 -51 -11 -78 -11c-99 0 -164 47 -213 126zM310 52c107 0 187 83 187 213s-80 213 -187 213
s-187 -83 -187 -213s80 -213 187 -213z" />
    <glyph glyph-name="O.small" horiz-adv-x="620" 
d="M310 52c107 0 187 83 187 213s-80 213 -187 213s-187 -83 -187 -213s80 -213 187 -213zM310 540c149 0 263 -113 263 -275c0 -161 -114 -275 -263 -275c-150 0 -263 114 -263 275c0 162 113 275 263 275z" />
    <glyph glyph-name="N.small" horiz-adv-x="636" 
d="M476 112h2c-1 28 -2 79 -2 115v303h73v-530h-63l-240 305c-35 44 -63 81 -87 118h-1c1 -33 1 -80 1 -115v-308h-73v530h68l235 -300c36 -45 63 -82 87 -118z" />
    <glyph glyph-name="M.small" horiz-adv-x="696" 
d="M86 0v530h66l126 -193c28 -43 55 -85 69 -109h2c14 24 41 66 69 109l125 193h67v-530h-74v303c0 35 1 83 3 107h-2c-16 -26 -42 -67 -61 -97l-109 -169h-38l-109 169c-20 30 -45 71 -61 97h-2c2 -24 2 -72 2 -107v-303h-73z" />
    <glyph glyph-name="L.small" horiz-adv-x="376" 
d="M86 0v530h73v-469h209v-61h-282z" />
    <glyph glyph-name="K.small" horiz-adv-x="474" 
d="M86 0v530h73v-249h2l201 249h80l-216 -268l237 -262h-88l-214 236h-2v-236h-73z" />
    <glyph glyph-name="J.small" horiz-adv-x="265" 
d="M-27 -120l13 60c13 -4 26 -6 40 -6c66 0 79 42 79 103v493h73v-507c0 -98 -47 -152 -147 -152c-17 0 -41 2 -58 9z" />
    <glyph glyph-name="I.small" horiz-adv-x="245" 
d="M86 0v530h73v-530h-73z" />
    <glyph glyph-name="H.small" horiz-adv-x="600" 
d="M86 0v530h73v-230h281v230h74v-530h-74v238h-281v-238h-73z" />
    <glyph glyph-name="G.small" horiz-adv-x="559" 
d="M482 250v-227c-42 -19 -105 -33 -164 -33c-162 0 -271 109 -271 268c0 162 109 282 280 282c50 0 97 -10 139 -28v-65c-40 21 -85 31 -132 31c-145 0 -211 -106 -211 -213c0 -135 83 -213 194 -213c33 0 64 5 92 14v184h73z" />
    <glyph glyph-name="E.small" horiz-adv-x="441" 
d="M86 0v530h300l-24 -60h-203v-172h199v-59h-199v-179h218v-60h-291z" />
    <glyph glyph-name="C.small" horiz-adv-x="492" 
d="M441 88l22 -56c-42 -25 -97 -42 -157 -42c-157 0 -259 110 -259 267c0 168 115 283 269 283c48 0 96 -12 130 -29v-63c-34 18 -76 30 -122 30c-119 0 -201 -90 -201 -216c0 -131 78 -210 186 -210c56 0 100 16 132 36z" />
    <glyph glyph-name="B.small" horiz-adv-x="481" 
d="M329 278v-2c61 -14 105 -57 105 -126c0 -73 -49 -150 -190 -150h-158v530h157c107 0 160 -66 160 -137c0 -49 -22 -90 -74 -115zM159 58h82c88 0 117 37 117 93c0 57 -38 89 -106 89h-93v-182zM159 297h74c64 0 97 40 97 89c0 46 -32 86 -97 86h-74v-175z" />
    <glyph glyph-name="A.small" horiz-adv-x="495" 
d="M12 0l210 534h51l210 -534h-77l-49 129h-221l-47 -129h-77zM159 188h176l-53 144c-11 28 -23 62 -34 94h-2c-11 -32 -23 -67 -34 -95z" />
    <glyph glyph-name="dollar.OP" horiz-adv-x="516" 
d="M223 -62v76c-49 3 -93 16 -128 35l23 55c27 -15 73 -30 122 -30c54 0 108 18 108 72c0 114 -239 77 -239 232c0 63 45 111 126 122v72h58v-71c44 -2 80 -13 103 -21v-65c-40 19 -80 27 -120 27c-43 0 -94 -13 -94 -60c0 -104 239 -69 239 -230c0 -81 -59 -125 -139 -136
v-78h-59z" />
    <glyph glyph-name="Euro.OP" horiz-adv-x="516" 
d="M438 82l25 -55c-47 -28 -96 -37 -135 -37c-106 0 -185 60 -212 172h-61v52h53c-1 12 -2 26 -2 36c0 13 1 30 3 45h-54v52h63c32 113 117 172 214 172c47 0 92 -13 119 -28v-65c-36 20 -70 32 -115 32c-63 0 -116 -38 -141 -111h225l-20 -52h-217c-2 -14 -3 -32 -3 -42
s0 -24 2 -39h216l-20 -52h-185c23 -76 77 -111 139 -111c39 0 72 10 106 31z" />
    <glyph glyph-name="nine.OP" horiz-adv-x="534" 
d="M133 -137c89 33 223 117 254 260l-2 1c-32 -25 -85 -52 -146 -52c-98 0 -189 65 -189 202c0 133 89 220 213 220c115 0 214 -88 214 -261c0 -206 -126 -359 -320 -428zM253 134c55 0 110 30 144 60c2 10 3 30 3 43c0 130 -67 195 -138 195c-83 0 -136 -62 -136 -154
c0 -88 48 -144 127 -144z" />
    <glyph glyph-name="eight.OP" horiz-adv-x="541" 
d="M265 -10c-135 0 -216 70 -216 178c0 90 60 148 130 172v2c-58 25 -110 69 -110 150c0 100 79 172 203 172c127 0 196 -80 196 -167c0 -82 -52 -130 -108 -155v-2c65 -24 132 -67 132 -166c0 -106 -87 -184 -227 -184zM269 52c74 0 145 39 145 118c0 87 -81 115 -166 140
c-58 -18 -121 -60 -121 -133c0 -86 67 -125 142 -125zM289 369c49 18 101 56 101 123c0 62 -45 111 -120 111c-71 0 -123 -41 -123 -104c0 -80 69 -110 142 -130z" />
    <glyph glyph-name="seven.OP" horiz-adv-x="451" 
d="M82 -196c45 248 149 471 254 622h-300l-17 60h412v-31c-125 -173 -222 -390 -267 -624z" />
    <glyph glyph-name="six.OP" horiz-adv-x="534" 
d="M269 -10c-113 0 -212 82 -212 272c0 209 136 372 346 416l13 -62c-132 -27 -244 -115 -272 -260l1 -1c35 28 90 57 153 57c98 0 186 -65 186 -201c0 -135 -90 -221 -215 -221zM274 52c80 0 134 60 134 156c0 84 -47 141 -124 141c-56 0 -113 -32 -149 -65
c-1 -4 -2 -21 -2 -32c0 -136 68 -200 141 -200z" />
    <glyph glyph-name="five.OP" horiz-adv-x="466" 
d="M22 -177l17 61c28 -10 65 -17 103 -17c116 0 193 61 193 159c0 45 -16 80 -46 99c-33 22 -83 29 -144 29h-60l30 332h324l-16 -60h-241l-19 -214h21c61 0 111 -10 146 -30c56 -32 81 -88 81 -151c0 -100 -62 -226 -268 -226c-47 0 -96 9 -121 18z" />
    <glyph glyph-name="four.OP" horiz-adv-x="516" 
d="M32 0v48l303 438h56v-426h94v-60h-94v-172l-73 -23v195h-286zM109 59c27 0 57 1 84 1h125v159c0 56 2 111 5 150z" />
    <glyph glyph-name="three.OP" horiz-adv-x="500" 
d="M32 -178l17 60c32 -11 72 -15 110 -15c100 0 192 41 192 147c0 102 -103 113 -163 113h-85v59h20c34 0 67 3 95 10c72 18 118 61 118 129c0 73 -55 107 -112 107s-106 -21 -149 -44l-26 53c42 26 109 53 181 53c112 0 182 -70 182 -161c0 -87 -56 -140 -110 -160v-2
c85 -15 125 -80 125 -155c0 -84 -50 -211 -270 -211c-41 0 -96 6 -125 17z" />
    <glyph glyph-name="two.OP" horiz-adv-x="485" 
d="M55 0c26 250 273 236 273 361c0 43 -36 71 -95 71c-52 0 -102 -18 -144 -44l-25 54c44 29 109 52 180 52c102 0 160 -53 160 -133c0 -145 -221 -158 -254 -301h264v-60h-359z" />
    <glyph glyph-name="one.OP" horiz-adv-x="409" 
d="M212 0v411l-140 -69l-24 56l176 88h60v-486h-72z" />
    <glyph glyph-name="zero.OP" horiz-adv-x="516" 
d="M258 -10c-127 0 -207 105 -207 253s80 251 207 251s207 -103 207 -251s-80 -253 -207 -253zM258 52c91 0 131 80 131 191c0 110 -40 189 -131 189s-131 -79 -131 -189c0 -111 40 -191 131 -191z" />
    <glyph glyph-name="yen.LT" 
d="M225 0v123h-156v55h156v84h-156v55h131l-164 342h79l146 -323h1l145 323h79l-164 -342h131v-55h-155v-84h155v-55h-155v-123h-73z" />
    <glyph glyph-name="sterling.LT" 
d="M69 0v53c80 40 91 181 91 253h-79v62h79v87c0 177 121 209 191 209c47 0 81 -9 109 -19l-15 -60c-24 9 -50 16 -86 16c-63 0 -126 -34 -126 -153v-80h191l-22 -62h-169c0 -90 -14 -190 -69 -246v-2c31 2 60 4 98 4h196v-62h-389z" />
    <glyph glyph-name="dollar.LT" 
d="M220 -80v98c-68 4 -112 25 -145 46l30 56c30 -20 77 -41 133 -41c55 0 121 23 121 93c0 145 -270 139 -270 321c0 74 51 142 146 153v94h60v-93c47 -4 89 -17 113 -28v-65c-37 19 -86 33 -134 33c-62 0 -110 -29 -110 -90c0 -135 271 -132 271 -319
c0 -85 -56 -143 -155 -159v-99h-60z" />
    <glyph glyph-name="Euro.LT" 
d="M472 91l29 -58c-51 -33 -108 -43 -155 -43c-148 0 -226 94 -251 225h-71v55h63c-1 17 -1 38 -1 52c0 17 1 41 3 62h-65v55h75c32 130 119 225 250 225c57 0 103 -16 133 -33v-73c-43 25 -79 38 -126 38c-93 0 -153 -62 -178 -157h270l-20 -55h-261c-3 -20 -3 -43 -3 -59
c0 -14 0 -36 2 -55h254l-20 -55h-223c22 -91 77 -160 173 -160c46 0 79 11 122 36z" />
    <glyph glyph-name="nine.LT" 
d="M203 -10c-45 0 -92 8 -137 27l20 62c34 -16 73 -26 118 -26c119 0 191 90 200 252h-2c-39 -34 -91 -60 -158 -60c-93 0 -196 56 -196 203c0 126 85 216 207 216c135 0 225 -102 225 -311c0 -222 -95 -363 -277 -363zM259 308c59 0 115 35 144 73c-1 134 -59 221 -150 221
c-79 0 -128 -64 -128 -148c0 -89 47 -146 134 -146z" />
    <glyph glyph-name="eight.LT" 
d="M266 -10c-135 0 -216 70 -216 178c0 90 60 148 129 172v2c-57 25 -109 69 -109 150c0 100 79 172 203 172c127 0 196 -80 196 -167c0 -82 -52 -130 -108 -155v-2c65 -24 131 -67 131 -166c0 -106 -86 -184 -226 -184zM270 52c74 0 145 39 145 118c0 87 -81 115 -166 140
c-59 -18 -122 -60 -122 -133c0 -86 68 -125 143 -125zM290 369c49 18 101 56 101 123c0 62 -45 111 -120 111c-71 0 -123 -41 -123 -104c0 -80 69 -110 142 -130z" />
    <glyph glyph-name="seven.LT" 
d="M139 0c47 250 153 452 257 596h-299l-17 63h413v-31c-130 -173 -232 -383 -276 -628h-78z" />
    <glyph glyph-name="six.LT" 
d="M278 -10c-125 0 -230 98 -230 311c0 198 105 363 281 363c38 0 79 -6 120 -25l-21 -60c-32 15 -64 22 -97 22c-107 0 -190 -89 -205 -242c41 26 98 50 163 50c110 0 197 -71 197 -202c0 -135 -87 -217 -208 -217zM277 53c82 0 132 51 132 147c0 92 -55 146 -131 146
c-56 0 -114 -26 -152 -54c-1 -143 60 -239 151 -239z" />
    <glyph glyph-name="five.LT" 
d="M62 18l20 60c30 -13 70 -24 121 -24c96 0 171 47 171 143c0 64 -33 101 -82 119c-30 12 -67 14 -114 14h-72v329h345l-17 -63h-256v-204h26c47 0 86 -4 118 -15c80 -27 129 -87 129 -178c0 -116 -77 -209 -250 -209c-62 0 -111 14 -139 28z" />
    <glyph glyph-name="sterling.OP" horiz-adv-x="516" 
d="M89 0v49c58 29 67 124 68 184h-60v56h60v65c0 100 68 165 171 165c46 0 81 -10 104 -18l-13 -61c-22 9 -52 17 -86 17c-49 0 -103 -23 -103 -109v-59h171l-21 -56h-150c-2 -69 -15 -133 -45 -174v-2c20 1 46 1 68 1h177v-58h-341z" />
    <glyph glyph-name="yen.OP" horiz-adv-x="516" 
d="M222 0v91h-121v54h121v62h-121v55h92l-131 248h76l120 -234h1l119 234h76l-131 -248h92v-55h-121v-62h121v-54h-121v-91h-72z" />
    <glyph glyph-name="zero.OT" horiz-adv-x="516" 
d="M258 -10c-127 0 -208 105 -208 253s81 251 208 251s208 -103 208 -251s-81 -253 -208 -253zM258 52c91 0 132 80 132 191c0 110 -41 189 -132 189s-132 -79 -132 -189c0 -111 41 -191 132 -191z" />
    <glyph glyph-name="one.OT" horiz-adv-x="516" 
d="M287 0v411l-167 -78l-24 56l203 97h61v-486h-73z" />
    <glyph glyph-name="two.OT" horiz-adv-x="516" 
d="M74 0c26 250 273 236 273 361c0 43 -36 71 -95 71c-53 0 -102 -18 -144 -44l-25 54c44 29 108 52 180 52c102 0 160 -53 160 -133c0 -145 -221 -158 -254 -301h264v-60h-359z" />
    <glyph glyph-name="three.OT" horiz-adv-x="516" 
d="M47 -178l16 60c32 -11 72 -15 111 -15c100 0 192 41 192 147c0 102 -104 113 -164 113h-85v59h20c35 0 67 3 96 10c72 18 117 61 117 129c0 73 -54 107 -111 107c-58 0 -106 -21 -150 -44l-26 53c43 26 109 53 182 53c111 0 181 -70 181 -161c0 -87 -56 -140 -109 -160
v-2c85 -15 125 -80 125 -155c0 -84 -50 -211 -271 -211c-41 0 -95 6 -124 17z" />
    <glyph glyph-name="four.OT" horiz-adv-x="516" 
d="M32 0v48l303 438h56v-426h94v-60h-94v-172l-73 -23v195h-286zM109 59c27 0 57 1 84 1h125v159c0 56 2 111 5 150z" />
    <glyph glyph-name="five.OT" horiz-adv-x="516" 
d="M42 -177l17 61c28 -10 64 -17 103 -17c116 0 192 61 192 159c0 45 -16 80 -46 99c-33 22 -83 29 -144 29h-60l30 332h324l-15 -60h-241l-19 -214h21c60 0 111 -10 146 -30c56 -32 80 -88 80 -151c0 -100 -62 -226 -268 -226c-47 0 -95 9 -120 18z" />
    <glyph glyph-name="six.OT" horiz-adv-x="516" 
d="M262 -10c-113 0 -212 82 -212 272c0 209 136 372 346 416l13 -62c-132 -27 -243 -115 -272 -260l1 -1c35 28 90 57 153 57c98 0 187 -65 187 -201c0 -135 -91 -221 -216 -221zM268 52c79 0 134 60 134 156c0 84 -47 141 -125 141c-56 0 -113 -32 -149 -65
c0 -4 -1 -21 -1 -32c0 -136 67 -200 141 -200z" />
    <glyph glyph-name="seven.OT" horiz-adv-x="516" 
d="M125 -196c45 248 154 471 258 622h-303l-16 60h415v-31c-125 -173 -227 -390 -272 -624z" />
    <glyph glyph-name="eight.OT" horiz-adv-x="516" 
d="M256 -10c-136 0 -216 70 -216 178c0 90 59 148 129 172v2c-57 25 -109 69 -109 150c0 100 79 172 202 172c128 0 196 -80 196 -167c0 -82 -52 -130 -108 -155v-2c65 -24 132 -67 132 -166c0 -106 -86 -184 -226 -184zM259 52c75 0 146 39 146 118c0 87 -82 115 -166 140
c-59 -18 -122 -60 -122 -133c0 -86 67 -125 142 -125zM280 369c49 18 101 56 101 123c0 62 -45 111 -121 111c-70 0 -123 -41 -123 -104c0 -80 70 -110 143 -130z" />
    <glyph glyph-name="nine.OT" horiz-adv-x="516" 
d="M122 -137c89 33 223 117 254 260l-2 1c-32 -25 -85 -52 -146 -52c-98 0 -189 65 -189 202c0 133 89 220 213 220c116 0 214 -88 214 -261c0 -206 -126 -359 -320 -428zM242 134c55 0 110 30 144 60c2 10 3 30 3 43c0 130 -67 195 -138 195c-83 0 -136 -62 -136 -154
c0 -88 48 -144 127 -144z" />
    <glyph glyph-name="Euro.OT" horiz-adv-x="516" 
d="M438 82l25 -55c-47 -28 -96 -37 -135 -37c-106 0 -185 60 -212 172h-61v52h53c-1 12 -2 26 -2 36c0 13 1 30 3 45h-54v52h63c32 113 117 172 214 172c47 0 92 -13 119 -28v-65c-36 20 -70 32 -115 32c-63 0 -116 -38 -141 -111h225l-20 -52h-217c-2 -14 -3 -32 -3 -42
s0 -24 2 -39h216l-20 -52h-185c23 -76 77 -111 139 -111c39 0 72 10 106 31z" />
    <glyph glyph-name="dollar.OT" horiz-adv-x="516" 
d="M223 -62v76c-49 3 -93 16 -128 35l23 55c27 -15 73 -30 122 -30c54 0 108 18 108 72c0 114 -239 77 -239 232c0 63 45 111 126 122v72h58v-71c44 -2 80 -13 103 -21v-65c-40 19 -80 27 -120 27c-43 0 -94 -13 -94 -60c0 -104 239 -69 239 -230c0 -81 -59 -125 -139 -136
v-78h-59z" />
    <glyph glyph-name="sterling.OT" horiz-adv-x="516" 
d="M89 0v49c58 29 67 124 68 184h-60v56h60v65c0 100 68 165 171 165c46 0 81 -10 104 -18l-13 -61c-22 9 -52 17 -86 17c-49 0 -103 -23 -103 -109v-59h171l-21 -56h-150c-2 -69 -15 -133 -45 -174v-2c20 1 46 1 68 1h177v-58h-341z" />
    <glyph glyph-name="yen.OT" horiz-adv-x="516" 
d="M222 0v91h-121v54h121v62h-121v55h92l-131 248h76l120 -234h1l119 234h76l-131 -248h92v-55h-121v-62h121v-54h-121v-91h-72z" />
    <glyph glyph-name="zero.small" horiz-adv-x="468" 
d="M232 -10c-113 0 -189 100 -189 275s76 275 189 275c112 0 189 -100 189 -275s-77 -275 -189 -275zM232 52c71 0 113 80 113 213s-42 213 -113 213s-114 -80 -114 -213s43 -213 114 -213z" />
    <glyph glyph-name="one.small" horiz-adv-x="347" 
d="M175 0v456l-125 -62l-26 58l168 82h56v-534h-73z" />
    <glyph glyph-name="two.small" horiz-adv-x="427" 
d="M371 0h-340c24 286 265 269 265 400c0 52 -40 78 -92 78s-100 -19 -133 -38l-24 57c41 22 96 43 161 43c110 0 164 -61 164 -137c0 -162 -212 -150 -254 -343h253v-60z" />
    <glyph glyph-name="three.small" horiz-adv-x="437" 
d="M277 276v-2c63 -17 98 -64 98 -122c0 -87 -64 -162 -208 -162c-52 0 -104 12 -143 29l20 58c37 -16 78 -25 122 -25c88 0 133 41 133 99c0 71 -59 89 -129 89h-76v60h67c97 0 123 46 123 93c0 48 -28 85 -93 85c-50 0 -97 -18 -131 -36l-23 56c42 23 98 42 159 42
c111 0 164 -67 164 -141c0 -60 -31 -99 -83 -123z" />
    <glyph glyph-name="four.small" horiz-adv-x="463" 
d="M40 136v50l256 348h55v-338h79v-60h-79v-136h-73v136h-238zM281 421l-165 -226c22 1 45 1 68 1h95v126c0 45 0 71 2 99z" />
    <glyph glyph-name="five.small" horiz-adv-x="426" 
d="M33 15l21 58c28 -12 64 -21 104 -21c76 0 134 36 134 108c0 44 -20 74 -66 89c-22 6 -50 9 -86 9h-69v272h300l-18 -60h-210v-153h18c42 0 76 -4 103 -13c66 -22 104 -71 104 -143c0 -96 -67 -171 -210 -171c-43 0 -86 8 -125 25z" />
    <glyph glyph-name="six.small" horiz-adv-x="450" 
d="M238 -10c-129 0 -195 109 -195 253c0 162 87 297 234 297c34 0 69 -5 109 -22l-23 -57c-24 11 -55 18 -83 18c-83 0 -151 -70 -162 -182c31 19 80 36 127 36c94 0 168 -60 168 -168c0 -107 -74 -175 -175 -175zM238 51c62 0 100 39 100 111c0 68 -43 110 -101 110
c-44 0 -89 -18 -119 -38c-1 -82 30 -183 120 -183z" />
    <glyph glyph-name="seven.small" horiz-adv-x="396" 
d="M142 0h-74c36 193 124 354 207 469h-241l-17 61h354v-32c-107 -136 -192 -303 -229 -498z" />
    <glyph glyph-name="eight.small" horiz-adv-x="462" 
d="M313 276v-2c48 -17 104 -54 104 -132c0 -86 -74 -152 -190 -152c-111 0 -182 60 -182 147c0 71 48 116 103 138v2c-47 22 -86 58 -86 121c0 80 66 142 171 142c109 0 164 -69 164 -140c0 -62 -40 -101 -84 -124zM230 50c57 0 114 31 114 89c0 61 -59 90 -128 108
c-45 -15 -97 -48 -97 -105c0 -61 49 -92 111 -92zM136 399c0 -57 49 -82 106 -98c39 13 81 45 81 95c0 46 -35 84 -93 84c-50 0 -94 -29 -94 -81z" />
    <glyph glyph-name="nine.small" horiz-adv-x="445" 
d="M49 15l21 58c31 -13 66 -22 99 -22c91 0 152 71 159 192c-31 -26 -72 -46 -126 -46c-78 0 -164 48 -164 165c0 104 71 178 173 178c115 0 191 -88 191 -256c0 -170 -78 -294 -233 -294c-39 0 -82 8 -120 25zM215 258c43 0 86 21 112 54c0 104 -48 167 -116 167
c-62 0 -99 -49 -99 -111c0 -67 36 -110 103 -110z" />
    <glyph glyph-name="zero.LT" 
d="M259 -10c-130 0 -220 120 -220 338c0 220 90 336 222 336c131 0 223 -120 223 -339c0 -217 -93 -335 -225 -335zM263 54c102 0 143 118 143 267c0 177 -54 280 -147 280c-101 0 -143 -119 -143 -267c0 -178 55 -280 147 -280z" />
    <glyph glyph-name="one.LT" 
d="M287 0v584l-184 -89l-26 59l223 110h60v-664h-73z" />
    <glyph glyph-name="two.LT" 
d="M54 0c29 348 324 335 324 498c0 73 -54 102 -118 102s-122 -23 -160 -44l-23 58c42 25 113 50 189 50c129 0 190 -71 190 -162c0 -201 -273 -193 -310 -439h309v-63h-401z" />
    <glyph glyph-name="three.LT" 
d="M49 22l21 61c41 -18 88 -29 141 -29c94 0 172 40 172 132c0 57 -31 95 -94 109c-22 5 -50 7 -85 7h-72v63h61c131 0 173 57 173 124c0 65 -39 111 -121 111c-63 0 -118 -23 -157 -44l-23 58c47 26 112 50 185 50c130 0 192 -78 192 -170c0 -76 -37 -125 -106 -152v-2
c76 -16 125 -69 125 -153c0 -108 -79 -197 -251 -197c-61 0 -119 13 -161 32z" />
    <glyph glyph-name="four.LT" 
d="M47 175v55l305 434h53v-427h90v-62h-90v-175h-73v175h-285zM125 236c23 0 55 1 80 1h127v158c0 59 3 114 5 149z" />
    <glyph glyph-name="Euro.small" horiz-adv-x="440" 
d="M397 80l25 -54c-46 -27 -93 -36 -134 -36c-106 0 -183 64 -209 179h-60v53h52c-3 26 -3 55 1 83h-53v53h62c29 121 116 182 209 182c50 0 89 -12 115 -26v-64c-37 19 -69 28 -109 28c-59 0 -115 -38 -138 -120h216l-20 -53h-207c-3 -27 -3 -55 0 -83h204l-21 -53h-173
c19 -73 62 -117 134 -117c41 0 70 8 106 28z" />
    <glyph glyph-name="dollar.small" horiz-adv-x="441" 
d="M178 -65v80c-52 4 -92 21 -119 38l28 54c27 -16 68 -33 113 -33c51 0 93 20 93 70c0 111 -222 102 -222 249c0 59 40 115 119 126v75h62v-74c37 -3 73 -13 92 -23v-63c-34 16 -78 27 -116 27c-46 0 -84 -21 -84 -65c0 -98 223 -102 223 -248c0 -73 -46 -119 -128 -132
v-81h-61z" />
    <glyph glyph-name="sterling.small" horiz-adv-x="442" 
d="M53 0v52c63 30 75 123 75 189h-65v60h65v68c0 115 71 171 163 171c37 0 72 -9 98 -18l-16 -58c-24 9 -47 15 -75 15c-64 0 -98 -42 -98 -113v-65h158l-22 -60h-136c-1 -71 -13 -136 -53 -180v-2c22 0 53 1 84 1h156v-60h-334z" />
    <glyph glyph-name="yen.small" horiz-adv-x="438" 
d="M216 283h2l112 247h77l-131 -269h105v-53h-128v-62h128v-53h-128v-93h-72v93h-128v53h128v62h-128v53h105l-131 269h76z" />
    <glyph glyph-name="Acircumflex.small" horiz-adv-x="495" 
d="M12 0l210 534h51l210 -534h-77l-49 129h-221l-47 -129h-77zM159 188h176l-53 144c-11 28 -23 62 -34 94h-2c-11 -32 -23 -67 -34 -95zM115 558l98 147h69l99 -147h-64l-69 100l-70 -100h-63z" />
    <glyph glyph-name="AE.small" horiz-adv-x="715" 
d="M12 0l282 530h366l-24 -60h-274l39 -172h231v-59h-218l42 -179h195v-60h-250l-29 129h-218l-67 -129h-75zM185 188h173l-32 145c-6 28 -14 66 -18 93h-2c-15 -32 -31 -66 -46 -94z" />
    <glyph glyph-name="Atilde.small" horiz-adv-x="495" 
d="M109 589v22c0 48 31 77 71 77c54 0 94 -48 128 -48c21 0 26 18 26 42h53v-22c0 -48 -31 -77 -71 -77c-53 0 -94 48 -128 48c-21 0 -26 -18 -26 -42h-53zM12 0l210 534h51l210 -534h-77l-49 129h-221l-47 -129h-77zM159 188h176l-53 144c-11 28 -23 62 -34 94h-2
c-11 -32 -23 -67 -34 -95z" />
    <glyph glyph-name="AEacute.small" horiz-adv-x="715" 
d="M368 566l58 147h83l-85 -147h-56zM12 0l282 530h366l-24 -60h-274l39 -172h231v-59h-218l42 -179h195v-60h-250l-29 129h-218l-67 -129h-75zM185 188h173l-32 145c-6 28 -14 66 -18 93h-2c-15 -32 -31 -66 -46 -94z" />
    <glyph glyph-name="Cacute.small" horiz-adv-x="492" 
d="M260 566l58 147h83l-85 -147h-56zM441 88l22 -56c-42 -25 -97 -42 -157 -42c-157 0 -259 110 -259 267c0 168 115 283 269 283c48 0 96 -12 130 -29v-63c-34 18 -76 30 -122 30c-119 0 -201 -90 -201 -216c0 -131 78 -210 186 -210c56 0 100 16 132 36z" />
    <glyph glyph-name="Ccircumflex.small" horiz-adv-x="492" 
d="M441 88l22 -56c-42 -25 -97 -42 -157 -42c-157 0 -259 110 -259 267c0 168 115 283 269 283c48 0 96 -12 130 -29v-63c-34 18 -76 30 -122 30c-119 0 -201 -90 -201 -216c0 -131 78 -210 186 -210c56 0 100 16 132 36zM157 566l98 147h69l99 -147h-64l-69 100l-70 -100
h-63z" />
    <glyph glyph-name="Ccaron.small" horiz-adv-x="492" 
d="M253 567l-98 147h64l70 -100l69 100h63l-99 -147h-69zM441 88l22 -56c-42 -25 -97 -42 -157 -42c-157 0 -259 110 -259 267c0 168 115 283 269 283c48 0 96 -12 130 -29v-63c-34 18 -76 30 -122 30c-119 0 -201 -90 -201 -216c0 -131 78 -210 186 -210
c56 0 100 16 132 36z" />
    <glyph glyph-name="Cdotaccent.small" horiz-adv-x="492" 
d="M441 88l22 -56c-42 -25 -97 -42 -157 -42c-157 0 -259 110 -259 267c0 168 115 283 269 283c48 0 96 -12 130 -29v-63c-34 18 -76 30 -122 30c-119 0 -201 -90 -201 -216c0 -131 78 -210 186 -210c56 0 100 16 132 36zM290 607c-28 0 -48 21 -48 49s20 50 48 50
c30 0 50 -21 50 -50c0 -28 -21 -49 -50 -49z" />
    <glyph glyph-name="Ccedilla.small" horiz-adv-x="492" 
d="M194 -200l14 43c15 -7 32 -10 50 -10c29 0 53 12 53 39c0 36 -42 38 -86 38l26 85c-126 22 -204 123 -204 262c0 168 115 283 269 283c48 0 96 -12 130 -29v-63c-34 18 -76 30 -122 30c-119 0 -201 -90 -201 -216c0 -131 78 -210 186 -210c56 0 100 16 132 36l22 -56
c-41 -25 -94 -42 -153 -42l-15 -44c42 -3 82 -21 82 -72c0 -54 -47 -86 -116 -86c-31 0 -52 6 -67 12z" />
    <glyph glyph-name="Dcaron.small" horiz-adv-x="563" 
d="M231 567l-98 147h64l70 -100l69 100h63l-99 -147h-69zM86 0v530h142c193 0 288 -102 288 -263c0 -160 -102 -267 -287 -267h-143zM159 61h74c150 0 207 91 207 207c0 123 -64 201 -210 201h-71v-408z" />
    <glyph glyph-name="Dcroat.small" horiz-adv-x="563" 
d="M86 0v238h-70v60h70v232h142c193 0 288 -102 288 -263c0 -160 -102 -267 -287 -267h-143zM159 61h74c150 0 207 91 207 207c0 123 -64 201 -210 201h-71v-171h137v-60h-137v-177z" />
    <glyph glyph-name="Egrave.small" horiz-adv-x="441" 
d="M210 566l-86 147h87l58 -147h-59zM86 0v530h300l-24 -60h-203v-172h199v-59h-199v-179h218v-60h-291z" />
    <glyph glyph-name="Eacute.small" horiz-adv-x="441" 
d="M192 566l58 147h83l-85 -147h-56zM86 0v530h300l-24 -60h-203v-172h199v-59h-199v-179h218v-60h-291z" />
    <glyph glyph-name="Ecircumflex.small" horiz-adv-x="441" 
d="M86 0v530h300l-24 -60h-203v-172h199v-59h-199v-179h218v-60h-291zM99 566l98 147h69l99 -147h-64l-69 100l-70 -100h-63z" />
    <glyph glyph-name="Adieresis.small" horiz-adv-x="495" 
d="M12 0l210 534h51l210 -534h-77l-49 129h-221l-47 -129h-77zM159 188h176l-53 144c-11 28 -23 62 -34 94h-2c-11 -32 -23 -67 -34 -95zM157 588c-24 0 -43 19 -43 43c0 25 19 44 43 44s44 -19 44 -44c0 -24 -20 -43 -44 -43zM335 588c-24 0 -44 19 -44 43
c0 25 20 44 44 44s43 -19 43 -44c0 -24 -19 -43 -43 -43z" />
    <glyph glyph-name="Ecaron.small" horiz-adv-x="441" 
d="M193 567l-98 147h64l70 -100l69 100h63l-99 -147h-69zM86 0v530h300l-24 -60h-203v-172h199v-59h-199v-179h218v-60h-291z" />
    <glyph glyph-name="Amacron.small" horiz-adv-x="495" 
d="M123 609v59h248v-59h-248zM12 0l210 534h51l210 -534h-77l-49 129h-221l-47 -129h-77zM159 188h176l-53 144c-11 28 -23 62 -34 94h-2c-11 -32 -23 -67 -34 -95z" />
    <glyph glyph-name="Abreve.small" horiz-adv-x="495" 
d="M319 701h53c-5 -74 -52 -122 -126 -122c-75 0 -119 48 -124 122h53c7 -40 28 -69 72 -69s66 29 72 69zM12 0l210 534h51l210 -534h-77l-49 129h-221l-47 -129h-77zM159 188h176l-53 144c-11 28 -23 62 -34 94h-2c-11 -32 -23 -67 -34 -95z" />
    <glyph glyph-name="Edieresis.small" horiz-adv-x="441" 
d="M86 0v530h300l-24 -60h-203v-172h199v-59h-199v-179h218v-60h-291zM142 588c-24 0 -43 19 -43 43c0 25 19 44 43 44s44 -19 44 -44c0 -24 -20 -43 -44 -43zM320 588c-24 0 -44 19 -44 43c0 25 20 44 44 44s43 -19 43 -44c0 -24 -19 -43 -43 -43z" />
    <glyph glyph-name="Emacron.small" horiz-adv-x="441" 
d="M108 609v59h248v-59h-248zM86 0v530h300l-24 -60h-203v-172h199v-59h-199v-179h218v-60h-291z" />
    <glyph glyph-name="Ebreve.small" horiz-adv-x="441" 
d="M304 701h53c-5 -74 -52 -122 -126 -122c-75 0 -119 48 -124 122h53c7 -40 28 -69 72 -69s66 29 72 69zM86 0v530h300l-24 -60h-203v-172h199v-59h-199v-179h218v-60h-291z" />
    <glyph glyph-name="Edotaccent.small" horiz-adv-x="441" 
d="M86 0v530h300l-24 -60h-203v-172h199v-59h-199v-179h218v-60h-291zM230 607c-28 0 -48 21 -48 49s20 50 48 50c30 0 50 -21 50 -50c0 -28 -21 -49 -50 -49z" />
    <glyph glyph-name="Eogonek.small" horiz-adv-x="441" 
d="M377 0h-19c-59 -29 -107 -73 -107 -121c0 -24 12 -41 38 -41c11 0 24 3 38 7l11 -47c-23 -7 -44 -11 -62 -11c-59 0 -90 37 -90 80c0 64 49 107 89 133h-189v530h300l-24 -60h-203v-172h199v-59h-199v-179h218v-60z" />
    <glyph glyph-name="Gcircumflex.small" horiz-adv-x="559" 
d="M482 250v-227c-42 -19 -105 -33 -164 -33c-162 0 -271 109 -271 268c0 162 109 282 280 282c50 0 97 -10 139 -28v-65c-40 21 -85 31 -132 31c-145 0 -211 -106 -211 -213c0 -135 83 -213 194 -213c33 0 64 5 92 14v184h73zM162 566l98 147h69l99 -147h-64l-69 100
l-70 -100h-63z" />
    <glyph glyph-name="Gbreve.small" horiz-adv-x="559" 
d="M366 701h53c-5 -74 -52 -122 -126 -122c-75 0 -119 48 -124 122h53c7 -40 28 -69 72 -69s66 29 72 69zM482 250v-227c-42 -19 -105 -33 -164 -33c-162 0 -271 109 -271 268c0 162 109 282 280 282c50 0 97 -10 139 -28v-65c-40 21 -85 31 -132 31
c-145 0 -211 -106 -211 -213c0 -135 83 -213 194 -213c33 0 64 5 92 14v184h73z" />
    <glyph glyph-name="Gdotaccent.small" horiz-adv-x="559" 
d="M482 250v-227c-42 -19 -105 -33 -164 -33c-162 0 -271 109 -271 268c0 162 109 282 280 282c50 0 97 -10 139 -28v-65c-40 21 -85 31 -132 31c-145 0 -211 -106 -211 -213c0 -135 83 -213 194 -213c33 0 64 5 92 14v184h73zM300 607c-28 0 -48 21 -48 49s20 50 48 50
c30 0 50 -21 50 -50c0 -28 -21 -49 -50 -49z" />
    <glyph glyph-name="Gcommaaccent.small" horiz-adv-x="559" 
d="M482 250v-227c-42 -19 -105 -33 -164 -33c-162 0 -271 109 -271 268c0 162 109 282 280 282c50 0 97 -10 139 -28v-65c-40 21 -85 31 -132 31c-145 0 -211 -106 -211 -213c0 -135 83 -213 194 -213c33 0 64 5 92 14v184h73zM242 -237l-20 48c57 16 71 41 71 71
c0 20 -9 43 -24 66h67c15 -19 24 -49 24 -73c0 -51 -33 -93 -118 -112z" />
    <glyph glyph-name="Hcircumflex.small" horiz-adv-x="600" 
d="M86 0v530h73v-230h281v230h74v-530h-74v238h-281v-238h-73zM168 566l98 147h69l99 -147h-64l-69 100l-70 -100h-63z" />
    <glyph glyph-name="Hbar.small" horiz-adv-x="600" 
d="M86 0v386h-53v55h53v89h73v-89h281v89h74v-89h53v-55h-53v-386h-74v238h-281v-238h-73zM159 300h281v86h-281v-86z" />
    <glyph glyph-name="Igrave.small" horiz-adv-x="245" 
d="M105 566l-86 147h87l58 -147h-59zM86 0v530h73v-530h-73z" />
    <glyph glyph-name="Aring.small" horiz-adv-x="495" 
d="M89 0h-77l209 532c-45 8 -77 43 -77 93c0 58 43 95 103 95s103 -37 103 -95c0 -50 -31 -84 -76 -93l209 -532h-77l-49 129h-221zM248 426h-2c-11 -32 -23 -67 -34 -95l-53 -143h176l-53 144c-11 28 -23 62 -34 94zM247 570c30 0 50 22 50 55s-20 54 -50 54
c-29 0 -49 -21 -49 -54s20 -55 49 -55z" />
    <glyph glyph-name="Iacute.small" horiz-adv-x="245" 
d="M82 566l58 147h83l-85 -147h-56zM86 0v530h73v-530h-73z" />
    <glyph glyph-name="Icircumflex.small" horiz-adv-x="245" 
d="M86 0v530h73v-530h-73zM-11 566l98 147h69l99 -147h-64l-69 100l-70 -100h-63z" />
    <glyph glyph-name="Aringacute.small" horiz-adv-x="495" 
d="M12 0l209 532c-45 8 -77 43 -77 93c0 54 38 90 92 94l48 125h86l-79 -133c36 -13 59 -44 59 -86c0 -50 -31 -84 -76 -93l209 -532h-77l-49 129h-221l-47 -129h-77zM159 188h176l-53 144c-11 28 -23 62 -34 94h-2c-11 -32 -23 -67 -34 -95zM198 625c0 -33 20 -55 49 -55
c30 0 50 22 50 55s-20 54 -50 54c-29 0 -49 -21 -49 -54z" />
    <glyph glyph-name="Itilde.small" horiz-adv-x="245" 
d="M-16 589v22c0 48 31 77 71 77c54 0 94 -48 128 -48c21 0 26 18 26 42h53v-22c0 -48 -31 -77 -71 -77c-53 0 -94 48 -128 48c-21 0 -26 -18 -26 -42h-53zM86 0v530h73v-530h-73z" />
    <glyph glyph-name="Idieresis.small" horiz-adv-x="245" 
d="M86 0v530h73v-530h-73zM33 588c-24 0 -43 19 -43 43c0 25 19 44 43 44s44 -19 44 -44c0 -24 -20 -43 -44 -43zM211 588c-24 0 -44 19 -44 43c0 25 20 44 44 44s43 -19 43 -44c0 -24 -19 -43 -43 -43z" />
    <glyph glyph-name="Imacron.small" horiz-adv-x="245" 
d="M-1 609v59h248v-59h-248zM86 0v530h73v-530h-73z" />
    <glyph glyph-name="Ibreve.small" horiz-adv-x="245" 
d="M194 701h53c-5 -74 -52 -122 -126 -122c-75 0 -119 48 -124 122h53c7 -40 28 -69 72 -69s66 29 72 69zM86 0v530h73v-530h-73z" />
    <glyph glyph-name="Iogonek.small" horiz-adv-x="245" 
d="M86 6v524h73v-530c-46 -30 -76 -75 -76 -115c0 -30 13 -47 40 -47c11 0 23 3 37 7l10 -47c-22 -7 -43 -11 -61 -11c-60 0 -91 36 -91 87c0 55 31 97 68 132z" />
    <glyph glyph-name="IJ.small" horiz-adv-x="510" 
d="M86 0v530h73v-530h-73zM218 -120l13 60c13 -4 26 -6 40 -6c66 0 79 42 79 103v493h73v-507c0 -98 -47 -152 -147 -152c-17 0 -41 2 -58 9z" />
    <glyph glyph-name="Jcircumflex.small" horiz-adv-x="265" 
d="M-27 -120l13 60c13 -4 26 -6 40 -6c66 0 79 42 79 103v493h73v-507c0 -98 -47 -152 -147 -152c-17 0 -41 2 -58 9zM8 566l98 147h69l99 -147h-64l-69 100l-70 -100h-63z" />
    <glyph glyph-name="Kcommaaccent.small" horiz-adv-x="474" 
d="M86 0v530h73v-249h2l201 249h80l-216 -268l237 -262h-88l-214 236h-2v-236h-73zM195 -237l-20 48c57 16 71 41 71 71c0 20 -9 43 -24 66h67c15 -19 24 -49 24 -73c0 -51 -33 -93 -118 -112z" />
    <glyph glyph-name="Lacute.small" horiz-adv-x="376" 
d="M87 566l58 147h83l-85 -147h-56zM86 0v530h73v-469h209v-61h-282z" />
    <glyph glyph-name="Lcaron.small" horiz-adv-x="376" 
d="M86 0v530h73v-469h209v-61h-282zM234 376l36 195h75l-55 -195h-56z" />
    <glyph glyph-name="Lcommaaccent.small" horiz-adv-x="376" 
d="M86 0v530h73v-469h209v-61h-282zM165 -237l-20 48c57 16 71 41 71 71c0 20 -9 43 -24 66h67c15 -19 24 -49 24 -73c0 -51 -33 -93 -118 -112z" />
    <glyph glyph-name="Lslash.small" horiz-adv-x="376" 
d="M159 316l118 69v-67l-118 -70v-187h209v-61h-282v208l-50 -31v67l50 30v256h73v-214z" />
    <glyph glyph-name="Aogonek.small" horiz-adv-x="495" 
d="M12 0l210 534h51l210 -534c-66 -27 -116 -74 -116 -121c0 -24 13 -41 39 -41c10 0 23 3 38 7l10 -47c-22 -7 -43 -11 -61 -11c-60 0 -91 37 -91 80c0 71 62 115 100 141l-45 121h-221l-47 -129h-77zM159 188h176l-53 144c-11 28 -23 62 -34 94h-2
c-11 -32 -23 -67 -34 -95z" />
    <glyph glyph-name="Ldot.small" horiz-adv-x="376" 
d="M310 232c-27 0 -48 23 -48 50s21 49 48 49c26 0 47 -22 47 -49s-21 -50 -47 -50zM86 0v530h73v-469h209v-61h-282z" />
    <glyph glyph-name="Nacute.small" horiz-adv-x="636" 
d="M282 566l58 147h83l-85 -147h-56zM476 112h2c-1 28 -2 79 -2 115v303h73v-530h-63l-240 305c-35 44 -63 81 -87 118h-1c1 -33 1 -80 1 -115v-308h-73v530h68l235 -300c36 -45 63 -82 87 -118z" />
    <glyph glyph-name="Ncaron.small" horiz-adv-x="636" 
d="M280 567l-98 147h64l70 -100l69 100h63l-99 -147h-69zM476 112h2c-1 28 -2 79 -2 115v303h73v-530h-63l-240 305c-35 44 -63 81 -87 118h-1c1 -33 1 -80 1 -115v-308h-73v530h68l235 -300c36 -45 63 -82 87 -118z" />
    <glyph glyph-name="Ntilde.small" horiz-adv-x="636" 
d="M179 589v22c0 48 31 77 71 77c54 0 94 -48 128 -48c21 0 26 18 26 42h53v-22c0 -48 -31 -77 -71 -77c-53 0 -94 48 -128 48c-21 0 -26 -18 -26 -42h-53zM476 112h2c-1 28 -2 79 -2 115v303h73v-530h-63l-240 305c-35 44 -63 81 -87 118h-1c1 -33 1 -80 1 -115v-308h-73
v530h68l235 -300c36 -45 63 -82 87 -118z" />
    <glyph glyph-name="Ncommaaccent.small" horiz-adv-x="636" 
d="M476 112h2c-1 28 -2 79 -2 115v303h73v-530h-63l-240 305c-35 44 -63 81 -87 118h-1c1 -33 1 -80 1 -115v-308h-73v530h68l235 -300c36 -45 63 -82 87 -118zM256 -237l-20 48c57 16 71 41 71 71c0 20 -9 43 -24 66h67c15 -19 24 -49 24 -73c0 -51 -33 -93 -118 -112z" />
    <glyph glyph-name="Ograve.small" horiz-adv-x="620" 
d="M282 566l-86 147h87l58 -147h-59zM310 52c107 0 187 83 187 213s-80 213 -187 213s-187 -83 -187 -213s80 -213 187 -213zM310 540c149 0 263 -113 263 -275c0 -161 -114 -275 -263 -275c-150 0 -263 114 -263 275c0 162 113 275 263 275z" />
    <glyph glyph-name="Oacute.small" horiz-adv-x="620" 
d="M281 566l58 147h83l-85 -147h-56zM310 52c107 0 187 83 187 213s-80 213 -187 213s-187 -83 -187 -213s80 -213 187 -213zM310 540c149 0 263 -113 263 -275c0 -161 -114 -275 -263 -275c-150 0 -263 114 -263 275c0 162 113 275 263 275z" />
    <glyph glyph-name="Ocircumflex.small" horiz-adv-x="620" 
d="M310 52c107 0 187 83 187 213s-80 213 -187 213s-187 -83 -187 -213s80 -213 187 -213zM310 540c149 0 263 -113 263 -275c0 -161 -114 -275 -263 -275c-150 0 -263 114 -263 275c0 162 113 275 263 275zM176 566l98 147h69l99 -147h-64l-69 100l-70 -100h-63z" />
    <glyph glyph-name="Otilde.small" horiz-adv-x="620" 
d="M169 589v22c0 48 31 77 71 77c54 0 94 -48 128 -48c21 0 26 18 26 42h53v-22c0 -48 -31 -77 -71 -77c-53 0 -94 48 -128 48c-21 0 -26 -18 -26 -42h-53zM310 52c107 0 187 83 187 213s-80 213 -187 213s-187 -83 -187 -213s80 -213 187 -213zM310 540
c149 0 263 -113 263 -275c0 -161 -114 -275 -263 -275c-150 0 -263 114 -263 275c0 162 113 275 263 275z" />
    <glyph glyph-name="Odieresis.small" horiz-adv-x="620" 
d="M310 52c107 0 187 83 187 213s-80 213 -187 213s-187 -83 -187 -213s80 -213 187 -213zM310 540c149 0 263 -113 263 -275c0 -161 -114 -275 -263 -275c-150 0 -263 114 -263 275c0 162 113 275 263 275zM219 588c-24 0 -43 19 -43 43c0 25 19 44 43 44s44 -19 44 -44
c0 -24 -20 -43 -44 -43zM397 588c-24 0 -44 19 -44 43c0 25 20 44 44 44s43 -19 43 -44c0 -24 -19 -43 -43 -43z" />
    <glyph glyph-name="Omacron.small" horiz-adv-x="620" 
d="M186 609v59h248v-59h-248zM310 52c107 0 187 83 187 213s-80 213 -187 213s-187 -83 -187 -213s80 -213 187 -213zM310 540c149 0 263 -113 263 -275c0 -161 -114 -275 -263 -275c-150 0 -263 114 -263 275c0 162 113 275 263 275z" />
    <glyph glyph-name="Obreve.small" horiz-adv-x="620" 
d="M379 701h53c-5 -74 -52 -122 -126 -122c-75 0 -119 48 -124 122h53c7 -40 28 -69 72 -69s66 29 72 69zM310 52c107 0 187 83 187 213s-80 213 -187 213s-187 -83 -187 -213s80 -213 187 -213zM310 540c149 0 263 -113 263 -275c0 -161 -114 -275 -263 -275
c-150 0 -263 114 -263 275c0 162 113 275 263 275z" />
    <glyph glyph-name="Ohungarumlaut.small" horiz-adv-x="620" 
d="M310 52c107 0 187 83 187 213s-80 213 -187 213s-187 -83 -187 -213s80 -213 187 -213zM310 540c149 0 263 -113 263 -275c0 -161 -114 -275 -263 -275c-150 0 -263 114 -263 275c0 162 113 275 263 275zM198 566l58 147h86l-86 -147h-58zM358 566l58 147h86l-85 -147
h-59z" />
    <glyph glyph-name="Oslash.small" horiz-adv-x="620" 
d="M62 9l53 65c-43 48 -68 114 -68 191c0 162 113 275 263 275c58 0 111 -18 153 -50l54 64l41 -33l-54 -65c43 -48 69 -114 69 -191c0 -161 -114 -275 -263 -275c-59 0 -112 18 -155 50l-52 -64zM123 265c0 -54 14 -100 39 -135l259 309c-31 24 -69 39 -111 39
c-106 0 -187 -84 -187 -213zM310 52c105 0 187 84 187 213c0 53 -15 99 -40 134l-259 -309c31 -24 70 -38 112 -38z" />
    </font>
</defs>
</svg>
