<svg xmlns="http://www.w3.org/2000/svg" width="14" height="14" viewBox="0 0 14 14">
  <path fill="#806EA0" fill-rule="evenodd" d="M12.4444444,1.55555556 L11.7444444,1.55555556 L11.7444444,3.11111111 L9.25555556,3.11111111 L9.25555556,1.55555556 L4.74444444,1.55555556 L4.74444444,3.11111111 L2.25555556,3.11111111 L2.25555556,1.55555556 L1.55555556,1.55555556 C0.7,1.55555556 0,2.25555556 0,3.11111111 L0,12.4444444 C0,13.3 0.7,14 1.55555556,14 L12.4444444,14 C13.3,14 14,13.3 14,12.4444444 L14,3.11111111 C14,2.25555556 13.3,1.55555556 12.4444444,1.55555556 L12.4444444,1.55555556 Z M12.4444444,12.4444444 L1.55555556,12.4444444 L1.55555556,6.22222222 L12.4444444,6.22222222 L12.4444444,12.4444444 L12.4444444,12.4444444 Z M4.04444444,0 L2.95555556,0 L2.95555556,2.64444444 L4.04444444,2.64444444 L4.04444444,0 L4.04444444,0 Z M11.0444444,0 L9.95555556,0 L9.95555556,2.64444444 L11.0444444,2.64444444 L11.0444444,0 L11.0444444,0 Z"/>
</svg>
