<svg xmlns="http://www.w3.org/2000/svg" width="48" height="48" viewBox="0 0 48 48">
  <g fill="none" fill-rule="evenodd">
    <circle cx="24" cy="24" r="24" fill="#FFF"/>
    <path fill="#806EA0" d="M24,22 L30.126743,19 L39.126743,22 L41.9934955,37.2893467 C42.0076833,37.3650148 41.9985372,37.4432081 41.96727,37.5135595 C41.8820912,37.7052117 41.6576753,37.7915255 41.4660231,37.7063467 L33.2799007,34.0680701 C33.1823356,34.0247078 33.0710236,34.0244203 32.9732358,34.067278 L24,38 L15.1542298,34.0685466 C15.0560404,34.0249069 14.9439596,34.0249069 14.8457702,34.0685466 L6.6607199,37.7063467 C6.46906768,37.7915255 6.24465182,37.7052117 6.15947306,37.5135595 C6.12820578,37.4432081 6.11905972,37.3650148 6.1332475,37.2893467 L9,22 L18,19 L24,22 Z"/>
    <path fill="#FFF" fill-rule="nonzero" d="M8.13162129,22.6228448 L9.04851023,31.7917342 C9.06147517,31.9213836 9.14000412,32.0353337 9.2565445,32.0936038 L14.390025,34.6603441 C14.5776118,34.7541375 14.8057155,34.6781029 14.8995089,34.4905162 C14.9362546,34.4170247 14.9481727,34.3335976 14.9334745,34.252757 L13.1069094,24.2066491 C13.0835299,24.078062 12.9956698,23.9705332 12.8743223,23.9219942 L8.65051794,22.2324725 C8.45579003,22.1545813 8.23478859,22.2492962 8.15689743,22.4440241 C8.13421463,22.5007311 8.12554407,22.5620726 8.13162129,22.6228448 Z" transform="matrix(-1 0 0 1 23.07 0)"/>
    <path fill="#FFF" fill-rule="nonzero" d="M33.1316213,22.6228448 L34.0485102,31.7917342 C34.0614752,31.9213836 34.1400041,32.0353337 34.2565445,32.0936038 L39.390025,34.6603441 C39.5776118,34.7541375 39.8057155,34.6781029 39.8995089,34.4905162 C39.9362546,34.4170247 39.9481727,34.3335976 39.9334745,34.252757 L38.1069094,24.2066491 C38.0835299,24.078062 37.9956698,23.9705332 37.8743223,23.9219942 L33.6505179,22.2324725 C33.45579,22.1545813 33.2347886,22.2492962 33.1568974,22.4440241 C33.1342146,22.5007311 33.1255441,22.5620726 33.1316213,22.6228448 Z"/>
    <path fill="#FFF" fill-rule="nonzero" d="M21.5022752,25.5370431 L15.1505436,31.8887747 C15.0793272,31.9599911 15.0393183,32.0565812 15.0393183,32.1572963 L15.0393183,34.4520251 C15.0393183,34.6617535 15.2093368,34.831772 15.4190651,34.831772 C15.4646013,34.831772 15.5097663,34.823582 15.5524032,34.8075932 L22.7535668,32.1071568 C22.9204602,32.0445718 23.0213662,31.8743353 22.996159,31.6978845 L22.1467269,25.7518604 C22.1170669,25.5442399 21.9247129,25.3999744 21.7170924,25.4296345 C21.6357523,25.4412545 21.5603753,25.4789431 21.5022752,25.5370431 Z" transform="matrix(-1 0 0 1 38.04 0)"/>
    <path fill="#FFF" fill-rule="nonzero" d="M31.5022752,25.5370431 L25.1505436,31.8887747 C25.0793272,31.9599911 25.0393183,32.0565812 25.0393183,32.1572963 L25.0393183,34.4520251 C25.0393183,34.6617535 25.2093368,34.831772 25.4190651,34.831772 C25.4646013,34.831772 25.5097663,34.823582 25.5524032,34.8075932 L32.7535668,32.1071568 C32.9204602,32.0445718 33.0213662,31.8743353 32.996159,31.6978845 L32.1467269,25.7518604 C32.1170669,25.5442399 31.9247129,25.3999744 31.7170924,25.4296345 C31.6357523,25.4412545 31.5603753,25.4789431 31.5022752,25.5370431 Z"/>
    <path fill="#806EA0" fill-rule="nonzero" stroke="#FFF" d="M24,8 C19.0299415,8 15,11.9217163 15,16.7591132 C15,21.5533965 17.9268431,25.9182129 23.7805292,29.8535623 L23.7804934,29.8536155 C23.9123445,29.9422571 24.085436,29.9394653 24.2143599,29.8466177 C30.0714533,25.6284907 33,21.2657701 33,16.7584558 C33,11.9210589 28.9700585,8 24,8 Z M24.0006788,20.9411765 C21.6180446,20.9411765 19.6875,19.0373707 19.6875,16.6890757 C19.6875,14.3407808 21.6180446,12.436975 24.0006788,12.436975 C26.3819554,12.4363056 28.3125,14.3414502 28.3125,16.6897451 C28.3118212,19.0380401 26.3819554,20.9411765 24.0006788,20.9411765 Z"/>
  </g>
</svg>
