<svg xmlns="http://www.w3.org/2000/svg" xmlns:xlink="http://www.w3.org/1999/xlink" width="92" height="64" viewBox="0 0 92 64">
  <defs>
    <rect id="certificado_digital-a" width="103" height="65"/>
  </defs>
  <g fill="none" fill-rule="evenodd" transform="translate(-6 -1)">
    <mask id="certificado_digital-b" fill="#fff">
      <use xlink:href="#certificado_digital-a"/>
    </mask>
    <g mask="url(#certificado_digital-b)">
      <g transform="translate(7 2)">
        <path fill="#F1BE92" d="M29.7205957,6.99796689 C29.5566504,7.13888742 29.4300392,7.24396689 29.3237182,7.32868212 C29.4900983,7.24803974 29.630507,7.1445894 29.7205957,6.99796689"/>
        <path fill="#E0AB85" d="M29.5024909,7.69515695 L29.0680364,7.01091854 C29.1727636,6.92783245 29.2963091,6.82519669 29.4574909,6.68834901 L30.0711273,7.21211722 C29.9467636,7.41168675 29.7610364,7.56971325 29.5024909,7.69515695"/>
        <path fill="#F1BE92" d="M29.3208536,7.32884503 C29.242939,7.36631523 29.1569083,7.39726887 29.0643847,7.42089139 C28.9296573,7.60009669 28.9897165,7.59276556 29.3208536,7.32884503"/>
        <path fill="#E0AB85" d="M29.0070818,7.9505245 L29.0062636,7.9505245 L28.7526273,7.9505245 L28.6315364,7.72081589 C28.5104455,7.47644503 28.6699909,7.26547152 28.7387182,7.17586887 L28.8246273,7.06182914 L28.9629,7.02680265 C29.0291727,7.00969669 29.0913545,6.98770331 29.1461727,6.96163709 L29.5773545,7.64750464 C29.2909909,7.87476954 29.1674455,7.9505245 29.0070818,7.9505245"/>
        <path fill="#FFF" stroke="#806EA0" stroke-width=".917" d="M0,122.495781 L90,122.495781 L90,4.31035099 C90,2.10121199 88.209139,0.310350993 86,0.310350993 L4,0.310350993 C1.790861,0.310350993 -2.705415e-16,2.10121199 0,4.31035099 L0,122.495781 Z"/>
        <path fill="#F2F2F2" stroke="#806EA0" stroke-width=".917" d="M0,41.0388278 L90,41.0388278 L90,4.31035099 C90,2.10121199 88.209139,0.310350993 86,0.310350993 L4,0.310350993 C1.790861,0.310350993 -2.705415e-16,2.10121199 0,4.31035099 L0,41.0388278 Z"/>
        <rect width="39.273" height="8.146" x="3.273" y="4.887" fill="#806EA0"/>
        <rect width="29.455" height="8.146" x="8.182" y="27.695" fill="#806EA0"/>
        <rect width="39.273" height="3.258" x="3.273" y="16.291" fill="#806EA0"/>
        <rect width="39.273" height="3.258" x="3.273" y="48.06" fill="#806EA0"/>
        <rect width="39.273" height="3.258" x="3.273" y="60.722" fill="#806EA0"/>
        <rect width="39.273" height="3.258" x="47.455" y="48.06" fill="#806EA0"/>
        <rect width="39.273" height="3.258" x="47.455" y="60.722" fill="#806EA0"/>
        <rect width="39.273" height="3.258" x="3.273" y="21.179" fill="#806EA0"/>
        <rect width="39.273" height="3.258" x="3.273" y="52.947" fill="#806EA0"/>
        <rect width="39.273" height="3.258" x="47.455" y="52.947" fill="#806EA0"/>
        <rect width="36" height="3.258" x="48.273" y="31.768" fill="#806EA0"/>
        <rect width="36" height="1.629" x="48.273" y="36.656" fill="#806EA0"/>
        <g transform="translate(45.818 4.887)">
          <rect width="40.909" height="16.291" fill="#806EA0"/>
          <rect width="27.818" height="6.517" x="6.545" y="17.921" fill="#806EA0"/>
        </g>
      </g>
    </g>
  </g>
</svg>
