<svg xmlns="http://www.w3.org/2000/svg" width="24" height="24" viewBox="0 0 24 24">
  <g fill="#806EA0">
    <path d="M23.7154852,13.4002735 L23.2546819,12.7822815 C22.8740183,12.2721929 22.8690096,11.5806304 23.2396557,11.0607324 L23.6904416,10.4378357 C24.2113497,9.71194035 23.9709306,8.70647719 23.1695335,8.28467314 L22.4833373,7.92172546 C21.9123419,7.62253886 21.6018005,6.99964217 21.7069839,6.37674548 L21.8372109,5.62142194 C21.9874729,4.74838563 21.3213116,3.9391104 20.4147312,3.90477752 L19.633369,3.87044463 C18.9872427,3.84592114 18.4312735,3.41430768 18.2509591,2.80612509 L18.0355837,2.07042034 C17.7851471,1.21700282 16.8284794,0.775579974 15.9920212,1.12871825 L15.2757726,1.43280955 C14.6797335,1.68294917 13.9935373,1.53580822 13.5577777,1.06005248 L13.0368696,0.49110747 C12.4308131,-0.171026807 11.3739707,-0.16121741 10.7779317,0.505821565 L10.267041,1.08457597 C9.84129886,1.56033171 9.15510264,1.72218675 8.55906358,1.48185653 L7.83780624,1.19247933 C7.00134807,0.854055147 6.04968908,1.31019209 5.80926996,2.1685143 L5.60391197,2.90421905 C5.43862383,3.52221105 4.89267209,3.9587292 4.24654572,3.99306209 L3.4651836,4.03720437 C2.55860319,4.08625135 1.90746809,4.90533598 2.07275623,5.77346758 L2.21300071,6.52388643 C2.32820154,7.14678312 2.02767765,7.77458451 1.46169098,8.07867581 L0.780503492,8.45143288 C-0.0108760927,8.88304633 -0.241277744,9.89341419 0.294656532,10.6095002 L0.755459834,11.2274921 C1.13612343,11.7375808 1.14113216,12.4291432 0.770486029,12.9490413 L0.319700189,13.5719379 C-0.201207891,14.2978333 0.0392112228,15.3032965 0.84060827,15.7251005 L1.52680449,16.0880482 C2.09779989,16.3872348 2.40834124,17.0101315 2.30315788,17.6330282 L2.16792213,18.383447 C2.01766018,19.2564833 2.68382148,20.0657586 3.59040189,20.1000914 L4.37176401,20.1344243 C5.01789038,20.1589478 5.57385958,20.5905613 5.75417392,21.1987439 L5.96954937,21.9344486 C6.21998595,22.7878661 7.17665368,23.229289 8.01311185,22.8761507 L8.72936046,22.5720594 C9.32539951,22.3219198 10.0115957,22.4690607 10.4473554,22.9399118 L10.9682635,23.5088568 C11.57432,24.1709911 12.6311623,24.1611817 13.2272014,23.4941427 L13.738092,22.9153883 C14.1638342,22.4396326 14.8500304,22.2777775 15.4460695,22.5181077 L16.1673268,22.8074849 C17.003785,23.1459091 17.955444,22.6897722 18.1958631,21.83145 L18.4012211,21.0957452 C18.5715179,20.4875626 19.1224784,20.0510445 19.7686048,20.0118069 L20.5499669,19.9676646 C21.4565473,19.9186176 22.1076824,19.099533 21.9423943,18.2314014 L21.8021498,17.4809825 C21.686949,16.8580858 21.9874729,16.2302845 22.5534595,15.9261932 L23.234647,15.5534361 C24.0210179,15.131632 24.2464108,14.1163595 23.7154852,13.4002735 Z M12,20 C7.58201393,20 4,16.4179861 4,12 C4,7.58201393 7.58201393,4 12,4 C16.4179861,4 20,7.58201393 20,12 C20,16.4179861 16.4179861,20 12,20 Z"/>
    <path d="M10.8589594,12.2231126 L10.0681392,11.4696064 C9.59929581,11.020709 8.83107047,11.020709 8.35657835,11.4642624 C7.88208623,11.9078157 7.88208623,12.6346019 8.35092964,13.0834992 L9.14174984,13.8370055 L10.0229495,14.6706719 C10.4804955,15.1088813 11.2261259,15.1088813 11.6893206,14.676016 L12.5705203,13.8476935 L15.6434216,10.9565808 C16.1179138,10.5130275 16.1179138,9.78624135 15.6490704,9.33734401 C15.180227,8.88844667 14.4120016,8.88844667 13.9375095,9.33199999 L10.8589594,12.2231126 Z"/>
  </g>
</svg>
