<svg xmlns="http://www.w3.org/2000/svg" width="48" height="35" viewBox="0 0 48 35">
  <g fill="none" fill-rule="evenodd">
    <rect width="48" height="35"/>
    <path fill="#ED6E00" fill-rule="nonzero" d="M46.2221961,7.76365672 C45.341098,7.48335821 39.2121569,6.2088806 39.2121569,6.2088806 C39.2121569,6.2088806 27.8505882,0.0614925373 26.4870588,0.0614925373 C25.1235294,0.0614925373 15.7702745,0.0654477612 15.7702745,0.0654477612 C13.4850196,0.0654477612 11.5752157,1.72238806 9.364,3.64074627 C8.32188235,4.54462687 7.17160784,5.53940299 5.90282353,6.42425373 L1.17741176,7.02208955 C0.494588235,7.22925373 0,7.83716418 0,8.55544776 L0,13.7069403 C0,14.5959701 0.757333333,15.3167164 1.69176471,15.3167164 L4.93890196,15.3167164 C5.1747451,17.9025373 7.46070588,19.9385075 10.2385098,19.9385075 C13.0161569,19.9385075 15.3022745,17.9024627 15.5381176,15.316791 L31.0429804,15.316791 C31.2788235,17.9026119 33.5647843,19.9385075 36.3425882,19.9385075 C39.1203922,19.9385075 41.4063529,17.9024627 41.6421961,15.316791 L44.3098824,15.316791 C46.4236078,15.316791 47.4564706,14.4481343 47.7158431,13.6327612 C48.3716863,11.569403 47.8999216,8.29738806 46.2221961,7.76365672 Z M10.2385098,17.4985075 C8.7185098,17.4985075 7.48180392,16.3219403 7.48180392,14.8756716 C7.48180392,13.429403 8.71835294,12.2526866 10.2385098,12.2526866 C11.7585098,12.2526866 12.9950588,13.4292537 12.9950588,14.8756716 C12.9951373,16.3219403 11.7585098,17.4985075 10.2385098,17.4985075 Z M20.4712941,6.20902985 L11.2261961,6.20902985 C11.894902,5.70634328 12.5131765,5.17276119 13.0827451,4.67880597 C14.5796863,3.38014925 15.872549,2.25850746 17.4195294,2.25850746 C17.4195294,2.25850746 18.8195294,2.25791045 20.4712941,2.25723881 L20.4712941,6.20902985 Z M22.7224314,2.25641791 C23.8665882,2.25604478 24.8865098,2.25574627 25.3981961,2.25574627 C26.6723137,2.25574627 31.8401569,5.11126866 33.7796863,6.20910448 L22.7224314,6.20910448 L22.7224314,2.25641791 Z M36.3425098,17.4985075 C34.8225098,17.4985075 33.5859608,16.3219403 33.5859608,14.8756716 C33.5859608,13.429403 34.8225098,12.2526866 36.3425098,12.2526866 C37.8625098,12.2526866 39.0992157,13.4292537 39.0992157,14.8756716 C39.0992157,16.3219403 37.8625098,17.4985075 36.3425098,17.4985075 Z" transform="matrix(-1 0 0 1 48 7)"/>
  </g>
</svg>
