<svg xmlns="http://www.w3.org/2000/svg" width="48" height="35" viewBox="0 0 48 35">
  <g fill="#ED6E00">
    <path d="M44.6264,0 L3.3736,0 C1.5136,0 0,1.505 0,3.35443182 L0,31.6455682 C0,33.495 1.5136,35 3.3736,35 L44.6264,35 C46.4864,35 48,33.495 48,31.6455682 L48,3.35443182 C48,1.505 46.4864,0 44.6264,0 Z M46.4,31.6455682 C46.4,32.6184091 45.6048,33.4090909 44.6264,33.4090909 L3.3736,33.4090909 C2.3952,33.4090909 1.6,32.6184091 1.6,31.6455682 L1.6,3.35443182 C1.6,2.38159091 2.3952,1.59090909 3.3736,1.59090909 L44.6264,1.59090909 C45.6048,1.59090909 46.4,2.38159091 46.4,3.35443182 L46.4,31.6455682 Z"/>
    <path d="M18.1136 22.47L15.2 20.9904545 15.2 20.6826136C16.5024 19.9754545 17.4184 18.8109091 17.9296 17.21125 18.7048 16.8023864 19.2 16.0061364 19.2 15.1136364L19.2 14.3181818C19.2 13.5815909 18.8552 12.8982955 18.2792 12.4496591 17.78 9.44284091 15.6696 7.91875 12 7.91875 11.8264 7.91875 11.6568 7.92511364 11.4912 7.93784091 10.5296 8.015 9.6008 7.80897727 8.912 7.34920455 8.5848 7.12965909 8.3376 6.91647727 8.18 6.71840909 7.8248 6.26659091 7.0848 6.24670455 6.7056 6.66909091 6.524 6.87113636 6.4384 7.14318182 6.4704 7.41363636 6.504 7.71113636 6.5544 8.05715909 6.6304 8.43659091 6.7848 9.21215909 6.7848 9.21215909 6.568 9.67590909 6.4864 9.85170455 6.3856 10.0656818 6.2672 10.3544318 6.0024 10.9995455 5.8144 11.7059091 5.7064 12.46 5.1392 12.9094318 4.8 13.58875 4.8 14.3181818L4.8 15.1136364C4.8 16.0061364 5.2952 16.8023864 6.0704 17.21125 6.5816 18.8117045 7.4976 19.97625 8.8 20.6826136L8.8 20.9817045 5.7848 22.4596591C4.684 23.05625 4 24.2017045 4 25.4489773L4 26.5029545C4 27.1417045 4 28.6363636 12 28.6363636 20 28.6363636 20 27.1417045 20 26.5029545L20 25.5126136C20 24.2144318 19.2752 23.0475 18.1136 22.47zM24 11.9318182L32 11.9318182C32.4424 11.9318182 32.8 11.57625 32.8 11.1363636 32.8 10.6964773 32.4424 10.3409091 32 10.3409091L24 10.3409091C23.5576 10.3409091 23.2 10.6964773 23.2 11.1363636 23.2 11.57625 23.5576 11.9318182 24 11.9318182zM35.2 11.9318182L36 11.9318182C36.4424 11.9318182 36.8 11.57625 36.8 11.1363636 36.8 10.6964773 36.4424 10.3409091 36 10.3409091L35.2 10.3409091C34.7576 10.3409091 34.4 10.6964773 34.4 11.1363636 34.4 11.57625 34.7576 11.9318182 35.2 11.9318182zM24.8 23.8636364L24 23.8636364C23.5576 23.8636364 23.2 24.2192045 23.2 24.6590909 23.2 25.0989773 23.5576 25.4545455 24 25.4545455L24.8 25.4545455C25.2424 25.4545455 25.6 25.0989773 25.6 24.6590909 25.6 24.2192045 25.2424 23.8636364 24.8 23.8636364zM29.6 23.8636364L28 23.8636364C27.5576 23.8636364 27.2 24.2192045 27.2 24.6590909 27.2 25.0989773 27.5576 25.4545455 28 25.4545455L29.6 25.4545455C30.0424 25.4545455 30.4 25.0989773 30.4 24.6590909 30.4 24.2192045 30.0424 23.8636364 29.6 23.8636364zM33.6 23.8636364L32.8 23.8636364C32.3576 23.8636364 32 24.2192045 32 24.6590909 32 25.0989773 32.3576 25.4545455 32.8 25.4545455L33.6 25.4545455C34.0424 25.4545455 34.4 25.0989773 34.4 24.6590909 34.4 24.2192045 34.0424 23.8636364 33.6 23.8636364zM38.4 23.8636364L36.8 23.8636364C36.3576 23.8636364 36 24.2192045 36 24.6590909 36 25.0989773 36.3576 25.4545455 36.8 25.4545455L38.4 25.4545455C38.8424 25.4545455 39.2 25.0989773 39.2 24.6590909 39.2 24.2192045 38.8424 23.8636364 38.4 23.8636364zM41.032 24.0943182C40.8872 24.2446591 40.8 24.4522727 40.8 24.6590909 40.8 24.8659091 40.8872 25.0727273 41.032 25.2238636 41.1832 25.3670455 41.392 25.4545455 41.6 25.4545455 41.808 25.4545455 42.016 25.3670455 42.168 25.2238636 42.312 25.0727273 42.4 24.8659091 42.4 24.6590909 42.4 24.4522727 42.312 24.2446591 42.168 24.0943182 41.864 23.8 41.328 23.8 41.032 24.0943182zM41.6 15.1136364L24 15.1136364C23.5576 15.1136364 23.2 15.4692045 23.2 15.9090909 23.2 16.3489773 23.5576 16.7045455 24 16.7045455L41.6 16.7045455C42.0424 16.7045455 42.4 16.3489773 42.4 15.9090909 42.4 15.4692045 42.0424 15.1136364 41.6 15.1136364zM41.6 19.8863636L24 19.8863636C23.5576 19.8863636 23.2 20.2419318 23.2 20.6818182 23.2 21.1217045 23.5576 21.4772727 24 21.4772727L41.6 21.4772727C42.0424 21.4772727 42.4 21.1217045 42.4 20.6818182 42.4 20.2419318 42.0424 19.8863636 41.6 19.8863636z"/>
  </g>
</svg>
