<svg xmlns="http://www.w3.org/2000/svg" width="36" height="36" viewBox="0 0 36 36">
  <g fill="none" fill-rule="evenodd">
    <rect width="36" height="36" fill="#806EA0" rx="6"/>
    <path fill="#FFF" fill-rule="nonzero" d="M24.5104582,6.0049936 L21.3923493,6 C17.8892609,6 15.6254113,8.3182797 15.6254113,11.9064324 L15.6254113,14.6296932 L12.4902923,14.6296932 C12.2193808,14.6296932 12,14.8489123 12,15.1193159 L12,19.0650105 C12,19.335414 12.2196309,19.5543834 12.4902923,19.5543834 L15.6254113,19.5543834 L15.6254113,29.510627 C15.6254113,29.7810306 15.8447921,30 16.1157036,30 L20.2061421,30 C20.4770536,30 20.6964344,29.7807809 20.6964344,29.510627 L20.6964344,19.5543834 L24.3621197,19.5543834 C24.6330312,19.5543834 24.852412,19.335414 24.852412,19.0650105 L24.8539129,15.1193159 C24.8539129,14.9894822 24.802132,14.8651415 24.7103273,14.7732593 C24.6185226,14.681377 24.493448,14.6296932 24.3633705,14.6296932 L20.6964344,14.6296932 L20.6964344,12.321151 C20.6964344,11.2115727 20.9613423,10.6482944 22.4094556,10.6482944 L24.5099579,10.6475453 C24.7806192,10.6475453 25,10.4283262 25,10.1581723 L25,6.49436659 C25,6.22446241 24.7808694,6.00549296 24.5104582,6.0049936 Z"/>
  </g>
</svg>
