<svg xmlns="http://www.w3.org/2000/svg" width="48" height="48" viewBox="0 0 48 48">
  <g fill="none" fill-rule="evenodd">
    <circle cx="24" cy="24" r="24" fill="#806EA0"/>
    <g transform="translate(12 8)">
      <path fill="#FFF" fill-rule="nonzero" d="M0,30 L0,6 C-1.3527075e-16,4.8954305 0.8954305,4 2,4 L22,4 C23.1045695,4 24,4.8954305 24,6 L24,30 C24,31.1045695 23.1045695,32 22,32 L2,32 C0.8954305,32 1.3527075e-16,31.1045695 0,30 Z"/>
      <g fill="#806EA0" transform="translate(3 8)">
        <rect width="18" height="1" rx=".5"/>
        <rect width="18" height="1" y="2" rx=".5"/>
        <rect width="8" height="1" y="4" rx=".5"/>
      </g>
      <path fill="#806EA0" stroke="#FFF" stroke-width=".5" d="M10,2 C10,0.8954305 10.8954305,2.02906125e-16 12,0 C13.1045695,-2.02906125e-16 14,0.8954305 14,2 L17,2 C18.1045695,2 19,2.8954305 19,4 L19,6 L5,6 L5,4 C5,2.8954305 5.8954305,2 7,2 L10,2 Z"/>
      <g fill="#806EA0" transform="translate(3 15)">
        <rect width="13" height="2" x="3" rx="1"/>
        <path stroke="#806EA0" stroke-width=".5" d="M0.744476462,2 C0.679258462,2 0.617577101,1.97091408 0.577924797,1.92102802 L0.0423639344,1.24682331 C-0.0272898484,1.15913699 -0.00915708652,1.03427897 0.0828254691,0.967849936 C0.174957882,0.901392329 0.305843454,0.918792451 0.375527208,1.00642163 L0.727752361,1.44979616 L1.61368014,0.0938438337 C1.67467216,0.000557468041 1.80345973,-0.0279855884 1.9015265,0.0300719598 C1.99947338,0.0881866513 2.02938495,0.211044652 1.96836296,0.304416733 L0.921877813,1.9061422 C0.885522375,1.9618283 0.822762039,1.99685712 0.754037373,1.99982857 C0.75080045,1.99994286 0.747653442,2 0.744476462,2 L0.744476462,2 Z"/>
        <path fill-rule="nonzero" stroke="#806EA0" stroke-width=".3" d="M17.4098361,1.99502488 L17.4098361,1.74875622 C17.2540984,1.74626866 17.0956284,1.70149254 17,1.64179104 L17.0628415,1.4800995 C17.1584699,1.53731343 17.2978142,1.58457711 17.4480874,1.58457711 C17.636612,1.58457711 17.7650273,1.48507463 17.7650273,1.34577114 C17.7650273,1.21144279 17.6612022,1.12935323 17.4617486,1.05721393 C17.1885246,0.960199005 17.0218579,0.848258706 17.0218579,0.63681592 C17.0218579,0.435323383 17.1803279,0.281094527 17.4262295,0.246268657 L17.4262295,0 L17.5928962,0 L17.5928962,0.236318408 C17.7540984,0.241293532 17.863388,0.281094527 17.9398907,0.320895522 L17.8743169,0.482587065 C17.8169399,0.452736318 17.7076503,0.400497512 17.5382514,0.400497512 C17.3333333,0.400497512 17.2540984,0.512437811 17.2540984,0.609452736 C17.2540984,0.736318408 17.352459,0.798507463 17.5846995,0.888059701 C17.8606557,0.990049751 18,1.11691542 18,1.33333333 C18,1.52487562 17.852459,1.70646766 17.5765027,1.74626866 L17.5765027,2 L17.4098361,2 L17.4098361,1.99502488 Z"/>
        <g transform="translate(0 4)">
          <rect width="13" height="2" x="3" rx="1"/>
          <path stroke="#806EA0" stroke-width=".5" d="M0.744476462,2 C0.679258462,2 0.617577101,1.97091408 0.577924797,1.92102802 L0.0423639344,1.24682331 C-0.0272898484,1.15913699 -0.00915708652,1.03427897 0.0828254691,0.967849936 C0.174957882,0.901392329 0.305843454,0.918792451 0.375527208,1.00642163 L0.727752361,1.44979616 L1.61368014,0.0938438337 C1.67467216,0.000557468041 1.80345973,-0.0279855884 1.9015265,0.0300719598 C1.99947338,0.0881866513 2.02938495,0.211044652 1.96836296,0.304416733 L0.921877813,1.9061422 C0.885522375,1.9618283 0.822762039,1.99685712 0.754037373,1.99982857 C0.75080045,1.99994286 0.747653442,2 0.744476462,2 L0.744476462,2 Z"/>
          <path fill-rule="nonzero" stroke="#806EA0" stroke-width=".3" d="M17.4098361,1.99502488 L17.4098361,1.74875622 C17.2540984,1.74626866 17.0956284,1.70149254 17,1.64179104 L17.0628415,1.4800995 C17.1584699,1.53731343 17.2978142,1.58457711 17.4480874,1.58457711 C17.636612,1.58457711 17.7650273,1.48507463 17.7650273,1.34577114 C17.7650273,1.21144279 17.6612022,1.12935323 17.4617486,1.05721393 C17.1885246,0.960199005 17.0218579,0.848258706 17.0218579,0.63681592 C17.0218579,0.435323383 17.1803279,0.281094527 17.4262295,0.246268657 L17.4262295,0 L17.5928962,0 L17.5928962,0.236318408 C17.7540984,0.241293532 17.863388,0.281094527 17.9398907,0.320895522 L17.8743169,0.482587065 C17.8169399,0.452736318 17.7076503,0.400497512 17.5382514,0.400497512 C17.3333333,0.400497512 17.2540984,0.512437811 17.2540984,0.609452736 C17.2540984,0.736318408 17.352459,0.798507463 17.5846995,0.888059701 C17.8606557,0.990049751 18,1.11691542 18,1.33333333 C18,1.52487562 17.852459,1.70646766 17.5765027,1.74626866 L17.5765027,2 L17.4098361,2 L17.4098361,1.99502488 Z"/>
        </g>
        <g transform="translate(0 8)">
          <rect width="13" height="2" x="3" rx="1"/>
          <path stroke="#806EA0" stroke-width=".5" d="M0.744476462,2 C0.679258462,2 0.617577101,1.97091408 0.577924797,1.92102802 L0.0423639344,1.24682331 C-0.0272898484,1.15913699 -0.00915708652,1.03427897 0.0828254691,0.967849936 C0.174957882,0.901392329 0.305843454,0.918792451 0.375527208,1.00642163 L0.727752361,1.44979616 L1.61368014,0.0938438337 C1.67467216,0.000557468041 1.80345973,-0.0279855884 1.9015265,0.0300719598 C1.99947338,0.0881866513 2.02938495,0.211044652 1.96836296,0.304416733 L0.921877813,1.9061422 C0.885522375,1.9618283 0.822762039,1.99685712 0.754037373,1.99982857 C0.75080045,1.99994286 0.747653442,2 0.744476462,2 L0.744476462,2 Z"/>
          <path fill-rule="nonzero" stroke="#806EA0" stroke-width=".3" d="M17.4098361,1.99502488 L17.4098361,1.74875622 C17.2540984,1.74626866 17.0956284,1.70149254 17,1.64179104 L17.0628415,1.4800995 C17.1584699,1.53731343 17.2978142,1.58457711 17.4480874,1.58457711 C17.636612,1.58457711 17.7650273,1.48507463 17.7650273,1.34577114 C17.7650273,1.21144279 17.6612022,1.12935323 17.4617486,1.05721393 C17.1885246,0.960199005 17.0218579,0.848258706 17.0218579,0.63681592 C17.0218579,0.435323383 17.1803279,0.281094527 17.4262295,0.246268657 L17.4262295,0 L17.5928962,0 L17.5928962,0.236318408 C17.7540984,0.241293532 17.863388,0.281094527 17.9398907,0.320895522 L17.8743169,0.482587065 C17.8169399,0.452736318 17.7076503,0.400497512 17.5382514,0.400497512 C17.3333333,0.400497512 17.2540984,0.512437811 17.2540984,0.609452736 C17.2540984,0.736318408 17.352459,0.798507463 17.5846995,0.888059701 C17.8606557,0.990049751 18,1.11691542 18,1.33333333 C18,1.52487562 17.852459,1.70646766 17.5765027,1.74626866 L17.5765027,2 L17.4098361,2 L17.4098361,1.99502488 Z"/>
        </g>
        <g transform="translate(0 12)">
          <rect width="13" height="2" x="3" rx="1"/>
          <path stroke="#806EA0" stroke-width=".5" d="M0.744476462,2 C0.679258462,2 0.617577101,1.97091408 0.577924797,1.92102802 L0.0423639344,1.24682331 C-0.0272898484,1.15913699 -0.00915708652,1.03427897 0.0828254691,0.967849936 C0.174957882,0.901392329 0.305843454,0.918792451 0.375527208,1.00642163 L0.727752361,1.44979616 L1.61368014,0.0938438337 C1.67467216,0.000557468041 1.80345973,-0.0279855884 1.9015265,0.0300719598 C1.99947338,0.0881866513 2.02938495,0.211044652 1.96836296,0.304416733 L0.921877813,1.9061422 C0.885522375,1.9618283 0.822762039,1.99685712 0.754037373,1.99982857 C0.75080045,1.99994286 0.747653442,2 0.744476462,2 L0.744476462,2 Z"/>
          <path fill-rule="nonzero" stroke="#806EA0" stroke-width=".3" d="M17.4098361,1.99502488 L17.4098361,1.74875622 C17.2540984,1.74626866 17.0956284,1.70149254 17,1.64179104 L17.0628415,1.4800995 C17.1584699,1.53731343 17.2978142,1.58457711 17.4480874,1.58457711 C17.636612,1.58457711 17.7650273,1.48507463 17.7650273,1.34577114 C17.7650273,1.21144279 17.6612022,1.12935323 17.4617486,1.05721393 C17.1885246,0.960199005 17.0218579,0.848258706 17.0218579,0.63681592 C17.0218579,0.435323383 17.1803279,0.281094527 17.4262295,0.246268657 L17.4262295,0 L17.5928962,0 L17.5928962,0.236318408 C17.7540984,0.241293532 17.863388,0.281094527 17.9398907,0.320895522 L17.8743169,0.482587065 C17.8169399,0.452736318 17.7076503,0.400497512 17.5382514,0.400497512 C17.3333333,0.400497512 17.2540984,0.512437811 17.2540984,0.609452736 C17.2540984,0.736318408 17.352459,0.798507463 17.5846995,0.888059701 C17.8606557,0.990049751 18,1.11691542 18,1.33333333 C18,1.52487562 17.852459,1.70646766 17.5765027,1.74626866 L17.5765027,2 L17.4098361,2 L17.4098361,1.99502488 Z"/>
        </g>
      </g>
    </g>
  </g>
</svg>
