<svg xmlns="http://www.w3.org/2000/svg" xmlns:xlink="http://www.w3.org/1999/xlink" width="75" height="64" viewBox="0 0 75 64">
  <defs>
    <rect id="historial_ventas-a" width="121" height="64"/>
  </defs>
  <g fill="none" fill-rule="evenodd" transform="translate(-23)">
    <mask id="historial_ventas-b" fill="#fff">
      <use xlink:href="#historial_ventas-a"/>
    </mask>
    <g mask="url(#historial_ventas-b)">
      <g transform="translate(24.022)">
        <path fill="#FFF" fill-rule="nonzero" stroke="#806EA0" stroke-width="1.319" d="M0,90.8524525 L0,18.1565566 C-4.08818267e-16,14.8183021 2.70618996,12.1121121 6.04444444,12.1121121 L66.9114379,12.1121121 C70.2496924,12.1121121 72.9558824,14.8183021 72.9558824,18.1565566 L72.9558824,90.8524525 C72.9558824,94.1907069 70.2496924,96.8968969 66.9114379,96.8968969 L6.04444444,96.8968969 C2.70618996,96.8968969 -4.79360152e-16,94.1907069 -8.8817842e-16,90.8524525 Z"/>
        <g transform="translate(9.12 24.224)">
          <rect width="54.717" height="3.028" fill="#806EA0" rx="1.514"/>
          <rect width="54.717" height="3.028" y="6.056" fill="#806EA0" rx="1.514"/>
          <rect width="24.319" height="3.028" y="12.112" fill="#806EA0" rx="1.514"/>
        </g>
        <path fill="#806EA0" stroke="#FFF" stroke-width="1.319" d="M30.3982843,6.05605606 L30.3982843,6.04444444 C30.3982843,2.70618996 33.1044743,6.13227401e-16 36.4427288,0 L36.5131536,0 C39.8514081,-6.13227401e-16 42.557598,2.70618996 42.557598,6.04444444 L42.557598,6.05605606 L51.7122958,6.05605606 C55.0505502,6.05605606 57.7567402,8.76224601 57.7567402,12.1005005 L57.7567402,18.1681682 L15.1991422,18.1681682 L15.1991422,12.1005005 C15.1991422,8.76224601 17.9053321,6.05605606 21.2435866,6.05605606 L30.3982843,6.05605606 Z"/>
        <g transform="translate(9.12 45.42)">
          <g fill="#806EA0">
            <rect width="39.516" height="6.056" x="9.119" rx="3.028"/>
            <path stroke="#806EA0" stroke-width="1.511" d="M2.26308072,6.05605606 C2.06482919,6.05605606 1.87732843,5.96798308 1.75679223,5.81692669 L0.128779092,3.77541594 C-0.082956457,3.50989928 -0.027835972,3.13182571 0.251775216,2.93067673 C0.531841945,2.72944124 0.929711627,2.78212929 1.14153828,3.04747292 L2.21224232,4.3900234 L4.90531078,0.284161759 C5.09071604,0.00168802885 5.48220815,-0.084741146 5.78031431,0.0910587372 C6.07805604,0.267031652 6.16898206,0.639049121 5.98348568,0.921782398 L2.80235039,5.77185201 C2.69183609,5.94047109 2.50105544,6.04653933 2.29214424,6.05553696 C2.28230455,6.05588302 2.27273819,6.05605606 2.26308072,6.05605606 L2.26308072,6.05605606 Z"/>
            <path fill-rule="nonzero" stroke="#806EA0" stroke-width=".907" d="M52.9229147,6.04099124 L52.9229147,5.29528285 C52.4494988,5.28775044 51.9677773,5.15216709 51.6770833,4.9713893 L51.8681108,4.48178278 C52.1588048,4.65502816 52.5823874,4.79814392 53.0391922,4.79814392 C53.6122747,4.79814392 54.0026351,4.49684759 54.0026351,4.07503274 C54.0026351,3.66828271 53.6870245,3.41971325 53.08072,3.20127341 C52.2501657,2.9075095 51.7435277,2.56855114 51.7435277,1.92829646 C51.7435277,1.31817141 52.2252491,0.851162107 52.9727479,0.745708395 L52.9727479,0 L53.479386,0 L53.479386,0.715578763 C53.969413,0.730643579 54.3016347,0.851162107 54.5341898,0.971680636 L54.3348568,1.46128716 C54.1604404,1.37089826 53.8282188,1.21271769 53.3132751,1.21271769 C52.6903595,1.21271769 52.4494988,1.55167605 52.4494988,1.84543997 C52.4494988,2.22959278 52.7484983,2.41790298 53.4544694,2.68906967 C54.2933291,2.9978984 54.7169118,3.38205121 54.7169118,4.0373707 C54.7169118,4.61736612 54.2684125,5.16723191 53.4295527,5.28775044 L53.4295527,6.05605606 L52.9229147,6.05605606 L52.9229147,6.04099124 Z"/>
          </g>
          <g fill="#806EA0" transform="translate(0 12.112)">
            <rect width="39.518" height="6.056" x="9.119" rx="3.028"/>
            <path stroke="#806EA0" stroke-width="1.511" d="M2.26308072,6.05605606 C2.06482919,6.05605606 1.87732843,5.96798308 1.75679223,5.81692669 L0.128779092,3.77541594 C-0.082956457,3.50989928 -0.027835972,3.13182571 0.251775216,2.93067673 C0.531841945,2.72944124 0.929711627,2.78212929 1.14153828,3.04747292 L2.21224232,4.3900234 L4.90531078,0.284161759 C5.09071604,0.00168802885 5.48220815,-0.084741146 5.78031431,0.0910587372 C6.07805604,0.267031652 6.16898206,0.639049121 5.98348568,0.921782398 L2.80235039,5.77185201 C2.69183609,5.94047109 2.50105544,6.04653933 2.29214424,6.05553696 C2.28230455,6.05588302 2.27273819,6.05605606 2.26308072,6.05605606 L2.26308072,6.05605606 Z"/>
            <path fill-rule="nonzero" stroke="#806EA0" stroke-width=".907" d="M52.9229147,6.04099124 L52.9229147,5.29528285 C52.4494988,5.28775044 51.9677773,5.15216709 51.6770833,4.9713893 L51.8681108,4.48178278 C52.1588048,4.65502816 52.5823874,4.79814392 53.0391922,4.79814392 C53.6122747,4.79814392 54.0026351,4.49684759 54.0026351,4.07503274 C54.0026351,3.66828271 53.6870245,3.41971325 53.08072,3.20127341 C52.2501657,2.9075095 51.7435277,2.56855114 51.7435277,1.92829646 C51.7435277,1.31817141 52.2252491,0.851162107 52.9727479,0.745708395 L52.9727479,0 L53.479386,0 L53.479386,0.715578763 C53.969413,0.730643579 54.3016347,0.851162107 54.5341898,0.971680636 L54.3348568,1.46128716 C54.1604404,1.37089826 53.8282188,1.21271769 53.3132751,1.21271769 C52.6903595,1.21271769 52.4494988,1.55167605 52.4494988,1.84543997 C52.4494988,2.22959278 52.7484983,2.41790298 53.4544694,2.68906967 C54.2933291,2.9978984 54.7169118,3.38205121 54.7169118,4.0373707 C54.7169118,4.61736612 54.2684125,5.16723191 53.4295527,5.28775044 L53.4295527,6.05605606 L52.9229147,6.05605606 L52.9229147,6.04099124 Z"/>
          </g>
        </g>
      </g>
    </g>
  </g>
</svg>
