<svg xmlns="http://www.w3.org/2000/svg" width="62" height="20" viewBox="0 0 62 20">
  <path fill="#003" fill-rule="evenodd" d="M52.0169492 0C46.5035378 0 42.0338983 4.47806354 42.0338983 10 42.0338983 15.5219365 46.5035378 20 52.0169492 20 57.5303605 20 62 15.5219365 62 10 62 4.47806354 57.5303605 0 52.0169492 0zM52.0169492 1.05395865C54.4025695 1.05395865 56.6456971 1.98688855 58.3329521 3.67624811 60.0197035 5.36560767 60.949179 7.6096823 60.949179 10 60.949179 12.3903177 60.0197035 14.6343923 58.3329521 16.3237519 56.6456971 18.0131114 54.4025695 18.9460414 52.0169492 18.9460414 49.6308253 18.9460414 47.3882012 18.0131114 45.7009462 16.3237519 44.0136913 14.6343923 43.0847193 12.3903177 43.0847193 10 43.0847193 7.6096823 44.0136913 5.36560767 45.7009462 3.67624811 47.3882012 1.98688855 49.6308253 1.05395865 52.0169492 1.05395865zM36.2651555 16.3237519C34.5779005 18.0131114 32.3352764 18.9460414 29.9491525 18.9460414 27.5635322 18.9460414 25.3204046 18.0131114 23.6331496 16.3237519 22.0717717 14.7604639 21.1604224 12.7231467 21.0330349 10.5295008L38.8657737 10.5295008C38.7383862 12.7231467 37.8270369 14.7604639 36.2651555 16.3237519zM23.6331496 3.67624811C25.3204046 1.98688855 27.5635322 1.05395865 29.9491525 1.05395865 32.3352764 1.05395865 34.5779005 1.98688855 36.2651555 3.67624811 37.829051 5.23953606 38.7414072 7.28693898 38.8662772 9.48058497L21.0325314 9.48058497C21.1574014 7.28693898 22.0692541 5.23953606 23.6331496 3.67624811zM29.9491525 0C24.4357412 0 19.9661017 4.47806354 19.9661017 10 19.9661017 15.5219365 24.4357412 20 29.9491525 20 35.4625639 20 39.9322034 15.5219365 39.9322034 10 39.9322034 4.47806354 35.4625639 0 29.9491525 0zM1.05059564 1.0500246L1.08232504 1.0500246 16.4262592 17.8978484 1.05059564 17.8978484 1.05059564 1.0500246zM17.864155 17.8978484L17.8490457 17.8978484 2.50511155 1.0500246 17.864155 1.0500246 17.864155 17.8978484zM0 18.9473684L18.9152542 18.9473684 18.9152542 0 0 0 0 18.9473684z"/>
</svg>
