<svg xmlns="http://www.w3.org/2000/svg" width="49" height="48" viewBox="0 0 49 48">
  <g fill="none" fill-rule="evenodd">
    <circle cx="24.095" cy="24" r="24" fill="#FFF"/>
    <g fill-rule="nonzero" transform="translate(6.095 12)">
      <circle cx="23.905" cy="9" r="6" fill="#806EA0"/>
      <g>
        <circle cx="8.405" cy="7.5" r="7.5" fill="#806EA0"/>
        <path fill="#FFF" stroke="#FFF" d="M7.95458573,12.9751244 L7.95458573,11.7437811 C7.17589721,11.7313433 6.38354748,11.5074627 5.90540541,11.2089552 L6.21961306,10.4004975 C6.69775513,10.6865672 7.39447644,10.9228856 8.14584256,10.9228856 C9.08846551,10.9228856 9.73054202,10.4253731 9.73054202,9.72885572 C9.73054202,9.05721393 9.21141633,8.64676617 8.21414857,8.28606965 C6.84802836,7.80099502 6.01469502,7.24129353 6.01469502,6.1840796 C6.01469502,5.17661692 6.80704475,4.40547264 8.03655295,4.23134328 L8.03655295,3 L8.86988628,3 L8.86988628,4.18159204 C9.67589721,4.20646766 10.2223453,4.40547264 10.604859,4.60447761 L10.2769901,5.41293532 C9.99010486,5.26368159 9.44365677,5.00248756 8.59666224,5.00248756 C7.57207207,5.00248756 7.17589721,5.56218905 7.17589721,6.04726368 C7.17589721,6.68159204 7.66770049,6.99253731 8.82890267,7.44029851 C10.2086841,7.95024876 10.9054054,8.58457711 10.9054054,9.66666667 C10.9054054,10.6243781 10.1677005,11.5323383 8.78791907,11.7313433 L8.78791907,13 L7.95458573,13 L7.95458573,12.9751244 Z"/>
      </g>
      <path fill="#806EA0" d="M12.8758182,22.3192452 L14.4705357,17.9138556 C14.4705357,17.9138556 14.5186319,16.933559 16.5867681,17.0035802 L31.801197,17.0035802 C31.801197,17.0035802 33.0196339,17.0035802 33.4685317,18.5020336 L34.8919932,22.2977187 C35.2798525,23.3319522 34.7558626,24.4847862 33.7216291,24.8726454 C33.497065,24.9568617 33.259184,25 33.0193478,25 L14.756396,25 C13.6518265,25 12.756396,24.1045695 12.756396,23 C12.756396,22.7678708 12.7968067,22.5375136 12.8758182,22.3192452 Z"/>
    </g>
  </g>
</svg>
