<svg xmlns="http://www.w3.org/2000/svg" width="48" height="48" viewBox="0 0 48 48">
  <g fill="none" fill-rule="evenodd">
    <circle cx="24" cy="24" r="24" fill="#FFF"/>
    <g transform="translate(10 12)">
      <path fill="#806EA0" fill-rule="nonzero" d="M0,22 L0,6 C-1.3527075e-16,4.8954305 0.8954305,4 2,4 L26,4 C27.1045695,4 28,4.8954305 28,6 L28,22 C28,23.1045695 27.1045695,24 26,24 L2,24 C0.8954305,24 1.3527075e-16,23.1045695 0,22 Z"/>
      <polygon fill="#FFF" fill-rule="nonzero" points="0 13 0 11 28 11 28 13"/>
      <g fill-rule="nonzero" transform="translate(9.675 8.386)">
        <path fill="#806EA0" d="M0.32460733,6.03614458 L0.32460733,1.19277108 C0.32460733,0.873377494 0.583526993,0.614457831 0.902920583,0.614457831 L7.74629408,0.614457831 C8.06568767,0.614457831 8.32460733,0.873377494 8.32460733,1.19277108 L8.32460733,6.03614458 C8.32460733,6.35553817 8.06568767,6.61445783 7.74629408,6.61445783 L0.902920583,6.61445783 C0.583526993,6.61445783 0.32460733,6.35553817 0.32460733,6.03614458 Z"/>
        <path fill="#FFF" d="M1.32460733,5.275933 L1.32460733,1.95298266 C1.32460733,1.76602056 1.47617006,1.61445783 1.66313216,1.61445783 L6.9860825,1.61445783 C7.1730446,1.61445783 7.32460733,1.76602056 7.32460733,1.95298266 L7.32460733,5.275933 C7.32460733,5.4628951 7.1730446,5.61445783 6.9860825,5.61445783 L1.66313216,5.61445783 C1.47617006,5.61445783 1.32460733,5.4628951 1.32460733,5.275933 Z"/>
      </g>
      <rect width="10.265" height="4.265" x="8.867" y=".867" stroke="#806EA0" stroke-width="1.735" rx=".578"/>
    </g>
  </g>
</svg>
