<svg xmlns="http://www.w3.org/2000/svg" width="48" height="48" viewBox="0 0 48 48">
  <g fill="none" fill-rule="evenodd">
    <circle cx="24" cy="24" r="24" fill="#806EA0"/>
    <g transform="translate(12 8)">
      <path fill="#FFF" fill-rule="nonzero" d="M0,30 L0,6 C-1.3527075e-16,4.8954305 0.8954305,4 2,4 L22,4 C23.1045695,4 24,4.8954305 24,6 L24,30 C24,31.1045695 23.1045695,32 22,32 L2,32 C0.8954305,32 1.3527075e-16,31.1045695 0,30 Z"/>
      <path fill="#806EA0" stroke="#FFF" stroke-width=".5" d="M10,2 C10,0.8954305 10.8954305,2.02906125e-16 12,0 C13.1045695,-2.02906125e-16 14,0.8954305 14,2 L17,2 C18.1045695,2 19,2.8954305 19,4 L19,6 L5,6 L5,4 C5,2.8954305 5.8954305,2 7,2 L10,2 Z"/>
      <rect width="3" height="8" x="3" y="22" fill="#806EA0" rx="1"/>
      <rect width="3" height="9" x="13" y="21" fill="#806EA0" rx="1"/>
      <rect width="3" height="7" x="18" y="23" fill="#806EA0" rx="1"/>
      <rect width="3" height="6" x="8" y="24" fill="#806EA0" rx="1"/>
      <rect width="18" height="1" x="3" y="8" fill="#806EA0" rx=".5"/>
      <rect width="3" height="3" x="8" y="11" fill="#806EA0" rx="1.5"/>
      <rect width="3" height="3" x="8" y="16" fill="#806EA0" rx="1.5"/>
      <rect width="3" height="3" x="13" y="11" fill="#806EA0" rx="1.5"/>
      <rect width="3" height="3" x="13" y="16" fill="#806EA0" rx="1.5"/>
      <rect width="3" height="3" x="18" y="11" fill="#806EA0" rx="1.5"/>
      <rect width="3" height="3" x="18" y="16" fill="#806EA0" rx="1.5"/>
      <rect width="4" height="1" x="2" y="12" fill="#806EA0" rx=".5"/>
      <rect width="4" height="1" x="2" y="17" fill="#806EA0" rx=".5"/>
      <polyline stroke="#806EA0" stroke-width=".5" points="9 13 14 18 20 13"/>
      <polyline stroke="#806EA0" stroke-width=".5" points="9 13 14 18 20 13" transform="matrix(1 0 0 -1 0 31)"/>
    </g>
  </g>
</svg>
