<svg xmlns="http://www.w3.org/2000/svg" width="48" height="48" viewBox="0 0 48 48">
  <g fill="none" fill-rule="evenodd">
    <circle cx="24" cy="24" r="24" fill="#D5CFDF"/>
    <path fill="#806EA0" d="M30.6042957,21.9840013 C27.6112889,15.331558 26.0557233,12.8053377 21.1651156,12.909727 C19.4234387,12.9468733 19.8418611,11.6068947 18.5138817,12.115284 C17.1869523,12.6239444 18.3256704,13.3679552 16.9680286,14.5184063 C13.1581268,17.7479662 13.5093497,20.7364818 15.2762264,27.857999 C16.0211969,30.8573603 13.4817873,31.0045898 14.4866312,33.9125766 C15.2197893,36.0326277 20.6272564,36.9203432 26.3323967,34.7335914 C32.037537,32.5473818 35.6387526,28.2072286 34.9055945,26.0871774 C33.9004881,23.1794618 31.8656005,24.7848874 30.6042957,21.9840013 L30.6042957,21.9840013 Z M25.7131629,32.9424342 C20.6180689,34.8951914 16.4304319,33.7463672 16.253508,33.2360799 C15.9484848,32.355414 17.898323,29.4181441 23.723425,27.1855694 C29.5490521,24.9529948 32.7995698,25.7807881 33.1395053,26.7644875 C33.340579,27.3450003 30.8090444,30.9894059 25.7131629,32.9424342 L25.7131629,32.9424342 Z M24.0756979,28.2045172 C21.4118641,29.225634 19.5604629,30.3934381 18.3626826,31.4449227 C19.205565,32.236112 20.7855429,32.4291644 22.3605333,31.8256046 C24.3652336,31.0574623 25.5960886,29.2939615 25.1091541,27.8870111 C25.1036416,27.8699292 25.0947167,27.8547453 25.0886792,27.8379346 C24.7602937,27.9501869 24.4227208,28.0716581 24.0756979,28.2045172 L24.0756979,28.2045172 Z"/>
    <g fill="#ED6E00" stroke="#D5CFDF" transform="translate(22 8)">
      <circle cx="6" cy="6" r="6"/>
    </g>
  </g>
</svg>
