<svg xmlns="http://www.w3.org/2000/svg" width="16" height="20" viewBox="0 0 16 20">
  <path fill="#2B0D61" d="M14.9533391,8.83041379 L13.9770644,8.83041379 L13.9770644,5.98013793 C13.9770644,2.68268966 11.3058884,-1.42108547e-14 8.02259227,-1.42108547e-14 C4.73929614,-1.42108547e-14 2.06812017,2.68268966 2.06812017,5.98013793 L2.06812017,8.83041379 L1.09184549,8.83041379 C0.522918455,8.83041379 0.0617339056,9.29358621 0.0617339056,9.86496552 L0.0617339056,18.9417241 C0.0617339056,19.5131034 0.522918455,19.9763448 1.09184549,19.9763448 L14.9533391,19.9763448 C15.5222661,19.9763448 15.9835193,19.5131724 15.9835193,18.9417241 L15.9835193,9.86503448 C15.9835193,9.29365517 15.5222661,8.83041379 14.9533391,8.83041379 Z M4.56906438,5.98013793 C4.56906438,4.06765517 6.1183176,2.51172414 8.02259227,2.51172414 C9.92686695,2.51172414 11.4761202,4.06765517 11.4761202,5.98013793 L11.4761202,8.83041379 L4.56906438,8.83041379 L4.56906438,5.98013793 Z M9.14520172,14.7475172 L9.14520172,16.6029655 C9.14520172,17.2256552 8.64260944,17.7304138 8.02259227,17.7304138 C7.40257511,17.7304138 6.89998283,17.2256552 6.89998283,16.6029655 L6.89998283,14.7475172 C6.48240343,14.4148276 6.21424893,13.9011724 6.21424893,13.3242069 C6.21424893,12.3211724 7.02386266,11.508 8.02259227,11.508 C9.02132189,11.508 9.83093562,12.3211724 9.83093562,13.3242069 C9.83093562,13.9011724 9.56278112,14.4148966 9.14520172,14.7475172 Z"/>
</svg>
