<svg xmlns="http://www.w3.org/2000/svg" xmlns:xlink="http://www.w3.org/1999/xlink" width="148" height="168" viewBox="0 0 148 168">
  <defs>
    <polygon id="que_es_soat-a" points="0 162.381 110 162.381 110 0 0 0"/>
  </defs>
  <g fill="none" fill-rule="evenodd">
    <circle cx="74" cy="74" r="74" fill="#D5CFDF"/>
    <g transform="translate(19 5)">
      <path fill="#F1BE92" d="M37.2793,20.591 C33.4243,23.88 43.3223,14.049 43.3223,14.049 C43.3223,14.049 32.3603,-3.93 23.6543,4.718 C17.5543,10.777 35.1213,24.071 37.2793,20.591"/>
      <path fill="#E0AB85" d="M28.876,2.8659 C27.119,2.8659 25.48,3.6079 24.007,5.0729 C22.74,6.3309 22.535,8.0319 23.398,10.1259 C25.556,15.3589 33.5,20.9089 36.197,20.6549 C37.215,19.4409 41.518,15.1409 42.685,13.9779 C41.465,12.0969 35.154,2.8659 28.876,2.8659 Z M36.092,21.7649 L36.037,21.6629 L36.016,21.6629 C32.403,21.6629 24.65,15.7859 22.474,10.5069 C21.455,8.0369 21.742,5.9129 23.302,4.3629 C24.971,2.7059 26.846,1.8659 28.876,1.8659 C36.393,1.8659 43.452,13.3019 43.749,13.7889 L43.955,14.1259 L43.675,14.4039 C41.959,16.1079 38.892,19.1889 37.508,20.6859 L37.704,20.8549 C37.534,21.1289 37.295,21.3369 36.994,21.4729 C36.719,21.6869 36.58,21.7639 36.4,21.7639 L36.092,21.7649 Z"/>
      <g transform="translate(34 3.381)">
        <path fill="#F1BE92" d="M7.8975,10.8262 C7.8975,10.8262 5.2515,4.9952 1.1285,1.6952 C1.4415,2.9872 0.9085,17.9222 0.9085,17.9222 C0.9575,17.9122 1.0015,17.9002 1.0475,17.8882 C5.5625,19.4292 7.8975,10.8262 7.8975,10.8262"/>
        <path fill="#E0AB85" d="M1.4238,17.4795 C1.6578,17.5415 1.8908,17.5725 2.1168,17.5725 C4.8498,17.5735 6.7798,12.8945 7.3648,10.8705 C6.9448,9.9955 4.8238,5.7775 1.7078,2.8595 C1.7978,6.2945 1.5068,15.0965 1.4238,17.4795 M2.1168,18.5725 C1.7588,18.5725 1.3948,18.5175 1.0298,18.4075 C1.0228,18.4085 1.0138,18.4105 1.0058,18.4125 L0.3858,18.5365 L0.4078,17.9035 C0.6218,11.9285 0.8608,2.7115 0.6428,1.8125 L0.2988,0.3905 L1.4418,1.3055 C5.6098,4.6415 8.2418,10.3765 8.3538,10.6195 L8.4278,10.7835 L8.3798,10.9575 C8.2948,11.2685 6.2658,18.5725 2.1168,18.5725"/>
      </g>
      <path fill="#F1BE92" d="M36.3291,20.591 C36.1271,20.764 35.9711,20.893 35.8401,20.997 C36.0451,20.898 36.2181,20.771 36.3291,20.591"/>
      <path fill="#E0AB85" d="M36.0586,21.4469 L35.5276,20.6069 C35.6556,20.5049 35.8066,20.3789 36.0036,20.2109 L36.7536,20.8539 C36.6016,21.0989 36.3746,21.2929 36.0586,21.4469"/>
      <path fill="#F1BE92" d="M35.8398,20.9972 C35.7438,21.0432 35.6378,21.0812 35.5238,21.1102 C35.3578,21.3302 35.4318,21.3212 35.8398,20.9972"/>
      <path fill="#E0AB85" d="M35.4531,21.7604 L35.4521,21.7604 L35.1421,21.7604 L34.9941,21.4784 C34.8461,21.1784 35.0411,20.9194 35.1251,20.8094 L35.2301,20.6694 L35.3991,20.6264 C35.4801,20.6054 35.5561,20.5784 35.6231,20.5464 L36.1501,21.3884 C35.8001,21.6674 35.6491,21.7604 35.4531,21.7604"/>
      <mask id="que_es_soat-b" fill="#fff">
        <use xlink:href="#que_es_soat-a"/>
      </mask>
      <polygon fill="#FFF" points="0 162.381 110 162.381 110 12.381 0 12.381" mask="url(#que_es_soat-b)"/>
      <polygon fill="#F2F2F2" points="0 62.381 110 62.381 110 12.381 0 12.381" mask="url(#que_es_soat-b)"/>
      <rect width="48" height="10" x="4" y="18" fill="#806EA0" mask="url(#que_es_soat-b)"/>
      <rect width="36" height="10" x="10" y="46" fill="#806EA0" mask="url(#que_es_soat-b)"/>
      <rect width="48" height="4" x="4" y="32" fill="#806EA0" mask="url(#que_es_soat-b)"/>
      <rect width="48" height="4" x="4" y="71" fill="#806EA0" mask="url(#que_es_soat-b)"/>
      <rect width="48" height="4" x="4" y="89" fill="#806EA0" mask="url(#que_es_soat-b)"/>
      <rect width="48" height="4" x="58" y="71" fill="#806EA0" mask="url(#que_es_soat-b)"/>
      <rect width="48" height="4" x="58" y="89" fill="#806EA0" mask="url(#que_es_soat-b)"/>
      <rect width="48" height="4" x="4" y="38" fill="#806EA0" mask="url(#que_es_soat-b)"/>
      <rect width="48" height="4" x="4" y="77" fill="#806EA0" mask="url(#que_es_soat-b)"/>
      <rect width="48" height="4" x="4" y="95" fill="#806EA0" mask="url(#que_es_soat-b)"/>
      <rect width="48" height="4" x="58" y="77" fill="#806EA0" mask="url(#que_es_soat-b)"/>
      <rect width="48" height="4" x="58" y="95" fill="#806EA0" mask="url(#que_es_soat-b)"/>
      <rect width="44" height="4" x="59" y="51" fill="#806EA0" mask="url(#que_es_soat-b)"/>
      <rect width="44" height="2" x="59" y="57" fill="#806EA0" mask="url(#que_es_soat-b)"/>
      <g fill="#806EA0" mask="url(#que_es_soat-b)">
        <g transform="translate(56 18)">
          <rect width="50" height="20"/>
          <rect width="34" height="8" x="8" y="22"/>
        </g>
      </g>
      <polygon fill="#F2F2F2" points="0 161.76 110 161.76 110 111.76 0 111.76" mask="url(#que_es_soat-b)"/>
      <path fill="#F1BE92" d="M78.3965,29.7814 C75.0915,29.7714 72.3945,27.0614 72.4045,23.7574 L72.4505,6.5944 C72.4585,3.2894 75.1675,0.5934 78.4745,0.6014 C81.7795,0.6104 84.4755,3.3214 84.4665,6.6264 L84.4205,23.7884 C84.4125,27.0934 81.7015,29.7904 78.3965,29.7814" mask="url(#que_es_soat-b)"/>
      <path fill="#E0AB85" d="M78.4727,1.1017 C75.4277,1.1017 72.9567,3.5657 72.9507,6.5947 L72.9047,23.7587 C72.9007,25.2227 73.4707,26.6057 74.5117,27.6517 C75.5527,28.6987 76.9337,29.2767 78.3987,29.2817 L78.4117,29.7817 L78.4117,29.2817 C81.4417,29.2817 83.9127,26.8167 83.9207,23.7867 L83.9667,6.6247 C83.9707,5.1597 83.3997,3.7767 82.3597,2.7307 C81.3187,1.6847 79.9377,1.1057 78.4727,1.1017 M78.4117,30.2817 L78.3947,30.2817 C76.6627,30.2767 75.0327,29.5927 73.8027,28.3577 C72.5747,27.1217 71.8997,25.4877 71.9047,23.7557 L71.9507,6.5927 C71.9587,3.0137 74.8787,0.1017 78.4587,0.1017 C80.2077,0.1057 81.8377,0.7897 83.0687,2.0257 C84.2967,3.2617 84.9707,4.8957 84.9667,6.6277 L84.9207,23.7897 C84.9117,27.3697 81.9927,30.2817 78.4117,30.2817" mask="url(#que_es_soat-b)"/>
      <rect width="48" height="4" x="4" y="116" fill="#806EA0" mask="url(#que_es_soat-b)"/>
      <rect width="48" height="4" x="4" y="132" fill="#806EA0" mask="url(#que_es_soat-b)"/>
      <rect width="102" height="11" x="4" y="146" fill="#806EA0" mask="url(#que_es_soat-b)"/>
      <path fill="#F1BE92" d="M66.3701,29.7472 C63.0671,29.7382 60.3691,27.0272 60.3791,23.7232 L60.4241,6.5602 C60.4331,3.2562 63.1441,0.5592 66.4491,0.5672 C69.7541,0.5772 72.4501,3.2872 72.4411,6.5922 L72.3951,23.7542 C72.3871,27.0592 69.6761,29.7572 66.3701,29.7472" mask="url(#que_es_soat-b)"/>
      <path fill="#E0AB85" d="M66.4473,1.0675 C63.4043,1.0675 60.9323,3.5315 60.9243,6.5615 L60.8793,23.7245 C60.8753,25.1885 61.4453,26.5715 62.4863,27.6185 C63.5273,28.6645 64.9073,29.2435 66.3713,29.2475 L66.3883,29.7475 L66.3883,29.2475 C69.4173,29.2475 71.8873,26.7825 71.8953,23.7525 L71.9413,6.5905 C71.9493,3.5545 69.4843,1.0765 66.4473,1.0675 M66.3883,30.2475 L66.3693,30.2475 C64.6373,30.2425 63.0083,29.5595 61.7773,28.3235 C60.5493,27.0875 59.8743,25.4525 59.8793,23.7215 L59.9243,6.5585 C59.9343,2.9795 62.8543,0.0675 66.4333,0.0675 C70.0393,0.0785 72.9513,3.0055 72.9413,6.5935 L72.8953,23.7555 C72.8863,27.3355 69.9673,30.2475 66.3883,30.2475" mask="url(#que_es_soat-b)"/>
      <rect width="48" height="4" x="58" y="116" fill="#806EA0" mask="url(#que_es_soat-b)"/>
      <rect width="48" height="4" x="58" y="132" fill="#806EA0" mask="url(#que_es_soat-b)"/>
      <path fill="#F1BE92" d="M54.3457,29.714 C51.0417,29.705 48.3437,26.994 48.3527,23.689 L48.4007,6.527 C48.4087,3.221 51.1177,0.526 54.4237,0.534 C57.7287,0.543 60.4257,3.253 60.4157,6.559 L60.3707,23.721 C60.3617,27.026 57.6517,29.723 54.3457,29.714" mask="url(#que_es_soat-b)"/>
      <path fill="#E0AB85" d="M54.4219,1.0343 C51.3779,1.0343 48.9079,3.4983 48.9009,6.5273 L48.8529,23.6903 C48.8439,26.7273 51.3089,29.2053 54.3479,29.2143 L54.3609,29.7143 L54.3609,29.2143 C57.3909,29.2143 59.8619,26.7493 59.8709,23.7193 L59.9159,6.5573 C59.9199,5.0923 59.3499,3.7093 58.3089,2.6623 C57.2679,1.6163 55.8879,1.0383 54.4219,1.0343 M54.3609,30.2143 L54.3439,30.2143 C50.7559,30.2043 47.8429,27.2763 47.8529,23.6873 L47.9009,6.5253 C47.9079,2.9463 50.8279,0.0343 54.4079,0.0343 C56.1569,0.0383 57.7879,0.7223 59.0179,1.9573 C60.2459,3.1933 60.9209,4.8283 60.9159,6.5603 L60.8709,23.7223 C60.8599,27.3023 57.9409,30.2143 54.3609,30.2143" mask="url(#que_es_soat-b)"/>
      <path fill="#F1BE92" d="M42.3203,29.6798 C39.0153,29.6708 36.3183,26.9588 36.3273,23.6558 L36.3733,6.4928 C36.3823,3.1888 39.0923,0.4918 42.3983,0.4998 C45.7033,0.5088 48.4003,3.2198 48.3903,6.5248 L48.3433,23.6878 C48.3353,26.9918 45.6253,29.6878 42.3203,29.6798" mask="url(#que_es_soat-b)"/>
      <rect width="48" height="4" x="4" y="122" fill="#806EA0" mask="url(#que_es_soat-b)"/>
      <rect width="48" height="4" x="4" y="138" fill="#806EA0" mask="url(#que_es_soat-b)"/>
      <path fill="#E0AB85" d="M42.3965,1.0001 C39.3525,1.0001 36.8805,3.4651 36.8735,6.4951 L36.8275,23.6571 C36.8235,25.1211 37.3945,26.5041 38.4355,27.5501 C39.4765,28.5971 40.8575,29.1761 42.3225,29.1801 L42.3345,29.6801 L42.3345,29.1801 C45.3645,29.1801 47.8355,26.7151 47.8435,23.6861 L47.8905,6.5231 C47.8945,5.0581 47.3245,3.6751 46.2835,2.6291 C45.2425,1.5831 43.8615,1.0041 42.3965,1.0001 M42.3345,30.1801 L42.3195,30.1801 C40.5875,30.1751 38.9565,29.4921 37.7265,28.2561 C36.4975,27.0201 35.8225,25.3851 35.8275,23.6541 L35.8735,6.4921 C35.8825,2.9121 38.8025,0.0001 42.3825,0.0001 C44.1315,0.0041 45.7625,0.6881 46.9925,1.9241 C48.2215,3.1601 48.8955,4.7941 48.8905,6.5261 L48.8435,23.6891 C48.8335,27.2681 45.9145,30.1801 42.3345,30.1801" mask="url(#que_es_soat-b)"/>
      <path fill="#F3D8C2" d="M45.4209,24.0695 C45.4209,25.4225 43.9319,26.5185 42.0959,26.5185 C40.2599,26.5185 38.7719,25.4225 38.7719,24.0695 L38.7719,21.9685 C38.7719,20.6155 40.2599,19.5185 42.0959,19.5185 C43.9319,19.5185 45.4209,20.6155 45.4209,21.9685 L45.4209,24.0695 Z" mask="url(#que_es_soat-b)"/>
      <rect width="48" height="4" x="58" y="122" fill="#806EA0" mask="url(#que_es_soat-b)"/>
      <rect width="48" height="4" x="58" y="138" fill="#806EA0" mask="url(#que_es_soat-b)"/>
      <path fill="#F3D8C2" d="M57.4551 24.0695C57.4551 25.4225 55.9651 26.5185 54.1291 26.5185 52.2931 26.5185 50.8051 25.4225 50.8051 24.0695L50.8051 21.9685C50.8051 20.6155 52.2931 19.5185 54.1291 19.5185 55.9651 19.5185 57.4551 20.6155 57.4551 21.9685L57.4551 24.0695zM69.4873 24.0695C69.4873 25.4225 67.9983 26.5185 66.1623 26.5185 64.3263 26.5185 62.8383 25.4225 62.8383 24.0695L62.8383 21.9685C62.8383 20.6155 64.3263 19.5185 66.1623 19.5185 67.9983 19.5185 69.4873 20.6155 69.4873 21.9685L69.4873 24.0695zM81.5215 24.0695C81.5215 25.4225 80.0315 26.5185 78.1955 26.5185 76.3595 26.5185 74.8715 25.4225 74.8715 24.0695L74.8715 21.9685C74.8715 20.6155 76.3595 19.5185 78.1955 19.5185 80.0315 19.5185 81.5215 20.6155 81.5215 21.9685L81.5215 24.0695z" mask="url(#que_es_soat-b)"/>
    </g>
  </g>
</svg>
