<svg xmlns="http://www.w3.org/2000/svg" width="36" height="25" viewBox="0 0 36 25">
  <g fill="none" fill-rule="evenodd">
    <rect width="29.494" height="1.754" y="23.246" fill="#D5CFDF" rx=".877"/>
    <g transform="translate(1.735 5.702)">
      <path fill="#553D81" fill-rule="nonzero" d="M24.1950361,0 L1.82906024,0 C0.820626506,0 0,0.829824561 0,1.8495614 L0,17.4486842 C0,18.4684211 0.820626506,19.2982456 1.82906024,19.2982456 L24.1950361,19.2982456 C25.2034699,19.2982456 26.0240964,18.4684211 26.0240964,17.4486842 L26.0240964,1.8495614 C26.0240964,0.829824561 25.2034699,0 24.1950361,0 Z"/>
      <path fill="#7874A0" fill-rule="nonzero" d="M.43373494 3.50877193L4.77108434 3.50877193C5.01093976 3.50877193 5.20481928 3.3127193 5.20481928 3.07017544 5.20481928 2.82763158 5.01093976 2.63157895 4.77108434 2.63157895L.43373494 2.63157895C.193879518 2.63157895 0 2.82763158 0 3.07017544 0 3.3127193.193879518 3.50877193.43373494 3.50877193zM6.5060241 3.50877193L6.93975904 3.50877193C7.17961446 3.50877193 7.37349398 3.3127193 7.37349398 3.07017544 7.37349398 2.82763158 7.17961446 2.63157895 6.93975904 2.63157895L6.5060241 2.63157895C6.26616867 2.63157895 6.07228916 2.82763158 6.07228916 3.07017544 6.07228916 3.3127193 6.26616867 3.50877193 6.5060241 3.50877193zM.86746988 7.45614035L.43373494 7.45614035C.193879518 7.45614035 0 7.65219298 0 7.89473684 0 8.1372807.193879518 8.33333333.43373494 8.33333333L.86746988 8.33333333C1.1073253 8.33333333 1.30120482 8.1372807 1.30120482 7.89473684 1.30120482 7.65219298 1.1073253 7.45614035.86746988 7.45614035zM3.46987952 7.45614035L2.60240964 7.45614035C2.36255422 7.45614035 2.1686747 7.65219298 2.1686747 7.89473684 2.1686747 8.1372807 2.36255422 8.33333333 2.60240964 8.33333333L3.46987952 8.33333333C3.70973494 8.33333333 3.90361446 8.1372807 3.90361446 7.89473684 3.90361446 7.65219298 3.70973494 7.45614035 3.46987952 7.45614035zM5.63855422 7.45614035L5.20481928 7.45614035C4.96496386 7.45614035 4.77108434 7.65219298 4.77108434 7.89473684 4.77108434 8.1372807 4.96496386 8.33333333 5.20481928 8.33333333L5.63855422 8.33333333C5.87840964 8.33333333 6.07228916 8.1372807 6.07228916 7.89473684 6.07228916 7.65219298 5.87840964 7.45614035 5.63855422 7.45614035zM8.24096386 7.45614035L7.37349398 7.45614035C7.13363855 7.45614035 6.93975904 7.65219298 6.93975904 7.89473684 6.93975904 8.1372807 7.13363855 8.33333333 7.37349398 8.33333333L8.24096386 8.33333333C8.48081928 8.33333333 8.6746988 8.1372807 8.6746988 7.89473684 8.6746988 7.65219298 8.48081928 7.45614035 8.24096386 7.45614035zM9.66795181 7.58333333C9.58944578 7.66622807 9.54216867 7.78070175 9.54216867 7.89473684 9.54216867 8.00877193 9.58944578 8.12280702 9.66795181 8.20614035 9.74992771 8.28508772 9.86313253 8.33333333 9.97590361 8.33333333 10.0886747 8.33333333 10.2014458 8.28508772 10.2838554 8.20614035 10.3619277 8.12280702 10.4096386 8.00877193 10.4096386 7.89473684 10.4096386 7.78070175 10.3619277 7.66622807 10.2838554 7.58333333 10.1190361 7.42105263 9.82843373 7.42105263 9.66795181 7.58333333zM8.6746988 0L.43373494 0C.193879518 0 0 .196052632 0 .438596491 0 .681140351.193879518.877192982.43373494.877192982L8.6746988.877192982C8.91455422.877192982 9.10843373.681140351 9.10843373.438596491 9.10843373.196052632 8.91455422 0 8.6746988 0zM9.97590361 9.64912281L.43373494 9.64912281C.193879518 9.64912281 0 9.84517544 0 10.0877193 0 10.3302632.193879518 10.5263158.43373494 10.5263158L9.97590361 10.5263158C10.215759 10.5263158 10.4096386 10.3302632 10.4096386 10.0877193 10.4096386 9.84517544 10.215759 9.64912281 9.97590361 9.64912281zM9.97590361 5.26315789L.43373494 5.26315789C.193879518 5.26315789 0 5.45921053 0 5.70175439 0 5.94429825.193879518 6.14035088.43373494 6.14035088L9.97590361 6.14035088C10.215759 6.14035088 10.4096386 5.94429825 10.4096386 5.70175439 10.4096386 5.45921053 10.215759 5.26315789 9.97590361 5.26315789z" transform="translate(1.735 2.193)"/>
      <path fill="#7874A0" fill-rule="nonzero" d="M.43373494.877192982L4.77108434.877192982C5.01093976.877192982 5.20481928.681140351 5.20481928.438596491 5.20481928.196052632 5.01093976 0 4.77108434 0L.43373494 0C.193879518 0 0 .196052632 0 .438596491 0 .681140351.193879518.877192982.43373494.877192982zM6.5060241.877192982L6.93975904.877192982C7.17961446.877192982 7.37349398.681140351 7.37349398.438596491 7.37349398.196052632 7.17961446 0 6.93975904 0L6.5060241 0C6.26616867 0 6.07228916.196052632 6.07228916.438596491 6.07228916.681140351 6.26616867.877192982 6.5060241.877192982zM.86746988 4.8245614L.43373494 4.8245614C.193879518 4.8245614 0 5.02061404 0 5.26315789 0 5.50570175.193879518 5.70175439.43373494 5.70175439L.86746988 5.70175439C1.1073253 5.70175439 1.30120482 5.50570175 1.30120482 5.26315789 1.30120482 5.02061404 1.1073253 4.8245614.86746988 4.8245614zM3.46987952 4.8245614L2.60240964 4.8245614C2.36255422 4.8245614 2.1686747 5.02061404 2.1686747 5.26315789 2.1686747 5.50570175 2.36255422 5.70175439 2.60240964 5.70175439L3.46987952 5.70175439C3.70973494 5.70175439 3.90361446 5.50570175 3.90361446 5.26315789 3.90361446 5.02061404 3.70973494 4.8245614 3.46987952 4.8245614zM5.63855422 4.8245614L5.20481928 4.8245614C4.96496386 4.8245614 4.77108434 5.02061404 4.77108434 5.26315789 4.77108434 5.50570175 4.96496386 5.70175439 5.20481928 5.70175439L5.63855422 5.70175439C5.87840964 5.70175439 6.07228916 5.50570175 6.07228916 5.26315789 6.07228916 5.02061404 5.87840964 4.8245614 5.63855422 4.8245614zM8.24096386 4.8245614L7.37349398 4.8245614C7.13363855 4.8245614 6.93975904 5.02061404 6.93975904 5.26315789 6.93975904 5.50570175 7.13363855 5.70175439 7.37349398 5.70175439L8.24096386 5.70175439C8.48081928 5.70175439 8.6746988 5.50570175 8.6746988 5.26315789 8.6746988 5.02061404 8.48081928 4.8245614 8.24096386 4.8245614zM9.66795181 4.95175439C9.58944578 5.03464912 9.54216867 5.14912281 9.54216867 5.26315789 9.54216867 5.37719298 9.58944578 5.49122807 9.66795181 5.5745614 9.74992771 5.65350877 9.86313253 5.70175439 9.97590361 5.70175439 10.0886747 5.70175439 10.2014458 5.65350877 10.2838554 5.5745614 10.3619277 5.49122807 10.4096386 5.37719298 10.4096386 5.26315789 10.4096386 5.14912281 10.3619277 5.03464912 10.2838554 4.95175439 10.1190361 4.78947368 9.82843373 4.78947368 9.66795181 4.95175439zM9.97590361 2.63157895L.43373494 2.63157895C.193879518 2.63157895 0 2.82763158 0 3.07017544 0 3.3127193.193879518 3.50877193.43373494 3.50877193L9.97590361 3.50877193C10.215759 3.50877193 10.4096386 3.3127193 10.4096386 3.07017544 10.4096386 2.82763158 10.215759 2.63157895 9.97590361 2.63157895zM9.97590361 7.01754386L.43373494 7.01754386C.193879518 7.01754386 0 7.21359649 0 7.45614035 0 7.69868421.193879518 7.89473684.43373494 7.89473684L9.97590361 7.89473684C10.215759 7.89473684 10.4096386 7.69868421 10.4096386 7.45614035 10.4096386 7.21359649 10.215759 7.01754386 9.97590361 7.01754386z" transform="translate(13.88 4.825)"/>
      <rect width="22.554" height="2.632" x="1.735" y="14.474" fill="#806EA0" rx=".437"/>
    </g>
    <g transform="translate(24.723)">
      <path fill="#ED6E00" fill-rule="nonzero" d="M10.8715279,9.48088369 L10.3451351,7.76290448 C10.6537318,7.0717284 10.8256124,6.3042755 10.8256124,5.49602339 C10.8256124,2.46064327 8.40221655,0 5.4127838,0 C2.42335106,0 0,2.46064327 0,5.49602339 C0,8.53140351 2.42339585,10.9920468 5.4128286,10.9920468 C6.94752502,10.9920468 8.3329178,10.3433983 9.31792771,9.30153996 L10.8715279,9.48088369 Z" transform="matrix(-1 0 0 1 10.93 0)"/>
      <g fill="#FFF" transform="translate(3.036 2.193)">
        <rect width="5.205" height="1" y="3.947" rx=".437"/>
        <path d="M2.60240964,0.438596491 L2.60240964,0.438596491 C3.8001356,0.438596491 4.77108434,1.40954523 4.77108434,2.60727119 L4.77108434,4.8245614 L0.43373494,4.8245614 L0.43373494,2.60727119 C0.43373494,1.40954523 1.40468368,0.438596491 2.60240964,0.438596491 Z"/>
        <path d="M2.60240964 0L2.60240964 0C2.84195483-4.4003738e-17 3.03614458.194189747 3.03614458.43373494L3.03614458 1.31578947 2.1686747 1.31578947 2.1686747.43373494C2.1686747.194189747 2.36286445 4.4003738e-17 2.60240964 0zM1.73493976 5.26315789C1.73493976 5.7476182 2.12331925 6.14035088 2.60240964 6.14035088 3.08150002 6.14035088 3.46987952 5.7476182 3.46987952 5.26315789L1.73493976 5.26315789z"/>
      </g>
    </g>
  </g>
</svg>
