<svg xmlns="http://www.w3.org/2000/svg" xmlns:xlink="http://www.w3.org/1999/xlink" width="186" height="259" viewBox="0 0 186 259">
  <defs>
    <rect id="soat_bigmoto_tooltip-a" width="85" height="30" x=".5" y=".123" rx="3.864"/>
  </defs>
  <g fill="none" fill-rule="evenodd" transform="translate(8 8)">
    <rect width="161" height="12" x="4" y="239" fill="#D5CFDF" rx="6"/>
    <rect width="46.364" height="108.123" x="61.818" y="142.877" fill="#2B0D61" rx="17.309"/>
    <g transform="translate(112.045 181.492)">
      <ellipse cx="14.064" cy="13.691" fill="#D1CFDF" rx="12.982" ry="13.059"/>
      <ellipse cx="14.064" cy="13.691" fill="#474180" rx="4.327" ry="4.353"/>
    </g>
    <path fill="#553D81" d="M55.9447573,57.9230769 L114.057391,57.9230769 C123.616938,57.9230769 131.366482,65.6726209 131.366482,75.2321678 C131.366482,76.0309585 131.311187,76.8287912 131.200995,77.6199449 L128.492906,97.0633015 C127.301447,105.617659 119.986235,111.984615 111.349302,111.984615 L58.6528461,111.984615 C50.0159135,111.984615 42.7007012,105.617659 41.5092423,97.0633015 L38.8011535,77.6199449 C37.4824207,68.151794 44.0888293,59.407297 53.5569802,58.0885641 C54.3481339,57.9783715 55.1459666,57.9230769 55.9447573,57.9230769 Z"/>
    <path fill="#553D81" d="M68.4168934,42.4769231 L101.58436,42.4769231 C107.320088,42.4769231 111.969814,47.1266495 111.969814,52.8623776 C111.969814,53.3515141 111.935258,53.8400395 111.866404,54.3243056 L110.427317,64.4457042 C109.699421,69.5651489 105.316206,73.3692308 100.145273,73.3692308 L69.8559803,73.3692308 C64.6850474,73.3692308 60.3018322,69.5651489 59.5739361,64.4457042 L58.1348492,54.3243056 C57.3274487,48.6456894 61.2763492,43.3877339 66.9549654,42.5803334 C67.4392315,42.5114792 67.9277569,42.4769231 68.4168934,42.4769231 Z"/>
    <rect width="15.455" height="54.062" x="104.318" y="166.046" fill="#553D81" rx="7.727"/>
    <path fill="#553D81" d="M58.4851449,92.6769231 L111.514855,92.6769231 C118.792333,92.6769231 125.292572,97.2290228 127.780793,104.067914 L131.363636,113.915385 C134.352263,122.129646 130.11605,131.211381 121.901788,134.200008 C120.167403,134.831036 118.336013,135.153846 116.4904,135.153846 L53.5095996,135.153846 C44.7685481,135.153846 37.6825258,128.067824 37.6825258,119.326772 C37.6825258,117.48116 38.0053357,115.649769 38.6363636,113.915385 L42.2192074,104.067914 C44.7074281,97.2290228 51.2076675,92.6769231 58.4851449,92.6769231 Z"/>
    <rect width="15.455" height="54.062" x="50.227" y="166.046" fill="#553D81" rx="7.727"/>
    <g transform="translate(15.455 108.123)">
      <rect width="100.455" height="54.062" x="19.318" fill="#553D81" rx="17.309"/>
      <g fill="#553D81" transform="translate(0 19.308)">
        <rect width="27.045" height="7.723" x="11.591" y="3.862"/>
        <rect width="15.455" height="15.446" rx="7.723"/>
      </g>
      <g fill="#553D81" transform="matrix(-1 0 0 1 139.09 19.308)">
        <rect width="27.045" height="7.723" x="11.591" y="3.862"/>
        <rect width="15.455" height="15.446" rx="7.723"/>
      </g>
      <rect width="46.364" height="38.615" x="46.364" y="7.723" fill="#7570A0" rx="7.727"/>
    </g>
    <g transform="translate(43.5 142.877)">
      <g fill-rule="nonzero">
        <use fill="#ED6E00" fill-rule="evenodd" xlink:href="#soat_bigmoto_tooltip-a"/>
        <rect width="86.932" height="31.932" x="-.466" y="-.843" stroke="#FFF" stroke-width="1.932" rx="3.864"/>
      </g>
      <text fill="#FFF" font-family="BlissPro-Heavy, Bliss Pro" font-size="19.318" font-weight="600">
        <tspan x="6.576" y="26.123">PROT3C</tspan>
      </text>
    </g>
    <ellipse cx="85" cy="46.338" fill="#553D81" stroke="#2B0D61" stroke-width="7.727" rx="15.455" ry="15.446"/>
    <polyline stroke="#553D81" stroke-linecap="round" stroke-linejoin="round" stroke-width="15.455" points="0 15.446 54.091 0 77.273 61.785"/>
    <polyline stroke="#553D81" stroke-linecap="round" stroke-linejoin="round" stroke-width="15.455" points="92.727 15.446 146.818 0 170 61.785" transform="matrix(-1 0 0 1 262.727 0)"/>
    <rect width="95" height="40" x="39" y="138" stroke="#FD2F21" stroke-width="6" rx="6"/>
  </g>
</svg>
