<svg xmlns="http://www.w3.org/2000/svg" xmlns:xlink="http://www.w3.org/1999/xlink" width="350" height="209" viewBox="0 0 350 209">
  <defs>
    <rect id="soat_big_car-a" width="78" height="34" rx="2.911"/>
  </defs>
  <g fill="none" fill-rule="evenodd">
    <rect width="350" height="12" y="197" fill="#D5CFDF" rx="6"/>
    <g transform="translate(15)">
      <g fill="#553D81" transform="translate(270.77 44.259)">
        <rect width="34.462" height="22.129" x="14.769" rx="4.923"/>
        <rect width="29.538" height="9.835" y="12.294" rx="2.462"/>
      </g>
      <g fill="#553D81" transform="matrix(-1 0 0 1 49.23 44.259)">
        <rect width="34.462" height="22.129" x="14.769" rx="4.923"/>
        <rect width="29.538" height="9.835" y="12.294" rx="2.462"/>
      </g>
      <rect width="49.231" height="78.682" x="4.923" y="130.318" fill="#2B0D61" rx="4.923"/>
      <rect width="49.231" height="78.682" x="265.846" y="130.318" fill="#2B0D61" rx="4.923"/>
      <path fill="#553D81" d="M84.0355065,1.42047159e-16 L235.964494,-1.42108547e-14 C239.254809,-1.48152759e-14 242.327672,1.6435394 244.154205,4.38031751 L290.461538,73.7647059 L29.5384615,73.7647059 L75.8457947,4.38031751 C77.672328,1.6435394 80.7451906,1.59613066e-14 84.0355065,1.24344979e-14 Z"/>
      <path fill="#7874A0" d="M86.914416,9.83529412 L233.085584,9.83529412 C236.602722,9.83529412 239.85278,11.7113749 241.611829,14.7570294 L271.426861,66.3794197 C272.786702,68.7338771 271.980406,71.7449106 269.625948,73.1047513 C268.877386,73.5370906 268.028182,73.7647059 267.163739,73.7647059 L52.8362612,73.7647059 C50.1173209,73.7647059 47.9131843,71.5605693 47.9131843,68.841629 C47.9131843,67.9771858 48.1407995,67.1279814 48.5731389,66.3794197 L78.3881714,14.7570294 C80.1472199,11.7113749 83.3972775,9.83529412 86.914416,9.83529412 Z" transform="matrix(-1 0 0 1 320 0)"/>
      <path fill="#553D81" d="M29.5420964,73.7647059 L290.459269,73.7647059 C304.05397,73.7647059 315.074653,84.785389 315.074653,98.3800905 C315.074653,99.0616983 315.046342,99.743012 314.989794,100.42227 L307.383527,191.788235 L12.6178375,191.788235 L5.01157124,100.42227 C3.88370661,86.8744351 13.9520819,74.97743 27.4999168,73.8495654 C28.1791748,73.7930168 28.8604885,73.7647059 29.5420964,73.7647059 Z"/>
      <path fill="#806EA0" d="M7.3858357,147.529412 L312.6146,147.529412 C315.33354,147.529412 317.537677,149.733548 317.537677,152.452489 C317.537677,152.634989 317.527529,152.817348 317.50728,152.998721 L313.665355,187.411391 C313.387132,189.90347 311.280237,191.788235 308.772675,191.788235 L11.2277611,191.788235 C8.72019869,191.788235 6.61330388,189.90347 6.33508121,187.411391 L2.49315579,152.998721 C2.19148003,150.296568 4.13745091,147.861485 6.83960341,147.559809 C7.02097668,147.53956 7.2033356,147.529412 7.3858357,147.529412 Z"/>
      <rect width="59.077" height="29.506" x="226.462" y="98.353" fill="#F18B33" rx="4.923"/>
      <rect width="59.077" height="29.506" x="34.462" y="98.353" fill="#F18B33" rx="4.923"/>
      <g transform="translate(118.154 126.859)">
        <g fill-rule="nonzero">
          <use fill="#ED6E00" fill-rule="evenodd" xlink:href="#soat_big_car-a"/>
          <rect width="80.911" height="36.911" x="-1.455" y="-1.455" stroke="#FFF" stroke-width="2.911" rx="2.911"/>
        </g>
        <text fill="#FFF" font-family="BlissPro-Heavy, Bliss Pro" font-size="14" font-weight="600">
          <tspan x="5.701" y="21">PR0T3CT4</tspan>
        </text>
      </g>
    </g>
  </g>
</svg>
