<svg xmlns="http://www.w3.org/2000/svg" width="18" height="18" viewBox="0 0 18 18">
  <g fill="#806EA0" fill-rule="evenodd">
    <path fill-rule="nonzero" d="M8.88866855,0.667423564 C13.4901642,0.606013002 17.271164,4.28712382 17.332581,8.88791536 C17.3938115,13.4895749 13.7127877,17.2706223 9.11147923,17.3325811 C4.50997842,17.3938081 0.729019499,13.712681 0.667419105,9.11208858 C0.606185937,4.50986936 4.28690847,0.729016392 8.88866855,0.667423564 Z M1.33402639,9.1031911 C1.39069708,13.3356112 4.86923488,16.7223022 9.10255624,16.6659741 C13.335691,16.6089729 16.7223057,13.1303346 16.6659735,8.89679971 C16.6094715,4.66419234 13.1309195,1.27753694 8.89758436,1.33403061 C4.66398573,1.39069923 1.27769144,4.86911651 1.33402639,9.1031911 Z"/>
    <path d="M8.86947734 13.8695496L8.8253031 13.8688539C8.14495019 13.8486801 7.66529444 13.3474645 7.68459893 12.6772061 7.70355559 12.0184259 8.19486361 11.5401668 8.85278156 11.5401668L8.89226012 11.5408624C9.59156969 11.561558 10.0658341 12.0577301 10.0461818 12.7472928 10.0268773 13.4078121 9.54304758 13.8695496 8.86947734 13.8695496L8.86947734 13.8695496zM11.7312378 8.18957032C11.5712366 8.41687384 11.2194079 8.69913368 10.7761003 9.04452372L10.2879227 9.38156597C10.0199207 9.58991303 9.85818037 9.78591231 9.79748427 9.97878117 9.74965782 10.1306067 9.72617939 10.1707805 9.72200544 10.4796489L9.72130979 10.5580834 7.85712195 10.5580834 7.8625133 10.4003448C7.88529608 9.75199939 7.9012962 9.37060948 8.16999386 9.0554802 8.59156222 8.56052549 9.52148221 7.96174507 9.56096076 7.93635386 9.69417915 7.8360064 9.80652781 7.72174595 9.89018061 7.59965944 10.0858342 7.32992129 10.1724436 7.11757424 10.1724436 6.90887935 10.1724436 6.6193152 10.0865299 6.35149009 9.91661559 6.11305618 9.75331002 5.88297006 9.44304684 5.76644875 8.99434784 5.76644875 8.54930104 5.76644875 8.24460311 5.90766562 8.06234088 6.19740369 7.87486122 6.49531565 7.7800779 6.80818407 7.7800779 7.12783508L7.7800779 7.20731305 5.85815051 7.20731305 5.86162879 7.12435683C5.91119438 5.94714374 6.33137143 5.09949467 7.10998594 4.60488778 7.5993809 4.29010632 8.2080811 4.13045473 8.91834727 4.13045473 9.84809334 4.13045473 10.6329688 4.35636695 11.2508864 4.80193054 11.8769781 5.25340715 12.1945456 5.92957859 12.1945456 6.81166232 12.1947196 7.30505182 12.0387184 7.76852839 11.7312378 8.18957032L11.7312378 8.18957032z"/>
  </g>
</svg>
