<svg xmlns="http://www.w3.org/2000/svg" width="36" height="36" viewBox="0 0 36 36">
  <g fill="none" fill-rule="evenodd">
    <path fill="#5DCD1C" d="M18,-2.27373675e-13 L18,-2.27373675e-13 C27.9411255,-2.29199831e-13 36,8.0588745 36,18 L36,18 C36,27.9411255 27.9411255,36 18,36 L18,36 C8.0588745,36 4.77015043e-15,27.9411255 3.55271368e-15,18 L0,18 C-1.21743675e-15,8.0588745 8.0588745,-2.2554752e-13 18,-2.27373675e-13 Z" transform="rotate(-90 18 18)"/>
    <g transform="translate(6 6)">
      <rect width="24" height="24" fill="#4CAF12" rx="12"/>
      <path fill="#FFF" d="M10.7223823,18 C10.3962923,18 10.0878855,17.8400275 9.88962398,17.5656541 L7.21181967,13.8575282 C6.86355076,13.3752534 6.95421457,12.6885343 7.41412735,12.3231746 C7.87478941,11.9576578 8.52921727,12.0533585 8.87763604,12.535319 L10.6387618,14.9738789 L15.0684007,7.51614109 C15.3733608,7.00306607 16.0172986,6.84607926 16.5076325,7.16539578 C16.9973669,7.48502658 17.1469247,8.16074559 16.8418148,8.67429203 L11.6093891,17.4837821 C11.4276119,17.7900557 11.1138102,17.9827142 10.7701869,17.9990571 C10.7540023,17.9996857 10.7382672,18 10.7223823,18 L10.7223823,18 Z"/>
    </g>
  </g>
</svg>
