<svg xmlns="http://www.w3.org/2000/svg" width="36" height="36" viewBox="0 0 36 36">
  <g fill="none" fill-rule="evenodd">
    <rect width="36" height="36" fill="#806EA0" rx="6"/>
    <path fill="#FFF" fill-rule="nonzero" d="M16.8260526,17.5552 L15.5263158,17.5552 L15.5323684,16.7901333 C15.5323684,16.4501333 15.8078947,16.172 16.1444737,16.172 L16.2273684,16.172 C16.5647368,16.172 16.8410526,16.4501333 16.8410526,16.7901333 L16.8260526,17.5552 Z M11.9507895,15.9157333 C11.6210526,15.9157333 11.3513158,16.1402667 11.3513158,16.4152 L11.3513158,20.136 C11.3513158,20.4104 11.6210526,20.6344 11.9507895,20.6344 C12.2818421,20.6344 12.5518421,20.4104 12.5518421,20.136 L12.5518421,16.4152 C12.5518421,16.14 12.2818421,15.9157333 11.9507895,15.9157333 Z M19.8684211,13.8344 L19.8684211,20.9128 C19.8684211,22.6106667 18.4155263,24 16.6394737,24 L3.36078947,24 C1.58421053,24 0.131578947,22.6106667 0.131578947,20.9128 L0.131578947,13.8344 C0.131578947,12.1365333 1.58421053,10.7469333 3.36078947,10.7469333 L16.6394737,10.7469333 C18.4155263,10.7469333 19.8684211,12.1365333 19.8684211,13.8344 Z M4.24657895,21.6813333 L4.24552632,14.2250667 L5.89157895,14.2256 L5.89157895,13.1208 L1.50368421,13.1141333 L1.50368421,14.2002667 L2.87342105,14.2042667 L2.87342105,21.6813333 L4.24657895,21.6813333 Z M9.18078947,15.3357333 L7.80842105,15.3357333 L7.80842105,19.3173333 C7.80842105,19.8933333 7.84289474,20.1813333 7.80631579,20.2829333 C7.69473684,20.5917333 7.19315789,20.9197333 6.99763158,20.3162667 C6.96447368,20.2106667 6.99368421,19.892 6.99315789,19.3448 L6.98763158,15.3357333 L5.62289474,15.3357333 L5.62710526,19.2818667 C5.62815789,19.8866667 5.61368421,20.3376 5.63184211,20.5429333 C5.66526316,20.9048 5.65342105,21.3266667 5.98473684,21.5677333 C6.60210526,22.0184 7.78552632,21.5005333 8.08157895,20.8562667 L8.07894737,21.6784 L9.18105263,21.6797333 L9.18078947,15.3357333 Z M13.5710526,19.8952 L13.5681579,16.5813333 C13.5671053,15.3184 12.6347368,14.5621333 11.3692105,15.584 L11.3747368,13.1202667 L10.0039474,13.1224 L9.99736842,21.6264 L11.1247368,21.6098667 L11.2273684,21.0802667 C12.6676316,22.4192 13.5731579,21.5016 13.5710526,19.8952 Z M17.8660526,19.456 L16.8371053,19.4616 C16.8365789,19.5029333 16.835,19.5506667 16.8344737,19.6026667 L16.8344737,20.1845333 C16.8344737,20.496 16.5805263,20.7496 16.2721053,20.7496 L16.0705263,20.7496 C15.7615789,20.7496 15.5076316,20.496 15.5076316,20.1845333 L15.5076316,20.12 L15.5076316,19.48 L15.5076316,18.6541333 L17.8639474,18.6541333 L17.8639474,17.7554667 C17.8639474,17.0986667 17.8473684,16.4421333 17.7936842,16.0666667 C17.625,14.8789333 15.9797368,14.6904 15.1486842,15.2984 C14.8878947,15.4882667 14.6886842,15.7424 14.5728947,16.0837333 C14.4560526,16.4253333 14.3978947,16.892 14.3978947,17.4848 L14.3978947,19.4608 C14.3984211,22.7456 18.3357895,22.2813333 17.8660526,19.456 Z M12.5876316,8.72853333 C12.6584211,8.90293333 12.7684211,9.04426667 12.9176316,9.15093333 C13.065,9.256 13.2534211,9.3088 13.4792105,9.3088 C13.6771053,9.3088 13.8523684,9.25466667 14.005,9.14293333 C14.1571053,9.03173333 14.2852632,8.8656 14.39,8.644 L14.3639474,9.1896 L15.8936842,9.1896 L15.8936842,2.59733333 L14.6894737,2.59733333 L14.6894737,7.728 C14.6894737,8.00586667 14.4636842,8.23333333 14.1876316,8.23333333 C13.9131579,8.23333333 13.6865789,8.00586667 13.6865789,7.728 L13.6865789,2.59733333 L12.4297368,2.59733333 L12.4297368,7.04373333 C12.4297368,7.61013333 12.44,7.98773333 12.4565789,8.1792 C12.4736842,8.36933333 12.5168421,8.55173333 12.5876316,8.72853333 Z M7.95184211,5.00533333 C7.95184211,4.37253333 8.00394737,3.8784 8.10736842,3.52213333 C8.21157895,3.1672 8.39868421,2.88186667 8.66973684,2.66666667 C8.94,2.4504 9.28605263,2.34213333 9.70684211,2.34213333 C10.0607895,2.34213333 10.3639474,2.41253333 10.6171053,2.5504 C10.8715789,2.68906667 11.0678947,2.86906667 11.2039474,3.0912 C11.3426316,3.31413333 11.4368421,3.5432 11.4871053,3.7776 C11.5384211,4.0152 11.5636842,4.3736 11.5636842,4.85706667 L11.5636842,6.52426667 C11.5636842,7.13573333 11.5394737,7.5856 11.4923684,7.8712 C11.4457895,8.1576 11.3457895,8.4232 11.1907895,8.67226667 C11.0381579,8.91866667 10.8410526,9.10293333 10.6021053,9.22053333 C10.3605263,9.3392 10.0842105,9.39733333 9.77210526,9.39733333 C9.42342105,9.39733333 9.12973684,9.34853333 8.88763158,9.24666667 C8.64473684,9.14533333 8.45710526,8.99253333 8.32342105,8.7896 C8.18842105,8.5864 8.09342105,8.33893333 8.03605263,8.0504 C7.97842105,7.76213333 7.95105263,7.32853333 7.95105263,6.75066667 L7.95184211,5.00533333 Z M9.15,7.624 C9.15,7.99733333 9.42421053,8.30213333 9.75815789,8.30213333 C10.0923684,8.30213333 10.3655263,7.99733333 10.3655263,7.624 L10.3655263,4.11466667 C10.3655263,3.74186667 10.0923684,3.43706667 9.75815789,3.43706667 C9.42421053,3.43706667 9.15,3.74186667 9.15,4.11466667 L9.15,7.624 Z M4.91631579,9.396 L6.35947368,9.396 L6.36105263,4.34 L8.06631579,0.0088 L6.48789474,0.0088 L5.58131579,3.22586667 L4.66184211,0 L3.09973684,0 L4.91394737,4.3424 L4.91631579,9.396 Z" transform="translate(8 6)"/>
  </g>
</svg>
