<?xml version="1.0" encoding="UTF-8"?>
<svg width="122px" height="80px" viewBox="0 0 122 80" version="1.1" xmlns="http://www.w3.org/2000/svg" xmlns:xlink="http://www.w3.org/1999/xlink">
    <!-- Generator: Sketch 49.2 (51160) - http://www.bohemiancoding.com/sketch -->
    <title>automovil</title>
    <desc>Created with Sketch.</desc>
    <defs></defs>
    <g id="Ilustraciones" stroke="none" stroke-width="1" fill="none" fill-rule="evenodd">
        <g id="Group-40">
            <rect id="Rectangle-3-Copy-8" x="0" y="0" width="122" height="80"></rect>
            <g id="Group-2-Copy" transform="translate(11.000000, 40.000000)">
                <rect id="Rectangle-14-Copy-2" fill="#D5CFDF" x="-1.50102153e-13" y="28" width="99" height="4" rx="2"></rect>
                <path d="M5.38586809,9.50843284 L18.9944134,8.98245614 L72.6256983,8.98245614 L97.2386128,8.98245614 C98.4727687,8.98245614 99.4732497,9.98293715 99.4732497,11.217093 C99.4732497,11.3737299 99.4567806,11.5299327 99.4241141,11.6831254 L96.8366117,23.8174522 C96.7266482,24.3331359 96.2711387,24.7017544 95.7438611,24.7017544 L3.37248486,24.7017544 C2.75540692,24.7017544 2.25516642,24.2015139 2.25516642,23.584436 C2.25516642,23.5257923 2.25978337,23.4672397 2.26897448,23.4093207 L4.32551038,10.4498025 C4.40907582,9.92320437 4.85307858,9.52902541 5.38586809,9.50843284 Z" id="Rectangle-Copy-5" fill="#553D81"></path>
                <rect id="Rectangle-Copy-6" fill="#806EA0" x="0" y="21.3333333" width="98.8826816" height="3.36842105" rx="1.11731844"></rect>
                <path d="M27.9395304,2.34647756e-16 L60.4603807,9.76996262e-15 C62.1737649,9.45521904e-15 63.822121,0.656034567 65.0669314,1.83337593 L72.6256983,8.98245614 L18.9944134,8.98245614 L24.3578183,1.79612092 C25.2014241,0.665787799 26.5290965,-6.29085919e-16 27.9395304,-8.8817842e-16 Z" id="Rectangle-Copy-7" fill="#553D81"></path>
                <path d="M29.6498748,2.24561404 L43.0167598,2.24561404 L43.0167598,8.98245614 L24.5810056,8.98245614 L28.7188117,2.74525789 C28.9258277,2.4332085 29.2754013,2.24561404 29.6498748,2.24561404 Z" id="Rectangle-Copy-8" fill="#7874A0"></path>
                <path d="M52.4197202,2.24561404 L67.0391061,2.24561404 L67.0391061,8.98245614 L45.2513966,8.98245614 L51.6277233,2.57480715 C51.8374164,2.36408403 52.1224401,2.24561404 52.4197202,2.24561404 Z" id="Rectangle-Copy-9" fill="#7874A0" transform="translate(56.145251, 5.614035) scale(-1, 1) translate(-56.145251, -5.614035) "></path>
                <polygon id="Rectangle-Copy-10" fill="#7874A0" transform="translate(67.876426, 5.614035) scale(-1, 1) translate(-67.876426, -5.614035) " points="70.2494504 2.24561404 72.62436 2.24561404 65.3617902 8.98245614 63.1284916 8.98245614"></polygon>
                <polygon id="Rectangle-Copy-11" fill="#7874A0" points="24.0233096 2.24561404 26.8143041 2.24561404 21.7863712 8.98245614 18.9944134 8.98245614"></polygon>
                <g id="Group-7-Copy-3" transform="translate(72.625698, 17.403509)">
                    <path d="M0,7.85964912 C0,3.51888477 3.50168352,0 7.82122905,0 C12.1407746,0 15.6424581,3.51888477 15.6424581,7.85964912" id="Path" fill="#FFFFFF"></path>
                    <path d="M7.82122905,14.5964912 C11.5236966,14.5964912 14.5251397,11.5803043 14.5251397,7.85964912 C14.5251397,4.13899397 11.5236966,1.12280702 7.82122905,1.12280702 C4.11876145,1.12280702 1.11731844,4.13899397 1.11731844,7.85964912 C1.11731844,11.5803043 4.11876145,14.5964912 7.82122905,14.5964912 Z" id="Path" fill="#2B0D61"></path>
                    <ellipse id="Oval-2-Copy" fill="#FFFFFF" cx="7.82122905" cy="7.85964912" rx="2.79329609" ry="2.80701754"></ellipse>
                </g>
                <g id="Group-7-Copy-4" transform="translate(16.759777, 17.403509)">
                    <path d="M0,7.85964912 C0,3.51888477 3.50168352,0 7.82122905,0 C12.1407746,0 15.6424581,3.51888477 15.6424581,7.85964912" id="Path" fill="#FFFFFF"></path>
                    <path d="M7.82122905,14.5964912 C11.5236966,14.5964912 14.5251397,11.5803043 14.5251397,7.85964912 C14.5251397,4.13899397 11.5236966,1.12280702 7.82122905,1.12280702 C4.11876145,1.12280702 1.11731844,4.13899397 1.11731844,7.85964912 C1.11731844,11.5803043 4.11876145,14.5964912 7.82122905,14.5964912 Z" id="Path" fill="#2B0D61"></path>
                    <ellipse id="Oval-2-Copy" fill="#FFFFFF" cx="7.82122905" cy="7.85964912" rx="2.79329609" ry="2.80701754"></ellipse>
                </g>
                <rect id="Rectangle-path-Copy" fill="#ED6E00" fill-rule="nonzero" x="49.1620112" y="10.1052632" width="4.46927374" height="1.12280702" rx="0.561403509"></rect>
                <rect id="Rectangle-path-Copy-2" fill="#ED6E00" fill-rule="nonzero" x="26.8156425" y="10.1052632" width="4.46927374" height="1.12280702" rx="0.561403509"></rect>
                <path d="M94.972067,12.9122807 L99.1615935,12.9122807 L98.4443537,16.2807018 L94.972067,16.2807018 C94.3549891,16.2807018 93.8547486,15.7804613 93.8547486,15.1633833 L93.8547486,14.0295991 C93.8547486,13.4125212 94.3549891,12.9122807 94.972067,12.9122807 Z" id="Rectangle-2-Copy" fill="#ED6E00"></path>
            </g>
        </g>
    </g>
</svg>