<?xml version="1.0" encoding="UTF-8"?>
<svg width="122px" height="80px" viewBox="0 0 122 80" version="1.1" xmlns="http://www.w3.org/2000/svg" xmlns:xlink="http://www.w3.org/1999/xlink">
    <!-- Generator: Sketch 49.2 (51160) - http://www.bohemiancoding.com/sketch -->
    <title>camioneta_mayor9asientos</title>
    <desc>Created with Sketch.</desc>
    <defs></defs>
    <g id="Ilustraciones" stroke="none" stroke-width="1" fill="none" fill-rule="evenodd">
        <g id="Group-25">
            <rect id="Rectangle-3-Copy-4" x="0" y="0" width="122" height="80"></rect>
            <g id="Group-2-Copy" transform="translate(11.000000, 34.000000)">
                <rect id="Rectangle-14-Copy-2" fill="#D5CFDF" x="0" y="34" width="100" height="4" rx="2"></rect>
                <path d="M1.57894737,16.1369863 L77.3684211,10.4109589 L94.0036246,11.6765666 C96.1987907,11.843575 97.8947368,13.67345 97.8947368,15.8749599 L97.8947368,28.3851347 C97.8947368,28.8079364 97.5519883,29.1506849 97.1291866,29.1506849 L7.89473684,29.1506849 C4.40662263,29.1506849 1.57894737,26.3230097 1.57894737,22.8348955 L1.57894737,16.1369863 Z" id="Rectangle-11-Copy" fill="#553D81"></path>
                <path d="M8.86622241,4.18526654e-22 L60.7854136,1.0658141e-14 C64.6657393,9.94533676e-15 68.3894838,1.53042096 71.148364,4.25906681 L77.3684211,10.4109589 L1.57894737,17.1780822 L1.57894737,12.3732801 C1.57894737,11.7663088 1.71017737,11.1665127 1.96364375,10.6149976 L5.99684997,1.8391829 C6.5119851,0.718305298 7.63263788,2.26605802e-16 8.86622241,0 Z" id="Rectangle-11-Copy-2" fill="#553D81"></path>
                <rect id="Rectangle-11-Copy-4" fill="#806EA0" x="0" y="23.8925658" width="100" height="5.32245652" rx="0.765550239"></rect>
                <rect id="Rectangle-path-Copy-11" fill="#ED6E00" fill-rule="nonzero" x="36.8421053" y="12.4931507" width="3.15789474" height="1.04109589" rx="0.520547945"></rect>
                <rect id="Rectangle-path-Copy-12" fill="#ED6E00" fill-rule="nonzero" x="57.8947368" y="12.4931507" width="3.15789474" height="1.04109589" rx="0.520547945"></rect>
                <path d="M35.8829049,1.56164384 L53.1578947,1.56164384 L53.6842105,11.4520548 L33.1578947,11.4520548 L35.1341298,2.16781056 C35.2093668,1.81435163 35.5215272,1.56164384 35.8829049,1.56164384 Z" id="Rectangle-Copy-4" fill="#7874A0"></path>
                <path d="M10.9861269,1.56164384 L30.2437591,1.56164384 C30.6665609,1.56164384 31.0093094,1.90439235 31.0093094,2.32719407 C31.0093094,2.46313109 30.9731133,2.59661659 30.9044411,2.71393238 L26.0112159,11.0732429 C25.8738747,11.3078689 25.6224016,11.4520548 25.3505339,11.4520548 L5.26315789,11.4520548 L10.3103089,1.9675592 C10.4432456,1.7177475 10.7031462,1.56164384 10.9861269,1.56164384 Z" id="Rectangle-Copy-20" fill="#7874A0"></path>
                <path d="M69.2145864,1.56164384 L74.2105263,1.56164384 L73.1578947,11.4520548 L55.7894737,11.4520548 L54.7368421,9.89041096 L58.851636,5.82071065 C61.6105162,3.09206479 65.3342607,1.56164384 69.2145864,1.56164384 Z" id="Rectangle-Copy-5" fill="#7874A0" transform="translate(64.473684, 6.506849) scale(-1, 1) translate(-64.473684, -6.506849) "></path>
                <path d="M93.3971292,17.1780822 L97.8947368,17.1780822 L97.8947368,21.3424658 L93.3971292,21.3424658 C92.9743275,21.3424658 92.6315789,20.9997172 92.6315789,20.5769155 L92.6315789,17.9436324 C92.6315789,17.5208307 92.9743275,17.1780822 93.3971292,17.1780822 Z" id="Rectangle-2" fill="#ED6E00"></path>
                <g id="Group-3" transform="translate(10.526316, 19.780822)">
                    <path d="M0,9.89041096 C0,4.42808782 4.4771525,0 10,0 C15.5228475,0 20,4.42808782 20,9.89041096" id="Path" fill="#FFFFFF"></path>
                    <g id="Group" transform="translate(1.578947, 1.561644)">
                        <path d="M8.42105263,16.6575342 C13.0718716,16.6575342 16.8421053,12.9286182 16.8421053,8.32876712 C16.8421053,3.72891606 13.0718716,0 8.42105263,0 C3.77023369,0 0,3.72891606 0,8.32876712 C0,12.9286182 3.77023369,16.6575342 8.42105263,16.6575342 Z" id="Path" fill="#2B0D61"></path>
                        <ellipse id="Oval-2-Copy" fill="#FFFFFF" cx="8.42105263" cy="8.32876712" rx="4.73684211" ry="4.68493151"></ellipse>
                    </g>
                </g>
                <g id="Group-3-Copy" transform="translate(69.473684, 19.780822)">
                    <path d="M0,9.89041096 C0,4.42808782 4.4771525,0 10,0 C15.5228475,0 20,4.42808782 20,9.89041096" id="Path" fill="#FFFFFF"></path>
                    <g id="Group" transform="translate(1.578947, 1.561644)">
                        <path d="M8.42105263,16.6575342 C13.0718716,16.6575342 16.8421053,12.9286182 16.8421053,8.32876712 C16.8421053,3.72891606 13.0718716,0 8.42105263,0 C3.77023369,0 0,3.72891606 0,8.32876712 C0,12.9286182 3.77023369,16.6575342 8.42105263,16.6575342 Z" id="Path" fill="#2B0D61"></path>
                        <ellipse id="Oval-2-Copy" fill="#FFFFFF" cx="8.42105263" cy="8.32876712" rx="4.73684211" ry="4.68493151"></ellipse>
                    </g>
                </g>
            </g>
        </g>
    </g>
</svg>