<?xml version="1.0" encoding="UTF-8"?>
<svg width="122px" height="80px" viewBox="0 0 122 80" version="1.1" xmlns="http://www.w3.org/2000/svg" xmlns:xlink="http://www.w3.org/1999/xlink">
    <!-- Generator: Sketch 49.2 (51160) - http://www.bohemiancoding.com/sketch -->
    <title>camioneta_station_wagon</title>
    <desc>Created with Sketch.</desc>
    <defs></defs>
    <g id="Ilustraciones" stroke="none" stroke-width="1" fill="none" fill-rule="evenodd">
        <g id="Group-48">
            <rect id="Rectangle-3-Copy-7" x="0" y="0" width="122" height="80"></rect>
            <g id="Group-2-Copy" transform="translate(11.000000, 36.000000)">
                <rect id="Rectangle-14-Copy-2" fill="#D5CFDF" x="0" y="32" width="100" height="4" rx="2"></rect>
                <path d="M11.9565217,9.67164179 L66.3043478,9.67164179 L75.5434783,10.7462687 L93.7568747,13.8205998 C96.1622537,14.2266159 98.0024163,16.1855938 98.257333,18.611643 L98.8855606,24.5905018 C98.9482927,25.1875246 98.5151645,25.7223616 97.9181417,25.7850936 C97.8804094,25.7890583 97.8424953,25.7910448 97.8045552,25.7910448 L11.9565217,25.7910448 C10.7559027,25.7910448 9.7826087,24.8177508 9.7826087,23.6171317 L9.7826087,11.8455548 C9.7826087,10.6449358 10.7559027,9.67164179 11.9565217,9.67164179 Z" id="Rectangle-Copy-5" fill="#553D81"></path>
                <g id="Group" transform="translate(1.086957, 0.000000)">
                    <path d="M17.6244386,0.981265504 L50.8966046,0.0922181986 C53.158473,0.031780052 55.3971608,0.560773949 57.3927474,1.62723344 L74.4565217,10.7462687 L74.4565217,24.1791045 L0,24.1791045 L0.772510869,12.4990994 C0.912096367,10.3886316 2.06648582,8.47691234 3.86925504,7.3707561 L11.1512877,2.90259356 C13.102957,1.70507416 15.3354815,1.04242747 17.6244386,0.981265504 Z" id="Rectangle-Copy-7" fill="#553D81"></path>
                    <path d="M61.91716,2.14925373 L65.6992798,2.14925373 C66.2499084,2.14925373 66.7135572,2.56100099 66.7786213,3.10777199 L67.606889,10.0681873 C67.6778234,10.6642912 67.2520896,11.2050326 66.6559857,11.2759671 C66.6133609,11.2810393 66.570473,11.2835821 66.5275474,11.2835821 L46.3721028,11.2835821 C45.7717933,11.2835821 45.2851463,10.7969351 45.2851463,10.1966256 C45.2851463,9.80326841 45.4976683,9.44060403 45.8408398,9.24834602 L55.542004,3.81337741 C57.489629,2.7222423 59.6847131,2.14925373 61.91716,2.14925373 Z" id="Rectangle-Copy-9" fill="#7874A0" transform="translate(56.430106, 6.716418) scale(-1, 1) translate(-56.430106, -6.716418) "></path>
                    <path d="M27.7915062,2.19997085 L39.9729703,2.66090376 C40.3879911,2.67660768 40.7577869,2.92743338 40.9258527,3.30722634 L43.7799019,9.75676893 C44.022828,10.3057301 43.7747375,10.9476817 43.2257763,11.1906078 C43.0872388,11.2519134 42.9374157,11.2835821 42.7859197,11.2835821 L28.5729685,11.2835821 C28.022354,11.2835821 27.5587123,10.8718552 27.4936314,10.3251004 L26.6710692,3.41462485 C26.6001146,2.8185234 27.0258301,2.27776757 27.6219316,2.2068129 C27.6781918,2.20011619 27.7348894,2.19782853 27.7915062,2.19997085 Z" id="Rectangle-Copy-10" fill="#7874A0" transform="translate(35.271252, 6.741361) scale(-1, 1) translate(-35.271252, -6.741361) "></path>
                    <path d="M9.58637254,2.8374245 L18.3647504,3.50502467 C20.5739131,3.67303264 22.7038733,4.40099494 24.5537468,5.62025482 L26.6244652,6.98507463 C27.4751402,7.54575831 27.7102246,8.68989057 27.1495409,9.54056554 C26.8180559,10.0434979 26.2619106,10.3529209 25.6597884,10.3694202 L12.6192803,10.7267549 C12.2091849,10.7379923 11.8276995,10.5173771 11.6329008,10.1563259 L8.54734097,4.43737093 C8.26229596,3.90905204 8.45950841,3.24969032 8.98782731,2.96464531 C9.17104256,2.8657948 9.37879115,2.82163783 9.58637254,2.8374245 Z" id="Rectangle-Copy-11" fill="#7874A0" transform="translate(17.931798, 6.780310) scale(-1, 1) translate(-17.931798, -6.780310) "></path>
                </g>
                <rect id="Rectangle-path-Copy" fill="#ED6E00" fill-rule="nonzero" x="48.9130435" y="12.8955224" width="4.34782609" height="1.07462687" rx="0.537313433"></rect>
                <rect id="Rectangle-path-Copy-2" fill="#ED6E00" fill-rule="nonzero" x="30.4347826" y="12.8955224" width="4.34782609" height="1.07462687" rx="0.537313433"></rect>
                <path d="M92.9347826,16.119403 L97.9534647,16.119403 L97.9534647,16.119403 C98.2289188,16.8307944 98.3832574,17.5833034 98.4100735,18.3456902 L98.4451626,19.3432836 L92.9347826,19.3432836 C92.3344731,19.3432836 91.8478261,18.8566366 91.8478261,18.2563271 L91.8478261,17.2063595 C91.8478261,16.60605 92.3344731,16.119403 92.9347826,16.119403 Z" id="Rectangle-2-Copy" fill="#ED6E00"></path>
                <path d="M1.08695652,23.1044776 L98.9130435,23.1044776 C99.513353,23.1044776 100,23.5911246 100,24.1914341 L100,27.3906554 C100,27.9909649 99.513353,28.4776119 98.9130435,28.4776119 L1.08695652,28.4776119 C0.486647011,28.4776119 2.07191816e-15,27.9909649 1.99840144e-15,27.3906554 L0,24.1914341 C-7.35167121e-17,23.5911246 0.486647011,23.1044776 1.08695652,23.1044776 Z" id="Rectangle-Copy-6" fill="#806EA0"></path>
                <g id="Group-7-Copy-3" transform="translate(72.826087, 19.880597)">
                    <path d="M0,8.67967853 C0,3.88602444 3.89317609,0 8.69565217,0 C13.4981283,0 17.3913043,3.88602444 17.3913043,8.67967853" id="Path" fill="#FFFFFF"></path>
                    <path d="M8.69565217,16.119403 C12.8120602,16.119403 16.1490683,12.7885249 16.1490683,8.67967853 C16.1490683,4.57083217 12.8120602,1.23995408 8.69565217,1.23995408 C4.5792441,1.23995408 1.24223602,4.57083217 1.24223602,8.67967853 C1.24223602,12.7885249 4.5792441,16.119403 8.69565217,16.119403 Z" id="Path" fill="#2B0D61"></path>
                    <ellipse id="Oval-2-Copy" fill="#FFFFFF" cx="8.69565217" cy="8.67967853" rx="3.10559006" ry="3.09988519"></ellipse>
                </g>
                <g id="Group-7-Copy-4" transform="translate(9.782609, 19.880597)">
                    <path d="M0,8.67967853 C0,3.88602444 3.89317609,0 8.69565217,0 C13.4981283,0 17.3913043,3.88602444 17.3913043,8.67967853" id="Path" fill="#FFFFFF"></path>
                    <path d="M8.69565217,16.119403 C12.8120602,16.119403 16.1490683,12.7885249 16.1490683,8.67967853 C16.1490683,4.57083217 12.8120602,1.23995408 8.69565217,1.23995408 C4.5792441,1.23995408 1.24223602,4.57083217 1.24223602,8.67967853 C1.24223602,12.7885249 4.5792441,16.119403 8.69565217,16.119403 Z" id="Path" fill="#2B0D61"></path>
                    <ellipse id="Oval-2-Copy" fill="#FFFFFF" cx="8.69565217" cy="8.67967853" rx="3.10559006" ry="3.09988519"></ellipse>
                </g>
            </g>
        </g>
    </g>
</svg>