<?xml version="1.0" encoding="UTF-8"?>
<svg width="122px" height="80px" viewBox="0 0 122 80" version="1.1" xmlns="http://www.w3.org/2000/svg" xmlns:xlink="http://www.w3.org/1999/xlink">
    <!-- Generator: Sketch 49.2 (51160) - http://www.bohemiancoding.com/sketch -->
    <title>camion</title>
    <desc>Created with Sketch.</desc>
    <defs></defs>
    <g id="Ilustraciones" stroke="none" stroke-width="1" fill="none" fill-rule="evenodd">
        <g id="Group-34">
            <rect id="Rectangle-3-Copy-9" x="0" y="0" width="122" height="80"></rect>
            <g id="Group-3-Copy-5" transform="translate(11.000000, 24.000000)">
                <rect id="Rectangle-14-Copy-2" fill="#D5CFDF" x="-9.51461132e-14" y="44" width="100" height="4" rx="2"></rect>
                <path d="M3.48837209,34.6987952 L51.744186,34.6987952 L51.744186,21.9759036 L74.4186047,21.9759036 L76.1627907,21.9759036 L96.6967955,25.2880901 C97.2602283,25.3789732 97.6744186,25.8653271 97.6744186,26.4360427 L97.6744186,39.319137 C97.6744186,39.9613286 97.1538195,40.4819277 96.5116279,40.4819277 L3.48837209,40.4819277 C2.84618052,40.4819277 2.3255814,39.9613286 2.3255814,39.319137 L2.3255814,35.8615859 C2.3255814,35.2193943 2.84618052,34.6987952 3.48837209,34.6987952 Z" id="Rectangle-Copy-5" fill="#553D81"></path>
                <rect id="Rectangle-Copy-6" fill="#806EA0" x="0" y="37.0120482" width="100" height="3.46987952" rx="1.1627907"></rect>
                <path d="M5.81395349,0 L50.5813953,0 C51.2235869,-1.17968678e-16 51.744186,0.520599128 51.744186,1.1627907 L51.744186,34.6987952 L4.65116279,34.6987952 L4.65116279,1.1627907 C4.65116279,0.520599128 5.17176192,-1.43634356e-15 5.81395349,-1.55431223e-15 Z" id="Rectangle-Copy-8" fill="#806EA0"></path>
                <g id="Group-7-Copy-3" transform="translate(74.418605, 32.963855)">
                    <path d="M0,8.09638554 C0,3.62487528 3.6441939,0 8.13953488,0 C12.6348759,0 16.2790698,3.62487528 16.2790698,8.09638554" id="Path" fill="#FFFFFF"></path>
                    <path d="M8.13953488,15.0361446 C11.9926843,15.0361446 15.1162791,11.9291086 15.1162791,8.09638554 C15.1162791,4.26366246 11.9926843,1.15662651 8.13953488,1.15662651 C4.28638547,1.15662651 1.1627907,4.26366246 1.1627907,8.09638554 C1.1627907,11.9291086 4.28638547,15.0361446 8.13953488,15.0361446 Z" id="Path" fill="#2B0D61"></path>
                    <ellipse id="Oval-2-Copy" fill="#FFFFFF" cx="8.13953488" cy="8.09638554" rx="2.90697674" ry="2.89156627"></ellipse>
                </g>
                <g id="Group-7-Copy-4" transform="translate(16.279070, 32.963855)">
                    <path d="M0,8.09638554 C0,3.62487528 3.6441939,0 8.13953488,0 C12.6348759,0 16.2790698,3.62487528 16.2790698,8.09638554" id="Path" fill="#FFFFFF"></path>
                    <path d="M8.13953488,15.0361446 C11.9926843,15.0361446 15.1162791,11.9291086 15.1162791,8.09638554 C15.1162791,4.26366246 11.9926843,1.15662651 8.13953488,1.15662651 C4.28638547,1.15662651 1.1627907,4.26366246 1.1627907,8.09638554 C1.1627907,11.9291086 4.28638547,15.0361446 8.13953488,15.0361446 Z" id="Path" fill="#2B0D61"></path>
                    <ellipse id="Oval-2-Copy" fill="#FFFFFF" cx="8.13953488" cy="8.09638554" rx="2.90697674" ry="2.89156627"></ellipse>
                </g>
                <g id="Group-2" transform="translate(51.744186, 10.409639)">
                    <g id="Group">
                        <path d="M1.1627907,1.32264237e-16 L14.6920664,4.4408921e-16 C14.9660433,-9.29201398e-17 15.2312209,0.096742866 15.440834,0.273167531 L30.2325581,12.7228916 L0,12.7228916 L0,1.1627907 C-7.8645785e-17,0.520599128 0.520599128,3.40013282e-16 1.1627907,2.22044605e-16 Z" id="Rectangle-Copy-7" fill="#553D81"></path>
                        <path d="M16.2986091,2.31325301 L23.4283387,2.31325301 C24.0705303,2.31325301 24.5911294,2.83385214 24.5911294,3.47604371 L24.5911294,11.5601009 C24.5911294,12.2022924 24.0705303,12.7228916 23.4283387,12.7228916 L5.23892084,12.7228916 C4.91782505,12.7228916 4.65752549,12.462592 4.65752549,12.1414962 C4.65752549,11.9712392 4.73215474,11.8095382 4.86171395,11.6990762 L15.5441953,2.59120358 C15.7546176,2.41179778 16.0220879,2.31325301 16.2986091,2.31325301 Z" id="Rectangle-Copy-9" fill="#7874A0" transform="translate(14.621146, 7.518072) scale(-1, 1) translate(-14.621146, -7.518072) "></path>
                    </g>
                    <rect id="Rectangle-path-Copy" fill="#ED6E00" fill-rule="nonzero" x="9.30232558" y="13.8795181" width="4.65116279" height="1.15662651" rx="0.578313253"></rect>
                </g>
                <path d="M94.1860465,27.7590361 L97.6744186,27.7590361 L97.6744186,31.2289157 L94.1860465,31.2289157 C93.5438549,31.2289157 93.0232558,30.7083165 93.0232558,30.066125 L93.0232558,28.9218268 C93.0232558,28.2796353 93.5438549,27.7590361 94.1860465,27.7590361 Z" id="Rectangle-2-Copy" fill="#ED6E00"></path>
            </g>
        </g>
    </g>
</svg>