<?xml version="1.0" encoding="UTF-8"?>
<svg width="122px" height="80px" viewBox="0 0 122 80" version="1.1" xmlns="http://www.w3.org/2000/svg" xmlns:xlink="http://www.w3.org/1999/xlink">
    <!-- Generator: Sketch 49.2 (51160) - http://www.bohemiancoding.com/sketch -->
    <title>camioneta_baranda</title>
    <desc>Created with Sketch.</desc>
    <defs></defs>
    <g id="Ilustraciones" stroke="none" stroke-width="1" fill="none" fill-rule="evenodd">
        <g id="Group-28">
            <rect id="Rectangle-3-Copy-5" x="0" y="0" width="122" height="80"></rect>
            <g id="Group-3-Copy-6" transform="translate(11.000000, 21.000000)">
                <rect id="Rectangle-14-Copy-2" fill="#D5CFDF" x="-9.51461132e-14" y="47" width="100" height="4" rx="2"></rect>
                <path d="M3.48837209,37.5172414 L51.744186,37.5172414 L51.744186,24.6206897 L74.4186047,24.6206897 L76.1627907,24.6206897 L96.6992576,27.9784881 C97.2615626,28.0704273 97.6744186,28.5562692 97.6744186,29.1260409 L97.6744186,42.2165196 C97.6744186,42.8587112 97.1538195,43.3793103 96.5116279,43.3793103 L3.48837209,43.3793103 C2.84618052,43.3793103 2.3255814,42.8587112 2.3255814,42.2165196 L2.3255814,38.6800321 C2.3255814,38.0378405 2.84618052,37.5172414 3.48837209,37.5172414 Z" id="Rectangle-Copy-5" fill="#553D81"></path>
                <rect id="Rectangle-Copy-6" fill="#806EA0" x="0" y="39.862069" width="100" height="3.51724138" rx="1.1627907"></rect>
                <path d="M5.81395349,2.34482759 L50.5813953,2.34482759 C51.2235869,2.34482759 51.744186,2.86542671 51.744186,3.50761828 L51.744186,37.5172414 L4.65116279,37.5172414 L4.65116279,3.50761828 C4.65116279,2.86542671 5.17176192,2.34482759 5.81395349,2.34482759 Z" id="Rectangle-Copy-8" fill="#806EA0"></path>
                <rect id="Rectangle-Copy-10" fill="#553D81" x="4.65116279" y="4.68965517" width="47.0930233" height="2.34482759"></rect>
                <rect id="Rectangle-Copy-12" fill="#553D81" x="4.65116279" y="14.0689655" width="47.0930233" height="2.34482759"></rect>
                <rect id="Rectangle-Copy-14" fill="#553D81" x="4.65116279" y="23.4482759" width="47.0930233" height="2.34482759"></rect>
                <rect id="Rectangle-Copy-16" fill="#553D81" x="4.65116279" y="32.8275862" width="47.0930233" height="2.34482759"></rect>
                <path d="M5.81395349,0 L50.5813953,0 C51.2235869,-4.11063353e-15 51.744186,0.520599128 51.744186,1.1627907 L51.744186,2.34482759 L4.65116279,2.34482759 L4.65116279,1.1627907 C4.65116279,0.520599128 5.17176192,1.17968678e-16 5.81395349,0 Z" id="Rectangle-Copy-17" fill="#553D81"></path>
                <polygon id="Rectangle-Copy-18" fill="#553D81" points="6.97674419 2.34482759 6.97674419 37.5172414 4.65116279 37.5172414 4.65116279 2.34482759"></polygon>
                <polygon id="Rectangle-Copy-19" fill="#553D81" points="51.744186 2.34482759 51.744186 37.5172414 49.4186047 37.5172414 49.4186047 2.34482759"></polygon>
                <rect id="Rectangle-Copy-11" fill="#553D81" x="4.65116279" y="9.37931034" width="47.0930233" height="2.34482759"></rect>
                <rect id="Rectangle-Copy-13" fill="#553D81" x="4.65116279" y="18.7586207" width="47.0930233" height="2.34482759"></rect>
                <rect id="Rectangle-Copy-15" fill="#553D81" x="4.65116279" y="28.137931" width="47.0930233" height="2.34482759"></rect>
                <g id="Group-7-Copy-3" transform="translate(74.418605, 35.758621)">
                    <path d="M0,8.20689655 C0,3.67435274 3.6441939,0 8.13953488,0 C12.6348759,0 16.2790698,3.67435274 16.2790698,8.20689655" id="Path" fill="#FFFFFF"></path>
                    <path d="M8.13953488,15.2413793 C11.9926843,15.2413793 15.1162791,12.0919341 15.1162791,8.20689655 C15.1162791,4.321859 11.9926843,1.17241379 8.13953488,1.17241379 C4.28638547,1.17241379 1.1627907,4.321859 1.1627907,8.20689655 C1.1627907,12.0919341 4.28638547,15.2413793 8.13953488,15.2413793 Z" id="Path" fill="#2B0D61"></path>
                    <ellipse id="Oval-2-Copy" fill="#FFFFFF" cx="8.13953488" cy="8.20689655" rx="2.90697674" ry="2.93103448"></ellipse>
                </g>
                <g id="Group-7-Copy-4" transform="translate(16.279070, 35.758621)">
                    <path d="M0,8.20689655 C0,3.67435274 3.6441939,0 8.13953488,0 C12.6348759,0 16.2790698,3.67435274 16.2790698,8.20689655" id="Path" fill="#FFFFFF"></path>
                    <path d="M8.13953488,15.2413793 C11.9926843,15.2413793 15.1162791,12.0919341 15.1162791,8.20689655 C15.1162791,4.321859 11.9926843,1.17241379 8.13953488,1.17241379 C4.28638547,1.17241379 1.1627907,4.321859 1.1627907,8.20689655 C1.1627907,12.0919341 4.28638547,15.2413793 8.13953488,15.2413793 Z" id="Path" fill="#2B0D61"></path>
                    <ellipse id="Oval-2-Copy" fill="#FFFFFF" cx="8.13953488" cy="8.20689655" rx="2.90697674" ry="2.93103448"></ellipse>
                </g>
                <g id="Group-2" transform="translate(51.744186, 12.896552)">
                    <g id="Group">
                        <path d="M1.1627907,1.34069568e-16 L14.687656,-6.66133815e-16 C14.9643063,-1.20838325e-15 15.2318928,0.0986366193 15.4423554,0.278194107 L30.2325581,12.8965517 L0,12.8965517 L0,1.1627907 C-7.8645785e-17,0.520599128 0.520599128,3.40013282e-16 1.1627907,2.22044605e-16 Z" id="Rectangle-Copy-7" fill="#553D81"></path>
                        <path d="M16.3030388,2.34482759 L23.4283387,2.34482759 C24.0705303,2.34482759 24.5911294,2.86542671 24.5911294,3.50761828 L24.5911294,11.733761 C24.5911294,12.3759526 24.0705303,12.8965517 23.4283387,12.8965517 L5.22277104,12.8965517 C4.90167526,12.8965517 4.64137569,12.6362522 4.64137569,12.3151564 C4.64137569,12.14626 4.71482159,11.9857116 4.84260831,11.8752736 L15.5427134,2.62785274 C15.7539569,2.44528843 16.0238372,2.34482759 16.3030388,2.34482759 Z" id="Rectangle-Copy-9" fill="#7874A0" transform="translate(14.621146, 7.620690) scale(-1, 1) translate(-14.621146, -7.620690) "></path>
                    </g>
                    <rect id="Rectangle-path-Copy" fill="#ED6E00" fill-rule="nonzero" x="9.30232558" y="14.0689655" width="4.65116279" height="1.17241379" rx="0.586206897"></rect>
                </g>
                <path d="M94.1860465,30.4827586 L97.6744186,30.4827586 L97.6744186,34 L94.1860465,34 C93.5438549,34 93.0232558,33.4794009 93.0232558,32.8372093 L93.0232558,31.6455493 C93.0232558,31.0033577 93.5438549,30.4827586 94.1860465,30.4827586 Z" id="Rectangle-2-Copy" fill="#ED6E00"></path>
            </g>
        </g>
    </g>
</svg>