<?xml version="1.0" encoding="UTF-8"?>
<svg width="122px" height="80px" viewBox="0 0 122 80" version="1.1" xmlns="http://www.w3.org/2000/svg" xmlns:xlink="http://www.w3.org/1999/xlink">
    <!-- Generator: Sketch 49.2 (51160) - http://www.bohemiancoding.com/sketch -->
    <title>camion_otrosusos</title>
    <desc>Created with Sketch.</desc>
    <defs></defs>
    <g id="Ilustraciones" stroke="none" stroke-width="1" fill="none" fill-rule="evenodd">
        <g id="Group-22">
            <rect id="Rectangle-3" x="0" y="0" width="122" height="80"></rect>
            <g id="Group-Copy" transform="translate(6.000000, 25.000000)">
                <rect id="Rectangle-14-Copy-2" fill="#D5CFDF" x="0" y="43" width="110" height="4" rx="2"></rect>
                <path d="M2.98913043,30.55 L64.5652174,30.55 C65.2255579,30.55 65.7608696,30.0146883 65.7608696,29.3543478 L65.7608696,12.4519482 C65.7608696,11.7916077 66.2961813,11.256296 66.9565217,11.256296 C66.9865963,11.256296 67.0166602,11.2574307 67.0466492,11.2596977 L89.0310874,12.9215983 C89.0610764,12.9238653 89.0911403,12.925 89.1212149,12.925 L90.0746571,12.925 C90.2051646,12.925 90.3347917,12.9463667 90.4583951,12.9882524 L106.796781,18.5248654 C107.282128,18.6893354 107.608696,19.1448092 107.608696,19.6572652 L107.608696,36.4043478 C107.608696,37.0646883 107.073384,37.6 106.413043,37.6 L2.98913043,37.6 C2.32878997,37.6 1.79347826,37.0646883 1.79347826,36.4043478 L1.79347826,31.7456522 C1.79347826,31.0853117 2.32878997,30.55 2.98913043,30.55 Z" id="Rectangle-Copy-5" fill="#553D81"></path>
                <rect id="Rectangle-Copy-6" fill="#806EA0" x="0" y="35.8375" width="110" height="4.7" rx="1.19565217"></rect>
                <path d="M66.7091454,1.7625 L82.6844694,1.7625 C82.9480633,1.7625 83.199763,1.87221677 83.3791796,2.06532655 L95.6521739,15.275 L65.7608696,15.275 L65.7608696,2.71077586 C65.7608696,2.18705756 66.1854271,1.7625 66.7091454,1.7625 Z" id="Rectangle-Copy-7" fill="#553D81"></path>
                <path d="M91.5609483,7.52005906 L91.5609483,14.0894585 C91.5609483,14.749799 91.0256366,15.2851107 90.3652961,15.2851107 L85.0877709,15.2851107 C84.4274304,15.2851107 83.8921187,14.749799 83.8921187,14.0894585 C83.8921187,13.8171236 83.9850889,13.5529487 84.1556485,13.3406382 L89.4331737,6.77123875 C89.8467357,6.25644173 90.5993194,6.17437457 91.1141165,6.58793661 C91.3966137,6.81488068 91.5609483,7.1576942 91.5609483,7.52005906 Z" id="Rectangle-Copy-9" fill="#7874A0" transform="translate(87.329387, 10.580055) scale(-1, 1) translate(-87.329387, -10.580055) "></path>
                <path d="M73.5326087,5.875 L80.7065217,5.875 C81.3668622,5.875 81.9021739,6.41031171 81.9021739,7.07065217 L81.9021739,14.0793478 C81.9021739,14.7396883 81.3668622,15.275 80.7065217,15.275 L73.5326087,15.275 C72.8722682,15.275 72.3369565,14.7396883 72.3369565,14.0793478 L72.3369565,7.07065217 C72.3369565,6.41031171 72.8722682,5.875 73.5326087,5.875 Z" id="Rectangle-Copy-21" fill="#7874A0" transform="translate(77.119565, 10.575000) scale(-1, 1) translate(-77.119565, -10.575000) "></path>
                <rect id="Rectangle-path-Copy" fill="#ED6E00" fill-rule="nonzero" x="74.1304348" y="16.45" width="3.58695652" height="1.175" rx="0.5875"></rect>
                <rect id="Rectangle-20" fill="#553D81" x="63.9673913" y="0" width="2.39130435" height="31.725" rx="1.19565217"></rect>
                <rect id="Rectangle-20-Copy" fill="#553D81" transform="translate(76.521739, 2.937500) rotate(-90.000000) translate(-76.521739, -2.937500) " x="75.326087" y="-6.4625" width="2.39130435" height="18.8" rx="1.19565217"></rect>
                <g id="Group-2-Copy" transform="translate(102.826087, 24.675000)" fill="#ED6E00">
                    <path d="M1.19565217,0 L4.7826087,0 L4.7826087,5.875 L1.19565217,5.875 C0.535311712,5.875 8.08683833e-17,5.33968829 0,4.67934783 L0,1.19565217 C-8.08683833e-17,0.535311712 0.535311712,1.21302575e-16 1.19565217,0 Z" id="Rectangle-2-Copy"></path>
                </g>
                <g id="Group-7-Copy-5" transform="translate(40.652174, 34.075000)">
                    <path d="M0,7.05 C0,3.15639251 3.21187027,0 7.17391304,0 C11.1359558,0 14.3478261,3.15639251 14.3478261,7.05" id="Path" fill="#FFFFFF"></path>
                    <path d="M7.17391304,12.925 C10.4756154,12.925 13.1521739,10.2946729 13.1521739,7.05 C13.1521739,3.80532709 10.4756154,1.175 7.17391304,1.175 C3.87221073,1.175 1.19565217,3.80532709 1.19565217,7.05 C1.19565217,10.2946729 3.87221073,12.925 7.17391304,12.925 Z" id="Path" fill="#2B0D61"></path>
                    <ellipse id="Oval-2-Copy" fill="#FFFFFF" cx="7.17391304" cy="7.05" rx="2.39130435" ry="2.35"></ellipse>
                </g>
                <g id="Group-7-Copy-7" transform="translate(19.130435, 34.075000)">
                    <path d="M0,7.05 C0,3.15639251 3.21187027,0 7.17391304,0 C11.1359558,0 14.3478261,3.15639251 14.3478261,7.05" id="Path" fill="#FFFFFF"></path>
                    <path d="M7.17391304,12.925 C10.4756154,12.925 13.1521739,10.2946729 13.1521739,7.05 C13.1521739,3.80532709 10.4756154,1.175 7.17391304,1.175 C3.87221073,1.175 1.19565217,3.80532709 1.19565217,7.05 C1.19565217,10.2946729 3.87221073,12.925 7.17391304,12.925 Z" id="Path" fill="#2B0D61"></path>
                    <ellipse id="Oval-2-Copy" fill="#FFFFFF" cx="7.17391304" cy="7.05" rx="2.39130435" ry="2.35"></ellipse>
                </g>
                <g id="Group-7-Copy-6" transform="translate(87.880435, 34.075000)">
                    <path d="M0,7.05 C0,3.15639251 3.21187027,0 7.17391304,0 C11.1359558,0 14.3478261,3.15639251 14.3478261,7.05" id="Path" fill="#FFFFFF"></path>
                    <path d="M7.17391304,12.925 C10.4756154,12.925 13.1521739,10.2946729 13.1521739,7.05 C13.1521739,3.80532709 10.4756154,1.175 7.17391304,1.175 C3.87221073,1.175 1.19565217,3.80532709 1.19565217,7.05 C1.19565217,10.2946729 3.87221073,12.925 7.17391304,12.925 Z" id="Path" fill="#2B0D61"></path>
                    <ellipse id="Oval-2-Copy" fill="#FFFFFF" cx="7.17391304" cy="7.05" rx="2.39130435" ry="2.35"></ellipse>
                </g>
            </g>
        </g>
    </g>
</svg>