<?xml version="1.0" encoding="UTF-8"?>
<svg width="122px" height="80px" viewBox="0 0 122 80" version="1.1" xmlns="http://www.w3.org/2000/svg" xmlns:xlink="http://www.w3.org/1999/xlink">
    <!-- Generator: Sketch 49.2 (51160) - http://www.bohemiancoding.com/sketch -->
    <title>camioneta_9asientos</title>
    <desc>Created with Sketch.</desc>
    <defs></defs>
    <g id="Ilustraciones" stroke="none" stroke-width="1" fill="none" fill-rule="evenodd">
        <g id="Group-37">
            <rect id="Rectangle-3-Copy-11" x="0" y="0" width="122" height="80"></rect>
            <g id="Group-4-Copy" transform="translate(11.000000, 29.000000)">
                <rect id="Rectangle-14-Copy-2" fill="#D5CFDF" x="0" y="39" width="100" height="4" rx="2"></rect>
                <path d="M4.21052632,12.2098765 L72.1052632,12.2098765 L94.7380617,14.1122424 C96.2251069,14.2372338 97.3684211,15.4806791 97.3684211,16.9729681 L97.3684211,32.4875066 C97.3684211,33.0160088 96.9399854,33.4444444 96.4114833,33.4444444 L5.16746411,33.4444444 C4.63896196,33.4444444 4.21052632,33.0160088 4.21052632,32.4875066 L4.21052632,12.2098765 Z" id="Rectangle-11-Copy" fill="#553D81"></path>
                <path d="M11.1087023,4.57999041e-20 L55.867053,2.66453526e-15 C57.5119664,2.36236956e-15 59.0993754,0.605240438 60.3267422,1.70037099 L72.1052632,12.2098765 L4.21052632,12.2098765 L10.2587428,0.517280185 C10.4231021,0.199535895 10.7509658,6.05493559e-16 11.1087023,2.22044605e-16 Z" id="Rectangle-11-Copy-2" fill="#553D81"></path>
                <rect id="Rectangle-11-Copy-4" fill="#806EA0" x="3.15789474" y="26.5432099" width="96.3157895" height="7.43209877" rx="0.956937799"></rect>
                <rect id="Rectangle-path-Copy-11" fill="#ED6E00" fill-rule="nonzero" x="28.4210526" y="15.9259259" width="4.21052632" height="1.0617284" rx="0.530864198"></rect>
                <path d="M29.7200325,2.12345679 L43.1578947,2.12345679 L44.7368421,14.3333333 L26.3157895,14.3333333 L28.7845753,2.8787767 C28.8795559,2.43809006 29.2692265,2.12345679 29.7200325,2.12345679 Z" id="Rectangle-Copy-4" fill="#7874A0"></path>
                <path d="M13.2867608,2.12345679 L25.6061828,2.12345679 C26.1346849,2.12345679 26.5631206,2.55189244 26.5631206,3.08039459 C26.5631206,3.16123249 26.5528775,3.24174462 26.5326361,3.32000733 L23.8697355,13.6160083 C23.7605089,14.0383285 23.3794987,14.3333333 22.9432822,14.3333333 L7.89473684,14.3333333 L12.3946081,2.73428247 C12.5374524,2.36608118 12.8918219,2.12345679 13.2867608,2.12345679 Z" id="Rectangle-Copy-20" fill="#7874A0"></path>
                <path d="M58.5810073,2.12345679 L68.4210526,2.12345679 L66.3157895,14.3333333 L46.3157895,14.3333333 L45.2631579,12.7407407 L53.8240721,4.10584332 C55.081913,2.8371322 56.7944487,2.12345679 58.5810073,2.12345679 Z" id="Rectangle-Copy-5" fill="#7874A0" transform="translate(56.842105, 8.228395) scale(-1, 1) translate(-56.842105, -8.228395) "></path>
                <path d="M92.0095694,19.6419753 L97.3684211,19.6419753 L97.3684211,23.8888889 L92.0095694,23.8888889 C91.4810672,23.8888889 91.0526316,23.4604532 91.0526316,22.9319511 L91.0526316,20.5989131 C91.0526316,20.070411 91.4810672,19.6419753 92.0095694,19.6419753 Z" id="Rectangle-2" fill="#ED6E00"></path>
                <g id="Group-2" transform="translate(15.789474, 24.419753)">
                    <g id="Group-3">
                        <path d="M0,10.0864198 C0,4.51584394 4.4771525,0 10,0 C15.5228475,0 20,4.51584394 20,10.0864198" id="Path" fill="#FFFFFF"></path>
                        <g id="Group" transform="translate(1.578947, 1.592593)">
                            <path d="M8.42105263,16.9876543 C13.0718716,16.9876543 16.8421053,13.1848384 16.8421053,8.49382716 C16.8421053,3.80281595 13.0718716,0 8.42105263,0 C3.77023369,0 0,3.80281595 0,8.49382716 C0,13.1848384 3.77023369,16.9876543 8.42105263,16.9876543 Z" id="Path" fill="#2B0D61"></path>
                            <ellipse id="Oval-2-Copy" fill="#FFFFFF" cx="8.42105263" cy="8.49382716" rx="4.73684211" ry="4.77777778"></ellipse>
                        </g>
                    </g>
                    <g id="Group-3-Copy" transform="translate(53.157895, 0.000000)">
                        <path d="M0,10.0864198 C0,4.51584394 4.4771525,0 10,0 C15.5228475,0 20,4.51584394 20,10.0864198" id="Path" fill="#FFFFFF"></path>
                        <g id="Group" transform="translate(1.578947, 1.592593)">
                            <path d="M8.42105263,16.9876543 C13.0718716,16.9876543 16.8421053,13.1848384 16.8421053,8.49382716 C16.8421053,3.80281595 13.0718716,0 8.42105263,0 C3.77023369,0 0,3.80281595 0,8.49382716 C0,13.1848384 3.77023369,16.9876543 8.42105263,16.9876543 Z" id="Path" fill="#2B0D61"></path>
                            <ellipse id="Oval-2-Copy" fill="#FFFFFF" cx="8.42105263" cy="8.49382716" rx="4.73684211" ry="4.77777778"></ellipse>
                        </g>
                    </g>
                </g>
                <rect id="Rectangle-19" fill="#2B0D61" x="0" y="11.1481481" width="4.73684211" height="15.9259259" rx="1.05263158"></rect>
            </g>
        </g>
    </g>
</svg>