<?xml version="1.0" encoding="UTF-8"?>
<svg width="122px" height="80px" viewBox="0 0 122 80" version="1.1" xmlns="http://www.w3.org/2000/svg" xmlns:xlink="http://www.w3.org/1999/xlink">
    <!-- Generator: Sketch 49.2 (51160) - http://www.bohemiancoding.com/sketch -->
    <title>camioneta pickup</title>
    <desc>Created with Sketch.</desc>
    <defs></defs>
    <g id="Ilustraciones" stroke="none" stroke-width="1" fill="none" fill-rule="evenodd">
        <g id="Group-36">
            <rect id="Rectangle-3-Copy-17" x="0" y="0" width="122" height="80"></rect>
            <g id="Group-3-Copy" transform="translate(11.000000, 34.000000)">
                <rect id="Rectangle-14-Copy-2" fill="#D5CFDF" x="-9.51461132e-14" y="34" width="100" height="4" rx="2"></rect>
                <path d="M3.48837209,12.8615385 L74.4186047,12.8615385 L76.1627907,12.8615385 L96.6372909,15.0872571 C97.2273692,15.1514027 97.6744186,15.6496831 97.6744186,16.2432376 L97.6744186,29.2372093 C97.6744186,29.8794009 97.1538195,30.4 96.5116279,30.4 L3.48837209,30.4 C2.84618052,30.4 2.3255814,29.8794009 2.3255814,29.2372093 L2.3255814,14.0243292 C2.3255814,13.3821376 2.84618052,12.8615385 3.48837209,12.8615385 Z" id="Rectangle-Copy-5" fill="#553D81"></path>
                <rect id="Rectangle-Copy-6" fill="#806EA0" x="0" y="26.8923077" width="100" height="3.50769231" rx="1.1627907"></rect>
                <g id="Group-7-Copy-3" transform="translate(74.418605, 22.800000)">
                    <path d="M0,8.18461538 C0,3.66437712 3.6441939,0 8.13953488,0 C12.6348759,0 16.2790698,3.66437712 16.2790698,8.18461538" id="Path" fill="#FFFFFF"></path>
                    <path d="M8.13953488,15.2 C11.9926843,15.2 15.1162791,12.0591053 15.1162791,8.18461538 C15.1162791,4.31012545 11.9926843,1.16923077 8.13953488,1.16923077 C4.28638547,1.16923077 1.1627907,4.31012545 1.1627907,8.18461538 C1.1627907,12.0591053 4.28638547,15.2 8.13953488,15.2 Z" id="Path" fill="#2B0D61"></path>
                    <ellipse id="Oval-2-Copy" fill="#FFFFFF" cx="8.13953488" cy="8.18461538" rx="2.90697674" ry="2.92307692"></ellipse>
                </g>
                <g id="Group-7-Copy-4" transform="translate(16.279070, 22.800000)">
                    <path d="M0,8.18461538 C0,3.66437712 3.6441939,0 8.13953488,0 C12.6348759,0 16.2790698,3.66437712 16.2790698,8.18461538" id="Path" fill="#FFFFFF"></path>
                    <path d="M8.13953488,15.2 C11.9926843,15.2 15.1162791,12.0591053 15.1162791,8.18461538 C15.1162791,4.31012545 11.9926843,1.16923077 8.13953488,1.16923077 C4.28638547,1.16923077 1.1627907,4.31012545 1.1627907,8.18461538 C1.1627907,12.0591053 4.28638547,15.2 8.13953488,15.2 Z" id="Path" fill="#2B0D61"></path>
                    <ellipse id="Oval-2-Copy" fill="#FFFFFF" cx="8.13953488" cy="8.18461538" rx="2.90697674" ry="2.92307692"></ellipse>
                </g>
                <g id="Group-2" transform="translate(32.558140, 0.000000)">
                    <g id="Group">
                        <path d="M2.75993132,7.09460784e-17 L28.0606351,4.6629367e-15 C28.3367487,4.61221546e-15 28.603852,0.0982549776 28.8141466,0.277182053 L43.6046512,12.8615385 L0,12.8615385 L1.60768767,1.006532 C1.68587189,0.430005612 2.17812771,9.95054009e-16 2.75993132,8.8817842e-16 Z" id="Rectangle-Copy-7" fill="#553D81"></path>
                        <path d="M29.8105966,2.33846154 L36.8012217,2.33846154 C37.4434133,2.33846154 37.9640124,2.85906067 37.9640124,3.50125224 C37.9640124,3.54391907 37.961664,3.58655356 37.9569779,3.62896227 L37.0511619,11.8264578 C36.9860579,12.4156394 36.4881734,12.8615385 35.8954057,12.8615385 L18.7344365,12.8615385 C18.4133408,12.8615385 18.1530412,12.6012389 18.1530412,12.2801431 C18.1530412,12.1109737 18.2267238,11.9501938 18.3548657,11.8397495 L29.0514549,2.62046508 C29.2625361,2.43853627 29.5319331,2.33846154 29.8105966,2.33846154 Z" id="Rectangle-Copy-9" fill="#7874A0" transform="translate(28.061416, 7.600000) scale(-1, 1) translate(-28.061416, -7.600000) "></path>
                        <path d="M5.11114813,2.33846154 L14.6562937,2.33846154 C15.2490614,2.33846154 15.7469459,2.7843606 15.8120499,3.3735422 L16.7178659,11.5710377 C16.7883982,12.2093442 16.3281263,12.7839716 15.6898198,12.8545039 C15.6474111,12.8591901 15.6047766,12.8615385 15.5621097,12.8615385 L4.20533212,12.8615385 C3.56314055,12.8615385 3.04254142,12.3409393 3.04254142,11.6987478 C3.04254142,11.6560809 3.04488981,11.6134464 3.04957593,11.5710377 L3.95539194,3.3735422 C4.02049599,2.7843606 4.51838047,2.33846154 5.11114813,2.33846154 Z" id="Rectangle-Copy-10" fill="#7874A0" transform="translate(9.883721, 7.600000) scale(-1, 1) translate(-9.883721, -7.600000) "></path>
                    </g>
                    <rect id="Rectangle-path-Copy" fill="#ED6E00" fill-rule="nonzero" x="22.6744186" y="14.0307692" width="4.65116279" height="1.16923077" rx="0.584615385"></rect>
                    <rect id="Rectangle-path-Copy-2" fill="#ED6E00" fill-rule="nonzero" x="5.23255814" y="14.0307692" width="4.65116279" height="1.16923077" rx="0.584615385"></rect>
                </g>
                <path d="M94.1860465,17.5384615 L97.6744186,17.5384615 L97.6744186,21.0461538 L94.1860465,21.0461538 C93.5438549,21.0461538 93.0232558,20.5255547 93.0232558,19.8833631 L93.0232558,18.7012522 C93.0232558,18.0590607 93.5438549,17.5384615 94.1860465,17.5384615 Z" id="Rectangle-2-Copy" fill="#ED6E00"></path>
            </g>
        </g>
    </g>
</svg>