<?xml version="1.0" encoding="UTF-8"?>
<svg width="122px" height="80px" viewBox="0 0 122 80" version="1.1" xmlns="http://www.w3.org/2000/svg" xmlns:xlink="http://www.w3.org/1999/xlink">
    <!-- Generator: Sketch 49.2 (51160) - http://www.bohemiancoding.com/sketch -->
    <title>camioneta_panel</title>
    <desc>Created with Sketch.</desc>
    <defs></defs>
    <g id="Ilustraciones" stroke="none" stroke-width="1" fill="none" fill-rule="evenodd">
        <g id="Group-42">
            <rect id="Rectangle-3-Copy-3" x="0" y="0" width="122" height="80"></rect>
            <g id="Group-2-Copy" transform="translate(11.000000, 26.000000)">
                <rect id="Rectangle-14-Copy-2" fill="#D5CFDF" x="0" y="42" width="100" height="4" rx="2"></rect>
                <path d="M2.45398773,14.1066667 L74.2331288,14.1066667 L76.0736196,14.1066667 L92.5891747,16.7841506 C96.153783,17.362041 98.7730061,20.4400865 98.7730061,24.0512344 L98.7730061,36.7996728 C98.7730061,37.4773228 98.2236623,38.0266667 97.5460123,38.0266667 L3.6809816,38.0266667 C3.0033316,38.0266667 2.45398773,37.4773228 2.45398773,36.7996728 L2.45398773,14.1066667 Z" id="Rectangle-Copy-5" fill="#553D81"></path>
                <rect id="Rectangle-Copy-6" fill="#806EA0" x="0" y="30.6666667" width="100" height="7.36" rx="1.22699387"></rect>
                <g id="Group-7-Copy-3" transform="translate(74.233129, 30.053333)">
                    <path d="M0,8.58666667 C0,3.84438162 3.84540706,0 8.58895706,0 C13.3325071,0 17.1779141,3.84438162 17.1779141,8.58666667" id="Path" fill="#FFFFFF"></path>
                    <path d="M8.58895706,15.9466667 C12.6548571,15.9466667 15.9509202,12.6514824 15.9509202,8.58666667 C15.9509202,4.52185091 12.6548571,1.22666667 8.58895706,1.22666667 C4.52305706,1.22666667 1.22699387,4.52185091 1.22699387,8.58666667 C1.22699387,12.6514824 4.52305706,15.9466667 8.58895706,15.9466667 Z" id="Path" fill="#2B0D61"></path>
                    <ellipse id="Oval-2-Copy" fill="#FFFFFF" cx="8.58895706" cy="8.58666667" rx="3.06748466" ry="3.06666667"></ellipse>
                </g>
                <g id="Group-7-Copy-4" transform="translate(9.815951, 30.053333)">
                    <path d="M0,8.58666667 C0,3.84438162 3.84540706,0 8.58895706,0 C13.3325071,0 17.1779141,3.84438162 17.1779141,8.58666667" id="Path" fill="#FFFFFF"></path>
                    <path d="M8.58895706,15.9466667 C12.6548571,15.9466667 15.9509202,12.6514824 15.9509202,8.58666667 C15.9509202,4.52185091 12.6548571,1.22666667 8.58895706,1.22666667 C4.52305706,1.22666667 1.22699387,4.52185091 1.22699387,8.58666667 C1.22699387,12.6514824 4.52305706,15.9466667 8.58895706,15.9466667 Z" id="Path" fill="#2B0D61"></path>
                    <ellipse id="Oval-2-Copy" fill="#FFFFFF" cx="8.58895706" cy="8.58666667" rx="3.06748466" ry="3.06666667"></ellipse>
                </g>
                <path d="M9.81595092,0 L56.6473962,-8.8817842e-15 C60.4518127,-9.58064417e-15 64.1085631,1.47256484 66.8512636,4.10907366 L78.5276074,15.3333333 L2.45398773,15.3333333 L2.45398773,7.36196319 C2.45398773,3.29606319 5.75005092,7.46893713e-16 9.81595092,0 Z" id="Rectangle-Copy-7" fill="#553D81"></path>
                <g id="Group" transform="translate(48.466258, 2.453333)">
                    <path d="M18.1135198,1.07899065e-15 L23.0587647,2.22044605e-16 C23.7364147,9.75623194e-17 24.2857586,0.549343865 24.2857586,1.22699387 L24.2857586,11.6530061 C24.2857586,12.3306561 23.7364147,12.88 23.0587647,12.88 L0.613776296,12.88 C0.274951296,12.88 0.000279363483,12.6053281 0.000279363483,12.2665031 C0.000279363483,12.1037652 0.0649379244,11.9476951 0.180026307,11.8326374 L7.70352004,4.31114991 C10.4646789,1.55072736 14.2091721,6.04628755e-15 18.1135198,5.32907052e-15 Z" id="Rectangle-Copy-9" fill="#7874A0" transform="translate(12.142879, 6.440000) scale(-1, 1) translate(-12.142879, -6.440000) "></path>
                    <rect id="Rectangle-path-Copy" fill="#ED6E00" fill-rule="nonzero" x="5.52147239" y="14.1066667" width="4.90797546" height="1.22666667" rx="0.613333333"></rect>
                </g>
                <path d="M95.0920245,22.08 L98.7730061,22.08 L98.7730061,28.2133333 L95.0920245,28.2133333 C94.4143745,28.2133333 93.8650307,27.6639895 93.8650307,26.9863395 L93.8650307,23.3069939 C93.8650307,22.6293439 94.4143745,22.08 95.0920245,22.08 Z" id="Rectangle-2-Copy" fill="#ED6E00"></path>
            </g>
        </g>
    </g>
</svg>