<?xml version="1.0" encoding="UTF-8"?>
<svg width="122px" height="80px" viewBox="0 0 122 80" version="1.1" xmlns="http://www.w3.org/2000/svg" xmlns:xlink="http://www.w3.org/1999/xlink">
    <!-- Generator: Sketch 49.2 (51160) - http://www.bohemiancoding.com/sketch -->
    <title>cuatrimoto</title>
    <desc>Created with Sketch.</desc>
    <defs></defs>
    <g id="Ilustraciones" stroke="none" stroke-width="1" fill="none" fill-rule="evenodd">
        <g id="Group-43">
            <rect id="Rectangle-3-Copy-2" x="0" y="0" width="122" height="80"></rect>
            <g id="Group-2-Copy" transform="translate(26.000000, 31.000000)">
                <rect id="Rectangle-14-Copy-2" fill="#D5CFDF" x="0" y="37" width="70" height="4" rx="2"></rect>
                <path d="M41.9633467,1.3442623 L52.8301887,1.3442623 L52.8301887,4.70491803 L41.9633467,4.70491803 C41.0353273,4.70491803 40.2830189,3.95260962 40.2830189,3.02459016 L40.2830189,3.02459016 C40.2830189,2.09657071 41.0353273,1.3442623 41.9633467,1.3442623 Z" id="Rectangle-15" fill="#553D81"></path>
                <path d="M51.1448614,4.79188601 L61.6408025,4.67977097 L61.4605082,8.03541301 L50.9645671,8.14752805 C50.0945255,8.15682162 49.3816835,7.45904746 49.3723899,6.58900584 C49.3720289,6.55520724 49.3727556,6.52140577 49.3745691,6.48765392 L49.3745691,6.48765392 C49.4252673,5.54405818 50.1999586,4.80197923 51.1448614,4.79188601 Z" id="Rectangle-15-Copy" fill="#553D81" transform="translate(55.506532, 6.413850) rotate(50.000000) translate(-55.506532, -6.413850) "></path>
                <rect id="Rectangle-15-Copy-3" fill="#553D81" x="38.9622642" y="0.672131148" width="7.9245283" height="4.70491803" rx="2.35245902"></rect>
                <rect id="Rectangle-16" fill="#553D81" x="19.8113208" y="14.1147541" width="22.4528302" height="4.03278689"></rect>
                <rect id="Rectangle-16-Copy-4" fill="#553D81" x="4.62264151" y="16.1311475" width="62.0754717" height="2.68852459" rx="1.3442623"></rect>
                <rect id="Rectangle-16-Copy-5" fill="#553D81" x="6.60377358" y="13.442623" width="58.7735849" height="4.03278689" rx="2.01639344"></rect>
                <g id="Group" transform="translate(15.849057, 12.098361)" fill="#553D81">
                    <rect id="Rectangle-16-Copy-2" x="9.24528302" y="17.4754098" width="20.4716981" height="2.68852459"></rect>
                    <path d="M23.5773807,9.59592346 L41.8131783,9.10323644 C42.4692047,9.0855122 43.038736,9.55216194 43.1503588,10.1988652 L43.1914782,10.4370972 C43.3026341,11.0810957 42.8706799,11.6932693 42.2266814,11.8044252 C42.1657497,11.8149422 42.1040874,11.8206671 42.042261,11.8215473 L24.189103,12.0757248 C23.6575696,12.0832923 23.1733034,11.771457 22.9602566,11.2844292 L22.7746672,10.8601694 C22.5748468,10.4033773 22.7831635,9.8710877 23.2399556,9.67126729 C23.3465263,9.62464871 23.461102,9.59906503 23.5773807,9.59592346 Z" id="Rectangle-16-Copy-3" transform="translate(32.953640, 10.589299) rotate(-66.000000) translate(-32.953640, -10.589299) "></path>
                    <path d="M-3.49809097,9.59592346 L14.7377066,9.10323644 C15.393733,9.0855122 15.9632643,9.55216194 16.0748871,10.1988652 L16.1160065,10.4370972 C16.2271624,11.0810957 15.7952082,11.6932693 15.1512097,11.8044252 C15.090278,11.8149422 15.0286157,11.8206671 14.9667893,11.8215473 L-2.88636871,12.0757248 C-3.41790213,12.0832923 -3.90216825,11.771457 -4.11521507,11.2844292 L-4.30080448,10.8601694 C-4.50062489,10.4033773 -4.2923082,9.8710877 -3.83551612,9.67126729 C-3.72894545,9.62464871 -3.61436965,9.59906503 -3.49809097,9.59592346 Z" id="Rectangle-16-Copy-8" transform="translate(5.878168, 10.589299) scale(-1, 1) rotate(-66.000000) translate(-5.878168, -10.589299) "></path>
                </g>
                <rect id="Rectangle-16-Copy" fill="#553D81" x="29.7169811" y="8.73770492" width="21.1320755" height="10.0819672" rx="5.04098361"></rect>
                <rect id="Rectangle-16-Copy-7" fill="#553D81" x="42.9245283" y="7.39344262" width="18.490566" height="10.0819672" rx="5.04098361"></rect>
                <rect id="Rectangle-16-Copy-6" fill="#553D81" x="9.90566038" y="10.7540984" width="21.1320755" height="6.04918033" rx="3.02459016"></rect>
                <g id="Group-9" transform="translate(50.359597, 20.813163)">
                    <path d="M9.24528302,18.8196721 C14.3513118,18.8196721 18.490566,14.606745 18.490566,9.40983607 C18.490566,4.21292711 14.3513118,-5.68434189e-14 9.24528302,-5.68434189e-14 C4.1392542,-5.68434189e-14 2.84217094e-14,4.21292711 2.84217094e-14,9.40983607 C2.84217094e-14,14.606745 4.1392542,18.8196721 9.24528302,18.8196721 Z" id="Path" stroke="#2B0D61" stroke-width="2.64150943" fill="#2B0D61"></path>
                    <ellipse id="Oval-2-Copy" fill="#FFFFFF" cx="9.24528302" cy="9.40983607" rx="5.94339623" ry="6.04918033"></ellipse>
                    <ellipse id="Oval-2-Copy-2" fill="#ED6E00" cx="9.24528302" cy="9.40983607" rx="3.30188679" ry="3.36065574"></ellipse>
                </g>
                <g id="Group-9-Copy" transform="translate(1.810214, 20.813163)">
                    <path d="M9.24528302,18.8196721 C14.3513118,18.8196721 18.490566,14.606745 18.490566,9.40983607 C18.490566,4.21292711 14.3513118,5.68434189e-14 9.24528302,5.68434189e-14 C4.1392542,5.68434189e-14 2.84217094e-14,4.21292711 2.84217094e-14,9.40983607 C2.84217094e-14,14.606745 4.1392542,18.8196721 9.24528302,18.8196721 Z" id="Path" stroke="#2B0D61" stroke-width="2.64150943" fill="#2B0D61"></path>
                    <ellipse id="Oval-2-Copy" fill="#FFFFFF" cx="9.24528302" cy="9.40983607" rx="5.94339623" ry="6.04918033"></ellipse>
                    <ellipse id="Oval-2-Copy-2" fill="#ED6E00" cx="9.24528302" cy="9.40983607" rx="3.30188679" ry="3.36065574"></ellipse>
                </g>
                <polygon id="Path-5" fill="#553D81" points="22.0210698 15.9718118 26.7834933 28.2636399 43.3806549 28.2636399 48.5067807 15.9718118"></polygon>
            </g>
        </g>
    </g>
</svg>