<?xml version="1.0" encoding="UTF-8"?>
<svg width="122px" height="80px" viewBox="0 0 122 80" version="1.1" xmlns="http://www.w3.org/2000/svg" xmlns:xlink="http://www.w3.org/1999/xlink">
    <!-- Generator: Sketch 49.2 (51160) - http://www.bohemiancoding.com/sketch -->
    <title>furgoneta</title>
    <desc>Created with Sketch.</desc>
    <defs></defs>
    <g id="Ilustraciones" stroke="none" stroke-width="1" fill="none" fill-rule="evenodd">
        <g id="Group-44">
            <rect id="Rectangle-3-Copy-10" x="0" y="0" width="122" height="80"></rect>
            <g id="Group-4-Copy" transform="translate(11.000000, 27.000000)">
                <rect id="Rectangle-14-Copy-3" fill="#D5CFDF" x="0" y="41" width="100" height="4" rx="2"></rect>
                <path d="M7.92514115,5.23668655e-20 L81.6526081,-2.22044605e-15 C82.2733402,-2.33447268e-15 82.8624346,0.273935477 83.2624459,0.748592518 L98.4519431,18.7725889 C98.7718936,19.1522451 98.9473684,19.6327645 98.9473684,20.1292595 L98.9473684,23.0232558 L1.05263158,21.9767442 L1.05263158,19.6415236 C1.05263158,19.4549788 1.07742537,19.2692615 1.12636169,19.0892498 L5.8936081,1.55298928 C6.142824,0.636251492 6.97513234,1.74513787e-16 7.92514115,0 Z" id="Rectangle-13-Copy" fill="#553D81"></path>
                <path d="M10.2725233,4.18604651 L29.4736842,4.18604651 C30.0550366,4.18604651 30.5263158,4.65732572 30.5263158,5.23867809 L30.5263158,12.5520196 C30.5263158,13.133372 30.0550366,13.6046512 29.4736842,13.6046512 L8.22915956,13.6046512 C7.6478072,13.6046512 7.17652798,13.133372 7.17652798,12.5520196 C7.17652798,12.4562735 7.18959113,12.360975 7.21535603,12.2687606 L9.2587198,4.95541914 C9.38580346,4.50057785 9.8002619,4.18604651 10.2725233,4.18604651 Z" id="Rectangle-Copy-2" fill="#7874A0"></path>
                <path d="M1.05263158,20.4069767 L98.9473684,20.4069767 L98.9473684,36.0985312 C98.9473684,36.6798836 98.4760892,37.1511628 97.8947368,37.1511628 L2.10526316,37.1511628 C1.52391079,37.1511628 1.05263158,36.6798836 1.05263158,36.0985312 L1.05263158,20.4069767 Z" id="Rectangle-13" fill="#553D81"></path>
                <path d="M95.7894737,21.4534884 L98.9473684,21.4534884 L98.9473684,24.5930233 L95.7894737,24.5930233 C95.2081213,24.5930233 94.7368421,24.121744 94.7368421,23.5403917 L94.7368421,22.50612 C94.7368421,21.9247676 95.2081213,21.4534884 95.7894737,21.4534884 Z" id="Rectangle-2-Copy" fill="#ED6E00"></path>
                <rect id="Rectangle-13-Copy-2" fill="#806EA0" x="0" y="30.872093" width="100" height="6.27906977" rx="1.05263158"></rect>
                <g id="Group-3" transform="translate(33.684211, 4.186047)">
                    <rect id="Rectangle" fill="#7874A0" x="0" y="0" width="26.3157895" height="9.41860465" rx="1.05263158"></rect>
                    <rect id="Rectangle-path-Copy" fill="#ED6E00" fill-rule="nonzero" x="1.57894737" y="11.5116279" width="4.21052632" height="1.04651163" rx="0.523255814"></rect>
                </g>
                <g id="Group-2" transform="translate(63.157895, 4.186047)">
                    <path d="M1.05263158,5.93605503e-15 L16.8884919,9.76996262e-14 C17.1933491,9.98097655e-14 17.4832334,0.132167691 17.6831591,0.362314687 L25.8543446,9.76867944 C26.2355961,10.207562 26.1888769,10.872412 25.7499944,11.2536634 C25.5584889,11.4200217 25.3133494,11.5116279 25.0596775,11.5116279 L14.9840414,11.5116279 C14.8214534,11.5116279 14.6610755,11.4739649 14.5154836,11.4015921 L10.7476743,9.52864043 C10.6020824,9.45626768 10.4417045,9.41860465 10.2791165,9.41860465 L1.05263158,9.41860465 C0.471279211,9.41860465 7.58086981e-14,8.94732544 7.0832229e-14,8.36597307 L-5.77315973e-15,1.05263158 C-1.02332842e-14,0.471279211 0.471279211,-3.75605606e-15 1.05263158,-7.99360578e-15 Z" id="Rectangle-Copy" fill="#7874A0"></path>
                    <rect id="Rectangle-path-Copy-2" fill="#ED6E00" fill-rule="nonzero" x="2.10526316" y="11.5116279" width="4.21052632" height="1.04651163" rx="0.523255814"></rect>
                </g>
                <g id="Group-7-Copy-5" transform="translate(69.473684, 27.732558)">
                    <path d="M0,9.41860465 C0,4.21685294 4.2415129,0 9.47368421,0 C14.7058555,0 18.9473684,4.21685294 18.9473684,9.41860465" id="Path" fill="#FFFFFF"></path>
                    <path d="M9.47368421,17.2674419 C13.833827,17.2674419 17.3684211,13.7533977 17.3684211,9.41860465 C17.3684211,5.08381156 13.833827,1.56976744 9.47368421,1.56976744 C5.11354145,1.56976744 1.57894737,5.08381156 1.57894737,9.41860465 C1.57894737,13.7533977 5.11354145,17.2674419 9.47368421,17.2674419 Z" id="Path" fill="#2B0D61"></path>
                    <ellipse id="Oval-2-Copy" fill="#FFFFFF" cx="9.47368421" cy="9.41860465" rx="4.21052632" ry="4.18604651"></ellipse>
                </g>
                <g id="Group-7-Copy-6" transform="translate(11.578947, 27.732558)">
                    <path d="M0,9.41860465 C0,4.21685294 4.2415129,0 9.47368421,0 C14.7058555,0 18.9473684,4.21685294 18.9473684,9.41860465" id="Path" fill="#FFFFFF"></path>
                    <path d="M9.47368421,17.2674419 C13.833827,17.2674419 17.3684211,13.7533977 17.3684211,9.41860465 C17.3684211,5.08381156 13.833827,1.56976744 9.47368421,1.56976744 C5.11354145,1.56976744 1.57894737,5.08381156 1.57894737,9.41860465 C1.57894737,13.7533977 5.11354145,17.2674419 9.47368421,17.2674419 Z" id="Path" fill="#2B0D61"></path>
                    <ellipse id="Oval-2-Copy" fill="#FFFFFF" cx="9.47368421" cy="9.41860465" rx="4.21052632" ry="4.18604651"></ellipse>
                </g>
            </g>
        </g>
    </g>
</svg>