<?xml version="1.0" encoding="UTF-8"?>
<svg width="122px" height="80px" viewBox="0 0 122 80" version="1.1" xmlns="http://www.w3.org/2000/svg" xmlns:xlink="http://www.w3.org/1999/xlink">
    <!-- Generator: Sketch 49.2 (51160) - http://www.bohemiancoding.com/sketch -->
    <title>maquinaria_pesada</title>
    <desc>Created with Sketch.</desc>
    <defs></defs>
    <g id="Ilustraciones" stroke="none" stroke-width="1" fill="none" fill-rule="evenodd">
        <g id="Group-30">
            <rect id="Rectangle-3-Copy-6" x="0" y="0" width="122" height="80"></rect>
            <g id="Group-4-Copy" transform="translate(11.000000, 5.000000)">
                <rect id="Rectangle-14-Copy-3" fill="#D5CFDF" x="0" y="63" width="100" height="4" rx="2"></rect>
                <rect id="Rectangle-Copy-10" fill="#806EA0" x="0" y="43.1188119" width="73.5099338" height="3.98019802" rx="1.32450331"></rect>
                <rect id="Rectangle-Copy-12" fill="#553D81" x="9.93377483" y="47.0990099" width="46.3576159" height="3.98019802"></rect>
                <g id="Group-3" transform="translate(0.000000, 51.079208)">
                    <path d="M65.5629139,15.9207921 C69.9519318,15.9207921 73.5099338,12.3568014 73.5099338,7.96039604 C73.5099338,3.5639907 69.9519318,0 65.5629139,0" id="Path" fill="#2B0D61"></path>
                    <rect id="Rectangle" fill="#2B0D61" x="7.94701987" y="0" width="57.615894" height="15.9207921"></rect>
                    <path d="M7.94701987,0 C3.55800199,0 0,3.5639907 0,7.96039604 C0,12.3568014 3.55800199,15.9207921 7.94701987,15.9207921" id="Path" fill="#2B0D61"></path>
                    <g id="Group-2" transform="translate(2.649007, 2.653465)">
                        <rect id="Rectangle-Copy" fill="#FFFFFF" x="5.29801325" y="0" width="57.615894" height="10.6138614"></rect>
                        <ellipse id="Oval-2-Copy" fill="#FFFFFF" cx="5.29801325" cy="5.30693069" rx="5.29801325" ry="5.30693069"></ellipse>
                        <ellipse id="Oval-2-Copy-2" fill="#7874A0" cx="5.29801325" cy="5.30693069" rx="3.31125828" ry="3.31683168"></ellipse>
                        <ellipse id="Oval-2-Copy-2" fill="#7874A0" cx="33.1125828" cy="5.30693069" rx="1.98675497" ry="1.99009901"></ellipse>
                        <ellipse id="Oval-2-Copy-2" fill="#7874A0" cx="18.5430464" cy="5.30693069" rx="1.98675497" ry="1.99009901"></ellipse>
                        <ellipse id="Oval-2-Copy-2" fill="#7874A0" cx="47.6821192" cy="5.30693069" rx="1.98675497" ry="1.99009901"></ellipse>
                        <ellipse id="Oval-2-Copy" fill="#FFFFFF" cx="62.9139073" cy="5.30693069" rx="5.29801325" ry="5.30693069"></ellipse>
                        <ellipse id="Oval-2-Copy-3" fill="#7874A0" cx="62.9139073" cy="5.30693069" rx="3.31125828" ry="3.31683168"></ellipse>
                    </g>
                </g>
                <path d="M34.4370861,13.9306931 L45.0331126,13.9306931 C53.0796454,13.9306931 59.602649,20.4536967 59.602649,28.5002295 L59.602649,43.1188119 L30.4635762,43.1188119 L30.4635762,17.904203 C30.4635762,15.7096941 32.2425772,13.9306931 34.4370861,13.9306931 Z" id="Rectangle-2-Copy-29" fill="#553D81"></path>
                <path d="M14.5695364,19.2376238 L30.4635762,19.2376238 L30.4635762,43.1188119 L11.9205298,43.1188119 L11.9205298,21.8866304 C11.9205298,20.4236244 13.1065305,19.2376238 14.5695364,19.2376238 Z" id="Rectangle-2-Copy-30" fill="#553D81"></path>
                <path d="M6.62251656,25.8712871 L11.9205298,25.8712871 L11.9205298,43.1188119 L6.62251656,43.1188119 C4.42800762,43.1188119 2.64900662,41.3398109 2.64900662,39.1453019 L2.64900662,29.8447971 C2.64900662,27.6502881 4.42800762,25.8712871 6.62251656,25.8712871 Z" id="Rectangle-2-Copy-31" fill="#553D81"></path>
                <g id="Group" transform="translate(42.384106, 0.000000)" fill="#553D81">
                    <path d="M45.0331126,39.1386139 L46.3576159,39.1386139 L46.3576159,59.039604 L42.384106,59.039604 L42.384106,41.7876205 C42.384106,40.3246145 43.5701066,39.1386139 45.0331126,39.1386139 Z" id="Rectangle-21-Copy-7"></path>
                    <rect id="Rectangle-21-Copy-8" x="44.3708609" y="9.95049505" width="5.9602649" height="30.5148515"></rect>
                    <path d="M34.6464443,-5.42187345 L34.6464443,-5.42187345 C36.863071,-5.63714332 38.8362562,-4.01897967 39.0591595,-1.80310756 L41.1453094,18.9352219 C41.3672227,21.1412531 39.7587774,23.109491 37.5527463,23.3314043 C37.5481603,23.3318656 37.5435736,23.332319 37.5389861,23.3327645 L37.5389861,23.3327645 C35.3223594,23.5480344 33.3491742,21.9298708 33.126271,19.7139987 L31.0401211,-1.02433082 C30.8182077,-3.23036198 32.426653,-5.19859988 34.6326842,-5.4205132 C34.6372701,-5.42097452 34.6418568,-5.42142794 34.6464443,-5.42187345 Z" id="Rectangle-21-Copy-9" transform="translate(36.092715, 8.955446) rotate(-255.000000) translate(-36.092715, -8.955446) "></path>
                    <path d="M14.176448,-3.28794595 L14.176448,-3.28794595 C16.3002621,-3.51217772 18.2037293,-1.97226201 18.4279611,0.151552062 C18.428273,0.154505864 18.4285814,0.157460024 18.4288865,0.160414536 L20.5750162,20.946118 C20.8146167,23.2666979 19.1657525,25.3572421 16.8532091,25.6648826 L16.8532091,25.6648826 C14.6734787,25.9548548 12.671389,24.4229031 12.3814168,22.2431727 C12.3725477,22.1765038 12.3653694,22.1096209 12.3598886,22.0425883 L10.6379124,0.981907942 C10.4622847,-1.16611222 12.0331724,-3.06165943 14.176448,-3.28794595 Z" id="Rectangle-21-Copy-10" transform="translate(15.611249, 11.195230) scale(-1, 1) rotate(-244.000000) translate(-15.611249, -11.195230) "></path>
                    <ellipse id="Oval-9-Copy" cx="47.3509934" cy="9.61881188" rx="2.98013245" ry="2.98514851"></ellipse>
                    <path d="M45.6953642,39.1386139 L54.4370861,39.1386139 C56.1926932,39.1386139 57.615894,40.5618147 57.615894,42.3174218 L57.615894,55.860796 C57.615894,57.6164032 56.1926932,59.039604 54.4370861,59.039604 L45.6953642,59.039604 L45.6953642,39.1386139 Z" id="Rectangle-21-Copy-11"></path>
                    <rect id="Rectangle-21-Copy-12" x="37.7483444" y="56.3861386" width="7.28476821" height="2.65346535" rx="1.32673267"></rect>
                </g>
                <path d="M50.4056782,17.2475248 L54.710314,17.2475248 C55.441817,17.2475248 56.0348173,17.8405251 56.0348173,18.5720281 L56.0348173,31.8438135 C56.0348173,32.5753165 55.441817,33.1683168 54.710314,33.1683168 L40.3968628,33.1683168 C40.0311114,33.1683168 39.7346112,32.8718167 39.7346112,32.5060652 C39.7346112,32.434997 39.7460505,32.3643921 39.7684903,32.2969596 L42.9991418,22.5886918 C44.0604797,19.3993188 47.0443483,17.2475248 50.4056782,17.2475248 Z" id="Rectangle-Copy-22" fill="#7874A0" transform="translate(47.884958, 25.207921) scale(-1, 1) translate(-47.884958, -25.207921) "></path>
                <rect id="Rectangle-path-Copy" fill="#ED6E00" fill-rule="nonzero" x="41.7218543" y="34.4950495" width="5.29801325" height="1.32673267" rx="0.663366337"></rect>
            </g>
        </g>
    </g>
</svg>