<?xml version="1.0" encoding="UTF-8"?>
<svg width="122px" height="80px" viewBox="0 0 122 80" version="1.1" xmlns="http://www.w3.org/2000/svg" xmlns:xlink="http://www.w3.org/1999/xlink">
    <!-- Generator: Sketch 49.2 (51160) - http://www.bohemiancoding.com/sketch -->
    <title>modelo_especial</title>
    <desc>Created with Sketch.</desc>
    <defs></defs>
    <g id="Ilustraciones" stroke="none" stroke-width="1" fill="none" fill-rule="evenodd">
        <g id="Group-33">
            <rect id="Rectangle-3-Copy-18" x="0" y="0" width="122" height="80"></rect>
            <g id="Group-3-Copy" transform="translate(11.000000, 14.000000)">
                <g id="Group" transform="translate(0.000000, 16.901408)">
                    <g id="Group-2">
                        <rect id="Rectangle-14-Copy-2" fill="#D5CFDF" x="0" y="36.0985915" width="100" height="4" rx="2"></rect>
                        <path d="M9.15492958,11.2676056 L73.2394366,11.2676056 L97.5285919,14.3815999 C99.0716936,14.5794335 100.162249,15.9907404 99.9644154,17.5338421 C99.9491657,17.6527899 99.9263358,17.7706424 99.896065,17.8866804 L96.7535498,29.9329886 C96.5917627,30.5531725 96.0316479,30.9859155 95.3907086,30.9859155 L7.31604252,30.9859155 C6.53817668,30.9859155 5.90759182,30.3553306 5.90759182,29.5774648 C5.90759182,29.4944489 5.91493139,29.4115955 5.92952481,29.3298723 L9.15492958,11.2676056 Z" id="Rectangle-Copy-5" fill="#553D81"></path>
                        <path d="M20.1524849,1.57516344e-14 L57.9162491,1.77635684e-14 C60.0689361,1.73681262e-14 62.1404768,0.821525816 63.7080634,2.29690147 L73.2394366,11.2676056 L2.11267606,28.8732394 L2.11267606,19.2000611 C2.11267606,18.1724725 2.48714554,17.1801003 3.16599922,16.4086757 L15.9231129,1.91195552 C16.9926865,0.696530993 18.5334591,1.71728002e-14 20.1524849,1.687539e-14 Z" id="Rectangle-Copy-7" fill="#553D81"></path>
                        <rect id="Rectangle-Copy-6" fill="#806EA0" x="0" y="26.7605634" width="100" height="4.22535211" rx="1.4084507"></rect>
                        <path d="M25.4016673,2.81690141 L40.1408451,2.81690141 L40.1408451,11.2676056 L19.0140845,11.2676056 L24.2297654,3.44408423 C24.4909848,3.05225512 24.9307473,2.81690141 25.4016673,2.81690141 Z" id="Rectangle-Copy-8" fill="#7874A0"></path>
                        <path d="M51.9918501,2.81690141 L66.1971831,2.81690141 L66.1971831,11.2676056 L42.9577465,11.2676056 L50.995925,3.22942707 C51.2600608,2.96529132 51.6183057,2.81690141 51.9918501,2.81690141 Z" id="Rectangle-Copy-9" fill="#7874A0" transform="translate(54.577465, 7.042254) scale(-1, 1) translate(-54.577465, -7.042254) "></path>
                        <polygon id="Rectangle-Copy-10" fill="#7874A0" transform="translate(67.252678, 7.042254) scale(-1, 1) translate(-67.252678, -7.042254) " points="70.2440255 2.81690141 73.2377496 2.81690141 64.08282 11.2676056 61.2676056 11.2676056"></polygon>
                        <path d="M20.4235876,2.81690141 L22.5335242,2.81690141 L16.195496,11.2676056 L16.195496,11.2676056 C15.2237413,11.2676056 14.4359784,10.4798428 14.4359784,9.50808805 C14.4359784,9.1273255 14.5594935,8.75683709 14.787979,8.45224806 L18.1702219,3.94345476 C18.7022166,3.23426436 19.5370384,2.81690141 20.4235876,2.81690141 Z" id="Rectangle-Copy-11" fill="#7874A0"></path>
                        <g id="Group-7-Copy-3" transform="translate(70.422535, 21.830986)">
                            <path d="M0,9.85915493 C0,4.41409402 4.41409402,0 9.85915493,0 C15.3042158,0 19.7183099,4.41409402 19.7183099,9.85915493" id="Path" fill="#FFFFFF"></path>
                            <path d="M9.85915493,18.3098592 C14.52635,18.3098592 18.3098592,14.52635 18.3098592,9.85915493 C18.3098592,5.19195986 14.52635,1.4084507 9.85915493,1.4084507 C5.19195986,1.4084507 1.4084507,5.19195986 1.4084507,9.85915493 C1.4084507,14.52635 5.19195986,18.3098592 9.85915493,18.3098592 Z" id="Path" fill="#2B0D61"></path>
                            <circle id="Oval-2-Copy" fill="#FFFFFF" cx="9.85915493" cy="9.85915493" r="3.52112676"></circle>
                        </g>
                        <g id="Group-7-Copy-4" transform="translate(9.859155, 21.830986)">
                            <path d="M0,9.85915493 C0,4.41409402 4.41409402,0 9.85915493,0 C15.3042158,0 19.7183099,4.41409402 19.7183099,9.85915493" id="Path" fill="#FFFFFF"></path>
                            <path d="M9.85915493,18.3098592 C14.52635,18.3098592 18.3098592,14.52635 18.3098592,9.85915493 C18.3098592,5.19195986 14.52635,1.4084507 9.85915493,1.4084507 C5.19195986,1.4084507 1.4084507,5.19195986 1.4084507,9.85915493 C1.4084507,14.52635 5.19195986,18.3098592 9.85915493,18.3098592 Z" id="Path" fill="#2B0D61"></path>
                            <circle id="Oval-2-Copy" fill="#FFFFFF" cx="9.85915493" cy="9.85915493" r="3.52112676"></circle>
                        </g>
                        <rect id="Rectangle-path-Copy" fill="#ED6E00" fill-rule="nonzero" x="43.6619718" y="12.6760563" width="5.63380282" height="1.4084507" rx="0.704225352"></rect>
                        <rect id="Rectangle-path-Copy-2" fill="#ED6E00" fill-rule="nonzero" x="19.7183099" y="12.6760563" width="5.63380282" height="1.4084507" rx="0.704225352"></rect>
                        <path d="M94.3661972,18.3098592 L99.7806173,18.3098592 L98.6939766,22.5352113 L94.3661972,22.5352113 C93.5883313,22.5352113 92.9577465,21.9046264 92.9577465,21.1267606 L92.9577465,19.7183099 C92.9577465,18.940444 93.5883313,18.3098592 94.3661972,18.3098592 Z" id="Rectangle-2-Copy" fill="#ED6E00"></path>
                    </g>
                </g>
                <g id="question-copy" transform="translate(83.098592, 12.676056) scale(-1, 1) translate(-83.098592, -12.676056) translate(70.422535, 0.000000)" fill="#ED6E00" fill-rule="nonzero">
                    <path d="M25.2162087,21.7468962 L23.9952551,17.8062598 C24.7110367,16.2208659 25.1097091,14.4605112 25.1097091,12.6065728 C25.1097091,5.64413146 19.4887093,0 12.5548026,0 C5.62089587,0 0,5.64413146 0,12.6065728 C0,19.5690141 5.62099977,25.2131455 12.5549065,25.2131455 C16.1145925,25.2131455 19.3279728,23.7252999 21.6126761,21.3355243 L25.2162087,21.7468962 Z" id="Shape"></path>
                </g>
                <text id="?" font-family="BlissPro-Bold, Bliss Pro" font-size="22.5352113" font-weight="bold" line-spacing="19.7183099" letter-spacing="0.422535144" fill="#FFFFFF">
                    <tspan x="78.1690141" y="23.8169014">?</tspan>
                </text>
            </g>
        </g>
    </g>
</svg>