<?xml version="1.0" encoding="UTF-8"?>
<svg width="122px" height="80px" viewBox="0 0 122 80" version="1.1" xmlns="http://www.w3.org/2000/svg" xmlns:xlink="http://www.w3.org/1999/xlink">
    <!-- Generator: Sketch 49.2 (51160) - http://www.bohemiancoding.com/sketch -->
    <title>motocicleta</title>
    <desc>Created with Sketch.</desc>
    <defs></defs>
    <g id="Ilustraciones" stroke="none" stroke-width="1" fill="none" fill-rule="evenodd">
        <g id="Group-45">
            <rect id="Rectangle-3-Copy-16" x="0" y="0" width="122" height="80"></rect>
            <g id="Group-4-Copy" transform="translate(26.000000, 32.000000)">
                <rect id="Rectangle-14-Copy-2" fill="#D5CFDF" x="0" y="36" width="70" height="4" rx="2"></rect>
                <g id="Group-3">
                    <rect id="Rectangle-2-Copy-4" fill="#553D81" x="15.9405941" y="20.6896552" width="19.4059406" height="6.89655172"></rect>
                    <rect id="Rectangle-2-Copy-5" fill="#553D81" x="21.4851485" y="19.3103448" width="9.7029703" height="9.65517241" rx="4.82758621"></rect>
                    <g id="Group-2" transform="translate(31.188119, 17.931034)" fill="#553D81">
                        <rect id="Rectangle-2" x="1.38613861" y="0" width="9.7029703" height="12.4137931"></rect>
                        <rect id="Rectangle-2-Copy" x="0" y="0" width="12.4752475" height="2.75862069" rx="1.37931034"></rect>
                        <rect id="Rectangle-2-Copy-2" x="0" y="4.82758621" width="12.4752475" height="2.75862069" rx="1.37931034"></rect>
                        <rect id="Rectangle-2-Copy-3" x="0" y="9.65517241" width="12.4752475" height="3.44827586" rx="1.72413793"></rect>
                    </g>
                    <g id="Group" transform="translate(53.366337, 4.827586)">
                        <ellipse id="Oval-7-Copy" fill="#553D81" cx="3.46534653" cy="4.82758621" rx="3.46534653" ry="3.44827586"></ellipse>
                        <path d="M3.46534653,8.27586207 C5.37920458,8.27586207 6.93069307,6.73201638 6.93069307,4.82758621 C6.93069307,2.92315604 5.37920458,1.37931034 3.46534653,1.37931034" id="Oval-7" fill="#ED6E00"></path>
                        <rect id="Rectangle" fill="#2B0D61" x="2.77227723" y="0" width="2.07920792" height="9.65517241" rx="1.03960396"></rect>
                    </g>
                    <path d="M41.2290884,0.689655172 L51.2871287,0.689655172 L51.2871287,4.13793103 L41.2290884,4.13793103 C40.2768733,4.13793103 39.5049505,3.36600819 39.5049505,2.4137931 L39.5049505,2.4137931 C39.5049505,1.46157802 40.2768733,0.689655172 41.2290884,0.689655172 Z" id="Rectangle-15" fill="#553D81"></path>
                    <rect id="Rectangle-15-Copy-3" fill="#553D81" x="38.1188119" y="0" width="8.31683168" height="4.82758621" rx="2.4137931"></rect>
                    <rect id="Rectangle-16" fill="#553D81" x="18.019802" y="13.7931034" width="23.5643564" height="4.13793103"></rect>
                    <rect id="Rectangle-16-Copy-4" fill="#553D81" x="5.54455446" y="11.0344828" width="19.4059406" height="7.5862069" rx="3.79310345"></rect>
                    <rect id="Rectangle-16-Copy-2" fill="#553D81" x="19.4059406" y="29.6551724" width="21.4851485" height="2.75862069"></rect>
                    <path d="M32.4420734,18.2784901 L59.8014205,18.0657401 C60.4188719,18.0609387 60.9379755,18.5280304 60.9981488,19.1425615 L60.9981488,19.1425615 C61.051279,19.6851632 60.654484,20.1680992 60.1118823,20.2212293 C60.0793292,20.2244168 60.0466377,20.2259845 60.013929,20.2259264 L33.1490741,20.1782267 C32.6034333,20.1772579 32.1091213,19.8562699 31.886273,19.3582101 L31.829618,19.2315877 C31.6769736,18.8904317 31.8297925,18.4901274 32.1709485,18.337483 C32.2562788,18.2993034 32.3485939,18.279217 32.4420734,18.2784901 Z" id="Rectangle-16-Copy-3" fill="#553D81" transform="translate(46.386739, 19.145832) rotate(-66.000000) translate(-46.386739, -19.145832) "></path>
                    <rect id="Rectangle-16-Copy" fill="#553D81" x="28.4158416" y="8.27586207" width="22.1782178" height="10.3448276" rx="5.17241379"></rect>
                    <g id="Group-9" transform="translate(47.821782, 19.310345)">
                        <path d="M0,11.0344828 C0,4.94030621 4.96476317,0 11.0891089,0 C17.2134547,0 22.1782178,4.94030621 22.1782178,11.0344828" id="Path" fill="#553D81"></path>
                        <path d="M11.0891089,20.6896552 C16.4479114,20.6896552 20.7920792,16.3668872 20.7920792,11.0344828 C20.7920792,5.70207828 16.4479114,1.37931034 11.0891089,1.37931034 C5.73030639,1.37931034 1.38613861,5.70207828 1.38613861,11.0344828 C1.38613861,16.3668872 5.73030639,20.6896552 11.0891089,20.6896552 Z" id="Path" fill="#2B0D61"></path>
                        <ellipse id="Oval-2-Copy" fill="#FFFFFF" cx="11.0891089" cy="11.0344828" rx="6.23762376" ry="6.20689655"></ellipse>
                        <ellipse id="Oval-2-Copy-2" fill="#ED6E00" cx="11.0891089" cy="11.0344828" rx="3.46534653" ry="3.44827586"></ellipse>
                    </g>
                    <g id="Group-9-Copy" transform="translate(0.000000, 19.310345)">
                        <path d="M0,11.0344828 C0,4.94030621 4.96476317,0 11.0891089,0 C17.2134547,0 22.1782178,4.94030621 22.1782178,11.0344828" id="Path" fill="#553D81"></path>
                        <path d="M11.0891089,20.6896552 C16.4479114,20.6896552 20.7920792,16.3668872 20.7920792,11.0344828 C20.7920792,5.70207828 16.4479114,1.37931034 11.0891089,1.37931034 C5.73030639,1.37931034 1.38613861,5.70207828 1.38613861,11.0344828 C1.38613861,16.3668872 5.73030639,20.6896552 11.0891089,20.6896552 Z" id="Path" fill="#2B0D61"></path>
                        <ellipse id="Oval-2-Copy" fill="#FFFFFF" cx="11.0891089" cy="11.0344828" rx="6.23762376" ry="6.20689655"></ellipse>
                        <ellipse id="Oval-2-Copy-2" fill="#ED6E00" cx="11.0891089" cy="11.0344828" rx="3.46534653" ry="3.44827586"></ellipse>
                    </g>
                    <path d="M39.0369457,13.8175343 L68.7278126,14.9414675 C69.4747914,14.969744 70.0574148,15.5982126 70.0291382,16.3451914 C70.0282981,16.3673848 70.0269119,16.3895542 70.0249808,16.4116794 L70.0160874,16.5135725 C69.9518282,17.2498045 69.3212666,17.806149 68.5827646,17.7781934 L38.7896904,16.6503912 L39.0369457,13.8175343 Z" id="Rectangle-15-Copy" fill="#553D81" transform="translate(54.409897, 15.798356) rotate(-289.000000) translate(-54.409897, -15.798356) "></path>
                    <path d="M6.05131714,21.6996917 L21.3376169,21.4069845 C21.9613665,21.3950408 22.4766977,21.8910073 22.4886414,22.5147568 C22.4894625,22.5576361 22.487841,22.6005273 22.4837846,22.6432222 L22.4804847,22.6779556 C22.4140593,23.3771196 21.8352246,23.9161197 21.1331059,23.9326097 L5.14875196,24.3080188 L6.05131714,21.6996917 Z" id="Rectangle-15-Copy-2" fill="#553D81" transform="translate(13.818789, 22.857454) scale(-1, 1) rotate(-289.000000) translate(-13.818789, -22.857454) "></path>
                </g>
            </g>
        </g>
    </g>
</svg>