<?xml version="1.0" encoding="UTF-8"?>
<svg width="122px" height="80px" viewBox="0 0 122 80" version="1.1" xmlns="http://www.w3.org/2000/svg" xmlns:xlink="http://www.w3.org/1999/xlink">
    <!-- Generator: Sketch 49.2 (51160) - http://www.bohemiancoding.com/sketch -->
    <title>moto taxi</title>
    <desc>Created with Sketch.</desc>
    <defs></defs>
    <g id="Ilustraciones" stroke="none" stroke-width="1" fill="none" fill-rule="evenodd">
        <g id="Group-35">
            <rect id="Rectangle-3-Copy-15" x="0" y="0" width="122" height="80"></rect>
            <g id="Group-Copy-2" transform="translate(21.000000, 17.000000)">
                <g id="Group-2">
                    <rect id="Rectangle-14-Copy-3" fill="#D5CFDF" x="0" y="51" width="80" height="4" rx="2"></rect>
                    <g id="Group-2-Copy-4" transform="translate(50.076336, 35.444444)" fill="#553D81">
                        <rect id="Rectangle-2" x="1.22137405" y="0" width="8.54961832" height="11"></rect>
                        <rect id="Rectangle-2-Copy" x="0" y="0" width="10.9923664" height="2.44444444" rx="1.22222222"></rect>
                        <rect id="Rectangle-2-Copy-2" x="0" y="4.27777778" width="10.9923664" height="2.44444444" rx="1.22222222"></rect>
                        <rect id="Rectangle-2-Copy-3" x="0" y="8.55555556" width="10.9923664" height="3.05555556" rx="1.52777778"></rect>
                    </g>
                    <g id="Group-Copy" transform="translate(65.343511, 23.833333)">
                        <ellipse id="Oval-7-Copy" fill="#553D81" cx="3.05343511" cy="4.27777778" rx="3.05343511" ry="3.05555556"></ellipse>
                        <path d="M3.05343511,7.33333333 C4.73980076,7.33333333 6.10687023,5.96531451 6.10687023,4.27777778 C6.10687023,2.59024104 4.73980076,1.22222222 3.05343511,1.22222222" id="Oval-7" fill="#ED6E00"></path>
                        <rect id="Rectangle" fill="#2B0D61" x="2.44274809" y="0" width="1.83206107" height="8.55555556" rx="0.916030534"></rect>
                    </g>
                    <path d="M54.6575488,20.1666667 L63.5114504,20.1666667 L63.5114504,23.2222222 L54.6575488,23.2222222 C53.8137804,23.2222222 53.129771,22.5382128 53.129771,21.6944444 L53.129771,21.6944444 C53.129771,20.8506761 53.8137804,20.1666667 54.6575488,20.1666667 Z" id="Rectangle-15-Copy-3" fill="#553D81"></path>
                    <rect id="Rectangle-16-Copy-6" fill="#553D81" x="12.2137405" y="33.6111111" width="17.0992366" height="4.88888889" rx="2.44444444"></rect>
                    <rect id="Rectangle-16-Copy-10" fill="#553D81" x="34.1984733" y="33.6111111" width="10.9923664" height="4.88888889" rx="2.44444444"></rect>
                    <rect id="Rectangle-16-Copy-11" fill="#553D81" x="34.1984733" y="33.6111111" width="7.9389313" height="12.2222222"></rect>
                    <rect id="Rectangle-16-Copy-7" fill="#553D81" x="17.7099237" y="45.8333333" width="45.1908397" height="2.44444444"></rect>
                    <path d="M46.9589502,35.8386647 L71.0565344,35.6502202 C71.603551,35.6459425 72.0633755,36.0599031 72.1163881,36.6043616 L72.1163881,36.6043616 C72.163228,37.0854254 71.8112201,37.5133759 71.3301563,37.5602158 C71.3014505,37.5630109 71.272624,37.5643851 71.2437824,37.5643336 L47.5794257,37.5220793 C47.0977197,37.5212192 46.6615121,37.2373086 46.4656978,36.797197 L46.415,36.6832487 C46.2801853,36.3802399 46.4165337,36.0253138 46.7195426,35.8904992 C46.794936,35.8569552 46.8764338,35.83931 46.9589502,35.8386647 Z" id="Rectangle-16-Copy-8" fill="#553D81" transform="translate(59.241776, 36.607259) rotate(-66.000000) translate(-59.241776, -36.607259) "></path>
                    <rect id="Rectangle-16-Copy-9" fill="#553D81" x="47.6335878" y="26.8888889" width="15.8778626" height="8.55555556" rx="4.27777778"></rect>
                    <g id="Group-9-Copy-2" transform="translate(60.458015, 36.666667)">
                        <path d="M0,9.77777778 C0,4.37766022 4.37462229,0 9.77099237,0 C15.1673624,0 19.5419847,4.37766022 19.5419847,9.77777778" id="Path" fill="#553D81"></path>
                        <path d="M9.77099237,18.3333333 C14.4928162,18.3333333 18.3206107,14.5028806 18.3206107,9.77777778 C18.3206107,5.05267492 14.4928162,1.22222222 9.77099237,1.22222222 C5.04916855,1.22222222 1.22137405,5.05267492 1.22137405,9.77777778 C1.22137405,14.5028806 5.04916855,18.3333333 9.77099237,18.3333333 Z" id="Path" fill="#2B0D61"></path>
                        <ellipse id="Oval-2-Copy" fill="#FFFFFF" cx="9.77099237" cy="9.77777778" rx="5.49618321" ry="5.5"></ellipse>
                        <ellipse id="Oval-2-Copy-2" fill="#ED6E00" cx="9.77099237" cy="9.77777778" rx="3.05343511" ry="3.05555556"></ellipse>
                    </g>
                    <path d="M52.4914702,31.8948078 L78.7515698,33.2041912 C79.4214095,33.2375908 79.9373462,33.8076789 79.9039465,34.4775186 C79.9032056,34.4923778 79.9021917,34.5072221 79.9009053,34.522044 L79.892576,34.6180138 C79.836242,35.2670898 79.2803587,35.7576807 78.6293142,35.7328965 L52.3784248,34.7335692 L52.4914702,31.8948078 Z" id="Rectangle-15-Copy-4" fill="#553D81" transform="translate(66.141954, 33.814303) rotate(-289.000000) translate(-66.141954, -33.814303) "></path>
                    <path d="M5.05902694,0 L24.4274809,0 L24.4274809,45.8333333 L9.77099237,45.8333333 L3.84835224,1.38268532 C3.75926249,0.714048143 4.2290785,0.0997890995 4.89771567,0.0106993441 C4.95119079,0.00357427579 5.00507924,-3.54280365e-15 5.05902694,-3.55271368e-15 Z" id="Rectangle-18" fill="#553D81"></path>
                    <rect id="Rectangle-18-Copy-2" fill="#553D81" x="34.1984733" y="3.66666667" width="2.44274809" height="42.1666667"></rect>
                    <path d="M8.54961832,6.72222222 L21.9847328,6.72222222 L20.1526718,21.3888889 L8.54961832,21.3888889 C7.87507206,21.3888889 7.32824427,20.8420611 7.32824427,20.1675148 L7.32824427,7.94359627 C7.32824427,7.26905001 7.87507206,6.72222222 8.54961832,6.72222222 Z" id="Rectangle-Copy-10" fill="#7874A0" transform="translate(14.656489, 14.055556) scale(-1, 1) translate(-14.656489, -14.055556) "></path>
                    <g id="Group-9-Copy-3" transform="translate(0.000000, 36.666667)">
                        <path d="M0,9.77777778 C0,4.37766022 4.37462229,0 9.77099237,0 C15.1673624,0 19.5419847,4.37766022 19.5419847,9.77777778" id="Path" fill="#553D81"></path>
                        <path d="M9.77099237,18.3333333 C14.4928162,18.3333333 18.3206107,14.5028806 18.3206107,9.77777778 C18.3206107,5.05267492 14.4928162,1.22222222 9.77099237,1.22222222 C5.04916855,1.22222222 1.22137405,5.05267492 1.22137405,9.77777778 C1.22137405,14.5028806 5.04916855,18.3333333 9.77099237,18.3333333 Z" id="Path" fill="#2B0D61"></path>
                        <ellipse id="Oval-2-Copy" fill="#FFFFFF" cx="9.77099237" cy="9.77777778" rx="5.49618321" ry="5.5"></ellipse>
                        <ellipse id="Oval-2-Copy-2" fill="#ED6E00" cx="9.77099237" cy="9.77777778" rx="3.05343511" ry="3.05555556"></ellipse>
                    </g>
                    <path d="M24.4274809,0 L68.3969466,0 L68.3969466,0 C68.3969466,2.02504408 66.755324,3.66666667 64.7302799,3.66666667 L24.4274809,3.66666667 L24.4274809,0 Z" id="Rectangle-18-Copy" fill="#553D81"></path>
                </g>
                <rect id="Rectangle-15-Copy-3" fill="#553D81" x="49.4656489" y="19.5555556" width="7.32824427" height="4.27777778" rx="2.13888889"></rect>
            </g>
        </g>
    </g>
</svg>