<?xml version="1.0" encoding="UTF-8"?>
<svg width="122px" height="80px" viewBox="0 0 122 80" version="1.1" xmlns="http://www.w3.org/2000/svg" xmlns:xlink="http://www.w3.org/1999/xlink">
    <!-- Generator: Sketch 49.2 (51160) - http://www.bohemiancoding.com/sketch -->
    <title>remolcador</title>
    <desc>Created with Sketch.</desc>
    <defs></defs>
    <g id="Ilustraciones" stroke="none" stroke-width="1" fill="none" fill-rule="evenodd">
        <g id="Group-39">
            <rect id="Rectangle-3-Copy-14" x="0" y="0" width="122" height="80"></rect>
            <g id="Group-4-Copy" transform="translate(11.000000, 22.000000)">
                <g id="Group-3-Copy-5" transform="translate(0.000000, 11.529412)">
                    <rect id="Rectangle-14-Copy-2" fill="#D5CFDF" x="-9.51461132e-14" y="33.4705882" width="100" height="4" rx="2"></rect>
                    <path d="M3.48837209,24.2117647 L51.744186,24.2117647 L51.744186,11.5294118 L74.4186047,11.5294118 L76.1627907,11.5294118 L96.6962204,14.8309522 C97.2599164,14.9215881 97.6744186,15.4080614 97.6744186,15.9789974 L97.6744186,28.8136799 C97.6744186,29.4558715 97.1538195,29.9764706 96.5116279,29.9764706 L3.48837209,29.9764706 C2.84618052,29.9764706 2.3255814,29.4558715 2.3255814,28.8136799 L2.3255814,25.3745554 C2.3255814,24.7323638 2.84618052,24.2117647 3.48837209,24.2117647 Z" id="Rectangle-Copy-5" fill="#553D81"></path>
                    <rect id="Rectangle-Copy-6" fill="#806EA0" x="0" y="26.5176471" width="100" height="3.45882353" rx="1.1627907"></rect>
                    <g id="Group-7-Copy-3" transform="translate(74.418605, 22.482353)">
                        <path d="M0,8.07058824 C0,3.61332543 3.6441939,0 8.13953488,0 C12.6348759,0 16.2790698,3.61332543 16.2790698,8.07058824" id="Path" fill="#FFFFFF"></path>
                        <path d="M8.13953488,14.9882353 C11.9926843,14.9882353 15.1162791,11.8910992 15.1162791,8.07058824 C15.1162791,4.25007726 11.9926843,1.15294118 8.13953488,1.15294118 C4.28638547,1.15294118 1.1627907,4.25007726 1.1627907,8.07058824 C1.1627907,11.8910992 4.28638547,14.9882353 8.13953488,14.9882353 Z" id="Path" fill="#2B0D61"></path>
                        <ellipse id="Oval-2-Copy" fill="#FFFFFF" cx="8.13953488" cy="8.07058824" rx="2.90697674" ry="2.88235294"></ellipse>
                    </g>
                    <g id="Group-7-Copy-4" transform="translate(16.279070, 22.482353)">
                        <path d="M0,8.07058824 C0,3.61332543 3.6441939,0 8.13953488,0 C12.6348759,0 16.2790698,3.61332543 16.2790698,8.07058824" id="Path" fill="#FFFFFF"></path>
                        <path d="M8.13953488,14.9882353 C11.9926843,14.9882353 15.1162791,11.8910992 15.1162791,8.07058824 C15.1162791,4.25007726 11.9926843,1.15294118 8.13953488,1.15294118 C4.28638547,1.15294118 1.1627907,4.25007726 1.1627907,8.07058824 C1.1627907,11.8910992 4.28638547,14.9882353 8.13953488,14.9882353 Z" id="Path" fill="#2B0D61"></path>
                        <ellipse id="Oval-2-Copy" fill="#FFFFFF" cx="8.13953488" cy="8.07058824" rx="2.90697674" ry="2.88235294"></ellipse>
                    </g>
                    <g id="Group-2" transform="translate(51.744186, 0.000000)">
                        <g id="Group">
                            <path d="M1.1627907,1.31842807e-16 L14.6931016,-4.4408921e-16 C14.9664502,-1.46543189e-15 15.231061,0.0963005016 15.4404699,0.271991691 L30.2325581,12.6823529 L0,12.6823529 L0,1.1627907 C-7.8645785e-17,0.520599128 0.520599128,5.62057887e-16 1.1627907,4.4408921e-16 Z" id="Rectangle-Copy-7" fill="#553D81"></path>
                            <path d="M16.2975693,2.30588235 L23.4283387,2.30588235 C24.0705303,2.30588235 24.5911294,2.82648148 24.5911294,3.46867305 L24.5911294,11.5195622 C24.5911294,12.1617538 24.0705303,12.6823529 23.4283387,12.6823529 L5.24276032,12.6823529 C4.92166453,12.6823529 4.66136497,12.4220534 4.66136497,12.1009576 C4.66136497,11.9303805 4.73627389,11.768409 4.86625079,11.6579439 L15.5445502,2.58264566 C15.7547748,2.40397948 16.021678,2.30588235 16.2975693,2.30588235 Z" id="Rectangle-Copy-9" fill="#7874A0" transform="translate(14.621146, 7.494118) scale(-1, 1) translate(-14.621146, -7.494118) "></path>
                        </g>
                        <rect id="Rectangle-path-Copy" fill="#ED6E00" fill-rule="nonzero" x="9.30232558" y="13.8352941" width="4.65116279" height="1.15294118" rx="0.576470588"></rect>
                    </g>
                    <path d="M94.1860465,17.2941176 L97.6744186,17.2941176 L97.6744186,20.7529412 L94.1860465,20.7529412 C93.5438549,20.7529412 93.0232558,20.232342 93.0232558,19.5901505 L93.0232558,18.4569083 C93.0232558,17.8147168 93.5438549,17.2941176 94.1860465,17.2941176 Z" id="Rectangle-2-Copy" fill="#ED6E00"></path>
                </g>
                <g id="towing-truck" transform="translate(9.883721, 0.000000)">
                    <g id="Group">
                        <g id="Group-3" transform="translate(0.581395, 6.917647)">
                            <rect id="Rectangle-path" fill="#553D81" fill-rule="nonzero" x="0" y="0" width="1.74418605" height="2.30588235"></rect>
                            <path d="M1.1627907,1.72941176 L1.1627907,4.03529412 C0.520599128,4.03529412 0,4.40889479 0,5.18823529 C0,5.96757579 0.520599128,6.34117647 1.1627907,6.34117647 C1.80498227,6.34117647 2.3255814,5.96757579 2.3255814,5.18823529" id="Oval-6" stroke="#553D81" stroke-width="1.1627907" stroke-linecap="round" stroke-linejoin="round"></path>
                        </g>
                        <path d="M5.81395349,1.76684492 L5.81395349,4.61176471 L5.26675787,4.61176471 L5.26675787,1.76684492 C5.26675787,1.09803922 4.73910494,0.559001783 4.08442447,0.559001783 L2.89231972,0.559001783 C2.23763924,0.559001783 1.70998632,1.09803922 1.70998632,1.76684492 L1.70998632,4.61176471 L1.1627907,4.61176471 L1.1627907,1.76684492 C1.1627907,0.7885918 1.94449873,0 2.89231972,0 L4.08442447,0 C5.03224546,-5.67420937e-15 5.81395349,0.7885918 5.81395349,1.76684492 Z" id="Shape" fill="#553D81" fill-rule="nonzero"></path>
                        <rect id="Rectangle-path" fill="#553D81" fill-rule="nonzero" x="2.3255814" y="4.61176471" width="10.4651163" height="1.72941176"></rect>
                        <path d="M40.6598639,8.64705882 L37.7906977,8.64705882 L37.7906977,8.10449827 L40.6598639,8.10449827 C41.3343696,8.10449827 41.8780011,7.58131488 41.8780011,6.93217993 L41.8780011,5.75017301 C41.8780011,5.10103806 41.3343696,4.57785467 40.6598639,4.57785467 L37.7906977,4.57785467 L37.7906977,4.03529412 L40.6598639,4.03529412 C41.6464544,4.03529412 42.4417671,4.81038062 42.4417671,5.75017301 L42.4417671,6.93217993 C42.4518343,7.8816609 41.6464544,8.64705882 40.6598639,8.64705882 Z" id="Shape" fill="#553D81" fill-rule="nonzero"></path>
                        <polygon id="Shape" fill="#553D81" fill-rule="nonzero" points="36.627907 19.6 31.9767442 7.49411765 33.1395349 7.49411765 37.2093023 17.8705882"></polygon>
                        <path d="M41.8227122,9.8 L38.9534884,9.8 L38.9534884,9.25743945 L41.8227122,9.25743945 C42.4972315,9.25743945 43.0408739,8.73425606 43.0408739,8.08512111 L43.0408739,6.90311419 C43.0408739,6.25397924 42.4972315,5.73079585 41.8227122,5.73079585 L38.9534884,5.73079585 L38.9534884,5.18823529 L41.8227122,5.18823529 C42.8093225,5.18823529 43.6046512,5.9633218 43.6046512,6.90311419 L43.6046512,8.08512111 C43.6046512,9.03460208 42.8093225,9.8 41.8227122,9.8 Z" id="Shape" fill="#553D81" fill-rule="nonzero"></path>
                        <path d="M40.6976744,7.91617647 L40.6976744,20.3308824 C40.6976744,20.8867647 40.2489565,21.3294118 39.6854502,21.3294118 L37.6401312,21.3294118 C37.3792487,21.3294118 37.1392367,21.2264706 36.9514013,21.0617647 C36.7531306,20.8764706 36.627907,20.6191176 36.627907,20.3308824 L36.627907,7.91617647 C36.627907,7.37058824 37.0766249,6.91764706 37.6401312,6.91764706 L39.6854502,6.91764706 C40.2489565,6.91764706 40.6976744,7.37058824 40.6976744,7.91617647 Z" id="Shape" fill="#553D81" fill-rule="nonzero"></path>
                        <path d="M41.8604651,20.1764706 C41.8604651,20.1764706 41.8604651,20.9421537 41.8604651,22.1220588 L41.8604651,35.7411765 L36.627907,35.7411765 L36.627907,22.1220588 L38.3070923,20.1764706 L41.8604651,20.1764706 Z" id="Shape" fill="#553D81" fill-rule="nonzero"></path>
                        <path d="M37.7906977,30.4133845 L37.7906977,35.7411765 L34.3023256,35.7411765 L34.3023256,24.7882196 L35.4651163,23.6352768 L37.7906977,23.635242 C37.7906977,23.625309 37.7906977,27.8915297 37.7906977,30.4133845 Z" id="Shape" fill="#553D81" fill-rule="nonzero"></path>
                        <rect id="Rectangle" fill="#553D81" x="12.7906977" y="3.45882353" width="26.1627907" height="4.03529412" rx="1.1627907"></rect>
                        <path d="M0,5.19808482 L0,6.91764706 L2.90697674,6.91764706 L2.90697674,5.19808482 C2.90697674,4.55589325 2.38637762,4.03529412 1.74418605,4.03529412 L1.1627907,4.03529412 C0.520599128,4.03529412 -7.8645785e-17,4.55589325 0,5.19808482 Z" id="Shape" fill="#553D81" fill-rule="nonzero"></path>
                        <path d="M2.3255814,5.47647059 C2.3255814,5.95556439 1.93667505,6.34117647 1.45348837,6.34117647 C0.970301697,6.34117647 0.581395349,5.95556439 0.581395349,5.47647059 C0.581395349,4.99737679 0.970301697,4.61176471 1.45348837,4.61176471 C1.93667505,4.61176471 2.3255814,4.99737679 2.3255814,5.47647059 Z" id="Shape" fill="#FFFFFF" fill-rule="nonzero"></path>
                        <ellipse id="Oval" fill="#553D81" fill-rule="nonzero" cx="1.45348837" cy="5.47647059" rx="1" ry="1"></ellipse>
                        <path d="M33.7209302,7.20595126 C33.7209302,8.0090112 33.0663057,8.64705882 32.2674419,8.64705882 C31.4574827,8.64705882 30.8139535,7.99801038 30.8139535,7.20595126 C30.8139535,6.40289131 31.468578,5.76484369 32.2674419,5.76484369 C33.0663057,5.75384287 33.7209302,6.40289131 33.7209302,7.20595126 Z" id="Shape" fill="#553D81" fill-rule="nonzero"></path>
                        <ellipse id="Oval" fill="#FFFFFF" fill-rule="nonzero" cx="32.2674419" cy="7.20588235" rx="1" ry="1"></ellipse>
                        <ellipse id="Oval" fill="#553D81" fill-rule="nonzero" cx="32.2674419" cy="7.20588235" rx="1" ry="1"></ellipse>
                        <ellipse id="Oval" fill="#553D81" fill-rule="nonzero" cx="36.9186047" cy="7.78235294" rx="1.45348837" ry="1.44117647"></ellipse>
                        <ellipse id="Oval" fill="#FFFFFF" fill-rule="nonzero" cx="36.9186047" cy="7.78235294" rx="1" ry="1"></ellipse>
                        <ellipse id="Oval" fill="#553D81" fill-rule="nonzero" cx="36.9186047" cy="7.78235294" rx="1" ry="1"></ellipse>
                    </g>
                </g>
            </g>
        </g>
    </g>
</svg>