<?xml version="1.0" encoding="UTF-8"?>
<svg width="122px" height="80px" viewBox="0 0 122 80" version="1.1" xmlns="http://www.w3.org/2000/svg" xmlns:xlink="http://www.w3.org/1999/xlink">
    <!-- Generator: Sketch 49.2 (51160) - http://www.bohemiancoding.com/sketch -->
    <title>trimoto_carga</title>
    <desc>Created with Sketch.</desc>
    <defs></defs>
    <g id="Ilustraciones" stroke="none" stroke-width="1" fill="none" fill-rule="evenodd">
        <g id="Group-31">
            <rect id="Rectangle-3-Copy-12" x="0" y="0" width="122" height="80"></rect>
            <g id="Group-5-Copy" transform="translate(11.000000, 35.000000)">
                <rect id="Rectangle-14-Copy-2" fill="#D5CFDF" x="0" y="33" width="100" height="4" rx="2"></rect>
                <g id="Group-4">
                    <rect id="Rectangle-2-Copy-4" fill="#553D81" x="48.7804878" y="20.0163934" width="20.7317073" height="6.06557377"></rect>
                    <rect id="Rectangle-2-Copy-5" fill="#553D81" x="54.8780488" y="18.8032787" width="8.53658537" height="8.49180328" rx="4.24590164"></rect>
                    <g id="Group-2" transform="translate(65.853659, 17.590164)" fill="#553D81">
                        <rect id="Rectangle-2" x="1.2195122" y="0" width="8.53658537" height="10.9180328"></rect>
                        <rect id="Rectangle-2-Copy" x="0" y="0" width="10.9756098" height="2.42622951" rx="1.21311475"></rect>
                        <rect id="Rectangle-2-Copy-2" x="0" y="4.24590164" width="10.9756098" height="2.42622951" rx="1.21311475"></rect>
                        <rect id="Rectangle-2-Copy-3" x="0" y="8.49180328" width="10.9756098" height="3.03278689" rx="1.51639344"></rect>
                    </g>
                    <g id="Group" transform="translate(85.365854, 6.065574)">
                        <ellipse id="Oval-7-Copy" fill="#553D81" cx="3.04878049" cy="4.24590164" rx="3.04878049" ry="3.03278689"></ellipse>
                        <path d="M3.04878049,7.27868852 C4.73257546,7.27868852 6.09756098,5.92086359 6.09756098,4.24590164 C6.09756098,2.57093969 4.73257546,1.21311475 3.04878049,1.21311475" id="Oval-7" fill="#ED6E00"></path>
                        <rect id="Rectangle" fill="#2B0D61" x="2.43902439" y="0" width="1.82926829" height="8.49180328" rx="0.914634146"></rect>
                    </g>
                    <path d="M74.6871251,2.42622951 L83.5365854,2.42622951 L83.5365854,5.45901639 L74.6871251,5.45901639 C73.8496442,5.45901639 73.1707317,4.78010392 73.1707317,3.94262295 L73.1707317,3.94262295 C73.1707317,3.10514198 73.8496442,2.42622951 74.6871251,2.42622951 Z" id="Rectangle-15" fill="#553D81"></path>
                    <rect id="Rectangle-15-Copy-3" fill="#553D81" x="71.9512195" y="1.81967213" width="7.31707317" height="4.24590164" rx="2.12295082"></rect>
                    <rect id="Rectangle-16" fill="#553D81" x="54.2682927" y="13.9508197" width="20.7317073" height="3.63934426"></rect>
                    <path d="M48.7804878,11.5245902 L59.1463415,11.5245902 C60.8301364,11.5245902 62.195122,12.8895757 62.195122,14.5733707 L62.195122,15.1479408 C62.195122,16.8317358 60.8301364,18.1967213 59.1463415,18.1967213 L48.7804878,18.1967213 L48.7804878,11.5245902 Z" id="Rectangle-16-Copy-4" fill="#553D81"></path>
                    <rect id="Rectangle-16-Copy-5" fill="#553D81" x="48.7804878" y="6.06557377" width="3.65853659" height="24.2622951"></rect>
                    <path d="M48.1707317,0 L48.1707317,0 C48.5074907,-6.18616236e-17 48.7804878,0.272997104 48.7804878,0.609756098 L48.7804878,30.3278689 L47.5609756,30.3278689 L47.5609756,0.609756098 C47.5609756,0.272997104 47.8339727,-2.71205284e-16 48.1707317,-3.33066907e-16 Z" id="Rectangle-16-Copy-6" fill="#553D81"></path>
                    <path d="M32.3170732,4.85245902 L32.3170732,4.85245902 C32.6538322,4.85245902 32.9268293,5.12545612 32.9268293,5.46221511 L32.9268293,13.3442623 L31.7073171,13.3442623 L31.7073171,5.46221511 C31.7073171,5.12545612 31.9803142,4.85245902 32.3170732,4.85245902 Z" id="Rectangle-16-Copy-7" fill="#553D81"></path>
                    <path d="M21.3414634,4.85245902 L21.3414634,4.85245902 C21.6782224,4.85245902 21.9512195,5.12545612 21.9512195,5.46221511 L21.9512195,13.3442623 L20.7317073,13.3442623 L20.7317073,5.46221511 C20.7317073,5.12545612 21.0047044,4.85245902 21.3414634,4.85245902 Z" id="Rectangle-16-Copy-8" fill="#553D81"></path>
                    <path d="M10.3658537,4.85245902 L10.3658537,4.85245902 C10.7026127,4.85245902 10.9756098,5.12545612 10.9756098,5.46221511 L10.9756098,13.3442623 L9.75609756,13.3442623 L9.75609756,5.46221511 C9.75609756,5.12545612 10.0290947,4.85245902 10.3658537,4.85245902 Z" id="Rectangle-16-Copy-9" fill="#553D81"></path>
                    <path d="M0.609756098,4.85245902 L0.609756098,4.85245902 C0.946515091,4.85245902 1.2195122,5.12545612 1.2195122,5.46221511 L1.2195122,15.1639344 L0,15.1639344 L0,5.46221511 C-4.12410824e-17,5.12545612 0.272997104,4.85245902 0.609756098,4.85245902 Z" id="Rectangle-16-Copy-10" fill="#553D81"></path>
                    <path d="M23.7804878,-18.1967213 L23.7804878,-18.1967213 C24.1172468,-18.1967213 24.3902439,-17.9237242 24.3902439,-17.5869652 L24.3902439,29.1147541 L23.1707317,29.1147541 L23.1707317,-17.5869652 C23.1707317,-17.9237242 23.4437288,-18.1967213 23.7804878,-18.1967213 Z" id="Rectangle-16-Copy-11" fill="#553D81" transform="translate(23.780488, 5.459016) scale(-1, 1) rotate(-270.000000) translate(-23.780488, -5.459016) "></path>
                    <rect id="Rectangle-16-Copy-2" fill="#553D81" x="48.7804878" y="27.9016393" width="25.6097561" height="2.42622951"></rect>
                    <path d="M66.9566326,17.8957559 L91.0276875,17.7086362 C91.5707476,17.7044147 92.0273125,18.115222 92.0802529,18.6557119 L92.0802529,18.6557119 C92.1269949,19.1329198 91.7780333,19.5576651 91.3008254,19.6044071 C91.2721867,19.6072122 91.2434263,19.6085918 91.2146506,19.6085407 L67.5787861,19.5665878 C67.098789,19.5657358 66.663935,19.2833948 66.4678441,18.845278 L66.4180437,18.7340112 C66.2837665,18.4340018 66.418119,18.0819429 66.7181285,17.9476657 C66.7931895,17.9140701 66.8743986,17.8963951 66.9566326,17.8957559 Z" id="Rectangle-16-Copy-3" fill="#553D81" transform="translate(79.225267, 18.658588) rotate(-66.000000) translate(-79.225267, -18.658588) "></path>
                    <rect id="Rectangle-16-Copy" fill="#553D81" x="63.4146341" y="9.09836066" width="19.5121951" height="9.09836066" rx="4.54918033"></rect>
                    <g id="Group-9" transform="translate(80.487805, 18.803279)">
                        <path d="M0,9.70491803 C0,4.34503981 4.36795366,0 9.75609756,0 C15.1442415,0 19.5121951,4.34503981 19.5121951,9.70491803" id="Path" fill="#553D81"></path>
                        <path d="M9.75609756,18.1967213 C14.4707235,18.1967213 18.2926829,14.3948115 18.2926829,9.70491803 C18.2926829,5.01502458 14.4707235,1.21311475 9.75609756,1.21311475 C5.04147165,1.21311475 1.2195122,5.01502458 1.2195122,9.70491803 C1.2195122,14.3948115 5.04147165,18.1967213 9.75609756,18.1967213 Z" id="Path" fill="#2B0D61"></path>
                        <ellipse id="Oval-2-Copy" fill="#FFFFFF" cx="9.75609756" cy="9.70491803" rx="5.48780488" ry="5.45901639"></ellipse>
                        <ellipse id="Oval-2-Copy-2" fill="#ED6E00" cx="9.75609756" cy="9.70491803" rx="3.04878049" ry="3.03278689"></ellipse>
                    </g>
                    <path d="M72.7589853,13.9723068 L98.8811392,14.9608303 C99.5380888,14.9856908 100.050498,15.5384071 100.025638,16.1953567 C100.024898,16.2148911 100.023678,16.2344044 100.021978,16.2538787 L100.014182,16.343172 C99.9576306,16.9908818 99.4028839,17.4803271 98.753175,17.4557406 L72.5414524,16.4638277 L72.7589853,13.9723068 Z" id="Rectangle-15-Copy" fill="#553D81" transform="translate(86.283969, 15.714455) rotate(-289.000000) translate(-86.283969, -15.714455) "></path>
                    <g id="Group-3" transform="translate(0.000000, 13.344262)">
                        <g id="Group-3-Copy-6">
                            <path d="M1.2195122,1.21311475 L48.1707317,1.21311475 C48.8442497,1.21311475 49.3902439,1.75910896 49.3902439,2.43262695 L49.3902439,14.557377 L0,14.557377 L0,2.43262695 C-8.24821648e-17,1.75910896 0.545994208,1.21311475 1.2195122,1.21311475 Z" id="Rectangle-Copy-8" fill="#806EA0"></path>
                            <rect id="Rectangle-Copy-10" fill="#553D81" x="0" y="2.42622951" width="49.3902439" height="1.21311475"></rect>
                            <rect id="Rectangle-Copy-12" fill="#553D81" x="0" y="7.27868852" width="49.3902439" height="1.21311475"></rect>
                            <path d="M0,13.3442623 L49.3902439,13.3442623 L49.3902439,14.5509796 C49.3902439,15.2244976 48.8442497,15.7704918 48.1707317,15.7704918 L1.2195122,15.7704918 C0.545994208,15.7704918 -5.8365165e-16,15.2244976 -6.66133815e-16,14.5509796 L0,13.3442623 Z" id="Rectangle-Copy-14" fill="#553D81"></path>
                            <path d="M1.21311475,0 L49.3902439,0 L49.3902439,1.21311475 L0,1.21311475 L0,1.21311475 C-8.20494714e-17,0.543129976 0.543129976,1.23074207e-16 1.21311475,0 Z" id="Rectangle-Copy-17" fill="#553D81"></path>
                            <polygon id="Rectangle-Copy-18" fill="#553D81" points="2.43902439 1.21311475 2.43902439 16.9836066 7.10542736e-15 16.9836066 1.36042938e-14 1.21311475"></polygon>
                            <polygon id="Rectangle-Copy-19" fill="#553D81" points="49.3902439 1.21311475 49.3902439 16.9836066 46.9512195 16.9836066 46.9512195 1.21311475"></polygon>
                            <rect id="Rectangle-Copy-11" fill="#553D81" x="0" y="4.85245902" width="49.3902439" height="1.21311475"></rect>
                            <rect id="Rectangle-Copy-13" fill="#553D81" x="0" y="9.70491803" width="49.3902439" height="1.21311475"></rect>
                        </g>
                    </g>
                    <g id="Group-9-Copy" transform="translate(7.317073, 18.803279)">
                        <path d="M0,9.70491803 C0,4.34503981 4.36795366,0 9.75609756,0 C15.1442415,0 19.5121951,4.34503981 19.5121951,9.70491803" id="Path" fill="#553D81"></path>
                        <path d="M9.75609756,18.1967213 C14.4707235,18.1967213 18.2926829,14.3948115 18.2926829,9.70491803 C18.2926829,5.01502458 14.4707235,1.21311475 9.75609756,1.21311475 C5.04147165,1.21311475 1.2195122,5.01502458 1.2195122,9.70491803 C1.2195122,14.3948115 5.04147165,18.1967213 9.75609756,18.1967213 Z" id="Path" fill="#2B0D61"></path>
                        <ellipse id="Oval-2-Copy" fill="#FFFFFF" cx="9.75609756" cy="9.70491803" rx="5.48780488" ry="5.45901639"></ellipse>
                        <ellipse id="Oval-2-Copy-2" fill="#ED6E00" cx="9.75609756" cy="9.70491803" rx="3.04878049" ry="3.03278689"></ellipse>
                    </g>
                </g>
            </g>
        </g>
    </g>
</svg>