<svg xmlns="http://www.w3.org/2000/svg" xmlns:xlink="http://www.w3.org/1999/xlink" width="48" height="48" viewBox="0 0 48 48">
  <defs>
    <rect id="capacitate-a" width="18" height="18" rx=".681"/>
  </defs>
  <g fill="none" fill-rule="evenodd">
    <circle cx="24" cy="24" r="24" fill="#806EA0"/>
    <g transform="translate(14 9)">
      <path fill="#FFF" d="M25.20908,13.7173212 L2.94944,0.457365583 C1.32756,-0.56613099 0,0.186866489 0,2.13035998 L0,27.8702738 C0,29.8127673 1.32756,30.5657648 2.94944,29.5432682 L25.20908,16.2833126 C25.20908,16.2833126 26,15.7483144 26,15.0003169 C26,14.2523194 25.20908,13.7173212 25.20908,13.7173212 L25.20908,13.7173212 Z"/>
      <g transform="translate(4 6)">
        <use fill="#FFF" xlink:href="#capacitate-a"/>
        <rect width="19" height="19" x="-.5" y="-.5" stroke="#806EA0" rx=".681"/>
        <rect width="3" height="2" x=".5" y="1.5" fill="#806EA0" fill-rule="nonzero" rx="1" transform="rotate(-90 2 2.5)"/>
        <rect width="3" height="2" x=".5" y="5.5" fill="#806EA0" fill-rule="nonzero" rx="1" transform="rotate(-90 2 6.5)"/>
        <rect width="3" height="2" x=".5" y="10.5" fill="#806EA0" fill-rule="nonzero" rx="1" transform="rotate(-90 2 11.5)"/>
        <rect width="3" height="2" x=".5" y="14.5" fill="#806EA0" fill-rule="nonzero" rx="1" transform="rotate(-90 2 15.5)"/>
        <rect width="3" height="2" x="14.5" y="1.5" fill="#806EA0" fill-rule="nonzero" rx="1" transform="rotate(-90 16 2.5)"/>
        <rect width="3" height="2" x="14.5" y="5.5" fill="#806EA0" fill-rule="nonzero" rx="1" transform="rotate(-90 16 6.5)"/>
        <rect width="3" height="2" x="14.5" y="10.5" fill="#806EA0" fill-rule="nonzero" rx="1" transform="rotate(-90 16 11.5)"/>
        <rect width="3" height="2" x="14.5" y="14.5" fill="#806EA0" fill-rule="nonzero" rx="1" transform="rotate(-90 16 15.5)"/>
        <rect width="4" height="6" x="7" y="1" fill="#806EA0" fill-rule="nonzero" rx=".681" transform="rotate(-90 9 4)"/>
        <rect width="4" height="6" x="7" y="6" fill="#806EA0" fill-rule="nonzero" rx=".681" transform="rotate(-90 9 9)"/>
        <rect width="4" height="6" x="7" y="11" fill="#806EA0" fill-rule="nonzero" rx=".681" transform="rotate(-90 9 14)"/>
      </g>
    </g>
  </g>
</svg>
