<?xml version="1.0" encoding="utf-8"?>
<!-- Generator: Adobe Illustrator 23.0.3, SVG Export Plug-In . SVG Version: 6.00 Build 0)  -->
<svg version="1.1" id="Layer_1" xmlns="http://www.w3.org/2000/svg" xmlns:xlink="http://www.w3.org/1999/xlink" x="0px" y="0px"
	 viewBox="0 0 48 48" style="enable-background:new 0 0 48 48;" xml:space="preserve">
<style type="text/css">
	.st0{fill:#806EA0;}
</style>
<g>
	<g>
		<g>
			<path class="st0" d="M24,0C10.7,0,0,10.7,0,24s10.7,24,24,24s24-10.7,24-24S37.3,0,24,0z M36.7,36.2c-0.4,0.4-0.9,0.6-1.5,0.6
				s-1.1-0.2-1.5-0.6l-5.9-5.9c-1.7,1.2-3.8,1.9-6,1.9c-5.8,0-10.5-4.7-10.5-10.5S16,11.1,21.8,11.1s10.5,4.7,10.5,10.5
				c0,2-0.6,4-1.6,5.6l6,6C37.5,34,37.5,35.4,36.7,36.2z"/>
			<path class="st0" d="M21.8,14.6c-3.9,0-7.1,3.2-7.1,7.1s3.2,7.1,7.1,7.1s7.1-3.2,7.1-7.1S25.7,14.6,21.8,14.6z M22.6,25.3v1H21
				v-0.9c-1.2-0.2-2.1-0.8-2.5-1.7l-0.1-0.2l1.5-0.6l0.1,0.2c0.2,0.5,0.9,0.9,1.7,0.9c0.3,0,1.5-0.1,1.5-0.8c0-0.4-0.5-0.6-1.5-0.8
				c-1.2-0.1-2.9-0.3-2.9-2.2c0-1.1,0.8-1.9,2.2-2.1V17h1.6v0.9c0.7,0.1,1.5,0.4,2,1.4l0.1,0.2l-1.4,0.6L23.2,20
				c-0.2-0.3-0.9-0.6-1.4-0.6c-0.4,0-1.3,0.1-1.3,0.7c0,0.4,0.5,0.5,1.4,0.6c1.2,0.2,3.1,0.4,3.1,2.3C24.9,24.4,23.8,25.1,22.6,25.3
				z"/>
		</g>
	</g>
</g>
</svg>
