<?xml version="1.0" encoding="utf-8"?>
<!-- Generator: Adobe Illustrator 23.0.3, SVG Export Plug-In . SVG Version: 6.00 Build 0)  -->
<svg version="1.1" id="Layer_1" xmlns="http://www.w3.org/2000/svg" xmlns:xlink="http://www.w3.org/1999/xlink" x="0px" y="0px"
	 viewBox="0 0 48 48" style="enable-background:new 0 0 48 48;" xml:space="preserve">
<style type="text/css">
	.st0{fill:#806EA0;}
	.st1{fill:#FFFFFF;}
</style>
<g>
	<path class="st0" d="M21.9,20.7c-0.9-0.1-1.4-0.2-1.4-0.6c0-0.6,0.9-0.7,1.3-0.7c0.5,0,1.2,0.3,1.4,0.6l0.1,0.1l1.4-0.6l-0.1-0.2
		c-0.5-1-1.3-1.3-2-1.4V17H21v1.1c-1.4,0.2-2.2,1-2.2,2.1c0,1.9,1.7,2.1,2.9,2.2c1,0.2,1.5,0.4,1.5,0.8c0,0.7-1.2,0.8-1.5,0.8
		c-0.8,0-1.5-0.4-1.7-0.9l-0.1-0.2l-1.5,0.6l0.1,0.2c0.4,0.9,1.3,1.5,2.5,1.7v0.9h1.6v-1c1.2-0.2,2.3-0.9,2.4-2.3
		C25,21.1,23.1,20.9,21.9,20.7z"/>
	<path class="st0" d="M30.7,27.2c1-1.6,1.6-3.6,1.6-5.6c0-5.8-4.7-10.5-10.5-10.5s-10.5,4.8-10.5,10.6S16,32.2,21.8,32.2
		c2.2,0,4.3-0.7,6-1.9l5.9,5.9c0.4,0.4,0.9,0.6,1.5,0.6c0.6,0,1.1-0.2,1.5-0.6c0.8-0.8,0.8-2.2,0-3L30.7,27.2z M21.8,28.8
		c-3.9,0-7.1-3.2-7.1-7.1c0-3.9,3.2-7.1,7.1-7.1c3.9,0,7.1,3.2,7.1,7.1C28.9,25.6,25.7,28.8,21.8,28.8z"/>
	<path class="st1" d="M24,0C10.7,0,0,10.7,0,24s10.7,24,24,24s24-10.7,24-24S37.3,0,24,0z M36.7,36.2c-0.4,0.4-0.9,0.6-1.5,0.6
		c-0.6,0-1.1-0.2-1.5-0.6l-5.9-5.9c-1.7,1.2-3.8,1.9-6,1.9c-5.8,0-10.5-4.7-10.5-10.5S16,11.1,21.8,11.1s10.5,4.7,10.5,10.5
		c0,2-0.6,4-1.6,5.6l6,6C37.5,34,37.5,35.4,36.7,36.2z"/>
	<path class="st1" d="M21.8,14.6c-3.9,0-7.1,3.2-7.1,7.1c0,3.9,3.2,7.1,7.1,7.1c3.9,0,7.1-3.2,7.1-7.1
		C28.9,17.8,25.7,14.6,21.8,14.6z M22.6,25.3v1H21v-0.9c-1.2-0.2-2.1-0.8-2.5-1.7l-0.1-0.2l1.5-0.6l0.1,0.2c0.2,0.5,0.9,0.9,1.7,0.9
		c0.3,0,1.5-0.1,1.5-0.8c0-0.4-0.5-0.6-1.5-0.8c-1.2-0.1-2.9-0.3-2.9-2.2c0-1.1,0.8-1.9,2.2-2.1V17h1.6v0.9c0.7,0.1,1.5,0.4,2,1.4
		l0.1,0.2l-1.4,0.6L23.2,20c-0.2-0.3-0.9-0.6-1.4-0.6c-0.4,0-1.3,0.1-1.3,0.7c0,0.4,0.5,0.5,1.4,0.6c1.2,0.2,3.1,0.4,3.1,2.3
		C24.9,24.4,23.8,25.1,22.6,25.3z"/>
</g>
</svg>
