<?xml version="1.0" encoding="utf-8"?>
<!-- Generator: Adobe Illustrator 23.0.3, SVG Export Plug-In . SVG Version: 6.00 Build 0)  -->
<svg version="1.1" id="Layer_1" xmlns="http://www.w3.org/2000/svg" xmlns:xlink="http://www.w3.org/1999/xlink" x="0px" y="0px"
	 viewBox="0 0 48 48" style="enable-background:new 0 0 48 48;" xml:space="preserve">
<style type="text/css">
	.st0{fill:#806EA0;}
	.st1{fill:#FFFFFF;}
</style>
<g>
	<path class="st0" d="M32.4,20.5l2.3-2.6l-3.6-3.6l-2.6,2.3c-0.5-0.4-1.2-0.6-1.8-0.8l-0.2-3.4h-5l-0.2,3.4
		c-0.6,0.2-1.2,0.5-1.8,0.8l-2.6-2.3l-3.6,3.6l2.3,2.6c-0.4,0.5-0.6,1.2-0.8,1.8l-3.4,0.2v5l3.4,0.2c0.2,0.6,0.5,1.2,0.8,1.8
		l-2.3,2.6l3.6,3.6l2.6-2.3c0.5,0.4,1.2,0.6,1.8,0.8l0.2,3.4h5l0.2-3.4c0.6-0.2,1.2-0.5,1.8-0.8l2.6,2.3l3.6-3.6l-2.3-2.6
		c0.4-0.5,0.6-1.2,0.8-1.8l3.4-0.2v-5l-3.4-0.2C33,21.7,32.7,21.1,32.4,20.5z M24,29.5c-2.5,0-4.5-2-4.5-4.5s2-4.5,4.5-4.5
		c2.5,0,4.5,2,4.5,4.5S26.5,29.5,24,29.5z"/>
	<circle class="st1" cx="24" cy="25" r="4.5"/>
	<path class="st1" d="M24,0C10.7,0,0,10.7,0,24s10.7,24,24,24c13.3,0,24-10.7,24-24S37.3,0,24,0z M36.6,27.5l-3.4,0.2
		c-0.2,0.6-0.4,1.3-0.8,1.8l2.3,2.6l-3.6,3.6l-2.6-2.3c-0.6,0.3-1.2,0.6-1.8,0.8l-0.2,3.4h-5l-0.2-3.4c-0.6-0.2-1.3-0.4-1.8-0.8
		l-2.6,2.3l-3.6-3.6l2.3-2.6c-0.3-0.6-0.6-1.2-0.8-1.8l-3.4-0.2v-5l3.4-0.2c0.2-0.6,0.4-1.3,0.8-1.8l-2.3-2.6l3.6-3.6l2.6,2.3
		c0.6-0.3,1.2-0.6,1.8-0.8l0.2-3.4h5l0.2,3.4c0.6,0.2,1.3,0.4,1.8,0.8l2.6-2.3l3.6,3.6l-2.3,2.6c0.3,0.6,0.6,1.2,0.8,1.8l3.4,0.2
		V27.5z"/>
</g>
</svg>
