<svg xmlns="http://www.w3.org/2000/svg" width="48" height="48" viewBox="0 0 48 48">
  <g fill="none" fill-rule="evenodd">
    <circle cx="24" cy="24" r="24" fill="#806EA0"/>
    <g fill-rule="nonzero" transform="translate(12 11)">
      <path fill="#FFF" d="M0.139283458,12.7752073 L11.761867,3.08972104 C11.9010581,2.97372843 12.1020848,2.96980362 12.2456974,3.08027483 L24.8489203,12.7750617 C24.9441791,12.8483377 25,12.9617023 25,13.0818839 L25,26.8912769 L0,26.8912769 L1.38777878e-15,13.0725833 C1.8838906e-15,12.9577008 0.0510282619,12.8487533 0.139283458,12.7752073 Z"/>
      <polyline stroke="#FFF" stroke-linecap="round" stroke-linejoin="round" stroke-width="2" points="0 10 12 0 25 10"/>
      <path fill="#806EA0" d="M9.38709677,18 L15.6129032,18 C15.8266909,18 16,18.1733091 16,18.3870968 L16,27 L9,27 L9,18.3870968 C9,18.1733091 9.17330913,18 9.38709677,18 Z"/>
    </g>
  </g>
</svg>
