<?xml version="1.0" encoding="utf-8"?>
<!-- Generator: Adobe Illustrator 23.0.3, SVG Export Plug-In . SVG Version: 6.00 Build 0)  -->
<svg version="1.1" id="Layer_1" xmlns="http://www.w3.org/2000/svg" xmlns:xlink="http://www.w3.org/1999/xlink" x="0px" y="0px"
	 viewBox="0 0 48 48" style="enable-background:new 0 0 48 48;" xml:space="preserve">
<style type="text/css">
	.st0{fill:#FFFFFF;}
	.st1{fill:#806EA0;}
</style>
<g>
	<polygon class="st0" points="30.1,8.8 30.1,15.3 35.9,15.3 	"/>
	<path class="st0" d="M27.6,7.4H14.4c-1.9,0-3.5,1.5-3.5,3.5v26.2c0,1.9,1.5,3.5,3.5,3.5h19.1c1.9,0,3.5-1.5,3.5-3.5V17.8h-9.4V7.4z
		 M16.2,36.2l-2-1.9l1.1-1.2l0.9,0.8l1.7-1.8l1.2,1.2L16.2,36.2z M16.2,30.3l-2-2l1.1-1.2l0.9,0.8l1.7-1.8l1.2,1.2L16.2,30.3z
		 M16.2,24.3l-2-1.9l1.1-1.2l0.9,0.8l1.7-1.8l1.2,1.1L16.2,24.3z M32.8,35.1H21.2v-2.5h11.6V35.1z M32.8,29.2H21.2v-2.5h11.6V29.2z
		 M32.8,20.7v2.5H21.2v-2.5H32.8z"/>
	<polygon class="st0" points="16.2,22 15.3,21.2 14.2,22.4 16.2,24.3 19.1,21.3 17.9,20.2 	"/>
	<rect x="21.2" y="32.6" class="st0" width="11.6" height="2.5"/>
	<polygon class="st0" points="16.2,33.9 15.3,33.1 14.2,34.3 16.2,36.2 19.1,33.3 17.9,32.1 	"/>
	<polygon class="st0" points="16.2,27.9 15.3,27.1 14.2,28.3 16.2,30.3 19.1,27.3 17.9,26.1 	"/>
	<rect x="21.2" y="20.7" class="st0" width="11.6" height="2.5"/>
	<rect x="21.2" y="26.7" class="st0" width="11.6" height="2.5"/>
	<path class="st0" d="M24,0C10.7,0,0,10.7,0,24s10.7,24,24,24s24-10.7,24-24S37.3,0,24,0z M30.1,8.8l5.8,6.5h-5.8V8.8z M37,37.1
		c0,2-1.6,3.5-3.5,3.5H14.4c-2,0-3.5-1.6-3.5-3.5V10.9c0-2,1.6-3.5,3.5-3.5h13.2v10.4H37V37.1z"/>
</g>
<g>
	<polygon class="st1" points="30.1,8.8 30.1,15.3 36,15.3 	"/>
	<path class="st1" d="M27.6,7.4H14.5c-1.9,0-3.5,1.5-3.5,3.5v26.2c0,1.9,1.5,3.5,3.5,3.5h19.1c1.9,0,3.5-1.5,3.5-3.5V17.8h-9.4V7.4z
		 M16.2,36.2l-2-1.9l1.1-1.2l0.9,0.8l1.7-1.8l1.2,1.2L16.2,36.2z M16.2,30.3l-2-2l1.1-1.2l0.9,0.8l1.7-1.8l1.2,1.2L16.2,30.3z
		 M16.2,24.3l-2-1.9l1.1-1.2l0.9,0.8l1.7-1.8l1.2,1.1L16.2,24.3z M32.8,35.1H21.2v-2.5h11.6V35.1z M32.8,29.2H21.2v-2.5h11.6V29.2z
		 M32.8,20.7v2.5H21.2v-2.5H32.8z"/>
	<g>
		<polygon class="st0" points="16.2,22 15.3,21.2 14.2,22.4 16.2,24.3 19.1,21.3 18,20.2 		"/>
		<rect x="21.2" y="32.6" class="st0" width="11.6" height="2.5"/>
		<polygon class="st0" points="16.2,33.9 15.3,33.1 14.2,34.3 16.2,36.2 19.1,33.3 18,32.1 		"/>
		<polygon class="st0" points="16.2,27.9 15.3,27.1 14.2,28.3 16.2,30.3 19.1,27.3 18,26.1 		"/>
		<rect x="21.2" y="20.7" class="st0" width="11.6" height="2.5"/>
		<rect x="21.2" y="26.7" class="st0" width="11.6" height="2.5"/>
	</g>
</g>
</svg>
