<?xml version="1.0" encoding="utf-8"?>
<!-- Generator: Adobe Illustrator 23.0.3, SVG Export Plug-In . SVG Version: 6.00 Build 0)  -->
<svg version="1.1" id="Layer_1" xmlns="http://www.w3.org/2000/svg" xmlns:xlink="http://www.w3.org/1999/xlink" x="0px" y="0px"
	 viewBox="0 0 48 48" style="enable-background:new 0 0 48 48;" xml:space="preserve">
<style type="text/css">
	.st0{fill:#806EA0;}
</style>
<g>
	<g>
		<path class="st0" d="M24,0C10.7,0,0,10.7,0,24c0,13.3,10.7,24,24,24s24-10.7,24-24S37.3,0,24,0z M14.5,32.7
			c-0.9,0-1.7-0.7-1.7-1.7c0-0.9,0.7-1.7,1.7-1.7c0.9,0,1.7,0.7,1.7,1.7C16.1,32,15.4,32.7,14.5,32.7z M14.5,25.7
			c-0.9,0-1.7-0.7-1.7-1.7c0-0.9,0.7-1.7,1.7-1.7c0.9,0,1.7,0.7,1.7,1.7C16.1,24.9,15.4,25.7,14.5,25.7z M14.5,18.6
			c-0.9,0-1.7-0.7-1.7-1.7c0-0.9,0.7-1.7,1.7-1.7c0.9,0,1.7,0.7,1.7,1.7C16.1,17.9,15.4,18.6,14.5,18.6z M35.2,32.6H19.7
			c-0.9,0-1.7-0.7-1.7-1.7c0-0.9,0.7-1.7,1.7-1.7h15.5c0.9,0,1.7,0.7,1.7,1.7C36.9,31.9,36.1,32.6,35.2,32.6z M35.2,25.6H19.7
			c-0.9,0-1.7-0.7-1.7-1.7c0-0.9,0.7-1.7,1.7-1.7h15.5c0.9,0,1.7,0.7,1.7,1.7C36.9,24.9,36.1,25.6,35.2,25.6z M35.2,18.6H19.7
			c-0.9,0-1.7-0.7-1.7-1.7c0-0.9,0.7-1.7,1.7-1.7h15.5c0.9,0,1.7,0.7,1.7,1.7C36.9,17.9,36.1,18.6,35.2,18.6z"/>
	</g>
</g>
</svg>
