<?xml version="1.0" encoding="utf-8"?>
<!-- Generator: Adobe Illustrator 23.0.3, SVG Export Plug-In . SVG Version: 6.00 Build 0)  -->
<svg version="1.1" id="Layer_1" xmlns="http://www.w3.org/2000/svg" xmlns:xlink="http://www.w3.org/1999/xlink" x="0px" y="0px"
	 viewBox="0 0 48 48" style="enable-background:new 0 0 48 48;" xml:space="preserve">
<style type="text/css">
	.st0{fill:#806EA0;}
</style>
<g>
	<g>
		<g>
			<path class="st0" d="M33.2,18.5H21.8l-3-2.7h-5.1c-0.4,0-0.7,0.3-0.7,0.7v17.4c0,0.4,0.3,0.7,0.7,0.7h0.5L17.1,20h16.9v-0.8
				C33.9,18.8,33.6,18.5,33.2,18.5z"/>
			<path class="st0" d="M24,0C10.7,0,0,10.7,0,24s10.7,24,24,24s24-10.7,24-24S37.3,0,24,0z M36.4,34c-0.1,1.7-1.4,3-3.1,3
				c0,0,0,0,0,0l-1.5,0l-18,0c-1.8,0-3.2-1.4-3.2-3.2V16.4c0-1.8,1.4-3.2,3.2-3.2h6.1l3,2.7h10.4c1.8,0,3.2,1.4,3.2,3.2V20l2.9,0
				L36.4,34z"/>
		</g>
	</g>
</g>
</svg>
