<svg xmlns="http://www.w3.org/2000/svg" xmlns:xlink="http://www.w3.org/1999/xlink" width="380" height="256" viewBox="0 0 380 256">
  <defs>
    <polygon id="car_protecta_security-a" points="0 .344 95.562 .344 95.562 112 0 112"/>
  </defs>
  <g fill="none" fill-rule="evenodd">
    <g fill="#E9E6EF" fill-rule="nonzero">
      <path d="M371.888734 54.25L355.215577 54.25C356.617524 51.3 357.418637 48.05 357.418637 44.55 357.418637 32.15 347.354659 22.1 334.937413 22.1 333.285118 22.1 331.632823 22.3 330.080668 22.65 325.974965 9.5 313.707928 0 299.187761 0 283.916551 0 271.148818 10.55 267.694019 24.75 267.393602 24.75 267.093185 24.75 266.792768 24.75 254.375522 24.75 244.311544 34.8 244.311544 47.2 244.311544 59.6 254.375522 69.65 266.792768 69.65 267.043115 69.65 267.293463 69.65 267.543811 69.65 267.694019 69.65 267.894298 69.65 268.094576 69.65L371.938804 69.65C376.194715 69.65 379.649513 66.2 379.649513 61.95 379.549374 57.65 376.144645 54.25 371.888734 54.25zM6.35883171 125L20.178025 125C19.0264256 122.55 18.3755216 119.85 18.3755216 116.95 18.3755216 106.65 26.7371349 98.35 37.0013908 98.35 38.403338 98.35 39.7552156 98.5 41.0570236 98.8 44.4617524 87.9 54.6258693 80 66.6926287 80 79.3602225 80 89.9749652 88.75 92.7788595 100.5 93.0292072 100.5 93.2795549 100.5 93.5299026 100.5 103.844228 100.5 112.155772 108.85 112.155772 119.1 112.155772 129.35 103.794159 137.7 93.5299026 137.7 93.3296245 137.7 93.1293463 137.7 92.9290682 137.7 92.7788595 137.7 92.6286509 137.7 92.4784423 137.7L6.35883171 137.7C2.85396384 137.7 0 134.85 0 131.35 2.27689911e-13 127.85 2.85396384 125 6.35883171 125z"/>
    </g>
    <g transform="translate(41 59)">
      <g transform="translate(0 44)">
        <g fill="#553D81" transform="translate(217.615 32.392)">
          <rect width="27.569" height="16.196" x="11.815" rx="3.938"/>
          <rect width="23.631" height="7.198" y="8.998" rx="1.969"/>
        </g>
        <g fill="#553D81" transform="matrix(-1 0 0 1 40.385 32.392)">
          <rect width="27.569" height="16.196" x="11.815" rx="3.938"/>
          <rect width="23.631" height="7.198" y="8.998" rx="1.969"/>
        </g>
        <rect width="39.385" height="57.586" x="4.938" y="95.377" fill="#2B0D61" rx="3.938"/>
        <rect width="39.385" height="57.586" x="213.677" y="95.377" fill="#2B0D61" rx="3.938"/>
        <path fill="#553D81" d="M68.0192243,9.688361e-17 L189.980776,1.77635684e-15 C192.496813,1.02529276e-14 194.861465,1.20195289 196.344315,3.2345867 L233.369231,53.9869412 L24.6307692,53.9869412 L61.6556852,3.2345867 C63.1385346,1.20195289 65.5031873,9.3439727e-15 68.0192243,8.8817842e-15 Z"/>
        <path fill="#7874A0" d="M70.3266042,7.19825882 L187.672419,7.19825882 C190.37562,7.19825882 192.889998,8.58441312 194.333059,10.8702104 L217.739609,47.9459939 C218.90078,49.785279 218.351059,52.2176291 216.511774,53.3787999 C215.882478,53.7760846 215.153498,53.9869412 214.409288,53.9869412 L43.5897346,53.9869412 C41.4145823,53.9869412 39.651273,52.2236319 39.651273,50.0484796 C39.651273,49.3042698 39.8621296,48.5752897 40.2594143,47.9459939 L63.6659637,10.8702104 C65.109025,8.58441312 67.6234033,7.19825882 70.3266042,7.19825882 Z" transform="matrix(-1 0 0 1 258 0)"/>
        <path fill="#553D81" d="M24.7995073,53.9869412 L233.201585,53.9869412 C244.077346,53.9869412 252.893892,62.8034876 252.893892,73.6792489 C252.893892,74.2750377 252.866854,74.8705196 252.812861,75.4638568 L246.906822,140.366047 L11.09427,140.366047 L5.18823099,75.4638568 C4.20261925,64.632848 12.1838905,55.0535843 23.0148993,54.0679726 C23.6082366,54.0139795 24.2037184,53.9869412 24.7995073,53.9869412 Z"/>
        <path fill="#806EA0" d="M6.95434286,107.973882 L251.046006,107.973882 C253.221158,107.973882 254.984467,109.737192 254.984467,111.912344 C254.984467,112.071813 254.974782,112.231135 254.955465,112.38943 L251.963774,136.904672 C251.722637,138.880656 250.044959,140.366047 248.054316,140.366047 L9.94603309,140.366047 C7.95538989,140.366047 6.27771135,138.880656 6.03657433,136.904672 L3.0448841,112.38943 C2.78139653,110.230296 4.31812195,108.266373 6.47725641,108.002885 C6.6355514,107.983568 6.79487353,107.973882 6.95434286,107.973882 Z"/>
        <rect width="47.262" height="21.595" x="182.169" y="71.983" fill="#F18B33" rx="3.938"/>
        <rect width="47.262" height="21.595" x="28.569" y="71.983" fill="#F18B33" rx="3.938"/>
        <g transform="translate(95.523 92.845)">
          <rect width="64.729" height="27.212" x="-1.164" y="-1.164" fill="#ED6E00" fill-rule="nonzero" stroke="#FFF" stroke-width="2.329" rx="2.329"/>
          <path fill="#FFF" d="M5.4008,15.369488 L5.4008,8.61715963 L7.4616,8.61715963 C8.1224,8.61715963 8.6936,8.69913023 9.1528,8.89381041 C9.9816,9.24218547 10.4408,9.91844295 10.4408,10.8815975 C10.4408,11.6603183 10.0712,12.5312559 8.9064,12.9308626 C8.4808,13.0743112 7.9544,13.1562818 7.3048,13.1562818 L7.1144,13.1562818 L7.1144,15.369488 L5.4008,15.369488 Z M7.1144,11.8959837 L7.4056,11.8959837 C7.6968,11.8959837 7.9432,11.8652448 8.1336,11.7832742 C8.492,11.6295793 8.66,11.3119432 8.66,10.8815975 C8.66,10.5332225 8.5032,10.2053401 8.156,10.0209062 C7.9656,9.91844295 7.708,9.87745765 7.372,9.87745765 L7.1144,9.87745765 L7.1144,11.8959837 Z M11.8408,15.369488 L11.8408,8.61715963 L14.2152,8.61715963 C14.8536,8.61715963 15.3464,8.69913023 15.7384,8.84257878 C16.6456,9.18070752 16.9928,9.856965 16.9928,10.6049467 C16.9928,11.4758844 16.3656,12.0906639 15.5816,12.3160831 L15.5816,12.3365757 C15.8056,12.4595316 16.1416,12.818153 16.5224,13.4534252 L17.6872,15.369488 L15.7384,15.369488 L14.8424,13.8325392 C14.4616,13.1767744 14.2152,12.9308626 14.0472,12.9001236 L13.5544,12.9001236 L13.5544,15.369488 L11.8408,15.369488 Z M13.5544,11.6398256 L14.092,11.6398256 C14.4056,11.6398256 14.596,11.588594 14.764,11.5066234 C15.0328,11.3631748 15.212,11.1070167 15.212,10.7586416 C15.212,10.4205129 15.0216,10.1233695 14.6968,9.9799209 C14.5512,9.91844295 14.3832,9.87745765 14.1032,9.87745765 L13.5544,9.87745765 L13.5544,11.6398256 Z M21.2488,15.4719513 C19.4792,15.4719513 18.4712,14.2833776 18.4712,12.0086933 C18.4712,9.73400909 19.4792,8.54543535 21.2488,8.54543535 C23.0184,8.54543535 24.0264,9.73400909 24.0264,12.0086933 C24.0264,14.2833776 23.0184,15.4719513 21.2488,15.4719513 Z M21.2488,14.170668 C22.0664,14.170668 22.2344,13.4739178 22.2344,12.0086933 C22.2344,10.5434688 22.0664,9.84671867 21.2488,9.84671867 C20.4312,9.84671867 20.2632,10.5434688 20.2632,12.0086933 C20.2632,13.4739178 20.4312,14.170668 21.2488,14.170668 Z M26.804,15.369488 L26.804,9.9389356 L24.6424,9.9389356 L24.6424,8.61715963 L30.8472,8.61715963 L30.4104,9.9389356 L28.5176,9.9389356 L28.5176,15.369488 L26.804,15.369488 Z M31.1832,15.051852 L31.6536,13.8427856 C32.236,14.078451 32.908,14.170668 33.356,14.170668 C34.476,14.170668 34.8456,13.8530319 34.8456,13.3407156 C34.8456,13.0128332 34.644,12.787414 34.2632,12.6747045 C34.0392,12.6029802 33.7368,12.5824875 33.3896,12.5824875 L32.292,12.5824875 L32.292,11.3734211 L33.1544,11.3734211 C34.0056,11.3734211 34.6104,11.178741 34.6104,10.5742078 C34.6104,10.1233695 34.2632,9.84671867 33.6248,9.84671867 C33.076,9.84671867 32.4152,10.0311525 31.8216,10.3180496 L31.396,9.11922957 C31.9896,8.84257878 32.8856,8.54543535 33.8712,8.54543535 C35.6408,8.54543535 36.4024,9.45735831 36.4024,10.4102666 C36.4024,11.0250461 36.0328,11.527116 35.316,11.8037668 L35.316,11.8242595 C36.1784,11.9779543 36.6376,12.5722412 36.6376,13.320223 C36.6376,14.549782 35.6632,15.4719513 33.5128,15.4719513 C32.8184,15.4719513 31.9112,15.3592417 31.1832,15.051852 Z M43.8168,13.668598 L44.2872,14.8981571 C43.38,15.3489954 42.5288,15.4719513 41.7448,15.4719513 C39.1912,15.4719513 37.8696,14.0374657 37.8696,12.0599249 C37.8696,10.1233695 39.4376,8.54543535 41.9352,8.54543535 C42.764,8.54543535 43.436,8.66839125 43.9512,8.86307144 L43.9512,10.297557 C43.3352,10.0004136 42.6744,9.84671867 41.98,9.84671867 C40.3896,9.84671867 39.6952,10.8815975 39.6952,12.0394323 C39.6952,13.2997303 40.5688,14.170668 41.9576,14.170668 C42.7304,14.170668 43.268,13.9657415 43.8168,13.668598 Z M46.8968,15.369488 L46.8968,9.9389356 L44.7352,9.9389356 L44.7352,8.61715963 L50.94,8.61715963 L50.5032,9.9389356 L48.6104,9.9389356 L48.6104,15.369488 L46.8968,15.369488 Z M51.3096,13.8120466 L51.3096,12.8283993 L55.0504,8.565928 L56.2824,8.565928 L56.2824,12.5517486 L57.38,12.5517486 L57.38,13.8120466 L56.2824,13.8120466 L56.2824,15.369488 L54.6136,15.369488 L54.6136,13.8120466 L51.3096,13.8120466 Z M53.2136,12.5927339 C53.3144,12.5824875 53.8968,12.5517486 54.1544,12.5517486 L54.6136,12.5517486 L54.6136,12.0496786 C54.6136,11.5476087 54.6696,10.9430755 54.6808,10.8611049 L53.2136,12.5927339 Z"/>
        </g>
      </g>
      <g transform="translate(231)">
        <mask id="car_protecta_security-b" fill="#fff">
          <use xlink:href="#car_protecta_security-a"/>
        </mask>
        <path fill="#2B0D61" d="M94.3969803,16.2980323 C80.7748958,15.275129 81.1120225,4.0426129 81.1120225,4.0426129 L80.4625577,3.89945161 C58.9319662,-0.841580645 36.6306704,-0.841580645 15.1000789,3.89945161 L14.4506141,4.0426129 C14.4506141,4.0426129 14.7872901,15.275129 1.16565634,16.2980323 C1.16565634,16.2980323 -11.6604845,92.967 47.781093,112.000226 C107.223121,92.967 94.3969803,16.2980323 94.3969803,16.2980323" mask="url(#car_protecta_security-b)"/>
        <path fill="#FFF" d="M47.8337585,101.234903 C37.711843,97.4183226 29.5207444,91.2619355 23.4569698,82.9030323 C17.9750543,75.3484516 14.0940402,65.8952903 11.9202937,54.8072903 C9.4950543,42.4330968 9.7397867,30.9034194 10.2544909,24.0610323 C16.6950543,21.5667742 20.6121247,16.948129 22.6371388,12.1876774 C30.9454205,10.6923871 39.3979275,9.93548387 47.8337585,9.93548387 C56.2700402,9.93548387 64.7216459,10.6919355 73.0303782,12.1876774 C75.0540402,16.9454194 78.9666036,21.5609032 85.4004064,24.0560645 C85.9169135,31.0235484 86.162998,42.8336774 83.6462656,55.314 C81.4328571,66.2895484 77.5324628,75.6447097 72.0532515,83.1198065 C66.0070543,91.3671613 57.8700402,97.4512903 47.8337585,101.234903"/>
        <path fill="#ED6E00" d="M48.1537383,98.0144516 C39.1793158,94.4042581 31.8779073,88.7794194 26.4379073,81.2808387 C21.2399355,74.1164516 17.5495693,65.1022581 15.4686679,54.488 C13.3670341,43.7658065 13.3106961,33.6993548 13.7235411,26.6 C18.7164426,24.1897419 22.7060764,20.3194194 25.2043299,15.4596129 C32.7811186,14.1910323 40.4931186,13.5483871 48.1537383,13.5483871 C55.814358,13.5483871 63.526358,14.1910323 71.1031468,15.4591613 C73.5991468,20.3149032 77.5833721,24.1825161 82.5690623,26.5932258 C82.9882172,33.871871 82.9219637,44.164129 80.7414566,54.9775484 C78.6235975,65.4802581 74.9156538,74.3982581 69.7217383,81.4836129 C64.2997665,88.8796774 57.0479355,94.4367742 48.1537383,98.0144516"/>
        <g transform="translate(24 39)">
          <rect width="47.751" height="2" y="25.253" fill="#B75500" rx="1"/>
          <g fill="#FFF" transform="translate(2.691)">
            <g transform="translate(35.007 5.612)">
              <rect width="4.398" height="2.806" x="1.885" rx=".63"/>
              <rect width="3.77" height="1.247" y="1.559" rx=".315"/>
            </g>
            <g transform="matrix(-1 0 0 1 6.734 5.612)">
              <rect width="4.398" height="2.806" x="1.885" rx=".63"/>
              <rect width="3.77" height="1.247" y="1.559" rx=".315"/>
            </g>
            <rect width="6.283" height="9.976" x="1.079" y="16.524" rx=".63"/>
            <rect width="6.283" height="9.976" x="34.379" y="16.524" rx=".63"/>
            <path d="M37.5205853,9.35296118 C39.2550642,9.35907681 40.6592399,10.7670276 40.6592399,12.5029412 C40.6592399,12.5907346 40.6555695,12.6784896 40.6482385,12.7659763 L39.680256,24.3176471 L2.0608336,24.3176471 L1.09285115,12.7659763 C0.947580843,11.0323553 2.23519355,9.50921284 3.96881464,9.36394253 C4.05247337,9.35693227 4.13637738,9.35326938 4.22032569,9.35296226 L10.1289582,0.557383451 C10.3630022,0.208986783 10.7551588,-7.36335956e-17 11.1748692,2.22044605e-16 L30.5660462,-2.22044605e-16 C30.9857567,-2.99144163e-16 31.3779132,0.208986783 31.6119573,0.557383451 L37.52059,9.35294118 Z M37.5092399,9.35294118 L4.2318498,9.35294118 L37.5092399,9.35294118 Z"/>
            <path d="M1.39550492,18.7058824 L40.3454661,18.7058824 C40.6934055,18.7058824 40.9754661,18.987943 40.9754661,19.3358824 C40.9754661,19.3593885 40.9741506,19.3828761 40.9715256,19.4062352 L40.4825,23.7579999 C40.4466853,24.0767097 40.1771564,24.3176471 39.8564406,24.3176471 L1.8845305,24.3176471 C1.56381467,24.3176471 1.29428574,24.0767097 1.25847102,23.7579999 L0.769445441,19.4062352 C0.730590628,19.0604721 0.979388957,18.7486777 1.32515206,18.7098229 C1.34851114,18.7071979 1.37199882,18.7058824 1.39550492,18.7058824 Z"/>
            <rect width="7.54" height="3.741" x="29.353" y="12.471" rx=".63"/>
            <rect width="7.54" height="3.741" x="4.849" y="12.471" rx=".63"/>
            <rect width="10.053" height="4.365" fill-rule="nonzero" rx=".372" transform="translate(15.53 16.212)"/>
          </g>
        </g>
      </g>
    </g>
  </g>
</svg>
