<svg xmlns="http://www.w3.org/2000/svg" width="204" height="34" viewBox="0 0 204 34">
  <g fill="none" fill-rule="evenodd">
    <g transform="translate(40)">
      <polygon fill="#2B0D61" points="81.471 .459 81.471 24.545 163.444 24.545 163.471 .459"/>
      <g transform="translate(0 .456)">
        <path fill="#FEFEFE" d="M92.4259009 10.46325L92.4259009 8.07158333 92.0514584 8.07158333C91.9440602 8.33116667 91.7916708 8.442 91.5971929 8.442 91.0674584 8.442 90.8279894 8.07158333 90.0225027 8.07158333 88.7351752 8.07158333 87.6669982 9.09970833 87.6669982 10.3086667 87.6669982 12.9409583 91.7684496 12.3474167 91.7684496 14.518875 91.7684496 15.2859583 91.1792106 15.8561667 90.4129097 15.8561667 89.4535823 15.8561667 88.2518832 15.2217917 87.9296885 13.5986667L87.5566973 13.5986667 87.5566973 16.2528333 87.9296885 16.2528333C87.9514584 15.967 88.1459363 15.7249167 88.4289451 15.7249167 88.8033876 15.7249167 89.5450159 16.2965833 90.3969451 16.2965833 91.7249097 16.2965833 92.8395292 15.1984583 92.8395292 13.9049167 92.8395292 11.0115833 88.7801664 11.5365833 88.7801664 9.56345833 88.7801664 8.927625 89.3026442 8.50908333 90.0674938 8.50908333 90.9832814 8.50908333 91.8337593 9.16970833 91.9876 10.46325L92.4259009 10.46325zM95.5481416 10.9474167C95.6381239 9.49929167 96.4000708 8.533875 97.6873982 8.533875 98.6670442 8.533875 99.8252035 9.23679167 99.7613451 10.9474167L95.5481416 10.9474167zM101.222832 11.32075C101.331681 9.51970833 99.6713628 8.07158333 97.8833274 8.07158333 95.6990796 8.07158333 93.9981239 9.91491667 93.9981239 12.2628333 93.9981239 14.61075 95.7455221 16.2965833 98.164885 16.2965833 99.5175221 16.2965833 100.414442 15.8386667 101.352 14.6311667L101.352 14.0609583C100.240283 15.3092917 99.6931327 15.682625 98.6249558 15.682625 97.5785487 15.682625 95.5046018 14.8061667 95.5481416 11.32075L101.222832 11.32075zM109.41514 8.07216667L109.040697 8.07216667C108.914432 8.358 108.714149 8.50966667 108.519671 8.50966667 108.127812 8.50966667 107.495034 8.07216667 106.338326 8.07216667 104.133759 8.07216667 102.344273 9.98404167 102.344273 12.369875 102.344273 14.697375 103.93783 16.2971667 106.230927 16.2971667 107.628556 16.2971667 108.804131 15.7255 109.63429 14.5865417L109.63429 14.0134167C108.82445 15.134875 107.690963 15.6365417 106.751954 15.6365417 105.181618 15.6365417 103.85075 13.8632083 103.85075 11.7369583 103.85075 9.828 104.920379 8.50966667 106.447175 8.50966667 107.737405 8.50966667 108.714149 9.412375 109.040697 10.8138333L109.41514 10.8138333 109.41514 8.07216667zM118.478825 8.07216667L118.104382 8.07216667 115.484736 8.31425 115.484736 8.68758333C116.815604 8.708 116.991214 8.84070833 116.991214 9.9155L116.991214 14.1052917C116.356984 14.9569583 115.680665 15.3769583 114.939037 15.3769583 113.891179 15.3769583 113.194542 14.71925 113.194542 13.621125L113.194542 8.07216667 112.82155 8.07216667 110.333975 8.31425 110.333975 8.68758333C111.447143 8.68758333 111.706931 8.97195833 111.706931 9.71716667L111.706931 13.691125C111.706931 15.134875 112.712701 16.2971667 114.240949 16.2971667 115.290258 16.2971667 116.185727 15.7925833 116.947674 14.7834167L116.991214 14.7834167 116.991214 16.0594583 119.805338 16.0594583 119.805338 15.6832083C118.758931 15.6832083 118.478825 15.441125 118.478825 14.5865417L118.478825 8.07216667zM123.649179 10.1371667C124.345816 9.456125 124.782665 9.19508333 125.283373 9.19508333 125.807303 9.19508333 126.483621 9.52466667 127.117851 9.87175L127.70709 8.49216667C127.315232 8.14070833 126.724542 7.87820833 126.289143 7.87820833 125.765214 7.87820833 125.088896 8.318625 123.649179 9.56695833L123.649179 7.87820833 123.277639 7.87820833 120.570913 8.12029167 120.570913 8.49216667C121.880011 8.49216667 122.163019 8.624875 122.163019 9.762375L122.163019 14.1869583C122.163019 15.3725833 122.030949 15.6832083 120.855373 15.6832083L120.855373 16.0550833 124.933604 16.0550833 124.933604 15.6832083C123.910418 15.6832083 123.649179 15.441125 123.649179 14.5865417L123.649179 10.1371667zM130.720191 4.98458333C130.196262 4.98458333 129.760864 5.40020833 129.760864 5.93104167 129.760864 6.45604167 130.196262 6.89645833 130.720191 6.89645833 131.242669 6.89645833 131.662103 6.45604167 131.662103 5.93104167 131.662103 5.40020833 131.242669 4.98458333 130.720191 4.98458333zM131.438598 7.89833333L131.071412 7.89833333 128.495306 8.13604167 128.495306 8.509375C129.628793 8.509375 129.956793 8.65958333 129.956793 9.73291667L129.956793 14.4885417C129.956793 15.40875 129.672333 15.6785417 128.495306 15.6785417L128.495306 16.0547917 132.73028 16.0547917 132.73028 15.6785417C131.640333 15.6785417 131.438598 15.2570833 131.438598 14.4885417L131.438598 7.89833333zM142.169278 9.8879375C141.881915 9.22585417 142.060428 8.82189583 142.655473 8.73439583L142.655473 8.16272917 138.931366 8.16272917 138.931366 8.73439583C139.832641 8.75772917 140.180959 8.98377083 140.577172 9.8879375L143.2868 16.1893958 142.768676 17.5412708C142.286835 18.9062708 141.739685 19.4546042 140.799225 19.4546042 140.539437 19.4546042 140.362375 19.4093958 140.057596 19.2766875L139.552535 20.6183542C139.948747 20.8604375 140.188216 20.9508542 140.516216 20.9508542 141.453773 20.9508542 142.462446 19.9168958 143.076358 18.1129375L145.674234 10.4041875C146.111083 9.10772917 146.613242 8.5798125 147.443402 8.5798125L147.443402 8.16272917 144.710552 8.16272917 144.710552 8.5798125C145.566835 8.62502083 145.629242 9.1310625 145.32011 10.0541875L143.96457 14.1637708 142.169278 9.8879375z"/>
        <path fill="#FEFEFE" d="M136.242057,5.54560417 L135.870517,5.54560417 C135.215968,6.8858125 134.337915,7.82935417 133.287154,8.35872917 L133.287154,8.73497917 L134.751543,8.73497917 L134.751543,13.9441458 C134.751543,15.2858125 135.670234,16.2089375 136.985136,16.2089375 C137.863189,16.2089375 138.648358,15.7685208 139.327579,14.9124792 L139.086658,14.6237292 C138.626588,15.1545625 138.211508,15.3718542 137.644039,15.3718542 C136.787756,15.3718542 136.242057,14.8249792 136.242057,13.7472708 L136.242057,8.73497917 L138.947331,8.73497917 L138.947331,8.1589375 L136.242057,8.1589375 L136.242057,5.54560417 Z"/>
        <polygon fill="#ED6D00" points="0 24.09 81.843 24.09 81.843 .003 0 .003"/>
        <path fill="#FEFEFE" d="M25.364269 11.9771458C25.7503221 11.9771458 26.0638088 11.9144375 26.2916673 11.7948542 26.7401274 11.5746458 26.9534726 11.1415208 26.9534726 10.5494375 26.9534726 10.0273542 26.7502867 9.57964583 26.3294018 9.3288125 26.100092 9.19464583 25.776446 9.12027083 25.3424991 9.12027083L24.9317735 9.12027083 24.9317735 11.9771458 25.364269 11.9771458zM23.489154 7.93610417L25.4020035 7.93610417C26.1363752 7.93610417 26.7125522 8.04547917 27.1827823 8.27589583 28.001331 8.6856875 28.4715611 9.4600625 28.4715611 10.5494375 28.4715611 11.4652708 28.0709947 12.4233958 26.9534726 12.8813125 26.5195257 13.0490208 25.9781805 13.1598542 25.2728354 13.1598542L24.9317735 13.1598542 24.9317735 15.9044375 23.489154 15.9044375 23.489154 7.93610417zM31.5834973 11.6125625C31.9579398 11.6125625 32.2206301 11.5411042 32.4644531 11.4069375 32.8011611 11.2129792 33.0145062 10.8527708 33.0145062 10.3540208 33.0145062 9.92964583 32.8374442 9.55922917 32.486223 9.34922917 32.2960991 9.21797917 32.0334088 9.12027083 31.595108 9.12027083L30.939108 9.12027083 30.939108 11.6125625 31.5834973 11.6125625zM29.4921345 7.93610417L31.6546124 7.93610417C32.402046 7.93610417 32.9332319 8.05714583 33.3541168 8.2656875 34.1987894 8.6638125 34.5311434 9.39735417 34.5311434 10.2096458 34.5311434 11.2727708 33.8983646 11.9771458 32.982577 12.2629792L32.982577 12.2906875C33.2205947 12.4233958 33.545692 12.8579792 33.9694796 13.5842292L35.2887363 15.9044375 33.6327717 15.9044375 32.486223 13.8861042C32.1030726 13.1715208 31.8142584 12.8463125 31.6212319 12.7967292L30.939108 12.7967292 30.939108 15.9044375 29.4921345 15.9044375 29.4921345 7.93610417zM42.1339221 11.9514792C42.1339221 10.1854375 41.184754 9.08439583 39.6797274 9.08439583 38.2153381 9.08439583 37.2284354 10.1373125 37.2284354 11.9514792 37.2284354 13.7539792 38.2153381 14.8054375 39.6797274 14.8054375 41.1368602 14.8054375 42.1339221 13.7539792 42.1339221 11.9514792M35.6856743 11.9514792C35.6856743 9.53210417 37.3343823 7.8623125 39.6797274 7.8623125 42.0279752 7.8623125 43.6766832 9.54377083 43.6766832 11.9514792 43.6766832 14.3927292 41.9887894 16.0231458 39.6797274 16.0231458 37.3474442 16.0231458 35.6856743 14.3927292 35.6856743 11.9514792"/>
        <polygon fill="#FEFEFE" points="46.223 9.17 43.914 9.17 43.914 7.936 50.184 7.936 49.783 9.17 47.667 9.17 47.667 15.905 46.223 15.905"/>
        <polygon fill="#FEFEFE" points="50.604 7.937 54.984 7.937 54.585 9.171 52.046 9.171 52.046 11.249 54.585 11.249 54.585 12.482 52.046 12.482 52.046 14.67 54.994 14.67 54.994 15.905 50.604 15.905"/>
        <path fill="#FEFEFE" d="M62.2725416,15.3950417 C61.3959398,15.8792083 60.5512673,16.0235833 59.7559398,16.0235833 C57.159515,16.0235833 55.7531788,14.342125 55.7531788,12.01025 C55.7531788,9.70316667 57.3844708,7.86275 59.9373558,7.86275 C60.8037982,7.86275 61.5265593,8.033375 62.0200106,8.25504167 L62.0200106,9.60545833 C61.4046478,9.27879167 60.7413912,9.08483333 59.9721876,9.08483333 C58.2160814,9.08483333 57.2915858,10.4148333 57.2915858,11.9767083 C57.2915858,13.6435833 58.3002584,14.805875 59.9271965,14.805875 C60.7094619,14.805875 61.3088602,14.5754583 61.8719752,14.25025 L62.2725416,15.3950417 Z"/>
        <polygon fill="#FEFEFE" points="65.324 9.17 63.018 9.17 63.018 7.936 69.285 7.936 68.884 9.17 66.771 9.17 66.771 15.905 65.324 15.905"/>
        <path fill="#2B0D61" d="M86.189692 33.1200625C85.6004531 33.4452708 85.0358867 33.5415208 84.5047009 33.5415208 82.763108 33.5415208 81.8197451 32.4156875 81.8197451 30.8523542 81.8197451 29.3050625 82.9169487 28.0742292 84.6251611 28.0742292 85.205692 28.0742292 85.6889841 28.1865208 86.0198867 28.3338125L86.0198867 29.2408958C85.6091611 29.0206875 85.1665062 28.8923542 84.6498336 28.8923542 83.4728071 28.8923542 82.8516389 29.7833958 82.8516389 30.8290208 82.8516389 31.9446458 83.5294088 32.7233958 84.6179044 32.7233958 85.1403823 32.7233958 85.5453027 32.5688125 85.9226478 32.3515208L86.189692 33.1200625zM90.8554195 30.8115208C90.8554195 29.6288125 90.2197381 28.8923542 89.2110655 28.8923542 88.2270655 28.8923542 87.5667115 29.5967292 87.5667115 30.8115208 87.5667115 32.0190208 88.2270655 32.7233958 89.2110655 32.7233958 90.1863575 32.7233958 90.8554195 32.0190208 90.8554195 30.8115208M86.5348177 30.8115208C86.5348177 29.1927708 87.6392779 28.0742292 89.2110655 28.0742292 90.7828531 28.0742292 91.8873133 29.2000625 91.8873133 30.8115208 91.8873133 32.4477708 90.7596319 33.5415208 89.2110655 33.5415208 87.6465345 33.5415208 86.5348177 32.4477708 86.5348177 30.8115208M92.612977 28.1227917L93.4910301 28.1227917 94.8857558 30.1396667C95.0700743 30.4152917 95.2094018 30.618 95.3284106 30.828L95.3458265 30.828C95.4590301 30.6252917 95.5954549 30.3905 95.7812248 30.106125L97.0554903 28.1227917 97.9422513 28.1227917 97.9422513 33.4602917 96.965508 33.4602917 96.965508 30.447375C96.965508 30.228625 96.965508 29.953 96.9814726 29.7415417L96.965508 29.7415417C96.8929416 29.8975833 96.699915 30.1965417 96.6041274 30.3409167L95.5548177 31.978625 95.1121628 31.978625 93.9511009 30.3015417C93.8378973 30.1396667 93.6927646 29.953 93.588269 29.7502917L93.5723044 29.7502917C93.5795611 29.96175 93.5795611 30.2359167 93.5795611 30.4225833L93.5795611 33.4602917 92.612977 33.4602917 92.612977 28.1227917zM100.14885 30.8285833C100.407186 30.8285833 100.614726 30.78775 100.768566 30.7060833 101.06754 30.56025 101.212673 30.2685833 101.212673 29.8719167 101.212673 29.523375 101.076248 29.2229583 100.793239 29.0537917 100.64085 28.9648333 100.421699 28.91525 100.132885 28.91525L99.8585841 28.91525 99.8585841 30.8285833 100.14885 30.8285833zM98.892 28.123375L100.173522 28.123375C100.664071 28.123375 101.051575 28.1948333 101.366513 28.3494167 101.913664 28.6250417 102.228602 29.1442083 102.228602 29.8719167 102.228602 30.4887917 101.961558 31.1275417 101.212673 31.43525 100.922407 31.549 100.559575 31.6219167 100.08354 31.6219167L99.8585841 31.6219167 99.8585841 33.460875 98.892 33.460875 98.892 28.123375zM105.467965 31.3299583L105.096425 30.2682917C104.952743 29.8643333 104.880177 29.6207917 104.832283 29.442875L104.816319 29.442875C104.768425 29.6295417 104.685699 29.8643333 104.540566 30.2770417L104.154513 31.3299583 105.467965 31.3299583zM104.420106 28.0982917L105.195115 28.0982917 107.330018 33.4605833 106.282159 33.4605833 105.765487 32.12475 103.871504 32.12475 103.373699 33.4605833 102.363575 33.4605833 104.420106 28.0982917zM108.812839 27.3123958C108.812839 26.8748958 109.094396 26.6401042 109.473193 26.6401042 109.931812 26.6401042 110.280131 26.9959375 110.531211 26.9959375 110.690857 26.9959375 110.706821 26.8909375 110.706821 26.6882292L111.335246 26.6882292 111.335246 27.0134375C111.335246 27.4421875 111.046432 27.6769792 110.674892 27.6769792 110.223529 27.6769792 109.869405 27.3298958 109.618326 27.3298958 109.457228 27.3298958 109.442715 27.4334375 109.442715 27.6288542L108.812839 27.6288542 108.812839 27.3123958zM111.56891 33.4607292L109.264202 30.4157292C109.030538 30.1153125 108.843317 29.8469792 108.667706 29.6048958L108.651742 29.6048958C108.667706 29.8163542 108.667706 30.1240625 108.667706 30.4317708L108.667706 33.4607292 107.699671 33.4607292 107.699671 28.1232292 108.66045 28.1232292 110.885335 31.0471875C111.117547 31.3621875 111.312025 31.6217708 111.473122 31.8726042L111.489087 31.8726042C111.480379 31.5896875 111.473122 31.2659375 111.473122 30.9742708L111.473122 28.1232292 112.448414 28.1232292 112.448414 33.4607292 111.56891 33.4607292zM113.399469 33.46L114.366053 33.46 114.366053 28.1225 113.399469 28.1225 113.399469 33.46zM113.833416 26.6320833L114.872566 26.6320833 114.099009 27.8235417 113.366088 27.8235417 113.833416 26.6320833zM117.83966 31.3299583L117.469572 30.2682917C117.324439 29.8643333 117.251873 29.6207917 117.203979 29.442875L117.186563 29.442875C117.138669 29.6295417 117.058846 29.8643333 116.912262 30.2770417L116.526209 31.3299583 117.83966 31.3299583zM116.791802 28.0982917L117.566811 28.0982917 119.701713 33.4605833 118.655306 33.4605833 118.138634 32.12475 116.2432 32.12475 115.743943 33.4605833 114.736722 33.4605833 116.791802 28.0982917zM123.053989 32.6344375C124.457423 32.6344375 124.988609 31.7754792 124.988609 30.7721458 124.988609 29.6536042 124.335512 28.9492292 123.038025 28.9492292L122.441529 28.9492292 122.441529 32.6344375 123.053989 32.6344375zM121.474945 28.1223542L123.128007 28.1223542C125.004573 28.1223542 126.029211 29.1752708 126.029211 30.7546458 126.029211 32.3748542 124.885565 33.4598542 123.038025 33.4598542L121.474945 33.4598542 121.474945 28.1223542z"/>
        <polygon fill="#2B0D61" points="126.746 28.123 129.679 28.123 129.415 28.948 127.714 28.948 127.714 30.341 129.415 30.341 129.415 31.168 127.714 31.168 127.714 32.635 129.688 32.635 129.688 33.46 126.746 33.46"/>
        <path fill="#2B0D61" d="M131.977331,32.3340208 C132.290818,32.5527708 132.694287,32.7233958 133.177579,32.7233958 C133.621685,32.7233958 134.062888,32.5527708 134.062888,32.0919375 C134.062888,31.0463125 131.766888,31.1761042 131.766888,29.5486042 C131.766888,28.7625625 132.388057,28.0742292 133.491065,28.0742292 C134.041119,28.0742292 134.499738,28.1952708 134.788552,28.3425625 L134.788552,29.2321458 C134.369119,29.0148542 133.942428,28.8923542 133.524446,28.8923542 C133.154358,28.8923542 132.798782,29.0381875 132.798782,29.4669375 C132.798782,30.4469375 135.094782,30.3171458 135.094782,32.0102708 C135.094782,32.9581875 134.290747,33.5415208 133.202251,33.5415208 C132.581083,33.5415208 132.000552,33.3636042 131.597083,33.0806875 L131.977331,32.3340208 Z"/>
        <polygon fill="#2B0D61" points="135.813 28.123 138.747 28.123 138.482 28.948 136.781 28.948 136.781 30.341 138.482 30.341 138.482 31.168 136.781 31.168 136.781 32.635 138.754 32.635 138.754 33.46 135.813 33.46"/>
        <path fill="#2B0D61" d="M144.001869 33.1116042C143.518577 33.3551458 142.808878 33.5418125 142.06725 33.5418125 140.327108 33.5418125 139.295214 32.4145208 139.295214 30.8847292 139.295214 29.2645208 140.447568 28.0745208 142.213834 28.0745208 142.83355 28.0745208 143.350223 28.1955625 143.752241 28.3413958L143.752241 29.2484792C143.332807 29.0384792 142.856772 28.8911875 142.284949 28.8911875 141.003427 28.8911875 140.327108 29.6859792 140.327108 30.8205625 140.327108 31.9711875 140.99617 32.7222292 142.139816 32.7222292 142.49394 32.7222292 142.817586 32.6580625 143.026577 32.5618125L143.026577 30.8686875 144.001869 30.8686875 144.001869 33.1116042zM145.049292 32.5049375C144.911416 32.2307708 144.847558 31.8720208 144.847558 31.4680625L144.847558 28.1226458 145.815593 28.1226458 145.815593 31.4024375C145.815593 31.6853542 145.864938 31.9288958 145.960726 32.1243125 146.146496 32.5049375 146.516584 32.7222292 147.049221 32.7222292 147.580407 32.7222292 147.951947 32.5049375 148.137717 32.1243125 148.233504 31.9288958 148.28285 31.6853542 148.28285 31.3951458L148.28285 28.1226458 149.249434 28.1226458 149.249434 31.4680625C149.249434 31.8807708 149.185575 32.2366042 149.047699 32.5136875 148.716796 33.2020208 148.024513 33.5418125 147.049221 33.5418125 146.065221 33.5418125 145.372938 33.2020208 145.049292 32.5049375M151.561834 30.5851875C151.811462 30.5851875 151.989975 30.5370625 152.151073 30.4466458 152.376028 30.3168542 152.521161 30.0747708 152.521161 29.7422708 152.521161 29.4593542 152.400701 29.2085208 152.165586 29.0699792 152.037869 28.9810208 151.859356 28.9153958 151.570542 28.9153958L151.126435 28.9153958 151.126435 30.5851875 151.561834 30.5851875zM150.1584 28.1235208L151.609727 28.1235208C152.110435 28.1235208 152.464559 28.2037292 152.746117 28.3422708 153.310683 28.6091458 153.53709 29.1020625 153.53709 29.6445625 153.53709 30.3591458 153.108949 30.8287292 152.49794 31.0226875L152.49794 31.0387292C152.659037 31.1276875 152.875285 31.4193542 153.158294 31.9049792L154.045055 33.4610208 152.931887 33.4610208 152.165586 32.1076875C151.90725 31.6308125 151.714223 31.4106042 151.586506 31.3785208L151.126435 31.3785208 151.126435 33.4610208 150.1584 33.4610208 150.1584 28.1235208zM158.662453 30.8115208C158.662453 29.6288125 158.026772 28.8923542 157.018099 28.8923542 156.034099 28.8923542 155.373745 29.5967292 155.373745 30.8115208 155.373745 32.0190208 156.034099 32.7233958 157.018099 32.7233958 157.993391 32.7233958 158.662453 32.0190208 158.662453 30.8115208M154.341851 30.8115208C154.341851 29.1927708 155.446312 28.0742292 157.018099 28.0742292 158.589887 28.0742292 159.694347 29.2000625 159.694347 30.8115208 159.694347 32.4477708 158.566665 33.5415208 157.018099 33.5415208 155.453568 33.5415208 154.341851 32.4477708 154.341851 30.8115208M160.540471 32.3340208C160.853958 32.5527708 161.257427 32.7233958 161.740719 32.7233958 162.184825 32.7233958 162.62748 32.5527708 162.62748 32.0919375 162.62748 31.0463125 160.330028 31.1761042 160.330028 29.5486042 160.330028 28.7625625 160.951196 28.0742292 162.055657 28.0742292 162.604258 28.0742292 163.062878 28.1952708 163.353143 28.3425625L163.353143 29.2321458C162.93371 29.0148542 162.505568 28.8923542 162.087586 28.8923542 161.717497 28.8923542 161.361922 29.0381875 161.361922 29.4669375 161.361922 30.4469375 163.659373 30.3171458 163.659373 32.0102708 163.659373 32.9581875 162.853887 33.5415208 161.766842 33.5415208 161.145674 33.5415208 160.565143 33.3636042 160.161674 33.0806875L160.540471 32.3340208z"/>
        <polygon fill="#FEFEFE" points="71.125 7.836 72.288 7.836 75.498 15.892 73.923 15.892 71.71 9.912 70.302 13.884 69.55 15.892 68.037 15.892"/>
      </g>
    </g>
    <polygon fill="#008CCC" points="5 24 10 24 10 0 5 0"/>
    <polygon fill="#781496" points="15 24 20 24 20 0 15 0"/>
    <polygon fill="#E60D2E" points="10 24 15 24 15 0 10 0"/>
    <polygon fill="#ED6E00" points="0 24 5 24 5 0 0 0"/>
    <polygon fill="#638F38" points="20 24 25 24 25 0 20 0"/>
    <polygon fill="#2B0D61" points="25 24 30 24 30 0 25 0"/>
  </g>
</svg>
