<svg xmlns="http://www.w3.org/2000/svg" xmlns:xlink="http://www.w3.org/1999/xlink" width="196" height="50" viewBox="0 0 196 50">
  <defs>
    <polygon id="sbs_logo-a" points=".173 .508 10.654 .508 10.654 10.328 .173 10.328"/>
  </defs>
  <g fill="none" fill-rule="evenodd">
    <polygon fill="#A7B6C0" points="0 26.591 22.951 49.485 46.125 26.37 23.28 3.371"/>
    <polygon fill="#152564" points="23.28 0 0 23.221 22.951 46.114 46.125 22.998"/>
    <g transform="translate(11.828 3.98)">
      <path fill="#FFF" d="M12.3655161.539831461L2.75588391 10.1252247C-1.56681724 14.4370225.969918391 20.9583708 4.69335517 24.6724157L20.6921368 8.71398876C17.9165966 5.98926966 15.1410563 3.26455056 12.3655161.539831461M10.4684839 37.5938202C13.6715069 34.3988764 16.8750931 31.2033708 20.0781161 28.008427 24.4008172 23.6966292 21.8640816 17.1752809 18.1406448 13.461236L2.14186322 29.4196629C4.91740345 32.144382 7.69294368 34.8685393 10.4684839 37.5938202"/>
      <path fill="#152564" d="M40.7065529 18.5406742L40.1630471 16.3193258C41.2494954 17.2288764 42.3950816 17.6833708 43.5981161 17.6833708 44.147254 17.6833708 44.6147253 17.5468539 45.0005299 17.274382 45.3863345 17.0013483 45.5789552 16.6698876 45.5789552 16.2805618 45.5789552 15.9294382 45.4325184 15.624382 45.1407713 15.3648315 44.8484609 15.1047191 44.2469437 14.7670787 43.3350931 14.3513483 42.3888862 13.9226966 41.7231621 13.532809 41.3373575 13.1822472 40.8231391 12.7142697 40.5663115 12.1238202 40.5663115 11.4092135 40.5663115 10.5777528 40.8991736 9.91202247 41.5648977 9.41202247 42.2311851 8.91202247 43.1131851 8.66202247 44.2120241 8.66202247 44.9475874 8.66202247 45.7366563 8.78505618 46.5775414 9.03168539L46.5775414 11.0586517C45.8532425 10.3052809 45.0354494 9.92831461 44.1241621 9.92831461 43.6335989 9.92831461 43.2275184 10.0485393 42.9059207 10.2889888 42.584323 10.5294382 42.4238057 10.8378652 42.4238057 11.2142697 42.4238057 11.5260674 42.5584149 11.7957303 42.8270701 12.0226966 43.0957253 12.2502247 43.6510586 12.5586517 44.4919437 12.9485393 45.5203805 13.4288764 46.2215874 13.8249438 46.5955644 14.1373034 47.1328747 14.5788764 47.4015299 15.1440449 47.4015299 15.8322472 47.4015299 16.741236 47.0191046 17.5013483 46.2536908 18.1120225 45.488277 18.7226966 44.5386908 19.0277528 43.4054954 19.0277528 42.5291276 19.0277528 41.6291046 18.8653933 40.7065529 18.5406742M55.9194759 18.7549438L55.9194759 17.8976404C55.218269 18.6510112 54.2895218 19.0274157 53.1326713 19.0274157 52.4083724 19.0274157 51.7539126 18.8588764 51.1698552 18.521236 50.5035678 18.1313483 50.0535563 17.5925843 49.8198207 16.9038202 49.7032345 16.5403371 49.6446598 15.9560674 49.6446598 15.1498876L49.6446598 10.9217978C49.6446598 10.2982022 49.6097402 9.88303371 49.5399011 9.67460674 49.4694989 9.46730337 49.2768782 9.22011236 48.9614759 8.9347191L52.0287632 8.9347191C51.7127977 9.22011236 51.520177 9.46730337 51.4497747 9.67460674 51.3799356 9.88303371 51.3450161 10.2982022 51.3450161 10.9217978L51.3450161 15.1498876C51.3450161 15.9425843 51.5027172 16.5206742 51.8181195 16.8841573 52.2619356 17.404382 52.8521885 17.6639326 53.5883149 17.6639326 53.9853839 17.6639326 54.3970966 17.5566292 54.8240161 17.3420225 55.2503724 17.1279775 55.551131 16.8392135 55.7268552 16.4751685 55.8197862 16.2802247 55.8670966 16.0010112 55.8670966 15.6375281L55.8670966 10.9217978C55.8670966 10.2982022 55.8316138 9.88303371 55.7617747 9.67460674 55.6913724 9.46730337 55.4987517 9.22011236 55.1833494 8.9347191L58.2506368 8.9347191C57.9352345 9.22011236 57.7420506 9.46730337 57.6722115 9.67460674 57.6018092 9.88303371 57.5668897 10.2982022 57.5668897 10.9217978L57.5668897 16.7673034C57.5668897 17.3908989 57.6018092 17.807191 57.6722115 18.0144944 57.7420506 18.2223596 57.9352345 18.4695506 58.2506368 18.7549438L55.9194759 18.7549438zM62.2815345 10.2983708L62.2815345 16.7674719C62.2815345 17.4039888 62.316454 17.8230899 62.3868563 18.0242135 62.4572586 18.2258989 62.6498793 18.4691573 62.9652816 18.7551124L59.8979943 18.7551124C60.2252241 18.456236 60.4206609 18.2096067 60.485431 18.0146629 60.5490747 17.8197191 60.5811782 17.4039888 60.5811782 16.7674719L60.5811782 10.9219663C60.5811782 10.2983708 60.5462586 9.88320225 60.4764195 9.67477528 60.4060172 9.46747191 60.2133966 9.2202809 59.8979943 8.93432584L61.4400862 8.93432584C61.5566724 8.93432584 61.8022356 8.92814607 62.1762126 8.91522472L63.1229828 8.91522472 63.613546 8.91522472C64.3964195 8.91522472 65.0362356 9.02533708 65.532431 9.2461236 66.0291897 9.46747191 66.4268218 9.79219101 66.7247644 10.2202809 67.0221437 10.6494944 67.1713966 11.1101685 67.1713966 11.6039888 67.1713966 12.3702809 66.8441667 13.039382 66.1897069 13.6107303 65.5352471 14.1826404 64.7760287 14.4680337 63.9114885 14.4680337 63.4558448 14.4680337 63.0232931 14.3320787 62.6143966 14.0590449 63.3972701 13.942191 63.9289483 13.8056742 64.209431 13.6500562 64.9337299 13.2601685 65.2964425 12.6691573 65.2964425 11.8770225 65.2964425 10.7596067 64.6008678 10.2011798 63.2102816 10.2011798 62.8830517 10.2011798 62.5738448 10.233764 62.2815345 10.2983708M70.8169966 14.0787079L70.8169966 17.2742135C71.3779621 17.3652247 71.9794793 17.4107303 72.6226747 17.4107303 73.7322149 17.4107303 74.725169 17.2090449 75.6021 16.806236L74.8654103 18.7551124 68.4334563 18.7551124C68.7488586 18.456236 68.9414793 18.206236 69.0118816 18.0045506 69.0817207 17.803427 69.1166402 17.3848876 69.1166402 16.747809L69.1166402 10.9219663C69.1166402 10.2983708 69.0817207 9.88320225 69.0118816 9.67477528 68.9414793 9.46747191 68.7488586 9.2202809 68.4334563 8.93432584L73.5339621 8.93432584C73.7789621 8.93432584 74.0008701 8.88938202 74.1996862 8.79837079L74.1996862 10.5910674C73.7789621 10.3567978 73.1481575 10.2399438 72.3067092 10.2399438 71.6522494 10.2399438 71.156054 10.2663483 70.8169966 10.3180337L70.8169966 12.7730899 72.7274333 12.7730899C72.9144218 12.7730899 73.1188701 12.7275843 73.3407782 12.636573L73.3407782 14.3708427C73.0484678 14.1758989 72.6226747 14.0787079 72.061146 14.0787079L70.8169966 14.0787079zM78.8266379 10.2009551L78.8266379 16.7672472C78.8266379 17.3908427 78.8615575 17.8071348 78.9319598 18.0144382 79.0023621 18.2223034 79.1949828 18.4694944 79.5103851 18.7548876L76.4430977 18.7548876C76.7703276 18.4560112 76.9657644 18.209382 77.0305345 18.0144382 77.0941782 17.8200562 77.1262816 17.4043258 77.1262816 16.7672472L77.1262816 10.9217416C77.1262816 10.2981461 77.0913621 9.88297753 77.021523 9.67455056 76.9511207 9.46724719 76.7585 9.22005618 76.4430977 8.93466292L79.422523 8.93466292C79.5278448 8.93466292 79.6506264 8.92792135 79.7903046 8.915L80.0707874 8.915C81.0288218 8.915 81.7829713 9.10994382 82.3321092 9.49926966 83.0214885 9.98016854 83.3661782 10.6363483 83.3661782 11.4672472 83.3661782 12.0908427 83.0738678 12.6824157 82.4898103 13.2408427 82.174408 13.5397191 81.7187644 13.7930899 81.1228793 14.0003933 82.2093276 15.5076966 83.0530287 16.576236 83.6551092 17.2060112 84.2571897 17.8357865 84.9082701 18.3391573 85.609477 18.7161236 84.7680287 18.7936517 84.2307184 18.8329775 83.9969828 18.8329775 83.5762586 18.8329775 83.2197414 18.7419663 82.9279943 18.5599438 82.6356839 18.3784831 82.2504425 18.0015169 81.7711437 17.4301685 80.8711207 16.3520787 79.9834885 15.059382 79.1071207 13.5526404 80.6959598 13.2672472 81.4906609 12.6110674 81.4906609 11.5846629 81.4906609 11.1430899 81.3301437 10.7857865 81.0091092 10.5127528 80.6875115 10.2397191 80.2639713 10.103764 79.7379253 10.103764 79.4343506 10.103764 79.1307759 10.1363483 78.8266379 10.2009551M89.4301816 18.7549438L86.3628943 18.7549438C86.6901241 18.4560674 86.8855609 18.2094382 86.9497678 18.0144944 87.0134115 17.8195506 87.0466414 17.404382 87.0466414 16.7673034L87.0466414 10.9217978C87.0466414 10.2982022 87.0111586 9.88303371 86.9407563 9.67460674 86.8714805 9.46730337 86.6777333 9.22011236 86.3628943 8.9347191L89.4301816 8.9347191C89.1142161 9.22011236 88.9221586 9.46730337 88.8517563 9.67460674 88.781354 9.88303371 88.7458713 10.2982022 88.7458713 10.9217978L88.7458713 16.7673034C88.7458713 17.3908989 88.781354 17.807191 88.8517563 18.0144944 88.9221586 18.2223596 89.1142161 18.4695506 89.4301816 18.7549438M93.1279356 11.350618L93.1279356 16.7674719C93.1279356 17.3910674 93.1628552 17.8067978 93.2332575 18.0146629 93.3036598 18.2225281 93.4957172 18.4691573 93.8116828 18.7551124L91.1470966 18.7551124C91.4743264 18.456236 91.6703264 18.2090449 91.7345333 18.0146629 91.7987402 17.8197191 91.8308437 17.4039888 91.8308437 16.7674719L91.8308437 10.9219663C91.8308437 10.2983708 91.7959241 9.88320225 91.7260851 9.67477528 91.656246 9.46747191 91.4630621 9.2202809 91.1470966 8.93432584L93.4439011 8.93432584C93.4788207 8.99949438 93.5312 9.09050562 93.6016023 9.20735955L93.6539816 9.28544944 93.8291425 9.5191573 98.7894069 16.2023034 98.7894069 10.9219663C98.7894069 10.2983708 98.7539241 9.88320225 98.6840851 9.67477528 98.6136828 9.46747191 98.4210621 9.2202809 98.1056598 8.93432584L100.769683 8.93432584C100.45428 9.2202809 100.261097 9.46747191 100.191257 9.67477528 100.121418 9.88320225 100.085936 10.2983708 100.085936 10.9219663L100.085936 19.2618539C99.1864759 18.9758989 98.4385218 18.436573 97.8426368 17.6444382L93.1279356 11.350618zM109.690611 8.77865169L109.112186 10.7662921C108.902106 10.5325843 108.662175 10.3893258 108.392956 10.3376404 108.241451 10.2983146 107.9666 10.2786517 107.569531 10.2786517L107.271589 10.2983146C107.014761 10.2983146 106.73991 10.3050562 106.4476 10.3179775L106.4476 16.7483146C106.4476 17.3848315 106.483083 17.8067416 106.553485 18.0146067 106.623324 18.2224719 106.815945 18.4696629 107.131347 18.7550562L104.064623 18.7550562C104.379462 18.4561798 104.572646 18.2061798 104.642485 18.0044944 104.712887 17.8033708 104.747807 17.3848315 104.747807 16.7483146L104.747807 10.3179775C104.467887 10.2921348 104.098979 10.2786517 103.643899 10.2786517 102.826106 10.2786517 102.159818 10.4674157 101.6456 10.8438202L102.189106 8.81741573C102.387359 8.89550562 102.662209 8.93426966 103.013094 8.93426966L108.655979 8.93426966C108.773129 8.93426966 108.89591 8.92808989 109.024324 8.91516854L109.199485 8.91516854C109.327899 8.90224719 109.491232 8.85674157 109.690611 8.77865169M113.125511 14.0787079L113.125511 17.2742135C113.686477 17.3652247 114.287994 17.4107303 114.930626 17.4107303 116.04073 17.4107303 117.033684 17.2090449 117.910052 16.806236L117.173925 18.7551124 110.741971 18.7551124C111.057374 18.456236 111.250557 18.206236 111.320397 18.0045506 111.390236 17.803427 111.425155 17.3848876 111.425155 16.747809L111.425155 10.9219663C111.425155 10.2983708 111.390236 9.88320225 111.320397 9.67477528 111.250557 9.46747191 111.057374 9.2202809 110.741971 8.93432584L115.841914 8.93432584C116.087477 8.93432584 116.309385 8.88938202 116.508201 8.79837079L116.508201 10.5910674C116.087477 10.3567978 115.456672 10.2399438 114.615787 10.2399438 113.960764 10.2399438 113.464569 10.2663483 113.125511 10.3180337L113.125511 12.7730899 115.035948 12.7730899C115.222937 12.7730899 115.427385 12.7275843 115.649293 12.636573L115.649293 14.3708427C115.356983 14.1758989 114.930626 14.0787079 114.370224 14.0787079L113.125511 14.0787079zM120.731663 11.350618L120.731663 16.7674719C120.731663 17.3910674 120.766583 17.8067978 120.836985 18.0146629 120.907387 18.2225281 121.099445 18.4691573 121.41541 18.7551124L118.750824 18.7551124C119.078054 18.456236 119.274054 18.2090449 119.338261 18.0146629 119.402468 17.8197191 119.434571 17.4039888 119.434571 16.7674719L119.434571 10.9219663C119.434571 10.2983708 119.399652 9.88320225 119.329813 9.67477528 119.259974 9.46747191 119.06679 9.2202809 118.750824 8.93432584L121.047629 8.93432584C121.082548 8.99949438 121.134928 9.09050562 121.20533 9.20735955L121.257709 9.28544944 121.43287 9.5191573 126.393134 16.2023034 126.393134 10.9219663C126.393134 10.2983708 126.357652 9.88320225 126.287813 9.67477528 126.21741 9.46747191 126.02479 9.2202809 125.709387 8.93432584L128.37341 8.93432584C128.058008 9.2202809 127.864824 9.46747191 127.794985 9.67477528 127.725146 9.88320225 127.689663 10.2983708 127.689663 10.9219663L127.689663 19.2618539C126.790203 18.9758989 126.042249 18.436573 125.446364 17.6444382L120.731663 11.350618zM132.369501 10.2983708L132.369501 17.3129775C132.708559 17.3781461 133.040857 17.4107303 133.368087 17.4107303 134.455099 17.4107303 135.28472 17.2028652 135.856949 16.7871348 136.7688 16.1247753 137.224444 15.1635393 137.224444 13.903427 137.224444 12.7601685 136.90003 11.8511798 136.251766 11.1753371 135.602938 10.5000562 134.729386 10.1618539 133.63111 10.1618539 133.292616 10.1618539 132.871892 10.2079213 132.369501 10.2983708M132.509743 18.7551124L129.985961 18.7551124C130.313191 18.456236 130.508628 18.2096067 130.573398 18.0146629 130.637041 17.8197191 130.669145 17.4039888 130.669145 16.7674719L130.669145 10.9219663C130.669145 10.2983708 130.634225 9.88320225 130.564386 9.67477528 130.494547 9.46747191 130.301363 9.2202809 129.985961 8.93432584L132.597041 8.93432584C132.78403 8.93432584 133.006501 8.92814607 133.263329 8.91522472L133.718972 8.91522472C135.2498 8.91522472 136.488317 9.29837079 137.434524 10.0646629 138.568283 10.9871348 139.13488 12.2146629 139.13488 13.7472472 139.13488 14.7343258 138.880869 15.6405056 138.372283 16.4657865 137.86426 17.2905056 137.189524 17.8910674 136.348076 18.2680337 135.635605 18.5927528 134.355409 18.7551124 132.509743 18.7551124M142.938125 14.0787079L142.938125 17.2742135C143.499091 17.3652247 144.100608 17.4107303 144.74324 17.4107303 145.853344 17.4107303 146.846298 17.2090449 147.722666 16.806236L146.986539 18.7551124 140.554585 18.7551124C140.869987 18.456236 141.063171 18.206236 141.13301 18.0045506 141.202849 17.803427 141.237769 17.3848876 141.237769 16.747809L141.237769 10.9219663C141.237769 10.2983708 141.202849 9.88320225 141.13301 9.67477528 141.063171 9.46747191 140.869987 9.2202809 140.554585 8.93432584L145.654528 8.93432584C145.900091 8.93432584 146.121999 8.88938202 146.320815 8.79837079L146.320815 10.5910674C145.900091 10.3567978 145.269286 10.2399438 144.428401 10.2399438 143.773378 10.2399438 143.277183 10.2663483 142.938125 10.3180337L142.938125 12.7730899 144.848562 12.7730899C145.035551 12.7730899 145.239999 12.7275843 145.461907 12.636573L145.461907 14.3708427C145.169597 14.1758989 144.74324 14.0787079 144.182838 14.0787079L142.938125 14.0787079zM150.54484 11.350618L150.54484 16.7674719C150.54484 17.3910674 150.57976 17.8067978 150.650162 18.0146629 150.720564 18.2225281 150.912622 18.4691573 151.228587 18.7551124L148.564001 18.7551124C148.891231 18.456236 149.087231 18.2090449 149.151438 18.0146629 149.215645 17.8197191 149.247748 17.4039888 149.247748 16.7674719L149.247748 10.9219663C149.247748 10.2983708 149.212829 9.88320225 149.14299 9.67477528 149.073151 9.46747191 148.879967 9.2202809 148.564001 8.93432584L150.860806 8.93432584C150.895725 8.99949438 150.948105 9.09050562 151.018507 9.20735955L151.070886 9.28544944 151.246047 9.5191573 156.206311 16.2023034 156.206311 10.9219663C156.206311 10.2983708 156.170829 9.88320225 156.10099 9.67477528 156.030587 9.46747191 155.837967 9.2202809 155.522564 8.93432584L158.186587 8.93432584C157.871185 9.2202809 157.678001 9.46747191 157.608162 9.67477528 157.538323 9.88320225 157.50284 10.2983708 157.50284 10.9219663L157.50284 19.2618539C156.60338 18.9758989 155.855426 18.436573 155.259541 17.6444382L150.54484 11.350618zM168.422124 16.4751124L167.493377 18.5408427C166.74486 18.865 165.956354 19.0273596 165.126733 19.0273596 163.315986 19.0273596 161.90794 18.4560112 160.902595 17.3133146 160.014963 16.2998315 159.570584 15.1245506 159.570584 13.7863483 159.570584 12.3318539 160.067343 11.1138764 161.06086 10.1329775 162.053251 9.15207865 163.286699 8.66162921 164.758952 8.66162921 165.541825 8.66162921 166.464377 8.80488764 167.527733 9.0902809L167.527733 11.0779213C166.522952 10.4543258 165.594205 10.1425281 164.741492 10.1425281 163.794722 10.1425281 163.000021 10.4936517 162.357389 11.1947753 161.796423 11.8054494 161.516503 12.6172472 161.516503 13.6307303 161.516503 14.7217416 161.852182 15.656573 162.524101 16.4363483 163.196021 17.2155618 164.010998 17.6054494 164.969032 17.6054494 165.903411 17.6054494 167.05463 17.2284831 168.422124 16.4751124M172.540659 18.7549438L169.473371 18.7549438C169.800601 18.4560674 169.996038 18.2094382 170.060808 18.0144944 170.124452 17.8195506 170.157118 17.404382 170.157118 16.7673034L170.157118 10.9217978C170.157118 10.2982022 170.121636 9.88303371 170.051797 9.67460674 169.981957 9.46730337 169.788774 9.22011236 169.473371 8.9347191L172.540659 8.9347191C172.224693 9.22011236 172.032636 9.46730337 171.962233 9.67460674 171.892394 9.88303371 171.856911 10.2982022 171.856911 10.9217978L171.856911 16.7673034C171.856911 17.3908989 171.892394 17.807191 171.962233 18.0144944 172.032636 18.2223596 172.224693 18.4695506 172.540659 18.7549438"/>
      <g transform="translate(173.471 8.427)">
        <mask id="sbs_logo-b" fill="#fff">
          <use xlink:href="#sbs_logo-a"/>
        </mask>
        <path fill="#152564" d="M6.43026437,5.59303371 L5.16865517,1.8711236 L3.871,5.59303371 L6.43026437,5.59303371 Z M6.81606897,6.74247191 L3.52067816,6.74247191 L2.69668966,8.86662921 C2.59193103,9.13910112 2.53955172,9.36044944 2.53955172,9.52898876 C2.53955172,9.73685393 2.72034483,10.0037079 3.08305747,10.3278652 L0.173471264,10.3278652 C0.664034483,10.0289888 1.11967816,9.32168539 1.53983908,8.20426966 L3.97688506,1.83235955 C4.08164368,1.55988764 4.13402299,1.35820225 4.13402299,1.22842697 C4.13402299,1.03348315 3.96449425,0.793595506 3.626,0.507640449 L6.23708046,0.507640449 L9.23452874,8.20426966 C9.49135632,8.86662921 9.70425287,9.32449438 9.87378161,9.57786517 C10.0433103,9.83123596 10.3035172,10.081236 10.6538391,10.3278652 L7.4113908,10.3278652 C7.50488506,10.2244944 7.56345977,10.1655056 7.58711494,10.1525843 C7.80845977,9.9452809 7.91997701,9.77 7.91997701,9.62674157 C7.91997701,9.52280899 7.83831034,9.2694382 7.67441379,8.86662921 L6.81606897,6.74247191 Z" mask="url(#sbs_logo-b)"/>
      </g>
      <path fill="#152564" d="M49.0495069 26.1400562L49.0495069 30.8658989C49.2776103 30.9097191 49.5023345 30.9316292 49.7225529 30.9316292 50.4547368 30.9316292 51.0134494 30.7917416 51.399254 30.5114045 52.0137253 30.0653371 52.3206793 29.4175843 52.3206793 28.5687079 52.3206793 27.7984831 52.1021506 27.1855618 51.6650931 26.7305056 51.2280356 26.2754494 50.6394724 26.0479213 49.8999667 26.0479213 49.6713 26.0479213 49.3880011 26.0788202 49.0495069 26.1400562M49.1435644 31.837809L47.443208 31.837809C47.6639897 31.6361236 47.7957828 31.4698315 47.8391506 31.3389326 47.8825184 31.2074719 47.9039207 30.9271348 47.9039207 30.4984831L47.9039207 26.5597191C47.9039207 26.1400562 47.8802655 25.8597191 47.8329552 25.7198315 47.7856448 25.5799438 47.6561046 25.4136517 47.443208 25.2209551L49.2027023 25.2209551C49.3288632 25.2209551 49.4786793 25.2164607 49.6515874 25.2080337L49.9585414 25.2080337C50.9897943 25.2080337 51.8244839 25.4658989 52.4626103 25.982191 53.2257713 26.6035393 53.6076333 27.4310674 53.6076333 28.4636517 53.6076333 29.1288202 53.4364149 29.7389326 53.0939782 30.2951124 52.7515414 30.8512921 52.2970241 31.2552247 51.7298632 31.5097191 51.2500011 31.7282584 50.3877138 31.837809 49.1435644 31.837809M56.1705586 28.6867978L56.1705586 30.8396067C56.5484782 30.9008427 56.9539954 30.9317416 57.3871103 30.9317416 58.1345011 30.9317416 58.8041678 30.7963483 59.3944207 30.5244382L58.8982253 31.8373596 54.5642598 31.8373596C54.7771563 31.636236 54.9066966 31.4676966 54.9540069 31.3323034 55.0013172 31.1969101 55.0249724 30.9143258 55.0249724 30.4851124L55.0249724 26.5598315C55.0249724 26.1401685 55.0013172 25.8598315 54.9540069 25.7199438 54.9066966 25.5800562 54.7771563 25.413764 54.5642598 25.2210674L58.0010184 25.2210674C58.1660414 25.2210674 58.3158575 25.1901685 58.4493402 25.1289326L58.4493402 26.3367978C58.1660414 26.1789326 57.7413747 26.1002809 57.1742138 26.1002809 56.7332138 26.1002809 56.3986621 26.1182584 56.1705586 26.1530899L56.1705586 27.8075843 57.4575126 27.8075843C57.5836736 27.8075843 57.7210989 27.7766854 57.8709149 27.7154494L57.8709149 28.8839888C57.6737885 28.7525281 57.3871103 28.6867978 57.0091908 28.6867978L56.1705586 28.6867978zM64.6842805 28.5946067L64.6842805 30.9316854C64.9912345 30.9934831 65.2627057 31.0232584 65.4992575 31.0232584 66.4753149 31.0232584 66.9636253 30.6294382 66.9636253 29.8423596 66.9636253 28.9839326 66.4201195 28.5558427 65.3336713 28.5558427 65.1528782 28.5558427 64.9360391 28.568764 64.6842805 28.5946067zM64.6842805 27.8592135L64.9439241 27.8592135C65.3770391 27.8592135 65.7234184 27.7721348 65.9836253 27.5974157 66.243269 27.4221348 66.3733724 27.185618 66.3733724 26.888427 66.3733724 26.6080899 66.2725563 26.3844944 66.0720506 26.218764 65.8709816 26.0524719 65.5978207 25.9693258 65.2508782 25.9693258 65.1095103 25.9693258 64.920269 25.9822472 64.6842805 26.0080899L64.6842805 27.8592135zM64.6133149 31.8373034L63.1016368 31.8373034C63.3224184 31.6361798 63.4542115 31.4698876 63.4975793 31.3389888 63.5409471 31.2069663 63.5623494 30.927191 63.5623494 30.4985393L63.5623494 26.5597753C63.5623494 26.1401124 63.5386943 25.8597753 63.4913839 25.7198876 63.4440736 25.58 63.3145333 25.4137079 63.1016368 25.2210112L64.6133149 25.2210112C65.4006943 25.2210112 65.877177 25.23 66.0422 25.2468539 66.4989701 25.2906742 66.8667517 25.4502247 67.1466713 25.7266292 67.4260276 26.0019101 67.5657057 26.3367416 67.5657057 26.7305618 67.5657057 27.2558427 67.2745218 27.6710112 66.6915908 27.9777528 67.1720161 28.135618 67.5144529 28.3193258 67.7194644 28.5294382 68.0416253 28.8620225 68.203269 29.2642697 68.203269 29.7367416 68.203269 30.1221348 68.0855563 30.4833708 67.8490046 30.8198876 67.6130161 31.1575281 67.2942345 31.4131461 66.8926598 31.5878652 66.6324529 31.7019101 66.3885793 31.771573 66.1604759 31.7979775 65.908154 31.824382 65.3928092 31.8373034 64.6133149 31.8373034zM72.9508057 28.6473034L72.100346 26.14 71.226231 28.6473034 72.9508057 28.6473034zM73.2104494 29.4220225L70.9908057 29.4220225 70.4354724 30.8529213C70.3645069 31.0366292 70.3290241 31.1860674 70.3290241 31.2995506 70.3290241 31.4394382 70.4512425 31.6186517 70.6951161 31.8377528L68.7351161 31.8377528C69.0657253 31.6360674 69.3726793 31.1596629 69.6559782 30.4068539L71.2971966 26.1135955C71.3681621 25.9298876 71.4036448 25.7944944 71.4036448 25.7068539 71.4036448 25.5753933 71.2893115 25.4135955 71.061208 25.2208989L72.8207023 25.2208989 74.8398402 30.4068539C75.0133115 30.8529213 75.1569322 31.1619101 75.2712655 31.3321348 75.3850356 31.5029213 75.5601966 31.6714607 75.7967483 31.8377528L73.6120241 31.8377528C73.6751046 31.7680899 73.7139667 31.7282022 73.7303 31.7197753 73.8795529 31.5798876 73.9544609 31.4613483 73.9544609 31.3652809 73.9544609 31.2950562 73.8992655 31.1242697 73.7888747 30.8529213L73.2104494 29.4220225zM77.6504126 26.8488764L77.6504126 30.4983146C77.6504126 30.9185393 77.6740678 31.1988764 77.7213782 31.338764 77.7686885 31.4786517 77.8982287 31.6449438 78.1111253 31.8376404L76.3161483 31.8376404C76.5363667 31.6359551 76.6681598 31.4702247 76.7115276 31.338764 76.7548954 31.2073034 76.7768609 30.9275281 76.7768609 30.4983146L76.7768609 26.5595506C76.7768609 26.1398876 76.7532057 25.8595506 76.7058954 25.7196629 76.6585851 25.5797753 76.5284816 25.4134831 76.3161483 25.2213483L77.862746 25.2213483C77.8864011 25.2651685 77.9218839 25.3258427 77.9691943 25.4050562L78.004677 25.4567416 78.1229529 25.6146067 81.4645276 30.1174157 81.4645276 26.5595506C81.4645276 26.1398876 81.4408724 25.8595506 81.3935621 25.7196629 81.3468149 25.5797753 81.2167115 25.4134831 81.0043782 25.2213483L82.7993552 25.2213483C82.5864586 25.4134831 82.4569184 25.5797753 82.409608 25.7196629 82.3622977 25.8595506 82.3386425 26.1398876 82.3386425 26.5595506L82.3386425 32.1786517C81.7326195 31.9865169 81.2285391 31.6230337 80.8269644 31.0893258L77.6504126 26.8488764zM89.6957954 30.3014045L89.0700598 31.6935393C88.5659793 31.9115169 88.0343011 32.0216292 87.4755885 32.0216292 86.2556575 32.0216292 85.3066345 31.636236 84.629646 30.8660112 84.0309448 30.183427 83.7324391 29.3912921 83.7324391 28.4896067 83.7324391 27.5092697 84.0664276 26.6890449 84.735531 26.0283708 85.4046345 25.3676966 86.2353816 25.0373596 87.2272092 25.0373596 87.7549448 25.0373596 88.3767379 25.133427 89.0937149 25.3261236L89.0937149 26.6648876C88.4167264 26.2446629 87.7904276 26.0345506 87.2159448 26.0345506 86.5783816 26.0345506 86.0427609 26.2710674 85.609646 26.7435393 85.2317264 27.1547753 85.0430483 27.7019663 85.0430483 28.3851124 85.0430483 29.1199438 85.2694621 29.7502809 85.7217264 30.275 86.174554 30.8008427 86.723692 31.0626404 87.3691402 31.0626404 87.9988184 31.0626404 88.7743701 30.8092697 89.6957954 30.3014045M94.0530782 28.6473034L93.2026184 26.14 92.3290667 28.6473034 94.0530782 28.6473034zM94.3132851 29.4220225L92.0930782 29.4220225 91.5377448 30.8529213C91.4667793 31.0366292 91.4318598 31.1860674 91.4318598 31.2995506 91.4318598 31.4394382 91.5540782 31.6186517 91.7979517 31.8377528L89.8373885 31.8377528C90.1685609 31.6360674 90.4749517 31.1596629 90.7582506 30.4068539L92.399469 26.1135955C92.4704345 25.9298876 92.5064805 25.7944944 92.5064805 25.7068539 92.5064805 25.5753933 92.3921471 25.4135955 92.1640437 25.2208989L93.9235379 25.2208989 95.9426759 30.4068539C96.1155839 30.8529213 96.2597678 31.1619101 96.3735379 31.3321348 96.4878713 31.5029213 96.6630322 31.6714607 96.8995839 31.8377528L94.7148598 31.8377528C94.777377 31.7680899 94.8168023 31.7282022 94.8325724 31.7197753 94.9818253 31.5798876 95.0567333 31.4613483 95.0567333 31.3652809 95.0567333 31.2950562 95.0021011 31.1242697 94.8917103 30.8529213L94.3132851 29.4220225zM97.5720667 33.2294382C98.1859747 32.6080899 98.4929287 32.1788764 98.4929287 31.9423596 98.4929287 31.8637079 98.4061931 31.8024719 98.2332851 31.7586517 97.8942276 31.6625843 97.7252621 31.4170787 97.7252621 31.0232584 97.7252621 30.7962921 97.7979172 30.6058427 97.9437908 30.4524719 98.0896644 30.2996629 98.2682046 30.2226966 98.4811011 30.2226966 98.7097678 30.2226966 98.8967563 30.3148315 99.0420667 30.4985393 99.187377 30.6822472 99.2605954 30.9142697 99.2605954 31.1940449 99.2605954 31.8069663 98.9812391 32.4198876 98.4219632 33.0322472 98.2805954 33.1901124 98.150492 33.2682022 98.0322161 33.2682022 97.8829632 33.2682022 97.7292046 33.2552809 97.5720667 33.2294382M103.86592 31.6933146L103.499828 30.1966854C104.231448 30.8096067 105.003621 31.1157865 105.814092 31.1157865 106.184126 31.1157865 106.498966 31.0236517 106.759172 30.839382 107.018816 30.6556742 107.148356 30.4332022 107.148356 30.1702809 107.148356 29.933764 107.049793 29.7287079 106.853793 29.5528652 106.656667 29.3781461 106.251149 29.1511798 105.637241 28.8708427 104.999678 28.5815169 104.550793 28.3191573 104.290586 28.0826404 103.944207 27.7680337 103.771299 27.3697191 103.771299 26.8882584 103.771299 26.3281461 103.99546 25.8792697 104.444345 25.5427528 104.892667 25.2056742 105.487425 25.0371348 106.227494 25.0371348 106.723126 25.0371348 107.255368 25.1202809 107.821402 25.286573L107.821402 26.6517416C107.333092 26.1444382 106.782828 25.8905056 106.168356 25.8905056 105.837747 25.8905056 105.564586 25.9714045 105.347747 26.133764 105.130908 26.2955618 105.023333 26.503427 105.023333 26.7567978 105.023333 26.9669101 105.113448 27.1483708 105.294241 27.3017416 105.475598 27.4551124 105.849575 27.6624157 106.416172 27.9253371 107.108931 28.2489326 107.581471 28.5163483 107.833793 28.7264607 108.195379 29.0236517 108.376736 29.4045506 108.376736 29.8685955 108.376736 30.4809551 108.118782 30.9933146 107.603437 31.4039888 107.087529 31.8157865 106.447713 32.0214045 105.684552 32.0214045 105.093736 32.0214045 104.487713 31.9118539 103.86592 31.6933146M110.951263 28.6867978L110.951263 30.8396067C111.329183 30.9008427 111.7347 30.9317416 112.167252 30.9317416 112.915206 30.9317416 113.584872 30.7963483 114.175125 30.5244382L113.679493 31.8373596 109.344964 31.8373596C109.557861 31.636236 109.687964 31.4676966 109.735275 31.3323034 109.782022 31.1969101 109.805677 30.9143258 109.805677 30.4851124L109.805677 26.5598315C109.805677 26.1401685 109.782022 25.8598315 109.735275 25.7199438 109.687964 25.5800562 109.557861 25.413764 109.344964 25.2210674L112.781723 25.2210674C112.946746 25.2210674 113.096562 25.1901685 113.230608 25.1289326L113.230608 26.3367978C112.946746 26.1789326 112.522079 26.1002809 111.954918 26.1002809 111.513918 26.1002809 111.179367 26.1182584 110.951263 26.1530899L110.951263 27.8075843 112.238217 27.8075843C112.364378 27.8075843 112.502367 27.7766854 112.652183 27.7154494L112.652183 28.8839888C112.455056 28.7525281 112.167252 28.6867978 111.789332 28.6867978L110.951263 28.6867978zM120.221275 25.2469101L120.221275 26.6126404C119.732964 26.1660112 119.138769 25.9429775 118.438125 25.9429775 117.729597 25.9429775 117.144976 26.1772472 116.684826 26.6452247 116.223551 27.1132022 115.993757 27.7109551 115.993757 28.4373596 115.993757 29.1643258 116.244953 29.7918539 116.749597 30.3210674 117.252551 30.8514045 117.855194 31.1154494 118.556401 31.1154494 118.996838 31.1154494 119.406298 31.0587079 119.784217 30.9452247L119.784217 29.7238764C119.784217 29.277809 119.762815 28.9935393 119.718884 28.8705056 119.676079 28.7480337 119.544286 28.5907303 119.323505 28.3974719L121.012033 28.3716292C120.957401 28.5558989 120.929803 28.7783708 120.929803 29.0412921L120.929803 31.1154494C120.929803 31.369382 120.96078 31.5615169 121.024424 31.6935393 120.921918 31.7019663 120.807585 31.719382 120.681424 31.7452247 120.657769 31.7452247 120.524286 31.7716292 120.279849 31.8244382 119.673826 31.9553371 119.106666 32.0216292 118.579493 32.0216292 117.430528 32.0216292 116.497275 31.7019663 115.780861 31.0632022 115.064447 30.4244382 114.70624 29.5924157 114.70624 28.5688202 114.70624 27.5530899 115.074022 26.7109551 115.810711 26.0412921 116.546838 25.372191 117.477275 25.0373596 118.603148 25.0373596 119.028378 25.0373596 119.567941 25.1070225 120.221275 25.2469101M126.892991 31.8375843L126.892991 31.2600562C126.420451 31.7679213 125.795278 32.0212921 125.015784 32.0212921 124.527474 32.0212921 124.086474 31.9072472 123.692784 31.6802809 123.243899 31.4173596 122.940887 31.0538764 122.783749 30.5903933 122.704336 30.3454494 122.665474 29.9516292 122.665474 29.4089326L122.665474 26.5594944C122.665474 26.1398315 122.641818 25.8594944 122.594508 25.7196067 122.547198 25.5797191 122.417657 25.413427 122.205324 25.2212921L124.271772 25.2212921C124.058876 25.413427 123.928772 25.5797191 123.881462 25.7196067 123.834715 25.8594944 123.81106 26.1398315 123.81106 26.5594944L123.81106 29.4089326C123.81106 29.9426404 123.917508 30.3319663 124.129841 30.5774719 124.42891 30.9274719 124.826543 31.102191 125.322738 31.102191 125.590267 31.102191 125.867933 31.0302809 126.154611 30.8858989 126.442416 30.7415169 126.645175 30.546573 126.763451 30.3016292 126.826531 30.1701685 126.858071 29.9819663 126.858071 29.7370225L126.858071 26.5594944C126.858071 26.1398315 126.834416 25.8594944 126.787106 25.7196067 126.739795 25.5797191 126.609692 25.413427 126.397359 25.2212921L128.463807 25.2212921C128.25091 25.413427 128.12137 25.5797191 128.07406 25.7196067 128.026749 25.8594944 128.003094 26.1398315 128.003094 26.5594944L128.003094 30.4982584C128.003094 30.9184831 128.026749 31.1988202 128.07406 31.3387079 128.12137 31.4785955 128.25091 31.6448876 128.463807 31.8375843L126.892991 31.8375843zM131.238671 26.0742135L131.238671 30.4983708C131.238671 30.9185955 131.262326 31.1989326 131.309637 31.3388202 131.356947 31.4787079 131.486487 31.645 131.698821 31.8376966L129.632372 31.8376966C129.853154 31.6360112 129.984384 31.4697191 130.028315 31.3388202 130.071683 31.2073596 130.093085 30.9275843 130.093085 30.4983708L130.093085 26.5596067C130.093085 26.1399438 130.06943 25.8596067 130.022683 25.7197191 129.975372 25.5798315 129.845269 25.4135393 129.632372 25.2208427L131.640246 25.2208427C131.711211 25.2208427 131.793441 25.2169101 131.888062 25.2079213L132.07674 25.2079213C132.722752 25.2079213 133.230211 25.3388202 133.600246 25.6011798 134.064901 25.9253371 134.29751 26.3674719 134.29751 26.9275843 134.29751 27.347809 134.100384 27.7461236 133.706694 28.1225281 133.494361 28.3236517 133.187407 28.4944382 132.785832 28.6343258 133.518016 29.6494944 134.086867 30.3697191 134.491821 30.7938764 134.897338 31.2185955 135.336085 31.5579213 135.808625 31.8112921 135.241464 31.8641011 134.879878 31.8905056 134.72274 31.8905056 134.438878 31.8905056 134.198947 31.8287079 134.001821 31.706236 133.805257 31.583764 133.545614 31.3298315 133.222326 30.945 132.616303 30.2185955 132.018166 29.347809 131.427913 28.3326404 132.498028 28.1399438 133.033648 27.697809 133.033648 27.006236 133.033648 26.7090449 132.92551 26.4680337 132.708671 26.2843258 132.492395 26.100618 132.207407 26.0084831 131.852579 26.0084831 131.648131 26.0084831 131.44312 26.0303933 131.238671 26.0742135M139.079741 25.9430899C138.418523 25.9430899 137.882902 26.170618 137.473443 26.6256742 137.064546 27.0807303 136.860098 27.6756742 136.860098 28.4110674 136.860098 29.1812921 137.092144 29.8464607 137.556236 30.406573 137.949925 30.8790449 138.454006 31.1155618 139.067914 31.1155618 139.713362 31.1155618 140.238845 30.8857865 140.644362 30.426236 141.049879 29.9666854 141.252075 29.3694944 141.252075 28.6341011 141.252075 27.8812921 141.041431 27.2447753 140.620707 26.7239888 140.19942 26.2032022 139.685764 25.9430899 139.079741 25.9430899M139.138316 25.0239888C140.099167 25.0239888 140.905695 25.356573 141.559592 26.0217416 142.212925 26.6869101 142.540155 27.509382 142.540155 28.4897191 142.540155 29.4790449 142.198845 30.3144382 141.518477 30.9975843 140.836983 31.6801685 140.008489 32.0211798 139.032431 32.0211798 138.063695 32.0211798 137.245339 31.6869101 136.576236 31.0166854 135.906569 30.3475843 135.572017 29.5267978 135.572017 28.5554494 135.572017 27.5487079 135.915017 26.7088202 136.599891 26.0346629 137.284201 25.3610674 138.130718 25.0239888 139.138316 25.0239888M143.732883 31.6933146L143.366791 30.1966854C144.098411 30.8096067 144.870584 31.1157865 145.681055 31.1157865 146.05109 31.1157865 146.365929 31.0236517 146.626136 30.839382 146.885779 30.6556742 147.01532 30.4332022 147.01532 30.1702809 147.01532 29.933764 146.916756 29.7287079 146.720756 29.5528652 146.52363 29.3781461 146.118113 29.1511798 145.504205 28.8708427 144.866641 28.5815169 144.417756 28.3191573 144.157549 28.0826404 143.81117 27.7680337 143.638262 27.3697191 143.638262 26.8882584 143.638262 26.3281461 143.862423 25.8792697 144.311308 25.5427528 144.75963 25.2056742 145.354389 25.0371348 146.094457 25.0371348 146.59009 25.0371348 147.122331 25.1202809 147.688366 25.286573L147.688366 26.6517416C147.200055 26.1444382 146.649791 25.8905056 146.03532 25.8905056 145.70471 25.8905056 145.431549 25.9714045 145.21471 26.133764 144.997871 26.2955618 144.890297 26.503427 144.890297 26.7567978 144.890297 26.9669101 144.980411 27.1483708 145.161205 27.3017416 145.342561 27.4551124 145.716538 27.6624157 146.283136 27.9253371 146.975894 28.2489326 147.448434 28.5163483 147.700756 28.7264607 148.062343 29.0236517 148.243699 29.4045506 148.243699 29.8685955 148.243699 30.4809551 147.985745 30.9933146 147.4704 31.4039888 146.954492 31.8157865 146.314676 32.0214045 145.551515 32.0214045 144.960699 32.0214045 144.354676 31.9118539 143.732883 31.6933146M155.565425 28.962191L155.565425 30.4981461C155.565425 30.9183708 155.58908 31.1987079 155.635828 31.3385955 155.683138 31.4784831 155.812678 31.6447753 156.025575 31.8374719L153.959126 31.8374719C154.17146 31.6363483 154.301563 31.4700562 154.348874 31.3385955 154.396184 31.2071348 154.419839 30.9273596 154.419839 30.4981461L154.419839 28.962191 152.684 26.2711798C152.392253 25.8161236 152.065586 25.4700562 151.704 25.2335393L152.979126 25.1818539C153.152034 25.1818539 153.27031 25.2054494 153.333391 25.2532022 153.395908 25.3015169 153.506299 25.4487079 153.664 25.6936517L155.128368 28.0043258 156.34492 26.2183708C156.469954 26.0346629 156.533598 25.8992697 156.533598 25.8116292 156.533598 25.6363483 156.399552 25.4391573 156.132023 25.2211798L158.128069 25.2211798 155.565425 28.962191zM165.413524 28.6473034L164.563064 26.14 163.689513 28.6473034 165.413524 28.6473034zM165.673731 29.4220225L163.453524 29.4220225 162.898191 30.8529213C162.827225 31.0366292 162.792306 31.1860674 162.792306 31.2995506 162.792306 31.4394382 162.914524 31.6186517 163.158398 31.8377528L161.197834 31.8377528C161.529007 31.6360674 161.835398 31.1596629 162.118697 30.4068539L163.759915 26.1135955C163.83088 25.9298876 163.866926 25.7944944 163.866926 25.7068539 163.866926 25.5753933 163.752593 25.4135955 163.52449 25.2208989L165.283984 25.2208989 167.303122 30.4068539C167.47603 30.8529213 167.620214 31.1619101 167.733984 31.3321348 167.848317 31.5029213 168.023478 31.6714607 168.26003 31.8377528L166.075306 31.8377528C166.137823 31.7680899 166.177248 31.7282022 166.193018 31.7197753 166.342271 31.5798876 166.417179 31.4613483 166.417179 31.3652809 166.417179 31.2950562 166.362547 31.1242697 166.252156 30.8529213L165.673731 29.4220225zM170.385109 28.6867978L170.385109 30.4851124C170.385109 30.9143258 170.408764 31.1991573 170.456075 31.3390449 170.503385 31.4789326 170.632925 31.6452247 170.845259 31.8373596L168.77881 31.8373596C168.991707 31.636236 169.12181 31.4676966 169.169121 31.3323034 169.215868 31.1969101 169.239523 30.9143258 169.239523 30.4851124L169.239523 26.5598315C169.239523 26.1401685 169.215868 25.8598315 169.169121 25.7199438 169.12181 25.5800562 168.991707 25.413764 168.77881 25.2210674L172.215569 25.2210674C172.38904 25.2210674 172.538293 25.1901685 172.664454 25.1289326L172.664454 26.3367978C172.301741 26.1789326 171.873132 26.1002809 171.376937 26.1002809 170.943822 26.1002809 170.613213 26.1182584 170.385109 26.1530899L170.385109 27.8075843 171.672063 27.8075843C171.813994 27.8075843 171.95142 27.7766854 172.086029 27.7154494L172.086029 28.8969101C171.904109 28.7570225 171.617431 28.6867978 171.223178 28.6867978L170.385109 28.6867978zM175.120199 26.1400562L175.120199 30.4984831C175.120199 30.9271348 175.143854 31.2091573 175.191164 31.3456742 175.238475 31.4810674 175.368015 31.6451124 175.580348 31.837809L173.5139 31.837809C173.734682 31.6361236 173.865911 31.4698315 173.909843 31.3389326 173.95321 31.2074719 173.974613 30.9271348 173.974613 30.4984831L173.974613 26.5597191C173.974613 26.1400562 173.950957 25.8597191 173.90421 25.7198315 173.8569 25.5799438 173.726797 25.4136517 173.5139 25.2209551L174.553038 25.2209551C174.631889 25.2209551 174.797475 25.2164607 175.049233 25.2080337L175.68736 25.2080337 176.017969 25.2080337C176.544578 25.2080337 176.976003 25.282191 177.311118 25.4305056 177.645107 25.5799438 177.913199 25.7984831 178.113705 26.0872472 178.314774 26.3760112 178.415026 26.6872472 178.415026 27.0192697 178.415026 27.5355618 178.194245 27.9866854 177.753808 28.3720787 177.312808 28.7569101 176.800843 28.9496067 176.218475 28.9496067 175.910957 28.9496067 175.620337 28.8574719 175.34436 28.673764 175.872095 28.5945506 176.230302 28.5029775 176.419544 28.3979213 176.907291 28.1355618 177.151164 27.7372472 177.151164 27.2035393 177.151164 26.4507303 176.682567 26.0743258 175.745934 26.0743258 175.525716 26.0743258 175.317325 26.096236 175.120199 26.1400562"/>
      <path fill="#A6B0B5" d="M48.5305575,22.047809 C48.5305575,22.047809 50.6133391,22.000618 54.2579253,21.9191573 C57.9030747,21.8663483 63.1094655,21.7287079 69.3578103,21.6758989 C75.6061552,21.6191573 82.8958908,21.4966854 90.705477,21.4680337 C94.6108333,21.4511798 98.6462931,21.433764 102.746523,21.4157865 C106.846753,21.4101685 111.012316,21.4045506 115.177879,21.3994944 C123.508443,21.406236 131.839569,21.4264607 139.650282,21.4770225 C143.555075,21.5112921 147.329764,21.5444382 150.910144,21.5764607 C154.489397,21.6129775 157.873776,21.6466854 160.997948,21.6787079 C167.246293,21.7410674 172.453247,21.8579213 176.098397,21.9090449 C179.74242,21.986573 181.825764,22.0303933 181.825764,22.0303933 L181.825764,22.0719663 C181.825764,22.0719663 179.74242,22.1157865 176.098397,22.1933146 C172.453247,22.2444382 167.246293,22.3612921 160.997948,22.4236517 C157.873776,22.4556742 154.489397,22.489382 150.910144,22.5258989 C147.329764,22.5573596 143.555075,22.5910674 139.650282,22.6247753 C131.839569,22.6758989 123.508443,22.6955618 115.177879,22.7028652 C111.012316,22.6972472 106.846753,22.6916292 102.746523,22.686573 C98.6462931,22.6680337 94.6108333,22.6511798 90.705477,22.6343258 C82.8958908,22.6056742 75.6061552,22.4826404 69.3578103,22.4264607 C63.1094655,22.3736517 57.9030747,22.2360112 54.2579253,22.1832022 C50.6133391,22.1017416 48.5305575,22.0545506 48.5305575,22.0545506 L48.5305575,22.047809 Z"/>
    </g>
  </g>
</svg>
