<svg id="Capa_1" data-name="Capa 1" xmlns="http://www.w3.org/2000/svg" viewBox="0 0 647.97 320.98"><defs><style>.cls-1,.cls-3{fill:#a8519a;}.cls-2{fill:#00b4ec;}.cls-3,.cls-4{fill-rule:evenodd;}.cls-4{fill:#f39;}</style></defs><title>Logo EstarVital</title><path class="cls-1" d="M246.31,111.18c-2.68-2.59-6.31-3.91-10.8-3.91a18.43,18.43,0,0,0-11.27,3.45,27.66,27.66,0,0,0-7.54,8.55,39.27,39.27,0,0,0-4.26,11.35,56.09,56.09,0,0,0-1.32,11.74,32,32,0,0,0,1.15,9.21,17.65,17.65,0,0,0,3.29,6.35,12.65,12.65,0,0,0,5.24,3.71,19,19,0,0,0,6.87,1.17,24.81,24.81,0,0,0,8.76-1.52,29.06,29.06,0,0,0,6.88-3.6l.39-.29-1.13-3.94a11.25,11.25,0,0,0-.88-2.18,1.92,1.92,0,0,0-1.76-1,3.87,3.87,0,0,0-1.33.25c-.36.14-.83.3-1.46.52-.82.33-1.94.72-3.42,1.2a16,16,0,0,1-4.88.68c-2.92,0-4.92-.8-6-2.38a12.75,12.75,0,0,1-1.65-7v-1.14h1.29a43.43,43.43,0,0,0,13.38-1.76,24,24,0,0,0,8.58-4.67,16.33,16.33,0,0,0,4.56-6.54,21.23,21.23,0,0,0,1.3-7.26C250.35,117.5,249,113.79,246.31,111.18ZM230,118a8.81,8.81,0,0,1,5-1.46c2.05,0,3.53.56,4.41,1.67a7,7,0,0,1,1.39,4.46,9.23,9.23,0,0,1-4.35,8c-3,2-7.45,3.08-13.35,3.08H222a36.71,36.71,0,0,1,1.4-6,23.8,23.8,0,0,1,2.71-5.79A14.28,14.28,0,0,1,230,118Z"/><path class="cls-1" d="M285.06,109.91l0,0a39.83,39.83,0,0,0-4-1.56,22.72,22.72,0,0,0-7.44-1.06,26,26,0,0,0-7.45,1,17.43,17.43,0,0,0-6.14,3.23,15.44,15.44,0,0,0-4.16,5.38,17,17,0,0,0-1.5,7.32,13.26,13.26,0,0,0,1.05,5.52,12.74,12.74,0,0,0,2.86,4,17,17,0,0,0,4.08,2.86c1.48.75,3.06,1.48,4.7,2.16a16.43,16.43,0,0,1,5.65,3.24,5.07,5.07,0,0,1,1.39,3.65,7,7,0,0,1-.8,3.52,6.32,6.32,0,0,1-2.19,2.2,10.61,10.61,0,0,1-3.26,1.24,19.64,19.64,0,0,1-7.79,0c-1.36-.27-2.63-.57-3.77-.91s-2.17-.67-3-1a10.71,10.71,0,0,1-1.62-.74l-.76-.52-1,3.11c-.18.56-.35,1.15-.51,1.78a7.69,7.69,0,0,0-.24,1.79,3.17,3.17,0,0,0,.82,2.26,8.16,8.16,0,0,0,2.17,1.51,28.68,28.68,0,0,0,5.22,1.89,27,27,0,0,0,7.17.94,26,26,0,0,0,7.59-1.1,18.08,18.08,0,0,0,6.33-3.34,16.38,16.38,0,0,0,4.28-5.57,18,18,0,0,0,1.6-7.78,14.89,14.89,0,0,0-.91-5.49,12.49,12.49,0,0,0-2.52-4,17.3,17.3,0,0,0-3.76-3c-1.4-.83-2.94-1.62-4.59-2.39-1.43-.6-2.67-1.16-3.71-1.66a16.08,16.08,0,0,1-2.5-1.46,4.39,4.39,0,0,1-1.33-1.49,4.29,4.29,0,0,1-.42-2,6.08,6.08,0,0,1,.83-3.38,6.38,6.38,0,0,1,2.12-2,8.84,8.84,0,0,1,2.88-1,19,19,0,0,1,3.21-.29,24.41,24.41,0,0,1,7.14,1,29.93,29.93,0,0,1,4.53,1.69l.71.37,1.08-3.11a11.06,11.06,0,0,0,.66-3.27,3.21,3.21,0,0,0-.68-1.95A6.44,6.44,0,0,0,285.06,109.91Z"/><path class="cls-1" d="M311.89,152.83a1.88,1.88,0,0,0-1.67-.88,9.78,9.78,0,0,0-2.45.54c-2,.6-4.06.76-5.3-.15a2.67,2.67,0,0,1-.76-2.24,15.32,15.32,0,0,1,.09-1.56c.06-.6.15-1.3.26-2.1l5.22-28.93h11.55l.64-3.64c.12-.73.22-1.31.31-1.75a6.5,6.5,0,0,0,.15-1.31c0-.72-.27-2.42-2.77-2.42h-8.37l1.38-7.41a19.35,19.35,0,0,0,.46-3.4c0-1.6-1-2.52-2.85-2.52h-6.32l-3,13.33h-6.15L291.7,112c-.12.73-.22,1.32-.31,1.75a6.58,6.58,0,0,0-.15,1.31c0,.73.27,2.42,2.76,2.42H297l-4.54,25.12c-.3,1.5-.56,3-.77,4.52a32.55,32.55,0,0,0-.32,4.47c0,3.44.92,6.1,2.73,7.92a10.12,10.12,0,0,0,7.52,2.75,22.25,22.25,0,0,0,6.05-.84,21.57,21.57,0,0,0,5.4-2.32l.41-.24-.82-4.17A6.44,6.44,0,0,0,311.89,152.83Z"/><path class="cls-1" d="M356.65,110.1a28,28,0,0,0-5.36-1.89,28.64,28.64,0,0,0-7.38-.94,20.43,20.43,0,0,0-11.08,3.06,26.81,26.81,0,0,0-8.14,8.15,39.18,39.18,0,0,0-5,11.7A55.37,55.37,0,0,0,318,143.89c0,6,1.18,10.64,3.5,13.93a11.47,11.47,0,0,0,9.88,5.08,15.77,15.77,0,0,0,7.14-1.7,20.31,20.31,0,0,0,5.64-4.47l.21,2a4.26,4.26,0,0,0,.78,2.11,2.71,2.71,0,0,0,2.25.82h5.47V161c0-.27.05-1.15.14-2.66s.22-3.33.4-5.43.42-4.33.72-6.58.66-4.42,1.07-6.36L359,122c.31-1.3.6-2.71.87-4.2a21.79,21.79,0,0,0,.41-3.08,3.87,3.87,0,0,0-.92-2.83A11.11,11.11,0,0,0,356.65,110.1Zm-7.07,7.36-6,28.91a17.27,17.27,0,0,1-4.12,4.5,8.63,8.63,0,0,1-5.3,1.79,5.14,5.14,0,0,1-2.93-.74,5.32,5.32,0,0,1-1.75-2,9.09,9.09,0,0,1-.88-3,31.63,31.63,0,0,1-.22-3.68,45.34,45.34,0,0,1,1.07-9.83,33.1,33.1,0,0,1,3.08-8.57,19,19,0,0,1,4.9-6,10.33,10.33,0,0,1,6.54-2.24,15,15,0,0,1,3.7.44C348.49,117.13,349.12,117.31,349.58,117.46Z"/><path class="cls-1" d="M389,108.19a15.6,15.6,0,0,0-8,2.18,24,24,0,0,0-4.81,3.69l0-.52c.06-.48.1-1,.14-1.41s0-.86,0-1.21a2.3,2.3,0,0,0-.85-2.06,3.13,3.13,0,0,0-1.73-.47h-6l-8.21,46.28c-.12.75-.26,1.56-.41,2.44a12.76,12.76,0,0,0-.23,1.94,3,3,0,0,0,.53,1.78,2.68,2.68,0,0,0,2.32.85h6.89l6.56-37.12a17.24,17.24,0,0,1,5.76-4.21,15.82,15.82,0,0,1,6.48-1.52h1.3a5.43,5.43,0,0,1,1.41.19l.7.17,1.32-6.41a8.68,8.68,0,0,0,.19-1.66C392.51,110,392.06,108.19,389,108.19Z"/><path class="cls-2" d="M582,121.17a2.36,2.36,0,0,0-1.18-1,2.12,2.12,0,0,0-1.49,0,2.28,2.28,0,0,0-1.18,1.1q-1.33,3.42-3.26,7.8t-4.3,8.9q-2.37,4.52-5.19,8.83a43.16,43.16,0,0,1-6.07,7.47c-1.09,1-1.83,1.39-2.23,1.16s-.49-1.12-.29-2.67q1-7.26,3.18-17.32t4.89-20.27q2.75-10.2,5.78-19a73.74,73.74,0,0,1,5.86-13.42,9,9,0,0,1,.89-1.16c.29-.32.64-.71,1-1.17a.91.91,0,0,0,.29-.68c0-.55-.54-1.14-1.63-1.78a25.7,25.7,0,0,0-3.78-1.78c-1.43-.55-2.87-1-4.3-1.44a12.87,12.87,0,0,0-3.18-.61q-1.49,0-3.41,3.69a75.43,75.43,0,0,0-4.08,9.86q-2.14,6.17-4.3,14T550.17,118q-1.78,8.3-3.19,16.43c-.15.89-.29,1.75-.43,2.61-.26.52-.51,1-.78,1.57a87.31,87.31,0,0,1-5.26,9,42.11,42.11,0,0,1-6.3,7.46,1.91,1.91,0,0,1-1.63.68c-.49-.08-.64-.63-.44-1.64q.74-3.69,1.78-8.42t2.37-9.79q1.34-5.07,3-10.13t3.41-9.59a13.67,13.67,0,0,1,1.19-2.25,1.31,1.31,0,0,0-.45-2c-.49-.36-1.11-.78-1.85-1.23a22.4,22.4,0,0,0-2.45-1.3,18.11,18.11,0,0,0-2.74-1,9,9,0,0,0-2.44-.41c-.89,0-1.63.59-2.23,1.78a8.67,8.67,0,0,0-.29,1,1.69,1.69,0,0,1-.45.82c-1.38-.64-2.72-1.28-4-1.92A27.09,27.09,0,0,0,523.1,108a14.39,14.39,0,0,0-3.78-.69,7,7,0,0,0-3.63.89,28.48,28.48,0,0,0-9.71,8.15,54.49,54.49,0,0,0-7,11.91,53.65,53.65,0,0,0-1.89,5.08c-.91,1.56-1.86,3.13-2.88,4.71q-2.88,4.52-6.07,8.83a60.11,60.11,0,0,1-6.45,7.47c-1.09,1-1.8,1.39-2.15,1.16s-.42-1.12-.22-2.67q.59-4.65,1.85-10.54c.84-3.93,1.78-8,2.82-12.33s2.17-8.64,3.41-13.07c.74-2.67,4.06-13.43,6.63-21.7l7.43.58,3.74.17c.8,0,1.82.06,3.07.06a26.47,26.47,0,0,0,3.76-.24,9.69,9.69,0,0,0,3.45-1.09,5.26,5.26,0,0,0,2.34-2.48q.94-1.95-1.44-2.07a80.09,80.09,0,0,1-8.31-.81c-2.71-.4-5.41-.84-8.12-1.3l-3.53-.47c.45-1.42.74-2.32.78-2.43.25-.64.52-1.32.82-2.06a7.81,7.81,0,0,1,.74-1.71,9.89,9.89,0,0,1,1.18-1.57,1.18,1.18,0,0,0,.23-.28.87.87,0,0,1,.22-.27c.29-.27.44-.5.44-.68,0-.55-.49-1.14-1.48-1.78a27.51,27.51,0,0,0-3.41-1.85,24.12,24.12,0,0,0-4-1.44,13.79,13.79,0,0,0-3.11-.55q-2.09,0-4.3,5.07A32.32,32.32,0,0,0,482.56,83c-.09.33-.36,1.28-.74,2.62a62.69,62.69,0,0,0-7,.08,12,12,0,0,0-5.34,1.33,2.28,2.28,0,0,0-.82,1,9.42,9.42,0,0,0-.77,1.89c-.2.71-.37,1.4-.52,2.06a10.66,10.66,0,0,0-.25,1.66,2.13,2.13,0,0,0,.6,1.86l.51,0a28.91,28.91,0,0,1,8.15-1.21c1,0,2,0,3,0l-2.91,10.29q-1.48,5.63-2.89,11.5c-.1.45-.2.89-.31,1.33h0a106.83,106.83,0,0,1-4.72,11.95q-2,4.52-4.45,9.17a90.35,90.35,0,0,1-5.4,9A44.65,44.65,0,0,1,452.3,155a1.91,1.91,0,0,1-1.63.68c-.49-.08-.64-.63-.44-1.64q.74-3.69,1.85-8.42t2.59-9.79q1.49-5.07,3.19-10.13c1.13-3.38,2.35-6.57,3.63-9.59a8,8,0,0,1,1-2.25,1.31,1.31,0,0,0-.45-2c-.49-.36-1.11-.78-1.85-1.23a22.22,22.22,0,0,0-2.44-1.3,18.22,18.22,0,0,0-2.75-1,9,9,0,0,0-2.44-.41c-.89,0-1.63.59-2.22,1.78A123.43,123.43,0,0,0,444,126.61a41.32,41.32,0,0,1-4.15,5.17,13.51,13.51,0,0,1-7,4.18,7,7,0,0,1-4.3-.55q2.82-4.78,5.19-9.31t4.15-8.35a5.65,5.65,0,0,0-.22-4.93,9.33,9.33,0,0,0-3.93-4.11,6.41,6.41,0,0,0-2.67-.75,2.71,2.71,0,0,0-2.37,1.43,35.93,35.93,0,0,0-5.56,10.07,30.85,30.85,0,0,0-1.7,8.42q-1.64,2.88-3.49,6.5c-1.23,2.42-2.57,4.84-4,7.26s-2.86,4.77-4.3,7.05a69.18,69.18,0,0,1-4.07,5.89q-.75,1-1.11.75c-.25-.13-.32-.52-.23-1.16a86.51,86.51,0,0,1,.89-8.76q.75-5.07,1.78-10.55t2.23-10.75c.79-3.51,1.57-6.64,2.37-9.38.19-.63.47-1.39.81-2.25a1.44,1.44,0,0,0-.66-2,18.46,18.46,0,0,0-4.38-1.85,17.72,17.72,0,0,0-5.11-.89,2.62,2.62,0,0,0-2.52,2.06q-1.49,4.92-2.59,10.54t-1.86,11.5q-.74,5.9-1.11,11.71c-.24,3.88-.37,7.6-.37,11.16a4.48,4.48,0,0,0,1.34,3.08,11.82,11.82,0,0,0,3.33,2.46,21.73,21.73,0,0,0,4.22,1.64,14.46,14.46,0,0,0,3.86.62,5.45,5.45,0,0,0,3.18-1.09,13.55,13.55,0,0,0,2.6-2.33,96.5,96.5,0,0,0,7.26-9.31q3.7-5.34,7.11-11.09a10.28,10.28,0,0,0,7,1,15.83,15.83,0,0,0,8-4.23c-1.05,4.26-1.94,8.45-2.64,12.58a16.93,16.93,0,0,0-.37,2.6,16.93,16.93,0,0,1-.37,2.6,8.44,8.44,0,0,0,.37,3.29,9.19,9.19,0,0,0,1.63,3,8.57,8.57,0,0,0,2.67,2.19,7.32,7.32,0,0,0,3.48.82,10.61,10.61,0,0,0,6.3-2.33,33.22,33.22,0,0,0,6.15-5.95,65.5,65.5,0,0,0,5.64-8.15q2.43-4.12,4.49-8.21c-.06.36-.14.73-.19,1.09-.6,3.65-1,7-1.34,10.13q-.15,2.06-.15,4.38a13.59,13.59,0,0,0,.67,4.32,7.39,7.39,0,0,0,2.3,3.35,7.15,7.15,0,0,0,4.74,1.37,10.79,10.79,0,0,0,6.23-2.33,40.86,40.86,0,0,0,6.52-5.95,75,75,0,0,0,6.3-8.15l.51-.78a40,40,0,0,0,.1,8.72,9.94,9.94,0,0,0,2.89,6.1,9.46,9.46,0,0,0,6.89,2.39q5,0,9.19-4.58A51,51,0,0,0,521,147.05a2.15,2.15,0,0,1-.15,1,16.93,16.93,0,0,0-.37,2.6,16.93,16.93,0,0,1-.37,2.6,8.44,8.44,0,0,0,.37,3.29,9.19,9.19,0,0,0,1.63,3,8.57,8.57,0,0,0,2.67,2.19,7.32,7.32,0,0,0,3.48.82,10.33,10.33,0,0,0,6.23-2.33,33.29,33.29,0,0,0,6-5.95,62.36,62.36,0,0,0,4.63-6.72c0,.53-.11,1.07-.16,1.58q-.15,2.06-.15,4.38a13.31,13.31,0,0,0,.67,4.32,7.31,7.31,0,0,0,2.3,3.35,7.13,7.13,0,0,0,4.74,1.37,10.49,10.49,0,0,0,6.37-2.33,34.93,34.93,0,0,0,6.08-5.95,66.56,66.56,0,0,0,5.63-8.15q2.67-4.51,4.89-9c1.48-3,2.77-5.73,3.85-8.28s2-4.61,2.67-6.16A1.38,1.38,0,0,0,582,121.17Zm-53.52-4c-.25.6-.47,1.21-.67,1.85-.4,1.1-1,2.74-1.7,4.93s-1.64,4.63-2.67,7.32-2.15,5.48-3.34,8.36a66,66,0,0,1-3.78,7.8,37.73,37.73,0,0,1-3.92,5.75c-1.29,1.51-2.52,2.26-3.71,2.26a1.42,1.42,0,0,1-1.33-.82,5.44,5.44,0,0,1-.6-1.85,9.92,9.92,0,0,1-.07-2.12c0-.73.07-1.28.07-1.64a59.78,59.78,0,0,1,1.86-10.48,69.34,69.34,0,0,1,4.07-11.64,38.4,38.4,0,0,1,5.86-9.38q3.33-3.82,7.18-3.83a4,4,0,0,1,3.56,1.78C529,116,528.75,116.54,528.51,117.13Z"/><circle class="cls-2" cx="460.76" cy="102.06" r="6.48"/><path class="cls-2" d="M183.38,207c5.11,1.93,20.51,11,12.34-11.2l-17.58-63.23c-5.6,16.4-17.69,38.68-30.33,59.71C157.76,196.56,173.06,203.09,183.38,207Z"/><path class="cls-3" d="M178.13,132.5h0a96.26,96.26,0,0,1-18.38,20.56c-10.06,8.22-22.11,13.8-36.49,14.63a55.48,55.48,0,0,1-17.48-1.9l-6.84,78s-2.45,25.38,8.42,10.62c0,0,20.89-29.59,40.47-62.19,12.64-21,24.73-43.31,30.33-59.71Z"/><path class="cls-4" d="M198.76,58.29C159.54,96.74,143,110,136.29,114.5c5.13-9.15,2.11-22.88-7.92-32.91-11.53-11.53-28-13.8-36.68-5.08s-6.46,25.15,5.08,36.69a34.82,34.82,0,0,0,19,10c-25.22,8.5-44.62,9.11-44.62,9.11-9.36,1.2-10.27,3.87-5.23,9.26s20.57,19.06,39.88,24.18a55.48,55.48,0,0,0,17.48,1.9c14.38-.83,26.43-6.41,36.49-14.63a96.26,96.26,0,0,0,18.38-20.56h0c21.28-31.3,28-72.07,28-72.07C209.62,48.08,198.76,58.29,198.76,58.29Z"/></svg>