<svg xmlns="http://www.w3.org/2000/svg" width="280" height="47" viewBox="0 0 280 47">
  <g fill="none" fill-rule="evenodd">
    <g transform="translate(54.902)">
      <polygon fill="#2B0D61" points="111.823 .63 111.823 33.662 224.334 33.662 224.372 .63"/>
      <g transform="translate(0 .625)">
        <path fill="#FEFEFE" d="M126.85908 14.3496L126.85908 11.0696 126.345139 11.0696C126.19773 11.4256 125.988568 11.5776 125.721637 11.5776 124.994551 11.5776 124.665868 11.0696 123.560298 11.0696 121.793378 11.0696 120.327252 12.4796 120.327252 14.1376 120.327252 17.7476 125.956695 16.9336 125.956695 19.9116 125.956695 20.9636 125.147936 21.7456 124.096151 21.7456 122.779427 21.7456 121.130036 20.8756 120.687808 18.6496L120.175859 18.6496 120.175859 22.2896 120.687808 22.2896C120.717688 21.8976 120.984618 21.5656 121.373062 21.5656 121.887003 21.5656 122.904924 22.3496 124.074238 22.3496 125.896935 22.3496 127.426805 20.8436 127.426805 19.0696 127.426805 15.1016 121.85513 15.8216 121.85513 13.1156 121.85513 12.2436 122.572257 11.6696 123.62205 11.6696 124.879014 11.6696 126.046336 12.5756 126.25749 14.3496L126.85908 14.3496zM131.144508 15.0136C131.268013 13.0276 132.313823 11.7036 134.080743 11.7036 135.425355 11.7036 137.014985 12.6676 136.927336 15.0136L131.144508 15.0136zM138.933299 15.5256C139.0827 13.0556 136.803831 11.0696 134.349665 11.0696 131.351678 11.0696 129.017033 13.5976 129.017033 16.8176 129.017033 20.0376 131.415423 22.3496 134.736117 22.3496 136.592677 22.3496 137.823745 21.7216 139.110588 20.0656L139.110588 19.2836C137.584702 20.9956 136.833712 21.5076 135.367586 21.5076 133.931341 21.5076 131.084748 20.3056 131.144508 15.5256L138.933299 15.5256zM150.177643 11.0704L149.663702 11.0704C149.490397 11.4624 149.215498 11.6704 148.948568 11.6704 148.410723 11.6704 147.542203 11.0704 145.954565 11.0704 142.928689 11.0704 140.472531 13.6924 140.472531 16.9644 140.472531 20.1564 142.659767 22.3504 145.807155 22.3504 147.725469 22.3504 149.339003 21.5664 150.478438 20.0044L150.478438 19.2184C149.366892 20.7564 147.811125 21.4444 146.52229 21.4444 144.366926 21.4444 142.540246 19.0124 142.540246 16.0964 142.540246 13.4784 144.008363 11.6704 146.103966 11.6704 147.87487 11.6704 149.215498 12.9084 149.663702 14.8304L150.177643 14.8304 150.177643 11.0704zM162.617995 11.0704L162.104054 11.0704 158.508462 11.4024 158.508462 11.9144C160.335142 11.9424 160.576176 12.1244 160.576176 13.5984L160.576176 19.3444C159.705664 20.5124 158.777384 21.0884 157.759463 21.0884 156.321226 21.0884 155.365057 20.1864 155.365057 18.6804L155.365057 11.0704 154.853108 11.0704 151.43879 11.4024 151.43879 11.9144C152.966667 11.9144 153.323239 12.3044 153.323239 13.3264L153.323239 18.7764C153.323239 20.7564 154.703707 22.3504 156.801302 22.3504 158.241531 22.3504 159.470606 21.6584 160.516416 20.2744L160.576176 20.2744 160.576176 22.0244 164.438699 22.0244 164.438699 21.5084C163.002454 21.5084 162.617995 21.1764 162.617995 20.0044L162.617995 11.0704zM169.714559 13.9024C170.670728 12.9684 171.270325 12.6104 171.957571 12.6104 172.67669 12.6104 173.60497 13.0624 174.475482 13.5384L175.284242 11.6464C174.746397 11.1644 173.935645 10.8044 173.33804 10.8044 172.618921 10.8044 171.690641 11.4084 169.714559 13.1204L169.714559 10.8044 169.204602 10.8044 165.489489 11.1364 165.489489 11.6464C167.286289 11.6464 167.674733 11.8284 167.674733 13.3884L167.674733 19.4564C167.674733 21.0824 167.493459 21.5084 165.879924 21.5084L165.879924 22.0184 171.477495 22.0184 171.477495 21.5084C170.073122 21.5084 169.714559 21.1764 169.714559 20.0044L169.714559 13.9024zM179.41987 6.836C178.700752 6.836 178.103146 7.406 178.103146 8.134 178.103146 8.854 178.700752 9.458 179.41987 9.458 180.136997 9.458 180.71269 8.854 180.71269 8.134 180.71269 7.406 180.136997 6.836 179.41987 6.836zM180.405919 10.832L179.901939 10.832 176.366107 11.158 176.366107 11.67C177.921873 11.67 178.372069 11.876 178.372069 13.348L178.372069 19.87C178.372069 21.132 177.981633 21.502 176.366107 21.502L176.366107 22.018 182.178815 22.018 182.178815 21.502C180.68281 21.502 180.405919 20.924 180.405919 19.87L180.405919 10.832zM195.134303 13.5606C194.739883 12.6526 194.984902 12.0986 195.801629 11.9786L195.801629 11.1946 190.690111 11.1946 190.690111 11.9786C191.927154 12.0106 192.405238 12.3206 192.949059 13.5606L196.668157 22.2026 195.957006 24.0566C195.295656 25.9286 194.544666 26.6806 193.253838 26.6806 192.897267 26.6806 192.65424 26.6186 192.235917 26.4366L191.542694 28.2766C192.086515 28.6086 192.415198 28.7326 192.865394 28.7326 194.152238 28.7326 195.536691 27.3146 196.379314 24.8406L199.945027 14.2686C200.544624 12.4906 201.233862 11.7666 202.373297 11.7666L202.373297 11.1946 198.622327 11.1946 198.622327 11.7666C199.797617 11.8286 199.883274 12.5226 199.458974 13.7886L197.598429 19.4246 195.134303 13.5606z"/>
        <path fill="#FEFEFE" d="M186.998901,7.6054 L186.488945,7.6054 C185.590545,9.4434 184.385374,10.7374 182.943153,11.4634 L182.943153,11.9794 L184.953099,11.9794 L184.953099,19.1234 C184.953099,20.9634 186.214046,22.2294 188.018815,22.2294 C189.223985,22.2294 190.301667,21.6254 191.233932,20.4514 L190.903257,20.0554 C190.271787,20.7834 189.70207,21.0814 188.923191,21.0814 C187.7479,21.0814 186.998901,20.3314 186.998901,18.8534 L186.998901,11.9794 L190.712023,11.9794 L190.712023,11.1894 L186.998901,11.1894 L186.998901,7.6054 Z"/>
        <polygon fill="#ED6D00" points="0 33.038 112.334 33.038 112.334 .004 0 .004"/>
        <path fill="#FEFEFE" d="M34.8137026 16.4258C35.3435794 16.4258 35.7738553 16.3398 36.0866021 16.1758 36.7021357 15.8738 36.9949623 15.2798 36.9949623 14.4678 36.9949623 13.7518 36.7160798 13.1378 36.1383946 12.7938 35.8236557 12.6098 35.3794357 12.5078 34.7838223 12.5078L34.2200812 12.5078 34.2200812 16.4258 34.8137026 16.4258zM32.2400153 10.8838L34.8654951 10.8838C35.8734562 10.8838 36.6642874 11.0338 37.3097012 11.3498 38.4331994 11.9118 39.0786132 12.9738 39.0786132 14.4678 39.0786132 15.7238 38.5288162 17.0378 36.9949623 17.6658 36.399349 17.8958 35.6563262 18.0478 34.6882054 18.0478L34.2200812 18.0478 34.2200812 21.8118 32.2400153 21.8118 32.2400153 10.8838zM43.3498983 15.9258C43.863839 15.9258 44.2243942 15.8278 44.5590533 15.6438 45.0212015 15.3778 45.3140281 14.8838 45.3140281 14.1998 45.3140281 13.6178 45.0710019 13.1098 44.5889335 12.8218 44.3279792 12.6418 43.9674239 12.5078 43.3658345 12.5078L42.4654423 12.5078 42.4654423 15.9258 43.3498983 15.9258zM40.4794003 10.8838L43.4475072 10.8838C44.4733965 10.8838 45.2024751 11.0498 45.7801603 11.3358 46.9395148 11.8818 47.395687 12.8878 47.395687 14.0018 47.395687 15.4598 46.5271671 16.4258 45.2702037 16.8178L45.2702037 16.8558C45.5968947 17.0378 46.0431067 17.6338 46.624776 18.6298L48.4355204 21.8118 46.1626278 21.8118 44.5889335 19.0438C44.0630408 18.0638 43.6666292 17.6178 43.4016908 17.5498L42.4654423 17.5498 42.4654423 21.8118 40.4794003 21.8118 40.4794003 10.8838zM57.8308735 16.3906C57.8308735 13.9686 56.5280937 12.4586 54.462371 12.4586 52.4524248 12.4586 51.0978525 13.9026 51.0978525 16.3906 51.0978525 18.8626 52.4524248 20.3046 54.462371 20.3046 56.4623571 20.3046 57.8308735 18.8626 57.8308735 16.3906M48.9803373 16.3906C48.9803373 13.0726 51.2432698 10.7826 54.462371 10.7826 57.6854562 10.7826 59.9483887 13.0886 59.9483887 16.3906 59.9483887 19.7386 57.6316717 21.9746 54.462371 21.9746 51.261198 21.9746 48.9803373 19.7386 48.9803373 16.3906"/>
        <polygon fill="#FEFEFE" points="63.443 12.576 60.274 12.576 60.274 10.884 68.879 10.884 68.33 12.576 65.425 12.576 65.425 21.812 63.443 21.812"/>
        <polygon fill="#FEFEFE" points="69.456 10.885 75.468 10.885 74.92 12.577 71.436 12.577 71.436 15.427 74.92 15.427 74.92 17.119 71.436 17.119 71.436 20.119 75.482 20.119 75.482 21.813 69.456 21.813"/>
        <path fill="#FEFEFE" d="M85.4721159,21.1132 C84.268937,21.7772 83.1095825,21.9752 82.0179566,21.9752 C78.4542363,21.9752 76.5239708,19.6692 76.5239708,16.4712 C76.5239708,13.3072 78.7629991,10.7832 82.2669589,10.7832 C83.4561936,10.7832 84.4482186,11.0172 85.1255048,11.3212 L85.1255048,13.1732 C84.2808891,12.7252 83.3705369,12.4592 82.3147673,12.4592 C79.9044255,12.4592 78.63551,14.2832 78.63551,16.4252 C78.63551,18.7112 80.0199625,20.3052 82.2530147,20.3052 C83.3267125,20.3052 84.1494159,19.9892 84.9223189,19.5432 L85.4721159,21.1132 Z"/>
        <polygon fill="#FEFEFE" points="89.66 12.576 86.495 12.576 86.495 10.884 95.097 10.884 94.547 12.576 91.646 12.576 91.646 21.812 89.66 21.812"/>
        <path fill="#2B0D61" d="M118.299577 45.4218C117.490818 45.8678 116.715923 45.9998 115.986844 45.9998 113.596423 45.9998 112.301611 44.4558 112.301611 42.3118 112.301611 40.1898 113.807577 38.5018 116.152182 38.5018 116.948989 38.5018 117.612331 38.6558 118.066511 38.8578L118.066511 40.1018C117.50277 39.7998 116.895205 39.6238 116.186046 39.6238 114.57052 39.6238 113.717936 40.8458 113.717936 42.2798 113.717936 43.8098 114.648208 44.8778 116.142222 44.8778 116.859348 44.8778 117.415121 44.6658 117.933046 44.3678L118.299577 45.4218zM124.703517 42.2558C124.703517 40.6338 123.831013 39.6238 122.44656 39.6238 121.095972 39.6238 120.189604 40.5898 120.189604 42.2558 120.189604 43.9118 121.095972 44.8778 122.44656 44.8778 123.785197 44.8778 124.703517 43.9118 124.703517 42.2558M118.773279 42.2558C118.773279 40.0358 120.289205 38.5018 122.44656 38.5018 124.603916 38.5018 126.119842 40.0458 126.119842 42.2558 126.119842 44.4998 124.572044 45.9998 122.44656 45.9998 120.299165 45.9998 118.773279 44.4998 118.773279 42.2558M127.115851 38.5684L128.321022 38.5684 130.235351 41.3344C130.488337 41.7124 130.679571 41.9904 130.842917 42.2784L130.866821 42.2784C131.022198 42.0004 131.209448 41.6784 131.464426 41.2884L133.213418 38.5684 134.430541 38.5684 134.430541 45.8884 133.089913 45.8884 133.089913 41.7564C133.089913 41.4564 133.089913 41.0784 133.111825 40.7884L133.089913 40.7884C132.990312 41.0024 132.725374 41.4124 132.5939 41.6104L131.153671 43.8564 130.546106 43.8564 128.952491 41.5564C128.797114 41.3344 128.597912 41.0784 128.454487 40.8004L128.432575 40.8004C128.442535 41.0904 128.442535 41.4664 128.442535 41.7224L128.442535 45.8884 127.115851 45.8884 127.115851 38.5684zM137.459205 42.2792C137.813784 42.2792 138.098643 42.2232 138.309797 42.1112 138.720153 41.9112 138.919355 41.5112 138.919355 40.9672 138.919355 40.4892 138.732105 40.0772 138.343661 39.8452 138.134499 39.7232 137.833705 39.6552 137.437293 39.6552L137.060802 39.6552 137.060802 42.2792 137.459205 42.2792zM135.734118 38.5692L137.49307 38.5692C138.166372 38.5692 138.69824 38.6672 139.130508 38.8792 139.881499 39.2572 140.313767 39.9692 140.313767 40.9672 140.313767 41.8132 139.947236 42.6892 138.919355 43.1112 138.520951 43.2672 138.022946 43.3672 137.369564 43.3672L137.060802 43.3672 137.060802 45.8892 135.734118 45.8892 135.734118 38.5692zM144.759951 42.9668L144.249995 41.5108C144.052785 40.9568 143.953184 40.6228 143.887448 40.3788L143.865535 40.3788C143.799799 40.6348 143.686254 40.9568 143.487052 41.5228L142.957175 42.9668 144.759951 42.9668zM143.321714 38.5348L144.385452 38.5348 147.315711 45.8888 145.877474 45.8888 145.168315 44.0568 142.568732 44.0568 141.885469 45.8888 140.499025 45.8888 143.321714 38.5348zM149.350955 37.457C149.350955 36.857 149.737407 36.535 150.257324 36.535 150.886801 36.535 151.364886 37.023 151.709505 37.023 151.928627 37.023 151.950539 36.879 151.950539 36.601L152.813083 36.601 152.813083 37.047C152.813083 37.635 152.416671 37.957 151.906715 37.957 151.287197 37.957 150.801145 37.481 150.456525 37.481 150.235411 37.481 150.215491 37.623 150.215491 37.891L149.350955 37.891 149.350955 37.457zM153.133798 45.889L149.970473 41.713C149.649758 41.301 149.392788 40.933 149.151754 40.601L149.129841 40.601C149.151754 40.891 149.151754 41.313 149.151754 41.735L149.151754 45.889 147.823078 45.889 147.823078 38.569 149.141794 38.569 152.195557 42.579C152.51428 43.011 152.78121 43.367 153.002324 43.711L153.024237 43.711C153.012285 43.323 153.002324 42.879 153.002324 42.479L153.002324 38.569 154.340961 38.569 154.340961 45.889 153.133798 45.889zM155.64633 45.888L156.973014 45.888 156.973014 38.568 155.64633 38.568 155.64633 45.888zM156.241943 36.524L157.668228 36.524 156.606483 38.158 155.600514 38.158 156.241943 36.524zM161.74071 42.9668L161.232745 41.5108C161.033544 40.9568 160.933943 40.6228 160.868206 40.3788L160.844302 40.3788C160.778565 40.6348 160.669004 40.9568 160.467811 41.5228L159.937934 42.9668 161.74071 42.9668zM160.302473 38.5348L161.366211 38.5348 164.296469 45.8888 162.860224 45.8888 162.151066 44.0568 159.54949 44.0568 158.864236 45.8888 157.481775 45.8888 160.302473 38.5348zM168.897632 44.7558C170.823914 44.7558 171.552993 43.5778 171.552993 42.2018 171.552993 40.6678 170.656584 39.7018 168.87572 39.7018L168.057001 39.7018 168.057001 44.7558 168.897632 44.7558zM166.730317 38.5678L168.999225 38.5678C171.574905 38.5678 172.981269 40.0118 172.981269 42.1778 172.981269 44.3998 171.411559 45.8878 168.87572 45.8878L166.730317 45.8878 166.730317 38.5678z"/>
        <polygon fill="#2B0D61" points="173.965 38.568 177.991 38.568 177.628 39.7 175.294 39.7 175.294 41.61 177.628 41.61 177.628 42.744 175.294 42.744 175.294 44.756 178.003 44.756 178.003 45.888 173.965 45.888"/>
        <path fill="#2B0D61" d="M181.145356,44.3438 C181.575632,44.6438 182.129413,44.8778 182.792755,44.8778 C183.402313,44.8778 184.007886,44.6438 184.007886,44.0118 C184.007886,42.5778 180.856514,42.7558 180.856514,40.5238 C180.856514,39.4458 181.709097,38.5018 183.223031,38.5018 C183.978006,38.5018 184.607484,38.6678 185.003895,38.8698 L185.003895,40.0898 C184.428202,39.7918 183.842549,39.6238 183.268847,39.6238 C182.760883,39.6238 182.272838,39.8238 182.272838,40.4118 C182.272838,41.7558 185.424211,41.5778 185.424211,43.8998 C185.424211,45.1998 184.320633,45.9998 182.826619,45.9998 C181.974036,45.9998 181.177229,45.7558 180.623448,45.3678 L181.145356,44.3438 Z"/>
        <polygon fill="#2B0D61" points="186.409 38.568 190.437 38.568 190.073 39.7 187.738 39.7 187.738 41.61 190.073 41.61 190.073 42.744 187.738 42.744 187.738 44.756 190.447 44.756 190.447 45.888 186.409 45.888"/>
        <path fill="#2B0D61" d="M197.649624 45.4102C196.986282 45.7442 196.012185 46.0002 194.994264 46.0002 192.605834 46.0002 191.18951 44.4542 191.18951 42.3562 191.18951 40.1342 192.771172 38.5022 195.195458 38.5022 196.04605 38.5022 196.755208 38.6682 197.306997 38.8682L197.306997 40.1122C196.731304 39.8242 196.077922 39.6222 195.293067 39.6222 193.534115 39.6222 192.605834 40.7122 192.605834 42.2682 192.605834 43.8462 193.524155 44.8762 195.093865 44.8762 195.579917 44.8762 196.024137 44.7882 196.310988 44.6562L196.310988 42.3342 197.649624 42.3342 197.649624 45.4102zM199.087264 44.5782C198.898022 44.2022 198.810373 43.7102 198.810373 43.1562L198.810373 38.5682 200.139049 38.5682 200.139049 43.0662C200.139049 43.4542 200.206778 43.7882 200.338251 44.0562 200.593229 44.5782 201.101194 44.8762 201.832264 44.8762 202.561343 44.8762 203.0713 44.5782 203.326278 44.0562 203.457751 43.7882 203.52548 43.4542 203.52548 43.0562L203.52548 38.5682 204.852164 38.5682 204.852164 43.1562C204.852164 43.7222 204.764515 44.2102 204.575273 44.5902 204.121093 45.5342 203.170901 46.0002 201.832264 46.0002 200.481676 46.0002 199.531484 45.5342 199.087264 44.5782M208.026046 41.9454C208.368673 41.9454 208.613691 41.8794 208.834805 41.7554 209.143568 41.5774 209.34277 41.2454 209.34277 40.7894 209.34277 40.4014 209.177433 40.0574 208.854726 39.8674 208.679428 39.7454 208.43441 39.6554 208.037998 39.6554L207.428441 39.6554 207.428441 41.9454 208.026046 41.9454zM206.099765 38.5694L208.091783 38.5694C208.779029 38.5694 209.265081 38.6794 209.651533 38.8694 210.426428 39.2354 210.737183 39.9114 210.737183 40.6554 210.737183 41.6354 210.149537 42.2794 209.310898 42.5454L209.310898 42.5674C209.532012 42.6894 209.828822 43.0894 210.217266 43.7554L211.434389 45.8894 209.906511 45.8894 208.854726 44.0334C208.500146 43.3794 208.235208 43.0774 208.05991 43.0334L207.428441 43.0334 207.428441 45.8894 206.099765 45.8894 206.099765 38.5694zM217.771994 42.2558C217.771994 40.6338 216.899491 39.6238 215.515038 39.6238 214.16445 39.6238 213.258082 40.5898 213.258082 42.2558 213.258082 43.9118 214.16445 44.8778 215.515038 44.8778 216.853674 44.8778 217.771994 43.9118 217.771994 42.2558M211.841757 42.2558C211.841757 40.0358 213.357682 38.5018 215.515038 38.5018 217.672394 38.5018 219.188319 40.0458 219.188319 42.2558 219.188319 44.4998 217.640521 45.9998 215.515038 45.9998 213.367643 45.9998 211.841757 44.4998 211.841757 42.2558M220.349666 44.3438C220.779942 44.6438 221.333723 44.8778 221.997065 44.8778 222.606622 44.8778 223.214188 44.6438 223.214188 44.0118 223.214188 42.5778 220.060823 42.7558 220.060823 40.5238 220.060823 39.4458 220.913407 38.5018 222.429333 38.5018 223.182315 38.5018 223.811793 38.6678 224.210197 38.8698L224.210197 40.0898C223.634504 39.7918 223.046858 39.6238 222.473157 39.6238 221.965192 39.6238 221.477148 39.8238 221.477148 40.4118 221.477148 41.7558 224.630513 41.5778 224.630513 43.8998 224.630513 45.1998 223.524943 45.9998 222.032921 45.9998 221.180337 45.9998 220.38353 45.7558 219.829749 45.3678L220.349666 44.3438z"/>
        <polygon fill="#FEFEFE" points="97.623 10.747 99.218 10.747 103.625 21.795 101.463 21.795 98.425 13.593 96.493 19.041 95.461 21.795 93.384 21.795"/>
      </g>
    </g>
    <polygon fill="#008CCC" points="6.863 32.914 13.725 32.914 13.725 0 6.863 0"/>
    <polygon fill="#781496" points="20.588 32.914 27.451 32.914 27.451 0 20.588 0"/>
    <polygon fill="#E60D2E" points="13.725 32.914 20.588 32.914 20.588 0 13.725 0"/>
    <polygon fill="#ED6E00" points="0 32.914 6.863 32.914 6.863 0 0 0"/>
    <polygon fill="#638F38" points="27.451 32.914 34.314 32.914 34.314 0 27.451 0"/>
    <polygon fill="#2B0D61" points="34.314 32.914 41.176 32.914 41.176 0 34.314 0"/>
  </g>
</svg>
