<?xml version="1.0" encoding="UTF-8"?>
<svg width="122px" height="80px" viewBox="0 0 122 80" version="1.1" xmlns="http://www.w3.org/2000/svg" xmlns:xlink="http://www.w3.org/1999/xlink">
    <!-- Generator: Sketch 49.2 (51160) - http://www.bohemiancoding.com/sketch -->
    <title>Rectangle 3 Copy 19</title>
    <desc>Created with Sketch.</desc>
    <defs>
        <polygon id="path-1" points="0.000220689655 0.00044137931 62.9186207 0.00044137931 62.9186207 63.4286345 0.000220689655 63.4286345"></polygon>
    </defs>
    <g id="Ilustraciones" stroke="none" stroke-width="1" fill="none" fill-rule="evenodd">
        <g id="ALFAROMEO" transform="translate(-39.000000, -60.000000)">
            <g id="Group" transform="translate(39.000000, 60.000000)">
                <rect id="Rectangle-3-Copy-19" x="0" y="0" width="122" height="80"></rect>
                <g id="Page-1" transform="translate(30.000000, 8.000000)">
                    <mask id="mask-2" fill="white">
                        <use xlink:href="#path-1"></use>
                    </mask>
                    <g id="Clip-2"></g>
                    <path d="M48.5828414,18.6529103 C49.4302897,19.0545655 52.5044966,21.5240828 52.5044966,25.6509793 C52.5044966,29.7822897 48.8631172,31.9031172 46.5878069,31.9207724 L38.9673931,31.9207724 C38.563531,31.9207724 38.2413241,32.2429793 38.2413241,32.6512552 C38.2413241,33.0484966 38.563531,33.3773241 38.9673931,33.3773241 L46.1331862,33.3729103 C48.399669,33.3729103 50.2380138,35.2973241 50.2380138,37.5814621 C50.2380138,39.8633931 48.399669,41.6576 46.1331862,41.6576 L39.3072552,41.6531862 C38.927669,41.6531862 38.6209103,41.9621517 38.6209103,42.339531 C38.6209103,42.723531 38.927669,43.0302897 39.3072552,43.0302897 L44.4824276,43.0347034 C45.7028414,43.0347034 46.6981517,44.0322207 46.6981517,45.263669 C46.6981517,46.4973241 45.7028414,47.4816 44.4824276,47.4816 L41.3530483,47.4926345 C41.0639448,47.4926345 40.8322207,47.7287724 40.8322207,48.0178759 C40.8322207,48.3091862 41.0639448,48.547531 41.3530483,48.547531 L43.7563586,48.547531 C44.5949793,48.547531 45.5373241,49.7966345 43.7298759,50.4873931 C43.7453241,50.1298759 43.6879448,49.6090483 42.9309793,49.6090483 C42.1806345,49.6090483 41.0131862,49.6068414 41.0131862,49.6068414 C40.079669,49.6068414 39.3204966,48.9006345 39.3204966,47.9604966 C39.3204966,47.0225655 40.079669,46.1993931 41.0131862,46.1993931 L44.3102897,46.2038069 C44.6700138,46.2038069 44.9569103,45.9124966 44.9569103,45.5505655 C44.9569103,45.1930483 44.6700138,44.8884966 44.3102897,44.8884966 L39.0225655,44.8884966 C37.3122207,44.8884966 35.9262897,43.4937379 35.9262897,41.7679448 C35.9262897,40.0443586 37.3122207,38.7158069 39.0225655,38.7158069 L45.5064276,38.7136 C45.9080828,38.7136 46.2302897,38.499531 46.2302897,38.1000828 C46.2302897,37.6918069 45.9080828,37.3497379 45.5064276,37.3497379 L38.9673931,37.3497379 C36.387531,37.3497379 34.2976,35.2487724 34.2976,32.6512552 C34.2976,30.051531 36.387531,27.9439448 38.9673931,27.9439448 L45.2526345,27.9461517 C45.7403586,27.9461517 46.1376,27.5224276 46.1376,27.0280828 C46.1376,26.5337379 45.7403586,26.1629793 45.2526345,26.1629793 L38.1662897,26.1651862 C38.5105655,24.675531 39.4749793,24.4460138 40.3290483,24.4482207 L43.6283586,24.4482207 C44.0079448,24.4482207 44.3102897,24.1370483 44.3102897,23.759669 C44.3102897,23.3778759 44.0079448,23.1262897 43.6283586,23.1262897 L40.3290483,23.1262897 C38.9078069,23.1262897 38.223669,21.8639448 38.1662897,21.1776 L41.5825655,21.1776 C41.8694621,20.259531 42.4344276,19.8004966 43.0611862,19.8004966 L46.7025655,19.8004966 C47.9494621,19.8004966 48.463669,18.9949793 48.5828414,18.6529103 Z M34.0371862,27.7364966 C34.0371862,27.5511172 34.1122207,27.3856 34.2336,27.2620138 L35.4429793,26.4167724 C36.0388414,26.0173241 35.9262897,25.3552552 35.8446345,24.8123586 C35.7563586,24.2672552 35.1847724,24.5254621 35.0170483,24.7262897 C34.7566345,24.9822897 34.4123586,25.1389793 34.019531,25.1389793 C33.2404966,25.1389793 32.611531,24.5342897 32.611531,23.7486345 C32.611531,22.9696 33.2404966,22.3296 34.019531,22.3296 C34.4123586,22.3296 34.7566345,22.4907034 35.0170483,22.7467034 C35.1847724,22.9453241 35.7563586,23.2057379 35.8446345,22.6584276 C35.9262897,22.115531 36.0388414,21.455669 35.4429793,21.0540138 L34.2336,20.2087724 C34.1122207,20.0896 34.0371862,19.919669 34.0371862,19.7364966 C34.0371862,19.3657379 34.3373241,19.0656 34.703669,19.0656 C34.8846345,19.0656 35.0523586,19.1428414 35.1693241,19.2620138 L37.0473931,20.5684966 C36.9370483,21.1113931 37.3056,23.0909793 38.6407724,23.7243586 C37.3056,24.3533241 36.9767724,26.2446345 37.0473931,26.9022897 L35.1693241,28.2087724 C35.0523586,28.3323586 34.8846345,28.4051862 34.703669,28.4051862 C34.3373241,28.4051862 34.0371862,28.1050483 34.0371862,27.7364966 Z M38.8129103,14.4929103 C39.1902897,14.4929103 39.4992552,14.8018759 39.4992552,15.183669 C39.4992552,15.5610483 39.1902897,15.8700138 38.8129103,15.8700138 C38.4399448,15.8700138 38.1331862,15.5610483 38.1331862,15.183669 C38.1331862,14.8018759 38.4399448,14.4929103 38.8129103,14.4929103 Z M40.547531,14.4929103 C40.9249103,14.4929103 41.2294621,14.8018759 41.2294621,15.183669 C41.2294621,15.5610483 40.9249103,15.8700138 40.547531,15.8700138 C40.1657379,15.8700138 39.8656,15.5610483 39.8656,15.183669 C39.8656,14.8018759 40.1657379,14.4929103 40.547531,14.4929103 Z M42.2777379,14.4929103 C42.6529103,14.4929103 42.9618759,14.8018759 42.9618759,15.183669 C42.9618759,15.5610483 42.6529103,15.8700138 42.2777379,15.8700138 C41.9003586,15.8700138 41.5936,15.5610483 41.5936,15.183669 C41.5936,14.8018759 41.9003586,14.4929103 42.2777379,14.4929103 Z M44.0123586,14.4929103 C44.3853241,14.4929103 44.6920828,14.8018759 44.6920828,15.183669 C44.6920828,15.5610483 44.3853241,15.8700138 44.0123586,15.8700138 C43.6283586,15.8700138 43.3260138,15.5610483 43.3260138,15.183669 C43.3260138,14.8018759 43.6283586,14.4929103 44.0123586,14.4929103 Z M38.2104276,18.4984276 L46.4002207,18.4984276 L46.4002207,17.635531 L38.2104276,17.635531 L38.2104276,18.4984276 Z M38.2104276,16.9094621 L46.4002207,16.9094621 L46.4002207,16.2518069 L38.2104276,16.2518069 L38.2104276,16.9094621 Z M45.7359448,14.4929103 C46.1133241,14.4929103 46.4222897,14.8018759 46.4222897,15.183669 C46.4222897,15.5610483 46.1133241,15.8700138 45.7359448,15.8700138 C45.3629793,15.8700138 45.0540138,15.5610483 45.0540138,15.183669 C45.0540138,14.8018759 45.3629793,14.4929103 45.7359448,14.4929103 Z M31.887669,9.00435862 L31.8920828,54.4222897 C44.2153931,54.2766345 54.1464276,44.1668414 54.1464276,31.7133241 C54.1464276,19.2465655 44.1844966,9.12573793 31.887669,9.00435862 Z M31.8920828,54.4267034 L31.8920828,54.4222897 C31.8788414,54.4222897 31.8611862,54.4267034 31.8479448,54.4267034 L31.8920828,54.4267034 Z M24.3511172,53.3651862 C26.4984276,54.0780138 28.7958069,54.4752552 31.139531,54.499531 L31.139531,34.6573241 L24.3511172,34.6573241 L24.3511172,53.3651862 Z M19.7673931,7.73097931 L18.2004966,6.25677241 L18.1872552,6.2656 L18.4896,8.40408276 L19.7673931,7.73097931 Z M4.77815172,30.671669 L2.75222069,31.3646345 L2.75222069,31.3822897 L4.76049655,32.1260138 L4.77815172,30.671669 Z M39.4220138,7.24766897 C40.4084966,7.56987586 41.4589793,7.06449655 41.7944276,6.0118069 C42.063669,5.17318621 41.5031172,4.14256552 40.5166345,3.82256552 C39.5301517,3.50256552 38.4818759,4.01015172 38.2060138,4.85097931 C37.8727724,5.89925517 38.4399448,6.92987586 39.4220138,7.24766897 Z M28.7604966,4.00353103 C29.3210483,3.9616 29.9478069,3.80711724 29.8948414,3.11635862 C29.8374621,2.4233931 29.1974621,2.37042759 28.6347034,2.41677241 L28.4647724,2.4278069 L28.5905655,4.01897931 L28.7604966,4.00353103 Z M59.0920828,28.9083586 C58.0018759,28.9502897 57.2294621,29.8264276 57.2647724,30.8702897 C57.3000828,31.9141517 58.127669,32.7417379 59.2222897,32.7042207 C60.0984276,32.675531 60.8686345,31.7883586 60.8311172,30.7489103 C60.7958069,29.7028414 59.9682207,28.879669 59.0920828,28.9083586 Z M59.2929103,34.5204966 C57.2404966,34.5911172 55.7398069,33.0816 55.6647724,30.927669 C55.5919448,28.771531 56.9867034,27.1604966 59.0369103,27.0898759 C60.9569103,27.0258759 62.3649103,28.7582897 62.4311172,30.6893241 C62.4951172,32.6247724 61.2129103,34.4520828 59.2929103,34.5204966 Z M53.3232552,20.7296 L59.1891862,18.275531 L60.6391172,21.8087724 L59.3502897,22.3450483 L58.5602207,20.431669 L57.5803586,20.8399448 L58.3307034,22.6562207 L57.039669,23.1969103 L56.2893241,21.3784276 L55.2763586,21.8021517 L56.0686345,23.7199448 L54.7776,24.2606345 L53.3232552,20.7296 Z M31.4551172,55.0291862 C18.6882207,55.0291862 8.32904828,44.5905655 8.32904828,31.7133241 C8.32904828,18.8382897 18.6882207,8.39966897 31.4551172,8.39966897 C44.2286345,8.39966897 54.5856,18.8382897 54.5856,31.7133241 C54.5856,44.5905655 44.2286345,55.0291862 31.4551172,55.0291862 Z M7.1616,29.7933241 L6.05153103,30.2192552 L6.02504828,32.6225655 L7.12187586,33.0992552 L7.0998069,34.9530483 L0.781462069,32.2937379 L0.805737931,30.3825655 L7.18366897,27.9284966 L7.1616,29.7933241 Z M3.18035862,19.8689103 L7.74863448,21.7844966 L8.54973793,19.8534621 L9.83635862,20.3941517 L8.3753931,23.9406345 L2.51387586,21.4799448 L3.18035862,19.8689103 Z M10.1563586,9.54946207 L11.1913931,10.4962207 L9.77456552,12.0587034 L10.5602207,12.7781517 L11.8402207,11.363531 L12.8774621,12.3124966 L11.5908414,13.7271172 L13.4336,15.4242207 L12.2661517,16.7152552 L7.57870345,12.3963586 L10.1563586,9.54946207 Z M18.1387034,4.06753103 L23.3094621,8.56297931 L21.6763586,9.42587586 L20.7803586,8.64242759 L18.6661517,9.76132414 L18.7698759,10.9640828 L17.1411862,11.8203586 L16.4658759,4.95470345 L18.1387034,4.06753103 Z M29.2261517,1.09704828 C30.5370483,0.993324138 31.5809103,1.51415172 31.6912552,2.8758069 C31.759669,3.75856552 31.3072552,4.55525517 30.3759448,4.7936 L32.6733241,7.24104828 L30.5193931,7.4153931 L28.6987034,5.08932414 L28.6810483,5.09153103 L28.8730483,7.5433931 L27.1450483,7.68242759 L26.6440828,1.30228966 L29.2261517,1.09704828 Z M36.4912552,4.28601379 C37.0849103,2.44104828 39.1792552,1.69511724 41.0043586,2.29097931 C42.8294621,2.88242759 44.1028414,4.72077241 43.5136,6.56353103 C42.8846345,8.53649655 40.9668414,9.44794483 38.9298759,8.78587586 C36.8929103,8.1238069 35.8622897,6.25677241 36.4912552,4.28601379 Z M50.3483586,7.27635862 L51.5952552,8.45263448 L50.2512552,11.8777379 L53.6189793,10.3770483 L54.8747034,11.5731862 L51.5025655,17.2669793 L50.2600828,16.0465655 L52.1447724,12.7097379 L52.131531,12.6987034 L48.4614621,14.2744276 L47.9582897,13.7977379 L49.3508414,10.0570483 L49.3353931,10.0438069 L46.1993931,12.1668414 L44.9304276,10.9905655 L50.3483586,7.27635862 Z M31.4551172,0.000220689655 C14.0824276,0.000220689655 0.000220689655,14.1993931 0.000220689655,31.7133241 C0.000220689655,49.2272552 14.0824276,63.4286345 31.4551172,63.4286345 C48.8344276,63.4286345 62.9188414,49.2272552 62.9188414,31.7133241 C62.9188414,14.1993931 48.8344276,0.000220689655 31.4551172,0.000220689655 Z M24.3511172,27.6173241 L31.139531,27.6173241 L31.139531,8.92270345 C28.8002207,8.94697931 26.5072552,9.34201379 24.3599448,10.0548414 L24.3511172,27.6173241 Z M17.3111172,13.7668414 C13.0363586,17.1456 10.0040828,22.0162207 9.0198069,27.6283586 L17.3177379,27.6327724 L17.3111172,13.7668414 Z M8.85428966,34.6462897 C9.60684138,40.7307034 12.7627034,46.0647724 17.3221517,49.6686345 L17.3177379,34.6462897 L8.85428966,34.6462897 Z" id="Fill-1" fill="#231F20" mask="url(#mask-2)"></path>
                </g>
            </g>
        </g>
    </g>
</svg>