<?xml version="1.0" encoding="UTF-8"?>
<svg width="122px" height="80px" viewBox="0 0 122 80" version="1.1" xmlns="http://www.w3.org/2000/svg" xmlns:xlink="http://www.w3.org/1999/xlink">
    <!-- Generator: Sketch 49.2 (51160) - http://www.bohemiancoding.com/sketch -->
    <title>Rectangle 3 Copy 19</title>
    <desc>Created with Sketch.</desc>
    <defs>
        <polygon id="path-1" points="0.233452632 1.17894 3.51629474 1.17894 3.51629474 7 0.233452632 7"></polygon>
        <polygon id="path-3" points="3.02564798e-05 0.4172 77.0731684 0.4172 77.0731684 18.0799325 3.02564798e-05 18.0799325"></polygon>
    </defs>
    <g id="Ilustraciones" stroke="none" stroke-width="1" fill="none" fill-rule="evenodd">
        <g id="ASTON-MARTIN" transform="translate(-39.000000, -60.000000)">
            <g id="Group" transform="translate(39.000000, 60.000000)">
                <rect id="Rectangle-3-Copy-19" x="0" y="0" width="122" height="80"></rect>
                <g id="Page-1" transform="translate(22.000000, 27.000000)">
                    <path d="M12.1091579,22.8361 L13,24.9347 L11.2333684,24.9347 L12.1091579,22.8361 Z M11.0828421,25.2777 L13.1149474,25.2777 C13.4337895,26.0211 13.7211579,26.8079 13.9565263,27.4855 C14.0892632,27.4785 14.2315789,27.4645 14.3766316,27.4645 C14.5203158,27.4645 14.6421053,27.4785 14.7994737,27.4855 L12.3992632,21.7679 L12.2104211,21.7679 L9.71715789,27.4855 C9.80610526,27.4785 9.88547368,27.4645 9.99494737,27.4645 C10.0893684,27.4645 10.1837895,27.4785 10.2905263,27.4855 C10.5149474,26.7169 10.7995789,25.9973 11.0828421,25.2777 Z" id="Fill-1" fill="#231F20"></path>
                    <g id="Group-5" transform="translate(15.052632, 20.582940)">
                        <mask id="mask-2" fill="white">
                            <use xlink:href="#path-1"></use>
                        </mask>
                        <g id="Clip-4"></g>
                        <path d="M1.75924211,6.64874 C1.1284,6.64874 0.779452632,6.32114 0.459242105,5.80174 L0.377136842,5.80174 C0.355242105,6.04534 0.315557895,6.28894 0.233452632,6.52834 C0.505768421,6.83494 1.14755789,7.00014 1.53755789,7.00014 C2.62271579,7.00014 3.51629474,6.30294 3.51629474,5.13954 C3.51629474,3.38674 0.991557895,3.99434 0.991557895,2.49354 C0.991557895,1.90974 1.45134737,1.53874 2.00418947,1.53874 C2.47355789,1.53874 2.81976842,1.80054 2.99082105,2.24434 L3.07018947,2.24434 C3.13861053,2.01334 3.18924211,1.78514 3.2864,1.57514 C2.99082105,1.29934 2.52555789,1.17894 2.13966316,1.17894 C1.18176842,1.17894 0.364821053,1.69274 0.364821053,2.75534 C0.364821053,4.59774 2.8704,3.92994 2.8704,5.45454 C2.8704,6.10834 2.40787368,6.64874 1.75924211,6.64874" id="Fill-3" fill="#231F20" mask="url(#mask-2)"></path>
                    </g>
                    <path d="M20.8395474,22.27554 L20.8395474,27.50174 C20.9462842,27.49614 21.0667053,27.47934 21.1912316,27.47934 C21.3034421,27.47934 21.4142842,27.49614 21.5415474,27.50174 L21.5415474,22.27554 C22.2586,22.27554 22.8155474,22.32594 23.2137579,22.37774 C23.2055474,22.29934 23.1891263,22.21254 23.1891263,22.13274 C23.1891263,22.04734 23.2055474,21.97734 23.2137579,21.88354 L19.0879684,21.88354 C19.0907053,21.97734 19.1098632,22.04734 19.1098632,22.13274 C19.1098632,22.21254 19.0907053,22.29934 19.0879684,22.37774 C19.5381789,22.32594 20.0267053,22.27554 20.8395474,22.27554" id="Fill-6" fill="#231F20"></path>
                    <path d="M24.2017579,24.78854 C24.2017579,23.12674 25.0474421,22.03474 26.4569158,22.03474 C27.1000737,22.03474 27.7186,22.31054 28.1168105,22.82854 C28.5382842,23.37594 28.6258632,23.94994 28.6258632,24.62894 C28.6806,25.52914 28.0743895,27.31414 26.3884947,27.31414 C25.1924947,27.31414 24.2017579,26.44334 24.2017579,24.78854 M29.4086,24.56314 C29.4086,22.59754 27.8828105,21.76314 26.3830211,21.76314 C24.7217579,21.76314 23.4135474,22.89714 23.4135474,24.68914 C23.4135474,26.43914 24.5917579,27.58294 26.3666,27.58294 C28.1482842,27.58294 29.4086,26.39294 29.4086,24.56314" id="Fill-8" fill="#231F20"></path>
                    <path d="M30.9958316,23.08082 L31.0765684,23.08082 L34.5304632,26.99242 C34.6974105,27.17442 34.8616211,27.37742 34.9478316,27.48522 L35.1873053,27.48522 L35.1873053,21.88382 C35.1052,21.89502 35.0367789,21.91182 34.9628842,21.91182 C34.8807789,21.91182 34.8055158,21.89502 34.7398316,21.88382 L34.7398316,26.10342 L34.6618316,26.10342 L30.8535158,21.88382 L30.5442526,21.88382 L30.5442526,27.48522 C30.6208842,27.47962 30.6852,27.46422 30.7700421,27.46422 C30.8384632,27.46422 30.9137263,27.47962 30.9958316,27.48522 L30.9958316,23.08082 Z" id="Fill-10" fill="#231F20"></path>
                    <path d="M39.5083684,23.26002 C40.0557368,24.32542 40.6099474,25.39222 41.1231053,26.47162 L41.5664737,27.39562 L41.6554211,27.39562 C42.133,26.26582 42.8199474,24.95822 43.7477368,23.26002 C43.8572105,24.07622 44.0227895,25.84302 44.1527895,27.48662 C44.2800526,27.47962 44.4059474,27.46422 44.5291053,27.46422 C44.6536316,27.46422 44.7658421,27.47962 44.9054211,27.48662 C44.6878421,25.92422 44.4743684,23.91102 44.2567895,21.88242 L44.0966842,21.88242 C43.2865789,23.35662 42.549,24.78322 41.7867895,26.18042 C40.9315263,24.72862 40.1624737,23.19142 39.5220526,21.88242 L39.3181579,21.88242 C39.2360526,22.75042 38.7557368,26.16922 38.5491053,27.48662 C38.649,27.47962 38.7311053,27.46422 38.8364737,27.46422 C38.9240526,27.46422 39.0157368,27.47962 39.1183684,27.48662 C39.1183684,26.48142 39.3304737,24.85742 39.5083684,23.26002" id="Fill-12" fill="#231F20"></path>
                    <path d="M47.8271368,22.8361 L48.7193474,24.9347 L46.9581895,24.9347 L47.8271368,22.8361 Z M46.8049263,25.2777 L48.8370316,25.2777 C49.1531368,26.0211 49.4500842,26.8079 49.6786105,27.4855 C49.8113474,27.4785 49.9536632,27.4645 50.0973474,27.4645 C50.2410316,27.4645 50.3641895,27.4785 50.5160842,27.4855 L48.1117684,21.7679 L47.9325053,21.7679 L45.4392421,27.4855 C45.5281895,27.4785 45.6144,27.4645 45.7184,27.4645 C45.8128211,27.4645 45.9017684,27.4785 46.0126105,27.4855 C46.2370316,26.7169 46.5202947,25.9973 46.8049263,25.2777 Z" id="Fill-14" fill="#231F20"></path>
                    <path d="M53.0989789,24.40424 C52.6952947,24.48124 52.1903474,24.45044 52.0658211,24.43924 L52.0658211,22.18944 C52.4065579,22.16844 52.9498211,22.15584 53.2481368,22.20064 C53.8475053,22.29864 54.1252947,22.66544 54.1252947,23.23104 C54.1252947,23.86804 53.6942421,24.27824 53.0989789,24.40424 M54.8423474,23.13444 C54.8423474,22.30704 54.2977158,21.88284 53.0661368,21.88284 L51.3692947,21.88284 L51.3692947,27.48704 C51.4787684,27.47864 51.5937158,27.46464 51.7209789,27.46464 C51.8318211,27.46464 51.9426632,27.47864 52.0699263,27.48704 L52.0699263,24.75144 L52.3791895,24.75144 L53.0141368,25.51864 L53.9583474,26.76884 C54.1252947,27.00124 54.2908737,27.23084 54.4701368,27.48704 C54.6069789,27.47864 54.7698211,27.46464 54.9230842,27.46464 C55.0708737,27.46464 55.2172947,27.47864 55.3869789,27.48704 L55.2337158,27.28124 L54.8478211,26.82484 L53.1975053,24.68844 C54.0117158,24.53864 54.8423474,24.08224 54.8423474,23.13444" id="Fill-16" fill="#231F20"></path>
                    <path d="M57.1521053,22.27554 L57.1521053,27.50174 C57.2725263,27.49614 57.3833684,27.47934 57.5037895,27.47934 C57.6173684,27.47934 57.7323158,27.49614 57.8623158,27.50174 L57.8623158,22.27554 C58.5656842,22.27554 59.1281053,22.32594 59.5304211,22.37774 C59.5235789,22.29934 59.5071579,22.21254 59.5071579,22.13274 C59.5071579,22.04734 59.5235789,21.97734 59.5304211,21.88354 L55.406,21.88354 C55.4128421,21.97734 55.4251579,22.04734 55.4251579,22.13274 C55.4251579,22.21254 55.4128421,22.29934 55.406,22.37774 C55.8589474,22.32594 56.3488421,22.27554 57.1521053,22.27554" id="Fill-18" fill="#231F20"></path>
                    <path d="M61.1544632,21.88326 C61.0258316,21.89586 60.9122526,21.91266 60.8014105,21.91266 C60.6837263,21.91266 60.5660421,21.89586 60.4483579,21.88326 L60.4483579,27.48606 C60.5660421,27.47906 60.6837263,27.46366 60.8014105,27.46366 C60.9122526,27.46366 61.0258316,27.47906 61.1544632,27.48606 L61.1544632,21.88326 Z" id="Fill-20" fill="#231F20"></path>
                    <path d="M63.1590632,23.08082 L63.2439053,23.08082 L66.7019053,26.99242 C66.8647474,27.17442 67.0262211,27.37742 67.1179053,27.48522 L67.3560105,27.48522 L67.3560105,21.88382 C67.2766421,21.89502 67.2013789,21.91182 67.1274842,21.91182 C67.0481158,21.91182 66.9810632,21.89502 66.9085368,21.88382 L66.9085368,26.10342 L66.8278,26.10342 L63.0331684,21.88382 L62.7129579,21.88382 L62.7129579,27.48522 C62.7868526,27.47962 62.8593789,27.46422 62.9442211,27.46422 C63.0071684,27.46422 63.0783263,27.47962 63.1590632,27.48522 L63.1590632,23.08082 Z" id="Fill-22" fill="#231F20"></path>
                    <g id="Group-26" transform="translate(0.000000, 0.982940)">
                        <mask id="mask-4" fill="white">
                            <use xlink:href="#path-3"></use>
                        </mask>
                        <g id="Clip-25"></g>
                        <path d="M76.3889579,1.77604 C76.3848526,1.78164 75.8292737,2.72384 75.8292737,2.72384 C75.7198,2.89604 75.6582211,2.97584 75.2258,3.01084 L58.2765368,3.01084 C58.4599053,2.67344 58.6227474,2.38084 58.7609579,2.11344 C58.7705368,2.10784 59.3685368,1.01724 60.4318,1.01724 L75.9674842,1.01724 C76.1289579,1.01724 76.3424316,1.04524 76.4505368,1.23144 C76.4642211,1.25664 76.4984316,1.30844 76.4984316,1.39944 C76.4984316,1.48904 76.4738,1.60944 76.3889579,1.77604 Z M74.3158,3.65904 L73.7246421,4.72024 C73.6384316,4.87424 73.5152737,5.11924 73.1198,5.26064 C72.7927474,5.34184 72.1386421,5.28724 71.9032737,5.26064 L57.4828526,4.28064 C57.6662211,3.99504 57.8454842,3.72344 58.0028526,3.46724 L74.4403263,3.46724 C74.3938,3.52184 74.3568526,3.58344 74.3158,3.65904 Z M71.8663263,5.99424 C71.8663263,5.99004 71.2970632,7.02184 71.1807474,7.23604 C71.1492737,7.26824 70.9836947,7.45024 70.4568526,7.38024 L56.6344316,5.48604 C56.8301158,5.23404 57.0025368,4.97924 57.1763263,4.73564 L71.8567474,5.73244 C71.8745368,5.73664 71.9361158,5.74224 72.0264316,5.75204 C71.9648526,5.81784 71.9128526,5.90744 71.8663263,5.99424 Z M67.1124316,8.74384 C66.5869579,8.87684 65.5661158,8.72004 65.2240105,8.64024 C65.2240105,8.64024 58.7158,7.27944 55.7230632,6.64664 C55.9365368,6.39884 56.1267474,6.14684 56.3169579,5.90744 L70.1941158,7.81284 L67.1124316,8.74384 Z M62.4023263,10.15364 C61.7427474,10.34124 60.8669579,10.04444 60.8519053,10.04444 L60.8450632,10.03324 L54.4832737,8.03124 C54.8007474,7.70644 55.1045368,7.37324 55.3864316,7.04844 L65.1295895,9.10224 C65.1460105,9.10784 65.3485368,9.14564 65.6290632,9.18484 L62.4023263,10.15364 Z M57.4376947,11.64464 C56.9929579,11.76784 56.3169579,11.50044 56.1007474,11.38564 C56.1007474,11.38564 54.3998,10.57364 52.6495895,9.74064 C53.1723263,9.29964 53.6676947,8.84884 54.1233789,8.39944 L60.7164316,10.47984 C60.7273789,10.48404 60.8519053,10.52604 61.0256947,10.56524 L57.4376947,11.64464 Z M56.4182211,12.66384 C56.2280105,13.16084 56.0254842,13.68724 54.6789579,14.20944 C54.1179053,14.37744 53.4501158,13.88044 53.4501158,13.87484 C53.4446421,13.87484 51.9434842,12.77024 50.2315895,11.50744 C50.9281158,11.07204 51.6000105,10.59324 52.2650632,10.06264 L55.9023263,11.80284 C55.9255895,11.80984 56.2895895,12.01004 56.7521158,12.09404 C56.5304316,12.35024 56.4346421,12.61484 56.4182211,12.66384 Z M51.3290632,15.17684 L50.8159053,15.31964 C50.3944316,15.42324 49.8648526,14.98924 49.7061158,14.81704 C49.7061158,14.81704 48.8850632,13.93924 47.8327474,12.81364 C48.5073789,12.50424 49.1614842,12.15564 49.8060105,11.76784 L53.1819053,14.24024 C53.1942211,14.25004 53.3885368,14.39984 53.6676947,14.52164 C52.9205368,14.73584 51.3290632,15.17684 51.3290632,15.17684 Z M46.8625368,16.42424 C46.5053789,16.48164 46.0962211,15.88804 45.9744316,15.66544 L44.9576947,13.89724 C45.7896947,13.64944 46.5984316,13.35544 47.3962211,13.01664 L49.3763263,15.12924 C49.3982211,15.15164 49.6130632,15.38124 49.9305368,15.57024 L46.8625368,16.42424 Z M43.4866421,17.37484 C43.2458,17.42384 43.0473789,17.40564 42.8694842,17.29364 C42.5013789,17.05984 42.3700105,16.52364 42.3590632,16.49284 L41.8418,14.57624 C42.7586421,14.44744 43.6426421,14.25844 44.5020105,14.02744 L45.5830632,15.89364 C45.6200105,15.96364 45.8362211,16.34724 46.1660105,16.62164 L43.4866421,17.37484 Z M41.2985368,16.67624 C41.2985368,16.67624 39.8507474,15.26084 39.3594842,14.78344 C40.0505368,14.76524 40.7251684,14.70364 41.3888526,14.62944 L41.9239053,16.59224 C41.9362211,16.66084 42.0429579,17.08644 42.3385368,17.42384 C41.9362211,17.31184 41.8144316,17.18864 41.2985368,16.67624 Z M38.7642211,14.33264 L38.7642211,8.36724 L39.6947474,8.36724 L41.2739053,14.18284 C40.4487474,14.28084 39.6140105,14.33264 38.7642211,14.33264 Z M49.7868526,8.36724 L53.5007474,8.36724 C53.1203263,8.75644 52.2281158,9.50264 52.2034842,9.51944 C51.2921158,9.09244 50.4149579,8.66404 49.7868526,8.36724 Z M45.9292737,8.36724 L48.7153789,8.36724 L51.8025368,9.84144 C51.1634842,10.34684 50.5107474,10.79904 49.8306421,11.22044 C48.3445368,10.12984 46.7776947,8.98324 45.9292737,8.36724 Z M43.6659053,8.36724 L45.1561158,8.36724 L49.4050632,11.47664 C48.7796947,11.84204 48.1488526,12.16684 47.5029579,12.46364 C46.0962211,10.96844 44.4185368,9.17784 43.6659053,8.36724 Z M44.2652737,13.61584 C43.4414842,13.83004 42.5930632,13.99664 41.7172737,14.12544 L40.1654842,8.36724 L41.2355895,8.36724 L44.2652737,13.61584 Z M41.7610632,8.36724 L43.0309579,8.36724 L47.0568526,12.66244 C46.2973789,12.98024 45.5242211,13.25884 44.7154842,13.48564 L41.7610632,8.36724 Z M23.1081158,7.90664 C23.1081158,7.90664 23.1012737,7.90104 23.1012737,7.89404 L23.1012737,3.47144 L53.9755895,3.47144 L53.9755895,7.90104 L53.9632737,7.90664 L23.1081158,7.90664 Z M38.3181158,14.33264 C37.4587474,14.33264 36.6253789,14.27524 35.8015895,14.18284 L37.3807474,8.36724 L38.3181158,8.36724 L38.3181158,14.33264 Z M35.3938,17.05424 C35.1871684,17.25444 34.9627474,17.37484 34.7369579,17.42384 C35.0311684,17.08924 35.1365368,16.66084 35.1543263,16.58664 L35.6839053,14.62944 C36.3475895,14.71204 37.0276947,14.76524 37.7146421,14.78344 C37.1672737,15.31964 35.3938,17.05424 35.3938,17.05424 Z M34.2073789,17.29364 C34.0281158,17.40564 33.8255895,17.42384 33.5929579,17.37484 L30.9053789,16.62164 C31.2365368,16.34724 31.4527474,15.96364 31.4924316,15.88804 C31.4924316,15.88804 31.9467474,15.10124 32.5639053,14.02744 C33.4383263,14.26404 34.3236947,14.44744 35.2336947,14.57624 L34.7136947,16.49284 C34.7068526,16.49284 34.5891684,17.05424 34.2073789,17.29364 Z M30.2129579,16.42424 L27.1490632,15.57024 C27.4624316,15.38124 27.6772737,15.15164 27.6964316,15.12924 C27.6964316,15.12924 28.5804316,14.19404 29.6806421,13.01664 C30.4770632,13.35544 31.2871684,13.64944 32.1164316,13.89724 L31.1079053,15.65564 C30.9820105,15.88804 30.5687474,16.48164 30.2129579,16.42424 Z M26.2609579,15.31964 L23.4064316,14.52164 C23.6855895,14.39984 23.8867474,14.25004 23.9031684,14.23744 C23.9031684,14.23744 25.4919053,13.06984 27.2694842,11.76784 C27.9112737,12.15564 28.5722211,12.50424 29.2427474,12.81364 L27.3707474,14.81704 C27.2092737,14.98924 26.6810632,15.42324 26.2609579,15.31964 Z M22.4006421,14.20944 C21.0513789,13.68724 20.8474842,13.16084 20.6559053,12.66384 C20.6408526,12.62044 20.5423263,12.35584 20.3261158,12.09404 C20.7804316,12.01004 21.1581158,11.80984 21.1786421,11.80284 C21.1690632,11.80284 23.0027474,10.93204 24.8076947,10.05704 C25.4754842,10.58764 26.1514842,11.07204 26.8466421,11.50744 L23.6294842,13.86924 C23.6240105,13.88044 22.9534842,14.38724 22.4006421,14.20944 Z M24.8692737,9.51944 C24.8405368,9.49284 23.9565368,8.72844 23.5733789,8.36724 L27.2927474,8.36724 L24.8692737,9.51944 Z M27.2448526,11.22044 C26.5702211,10.80044 25.9120105,10.34684 25.2729579,9.84144 C26.7358,9.14564 28.0973789,8.48904 28.3546421,8.36724 L31.1462211,8.36724 L27.2448526,11.22044 Z M29.5739053,12.46364 C28.9293789,12.16684 28.2930632,11.83364 27.6731684,11.47664 C29.5123263,10.12564 31.4418,8.72004 31.9166421,8.36724 L33.4123263,8.36724 L29.5739053,12.46364 Z M35.8399053,8.36724 L36.9141158,8.36724 L35.3541158,14.12544 C34.4796947,13.99664 33.6381158,13.83004 32.8033789,13.61584 C33.9432737,11.64884 35.4553789,9.02944 35.8399053,8.36724 Z M32.3572737,13.49404 C31.5540105,13.25884 30.7753789,12.98024 30.0213789,12.65544 C31.6347474,10.93624 33.5738,8.86424 34.0363263,8.36724 L35.3144316,8.36724 L32.3572737,13.49404 Z M19.6391684,11.64464 C19.5023263,11.60404 17.9847474,11.14484 16.0443263,10.56524 C16.2318,10.52604 16.3549579,10.47984 16.3604316,10.47284 C16.3604316,10.47984 21.7041158,8.79004 22.9534842,8.39104 C23.4064316,8.84884 23.9031684,9.29964 24.4245368,9.74064 L20.9815895,11.38564 C20.7558,11.50044 20.0934842,11.76784 19.6391684,11.64464 Z M14.6759053,10.15364 C13.6181158,9.83584 12.5001158,9.50264 11.4450632,9.18484 C11.7310632,9.14564 11.9308526,9.10784 11.9472737,9.10224 C11.9472737,9.10224 18.8304316,7.64904 21.6945368,7.04844 C21.9764316,7.37324 22.2747474,7.69664 22.5922211,8.02704 L16.2208526,10.03324 C16.2085368,10.04444 15.3464316,10.33704 14.6759053,10.15364 Z M9.97401053,8.74384 C8.53990526,8.30564 7.37537895,7.96264 6.88274737,7.81284 L20.7558,5.90744 C20.9501158,6.15244 21.1430632,6.39884 21.3538,6.65364 L11.8542211,8.64024 C11.5066421,8.72004 10.4885368,8.87684 9.97401053,8.74384 Z M5.90158947,7.23604 L5.20916842,5.99004 C5.16401053,5.89484 5.10927368,5.81784 5.04632632,5.75204 C5.14211579,5.74224 19.9032737,4.73564 19.9032737,4.73564 C20.0702211,4.97924 20.2453789,5.23404 20.4396947,5.48604 L6.62001053,7.38024 C6.09727368,7.45024 5.93716842,7.27384 5.90158947,7.23604 Z M3.95295789,5.26064 C3.55885263,5.11924 3.43569474,4.87424 3.35222105,4.72024 C3.11411579,4.29464 2.79116842,3.67164 2.63516842,3.46724 L19.0781158,3.46724 C19.2341158,3.72344 19.4092737,3.99504 19.5912737,4.28064 L5.17085263,5.26064 C4.94643158,5.28724 4.28548421,5.34184 3.95295789,5.26064 Z M1.84558947,3.01084 C1.45695789,2.97584 1.37211579,2.93244 1.24622105,2.72384 C1.24622105,2.72384 0.728957895,1.83484 0.685168421,1.77604 C0.597589474,1.60944 0.577063158,1.48904 0.577063158,1.39944 C0.585273684,1.18804 0.728957895,1.02284 1.11074737,1.01724 L16.6395895,1.01724 C17.6891684,1.01724 18.3145368,2.11344 18.3145368,2.11344 C18.4486421,2.38084 18.6142211,2.67344 18.8030632,3.01084 L1.84558947,3.01084 Z M20.1167474,4.24564 C19.9347474,3.97264 19.7595895,3.71224 19.6076947,3.46724 L22.6442211,3.46724 L22.6442211,4.06644 L20.1167474,4.24564 Z M20.9569579,5.41324 C20.7735895,5.17104 20.5956947,4.93724 20.4314842,4.70484 L22.6442211,4.54944 L22.6442211,5.18364 L20.9569579,5.41324 Z M22.6442211,6.84964 L22.6442211,7.43204 C22.5019053,7.26264 22.3527474,7.10024 22.2049579,6.94064 C22.3842211,6.90564 22.5292737,6.87344 22.6442211,6.84964 Z M21.8587474,6.54584 C21.6589579,6.30224 21.4632737,6.07124 21.2771684,5.83744 L22.6442211,5.64564 L22.6442211,6.37644 L21.8587474,6.54584 Z M32.2546421,1.01724 C32.9785368,1.01724 33.5505368,1.23144 33.9651684,1.65564 C34.2703263,1.96084 34.4783263,2.36404 34.5836947,2.85964 C34.5836947,2.85964 34.6055895,2.94644 34.6398,3.01084 L19.3326421,3.01084 C19.0904316,2.61044 18.7045368,1.89644 18.7045368,1.89644 C18.6908526,1.86284 18.4363263,1.39384 17.9436947,1.01724 L32.2546421,1.01724 Z M54.4244316,4.06644 L54.4244316,3.46724 L57.4678,3.46724 C57.3118,3.71224 57.1448526,3.97264 56.9587474,4.24844 L54.4244316,4.06644 Z M54.4244316,5.18364 L54.4244316,4.54944 L56.6440105,4.70484 C56.4839053,4.93724 56.3046421,5.17104 56.1267474,5.41324 L54.4244316,5.18364 Z M54.8705368,6.94064 C54.7268526,7.10024 54.5763263,7.26264 54.4244316,7.43764 L54.4244316,6.84964 L54.8705368,6.94064 Z M54.4244316,6.37364 L54.4244316,5.64564 L55.7955895,5.83744 C55.6081158,6.07124 55.4179053,6.30224 55.2167474,6.54584 C54.8623263,6.47164 54.5941158,6.41284 54.4244316,6.37364 Z M42.4945368,2.85964 C42.6012737,2.36404 42.8106421,1.96084 43.1116947,1.65564 C43.5249579,1.23144 44.0955895,1.01724 44.8208526,1.01724 L59.1331684,1.01724 C58.6405368,1.39944 58.3860105,1.86284 58.3695895,1.89644 C58.2026421,2.21144 57.9919053,2.58664 57.7469579,3.01084 L42.4398,3.01084 C42.4671684,2.95064 42.4945368,2.85964 42.4945368,2.85964 Z M75.9756947,0.41664 L44.8208526,0.41664 C43.9423263,0.41664 43.2239053,0.69384 42.6998,1.23424 C42.3207474,1.62344 42.0593789,2.12324 41.9239053,2.72804 C41.9239053,2.75184 41.8732737,2.86524 41.6201158,2.86524 L35.4553789,2.86524 C35.1926421,2.86524 35.1543263,2.74624 35.1543263,2.73364 C35.0161158,2.12884 34.7506421,1.62344 34.3770632,1.23424 C33.8502211,0.69384 33.1345368,0.41664 32.2546421,0.41664 L1.09295789,0.41664 C0.8918,0.42504 0.403273684,0.46704 0.122747368,0.91924 C-0.000410526316,1.14464 -0.0989368421,1.52544 0.178852632,2.05604 C0.184326316,2.05604 0.746747368,3.02484 0.746747368,3.02484 C0.986221053,3.41264 1.24622105,3.55264 1.80727368,3.59184 C1.81958947,3.59184 2.07958947,3.61844 2.25885263,3.94324 L2.84316842,4.99044 C2.96632632,5.23404 3.24685263,5.78984 4.23758947,5.93124 C4.25264211,5.93124 4.53864211,5.96624 4.70011579,6.27284 L5.41716842,7.55804 C5.62243158,7.98364 5.91801053,8.13204 6.45032632,8.30564 L19.4859053,12.21584 C19.9238,12.35584 20.1099053,12.85984 20.1099053,12.85984 C20.4164316,13.68724 20.8255895,14.35784 22.8645368,14.98924 L33.5190632,17.96564 C33.6518,18.00624 34.8765368,18.38844 35.7947474,17.48124 L38.2880105,15.04384 C38.2880105,15.04384 38.3974842,14.93464 38.5356947,14.93464 C38.6739053,14.93464 38.7847474,15.04384 38.7847474,15.04384 C38.7915895,15.04664 41.2807474,17.48124 41.2807474,17.48124 C42.2071684,18.38844 43.4250632,18.00624 43.5605368,17.96564 C43.5578,17.96564 54.2136947,14.98924 54.2246421,14.98924 C56.2485368,14.35784 56.6795895,13.67324 56.9655895,12.85984 C56.9806421,12.82484 57.1516947,12.35584 57.5895895,12.21584 C57.5895895,12.21584 59.5614842,11.62224 70.6169579,8.30564 C71.1588526,8.13204 71.4503263,7.98364 71.6583263,7.55804 L72.3671684,6.28684 C72.5313789,5.96624 72.8160105,5.93124 72.8269579,5.93124 C73.8218,5.79544 74.1105368,5.23964 74.2391684,4.99044 C74.2336947,4.99044 74.8180105,3.94324 74.8180105,3.94324 C74.9959053,3.61844 75.2586421,3.59184 75.2723263,3.59184 C75.8292737,3.55684 76.0961158,3.41264 76.3191684,3.02484 C76.3191684,3.03044 76.9007474,2.05604 76.9007474,2.05604 C77.0156947,1.82644 77.0731684,1.60944 77.0731684,1.39944 C77.0731684,1.23144 77.0307474,1.06764 76.9541158,0.92624 C76.6749579,0.46704 76.1905368,0.42924 75.9756947,0.41664 Z" id="Fill-24" fill="#231F20" mask="url(#mask-4)"></path>
                    </g>
                    <path d="M24.5706842,6.7977 C24.5980526,6.7417 24.9428947,5.8989 24.9866842,5.8009 C25.0236316,5.8989 25.3794211,6.7417 25.4026842,6.7977 L24.5706842,6.7977 Z M25.0167895,5.1555 L23.7017368,8.1809 L24.0657368,8.1809 L24.0657368,8.1599 C24.1697368,7.7987 24.3106842,7.4431 24.4379474,7.1043 C24.4379474,7.1043 24.4612105,7.0567 24.4707895,7.0287 L25.4916316,7.0287 C25.6257368,7.3493 25.7762632,7.7231 25.9199474,8.1683 L25.9308947,8.1809 L26.4235263,8.1809 L25.1508947,5.1555 L25.0167895,5.1555 Z" id="Fill-27" fill="#231F20"></path>
                    <path d="M27.6162421,6.46674 C27.3083474,6.33794 27.0155053,6.22454 27.0155053,5.86194 C27.0155053,5.58754 27.2221368,5.38874 27.5081368,5.38874 C27.7407684,5.38874 27.9186632,5.51894 27.9966632,5.74294 L28.0076105,5.76254 L28.0869789,5.76254 L28.2074,5.38734 L28.1937158,5.37194 C28.0308737,5.21234 27.7681368,5.15494 27.5875053,5.15494 C27.0045579,5.15494 26.6364526,5.48814 26.6364526,5.99354 C26.6364526,6.51994 27.0155053,6.66834 27.3507684,6.80974 C27.6545579,6.92874 27.9364526,7.03934 27.9364526,7.40334 C27.9364526,7.73094 27.6901368,7.99694 27.3822421,7.99694 C27.1058211,7.99694 26.9101368,7.86254 26.7349789,7.56434 L26.7308737,7.55314 L26.6542421,7.55314 L26.5598211,7.96754 L26.5748737,7.97454 C26.7308737,8.14814 27.0852947,8.23074 27.2700316,8.23074 C27.8885579,8.23074 28.3250842,7.82334 28.3250842,7.23394 C28.3250842,6.74814 27.9624526,6.60534 27.6162421,6.46674" id="Fill-29" fill="#231F20"></path>
                    <path d="M30.6737053,5.53294 L30.6737053,5.22214 L30.6518105,5.22214 L28.4787579,5.22214 L28.4787579,5.53294 L28.5102316,5.52734 C28.7592842,5.49794 29.0042316,5.47974 29.3956,5.47974 L29.3956,8.19014 L29.8129684,8.19014 L29.8129684,5.47974 C30.1071789,5.47974 30.3836,5.49794 30.6518105,5.52734 L30.6737053,5.53294 Z" id="Fill-31" fill="#231F20"></path>
                    <path d="M33.2902632,6.7347 C33.2902632,7.0105 33.1835263,7.4207 32.9207895,7.7007 C32.7100526,7.9247 32.4582632,8.0395 32.1476316,8.0395 C31.4771053,8.0395 31.0378421,7.5397 31.0378421,6.7487 C31.0378421,5.8891 31.4839474,5.3459 32.1873158,5.3459 C32.5239474,5.3459 32.8427895,5.4971 33.0343684,5.7533 C33.2437368,6.0333 33.2902632,6.3245 33.2902632,6.6675 L33.2902632,6.7347 Z M32.1476316,5.1555 C31.2225789,5.1555 30.5807895,5.7953 30.5807895,6.7025 C30.5807895,7.6153 31.2088947,8.2257 32.1394211,8.2257 C33.1014211,8.2257 33.7527895,7.5873 33.7527895,6.6409 C33.7527895,5.6161 32.9426842,5.1555 32.1476316,5.1555 Z" id="Fill-33" fill="#231F20"></path>
                    <path d="M36.3786526,5.2227 L36.3786526,7.4095 C36.3622316,7.3955 34.3985474,5.2227 34.3985474,5.2227 L34.2069684,5.2227 L34.2069684,8.1809 L34.4833895,8.1809 L34.4833895,5.8891 L34.4902316,5.8891 C34.5066526,5.9087 36.2801263,7.9107 36.2801263,7.9107 L36.5031789,8.1753 L36.5127579,8.1809 L36.6632842,8.1809 L36.6632842,5.2227 L36.6372842,5.2227 L36.3786526,5.2227 Z" id="Fill-35" fill="#231F20"></path>
                    <path d="M41.3324737,5.2227 L41.3160526,5.2227 L41.2120526,5.2227 L40.5141579,6.5219 C40.5141579,6.5219 40.0625789,7.3423 40.027,7.4207 C39.5932105,6.6801 39.2086842,5.9087 38.8775263,5.2353 L38.8693158,5.2227 L38.7256316,5.2227 L38.7160526,5.2493 C38.675,5.6763 38.4314211,7.4669 38.3205789,8.1487 L38.3178421,8.1809 L38.6613158,8.1809 L38.6613158,8.1599 C38.6613158,7.7371 38.7393158,7.1141 38.8159474,6.4533 C38.8159474,6.4533 38.8460526,6.1593 38.8583684,6.0445 C38.909,6.1439 39.4577368,7.2009 39.6547895,7.6433 L39.8956316,8.1291 L39.9736316,8.1291 L39.9791053,8.1137 C40.2199474,7.5481 40.5647895,6.8957 41.0232105,6.0445 C41.0943684,6.5583 41.1819474,7.5747 41.2271053,8.1599 L41.2353158,8.1809 L41.6732105,8.1809 L41.6732105,8.1487 C41.5746842,7.4319 41.4665789,6.4813 41.3324737,5.2493 L41.3324737,5.2227 Z" id="Fill-37" fill="#231F20"></path>
                    <path d="M42.7129368,6.7977 C42.7403053,6.7417 43.0851474,5.9087 43.1262,5.8009 C43.1686211,5.8989 43.5271474,6.7417 43.5463053,6.7977 L42.7129368,6.7977 Z M43.2767263,5.1555 L43.1631474,5.1555 L41.8412526,8.1809 L42.1984105,8.1809 L42.2079895,8.1599 C42.3119895,7.7917 42.4515684,7.4319 42.5843053,7.0959 C42.5843053,7.0959 42.6075684,7.0567 42.6116737,7.0287 L43.6338842,7.0287 C43.7707263,7.3563 43.9171474,7.7371 44.0663053,8.1683 L44.0731474,8.1809 L44.5671474,8.1809 L43.2972526,5.1555 L43.2767263,5.1555 Z" id="Fill-39" fill="#231F20"></path>
                    <path d="M45.2293263,6.54472 L45.2293263,5.43032 C45.3962737,5.42192 45.6562737,5.40372 45.8081684,5.43592 C46.0996421,5.48072 46.2474316,5.65572 46.2474316,5.94412 C46.2474316,6.24372 46.0531158,6.46352 45.7274316,6.52652 C45.5509053,6.56572 45.3346947,6.55452 45.2293263,6.54472 M46.6675368,5.89372 C46.6675368,5.44012 46.3528,5.22312 45.7123789,5.22312 L44.8324842,5.22312 L44.8133263,5.22312 L44.8133263,8.17992 L45.2293263,8.17992 L45.2293263,6.76032 L45.3456421,6.76032 C45.3579579,6.77712 45.6795368,7.15792 45.6795368,7.15792 C45.6685895,7.15792 46.1612211,7.80192 46.1612211,7.80192 L46.4308,8.17992 L46.4458526,8.17992 L46.9740632,8.17992 C46.9740632,8.17992 45.8848,6.77712 45.8300632,6.71272 C46.3528,6.61052 46.6675368,6.30252 46.6675368,5.89372" id="Fill-41" fill="#231F20"></path>
                    <path d="M46.9023579,5.2227 L46.9023579,5.5321 L46.9324632,5.5279 C47.1760421,5.4971 47.4155158,5.4775 47.8109895,5.4775 L47.8109895,8.1907 L48.2283579,8.1907 L48.2283579,5.4775 C48.5280421,5.4775 48.8072,5.4929 49.0644632,5.5279 L49.0959368,5.5321 L49.0959368,5.2227 L49.0754105,5.2227 L46.9023579,5.2227 Z" id="Fill-43" fill="#231F20"></path>
                    <path d="M49.6405684,8.18118 L49.6405684,5.22858" id="Stroke-45" stroke="#020303" stroke-width="0.5"></path>
                    <path d="M52.6300211,7.4102 L52.6177053,7.4102 C52.6053895,7.3948 50.6499158,5.2234 50.6499158,5.2234 L50.4432842,5.2234 L50.4432842,8.183 L50.7320211,8.183 L50.7320211,5.8884 L50.7402316,5.8884 C50.7539158,5.908 52.5287579,7.91 52.5287579,7.91 L52.7518105,8.176 L52.9146526,8.183 L52.9146526,5.2234 L52.6300211,5.2234 L52.6300211,7.4102 Z" id="Fill-47" fill="#231F20"></path>
                </g>
            </g>
        </g>
    </g>
</svg>