<?xml version="1.0" encoding="UTF-8"?>
<svg width="122px" height="80px" viewBox="0 0 122 80" version="1.1" xmlns="http://www.w3.org/2000/svg" xmlns:xlink="http://www.w3.org/1999/xlink">
    <!-- Generator: Sketch 49.2 (51160) - http://www.bohemiancoding.com/sketch -->
    <title>Rectangle 3 Copy 19</title>
    <desc>Created with Sketch.</desc>
    <defs>
        <polygon id="path-1" points="0 48.8437002 77.9338481 48.8437002 77.9338481 0.172448166 0 0.172448166"></polygon>
    </defs>
    <g id="Ilustraciones" stroke="none" stroke-width="1" fill="none" fill-rule="evenodd">
        <g id="AUDI" transform="translate(-39.000000, -60.000000)">
            <g id="Group" transform="translate(39.000000, 60.000000)">
                <rect id="Rectangle-3-Copy-19" x="0" y="0" width="122" height="80"></rect>
                <g id="Page-1" transform="translate(22.000000, 15.000000)">
                    <polygon id="Fill-1" fill="#FEFEFE" points="61.5755696 48.7072867 65.6088608 48.7072867 65.6088608 38.5806918 61.5755696 38.5806918"></polygon>
                    <g id="Group-14" transform="translate(0.000000, 0.326106)">
                        <path d="M43.0103354,38.2555323 L43.0103354,44.1641248 C43.0103354,45.6384071 42.5260443,46.4802133 41.8669937,47.1196671 C40.5928291,48.3801336 38.8003101,48.7250299 36.4237785,48.7250299 C34.4648924,48.7250299 32.3845633,48.3532197 31.1627278,47.1450857 C30.4567785,46.4832037 30.0208671,45.5108154 30.0208671,44.1905403 L30.0208671,38.2555323 L33.9756646,38.2555323 L33.9756646,43.6054127 C33.9756646,45.5945474 34.8232975,46.2923146 36.5546013,46.2923146 C38.5549557,46.2923146 39.1073734,45.2446671 39.1073734,43.7449661 L39.1073734,38.2555323 L43.0103354,38.2555323 Z" id="Fill-2" fill="#FEFEFE"></path>
                        <path d="M58.2755772,38.8181818 C59.7333873,40.6842105 60.1880582,42.0064793 60.1880582,43.1333732 C60.1880582,44.7367424 59.5497418,45.9478668 58.602881,46.8255582 C56.9875899,48.3013357 54.120843,48.7249801 52.2666152,48.7249801 C51.0057797,48.7249801 47.6251215,48.5370813 45.7778051,46.6720494 C44.954362,45.8142943 44.3190076,44.7063397 44.3190076,43.2654506 C44.3190076,41.3859649 45.3359696,39.9685008 46.8767165,39.1132376 C48.3226785,38.3048246 49.9522861,37.9644139 51.5596785,37.9644139 C52.2261342,37.9644139 53.0683367,38.1204147 53.7264,38.5036882 L53.8577165,38.307815 C53.8577165,38.307815 53.7091215,38.1901914 53.5027671,38.0072767 C53.2949316,37.824362 53.0303241,37.5771531 52.7987924,37.3169856 L50.1719696,34.342504 L54.7754506,34.342504 L58.2755772,38.8181818 Z M54.6772101,45.7235845 C53.9194253,46.1337719 53.0342734,46.2394338 52.2666152,46.2394338 C51.4935266,46.2394338 50.5841848,46.0779506 49.8313367,45.6981659 C48.9136025,45.2351475 48.1948177,44.3280502 48.1948177,43.3182815 C48.1948177,42.11563 49.1061342,41.1846093 50.1497544,40.7250797 C50.798438,40.4245415 51.5754759,40.3183812 52.1881215,40.3183812 C52.7711468,40.3183812 53.6266785,40.398126 54.3010329,40.6707536 C55.5060835,41.1836124 56.337919,42.1704545 56.337919,43.2654506 C56.337919,44.4077951 55.5934633,45.261563 54.6772101,45.7235845 Z" id="Fill-4" fill="#FEFEFE"></path>
                        <path d="M16.6997013,43.4985048 L19.7436759,38.3848684 L22.8118405,43.497508 L16.6997013,43.4985048 Z M21.1471823,34.3423046 L30.4173342,48.3813796 L25.790157,48.3813796 L24.3407392,46.0284091 L15.1791949,46.0284091 L13.785562,48.3813796 L9.30500506,48.3813796 L17.5058658,35.9690989 L16.1729544,34.3423046 L21.1471823,34.3423046 Z" id="Fill-6" fill="#FEFEFE"></path>
                        <mask id="mask-2" fill="white">
                            <use xlink:href="#path-1"></use>
                        </mask>
                        <g id="Clip-9"></g>
                        <polygon id="Fill-8" fill="#231F20" mask="url(#mask-2)" points="61.4575823 48.500299 65.7258608 48.500299 65.7258608 38.1369617 61.4575823 38.1369617"></polygon>
                        <path d="M43.1279772,44.1643242 L43.1279772,38.1366128 L38.9905215,38.1366128 L38.9905215,42.762809 C38.9905215,44.0850778 38.9372051,44.4548943 38.8592051,44.7987939 C38.5709013,45.7507476 37.5756608,46.1733951 36.5547494,46.1733951 C35.1403823,46.1733951 34.4862684,45.6181719 34.2241291,44.7454645 C34.1456354,44.4548943 34.1194709,44.1379087 34.0933063,43.820923 C34.0671418,43.4770235 34.0933063,43.1067085 34.0933063,42.7099781 L34.0933063,38.1366128 L29.9035215,38.1366128 L29.9035215,44.1907396 C29.9035215,45.5389254 30.3488127,46.5432117 31.0819139,47.2305124 C32.3388,48.4735347 34.4596101,48.8438497 36.4234329,48.8438497 C38.8068759,48.8438497 40.6398759,48.4999502 41.9490911,47.2045953 C42.630357,46.5432117 43.1279772,45.6710028 43.1279772,44.1643242" id="Fill-10" fill="#231F20" mask="url(#mask-2)"></path>
                        <path d="M30.6370177,48.5000498 L21.2098785,34.2237341 L15.9201949,34.2237341 L17.3814608,35.9686503 L9.08581519,48.5000498 L13.8517139,48.5000498 L15.2734861,46.1470793 L24.2622456,46.1470793 L25.713638,48.5000498 L30.6370177,48.5000498 Z M22.6005494,43.3609948 L16.9035873,43.3609948 L19.7436759,38.6321272 L22.6005494,43.3609948 Z" id="Fill-11" fill="#231F20" mask="url(#mask-2)"></path>
                        <path d="M56.2208696,43.2653509 C56.2208696,44.349382 55.5134392,45.16876 54.6233506,45.6183214 C53.8902494,46.0150518 53.0258316,46.1207137 52.2665658,46.1207137 C51.5068063,46.1207137 50.6167177,45.9622209 49.8836165,45.5919059 C48.9930342,45.1428429 48.312262,44.2701356 48.312262,43.3181818 C48.312262,42.1813198 49.1761861,41.2826954 50.1980848,40.833134 C50.8260342,40.5420654 51.5857937,40.4364035 52.1880722,40.4364035 C52.7641861,40.4364035 53.6019456,40.5156499 54.2565532,40.7808014 C55.4349456,41.2826954 56.2208696,42.2341507 56.2208696,43.2653509 M60.3055025,43.1332735 C60.3055025,41.969996 59.8340468,40.6218102 58.368338,38.7448166 L54.8326671,34.2237839 L49.909781,34.2237839 L52.711857,37.3966308 C53.1833127,37.9249402 53.7850975,38.4004187 53.7850975,38.4004187 C53.104819,38.0041866 52.2404013,37.8456938 51.5596291,37.8456938 C49.9364392,37.8456938 48.2865911,38.1890949 46.8198949,39.0089713 C45.2485405,39.8811802 44.2009709,41.3355263 44.2009709,43.2653509 C44.2009709,44.745614 44.8560722,45.8824761 45.6938316,46.7551834 C47.5791608,48.6585925 51.0091861,48.8435008 52.2665658,48.8435008 C54.1257304,48.8435008 57.0329582,48.4203549 58.681819,46.9131778 C59.6508949,46.0150518 60.3055025,44.7720295 60.3055025,43.1332735" id="Fill-12" fill="#231F20" mask="url(#mask-2)"></path>
                        <path d="M22.0651139,23.2256778 L22.0651139,23.224681 L22.0651139,23.2256778 Z M18.0772405,8.32685407 L18.0673671,8.32286683 L18.0639114,8.33183812 L18.0624304,8.33582536 L18.0160253,8.45893142 C17.8684177,8.80083732 17.7371013,9.15121611 17.6171392,9.50707735 L17.5406203,9.70843301 L17.548519,9.71092504 L17.4897722,9.89782695 L17.4823671,9.89583333 L17.4769367,9.91676635 L17.4334937,10.0927033 L17.4325063,10.0976874 C17.3308101,10.4505582 17.2404684,10.8084131 17.1669114,11.1722488 L17.1264304,11.3352273 L17.1264304,11.3357257 L17.1343291,11.3377193 L17.0987848,11.5301037 L17.0913797,11.5291069 L17.0528734,11.8440989 C17.0420127,11.916866 17.0257215,11.9876396 17.0158481,12.0609051 C16.9936329,12.2273724 16.9817848,12.3968301 16.965,12.5647927 L16.9447595,12.7332536 L16.9166203,12.9640152 L16.9121772,13.0013955 L16.9121772,13.0018939 L16.9200759,13.0028907 L16.9082278,13.1982656 L16.9003291,13.1982656 L16.9003291,13.227173 L16.9003291,13.4948166 L16.9003291,13.5237241 L16.9003291,13.6453349 C16.8983544,13.7440191 16.8904557,13.8412081 16.8904557,13.9398923 C16.8904557,14.0864234 16.8958861,14.2314593 16.9003291,14.3769936 L16.9003291,14.3854665 L16.9003291,14.4138756 L16.9003291,14.6820175 L16.9082278,14.6820175 L16.9195823,14.8773923 L16.9121772,14.8783892 L16.9427848,15.1290869 C16.9689494,15.4375997 17.0074557,15.7426236 17.0538608,16.0451555 L17.086443,16.3132974 L17.0913797,16.3511762 L17.0992785,16.3501794 L17.1343291,16.5425638 L17.1264304,16.5445574 L17.1313671,16.5629984 L17.1550633,16.6611842 L17.1994937,16.8391148 C17.2621899,17.132177 17.3332785,17.4222488 17.4142405,17.7083333 L17.4157215,17.7148126 L17.4823671,17.9839514 L17.4897722,17.9824561 L17.5475316,18.1693581 L17.5406203,18.1718501 L17.5450633,18.182815 L17.6378734,18.4270335 L17.6502152,18.4599282 L17.6660127,18.5012959 C17.6956329,18.5870215 17.7237722,18.673744 17.7553671,18.7589713 L17.7637595,18.7589713 L17.7637595,18.7594697 L17.7553671,18.7594697 C17.7859747,18.8427033 17.8249747,18.9219498 17.8570633,19.0041866 L18.0239241,19.4432815 L18.0673671,19.5569179 L18.0747722,19.5544258 L18.1463544,19.7139155 L18.1384557,19.7179027 L18.1483291,19.7363437 L18.1478354,19.7363437 L18.5363544,20.4734848 L18.5422785,20.4844498 C18.5906582,20.5746611 18.6350886,20.666866 18.685443,20.7560805 L18.7175316,20.816886 L18.8379873,21.0461523 L18.8448987,21.0426635 L18.9461013,21.2096292 L18.9396835,21.2141148 L19.1583797,21.5296053 C19.2368734,21.6492225 19.3207975,21.7643541 19.4027468,21.8814793 L19.4456962,21.9432815 L19.5,22.0220295 L19.614038,22.1865032 L19.6145316,22.1870016 L19.7828734,22.4292265 L19.7897848,22.4247408 L19.8366835,22.4820574 C19.6614304,22.6111443 19.4807468,22.7347488 19.2966076,22.8533692 C19.2378608,22.8917464 19.1766456,22.9261364 19.1169114,22.9630183 C18.9895443,23.0412679 18.8621772,23.1195175 18.7313544,23.1927831 C18.6360759,23.2466108 18.5383291,23.2964514 18.4410759,23.3472887 C18.3546835,23.3926435 18.2682911,23.4384968 18.1804177,23.4813596 C18.0821772,23.5292065 17.981962,23.5730662 17.8822405,23.6179226 C17.0316456,23.999701 16.1213165,24.2738238 15.172481,24.4183612 L15.1705063,24.4019139 L14.9942658,24.4208533 L14.9967342,24.4472687 C14.9952532,24.4477671 14.9932785,24.4482656 14.9908101,24.4482656 L14.9883418,24.4218501 L14.8116076,24.4402911 L14.8145696,24.4672049 C14.8125949,24.4677033 14.8101266,24.4677033 14.8086456,24.4682018 L14.8056835,24.4412879 L14.629443,24.4597289 L14.6319114,24.4851475 C14.6299367,24.4856459 14.627962,24.4856459 14.6254937,24.4861443 L14.6230253,24.4602273 L14.4467848,24.4791667 L14.4492532,24.5035885 C14.4472785,24.5040869 14.4448101,24.5040869 14.4428354,24.5040869 L14.4403671,24.4796651 L14.2641266,24.4981061 L14.2661013,24.5195375 C14.2029114,24.5235247 14.1382405,24.5230263 14.0740633,24.5255183 L13.9052278,24.5290072 L13.9052278,24.5314992 C13.9017722,24.5314992 13.8983165,24.5314992 13.8948608,24.5319976 L13.8948608,24.5290072 L13.7215823,24.5319976 L13.7215823,24.5374801 C13.7181266,24.5374801 13.7151646,24.5379785 13.7112152,24.5379785 L13.7112152,24.5319976 L13.5379367,24.5354864 L13.5379367,24.5379785 C13.534481,24.5379785 13.531519,24.5379785 13.5280633,24.5379785 L13.5280633,24.5354864 L13.4801772,24.5359848 C13.3009747,24.5339912 13.1227595,24.5305024 12.9460253,24.5190391 L12.9188734,24.5170455 C12.445443,24.4856459 11.9813924,24.4213517 11.5277089,24.3286483 L11.5277089,24.3281499 L11.3722025,24.2892743 L11.3712152,24.2927632 C11.3638101,24.2907695 11.3559114,24.2892743 11.3485063,24.2872807 L11.3494937,24.2832935 L11.1939873,24.2444179 L11.1925063,24.2513955 L11.1693038,24.2464115 L11.1712785,24.238437 L11.0157722,24.1995614 L11.0137975,24.2095295 L10.9905949,24.2035486 L10.9930633,24.1935805 L10.8380506,24.1547049 L10.8360759,24.1616826 C10.8286709,24.159689 10.8207722,24.157197 10.8133671,24.1547049 L10.8148481,24.1487241 L10.6776076,24.1143341 L10.6391013,24.1028708 L10.6460127,24.0819378 L10.4934684,24.0291069 L10.4840886,24.0570175 C10.4771772,24.0545255 10.4697722,24.0525319 10.4628608,24.0505383 L10.4727342,24.0216308 L10.3196962,23.9687998 L10.3088354,24.0006978 L10.2881013,23.9937201 L10.298962,23.9613238 L10.1464177,23.9084928 L10.135557,23.9393939 C10.1286456,23.9369019 10.1217342,23.9344099 10.1148228,23.9319179 L10.1256835,23.9010167 L9.97264557,23.8481858 L9.96326582,23.8760965 C9.95635443,23.8736045 9.94944304,23.8711124 9.94253165,23.8686204 L9.95191139,23.8407097 L9.79936709,23.7878788 L9.79097468,23.8123006 C9.59350633,23.7345494 9.399,23.650319 9.2074557,23.5606061 L9.10674684,23.5157496 C8.93248101,23.4320175 8.76216456,23.3423046 8.59332911,23.2496013 C8.53951899,23.2201954 8.48718987,23.1892943 8.43387342,23.1588915 C8.27293671,23.0661882 8.11397468,22.969996 7.95846835,22.8693182 C7.88639241,22.8224681 7.81629114,22.7736244 7.74520253,22.7257775 C7.61437975,22.6360646 7.48602532,22.5438596 7.35964557,22.4491627 C7.29793671,22.402811 7.23573418,22.3574561 7.17501266,22.3096093 C6.99679747,22.1695574 6.82203797,22.0250199 6.65320253,21.8740032 C6.62259494,21.8465909 6.59396203,21.8176834 6.56434177,21.7902711 C6.42068354,21.6586922 6.28146835,21.5236244 6.14570886,21.3845694 C6.09436709,21.3322368 6.04401266,21.2789075 5.9941519,21.2255781 C5.87172152,21.094996 5.75324051,20.9614234 5.63722785,20.8248604 C5.59970886,20.780004 5.56070886,20.7366427 5.52318987,20.6912879 C5.37656962,20.511862 5.23537975,20.3279506 5.10060759,20.139055 C5.07049367,20.097189 5.04235443,20.0533293 5.01322785,20.0109649 C4.90659494,19.8574561 4.80440506,19.7014553 4.70616456,19.5419657 C4.66913924,19.4821571 4.63211392,19.4218501 4.59656962,19.3605463 C4.49635443,19.1915869 4.40107595,19.0191388 4.31024051,18.8441986 C4.28950633,18.8038278 4.26729114,18.7649522 4.24705063,18.7245813 C4.19965823,18.6308812 4.15670886,18.5341906 4.11227848,18.4384968 C4.07327848,18.3547648 4.0323038,18.2725279 3.99577215,18.1873006 C3.94196203,18.0631978 3.89308861,17.9366029 3.84421519,17.810008 C3.82101266,17.7506978 3.79534177,17.6933812 3.77362025,17.6335726 C3.70450633,17.4456738 3.64082278,17.2557815 3.58256962,17.0633971 C3.56726582,17.0125598 3.55492405,16.9607257 3.54011392,16.90939 C3.50851899,16.7992424 3.47791139,16.6885965 3.44977215,16.5769537 L3.4048481,16.3202751 L3.35597468,16.0411683 L3.30858228,15.7685407 L3.26217722,15.5023923 L3.2133038,15.2232855 L3.17775949,15.0204346 C3.17331646,14.9775718 3.16986076,14.9347089 3.16640506,14.8918461 L3.16196203,14.6451356 L3.15751899,14.4009171 L3.15801266,14.4009171 L3.15307595,14.1243022 L3.14764557,13.8152911 L3.14320253,13.5386762 L3.14122785,13.4479665 C3.16294937,12.9784689 3.20392405,12.5139553 3.28389873,12.0624003 L3.28093671,12.0624003 L3.28093671,12.0609051 L3.28389873,12.0609051 C3.3386962,11.7508971 3.40682278,11.4453748 3.48729114,11.1458333 L3.48827848,11.1438397 C3.64427848,10.5636962 3.85063291,10.0044856 4.09746835,9.46919856 L4.17053165,9.31718501 C4.28308861,9.08293461 4.40156962,8.85117624 4.53041772,8.62689394 C4.70813924,8.31788278 4.90313924,8.02133174 5.10949367,7.73375199 C5.16675949,7.65301037 5.22896203,7.57725279 5.2886962,7.49850478 C5.44568354,7.29166667 5.60908861,7.09080941 5.78039241,6.89643142 C5.85493671,6.81170255 5.93046835,6.72797049 6.00748101,6.64573365 C6.19162025,6.45035885 6.38316456,6.26295853 6.58162025,6.08253589 C6.6453038,6.02372408 6.70602532,5.96242026 6.77168354,5.90560207 C7.03727848,5.67434211 7.31373418,5.45554226 7.6015443,5.25219298 C7.8034557,5.10915072 8.01178481,4.97458134 8.22406329,4.84649123 L8.25911392,4.82505981 L8.33316456,4.77970494 L8.3613038,4.76275917 C8.58197468,4.63367225 8.80807595,4.51305821 9.03862025,4.40041866 L9.13291139,4.35606061 L9.20943038,4.31967703 C9.43059494,4.21650718 9.65521519,4.11931818 9.88427848,4.03110048 C10.0491646,3.96780303 10.219481,3.91547049 10.3878228,3.86064593 C10.5161772,3.8187799 10.6420633,3.77192982 10.7718987,3.73504785 C10.9515949,3.68421053 11.1362278,3.64583333 11.3198734,3.60446571 C11.4447722,3.57605662 11.5672025,3.54166667 11.6935823,3.51824163 C11.899443,3.47986443 12.1097468,3.45594099 12.319557,3.42952552 C12.4281646,3.41606858 12.5347975,3.39513557 12.6443924,3.38516746 C12.9657722,3.35526316 13.2906076,3.33931419 13.6198861,3.33931419 C15.6439367,3.33931419 17.5559241,3.93640351 19.1657848,4.94218501 C19.3958354,5.08622408 19.6194684,5.23773923 19.8366835,5.39772727 C19.1341899,6.29037081 18.5442532,7.27472089 18.0772405,8.32685407 Z M1.81177215,12.0609051 L1.83053165,12.0609051 L1.83053165,12.0614035 L1.81177215,12.0614035 L1.81177215,12.0609051 Z M21.5398481,19.4442783 C21.4840633,19.3520734 21.4342025,19.2558812 21.3813797,19.1616826 C21.2698101,18.9643142 21.1612025,18.7654506 21.0624684,18.5606061 C21.0338354,18.5012959 21.0052025,18.4414872 20.9780506,18.3816786 C20.8551266,18.1140351 20.7420759,17.8414075 20.6413671,17.5623006 C20.6221139,17.5089713 20.6053291,17.4546451 20.5870633,17.4008174 C20.4937595,17.1286882 20.4098354,16.8520734 20.3387468,16.5694777 L20.2938228,16.3132974 L20.2474177,16.0476475 L20.2000253,15.7750199 L20.1526329,15.5023923 L20.1037595,15.2232855 L20.0682152,15.0204346 C20.0642658,14.9785686 20.0608101,14.9367026 20.0568608,14.8943381 L20.0524177,14.6451356 L20.0479747,14.4009171 L20.0484684,14.4009171 L20.0435316,14.1243022 L20.0381013,13.8152911 L20.0336582,13.5386762 L20.0316835,13.4474681 C20.0529114,12.9769737 20.0943797,12.5124601 20.1738608,12.0609051 L20.1743544,12.0609051 C20.238038,11.701555 20.3224557,11.349681 20.4206962,11.0037879 L20.4700633,10.8408094 L20.5174557,10.6858054 C20.671481,10.2023525 20.8580886,9.73435008 21.0767848,9.28429027 L21.1483671,9.13576555 C21.4134684,8.61144338 21.720038,8.11154306 22.0651139,7.64154705 C22.2897342,7.94756778 22.4975696,8.26654705 22.6886203,8.59649123 L22.7463797,8.69766746 C22.9201519,9.0041866 23.0786203,9.32017544 23.2212911,9.64513557 L23.2415316,9.69348086 L23.2607848,9.73883573 L23.3131139,9.8629386 C23.440481,10.1714514 23.5555063,10.485945 23.6542405,10.8084131 L23.7154557,11.0237241 C23.8107342,11.3626396 23.8936709,11.7070375 23.9558734,12.0594099 C24.0639873,12.6689593 24.1202658,13.2974482 24.1202658,13.9398923 C24.1202658,15.4017145 23.8250506,16.7902711 23.2953418,18.0562201 C23.248443,18.1688596 23.1990759,18.2810008 23.1477342,18.3916467 C23.1097215,18.474382 23.0712152,18.5571172 23.0312278,18.6388557 C22.9897595,18.7230861 22.9453291,18.8063198 22.9013924,18.8895534 C22.8130253,19.0575159 22.7207089,19.2229864 22.6239494,19.3859649 C22.5834684,19.4542464 22.543481,19.5230263 22.501519,19.590311 C22.3627975,19.8116029 22.2191392,20.0289075 22.0651139,20.2382376 C21.877519,19.9825558 21.7042405,19.7169059 21.5398481,19.4442783 Z M38.4303038,19.4452751 C38.374519,19.3525718 38.3246582,19.2553828 38.2713418,19.1611842 C38.1602658,18.9638158 38.0511646,18.7649522 37.9524304,18.5601077 C37.9242911,18.5007974 37.8961519,18.4414872 37.8685063,18.3816786 C37.7455823,18.1140351 37.6325316,17.8414075 37.5318228,17.562799 C37.5125696,17.5084729 37.4957848,17.4536483 37.477519,17.3998206 C37.3842152,17.1276914 37.3002911,16.851575 37.2292025,16.5694777 L37.1842785,16.3132974 L37.1373797,16.0411683 L37.1368861,16.0411683 L37.0899873,15.7750199 L37.090481,15.7750199 L37.0416076,15.4959131 L36.9947089,15.2232855 L36.9942152,15.2232855 L36.9591646,15.0249203 C36.9547215,14.9795654 36.9512658,14.9342105 36.9468228,14.8888557 L36.9428734,14.6451356 L36.9379367,14.3685207 L36.933,14.0914075 L36.9290506,13.8152911 L36.928557,13.8152911 L36.9241139,13.5386762 L36.9236203,13.5386762 L36.9221392,13.4504585 C36.9433671,12.9794657 36.9843418,12.5134569 37.0648101,12.0609051 C37.128,11.7020534 37.2124177,11.3506778 37.3106582,11.0057815 L37.360519,10.8408094 L37.3610127,10.8408094 L37.4084051,10.6833134 C37.559962,10.2073365 37.7441013,9.74681021 37.9588481,9.30322967 L38.0427722,9.12878788 C38.3068861,8.60695774 38.6119747,8.10954944 38.9555696,7.64154705 L38.956557,7.64254386 C39.1787089,7.94507576 39.3835823,8.26056619 39.5731519,8.58652313 L39.6432532,8.70913078 C39.8135696,9.01066587 39.9685823,9.32117225 40.1092785,9.63965311 L40.1319873,9.69348086 L40.1665443,9.7757177 L40.2080127,9.87390351 C40.3329114,10.1769338 40.445962,10.4869418 40.5432152,10.803429 L40.5466709,10.8163876 L40.5639494,10.8781898 L40.6128228,11.0496411 C40.7051392,11.3800837 40.7861013,11.7160088 40.8463291,12.0594099 C40.954443,12.6689593 41.0102278,13.2974482 41.0102278,13.9398923 C41.0102278,15.4022129 40.7150127,16.7912679 40.1853038,18.0572169 C40.1384051,18.1693581 40.0895316,18.280004 40.0391772,18.3896531 C40.0001772,18.4738836 39.9616709,18.5576156 39.9206962,18.6403509 C39.8802152,18.7235845 39.8362785,18.8048246 39.7933291,18.8870614 C39.7039747,19.0575159 39.6096835,19.2254785 39.511443,19.390949 C39.472443,19.4567384 39.4339367,19.5225279 39.3934557,19.5873206 C39.2547342,19.8096093 39.1100886,20.0279107 38.9555696,20.2382376 C38.7684684,19.9830542 38.5946962,19.7169059 38.4303038,19.4452751 Z M55.3207595,19.4442783 C55.264481,19.351575 55.2151139,19.2553828 55.1617975,19.1606858 C55.0512152,18.9643142 54.9421139,18.765949 54.8438734,18.5616029 C54.8152405,18.5017943 54.7866076,18.4414872 54.7584684,18.3806818 C54.636038,18.1135367 54.5224937,17.8404107 54.4217848,17.5613038 C54.4030253,17.5089713 54.3867342,17.4556419 54.368962,17.4033094 C54.2751646,17.1306818 54.1912405,16.8525718 54.1196582,16.5694777 L54.0762152,16.3202751 L54.0767089,16.3202751 L54.0283291,16.0476475 L54.0288228,16.0476475 L53.9799494,15.7685407 L53.9335443,15.5023923 L53.8846709,15.2232855 L53.8841772,15.2232855 L53.8486329,15.0164474 C53.8446835,14.9760766 53.8412278,14.9357057 53.8377722,14.8953349 L53.8338228,14.6775319 L53.8343165,14.6775319 L53.8293797,14.4009171 L53.8298734,14.4009171 L53.824443,14.1243022 L53.8249367,14.1243022 L53.8195063,13.8476874 L53.82,13.8476874 L53.8145696,13.5710726 L53.8150633,13.5710726 L53.8125949,13.4434809 C53.8343165,12.9744817 53.8752911,12.5114633 53.9552658,12.0609051 C54.0189494,11.7000598 54.1038608,11.347189 54.2025949,11.000299 L54.2588734,10.8158892 L54.2934304,10.6997608 C54.448443,10.2118222 54.6370253,9.73933413 54.8581899,9.28478868 L54.9297722,9.13676236 C55.1938861,8.61393541 55.4989747,8.1155303 55.8430633,7.6460327 L55.8642911,7.67444179 L55.8672532,7.67194976 C55.8687342,7.67394338 55.8702152,7.675937 55.8716962,7.67793062 L55.8677468,7.68042265 L55.9393291,7.77611643 C56.0173291,7.88576555 56.0948354,7.99541467 56.1683924,8.10755582 L56.1940633,8.14792663 L56.1950506,8.14742823 C56.2557722,8.24112839 56.3120506,8.33781898 56.3703038,8.43351276 L56.430038,8.53867624 L56.4305316,8.53817783 L56.4384304,8.55213317 L56.5583924,8.76246013 L56.5662911,8.77591707 L56.6225696,8.87460128 C56.6748987,8.97129187 56.7296962,9.06748405 56.7790633,9.16666667 L56.8289241,9.27282695 C56.8728608,9.36303828 56.9148228,9.45474482 56.9562911,9.54595295 L57.016519,9.68999203 L57.0170127,9.68949362 L57.0229367,9.70444577 L57.022443,9.70444577 L57.1167342,9.92773126 L57.1231519,9.94268341 L57.1226582,9.94268341 L57.1690633,10.0523325 C57.2579241,10.2796053 57.3403671,10.5103668 57.4139241,10.7451156 L57.4899494,11.0117624 L57.5299367,11.1533094 L57.5501772,11.2245813 L57.5506709,11.2260766 C57.6192911,11.4897329 57.6814937,11.7563796 57.7303671,12.0280104 L57.7456709,12.1227073 C57.8463797,12.712819 57.9011772,13.319378 57.9011772,13.9398923 C57.9011772,15.4475678 57.5896709,16.8784888 57.0288608,18.1748405 C57.018,18.2007576 57.0061519,18.2261762 56.9947975,18.2515949 C56.9237089,18.4130781 56.8486709,18.5725678 56.7696835,18.7300638 C56.7583291,18.752492 56.7459873,18.7739234 56.7346329,18.7963517 C56.6230633,19.0141547 56.5031013,19.2264753 56.3772152,19.435307 C56.3500633,19.4806619 56.3234051,19.5265152 56.2952658,19.5713716 C56.1530886,19.7991427 56.0044937,20.0224282 55.846519,20.2382376 C55.6589241,19.9825558 55.4851519,19.7164075 55.3207595,19.4442783 Z M70.4690506,5.37031499 C70.6620759,5.51285885 70.8521392,5.65889155 71.0352911,5.81389553 C71.058,5.83233652 71.0802152,5.85227273 71.1029241,5.87121212 C71.3132278,6.05213317 71.5166203,6.2405303 71.7116203,6.43740032 L71.7634557,6.49122807 C72.3637595,7.10526316 72.8890253,7.7930622 73.3274051,8.53967305 L73.4128101,8.68969298 C73.8339114,9.4333134 74.1681266,10.2332536 74.4011392,11.0760566 L74.4159494,11.1268939 L74.4159494,11.1278907 L74.4203924,11.1418461 L74.4322405,11.1842105 C74.5087595,11.4722887 74.5749114,11.7648525 74.6272405,12.0624003 L74.6277342,12.0624003 C74.7353544,12.6724482 74.7911392,13.2994418 74.7911392,13.9398923 C74.7911392,15.2168062 74.5670127,16.4393939 74.1582532,17.5722687 L74.1330759,17.6465311 C74.0950633,17.7487041 74.0521139,17.8488836 74.0111392,17.9495614 C73.8936456,18.2396332 73.7667722,18.5252193 73.6250886,18.8023325 C73.6053418,18.8412081 73.5816456,18.8780901 73.5614051,18.9169657 C73.4330506,19.1601874 73.2953165,19.3974282 73.1491899,19.6291866 C73.0998228,19.7074362 73.048481,19.7841906 72.9971392,19.860945 C72.8623671,20.0623006 72.7211772,20.2586722 72.5730759,20.4500598 C72.5242025,20.5133573 72.4773038,20.5781499 72.427443,20.6399522 C72.2299747,20.8841707 72.0231266,21.1209131 71.8054177,21.3461922 C71.7708608,21.3815789 71.7338354,21.4144737 71.6987848,21.449362 C71.5116835,21.6372608 71.3171772,21.8181818 71.1167468,21.9916268 C71.0446709,22.0539274 70.9711139,22.1142344 70.897557,22.1745415 C70.7139114,22.3245614 70.5248354,22.4686005 70.3313165,22.6061603 C70.2641772,22.6540072 70.1980253,22.7043461 70.1298987,22.7506978 C69.8638101,22.930622 69.5913038,23.1010766 69.3089241,23.2560805 C69.3005316,23.2605662 69.2921392,23.2645534 69.2837468,23.2690391 C69.0077848,23.4195574 68.7229367,23.555622 68.4331519,23.6812201 C68.3768734,23.7056419 68.3220759,23.731559 68.2657975,23.7549841 L68.020443,23.8501794 C67.6951139,23.9747807 67.3638608,24.0854266 67.0242152,24.1771332 L66.9476962,24.199063 C66.7818228,24.2429226 66.6129873,24.2793062 66.4436582,24.3151914 L66.3844177,24.3266547 L66.2042278,24.3620415 L66.2042278,24.3615431 L66.1726329,24.3680223 C66.0640253,24.3879585 65.9544304,24.4049043 65.8443418,24.4213517 L65.8428608,24.4019139 L65.6661266,24.4208533 L65.6690886,24.4502592 C65.6671139,24.4502592 65.6646456,24.4507576 65.6626709,24.451256 L65.6592152,24.4218501 L65.4834684,24.4402911 L65.4864304,24.4691986 C65.4844557,24.4691986 65.482481,24.469697 65.4800127,24.469697 L65.4770506,24.4412879 L65.3008101,24.4597289 L65.3037722,24.4866427 C65.3013038,24.4871411 65.2993291,24.4871411 65.2973544,24.4876396 L65.2943924,24.4602273 L65.1186456,24.4791667 L65.1211139,24.5045853 C65.1191392,24.5050837 65.1166709,24.5050837 65.1142025,24.5050837 L65.1117342,24.4796651 L64.9354937,24.4986045 L64.9374684,24.5200359 C64.8826709,24.5235247 64.8268861,24.5230263 64.7720886,24.5255183 L64.7597468,24.5255183 C64.7567848,24.5255183 64.7533291,24.5260167 64.7503671,24.5260167 L64.7503671,24.5255183 L64.5765949,24.5285088 L64.5765949,24.5314992 C64.5731392,24.5314992 64.5696835,24.5319976 64.5667215,24.5319976 L64.5667215,24.5290072 L64.3924557,24.5319976 L64.3924557,24.5374801 C64.3894937,24.5374801 64.386038,24.5379785 64.3830759,24.5379785 L64.3830759,24.5319976 L64.2093038,24.5354864 L64.2093038,24.5379785 C64.2058481,24.5379785 64.2023924,24.5379785 64.1989367,24.5379785 L64.1989367,24.5354864 L64.153519,24.5359848 C63.4016582,24.5260167 62.6670759,24.4323166 61.9576709,24.2673445 L61.8653544,24.2444179 L61.8648608,24.2459131 C61.8574557,24.2444179 61.8500506,24.2429226 61.8426456,24.240929 L61.8431392,24.238437 L61.6876329,24.1995614 L61.6861519,24.2045455 C61.6782532,24.2030502 61.6708481,24.201555 61.663443,24.1995614 L61.6649241,24.1935805 L61.5094177,24.1547049 C61.4432658,24.136264 61.3785949,24.1158293 61.3129367,24.0963915 L61.3178734,24.0824362 L61.1653291,24.0291069 L61.1579241,24.0495415 C61.1510127,24.0475478 61.1436076,24.0455542 61.1366962,24.0435606 L61.1441013,24.0216308 L60.991557,23.9687998 L60.9826709,23.9952153 C60.9757595,23.9927233 60.9688481,23.9897329 60.961443,23.9872408 L60.9703291,23.9618222 L60.8182785,23.9084928 L60.8103797,23.9319179 C60.8034684,23.9294258 60.7960633,23.9264354 60.7891519,23.9239434 L60.7970506,23.9010167 L60.6445063,23.8481858 L60.6375949,23.868122 C60.6306835,23.86563 60.6237722,23.863138 60.6168608,23.8606459 L60.6232785,23.8407097 L60.4707342,23.7878788 L60.4648101,23.8048246 C60.0812278,23.652811 59.7099873,23.4778708 59.3501013,23.284988 C59.277038,23.2451156 59.203481,23.20624 59.1318987,23.1648724 C58.9902152,23.0841308 58.8505063,23.0008971 58.7132658,22.914673 C58.4965443,22.7761164 58.2813038,22.6360646 58.0749494,22.4820574 C58.1366582,22.402811 58.1973797,22.321571 58.2585949,22.2413278 L58.2605696,22.2423246 C58.2620506,22.2403309 58.2635316,22.2383373 58.264519,22.2363437 L58.3104304,22.2652512 L58.4782785,21.9941188 L58.4526076,21.9786683 C58.4540886,21.9766746 58.4555696,21.974681 58.456557,21.9726874 L58.4812405,21.9886364 L58.6490886,21.717504 L58.6387215,21.7110247 C58.6402025,21.7090311 58.6411899,21.7070375 58.6426709,21.7050439 L58.653038,21.7115231 L58.8203924,21.4408892 L58.8179241,21.4388955 C58.8189114,21.4369019 58.8203924,21.4349083 58.8213797,21.4329147 L58.8243418,21.4344099 L58.9921899,21.1637759 L58.9912025,21.1632775 C58.9926835,21.1612839 58.9936709,21.1592903 58.9946582,21.1572967 L58.9956456,21.1577951 L59.1634937,20.8871611 L59.158557,20.8841707 C59.160038,20.8816786 59.1610253,20.8801834 59.1625063,20.8781898 L59.1669494,20.8811802 L59.3347975,20.6100478 L59.3194937,20.6005781 C59.3209747,20.5985845 59.321962,20.5965909 59.3229494,20.5945973 L59.3382532,20.604067 L59.5061013,20.3329346 L59.4680886,20.3095096 L59.6087848,20.0408692 L59.6092785,20.0408692 C59.6102658,20.0388756 59.6112532,20.0363836 59.6127342,20.0333931 L59.6161899,20.0274123 L59.6690127,20.0478469 L59.7795949,19.7567783 L59.7489873,19.7448166 C59.750962,19.7398325 59.7534304,19.7353469 59.7554051,19.7303628 L59.785519,19.7418262 L59.8956076,19.451256 L59.8822785,19.4462719 C59.8842532,19.4412879 59.8862278,19.4363038 59.8882025,19.4318182 L59.901038,19.4368022 L60.0121139,19.1457337 L60.0076709,19.1442384 C60.0101392,19.1392544 60.0121139,19.1342703 60.0135949,19.1292863 L60.018038,19.1307815 L60.1276329,18.8402113 L60.1271392,18.8397129 C60.1291139,18.8352273 60.1310886,18.8297448 60.1330633,18.8252592 L60.133557,18.8252592 L60.2446329,18.534689 L60.2401899,18.5331938 C60.2421646,18.5282097 60.2441392,18.5232257 60.2456203,18.5182416 L60.2495696,18.5197368 L60.3601519,18.2291667 L60.3458354,18.2231858 C60.3473165,18.2187002 60.3492911,18.2132177 60.3507722,18.2082337 L60.3660759,18.2142145 L60.4766582,17.9236443 L60.4391392,17.9091906 L60.529481,17.6106459 L60.5892152,17.6211124 L60.6430253,17.3121013 L60.607481,17.305622 L60.6109367,17.2916667 L60.6454937,17.2981459 L60.6997975,16.9886364 L60.6830127,16.9856459 C60.684,16.9811603 60.6849873,16.9766746 60.6859747,16.972189 L60.7017722,16.9751794 L60.7560759,16.6656699 L60.7506456,16.664673 C60.7516329,16.6601874 60.7526203,16.6552033 60.7531139,16.6507177 L60.7585443,16.6517145 L60.8123544,16.3427033 L60.8113671,16.3427033 C60.8123544,16.3377193 60.8133418,16.3332337 60.8138354,16.3282496 L60.8148228,16.328748 L60.8691266,16.0192384 L60.8656709,16.01874 C60.8661646,16.0142544 60.8671519,16.0092703 60.8676456,16.0047847 L60.8711013,16.0052831 L60.9254051,15.6962719 L60.9115823,15.6937799 C60.9120759,15.6892943 60.9130633,15.6848086 60.913557,15.6798246 L60.9273797,15.6823166 L60.9821772,15.3733054 L60.9456456,15.3668262 L60.9624304,15.2148126 C60.9629241,15.2078349 60.9639114,15.2003589 60.9644051,15.1928828 L60.9797089,15.0523325 L61.0428987,15.0508373 L61.037962,14.7463118 L60.9979747,14.7473086 C60.9984684,14.7388357 60.998962,14.7308612 60.9994557,14.7228868 L61.0369747,14.72189 L61.032038,14.4173644 L61.0127848,14.4178628 C61.0132785,14.4098884 61.0132785,14.4019139 61.0137722,14.393441 L61.0315443,14.3929426 L61.0266076,14.0889155 L61.0196962,14.0889155 C61.0196962,14.0804426 61.0196962,14.0724681 61.0196962,14.0644936 L61.0261139,14.0644936 L61.0206835,13.7594697 L61.0196962,13.7594697 C61.0196962,13.7514952 61.0196962,13.7435207 61.0192025,13.7355463 L61.0206835,13.7355463 L61.0147595,13.4310207 L61.0122911,13.4310207 C61.0122911,13.4230463 61.0122911,13.4145734 61.0117975,13.4065989 L61.0147595,13.4065989 L61.0093291,13.1020734 L60.997481,13.1025718 C60.9969873,13.0940989 60.9964937,13.0861244 60.996,13.0781499 L61.0093291,13.0776515 L61.0038987,12.773126 L60.9703291,12.7736244 L60.9491013,12.5009968 L60.9964937,12.4915271 L60.9352785,12.171551 L60.8735696,11.8520734 L60.8740633,11.8520734 L60.8123544,11.5325957 L60.757557,11.2485048 C60.7466962,11.1931818 60.7373165,11.1378589 60.725962,11.0835327 L60.686962,10.8811802 L60.6864684,10.8816786 L60.6277215,10.5736643 L60.5635443,10.2417265 L60.5255316,10.2492026 C60.5052911,10.175937 60.4801139,10.1051635 60.4588861,10.0328947 C60.408038,9.85895136 60.3542278,9.68600478 60.296962,9.51505183 C60.2614177,9.40988836 60.2253797,9.30522329 60.1873671,9.20105662 C60.1266456,9.03508772 60.0624684,8.87111244 59.9958228,8.70813397 C59.9578101,8.61543062 59.9217722,8.52123206 59.8817848,8.42902711 C59.7786076,8.19078947 59.6695063,7.95604067 59.553,7.72527911 C59.5130127,7.64503589 59.4685823,7.56778309 59.4271139,7.48853668 C59.3407215,7.32505981 59.2523544,7.16257974 59.160038,7.00259171 C59.1067215,6.91138357 59.0524177,6.82167065 58.9971266,6.73145933 C58.9038228,6.57894737 58.8080506,6.42892743 58.7088228,6.28090112 C58.6569873,6.20215311 58.6056456,6.1234051 58.5518354,6.04615231 C58.3983038,5.82535885 58.2408228,5.60855263 58.0749494,5.39772727 C58.9240633,4.77272727 59.8778354,4.26883971 60.8992405,3.91497209 C60.9441646,3.89952153 60.9885949,3.88407097 61.033519,3.86961722 C61.2462911,3.7988437 61.462519,3.73554625 61.6812152,3.67822967 C61.7626709,3.65729665 61.8451139,3.63885566 61.927557,3.61941786 C62.1191013,3.5745614 62.3111392,3.53269537 62.5061392,3.49830542 C62.6453544,3.47438198 62.7865443,3.4569378 62.9277342,3.43849681 C63.0768228,3.41856061 63.2249241,3.39563397 63.375,3.38217703 C63.6776203,3.35576156 63.9822152,3.33931419 64.2912532,3.33931419 C64.6146076,3.33931419 64.937962,3.35426635 65.2593418,3.38417065 C65.323519,3.38965311 65.3852278,3.40311005 65.4489114,3.41008772 C65.7036456,3.43799841 65.9578861,3.46939793 66.2101519,3.51674641 C66.3088861,3.5351874 66.4046582,3.56259968 66.5024051,3.5840311 C66.7151772,3.62988437 66.9279494,3.67523923 67.1377595,3.73504785 C67.2572278,3.76893939 67.3727468,3.81180223 67.4902405,3.84968102 C67.6738861,3.90899123 67.857038,3.96630781 68.0372278,4.03608453 C68.1700253,4.08692185 68.2983797,4.14673046 68.4282152,4.20305024 C68.5866835,4.27133174 68.7456456,4.33911483 68.9021392,4.41586922 C69.0462911,4.48714115 69.186,4.56588915 69.3266962,4.64314195 C69.4585063,4.71590909 69.5903165,4.78867624 69.7201519,4.86792265 C69.8810886,4.96610845 70.0385696,5.06977671 70.1935823,5.17643541 C70.2858987,5.23973285 70.3777215,5.30402711 70.4690506,5.37031499 Z M53.6175949,5.39772727 C52.9151013,6.29086922 52.3251646,7.2752193 51.8581519,8.32685407 L51.8482785,8.32286683 L51.7959494,8.46092504 C51.6488354,8.80183413 51.5180127,9.15121611 51.3985443,9.50608054 L51.3215316,9.70843301 L51.3294304,9.71092504 L51.2711772,9.89782695 L51.2627848,9.89583333 L51.2119367,10.1026715 C51.1112278,10.4530502 51.0218734,10.8084131 50.9483165,11.1702552 L50.9078354,11.3352273 L50.9078354,11.3357257 L50.9157342,11.3377193 L50.8801899,11.5301037 L50.8722911,11.5291069 L50.8693291,11.5550239 L50.8688354,11.5550239 L50.8520506,11.6955742 L50.8342785,11.8440989 C50.8229241,11.916866 50.8071266,11.9876396 50.7972532,12.0609051 C50.775038,12.224382 50.7636835,12.3908493 50.7468987,12.5563198 L50.7286329,12.7073365 L50.7291266,12.7073365 L50.6930886,13.0013955 L50.6930886,13.0018939 L50.701481,13.0028907 L50.6891392,13.1982656 L50.6817342,13.1982656 L50.6817342,13.227173 L50.6817342,13.4948166 L50.6817342,13.5237241 L50.6817342,13.6383573 C50.6792658,13.7390351 50.6713671,13.8387161 50.6713671,13.9398923 C50.6713671,14.0899123 50.6767975,14.238437 50.6817342,14.3874601 L50.6817342,14.4138756 L50.6817342,14.6820175 L50.6896329,14.6820175 L50.7009873,14.8773923 L50.6930886,14.8783892 L50.7098734,15.0154506 L50.7236962,15.1305821 C50.7503544,15.4405901 50.7888608,15.7466108 50.8357595,16.0501396 L50.8397089,16.0835327 L50.8722911,16.3506778 L50.8796962,16.349681 L50.9147468,16.5425638 L50.9078354,16.5445574 L50.9507848,16.719996 L50.9784304,16.8321372 L50.9789241,16.8321372 L50.9808987,16.8411085 C51.0431013,17.132177 51.1136962,17.4202552 51.1936709,17.7038477 L51.2627848,17.9839514 L51.2706835,17.9819577 L51.3289367,18.1693581 L51.3215316,18.1718501 L51.3531266,18.2540869 L51.4266835,18.4489633 L51.4271772,18.4489633 L51.4311266,18.4599282 L51.4464304,18.5007974 C51.4765443,18.5865231 51.5046835,18.673744 51.5362785,18.7589713 L51.5451646,18.7589713 L51.5451646,18.7594697 L51.5362785,18.7594697 C51.5668861,18.8417065 51.6048987,18.9199561 51.6369873,19.0016946 L51.6419241,19.0141547 L51.6873418,19.1332735 L51.8211266,19.4856459 L51.8482785,19.5569179 L51.8561772,19.5539274 L51.9277595,19.7134171 L51.9193671,19.7179027 L51.9292405,19.7363437 L51.9573797,19.7891746 L52.0669747,19.9980064 L52.1953291,20.2417265 L52.3330633,20.5033892 C52.3779873,20.5866228 52.4194557,20.6723485 52.4658608,20.7550837 L52.6188987,21.0461523 L52.6263038,21.0421651 L52.7275063,21.2096292 L52.7205949,21.2141148 L52.8894304,21.4573365 L52.9126329,21.4907297 L52.9402785,21.5306021 C53.0182785,21.6497209 53.1017089,21.7638557 53.1826709,21.8804825 L53.5632911,22.4292265 L53.5637848,22.4287281 L53.5637848,22.4292265 L53.5711899,22.4247408 L53.6175949,22.4820574 C52.9536076,22.9709928 52.2264304,23.3871611 51.4518608,23.7151116 L51.4523544,23.71561 C50.8046582,23.9892344 50.1253671,24.2025518 49.4189241,24.3411085 L49.4026329,24.3445973 C49.254038,24.3735048 49.1034684,24.3949362 48.9533924,24.4173644 L48.9519114,24.4019139 L48.7751772,24.4208533 L48.7781392,24.4457735 C48.7761646,24.4462719 48.7741899,24.4467703 48.7722152,24.4467703 L48.7697468,24.4218501 L48.5930127,24.4402911 L48.5959747,24.4652113 C48.5935063,24.4657097 48.5915316,24.4657097 48.589557,24.4657097 L48.5865949,24.4412879 L48.4103544,24.4597289 L48.4128228,24.4831539 C48.4108481,24.4831539 48.4088734,24.4836523 48.4064051,24.4836523 L48.4039367,24.4602273 L48.2276962,24.4791667 L48.2296709,24.5005981 C48.2276962,24.5010965 48.2262152,24.5010965 48.2242405,24.5015949 L48.2217722,24.4796651 L48.0455316,24.4986045 L48.0475063,24.516547 C47.9112532,24.5250199 47.773519,24.5265152 47.6362785,24.5295056 L47.5024937,24.5319976 L47.5024937,24.5339912 C47.499038,24.5339912 47.4955823,24.5344896 47.4926203,24.5344896 L47.4926203,24.5319976 L47.3232911,24.5354864 C46.606481,24.5305024 45.9084304,24.4522528 45.2340759,24.3097089 L45.1531139,24.2892743 L45.1526203,24.2907695 C45.1452152,24.2892743 45.1378101,24.2872807 45.1299114,24.2857855 L45.1304051,24.2832935 L44.9753924,24.2444179 L44.9739114,24.2499003 C44.9660127,24.2479067 44.9586076,24.2464115 44.9507089,24.2449163 L44.9521899,24.238437 L44.7971772,24.1995614 L44.7947089,24.2090311 C44.7873038,24.2065391 44.7794051,24.2055423 44.7715063,24.2035486 L44.7739747,24.1935805 L44.6184684,24.1547049 L44.6169873,24.1601874 C44.6095823,24.1576954 44.6026709,24.1552033 44.5947722,24.1532097 L44.5957595,24.1487241 L44.4955443,24.1238038 C44.4703671,24.1163278 44.4456835,24.1088517 44.4205063,24.1013756 L44.4274177,24.0819378 L44.2743797,24.0291069 L44.2654937,24.0550239 C44.2585823,24.0530303 44.2511772,24.0510367 44.2447595,24.0485447 L44.2536456,24.0216308 L44.1011013,23.9687998 L44.0897468,24.0006978 L44.0690127,23.9937201 L44.0803671,23.9613238 L43.9273291,23.9084928 L43.916962,23.9378987 C43.9105443,23.9354067 43.9036329,23.9329147 43.8967215,23.9304226 L43.9065949,23.9010167 L43.753557,23.8481858 L43.7446709,23.8741029 C43.7377595,23.8716108 43.7308481,23.8696172 43.7239367,23.8666268 L43.7328228,23.8407097 L43.5802785,23.7878788 L43.5723797,23.8108054 C43.2574177,23.6862041 42.9513418,23.5441587 42.6521772,23.3906499 C42.4863038,23.3054226 42.3228987,23.2157097 42.1624557,23.1215112 C42.0612532,23.0626994 41.9600506,23.0028907 41.8608228,22.9405901 C41.6302785,22.7950558 41.4026962,22.6450359 41.184,22.4820574 C41.2452152,22.402811 41.3064304,22.321571 41.3681392,22.2413278 L41.3701139,22.2423246 C41.3715949,22.2403309 41.3725823,22.2388357 41.3740633,22.2368421 L41.4189873,22.2652512 L41.5868354,21.9941188 L41.5616582,21.9786683 C41.5631392,21.9766746 41.5646203,21.974681 41.5661013,21.9726874 L41.5907848,21.9886364 L41.7586329,21.717504 L41.7477722,21.7110247 C41.7492532,21.7090311 41.7507342,21.7070375 41.7522152,21.7050439 L41.7625823,21.7115231 L41.9304304,21.4408892 L41.9274684,21.4388955 L41.9314177,21.4329147 L41.9338861,21.4344099 L42.1017342,21.1637759 L42.1007468,21.1632775 L42.1046962,21.1572967 L42.1051899,21.1577951 L42.2725443,20.8871611 L42.2685949,20.8841707 C42.2695823,20.882177 42.2705696,20.8801834 42.2720506,20.8781898 L42.2764937,20.8811802 L42.4443418,20.6100478 L42.429038,20.6005781 C42.4300253,20.5985845 42.4315063,20.5965909 42.4324937,20.5940989 L42.4477975,20.604067 L42.6156456,20.3329346 L42.5781266,20.3095096 L42.7257342,20.0269139 L42.7790506,20.0478469 L42.8891392,19.7567783 L42.8585316,19.7448166 C42.8605063,19.7398325 42.8629747,19.7353469 42.8649494,19.7303628 L42.8945696,19.7418262 L43.0056456,19.451256 L42.9918228,19.4457735 C42.9937975,19.4412879 42.9962658,19.4363038 42.9982405,19.4313198 L43.0110759,19.4368022 L43.1211646,19.1457337 L43.1177089,19.1442384 C43.1196835,19.1392544 43.1216582,19.1347687 43.1236329,19.1297847 L43.1270886,19.1307815 L43.2376709,18.8402113 L43.2371772,18.8397129 C43.2391519,18.8352273 43.2411266,18.8297448 43.2431013,18.8252592 L43.2435949,18.8252592 L43.3536835,18.534689 L43.3502278,18.5336922 C43.3517089,18.5282097 43.3536835,18.5232257 43.3556582,18.5182416 L43.3596076,18.5197368 L43.4701899,18.2291667 L43.4553797,18.2231858 C43.4573544,18.2182018 43.4588354,18.2132177 43.4608101,18.2082337 L43.4756203,18.2142145 L43.5862025,17.9236443 L43.5481899,17.9091906 L43.6390253,17.6101475 L43.6987595,17.6211124 L43.7525696,17.3116029 L43.7170253,17.305622 C43.7180127,17.300638 43.7194937,17.2961523 43.720481,17.2916667 L43.755038,17.2981459 L43.8093418,16.9886364 L43.792557,16.9856459 C43.7935443,16.9811603 43.7945316,16.9766746 43.795519,16.972189 L43.8118101,16.974681 L43.8656203,16.6656699 L43.8601899,16.664673 L43.8631519,16.6507177 L43.8685823,16.6517145 L43.9223924,16.3427033 L43.9214051,16.3422049 C43.9218987,16.3377193 43.9228861,16.3332337 43.9238734,16.3282496 L43.9243671,16.328748 L43.9436203,16.2190989 C43.9446076,16.2136164 43.9455949,16.2076356 43.9465823,16.2021531 L43.9781772,16.0192384 L43.9757089,16.01874 C43.9762025,16.0142544 43.9771899,16.0092703 43.9776835,16.0047847 L43.9811392,16.0052831 L44.035443,15.6962719 L44.0216203,15.6937799 C44.0221139,15.6892943 44.0231013,15.6848086 44.0235949,15.6798246 L44.0374177,15.6823166 L44.0912278,15.3733054 L44.0551899,15.3668262 L44.0719747,15.2148126 C44.0724684,15.2078349 44.0734557,15.2003589 44.0739494,15.1928828 L44.0897468,15.0523325 L44.1529367,15.0508373 L44.1470127,14.7463118 L44.107519,14.7473086 C44.1080127,14.7393341 44.1080127,14.7308612 44.1085063,14.7228868 L44.1470127,14.72189 L44.1420759,14.4173644 L44.1223291,14.4178628 C44.1223291,14.4098884 44.1228228,14.4019139 44.1228228,14.393441 L44.1415823,14.3929426 L44.1361519,14.0889155 L44.1292405,14.0889155 C44.1292405,14.0804426 44.1297342,14.0724681 44.1297342,14.0644936 L44.1356582,14.0644936 L44.1302278,13.7599681 L44.1292405,13.7599681 C44.1292405,13.7519936 44.1292405,13.7435207 44.1287468,13.7355463 L44.1297342,13.7355463 L44.1247975,13.4310207 L44.1218354,13.4310207 C44.1218354,13.4230463 44.1218354,13.4145734 44.1213418,13.4065989 L44.1238101,13.4065989 L44.1193671,13.1020734 L44.1070253,13.1025718 C44.1065316,13.0940989 44.106038,13.0861244 44.1055443,13.0781499 L44.1183797,13.0776515 L44.113443,12.773126 L44.0803671,12.7736244 L44.0591392,12.5009968 L44.1065316,12.4915271 L44.0448228,12.171551 L43.9811392,11.8401116 L43.9806456,11.8401116 L43.9194304,11.520634 L43.9189367,11.520634 L43.8680886,11.2539872 C43.8562405,11.1956738 43.8463671,11.136862 43.8340253,11.0785486 L43.798481,10.8936404 L43.7989747,10.8931419 L43.7372658,10.5736643 L43.6730886,10.2417265 L43.6350759,10.2492026 C43.6153291,10.1769338 43.5901519,10.1071571 43.5694177,10.0353868 C43.5175823,9.85895136 43.4632785,9.68401116 43.4050253,9.51056619 C43.370962,9.40839314 43.3354177,9.30721691 43.2988861,9.20653907 C43.2366835,9.03458931 43.1695443,8.86463317 43.1009241,8.69617225 C43.0648861,8.60845295 43.0313165,8.52023525 42.9933038,8.43351276 C42.8891392,8.19228469 42.778557,7.95504386 42.6610633,7.72179027 C42.6235443,7.64702951 42.5820759,7.57476077 42.5430759,7.50099681 C42.4542152,7.33153907 42.3628861,7.16407496 42.2671139,6.99910287 C42.2157722,6.91038676 42.1624557,6.82316587 42.1091392,6.73594498 C42.0143544,6.58044258 41.9166076,6.42743222 41.8158987,6.27691388 C41.764557,6.20015949 41.7146962,6.1229067 41.6618734,6.04764753 C41.5083418,5.82635566 41.3498734,5.60905104 41.184,5.39772727 C41.6105316,5.08074163 42.0617468,4.79714912 42.5327089,4.54744817 L42.5810886,4.5215311 C42.7978101,4.40789474 43.019962,4.30322967 43.2450759,4.20504386 L43.2534684,4.20205343 L43.2529747,4.20105662 C43.2658101,4.19557416 43.2776582,4.1890949 43.29,4.18361244 L43.3122152,4.17464115 L43.330481,4.16716507 C43.4983291,4.09589314 43.6711139,4.0335925 43.8434051,3.97079346 C43.9880506,3.91846093 44.1341772,3.86862041 44.2817848,3.82226874 C44.418038,3.7794059 44.5547848,3.73853668 44.6935063,3.7016547 C44.8460506,3.66078549 45.0010633,3.62539872 45.1560759,3.59150718 C45.2972658,3.56010766 45.437962,3.52870813 45.5811266,3.50328947 C45.7356456,3.47587719 45.8931266,3.4569378 46.0496203,3.43700159 C46.1987089,3.4175638 46.3453291,3.39463716 46.4963924,3.38167863 C46.6430127,3.3692185 46.7935823,3.36722488 46.9421772,3.36074561 C47.0927468,3.35426635 47.2413418,3.34230463 47.3933924,3.34230463 C48.0223291,3.34230463 48.6369494,3.40211324 49.2347848,3.50877193 C50.8510633,3.80083732 52.3498481,4.46471292 53.6175949,5.39772727 Z M36.7271392,5.39772727 C36.0246456,6.29037081 35.4347089,7.27472089 34.9681899,8.32685407 L34.9583165,8.32286683 L34.9548608,8.33183812 L34.9543671,8.33183812 L34.9045063,8.46242026 C34.7573924,8.80382775 34.6270633,9.15320973 34.5071013,9.50807416 L34.4310759,9.70843301 L34.4389747,9.71092504 L34.3802278,9.89782695 L34.3723291,9.89583333 L34.322962,10.097189 C34.2212658,10.4500598 34.1309241,10.8084131 34.0573671,11.1727472 L34.0168861,11.3352273 L34.0168861,11.3357257 L34.0247848,11.3377193 L33.9892405,11.5301037 L33.9813418,11.5291069 L33.9783797,11.5555223 L33.9457975,11.8236643 L33.9433291,11.8426037 C33.9324684,11.9158692 33.9166709,11.9871411 33.9063038,12.0609051 C33.8835949,12.2288676 33.8717468,12.3993222 33.854962,12.5692783 L33.8026329,13.0013955 L33.8026329,13.0018939 L33.8105316,13.0028907 L33.7981899,13.1982656 L33.7907848,13.1982656 L33.7907848,13.227173 L33.7907848,13.4948166 L33.7907848,13.5237241 L33.7907848,13.6428429 C33.7888101,13.7420255 33.7809114,13.8402113 33.7809114,13.9398923 C33.7809114,14.0874203 33.7858481,14.233453 33.7907848,14.3794856 L33.7907848,14.3854665 L33.7907848,14.4138756 L33.7907848,14.6820175 L33.7986835,14.6820175 L33.810038,14.8773923 L33.8026329,14.8783892 L33.8327468,15.1285885 C33.8594051,15.4375997 33.8979114,15.743122 33.9443165,16.0461523 L33.9813418,16.3506778 L33.9818354,16.3506778 L33.9818354,16.3511762 L33.9897342,16.3501794 L34.0242911,16.5425638 L34.0168861,16.5445574 L34.0899494,16.8396132 C34.1526456,17.1326754 34.2237342,17.4227472 34.3046962,17.7083333 L34.3723291,17.9839514 L34.3802278,17.9819577 L34.4379873,18.1693581 L34.4310759,18.1718501 L34.4784684,18.2964514 L34.5362278,18.4489633 L34.5406709,18.4604266 L34.556962,18.5032895 C34.5865823,18.5880183 34.6142278,18.6747408 34.6458228,18.7589713 L34.6542152,18.7589713 L34.6542152,18.7594697 L34.6458228,18.7594697 C34.675443,18.8397129 34.712962,18.9164673 34.7440633,18.9962121 L34.7470253,19.0031898 C34.7480127,19.0051834 34.749,19.0076754 34.7499873,19.0101675 L34.7514684,19.0141547 L34.8526709,19.280303 L34.8571139,19.2912679 L34.8566203,19.2912679 L34.9583165,19.5569179 L34.9652278,19.5544258 L35.0368101,19.7139155 L35.0289114,19.7179027 L35.0387848,19.7363437 L35.0723544,19.800638 L35.1666456,19.9795654 L35.1982405,20.039374 L35.4253291,20.4709928 C35.4766709,20.5661882 35.5235696,20.6638756 35.5763924,20.7575758 L35.6050253,20.8114035 L35.728443,21.0461523 L35.7353544,21.0426635 L35.836557,21.2096292 L35.8301392,21.2141148 L36.0483418,21.52811 C36.1273291,21.6492225 36.2117468,21.7648525 36.2941899,21.8829745 L36.3361519,21.9432815 L36.3361519,21.9437799 L36.5044937,22.1865032 L36.5049873,22.1865032 L36.5049873,22.1870016 L36.6733291,22.4292265 L36.6802405,22.4247408 L36.7271392,22.4820574 C36.0631519,22.9709928 35.3359747,23.3871611 34.5614051,23.7151116 L34.5614051,23.71561 C33.9137089,23.9897329 33.2344177,24.2030502 32.5279747,24.3411085 L32.5121772,24.3445973 C32.3640759,24.3735048 32.2130127,24.3949362 32.0629367,24.4173644 L32.060962,24.4019139 L31.8847215,24.4208533 L31.8871899,24.4457735 C31.8852152,24.4462719 31.8832405,24.4467703 31.8812658,24.4467703 L31.8787975,24.4218501 L31.7020633,24.4402911 L31.7050253,24.4652113 C31.702557,24.4657097 31.7005823,24.4657097 31.6986076,24.4657097 L31.6961392,24.4412879 L31.5198987,24.4597289 L31.5223671,24.4831539 C31.5198987,24.4831539 31.5179241,24.4836523 31.5159494,24.4836523 L31.513481,24.4602273 L31.3372405,24.4791667 L31.3392152,24.5005981 C31.3372405,24.5010965 31.3352658,24.5010965 31.3327975,24.5015949 L31.3308228,24.4796651 L31.1545823,24.4986045 L31.156557,24.516547 C31.0207975,24.5250199 30.883557,24.5265152 30.7463165,24.5295056 L30.612038,24.5319976 L30.612038,24.5339912 C30.6085823,24.5339912 30.6051266,24.5344896 30.6016709,24.5344896 L30.6016709,24.5319976 L30.4328354,24.5354864 C29.715038,24.5305024 29.0164937,24.4517544 28.3416456,24.3092105 L28.2626582,24.2892743 L28.2621646,24.2907695 C28.2542658,24.2892743 28.2468608,24.2872807 28.2394557,24.2857855 L28.2399494,24.2832935 L28.084443,24.2444179 L28.0834557,24.2499003 L28.0602532,24.2449163 L28.0617342,24.238437 L27.9062278,24.1995614 L27.9042532,24.2085327 C27.8963544,24.2065391 27.8889494,24.2055423 27.8810506,24.2035486 L27.883519,24.1935805 L27.7280127,24.1547049 L27.7270253,24.1601874 C27.7191266,24.1576954 27.7117215,24.1552033 27.7043165,24.1532097 L27.7053038,24.1492225 L27.607557,24.1243022 C27.5818861,24.1168262 27.5557215,24.1093501 27.5300506,24.1013756 L27.5364684,24.0819378 L27.3839241,24.0291069 L27.375038,24.0550239 C27.3681266,24.0530303 27.3607215,24.0510367 27.3538101,24.0485447 L27.3631899,24.0216308 L27.2101519,23.9687998 L27.1992911,24.0006978 L27.178557,23.9937201 L27.1894177,23.9613238 L27.0368734,23.9084928 L27.0265063,23.9378987 C27.0195949,23.9354067 27.0126835,23.9329147 27.0062658,23.9304226 L27.0161392,23.9010167 L26.8631013,23.8481858 L26.8542152,23.8741029 C26.8473038,23.8716108 26.8403924,23.8696172 26.833481,23.8666268 L26.8423671,23.8407097 L26.6893291,23.7878788 L26.6814304,23.8108054 C26.3635063,23.6847089 26.0544684,23.5411683 25.7523418,23.3856659 C25.5958481,23.3054226 25.4423165,23.2206938 25.2907595,23.1329745 C25.1752405,23.0656898 25.0597215,22.9979067 24.9466709,22.9266348 C24.7882025,22.8259569 24.6331899,22.7202951 24.4806456,22.6116427 C24.4189367,22.5677831 24.3542658,22.5274123 24.2935443,22.4820574 L24.2960127,22.4820574 C24.3572278,22.402811 24.4174557,22.3220694 24.4781772,22.2413278 L24.4796582,22.2423246 C24.4811392,22.2403309 24.4821266,22.2383373 24.4836076,22.2363437 L24.529519,22.2652512 L24.6968734,21.9941188 L24.6716962,21.9786683 C24.6731772,21.9766746 24.6741646,21.974681 24.6756456,21.9726874 L24.7003291,21.9886364 L24.8681772,21.717504 L24.8578101,21.7110247 C24.8587975,21.7090311 24.8602785,21.7070375 24.8612658,21.7050439 L24.8716329,21.7115231 L25.039481,21.4408892 L25.036519,21.4388955 C25.038,21.4369019 25.039481,21.4349083 25.0404684,21.4329147 L25.0434304,21.4344099 L25.2107848,21.1637759 L25.2102911,21.1632775 C25.2112785,21.1612839 25.2127595,21.1592903 25.2137468,21.1572967 L25.2147342,21.1577951 L25.3820886,20.8871611 L25.3776456,20.8841707 C25.3786329,20.882177 25.3801139,20.8801834 25.3815949,20.8781898 L25.386038,20.8811802 L25.5533924,20.6100478 L25.5380886,20.6005781 C25.5395696,20.5985845 25.540557,20.5965909 25.542038,20.5940989 L25.5573418,20.604067 L25.7246962,20.3329346 L25.6871772,20.3095096 L25.8278734,20.0408692 C25.8283671,20.0403708 25.8283671,20.039374 25.8288608,20.0388756 L25.8352785,20.0274123 L25.8881013,20.0478469 L25.9986835,19.7567783 L25.9680759,19.7448166 C25.9700506,19.7398325 25.9720253,19.7353469 25.9744937,19.7303628 L26.0041139,19.7418262 L26.1146962,19.451256 L26.1013671,19.4462719 C26.1028481,19.4412879 26.1053165,19.4363038 26.1072911,19.4313198 L26.1206203,19.4368022 L26.2307089,19.1457337 L26.2267595,19.1442384 C26.2287342,19.1392544 26.2307089,19.1347687 26.2326835,19.1292863 L26.2366329,19.1307815 L26.3472152,18.8402113 L26.3462278,18.8397129 C26.3482025,18.8352273 26.3501772,18.8297448 26.3521519,18.8252592 L26.3526456,18.8252592 L26.4632278,18.534689 L26.4592785,18.5331938 C26.4612532,18.5282097 26.4627342,18.5232257 26.4647089,18.5182416 L26.4686582,18.5197368 L26.5792405,18.2291667 L26.5649241,18.2231858 C26.5664051,18.2182018 26.5683797,18.2132177 26.5698608,18.2082337 L26.5851646,18.2142145 L26.6957468,17.9236443 L26.6577342,17.9091906 L26.7485696,17.6101475 L26.8083038,17.6211124 L26.8621139,17.3116029 L26.8265696,17.305622 C26.827557,17.300638 26.8285443,17.2961523 26.8295316,17.2916667 L26.8645823,17.2981459 L26.9183924,16.9886364 L26.9021013,16.9856459 C26.9030886,16.9811603 26.9040759,16.9766746 26.9050633,16.9716906 L26.9208608,16.974681 L26.9751646,16.6656699 L26.9697342,16.664673 C26.9707215,16.6601874 26.9712152,16.6552033 26.9722025,16.6507177 L26.9776329,16.6517145 L27.031443,16.3427033 L27.0304557,16.3422049 C27.031443,16.3377193 27.0319367,16.3332337 27.0329241,16.3282496 L27.0339114,16.328748 L27.0877215,16.0192384 L27.0847595,16.01874 C27.0852532,16.0142544 27.0862405,16.0092703 27.0867342,16.0047847 L27.0901899,16.0052831 L27.1444937,15.6962719 L27.1306709,15.6937799 C27.1311646,15.6892943 27.1316582,15.6848086 27.1326456,15.6798246 L27.146962,15.6823166 L27.2007722,15.3733054 L27.1647342,15.3668262 L27.1805316,15.2212919 C27.181519,15.2118222 27.183,15.2018541 27.1834937,15.1923844 L27.1987975,15.0518341 L27.2619873,15.0508373 L27.256557,14.7463118 L27.2165696,14.7473086 C27.2170633,14.7388357 27.217557,14.7308612 27.2180506,14.7228868 L27.2560633,14.72189 L27.2511266,14.4173644 L27.2318734,14.4178628 C27.2318734,14.4098884 27.2323671,14.4019139 27.2328608,14.393441 L27.2506329,14.3929426 L27.2452025,14.0884171 L27.2387848,14.0889155 C27.2387848,14.0804426 27.2387848,14.0724681 27.2387848,14.0644936 L27.2447089,14.0639952 L27.2397722,13.7594697 L27.2382911,13.7594697 C27.2382911,13.7514952 27.2382911,13.7435207 27.2382911,13.7355463 L27.2392785,13.7355463 L27.2338481,13.4310207 L27.2318734,13.4310207 C27.2313797,13.4230463 27.2313797,13.4145734 27.2308861,13.4061005 L27.2338481,13.4061005 L27.2284177,13.1020734 L27.2160759,13.1025718 C27.2155823,13.0940989 27.2155823,13.085626 27.2150886,13.0776515 L27.2279241,13.0776515 L27.2229873,12.773126 L27.1899114,12.7736244 L27.1681899,12.5009968 L27.2155823,12.4915271 L27.1543671,12.171551 L27.0926582,11.8520734 L27.0289747,11.520634 L27.028481,11.520634 L26.9781266,11.2579745 C26.9667722,11.1981659 26.9564051,11.1378589 26.9440633,11.0785486 L26.9080253,10.8931419 L26.8438481,10.5617026 L26.7826329,10.2417265 L26.7446203,10.2492026 C26.7238861,10.1749402 26.6987089,10.1031699 26.6769873,10.0294059 C26.6261392,9.85645933 26.5733165,9.68500797 26.515557,9.51505183 C26.4805063,9.40988836 26.4444684,9.30572169 26.4064557,9.20205343 C26.3457342,9.03409091 26.2805696,8.86812201 26.2129367,8.70364833 C26.1759114,8.6129386 26.1408608,8.52123206 26.1018608,8.43151914 C25.9981899,8.19178628 25.8881013,7.95554226 25.7715949,7.72328549 C25.7325949,7.6460327 25.6901392,7.57127193 25.6496582,7.49501595 C25.5617848,7.32854864 25.4719367,7.16357656 25.3776456,7.00109649 C25.3253165,6.91088517 25.2715063,6.82216906 25.2176962,6.73345295 C25.1234051,6.57994418 25.0266456,6.42842903 24.9269241,6.2789075 C24.8750886,6.2011563 24.8242405,6.1229067 24.7709241,6.04665072 C24.6173924,5.82585726 24.4594177,5.60855263 24.2935443,5.39772727 C24.7210633,5.08024322 25.1727722,4.79615231 25.6447215,4.54595295 L25.6891519,4.52202951 C25.9073544,4.40789474 26.13,4.30273126 26.3565949,4.20404705 L26.3620253,4.20205343 L26.3620253,4.20155502 C26.3748608,4.19607257 26.3867089,4.1890949 26.3995443,4.18361244 L26.4380506,4.16766348 C26.6063924,4.09639155 26.7796709,4.03409091 26.951962,3.97129187 C27.0971013,3.91846093 27.2427342,3.86911882 27.3903418,3.82226874 C27.5270886,3.7794059 27.6648228,3.73853668 27.804038,3.7011563 C27.9555949,3.66078549 28.1091266,3.62539872 28.2631519,3.59150718 C28.4053291,3.56060606 28.5470127,3.52870813 28.6911646,3.50328947 C28.8446962,3.4763756 29.0011899,3.4574362 29.1571899,3.43700159 C29.3062785,3.4175638 29.4543797,3.39463716 29.6059367,3.38167863 C29.7520633,3.3692185 29.9006582,3.36722488 30.0482658,3.36074561 C30.1998228,3.35426635 30.3498987,3.34230463 30.5034304,3.34230463 C31.1229873,3.34230463 31.7297089,3.40011962 32.3201392,3.50328947 C33.9453038,3.79385965 35.452481,4.45972887 36.7271392,5.39772727 Z M77.8568354,15.1744418 L77.8701646,15.0523325 L77.9338481,15.0508373 L77.9284177,14.7463118 L77.8879367,14.7473086 C77.8884304,14.7388357 77.8889241,14.7308612 77.8894177,14.7228868 L77.9279241,14.72189 L77.9224937,14.4173644 L77.9032405,14.4178628 C77.9032405,14.4098884 77.9037342,14.4019139 77.9037342,14.393441 L77.922,14.3929426 L77.9170633,14.0889155 L77.9101519,14.0889155 C77.9101519,14.0804426 77.9101519,14.0724681 77.9101519,14.0644936 L77.9165696,14.0644936 L77.9116329,13.7594697 L77.9096582,13.7594697 C77.9096582,13.7514952 77.9096582,13.7435207 77.9096582,13.7355463 L77.9106456,13.7355463 L77.9057089,13.4310207 L77.9032405,13.4310207 C77.9027468,13.4230463 77.9027468,13.4145734 77.9022532,13.4065989 L77.9047215,13.4065989 L77.8997848,13.1020734 L77.8879367,13.1025718 C77.887443,13.0940989 77.8869494,13.0861244 77.8869494,13.0781499 L77.8992911,13.0776515 L77.8943544,12.773126 L77.8612785,12.7736244 L77.839557,12.5009968 L77.887443,12.4915271 L77.8257342,12.171551 L77.7620506,11.8401116 L77.7003418,11.5201356 L77.6954051,11.4942185 C77.6825696,11.4224482 77.6677595,11.3511762 77.6539367,11.2794059 L77.6411013,11.213118 L77.5793924,10.8936404 L77.5798861,10.8931419 L77.5181772,10.5736643 L77.4544937,10.2417265 L77.4145063,10.249701 C77.374519,10.1041667 77.3300886,9.9611244 77.2856582,9.81758373 C77.2673924,9.75927033 77.2515949,9.69946172 77.2323418,9.64164673 C77.1627342,9.42733254 77.0872025,9.21551037 77.0077215,9.00568182 C76.9805696,8.93490829 76.9509494,8.86562998 76.9228101,8.79535486 C76.8655443,8.6523126 76.8072911,8.51026715 76.7455823,8.36971691 C76.7095443,8.28698166 76.6715316,8.20574163 76.633519,8.12400319 C76.5747722,7.99641148 76.5140506,7.87031499 76.4513544,7.74521531 C76.4103797,7.66347687 76.3694051,7.58173844 76.3264557,7.50099681 C76.2593165,7.37240829 76.1892152,7.2458134 76.1176329,7.12021531 C76.0766582,7.04844498 76.0371646,6.97567783 75.9952025,6.90490431 C75.8930127,6.73145933 75.7868734,6.56100478 75.6772785,6.39304226 C75.6530886,6.35516348 75.6279114,6.31778309 75.6032278,6.28040271 C75.4916582,6.1129386 75.3771266,5.94846491 75.2591392,5.78698166 C75.2112532,5.72119219 75.1613924,5.65739633 75.1120253,5.59260367 C75.0241519,5.47697368 74.9357848,5.36234051 74.8444557,5.24920255 C74.7886709,5.18042265 74.7314051,5.11214115 74.6746329,5.04385965 C74.5842911,4.93620415 74.4919747,4.83054226 74.3981772,4.72587719 C74.3399241,4.66108453 74.2826582,4.59629187 74.2234177,4.53299442 C74.1177722,4.41935805 74.0096582,4.30871212 73.900557,4.19856459 C73.8511899,4.14922249 73.8037975,4.09838517 73.753443,4.05003987 C73.5949747,3.89503589 73.4330506,3.74401914 73.2671772,3.59698963 C73.2281772,3.56259968 73.1876962,3.53020335 73.1486962,3.49681021 C73.0178734,3.38317384 72.8855696,3.2715311 72.7503038,3.16337719 C72.6876076,3.11353668 72.6234304,3.06469298 72.5602405,3.01584928 C72.4437342,2.92613636 72.3262405,2.83742026 72.2072658,2.75119617 C72.1381519,2.70185407 72.0695316,2.65301037 71.9999241,2.60466507 C71.8779873,2.5199362 71.7535823,2.43720096 71.6286835,2.35645933 C71.5630253,2.3140949 71.4983544,2.27123206 71.4322025,2.22986443 C71.2762025,2.13267544 71.1182278,2.03947368 70.9582785,1.94876396 C70.9222405,1.92832935 70.8866962,1.90590112 70.8501646,1.88546651 C70.7020633,1.80372807 70.5519873,1.72547847 70.4009241,1.64872408 L70.4063544,1.63676236 L69.9497089,1.43141946 C69.8440633,1.38257576 69.7379241,1.33423046 69.6303038,1.28787879 L69.2561013,1.11941786 L69.2511646,1.13088118 C69.1993291,1.11044657 69.147,1.09001196 69.0946709,1.07007576 L69.0986203,1.05861244 L68.719481,0.934509569 C68.6029747,0.893640351 68.4859747,0.856259968 68.3679873,0.818879585 L67.9009747,0.665869219 L67.8994937,0.671351675 L67.8915949,0.668859649 L67.8891266,0.676335726 C67.8387722,0.662380383 67.7869367,0.64942185 67.7360886,0.635964912 L67.7390506,0.622009569 L66.5068481,0.357356459 L66.5033924,0.372807018 L66.451557,0.364334131 C66.414038,0.35835327 66.3770127,0.351874003 66.3394937,0.345893142 L66.3409747,0.330940989 L65.6068861,0.253189793 C65.5901013,0.251694577 65.5733165,0.249202552 65.556038,0.248205742 L65.0885316,0.198365231 L65.0870506,0.213815789 L65.0228734,0.210326954 C64.9888101,0.208333333 64.9552405,0.205342903 64.9206835,0.203847687 L64.9206835,0.196371611 L64.9206835,0.188895534 L63.6618228,0.188895534 L63.6618228,0.196371611 L63.648,0.196371611 L63.648,0.205841308 L63.4954557,0.213815789 L63.4939747,0.198365231 L63.493481,0.198365231 L63.4910127,0.172448166 L63.2698481,0.195873206 L63.2723165,0.221790271 L63.2431899,0.224780702 L63.2407215,0.198863636 L63.019557,0.222288676 L63.0220253,0.248205742 L62.9933924,0.251196172 L62.9904304,0.225279107 L62.7687722,0.249202552 L62.7712405,0.275119617 L62.7426076,0.278110048 L62.7396456,0.252192982 L62.518481,0.275618022 L62.521443,0.301036683 L62.4918228,0.304525518 L62.4893544,0.278608453 L62.2681899,0.302033493 L62.2711519,0.327950558 L62.2420253,0.330940989 L62.2435063,0.346391547 L62.0791139,0.373305423 L62.0756582,0.357356459 L62.0722025,0.341905901 L61.8258608,0.394736842 L61.579519,0.447069378 L61.3331772,0.500398724 L61.3331772,0.499900319 L61.0858481,0.553229665 L60.8395063,0.606060606 L60.8449367,0.633472887 C60.799519,0.645933014 60.7550886,0.661881978 60.7096709,0.67484051 L60.6864684,0.680821372 L60.6785696,0.654904306 L60.4662911,0.724182616 L60.4697468,0.735645933 L60.4425949,0.744617225 L60.4386456,0.733153907 L60.2273544,0.802930622 L60.2303165,0.813895534 L60.2026709,0.822866826 L60.1992152,0.811901914 L59.9874304,0.881678628 L59.9913797,0.892643541 L59.9632405,0.901614833 L59.9597848,0.89064992 L59.748,0.95992823 L59.7514557,0.970893142 L59.7238101,0.980362839 L59.7198608,0.968899522 L59.5085696,1.03867624 L59.5120253,1.04914274 L59.4843797,1.05861244 L59.4888228,1.07356459 L59.3333165,1.13387161 L59.3333165,1.1328748 L59.3333165,1.13337321 L59.3268987,1.11941786 L58.7784304,1.36612839 C58.731038,1.38755981 58.6831519,1.40849282 58.6357595,1.43042265 L58.1771392,1.63676236 L58.1830633,1.6502193 L58.1554177,1.66218102 L58.1564051,1.66417464 L58.034962,1.72697368 L58.0201519,1.70105662 L57.7984937,1.83014354 L57.5837468,1.95524322 L57.3655443,2.08233652 L57.1433924,2.21142344 L56.9256835,2.33851675 L56.9409873,2.36493222 C56.9069241,2.38686204 56.8743418,2.41078549 56.8407722,2.43271531 C56.7731392,2.47757177 56.707481,2.52292663 56.6408354,2.5682815 C56.3698101,2.7541866 56.1032278,2.94657097 55.846519,3.15141547 C55.5898101,2.94657097 55.3232278,2.75468501 55.0526962,2.5682815 C54.9816076,2.5199362 54.910519,2.47159091 54.838443,2.42424242 C54.5669241,2.24481659 54.290962,2.07187002 54.0061139,1.91188198 C53.9868608,1.90091707 53.9666203,1.89194577 53.9473671,1.88098086 C53.8032152,1.80123604 53.6561013,1.72547847 53.5089873,1.6507177 L53.5154051,1.63676236 L53.0651772,1.43391148 C53.0118608,1.40948963 52.9580506,1.38606459 52.9047342,1.36214115 L52.3656456,1.11941786 L52.3592278,1.13337321 L52.2042152,1.07356459 L52.2086582,1.05861244 L51.0110127,0.665869219 L51.009038,0.67185008 L51.0011392,0.668859649 L50.9981772,0.678329346 L50.9858354,0.67484051 C50.9389367,0.662380383 50.8930253,0.645933014 50.8461266,0.633472887 L50.8481013,0.622009569 L49.6168861,0.357356459 L49.6139241,0.372807018 L49.449038,0.346889952 L49.450519,0.330940989 L48.1985696,0.198365231 L48.1970886,0.213815789 L48.0307215,0.205342903 L48.0307215,0.188895534 L46.7718608,0.188895534 L46.7718608,0.196371611 L46.758038,0.196371611 L46.758038,0.205841308 L46.6054937,0.213815789 L46.6040127,0.198365231 L46.603519,0.198365231 L46.6010506,0.172448166 L46.3793924,0.195873206 L46.3818608,0.221790271 L46.3532278,0.224780702 L46.3502658,0.198863636 L46.1291013,0.222288676 L46.1315696,0.248704147 L46.102443,0.251196172 L46.099481,0.225279107 L45.8788101,0.249202552 L45.8812785,0.274621212 L45.8526456,0.278110048 L45.8496835,0.252192982 L45.6280253,0.275618022 L45.6309873,0.301535088 L45.6018608,0.304525518 L45.5993924,0.278608453 L45.3777342,0.302033493 L45.3806962,0.327950558 L45.3515696,0.330940989 L45.3530506,0.346391547 L45.1891519,0.373305423 L45.1856962,0.357356459 L45.1852025,0.357854864 L45.1817468,0.341905901 L44.9339241,0.394736842 L44.6890633,0.447069378 L44.4427215,0.500398724 L44.4427215,0.499900319 L44.1963797,0.553229665 L43.9490506,0.606060606 L43.9549747,0.633971292 C43.911038,0.645434609 43.8690759,0.660885167 43.8256329,0.67284689 L43.7960127,0.680821372 L43.7915696,0.665869219 L43.7910759,0.665869219 L43.7876203,0.654904306 L43.5763291,0.724681021 L43.5797848,0.735147528 L43.5521392,0.744617225 L43.5481899,0.733652313 L43.3364051,0.802930622 L43.3398608,0.813895534 L43.3117215,0.822866826 L43.3082658,0.811901914 L43.0969747,0.881678628 L43.1009241,0.892643541 L43.0727848,0.901614833 L43.0693291,0.89064992 L42.8575443,0.95992823 L42.861,0.970893142 L42.8338481,0.979864434 L42.8298987,0.968899522 L42.6181139,1.03867624 L42.6215696,1.04964115 L42.5939241,1.05861244 L42.5988608,1.07356459 L42.4428608,1.13387161 L42.436443,1.11941786 L41.883038,1.36862041 C41.8386076,1.38855662 41.7931899,1.40799442 41.7487595,1.42892743 L41.2861899,1.63676236 L41.2921139,1.6502193 L41.264962,1.66218102 L41.2659494,1.66467305 L41.1445063,1.72697368 L41.1366076,1.71351675 L41.1292025,1.70105662 L40.9070506,1.83014354 L40.9075443,1.83014354 L40.6893418,1.95723684 L40.4745949,2.08233652 L40.2544177,2.21092504 L40.0352278,2.33851675 L40.050038,2.36493222 C40.0159747,2.38736045 39.9833924,2.41078549 39.9488354,2.43371212 C39.8826835,2.47757177 39.817519,2.52192982 39.7518608,2.56678628 C39.4798481,2.7536882 39.2127722,2.94607257 38.9555696,3.15141547 C38.6988608,2.94657097 38.4317848,2.7536882 38.1602658,2.56728469 C38.0906582,2.5194378 38.0210506,2.47208931 37.9504557,2.42573764 C37.676962,2.24531499 37.3990253,2.07087321 37.1126962,1.91038676 C37.0983797,1.90241228 37.0835696,1.89543461 37.0692532,1.88795853 C36.9216456,1.80522329 36.7700886,1.72797049 36.6190253,1.6507177 L36.6249494,1.63676236 L36.1717595,1.43291467 C36.1204177,1.40899123 36.0685823,1.38606459 36.0167468,1.36313796 L35.4746962,1.11941786 L35.4687722,1.13337321 L35.3127722,1.07356459 L35.3177089,1.05861244 L34.1200633,0.665869219 L34.1180886,0.67185008 L34.1106835,0.668859649 L34.1072278,0.678329346 L34.0958734,0.675338915 C34.0489747,0.662380383 34.0030633,0.645933014 33.9556709,0.633472887 L33.9581392,0.622009569 L32.7264304,0.357356459 L32.7229747,0.372807018 L32.5585823,0.346889952 L32.5600633,0.330940989 L31.3076203,0.198365231 L31.3066329,0.213815789 L31.1402658,0.205342903 L31.1402658,0.188895534 L29.8809114,0.188895534 L29.8809114,0.196371611 L29.8670886,0.196371611 L29.8670886,0.205841308 L29.7145443,0.213815789 L29.7101013,0.172448166 L29.4889367,0.195873206 L29.4914051,0.221790271 L29.4622785,0.224780702 L29.4598101,0.198863636 L29.2386456,0.222288676 L29.2411139,0.248205742 L29.2119873,0.251196172 L29.2090253,0.225279107 L28.9878608,0.249202552 L28.9908228,0.274621212 L28.9616962,0.278110048 L28.9592278,0.252192982 L28.7375696,0.275618022 L28.740038,0.301036683 L28.7109114,0.304525518 L28.708443,0.278608453 L28.4872785,0.302033493 L28.4897468,0.327950558 L28.4606203,0.330940989 L28.4625949,0.346391547 L28.2977089,0.373305423 L28.2947468,0.357356459 L28.2942532,0.357356459 L28.2912911,0.341905901 L28.0434684,0.394736842 L27.7986076,0.447069378 L27.5522658,0.500398724 L27.5522658,0.499900319 L27.3059241,0.553229665 L27.0585949,0.606060606 L27.0640253,0.633971292 C27.0195949,0.645434609 26.9771392,0.661383573 26.9327089,0.673345295 L26.9050633,0.680821372 L26.9006203,0.665869219 L26.8966709,0.654904306 L26.6853797,0.724681021 L26.6888354,0.735645933 L26.6606962,0.744617225 L26.6577342,0.733652313 L26.4459494,0.802930622 L26.4494051,0.813895534 L26.4212658,0.822866826 L26.4178101,0.811901914 L26.2060253,0.881678628 L26.2099747,0.892643541 L26.1818354,0.901614833 L26.1783797,0.89064992 L25.9670886,0.95992823 L25.9705443,0.970893142 L25.9424051,0.979864434 L25.9389494,0.968899522 L25.7271646,1.03867624 L25.7311139,1.04964115 L25.7029747,1.05861244 L25.7079114,1.07356459 L25.5524051,1.13387161 L25.5519114,1.1328748 L25.5459873,1.11941786 L24.9935696,1.3676236 C24.9481519,1.38805821 24.9022405,1.40849282 24.8568228,1.42942584 L24.3957342,1.63676236 L24.4016582,1.6502193 L24.3745063,1.66267943 L24.375,1.66467305 L24.253557,1.72697368 L24.2461519,1.71351675 L24.2456582,1.71351675 L24.2387468,1.70105662 L24.0170886,1.83014354 L23.8023418,1.95524322 L23.5841392,2.08233652 L23.362481,2.21142344 L23.1447722,2.33851675 L23.1600759,2.36493222 C23.1260127,2.38686204 23.0939241,2.41028708 23.0603544,2.43221691 C22.9927215,2.47707337 22.9260759,2.52292663 22.8594304,2.5687799 C22.5879114,2.75468501 22.3213291,2.94657097 22.0651139,3.15141547 C21.8069241,2.94507576 21.5383671,2.75169458 21.2658608,2.56479266 C21.1987215,2.51893939 21.1315823,2.47358453 21.0639494,2.42872807 C20.7879873,2.2463118 20.5080759,2.07087321 20.2187848,1.90889155 C20.2103924,1.9039075 20.2015063,1.89992026 20.1936076,1.89543461 C20.0405696,1.81020734 19.8845696,1.73046252 19.7285696,1.6507177 L19.7349873,1.63676236 L19.2738987,1.42942584 C19.2279873,1.40799442 19.1810886,1.38755981 19.1346835,1.3671252 L18.5847342,1.11941786 L18.5783165,1.13387161 L18.4223165,1.07356459 L18.4272532,1.05861244 L17.2296076,0.665869219 L17.2276329,0.67185008 L17.2202278,0.668859649 L17.2167722,0.678329346 L17.2014684,0.674342105 C17.155557,0.661881978 17.1111266,0.645434609 17.0652152,0.633472887 L17.0676835,0.622009569 L15.8359747,0.357356459 L15.832519,0.372807018 L15.6681266,0.346889952 L15.6696076,0.330940989 L14.4176582,0.198365231 L14.4156835,0.213815789 L14.2498101,0.205342903 L14.2498101,0.188895534 L12.9904557,0.188895534 L12.9904557,0.196371611 L12.9766329,0.196371611 L12.9766329,0.204346093 C12.9460253,0.205841308 12.9159114,0.208831738 12.8853038,0.210326954 L12.8240886,0.213815789 L12.8196456,0.172448166 L12.598481,0.195873206 L12.6009494,0.221790271 L12.5718228,0.224780702 L12.5693544,0.198863636 L12.3481899,0.222288676 L12.3506582,0.248205742 C12.3412785,0.249202552 12.3314051,0.250199362 12.3215316,0.251196172 L12.3190633,0.225279107 L12.0974051,0.249202552 L12.1003671,0.274621212 L12.0712405,0.278110048 L12.0682785,0.252192982 L11.8471139,0.275618022 L11.8495823,0.301036683 L11.8204557,0.304525518 L11.8179873,0.278608453 L11.5968228,0.302033493 L11.5992911,0.327950558 L11.5701646,0.330940989 L11.5716456,0.345893142 C11.5336329,0.351874003 11.4956203,0.358851675 11.4571139,0.364832536 L11.4077468,0.373305423 L11.4042911,0.357356459 L11.4008354,0.341905901 L11.1544937,0.394736842 L11.1544937,0.394238437 L10.9081519,0.447069378 L10.6618101,0.500398724 L10.6618101,0.499900319 L10.414481,0.553229665 L10.1681392,0.606060606 L10.174557,0.636463317 C10.1207468,0.65041866 10.0674304,0.663875598 10.0146076,0.678329346 L10.0101646,0.665869219 L10.0067089,0.654904306 L9.79492405,0.724681021 L9.79837975,0.735645933 L9.77073418,0.744617225 L9.76727848,0.733652313 L9.55549367,0.802930622 L9.55894937,0.813895534 L9.54265823,0.81937799 C9.53870886,0.820374801 9.53475949,0.821371611 9.53081013,0.822866826 L9.52735443,0.811901914 L9.31606329,0.881678628 L9.31803797,0.889154705 C9.3091519,0.892145136 9.29977215,0.895135566 9.29039241,0.898624402 L9.28792405,0.89064992 L9.07663291,0.95992823 L9.08008861,0.970893142 L9.05194937,0.979864434 L9.04849367,0.968899522 L8.83670886,1.03867624 L8.84065823,1.04964115 L8.81251899,1.05861244 L8.81646835,1.07007576 C8.76413924,1.09001196 8.7123038,1.10994817 8.66046835,1.13038278 L8.65602532,1.11941786 L8.28478481,1.28638357 C8.17420253,1.33373206 8.06510127,1.38357257 7.95649367,1.43391148 L7.50527848,1.63676236 L7.51070886,1.64872408 C7.50281013,1.65271132 7.49540506,1.65719697 7.48750633,1.66118421 L7.48405063,1.66218102 L7.4845443,1.66267943 C7.44356962,1.68311404 7.40358228,1.70504386 7.36310127,1.72597687 L7.3556962,1.71351675 L7.35520253,1.71351675 L7.34829114,1.70105662 L7.12663291,1.83014354 L6.91188608,1.95524322 L6.69417722,2.08233652 L6.47597468,2.20942982 L6.25431646,2.33851675 L6.26962025,2.36493222 C6.02377215,2.52442185 5.78137975,2.68939394 5.54688608,2.86433413 C5.5345443,2.87330542 5.52318987,2.88277512 5.5108481,2.89174641 C5.27141772,3.07117225 5.03939241,3.26006778 4.8123038,3.45444577 C4.77626582,3.48534689 4.73924051,3.5157496 4.70320253,3.54714912 C4.47956962,3.74252392 4.26334177,3.94587321 4.05303797,4.15570175 C4.01156962,4.19706938 3.97108861,4.238437 3.93060759,4.27980463 C3.72079747,4.49461722 3.51691139,4.71441388 3.32092405,4.94268341 C3.29772152,4.97009569 3.27550633,4.99800638 3.25181013,5.02541866 C3.06125316,5.25169458 2.87760759,5.48395136 2.70136709,5.722189 C2.68359494,5.74561404 2.66532911,5.76854067 2.64805063,5.79246411 C2.46687342,6.04066986 2.29556962,6.29585327 2.13117722,6.55651914 C2.10451899,6.59888357 2.07736709,6.64124801 2.05120253,6.68411085 C1.88977215,6.94627193 1.73574684,7.21441388 1.59159494,7.48803828 C1.5753038,7.51844099 1.56049367,7.54934211 1.54420253,7.57974482 C1.41782278,7.82446172 1.29786076,8.07316587 1.1853038,8.32635566 L1.17691139,8.32286683 L1.1734557,8.33183812 L1.12606329,8.4569378 C0.971544304,8.81529107 0.832822785,9.18161882 0.708417722,9.55492424 L0.650164557,9.70843301 L0.658063291,9.71092504 C0.655101266,9.72039474 0.652139241,9.72986443 0.649177215,9.73933413 L0.599316456,9.89782695 L0.591911392,9.89583333 L0.545506329,10.0817384 C0.449240506,10.4156699 0.365810127,10.7560805 0.294227848,11.0999801 L0.236468354,11.3352273 L0.236468354,11.3357257 L0.244367089,11.3377193 L0.233506329,11.3955343 C0.229063291,11.4194577 0.224620253,11.4433812 0.220177215,11.4673046 L0.208329114,11.5301037 L0.200924051,11.5291069 L0.168835443,11.7907695 C0.155012658,11.8804825 0.138227848,11.9701954 0.125886076,12.0609051 C0.104164557,12.2228868 0.0923164557,12.3878589 0.0765189873,12.5518341 L0.021721519,13.0013955 L0.021721519,13.0018939 L0.0296202532,13.0028907 L0.017278481,13.1982656 L0.00987341772,13.1982656 L0.00987341772,13.227173 L0.00987341772,13.4948166 L0.00987341772,13.5237241 L0.00987341772,13.6458333 C0.00789873418,13.7440191 0,13.8412081 0,13.9398923 C0,14.0879187 0.00543037975,14.2349482 0.00987341772,14.3814793 L0.00987341772,14.3854665 L0.00987341772,14.4138756 L0.00987341772,14.6820175 L0.0177721519,14.6820175 L0.0291265823,14.8773923 L0.021721519,14.8783892 L0.0508481013,15.118122 C0.0784936709,15.4470694 0.119468354,15.7725279 0.169329114,16.0944976 L0.200924051,16.3511762 L0.208329114,16.3501794 L0.219189873,16.4079944 C0.221164557,16.4189593 0.223139241,16.4299242 0.225113924,16.4408892 L0.243873418,16.5425638 L0.236468354,16.5445574 L0.240911392,16.5629984 L0.270037975,16.6816188 L0.292746835,16.7723285 C0.363835443,17.1162281 0.447265823,17.4551435 0.543531646,17.7885766 L0.591911392,17.9839514 L0.599316456,17.9824561 L0.639797468,18.1120415 C0.645721519,18.1309809 0.650658228,18.1504187 0.657075949,18.1693581 L0.650164557,18.1718501 L0.654607595,18.182815 L0.719772152,18.3542663 C0.765189873,18.4903309 0.810607595,18.6263955 0.859974684,18.7599681 L0.860468354,18.7599681 C0.941924051,18.9797648 1.02881013,19.1960726 1.12112658,19.4098884 L1.17691139,19.5569179 L1.18431646,19.5539274 L1.25589873,19.7134171 L1.248,19.7179027 L1.25787342,19.7363437 L1.28551899,19.7891746 L1.34574684,19.902811 C1.49434177,20.2143142 1.65577215,20.5183413 1.82658228,20.8163876 L1.94753165,21.0461523 L1.95444304,21.0421651 L2.05564557,21.2096292 L2.04922785,21.2141148 L2.21065823,21.4463716 C2.38788608,21.7209928 2.57251899,21.9901316 2.76850633,22.2507974 L2.89241772,22.4292265 L2.89883544,22.4252392 L3.01929114,22.5782496 L3.01336709,22.5837321 L3.16097468,22.7487041 C3.29525316,22.9111842 3.43298734,23.0706738 3.57417722,23.2266746 L3.57565823,23.2266746 C3.63243038,23.2889753 3.69265823,23.3482855 3.75091139,23.4100877 L3.80027848,23.4659091 L3.80077215,23.4659091 L3.81262025,23.479366 L3.99725316,23.6862041 L4.00613924,23.6777313 C4.0594557,23.7310606 4.11375949,23.7833931 4.16756962,23.8357257 C4.27173418,23.9369019 4.37688608,24.0375797 4.48401266,24.1352671 C4.54720253,24.1935805 4.61187342,24.2503987 4.67703797,24.3072169 C4.7816962,24.3994219 4.88783544,24.49063 4.9954557,24.5798445 C5.06506329,24.6376595 5.13516456,24.6934809 5.20575949,24.7498006 C5.31239241,24.8345295 5.42001266,24.9177632 5.52862025,24.9990032 C5.60365823,25.055323 5.67918987,25.1101475 5.75570886,25.1644737 C5.86332911,25.2422249 5.97243038,25.3174841 6.08301266,25.3917464 C6.16249367,25.4455742 6.24296203,25.4984051 6.32441772,25.5502392 C6.43401266,25.6210128 6.54508861,25.6892943 6.6571519,25.7570774 C6.74156962,25.8079147 6.82598734,25.8577552 6.91139241,25.9065989 C7.0234557,25.9708931 7.137,26.0331938 7.25103797,26.0939992 C7.33940506,26.1413477 7.42678481,26.1881978 7.51613924,26.2330542 C7.63067089,26.2913676 7.74668354,26.3466906 7.86318987,26.4020136 C7.95451899,26.4448764 8.0458481,26.4882376 8.13816456,26.5291069 C8.25516456,26.5814394 8.37364557,26.6302831 8.49212658,26.6786284 C8.58691139,26.717504 8.68070886,26.756878 8.77648101,26.79376 C8.89594937,26.8396132 9.01689873,26.8819777 9.13735443,26.9243421 C9.23510127,26.9587321 9.33186076,26.9941188 9.43059494,27.0260167 C9.55253165,27.0658892 9.67644304,27.1017743 9.79986076,27.1381579 C9.89908861,27.1675638 9.99782278,27.1979665 10.098038,27.2248804 C10.2239241,27.2587719 10.3517848,27.2886762 10.4796456,27.3190789 C10.5793671,27.342504 10.6781013,27.3684211 10.7788101,27.3898525 C10.9116076,27.4182616 11.0453924,27.4416866 11.1786835,27.4661085 C11.2764304,27.484051 11.3736835,27.5039872 11.4724177,27.5194378 C11.6126203,27.5423644 11.7552911,27.5593102 11.8974684,27.5772528 C11.9912658,27.5892145 12.0840759,27.6036683 12.1778734,27.6136364 C12.3353544,27.6305821 12.4938228,27.6410486 12.6522911,27.6520136 C12.7332532,27.6579944 12.8132278,27.6669657 12.8941899,27.6714514 C13.1346076,27.6839115 13.3765063,27.6908892 13.6198861,27.6908892 C14.0108734,27.6908892 14.3974177,27.6729466 14.779519,27.6405502 C14.9108354,27.6295853 15.0386962,27.6066587 15.1690253,27.5917065 C15.4178354,27.5632974 15.6666456,27.536882 15.9110127,27.4950159 C16.065038,27.4686005 16.2146203,27.4312201 16.3661772,27.3998206 C16.5824051,27.3549641 16.7996203,27.3130981 17.0118987,27.2577751 C17.1713544,27.2169059 17.3258734,27.1650718 17.4828608,27.1182217 C17.6067722,27.0813397 17.7321646,27.048445 17.8545949,27.0080742 L17.8555823,27.0120614 L17.8723671,27.0065789 L17.8827342,27.0025917 L17.9434557,26.9816587 C17.9577722,26.9766746 17.9735696,26.9731858 17.9883797,26.9682018 L17.9878861,26.9662081 L18.097481,26.9278309 L18.1098228,26.9238437 C18.1414177,26.9123804 18.1735063,26.9019139 18.2046076,26.890949 L18.2208987,26.8849681 L18.3388861,26.8440989 L18.4623038,26.8007376 L18.4608228,26.7957536 L18.5980633,26.7439195 L18.5970759,26.7419258 L18.6484177,26.7209928 L18.6484177,26.719996 L18.6691519,26.7110247 L18.6696456,26.7125199 L18.7673924,26.6726475 L18.7664051,26.6706539 L18.7871392,26.6616826 L18.7881266,26.6641746 L18.8853797,26.6243022 L18.8843924,26.6213118 L18.9056203,26.6123405 L18.9066076,26.6153309 L19.0043544,26.5759569 L19.0023797,26.5719697 L19.0236076,26.5629984 L19.0250886,26.5674841 L19.1223418,26.5276116 L19.1203671,26.5226276 L19.1203671,26.5221292 L19.2126835,26.4817584 C19.2136709,26.48126 19.2141646,26.48126 19.2146582,26.4807616 L19.2551392,26.4633174 L19.2541519,26.4613238 L19.3045063,26.4374003 L19.3040127,26.4364035 L19.3247468,26.4264354 L19.3252405,26.4279306 L19.4200253,26.3830742 L19.419038,26.3810805 L19.4397722,26.3711124 L19.4407595,26.3736045 L19.536038,26.328748 L19.534557,26.3252592 L19.5552911,26.3152911 L19.5567722,26.3187799 L19.6520506,26.2739234 L19.6500759,26.2699362 L19.6708101,26.2599681 L19.6727848,26.2644537 L19.7675696,26.2195973 L19.7651013,26.2141148 L19.7971899,26.1981659 L19.7976835,26.1986643 L19.8292785,26.1817185 L19.8969114,26.147827 L19.8959241,26.1463317 L19.9107342,26.1383573 L20.0573544,26.0596093 L20.1699114,25.9993022 L20.2493924,25.9564394 L20.2493924,25.9569378 L20.395519,25.8776914 L20.3930506,25.8732057 L20.3930506,25.8727073 L20.4508101,25.8398126 L20.4513038,25.8393142 L20.5209114,25.7999402 L20.5194304,25.7979466 L20.5673165,25.7695375 L20.6769114,25.7027512 L20.7860127,25.6364633 L20.8886962,25.5741627 L21.0052025,25.5033892 L21.0022405,25.4989035 L21.0002658,25.4949163 C21.022481,25.4804625 21.0446962,25.4645136 21.0669114,25.4495614 C21.133557,25.4057018 21.1997089,25.3608453 21.2653671,25.3159888 C21.5383671,25.1280901 21.8069241,24.9347089 22.0651139,24.7283692 L22.0656076,24.7288676 L22.0656076,24.729366 C24.0965696,26.352173 26.596519,27.4023126 29.326519,27.6395534 C29.7170127,27.673445 30.1119494,27.6908892 30.5103418,27.6908892 C30.9008354,27.6908892 31.2873797,27.6729466 31.6699747,27.6405502 C31.8017848,27.6295853 31.9301392,27.6066587 32.060962,27.5917065 C32.3087848,27.5632974 32.5575949,27.536882 32.8014684,27.4950159 C32.9559873,27.4686005 33.1060633,27.4307217 33.2586076,27.3993222 C33.4738481,27.3544657 33.6905696,27.3130981 33.9023544,27.2582735 C34.0623038,27.2164075 34.2178101,27.1645734 34.3752911,27.1177233 C34.4982152,27.0808413 34.6231139,27.048445 34.744557,27.0080742 L34.746038,27.0120614 L34.7623291,27.0065789 L34.7731899,27.0025917 L34.8324304,26.9821571 C34.8477342,26.9766746 34.8640253,26.9736842 34.8788354,26.9682018 L34.8783418,26.9662081 L34.9879367,26.9278309 L35.0017595,26.9233453 C35.0323671,26.9123804 35.0634684,26.9024123 35.0940759,26.890949 L35.1113544,26.8849681 L35.2293418,26.8440989 L35.3527595,26.8007376 L35.3507848,26.7952552 L35.488519,26.7439195 L35.4875316,26.7419258 L35.5393671,26.7209928 L35.5388734,26.719996 L35.5596076,26.7115231 L35.5601013,26.7125199 L35.6573544,26.6726475 L35.6568608,26.6706539 L35.6780886,26.6616826 L35.6785823,26.6641746 L35.7763291,26.6243022 L35.7748481,26.6213118 L35.7955823,26.6128389 L35.7970633,26.6153309 L35.8943165,26.5759569 L35.8928354,26.5719697 L35.9140633,26.5629984 L35.9155443,26.5674841 L36.0127975,26.5276116 L36.0108228,26.5226276 L36.0108228,26.5221292 L36.1460886,26.4633174 L36.1451013,26.4608254 L36.1944684,26.4374003 L36.1939747,26.4364035 L36.2147089,26.4264354 L36.2152025,26.4279306 L36.3109747,26.3830742 L36.3099873,26.3810805 L36.3302278,26.3711124 L36.3312152,26.3736045 L36.4264937,26.328748 L36.4250127,26.3252592 L36.4457468,26.3152911 L36.4472278,26.3187799 L36.5420127,26.2739234 L36.5405316,26.2699362 L36.5612658,26.2599681 L36.5627468,26.2644537 L36.6580253,26.2195973 L36.655557,26.2141148 L36.6871519,26.1981659 L36.6876456,26.1986643 L36.7143038,26.1847089 L36.7873671,26.147827 L36.7858861,26.1458333 L36.8006962,26.1383573 L36.9478101,26.0596093 L36.9473165,26.0596093 L37.0603671,25.9993022 L37.0603671,25.9988038 L37.1734177,25.9384968 L37.1729241,25.9379984 L37.285481,25.8776914 L37.2830127,25.8732057 L37.2835063,25.8727073 L37.3412658,25.8393142 L37.3417595,25.8398126 L37.3486709,25.835327 L37.4108734,25.7999402 L37.4098861,25.7979466 L37.4508608,25.7730263 L37.5673671,25.7027512 L37.6700506,25.6404506 L37.7860633,25.5701754 L37.8956582,25.5033892 L37.8926962,25.4989035 L37.8931899,25.4989035 L37.8907215,25.4949163 C37.9129367,25.4804625 37.9346582,25.465012 37.9568734,25.4500598 C38.0240127,25.4057018 38.0901646,25.3608453 38.1568101,25.3154904 C38.4293165,25.1280901 38.6973797,24.9347089 38.9555696,24.7283692 C41.2773038,26.5829346 44.2106962,27.6908892 47.4012911,27.6908892 L47.4037595,27.6908892 L47.4067215,27.6908892 C47.7982025,27.6908892 48.1857342,27.6729466 48.5693165,27.6405502 C48.6552152,27.6325758 48.7391392,27.6171252 48.8245443,27.6081539 C49.1207468,27.5772528 49.4164557,27.5428628 49.7067342,27.4930223 C49.8148481,27.4745813 49.92,27.4471691 50.0271266,27.4257376 C50.2912405,27.3739035 50.5548608,27.3205742 50.8135443,27.2537879 C50.9270886,27.2238836 51.0376709,27.1860048 51.1502278,27.1536085 C51.3146203,27.10626 51.4795063,27.0609051 51.6414304,27.0075758 L51.6429114,27.0120614 L51.7327595,26.9806619 C51.7465823,26.9761762 51.7608987,26.9731858 51.7747215,26.9682018 L51.7742278,26.9662081 L51.8867848,26.9268341 L51.9430633,26.9073963 C51.946519,26.9063995 51.9499747,26.9049043 51.9539241,26.9034091 L52.0047722,26.8859649 L52.1257215,26.8440989 L52.2491392,26.801236 L52.2471646,26.7957536 L52.3848987,26.7439195 L52.3839114,26.7419258 L52.4352532,26.7209928 L52.4347595,26.719996 L52.4559873,26.7110247 L52.456481,26.7125199 L52.5542278,26.6726475 L52.5532405,26.6706539 L52.5744684,26.6616826 L52.5754557,26.6641746 L52.6727089,26.6243022 L52.6712278,26.6213118 L52.691962,26.6123405 L52.693443,26.6153309 L52.7906962,26.5759569 L52.7892152,26.5719697 L52.810443,26.5629984 L52.8119241,26.5674841 L52.9091772,26.5276116 L52.9072025,26.5221292 L53.0419747,26.4633174 L53.0409873,26.4613238 L53.0908481,26.4374003 L53.0903544,26.4364035 L53.1110886,26.4264354 L53.1115823,26.4279306 L53.2068608,26.3830742 L53.2058734,26.3810805 L53.2266076,26.3711124 L53.2280886,26.3736045 L53.3223797,26.328748 L53.3208987,26.3257576 L53.3421266,26.3152911 L53.3436076,26.3187799 L53.4383924,26.2739234 L53.4364177,26.2699362 L53.4576456,26.2599681 L53.4596203,26.2644537 L53.5539114,26.2195973 L53.5519367,26.2146132 L53.5519367,26.2141148 L53.5840253,26.1976675 L53.584519,26.1986643 L53.625,26.1772329 L53.6832532,26.147827 L53.6822658,26.1463317 L53.6975696,26.1383573 L53.8441899,26.0596093 L53.9567468,25.9993022 L54.0697975,25.9384968 L54.1823544,25.8776914 L54.1798861,25.8727073 L54.3077468,25.7999402 L54.3067595,25.7979466 L54.3472405,25.7730263 L54.4568354,25.7067384 L54.5728481,25.6364633 L54.6755316,25.5741627 L54.792038,25.5033892 L54.7866076,25.4944179 C54.8251139,25.4694976 54.8621392,25.4430821 54.9001519,25.4176635 C54.9337215,25.3952352 54.9667975,25.372807 54.9998734,25.3498804 C55.2891646,25.152512 55.572038,24.9476675 55.846519,24.7283692 C58.1682532,26.5839314 61.1006582,27.6908892 64.2912532,27.6908892 C65.9672658,27.6908892 67.5712025,27.381878 69.0541899,26.8226675 L69.1450253,26.7912679 L69.1445316,26.7902711 C69.3148481,26.7249801 69.4822025,26.6542065 69.6490633,26.5819378 L69.6870759,26.5664872 L69.6865823,26.5659888 C69.6934937,26.5629984 69.7004051,26.5605064 69.7073165,26.5570175 L69.7078101,26.5580144 L69.8050633,26.5181419 L69.8040759,26.5161483 C69.9561266,26.4483652 70.1047215,26.3755981 70.2533165,26.3023325 L70.3342785,26.2644537 L70.3337848,26.2634569 C70.3406962,26.2599681 70.3476076,26.2569777 70.354519,26.2529904 L70.3550127,26.2544856 L70.4507848,26.2096292 L70.4493038,26.2071372 C70.5653165,26.147827 70.6788608,26.0835327 70.7933924,26.0207337 L70.8190633,26.0072767 L70.9651899,25.9285287 L71.0782405,25.8682217 L71.0767595,25.8652313 C71.1098354,25.8452951 71.1434051,25.8248604 71.1769747,25.8054226 L71.2036329,25.7899721 L71.2031392,25.7889753 C71.2312785,25.7720295 71.2584304,25.7540869 71.2860759,25.7376396 L71.3532152,25.6972687 L71.4687342,25.6264952 L71.5250127,25.5926037 L71.5255063,25.5936005 C71.5309367,25.5901116 71.5358734,25.5861244 71.5413038,25.5826356 L71.5719114,25.5641946 L71.6874304,25.4939195 L71.684962,25.4899322 C71.9614177,25.3095096 72.2284937,25.1166268 72.4901392,24.9167663 C72.5409873,24.8778907 72.5913418,24.8390152 72.6416962,24.8001396 C72.931481,24.5723684 73.2123797,24.3336324 73.4829114,24.0839314 C73.5273418,24.0425638 73.5712785,24.0001994 73.6152152,23.9583333 C73.8640253,23.7225877 74.1069114,23.4803628 74.3374557,23.2266746 L74.3290633,23.2266746 L74.3305443,23.2251794 L74.3374557,23.2251794 C74.3557215,23.2052432 74.3725063,23.1838118 74.3902785,23.1638756 C74.4277975,23.1220096 74.4633418,23.0786483 74.5008608,23.0362839 C74.7259747,22.7791069 74.9441772,22.5154506 75.150038,22.2413278 L75.1510253,22.2423246 L75.1554684,22.2363437 L75.2008861,22.2652512 L75.3677468,21.9941188 L75.3430633,21.9786683 C75.3445443,21.9766746 75.3460253,21.974681 75.3470127,21.9726874 L75.3716962,21.9886364 L75.5395443,21.717504 L75.5291772,21.7110247 L75.5331266,21.7050439 L75.5434937,21.7115231 L75.7113418,21.4408892 L75.7083797,21.4388955 C75.7093671,21.4369019 75.7108481,21.4349083 75.7118354,21.4329147 L75.7147975,21.4344099 L75.8791899,21.16876 C75.8915316,21.1488238 75.9038734,21.1288876 75.9162152,21.1089514 L76.0534557,20.8871611 L76.0490127,20.8841707 C76.05,20.882177 76.051481,20.8801834 76.0524684,20.8781898 L76.0574051,20.8811802 L76.2252532,20.6100478 L76.2099494,20.6005781 C76.2109367,20.5985845 76.2119241,20.5960925 76.2134051,20.5940989 L76.2292025,20.604067 L76.3960633,20.3329346 L76.360519,20.3105064 C76.4098861,20.2163078 76.4597468,20.1231061 76.5066456,20.0274123 L76.559962,20.0478469 L76.6700506,19.7567783 L76.639443,19.7448166 C76.6414177,19.7398325 76.6433924,19.7353469 76.6458608,19.7303628 L76.675481,19.7418262 L76.786557,19.451256 L76.7742152,19.4467703 C76.7761899,19.4417863 76.7786582,19.4368022 76.7806329,19.4323166 L76.7919873,19.4368022 L76.9020759,19.1457337 L76.8986203,19.1442384 L76.9045443,19.1297847 L76.908,19.1307815 L76.9988354,18.8925439 C77.0156203,18.8476874 77.0348734,18.8048246 77.0516582,18.7599681 L77.0491899,18.7599681 L77.0491899,18.7594697 L77.0516582,18.7594697 C77.059557,18.7380383 77.0659747,18.7161085 77.0738734,18.694677 L77.1345949,18.534689 L77.1311392,18.5336922 C77.1326203,18.5282097 77.1345949,18.5232257 77.1360759,18.5182416 L77.1400253,18.5197368 L77.2511013,18.2291667 L77.2372785,18.2236842 C77.2387595,18.2187002 77.2407342,18.2137161 77.2422152,18.2087321 L77.2570253,18.2142145 L77.3666203,17.9236443 L77.3320633,17.9101874 C77.3616835,17.810008 77.3932785,17.7113238 77.4209241,17.6106459 L77.4796709,17.6211124 L77.533481,17.3121013 L77.4979367,17.305622 C77.4989241,17.3011364 77.4999114,17.2966507 77.5013924,17.2916667 L77.5359494,17.2981459 L77.5897595,16.9886364 L77.575443,16.9861443 C77.5764304,16.9816587 77.5774177,16.9766746 77.5784051,16.9726874 L77.5922278,16.9751794 L77.6465316,16.6656699 L77.6411013,16.664673 L77.6440633,16.6507177 L77.6494937,16.6517145 L77.6830633,16.4588317 C77.6889873,16.4269338 77.6939241,16.3945375 77.6998481,16.3626396 L77.7033038,16.3427033 L77.7028101,16.3427033 C77.7037975,16.3377193 77.7042911,16.3332337 77.7052785,16.328748 L77.724038,16.2190989 C77.7250253,16.2136164 77.7265063,16.2076356 77.727,16.2021531 L77.7590886,16.0192384 L77.7561266,16.01874 C77.7571139,16.0142544 77.7581013,16.0092703 77.7585949,16.0047847 L77.7620506,16.0052831 L77.8158608,15.6962719 L77.8025316,15.6937799 C77.8030253,15.6892943 77.803519,15.6848086 77.8045063,15.6798246 L77.8178354,15.6823166 L77.8721392,15.3733054 L77.8361013,15.3668262 C77.8430127,15.3025319 77.8514051,15.2392344 77.8568354,15.1744418 Z" id="Fill-13" fill="#231F20" mask="url(#mask-2)"></path>
                    </g>
                </g>
            </g>
        </g>
    </g>
</svg>