<?xml version="1.0" encoding="UTF-8"?>
<svg width="122px" height="80px" viewBox="0 0 122 80" version="1.1" xmlns="http://www.w3.org/2000/svg" xmlns:xlink="http://www.w3.org/1999/xlink">
    <!-- Generator: Sketch 49.2 (51160) - http://www.bohemiancoding.com/sketch -->
    <title>Rectangle 3 Copy 19</title>
    <desc>Created with Sketch.</desc>
    <defs>
        <polygon id="path-1" points="0 0.471103448 63.5291429 0.471103448 63.5291429 63.7234552 0 63.7234552"></polygon>
    </defs>
    <g id="Ilustraciones" stroke="none" stroke-width="1" fill="none" fill-rule="evenodd">
        <g id="BMW" transform="translate(-39.000000, -60.000000)">
            <g id="Group" transform="translate(39.000000, 60.000000)">
                <rect id="Rectangle-3-Copy-19" x="0" y="0" width="122" height="80"></rect>
                <g id="Page-1" transform="translate(29.000000, 8.000000)">
                    <g id="Group-3" transform="translate(0.000000, 0.804759)">
                        <mask id="mask-2" fill="white">
                            <use xlink:href="#path-1"></use>
                        </mask>
                        <g id="Clip-2"></g>
                        <path d="M31.7691429,62.8518 C14.736,62.8518 0.88,49.0555241 0.88,32.0958 C0.88,15.1360759 14.736,1.34435172 31.7691429,1.34435172 C48.8045714,1.34435172 62.6491429,15.1360759 62.6491429,32.0958 C62.6491429,49.0555241 48.8045714,62.8518 31.7691429,62.8518 M31.7691429,0.47042069 C14.2514286,0.47042069 0,14.6604207 0,32.0958 C0,49.535731 14.2514286,63.7234552 31.7691429,63.7234552 C49.2822857,63.7234552 63.5314286,49.535731 63.5314286,32.0958 C63.5314286,14.6604207 49.2822857,0.47042069 31.7691429,0.47042069" id="Fill-1" fill="#231F20" mask="url(#mask-2)"></path>
                    </g>
                    <path d="M13.6642286,20.4850483 C13.6939429,20.5123586 13.7236571,20.5373931 13.7556571,20.5601517 C13.7602286,20.5624276 13.7785143,20.5373931 13.7785143,20.5351172 C14.4002286,19.7613241 15.0242286,18.9898069 15.6368,18.2228414 C15.8630857,17.9429103 16.0916571,17.6629793 16.3156571,17.3784966 C16.5465143,17.0985655 16.5945143,16.7298759 16.4619429,16.3976 C16.2882286,16.051669 15.9522286,15.8218069 15.5568,15.8354621 C15.2345143,15.8468414 14.9830857,16.0198069 14.7865143,16.2633241 C14.5099429,16.6024276 14.2379429,16.9460828 13.9636571,17.2874621 C13.3990857,17.9816 12.8436571,18.6848414 12.2836571,19.383531 C12.5716571,19.6179448 12.8665143,19.8478069 13.1568,20.0799448 C13.3305143,20.2142207 13.4973714,20.3484966 13.6642286,20.4850483" id="Fill-4" fill="#231F20"></path>
                    <path d="M49.8283429,23.1432552 L48.7380571,21.2884276 L52.4912,16.3839448 L46.8637714,18.9533931 L45.2820571,17.4968414 L50.4089143,10.7830483 L51.9974857,12.2441517 L49.0329143,16.1153931 L53.7666286,13.9533241 L55.1563429,15.6738759 L51.9974857,19.7977379 L56.4317714,17.7699448 L57.5243429,19.6270483 L49.8283429,23.1432552 Z M31.7689143,51.7804276 C21.3003429,51.7804276 12.8134857,43.3278759 12.8134857,32.9021517 C12.8134857,22.4741517 21.3003429,14.0261517 31.7689143,14.0261517 C42.2397714,14.0261517 50.7289143,22.4741517 50.7289143,32.9021517 C50.7289143,43.3278759 42.2397714,51.7804276 31.7689143,51.7804276 Z M7.71405714,18.5733241 C7.49234286,18.3867034 7.26148571,18.2023586 7.03062857,18.0202897 C7.02377143,18.0180138 6.95062857,17.9565655 6.95062857,17.9542897 C6.99177143,17.9042207 7.02377143,17.8564276 7.07177143,17.8086345 C7.66377143,17.073531 8.24662857,16.3407034 8.83862857,15.6078759 C9.52891429,14.7544276 10.2123429,13.8941517 10.9026286,13.0452552 C11.0329143,12.8859448 11.1609143,12.717531 11.2957714,12.5513931 C11.5243429,12.2669103 11.8352,12.0484276 12.1780571,11.9118759 C12.9209143,11.6410483 13.7666286,11.8185655 14.3312,12.3670483 C14.6054857,12.6356 14.8020571,12.9769793 14.8934857,13.3479448 C14.9872,13.7348414 14.9529143,14.1103586 14.8432,14.4836 C14.8934857,14.4426345 14.9460571,14.3948414 15.0009143,14.3561517 C15.6660571,13.8918759 16.5346286,13.7598759 17.2889143,14.1012552 C18.0409143,14.4426345 18.5254857,15.1185655 18.6397714,15.9264966 C18.6694857,16.2269103 18.6512,16.5318759 18.5666286,16.8300138 C18.3929143,17.3944276 17.9906286,17.8222897 17.6272,18.2706345 C16.9209143,19.1513931 16.2123429,20.0253241 15.5106286,20.9038069 C14.9232,21.6366345 14.3312,22.3649103 13.7437714,23.0954621 C13.6980571,23.1546345 13.6592,23.2047034 13.6112,23.2593241 C13.6043429,23.2729793 13.5563429,23.2206345 13.5426286,23.2092552 C13.3300571,23.0362897 13.1060571,22.8656 12.8912,22.6880828 C12.0294857,22.0053241 11.1769143,21.3202897 10.3152,20.6398069 C9.4512,19.9524966 8.58262857,19.2560828 7.71405714,18.5733241 Z M26.8683429,4.5836 L29.7094857,4.26953103 L31.7689143,10.2459448 L33.8214857,4.26953103 L36.6649143,4.5836 L36.9803429,13.081669 L34.7677714,12.7676 L34.5529143,7.10297931 L32.5552,12.7676 L30.9734857,12.7676 L28.9712,7.10297931 L28.7677714,12.7676 L26.5552,13.081669 L26.8683429,4.5836 Z M31.7689143,2.69691034 C15.0123429,2.69691034 1.43291429,16.2200828 1.43291429,32.9021517 C1.43291429,49.5819448 15.0123429,63.1073931 31.7689143,63.1073931 C48.5209143,63.1073931 62.1049143,49.5819448 62.1049143,32.9021517 C62.1049143,16.2200828 48.5209143,2.69691034 31.7689143,2.69691034 Z" id="Fill-6" fill="#231F20"></path>
                    <path d="M13.5938286,15.0955793 C13.6646857,14.7860621 13.5938286,14.4651655 13.3766857,14.2239241 C13.1115429,13.9394414 12.6818286,13.8415793 12.3092571,13.9895103 C12.0464,14.0987517 11.8841143,14.3308897 11.7149714,14.5516483 C11.0406857,15.3800621 10.3801143,16.2039241 9.71497143,17.0300621 C9.70811429,17.0414414 9.56411429,17.2166828 9.57554286,17.2212345 C9.70125714,17.3282 9.8384,17.4328897 9.97782857,17.5444069 C10.3321143,17.8311655 10.6909714,18.1156483 11.0406857,18.4024069 C11.3972571,17.9608897 11.7401143,17.5284759 12.0944,17.0892345 C12.4486857,16.6545448 12.7938286,16.222131 13.1481143,15.7851655 C13.3172571,15.5689586 13.5138286,15.3686828 13.5938286,15.0955793" id="Fill-8" fill="#231F20"></path>
                    <path d="M13.7668571,32.9012414 L31.7691429,32.9012414 L31.7691429,14.9788276 C21.9428571,15.2382759 14.0251429,23.1195862 13.7668571,32.9012414" id="Fill-10" fill="#231F20"></path>
                    <path d="M31.7691429,50.8268414 C41.5931429,50.5673931 49.5108571,42.681531 49.7691429,32.9044276 L31.7691429,32.9044276 L31.7691429,50.8268414 Z" id="Fill-12" fill="#231F20"></path>
                </g>
            </g>
        </g>
    </g>
</svg>