<?xml version="1.0" encoding="UTF-8"?>
<svg width="122px" height="80px" viewBox="0 0 122 80" version="1.1" xmlns="http://www.w3.org/2000/svg" xmlns:xlink="http://www.w3.org/1999/xlink">
    <!-- Generator: Sketch 49.2 (51160) - http://www.bohemiancoding.com/sketch -->
    <title>Rectangle 3 Copy 19</title>
    <desc>Created with Sketch.</desc>
    <defs>
        <polygon id="path-1" points="1.38123243 0.0992464286 17.2274595 0.0992464286 17.2274595 14.562675 1.38123243 14.562675"></polygon>
        <polygon id="path-3" points="0 0.960857143 75.8933676 0.960857143 75.8933676 32.4923536 0 32.4923536"></polygon>
    </defs>
    <g id="Ilustraciones" stroke="none" stroke-width="1" fill="none" fill-rule="evenodd">
        <g id="CHERY" transform="translate(-39.000000, -60.000000)">
            <g id="Group-2" transform="translate(39.000000, 60.000000)">
                <g id="Group">
                    <rect id="Rectangle-3-Copy-19" x="0" y="0" width="122" height="80"></rect>
                    <g id="Page-1" transform="translate(22.000000, 11.000000)">
                        <path d="M11.4761189,54.393575 C10.8500108,54.5684679 10.1880649,54.6506464 9.47763243,54.6506464 C8.60698378,54.6506464 7.82487568,54.4736464 7.12498378,54.113325 C6.43774054,53.7530036 5.89595676,53.2746821 5.50384865,52.667825 C5.11595676,52.0609679 4.92411892,51.3866821 4.92411892,50.6576107 C4.92411892,49.8316107 5.14968649,49.1046464 5.58606486,48.4956821 C6.0372,47.874075 6.61903784,47.3978607 7.36109189,47.0691464 C8.08838919,46.7277893 8.87682162,46.5634321 9.71374054,46.5634321 C10.6687135,46.5634321 11.4866595,46.7109321 12.1907676,47.0122536 C12.8864432,47.3030393 13.6032,47.6717893 14.3136324,48.1185036 L14.3136324,44.2792893 C12.2308216,43.5460036 10.3693622,43.1709321 8.72292973,43.1709321 C7.62671351,43.1709321 6.57898378,43.3205393 5.58606486,43.6176464 C4.59103784,43.9189679 3.70774054,44.3741107 2.92563243,44.9957179 C2.15828108,45.6110036 1.54482162,46.3927536 1.11898378,47.3325393 C0.686821622,48.2660036 0.46547027,49.3575036 0.46547027,50.602825 C0.46547027,51.6880036 0.657308108,52.6910036 1.01779459,53.5907536 C1.38460541,54.5031464 1.93482162,55.2954321 2.67476757,55.9739321 C3.40206486,56.665075 4.27271351,57.166575 5.26774054,57.5184679 C6.28174054,57.8619321 7.40747027,58.0389321 8.6639027,58.0389321 C9.34271351,58.0389321 10.0046595,57.9967893 10.6392,57.9209321 C11.2863892,57.8366464 11.9082811,57.7060036 12.5386054,57.5142536 C13.1626054,57.3203964 13.7760649,57.0717536 14.3810919,56.7620036 L14.3810919,53.0787179 C13.9320649,53.3631821 13.4788216,53.6202536 13.0572,53.8225393 C12.6250378,54.0269321 12.0959027,54.2292179 11.4761189,54.393575" id="Fill-1" fill="#231F20"></path>
                        <polygon id="Fill-3" fill="#231F20" points="27.3971838 48.6874321 20.8241027 48.6874321 20.8241027 43.3879679 16.4539946 43.3879679 16.4539946 57.8535036 20.8241027 57.8535036 20.8241027 52.2147893 27.3971838 52.2147893 27.3971838 57.8535036 31.7841568 57.8535036 31.7841568 43.3879679 27.3971838 43.3879679"></polygon>
                        <polygon id="Fill-5" fill="#231F20" points="38.9249514 51.8645821 45.0047351 51.8645821 45.0047351 48.9251179 38.9249514 48.9251179 38.9249514 46.3270107 45.2977622 46.3270107 45.2977622 43.3896536 34.5421946 43.3896536 34.5421946 57.8594036 45.4769514 57.8594036 45.4769514 54.9346893 38.9249514 54.9346893"></polygon>
                        <path d="M55.0764324,49.2881786 C54.6822162,49.5136429 53.9422703,49.63375 52.8713514,49.63375 L51.9248108,49.63375 L51.9248108,46.1759286 L52.8544865,46.1759286 C53.838973,46.1759286 54.5704865,46.3107857 55.0026486,46.5678571 C55.4453514,46.8375714 55.6688108,47.2969286 55.6688108,47.9480357 C55.6688108,48.6181071 55.4706486,49.0563929 55.0764324,49.2881786 M58.9005405,52.4552143 C58.6011892,52.0864643 58.2196216,51.7598571 57.7410811,51.4796071 C58.1331892,51.2773214 58.4915676,51.0645 58.8014595,50.8263929 C59.1176757,50.6030357 59.4191351,50.2300714 59.6952973,49.7264643 C59.9777838,49.2291786 60.1211351,48.60125 60.1211351,47.8806071 C60.1211351,47.2526786 59.9482703,46.5910357 59.6088649,45.8851429 C59.2652432,45.2003214 58.7213514,44.5997857 57.9497838,44.1109286 C57.1845405,43.6368214 56.1979459,43.3881786 54.9921081,43.3881786 L47.5504865,43.3881786 L47.5504865,57.8516071 L51.9248108,57.8516071 L51.9248108,52.215 L52.4181081,52.215 C52.9240541,52.215 53.3267027,52.2718929 53.6471351,52.3962143 C53.9696757,52.52475 54.2985405,52.8028929 54.6274054,53.2285357 C54.971027,53.6626071 55.3462703,54.35375 55.7636757,55.2914286 L56.9104865,57.8516071 L61.601027,57.8516071 L60.1358919,54.7161786 C59.6194054,53.5825357 59.202,52.8281786 58.9005405,52.4552143" id="Fill-7" fill="#231F20"></path>
                        <g id="Group-11" transform="translate(59.027027, 43.289775)">
                            <mask id="mask-2" fill="white">
                                <use xlink:href="#path-1"></use>
                            </mask>
                            <g id="Clip-10"></g>
                            <polygon id="Fill-9" fill="#231F20" mask="url(#mask-2)" points="9.2508 4.64856786 5.9220973 0.0992464286 1.38123243 0.0992464286 7.15955676 8.01788929 7.15955676 14.562675 11.5465297 14.562675 11.5465297 7.94203214 17.2278811 0.0992464286 12.585827 0.0992464286"></polygon>
                        </g>
                        <g id="Group-14" transform="translate(0.000000, 1.146918)">
                            <mask id="mask-4" fill="white">
                                <use xlink:href="#path-3"></use>
                            </mask>
                            <g id="Clip-13"></g>
                            <path d="M38.0148811,22.2979964 C36.0712054,22.2979964 34.1865568,22.2432107 32.3356378,22.1504964 L38.8981784,3.51913929 L52.2425027,32.4481036 L61.1049892,32.4481036 L56.7496378,25.3828536 L57.2914216,26.1962107 C68.4285568,23.8193536 75.8933676,19.4617821 75.8933676,14.4678536 C75.8933676,8.23281786 64.1912595,2.96074643 48.2265568,1.36353214 L48.2623946,1.41621071 C46.9216378,1.27713929 45.5450432,1.169675 44.136827,1.08960357 L44.252773,1.21813929 L44.2422324,1.21813929 L46.1585027,3.76988929 C46.1585027,3.76988929 50.180773,4.119675 53.5010432,4.55163929 C62.5406108,6.04349643 68.8839081,8.80596071 69.7903946,12.025675 C69.8536378,12.2448179 69.8726108,12.4618536 69.8726108,12.6852107 C69.8726108,15.4856036 65.8672054,18.0099607 59.4796378,19.7462464 L59.5239081,19.8157821 C57.8606108,20.2667107 56.0286649,20.6628536 54.0702324,21.0063179 L41.9022324,1.17599643 L35.9932054,1.17599643 L25.3093135,21.5141393 C22.8849892,21.1980679 20.6040162,20.7956036 18.5443946,20.3214964 L18.5928811,20.2772464 C11.0753676,18.5430679 6.20774595,15.831175 6.11920541,12.7758179 C6.19720541,9.09463929 13.3078541,5.92338929 23.660773,4.37253214 C27.3246649,3.90053214 32.1543405,3.50228214 32.1543405,3.50228214 L34.2013135,0.961067857 C33.4845568,0.952639286 32.7846649,1.007425 32.1016378,1.06431786 C30.8325568,1.13174643 29.5634757,1.228675 28.3386649,1.33824643 L28.3555297,1.31085357 C24.0318,1.715425 20.0137459,2.39813929 16.4362865,3.28946071 C16.3709351,3.30631786 16.2992595,3.32949643 16.2296919,3.33160357 C15.9429892,3.41378214 15.6626108,3.47910357 15.3822324,3.55496071 C15.1376919,3.62660357 14.9036919,3.69824643 14.6486108,3.76146071 C14.612773,3.77621071 14.5790432,3.795175 14.5368811,3.79728214 C5.69125946,6.27738929 -0.000632432432,10.1482107 -0.000632432432,14.4952464 C-0.000632432432,18.8570321 5.71234054,22.719425 14.6001243,25.2227107 L14.6275297,25.1763536 C17.0223405,25.8527464 19.6659081,26.4343179 22.4844486,26.8831393 L19.5457459,32.4923536 L28.6865027,32.4923536 L30.3434757,27.7997464 C32.8120703,27.9809607 35.3797459,28.088425 38.0148811,28.088425 C40.8249892,28.088425 43.5845027,27.970425 46.2343946,27.7618179 L44.0693676,22.1905321 C42.5662865,22.2537464 39.5854216,22.2979964 38.0148811,22.2979964" id="Fill-12" fill="#231F20" mask="url(#mask-4)"></path>
                        </g>
                    </g>
                </g>
            </g>
        </g>
    </g>
</svg>