<?xml version="1.0" encoding="UTF-8"?>
<svg width="122px" height="80px" viewBox="0 0 122 80" version="1.1" xmlns="http://www.w3.org/2000/svg" xmlns:xlink="http://www.w3.org/1999/xlink">
    <!-- Generator: Sketch 49.2 (51160) - http://www.bohemiancoding.com/sketch -->
    <title>Rectangle 3 Copy 19</title>
    <desc>Created with Sketch.</desc>
    <defs>
        <polygon id="path-1" points="0.000177272727 0.0434848485 77.6817955 0.0434848485 77.6817955 27.8299552 0.000177272727 27.8299552"></polygon>
    </defs>
    <g id="Ilustraciones" stroke="none" stroke-width="1" fill="none" fill-rule="evenodd">
        <g id="CHEVROLET" transform="translate(-39.000000, -60.000000)">
            <g id="Group-4" transform="translate(39.000000, 60.000000)">
                <rect id="Rectangle-3-Copy-19" x="0" y="0" width="122" height="80"></rect>
                <g id="Group-2" transform="translate(22.000000, 26.000000)">
                    <g id="Group-3">
                        <mask id="mask-2" fill="white">
                            <use xlink:href="#path-1"></use>
                        </mask>
                        <g id="Clip-2"></g>
                        <path d="M70.72845,11.0500218 L67.3487455,17.5370915 C67.1369045,17.9136703 66.7593136,17.9301945 66.49695,17.9301945 L49.7172,17.9301945 C49.0222909,17.9301945 48.7679045,18.2398067 48.7679045,18.8599006 L48.7661318,22.5909006 C48.7661318,23.2118642 48.4878136,23.5093006 47.8132909,23.5093006 L39.0046091,23.5093006 L30.1914955,23.5101703 C29.6011773,23.5101703 29.2404273,23.3066612 29.2404273,22.5830733 L29.2377682,18.8520733 C29.2377682,18.1702309 28.9213364,17.9267158 28.2884727,17.9267158 L7.72040455,17.9267158 C7.21517727,17.9267158 6.86506364,17.6144945 6.86506364,17.1805158 C6.86506364,17.0544097 6.89697273,16.9370006 6.95281364,16.8317673 L10.3325182,10.3455673 C10.4628136,10.1150976 10.6746545,9.95681273 11.1843136,9.95681273 L28.2884727,9.95768242 C28.8787909,9.95768242 29.2448591,9.72547333 29.2448591,9.02188848 L29.2439727,5.29175818 C29.2439727,4.62991879 29.5391318,4.36466121 30.1923818,4.36466121 L47.8150636,4.36292182 C48.4470409,4.36292182 48.7625864,4.63774606 48.7625864,5.29871576 L48.7608136,9.03058545 C48.7608136,9.67155212 49.0648364,9.95594303 49.7180864,9.95594303 L69.9608591,9.95594303 C70.6043591,9.95594303 70.8162,10.3716582 70.8162,10.702143 C70.8162,10.8273794 70.7842909,10.9465279 70.72845,11.0500218 M76.3284955,5.63267939 L54.1047,5.63528848 C53.5365409,5.63528848 53.1660409,5.46917636 53.1660409,4.70384303 L53.1642682,1.46944 C53.1642682,0.536255152 52.65195,0.0431369697 51.7230409,0.0431369697 L26.2826318,0.0440066667 C25.33245,0.0440066667 24.8422909,0.569303636 24.8422909,1.46161273 L24.8414045,4.69601576 C24.8414045,5.37872788 24.5125636,5.62659152 23.9018591,5.62659152 L9.33801818,5.63094 C8.22385909,5.63094 7.57149545,6.15362788 7.23556364,6.83807939 L0.144654545,20.4384006 C0.0542454545,20.6088612 0.000177272727,20.8123703 0.000177272727,21.0158794 C0.000177272727,21.5550915 0.359154545,22.2499794 1.35188182,22.2499794 L23.9009727,22.2473703 C24.5967682,22.2473703 24.8405182,22.5578521 24.8405182,23.1788158 L24.8396318,26.4132188 C24.8396318,27.3872794 25.4157682,27.8299552 26.2826318,27.8299552 L39.0046091,27.8290855 L51.7230409,27.8290855 C52.5899045,27.8290855 53.1678136,27.4168491 53.1678136,26.4219158 L53.1651545,23.186643 C53.1651545,22.5248036 53.4505636,22.2560673 54.1038136,22.2560673 L68.2439727,22.2517188 C69.2189727,22.2517188 69.9209727,21.9995067 70.4102455,21.1080673 L77.4213818,7.6677703 C77.5747227,7.37729152 77.6819727,7.21291879 77.6819727,6.8659097 C77.6819727,5.95446727 76.8780409,5.63267939 76.3284955,5.63267939" id="Fill-1" fill="#231F20" mask="url(#mask-2)"></path>
                    </g>
                    <g id="Group" transform="translate(53.890909, 24.500000)" fill="#DCBE31">
                        <path d="M2.083575,1.80067788 L1.674075,1.80067788 L1.674075,1.30495061 L2.09155227,1.30495061 C2.25552955,1.30495061 2.47180227,1.32321424 2.47180227,1.52411424 C2.47180227,1.67457182 2.39823409,1.80067788 2.083575,1.80067788 M2.69250682,1.52759303 C2.69250682,1.19797788 2.41773409,1.12144455 2.13587045,1.12144455 L1.45425682,1.12144455 L1.45425682,2.6564597 L1.674075,2.6564597 L1.674075,1.98331424 L1.97809773,1.98331424 L2.424825,2.6564597 L2.66946136,2.6564597 L2.20412045,1.96244152 C2.48243864,1.95548394 2.69250682,1.82937788 2.69250682,1.52759303" id="Fill-4"></path>
                        <path d="M1.97446364,3.04025697 C1.31589545,3.04025697 0.798259091,2.51669939 0.798259091,1.88008121 C0.798259091,1.2512903 1.3221,0.733820606 1.97446364,0.733820606 C2.62150909,0.733820606 3.14180455,1.2512903 3.14180455,1.88008121 C3.14180455,2.52278727 2.62150909,3.04025697 1.97446364,3.04025697 M1.97446364,0.518135758 C1.19800909,0.518135758 0.57135,1.13214182 0.57135,1.88703879 C0.57135,2.64193576 1.19091818,3.25681152 1.97446364,3.25681152 C2.74648636,3.25681152 3.36871364,2.64889333 3.36871364,1.88703879 C3.36871364,1.13214182 2.74648636,0.518135758 1.97446364,0.518135758" id="Fill-6"></path>
                    </g>
                </g>
            </g>
        </g>
    </g>
</svg>