<?xml version="1.0" encoding="UTF-8"?>
<svg width="122px" height="80px" viewBox="0 0 122 80" version="1.1" xmlns="http://www.w3.org/2000/svg" xmlns:xlink="http://www.w3.org/1999/xlink">
    <!-- Generator: Sketch 49.2 (51160) - http://www.bohemiancoding.com/sketch -->
    <title>Rectangle 3 Copy 19</title>
    <desc>Created with Sketch.</desc>
    <defs>
        <polygon id="path-1" points="1.87764706 1.40627594 8.90917647 1.40627594 8.90917647 11.2038981 1.87764706 11.2038981"></polygon>
        <polygon id="path-3" points="0 1.14410472 8.07472941 1.14410472 8.07472941 10.8624783 0 10.8624783"></polygon>
        <polygon id="path-5" points="0 0.386534483 63.4970353 0.386534483 63.4970353 37.6688124 0 37.6688124"></polygon>
    </defs>
    <g id="Ilustraciones" stroke="none" stroke-width="1" fill="none" fill-rule="evenodd">
        <g id="DAIHATSU" transform="translate(-39.000000, -60.000000)">
            <g id="Group-2" transform="translate(39.000000, 60.000000)">
                <g id="Group">
                    <rect id="Rectangle-3-Copy-19" x="0" y="0" width="122" height="80"></rect>
                    <g id="Page-1" transform="translate(29.000000, 14.000000)">
                        <path d="M12.8768,48.7264598 C12.0542118,48.7264598 11.5045647,48.7003174 11.5045647,48.7003174 C11.5045647,48.7003174 11.6250353,48.2820385 12.1464471,46.7022889 C12.6697412,45.1188046 12.8372706,44.642639 12.8372706,44.642639 C12.8372706,44.642639 13.0518588,45.1822934 13.5977412,46.8348684 C14.1266824,48.4799741 14.1944471,48.7189906 14.1944471,48.7189906 C14.1944471,48.7189906 13.7106824,48.7264598 12.8768,48.7264598 M16.5624471,49.0009553 C16.3968,48.5359936 15.8433882,46.9562439 15.5064471,46.0319223 C15.1582118,45.1076007 14.6048,43.4027409 14.5106824,43.1095723 C14.4165647,42.8164036 14.4052706,42.6875588 14.0852706,42.6483451 C13.7671529,42.6184681 12.9408,42.5624486 12.5248,42.5979276 C12.4570353,42.6035295 12.3252706,42.6109988 12.2612706,42.8164036 C12.2010353,43.0180738 11.5685647,44.9339403 11.3031529,45.7238151 C11.0302118,46.5099553 10.2433882,48.7880813 10.1436235,49.0943211 C10.0382118,49.4042957 9.34174118,51.4751495 9.21938824,51.8262049 C9.11021176,52.1828624 9.09138824,52.2836975 9.31727059,52.2836975 C9.55444706,52.2836975 9.71632941,52.3005033 9.94409412,52.3005033 C10.1718588,52.3005033 10.2753882,52.3098399 10.3506824,52.1305775 C10.4448,51.9158361 11.1713882,49.7497492 11.1713882,49.7497492 L12.8372706,49.7497492 C13.5582118,49.7497492 14.5502118,49.7404126 14.5502118,49.7404126 C14.5502118,49.7404126 14.6782118,49.9644906 14.9699765,50.8906795 C15.2692706,51.8168684 15.3577412,52.3173091 15.7944471,52.3173091 L17.3248,52.3173091 C17.5375059,52.3173091 17.6052706,52.2351472 17.6052706,52.0708234 C17.6052706,51.9046322 17.4339765,51.5199651 17.4339765,51.5199651 C17.4339765,51.5199651 16.7224471,49.471519 16.5624471,49.0009553" id="Fill-1" fill="#231F20"></path>
                        <path d="M36.9632,48.7264598 C36.1349647,48.7264598 35.5909647,48.7003174 35.5909647,48.7003174 C35.5909647,48.7003174 35.7114353,48.2820385 36.2328471,46.7022889 C36.7561412,45.1188046 36.9236706,44.642639 36.9236706,44.642639 C36.9236706,44.642639 37.1420235,45.1822934 37.6784941,46.8348684 C38.2130824,48.4799741 38.2808471,48.7189906 38.2808471,48.7189906 C38.2808471,48.7189906 37.7914353,48.7264598 36.9632,48.7264598 M40.6450824,49.0009553 C40.4869647,48.5359936 39.9335529,46.9562439 39.5890824,46.0319223 C39.2502588,45.1076007 38.6912,43.4027409 38.6027294,43.1095723 C38.5029647,42.8164036 38.4973176,42.6875588 38.1679059,42.6483451 C37.8441412,42.6184681 37.0290824,42.5624486 36.6093176,42.5979276 C36.5396706,42.6035295 36.4173176,42.6109988 36.3476706,42.8164036 C36.2817882,43.0180738 35.6568471,44.9339403 35.3839059,45.7238151 C35.1203765,46.5099553 34.3184941,48.7880813 34.2300235,49.0943211 C34.1246118,49.4042957 33.4243765,51.4751495 33.3114353,51.8262049 C33.1928471,52.1828624 33.1777882,52.2836975 33.4093176,52.2836975 C33.6370824,52.2836975 33.8027294,52.3005033 34.0304941,52.3005033 C34.2582588,52.3005033 34.3674353,52.3098399 34.4370824,52.1305775 C34.5312,51.9158361 35.2577882,49.7497492 35.2577882,49.7497492 L36.9199059,49.7497492 C37.6446118,49.7497492 38.6366118,49.7404126 38.6366118,49.7404126 C38.6366118,49.7404126 38.7646118,49.9644906 39.0563765,50.8906795 C39.3556706,51.8168684 39.4403765,52.3173091 39.8808471,52.3173091 L41.4112,52.3173091 C41.6239059,52.3173091 41.6879059,52.2351472 41.6879059,52.0708234 C41.6879059,51.9046322 41.5203765,51.5199651 41.5203765,51.5199651 C41.5203765,51.5199651 40.8050824,49.471519 40.6450824,49.0009553" id="Fill-3" fill="#231F20"></path>
                        <path d="M21.4098824,42.8838137 C21.4098824,42.6111855 20.9411765,42.6223894 20.6738824,42.6223894 C20.4103529,42.6223894 20.0376471,42.6167875 19.6781176,42.6167875 C19.3091765,42.6167875 19.2056471,42.7829786 19.2056471,43.1844516 C19.2056471,43.5840573 19.2301176,45.3878849 19.2301176,46.1646885 C19.2301176,46.9396248 19.2583529,51.3128797 19.2583529,51.8095858 C19.2583529,52.3025573 19.4861176,52.3399037 19.8418824,52.3436383 C20.1957647,52.3492403 20.7209412,52.3230978 21.0767059,52.3230978 C21.4268235,52.3230978 21.4757647,52.1288969 21.4757647,51.6826083 C21.4757647,51.2363197 21.4475294,47.9946585 21.4475294,47.2906803 C21.4475294,46.586702 21.4098824,43.1564419 21.4098824,42.8838137" id="Fill-5" fill="#231F20"></path>
                        <path d="M31.3362824,42.6149202 C30.9842824,42.6149202 30.6304,42.6223894 30.3838118,42.6223894 C30.1315765,42.6223894 29.6779294,42.6130528 29.6779294,42.8838137 C29.6779294,43.109759 29.6515765,45.529801 29.6515765,46.739822 C29.6515765,46.739822 28.9664,46.7528932 27.9461647,46.7528932 C26.9184,46.7528932 26.4271059,46.739822 26.4271059,46.739822 C26.4120471,45.529801 26.3875765,43.109759 26.3875765,42.8838137 C26.3875765,42.6130528 25.9320471,42.6223894 25.6816941,42.6223894 C25.4369882,42.6223894 25.0755765,42.6149202 24.7254588,42.6149202 C24.3734588,42.6149202 24.2793412,42.7829786 24.2793412,43.1825843 C24.2793412,43.5840573 24.3038118,45.3860176 24.3038118,46.1646885 C24.3038118,46.9377575 24.3226353,51.3128797 24.3226353,51.8058512 C24.3226353,52.30069 24.5541647,52.3399037 24.8854588,52.3455056 C25.2261647,52.3473729 25.7344,52.3249651 26.0656941,52.3249651 C26.3969882,52.3249651 26.4440471,52.1288969 26.4440471,51.6826083 C26.4440471,51.3110124 26.4308706,48.965663 26.4271059,47.8060596 C26.4271059,47.8060596 27.4774588,47.7985903 27.9311059,47.7985903 C28.3828706,47.7985903 29.6384,47.8060596 29.6384,47.8060596 C29.6384,48.965663 29.6252235,51.3110124 29.6252235,51.6826083 C29.6252235,52.1288969 29.6628706,52.3249651 29.9979294,52.3249651 C30.3311059,52.3249651 30.8374588,52.3473729 31.1781647,52.3455056 C31.5151059,52.3399037 31.7372235,52.3044247 31.7372235,51.8058512 C31.7372235,51.3128797 31.7522824,46.9396248 31.7522824,46.1646885 C31.7522824,45.3860176 31.7842824,43.5840573 31.7842824,43.1825843 C31.7842824,42.7829786 31.6845176,42.6149202 31.3362824,42.6149202" id="Fill-7" fill="#231F20"></path>
                        <path d="M48.2480941,42.7525414 C47.9657412,42.7357355 46.0946824,42.6983892 45.6899765,42.6946546 C45.2965647,42.685318 43.7511529,42.685318 43.4537412,42.6909199 C43.1600941,42.6946546 41.2833882,42.720797 41.1365647,42.720797 C40.9991529,42.720797 40.9313882,42.8832535 40.9313882,43.2231051 C40.9313882,43.5722933 40.9615059,43.7814327 41.1497412,43.7814327 C41.3360941,43.7814327 42.7949176,43.7851673 43.1883294,43.7945039 C43.3878588,43.7963712 43.4688,43.7945039 43.5233882,43.7945039 C43.5779765,43.7945039 43.6570353,43.7870346 43.6570353,43.8449214 C43.6570353,43.9065429 43.6909176,45.2640819 43.6909176,45.7850631 C43.6909176,46.3023097 43.6664471,47.6915931 43.6664471,48.2443187 C43.6664471,48.7989117 43.7059765,50.6251471 43.7059765,50.8566943 C43.7059765,51.0826396 43.7097412,51.6428345 43.7323294,51.9453397 C43.7455059,52.247845 43.7323294,52.313201 43.8697412,52.3393435 C44.0165647,52.3729552 44.5680941,52.4271073 44.9558588,52.4457805 C45.3549176,52.4644537 45.8575059,52.5391463 45.8575059,51.988288 C45.8575059,51.4355624 45.8556235,49.568246 45.8556235,49.3945856 C45.8556235,49.2153232 45.8424471,47.3218645 45.8424471,47.1575406 L45.8424471,44.9130264 L45.8424471,43.9196141 C45.8424471,43.8281156 45.8688,43.8019732 45.9760941,43.8019732 C46.0852706,43.8019732 47.1600941,43.824381 47.5760941,43.824381 L48.2480941,43.824381 C48.3497412,43.824381 48.4645647,43.854258 48.4796235,43.6936688 C48.5040941,43.5349469 48.5229176,43.2081666 48.5323294,43.04571 C48.5379765,42.8851208 48.5229176,42.7674799 48.2480941,42.7525414" id="Fill-9" fill="#231F20"></path>
                        <path d="M50.6304,44.6708355 C50.6304,44.1143752 51.0407529,43.6382095 52.0026353,43.6382095 C53.4746353,43.6382095 53.8680471,44.3011068 54.1409882,44.3011068 C54.2219294,44.3011068 54.2821647,44.2282815 54.2821647,44.1255791 L54.2821647,43.4103969 C54.2821647,43.2684809 54.2426353,43.1788497 53.9809882,43.0537395 C53.7118118,42.926762 52.9438118,42.6840109 51.9009882,42.6840109 C50.6059294,42.6840109 48.9965176,43.0705454 48.9965176,45.2104899 C48.9965176,48.1216361 53.0718118,48.5473842 53.0718118,50.6145034 C53.0718118,50.9935686 52.9099294,51.5873752 51.8689882,51.5873752 C50.0431059,51.5873752 49.6139294,50.9730281 49.2148706,50.9730281 C49.0925176,50.9730281 49.0680471,51.2008407 49.0680471,51.3987762 L49.0680471,51.7890454 C49.0680471,51.9141555 49.0718118,52.0728774 49.3184,52.1475701 C49.5612235,52.2241301 50.7828706,52.5565124 51.7071059,52.5565124 C53.0793412,52.5565124 54.8506353,52.0224599 54.8506353,49.9740139 C54.8506353,47.0684696 50.6304,46.3290124 50.6304,44.6708355" id="Fill-11" fill="#231F20"></path>
                        <g id="Group-15" transform="translate(54.588235, 41.409567)">
                            <mask id="mask-2" fill="white">
                                <use xlink:href="#path-1"></use>
                            </mask>
                            <g id="Clip-14"></g>
                            <path d="M8.51105882,1.46976469 C8.30023529,1.46976469 7.96329412,1.45856079 7.82588235,1.45856079 C7.68847059,1.45856079 7.65647059,1.54632466 7.65647059,1.73492361 C7.65647059,1.92912451 7.67529412,2.8870578 7.67529412,3.51260877 C7.68658824,4.69088538 7.72047059,7.55721597 7.72047059,8.31721372 C7.72047059,10.2648247 6.25411765,10.2629573 5.86447059,10.2629573 C3.83152941,10.2629573 3.99905882,8.43298733 3.99905882,7.4470443 C3.99905882,6.91112451 3.99529412,5.69923621 3.99529412,5.3332422 C3.99529412,4.95977894 4.00658824,2.97668898 4.00658824,2.21482391 C4.00658824,1.44548958 3.80705882,1.41747984 3.60941176,1.41747984 C3.40611765,1.41001057 3.19341176,1.40627594 2.93741176,1.40627594 C2.67952941,1.40627594 2.48752941,1.43055105 2.19388235,1.43055105 C1.90211765,1.43055105 1.87764706,1.57059978 1.87764706,1.76106604 C1.87764706,1.94593036 1.90776471,6.40881642 1.90776471,8.01657579 C1.90776471,9.62246784 2.94117647,11.2040848 5.96047059,11.2040848 C8.96847059,11.2040848 8.91011765,8.99318223 8.91011765,8.39190637 L8.91011765,5.49196409 C8.91011765,2.76568223 8.87435294,1.76853531 8.87435294,1.62101732 C8.87435294,1.47163201 8.73694118,1.46976469 8.51105882,1.46976469" id="Fill-13" fill="#231F20" mask="url(#mask-2)"></path>
                        </g>
                        <g id="Group-18" transform="translate(0.000000, 41.409567)">
                            <mask id="mask-4" fill="white">
                                <use xlink:href="#path-3"></use>
                            </mask>
                            <g id="Clip-17"></g>
                            <path d="M3.3952,9.85887009 C2.84178824,9.85887009 2.18108235,9.82152376 2.18108235,9.82152376 L2.18108235,2.43815495 C2.18108235,2.19727114 2.38814118,2.21967894 2.51614118,2.21967894 L3.28602353,2.21967894 C4.47567059,2.21967894 5.89308235,2.24768868 5.89308235,5.9524443 C5.89308235,9.66280187 4.61872941,9.85887009 3.3952,9.85887009 M3.70955294,1.14410472 L0.434258824,1.14410472 C0.161317647,1.14410472 -0.000564705882,1.15530862 -0.000564705882,1.45781387 C-0.000564705882,1.76405375 0.00884705882,4.60610922 0.00884705882,6.24561297 C0.00884705882,7.88138208 0.0502588235,10.2510065 0.0502588235,10.4769518 C0.0502588235,10.7047644 0.0559058824,10.8112014 0.620611765,10.8485478 C1.19284706,10.8746902 3.38578824,10.856017 4.04084706,10.856017 C6.71378824,10.856017 8.07472941,8.9569563 8.07472941,6.22320517 C8.07472941,1.71176889 5.52790588,1.14410472 3.70955294,1.14410472" id="Fill-16" fill="#231F20" mask="url(#mask-4)"></path>
                        </g>
                        <g id="Group-21" transform="translate(0.000000, 0.328608)">
                            <mask id="mask-6" fill="white">
                                <use xlink:href="#path-5"></use>
                            </mask>
                            <g id="Clip-20"></g>
                            <path d="M7.69844706,9.4368566 L22.1850353,23.7610403 C22.1850353,23.7610403 57.7520941,20.6575605 57.7520941,16.9453356 C57.7520941,14.7120253 41.8706824,12.7457412 34.0946824,12.1164555 C27.1412706,11.5506587 19.4612706,11.5842704 19.4612706,11.5842704 L30.2208,22.2298409 L22.5520941,23.0047771 L8.83162353,9.4368566 C8.83162353,9.4368566 17.7935059,8.88973291 34.0946824,10.3406377 C50.4052706,11.7971445 59.4443294,14.2657367 59.4443294,16.8613064 C59.4443294,23.7610403 15.2918588,30.5151235 15.2918588,30.5151235 L19.2391529,24.4164683 L4.11256471,9.60491507 L7.69844706,9.4368566 Z M-0.000376470588,37.6688124 L63.4970353,37.6688124 L63.4970353,0.385974288 L-0.000376470588,0.385974288 L-0.000376470588,37.6688124 Z" id="Fill-19" fill="#231F20" mask="url(#mask-6)"></path>
                        </g>
                    </g>
                </g>
            </g>
        </g>
    </g>
</svg>