<?xml version="1.0" encoding="UTF-8"?>
<svg width="122px" height="80px" viewBox="0 0 122 80" version="1.1" xmlns="http://www.w3.org/2000/svg" xmlns:xlink="http://www.w3.org/1999/xlink">
    <!-- Generator: Sketch 49.2 (51160) - http://www.bohemiancoding.com/sketch -->
    <title>Rectangle 3 Copy 19</title>
    <desc>Created with Sketch.</desc>
    <defs>
        <polygon id="path-1" points="0.0204556992 0.377917647 14.5875 0.377917647 14.5875 13.7969765 0.0204556992 13.7969765"></polygon>
    </defs>
    <g id="Ilustraciones" stroke="none" stroke-width="1" fill="none" fill-rule="evenodd">
        <g id="DODGE" transform="translate(-39.000000, -60.000000)">
            <g id="Group" transform="translate(39.000000, 60.000000)">
                <rect id="Rectangle-3-Copy-19" x="0" y="0" width="122" height="80"></rect>
                <g id="Page-1" transform="translate(22.000000, 27.000000)">
                    <path d="M29.88135,10.0142824 L29.04585,14.5520471 C28.79835,15.7342824 28.45185,16.2099294 27.00135,16.2099294 L25.02735,16.2099294 C24.36135,16.2038118 23.38335,16.1441647 23.59185,14.9909882 L24.34335,10.8508706 C24.64485,9.22051765 25.19235,8.91463529 26.39235,8.9024 L29.06235,8.9024 C29.47785,8.9024 30.00585,9.31075294 29.88135,10.0142824 M31.88235,5.94757647 L23.95335,5.95675294 C22.23735,5.95675294 20.80635,7.17110588 20.49585,8.88404706 L19.21335,15.9071059 C18.85935,17.8356941 20.31885,19.3513412 22.03335,19.3513412 L29.16285,19.3666353 C31.06335,19.3666353 32.64135,18.0284 32.98035,16.1242824 L34.29135,8.89628235 C34.59285,7.23992941 33.34935,5.94757647 31.88235,5.94757647" id="Fill-1" fill="#231F20"></path>
                    <path d="M46.34175,0.00290588235 L43.39725,16.2039647 L39.35925,16.1932588 C38.65125,16.1932588 38.31525,15.6992588 38.44275,14.9911412 L39.19425,10.8479647 C39.49425,9.21608235 40.07025,8.92090588 41.26725,8.92090588 L43.85475,8.91478824 L44.39025,5.96149412 L38.83275,5.96149412 C37.11525,5.96149412 35.68125,7.17125882 35.36775,8.8842 L34.09125,15.9057294 C33.72675,17.8985529 35.06025,19.3514941 36.90375,19.3514941 L46.81125,19.3667882 L50.33625,-0.000152941176 L46.34175,0.00290588235 Z" id="Fill-3" fill="#231F20"></path>
                    <path d="M53.4243,5.96975294 C51.7053,5.96975294 50.2848,7.17492941 49.9743,8.89092941 L48.6993,15.9155176 C48.3228,17.9802235 49.6488,19.3521059 51.4893,19.3597529 L56.2908,19.3597529 L56.8653,16.2030471 L54.4773,16.2030471 C53.8173,16.1938706 52.7898,16.1434 53.0028,15.0009294 L53.7588,10.8501059 C54.0483,9.22128235 54.6543,8.92151765 55.8558,8.92151765 L59.0568,8.92151765 L56.8533,20.9778706 C56.7198,21.6844588 56.1393,22.3895176 55.1868,22.3895176 L47.9448,22.3895176 L47.3883,25.4514 L56.0178,25.4422235 L56.0163,25.4330471 L56.1693,25.4330471 C58.0083,25.4422235 60.0318,25.2831647 60.6528,21.8542235 L63.5598,5.96057647 L53.4243,5.96975294 Z" id="Fill-5" fill="#231F20"></path>
                    <g id="Group-9" transform="translate(63.000000, 5.569506)">
                        <mask id="mask-2" fill="white">
                            <use xlink:href="#path-1"></use>
                        </mask>
                        <g id="Clip-8"></g>
                        <path d="M12.2286,0.377917647 L4.6236,0.387094118 C2.9706,0.387094118 1.5996,1.60144706 1.3026,3.31438824 L0.0681,10.3374471 C-0.2574,12.2660353 1.1331,13.7832118 2.7696,13.7832118 L12.5451,13.7969765 L13.1226,10.6341529 L5.6406,10.6234471 C5.0121,10.6234471 4.0731,10.5745059 4.2726,9.42132941 L4.9941,5.28121176 C5.2761,3.65238824 5.8101,3.32968235 6.9621,3.32968235 L9.5121,3.32968235 C9.9216,3.32968235 10.4286,3.74109412 10.3101,4.43544706 L9.9966,5.87309412 L5.9076,5.87309412 L5.4651,8.30791765 L13.6821,8.30791765 L14.5461,3.32662353 C14.8281,1.67027059 13.6356,0.377917647 12.2286,0.377917647" id="Fill-7" fill="#231F20" mask="url(#mask-2)"></path>
                    </g>
                    <path d="M16.1133,1.72808235 L3.2088,1.72808235 L2.6238,4.92608235 L13.3728,4.92608235 C14.5608,4.91537647 15.1353,5.63114118 15.0048,6.40961176 L13.5828,14.1790235 C13.2228,15.6304353 12.1563,15.9485529 11.5758,15.9485529 L5.1198,15.9485529 L6.8328,6.51667059 L2.3313,6.51667059 L0.0003,19.3514941 L10.8753,19.3591412 C16.0593,19.3514941 17.2863,18.4154941 18.0828,15.1089059 L19.7493,5.93243529 C20.1903,2.8262 18.5718,1.72808235 16.1133,1.72808235" id="Fill-10" fill="#231F20"></path>
                </g>
            </g>
        </g>
    </g>
</svg>