<?xml version="1.0" encoding="UTF-8"?>
<svg width="122px" height="80px" viewBox="0 0 122 80" version="1.1" xmlns="http://www.w3.org/2000/svg" xmlns:xlink="http://www.w3.org/1999/xlink">
    <!-- Generator: Sketch 49.2 (51160) - http://www.bohemiancoding.com/sketch -->
    <title>Rectangle 3 Copy 19</title>
    <desc>Created with Sketch.</desc>
    <defs>
        <polygon id="path-1" points="0 1.43890909 52.07328 1.43890909 52.07328 69.8181818 0 69.8181818"></polygon>
    </defs>
    <g id="Ilustraciones" stroke="none" stroke-width="1" fill="none" fill-rule="evenodd">
        <g id="Ferrari" transform="translate(-39.000000, -60.000000)">
            <g id="Group" transform="translate(39.000000, 60.000000)">
                <rect id="Rectangle-3-Copy-19" x="0" y="0" width="122" height="80"></rect>
                <g id="Page-1" transform="translate(34.000000, 4.000000)">
                    <polygon id="Fill-1" fill="#231F20" points="26.037936 -0.000436363636 -0.000864 4.64247273 -0.000864 6.02356364 26.037936 1.3872 52.074576 6.02356364 52.074576 4.64247273"></polygon>
                    <g id="Group-15" transform="translate(0.000000, 1.331782)">
                        <g id="Group-4">
                            <mask id="mask-2" fill="white">
                                <use xlink:href="#path-1"></use>
                            </mask>
                            <g id="Clip-3"></g>
                            <path d="M51.178608,24.7276364 C51.178608,32.0716364 49.461408,39.3894545 46.085328,46.4716364 C38.706768,61.9538182 27.589248,68.0301818 26.038368,68.8178182 C24.491808,68.0301818 13.357008,61.9538182 5.982768,46.4716364 C2.606688,39.3894545 0.889488,32.0716364 0.889488,24.7276364 L0.889488,11.2658182 C2.321568,10.524 11.153808,6.276 26.083728,6.276 C41.011488,6.276 49.757328,10.5196364 51.178608,11.2658182 L51.178608,24.7276364 Z M-0.000432,6.04690909 L-0.000432,10.7269091 L-0.000432,24.7276364 C-0.000432,32.2112727 1.738368,39.6578182 5.172768,46.8534545 C13.231728,63.7603636 25.718688,69.6796364 25.850448,69.7341818 L26.038368,69.8192727 L26.224128,69.7341818 C26.349408,69.6796364 38.832048,63.7603636 46.891008,46.8534545 C50.323248,39.6578182 52.064208,32.2112727 52.064208,24.7276364 L52.064208,10.7269091 L52.075008,6.04690909 L26.038368,1.43890909 L-0.000432,6.04690909 Z" id="Fill-2" fill="#231F20" mask="url(#mask-2)"></path>
                        </g>
                        <path d="M35.162208,52.1057455 C34.317648,51.9028364 33.384528,51.7544727 32.449248,51.9552 C31.503168,52.1341091 30.997728,52.6795636 30.878928,53.4322909 C30.786048,54.0104727 31.459968,54.3682909 32.023728,54.2264727 C32.645808,54.0693818 32.818608,53.3253818 32.818608,53.3253818 C32.818608,53.3253818 32.421168,53.6352 32.019408,53.7181091 C31.606848,53.7879273 31.388688,53.5064727 31.503168,53.2119273 C31.729968,52.6686545 32.069088,52.5246545 32.421168,52.4701091 C32.771088,52.4242909 33.200928,52.4002909 33.982848,52.4701091 C34.758288,52.5421091 35.157888,52.6795636 34.950528,53.0504727 C34.695648,53.5064727 34.429968,53.5457455 34.039008,54.5428364 C33.868368,54.9639273 33.911568,55.1755636 33.632928,55.1755636 C33.494688,55.1755636 33.116688,55.1122909 32.833728,55.3610182 C32.494608,55.6599273 32.546448,56.0613818 32.546448,56.0613818 C32.546448,56.0613818 32.749488,55.6468364 33.440688,55.6468364 C33.591888,55.6468364 33.494688,56.0395636 33.347808,56.3472 C33.200928,56.6526545 32.431968,58.6992 30.857328,58.6992 C29.170368,58.6992 28.919808,57.0344727 29.008368,56.8141091 C29.176848,56.4017455 29.453328,56.7682909 29.792448,56.6919273 C30.116448,56.6002909 30.433968,56.0744727 30.001968,55.7712 C28.993248,55.0752 28.036368,56.7879273 29.083968,58.2890182 C30.075408,59.7377455 31.645728,59.1879273 32.470848,58.7624727 C33.280848,58.3261091 33.732288,57.4359273 34.017408,56.8752 C34.300368,56.3079273 34.537968,55.6839273 34.537968,55.6839273 C34.537968,55.6839273 35.093088,55.6839273 35.399808,55.5508364 C35.870688,55.3544727 36.060768,54.9246545 36.060768,54.9246545 C36.060768,54.9246545 35.710848,55.1428364 34.725888,55.1035636 C34.624368,55.1035636 34.885728,54.5144727 35.151408,53.9930182 C35.438688,53.4388364 35.784288,52.9544727 36.021888,52.8519273 C36.326448,52.7319273 37.257408,52.8519273 38.298528,52.5639273 C39.337488,52.2824727 40.093488,51.6628364 40.093488,51.6628364 C40.093488,51.6628364 39.058848,52.0555636 37.397808,52.1472 C36.618048,52.1952 35.993808,52.3195636 35.162208,52.1057455" id="Fill-5" fill="#231F20"></path>
                        <path d="M19.669824,54.3216 C18.447264,53.8350545 17.738784,53.5666909 17.721504,52.9819636 C17.717184,51.9914182 18.961344,52.2336 19.233504,52.3296 C20.842704,52.8554182 21.419424,54.0663273 21.419424,54.0663273 C21.419424,54.0663273 21.155904,52.4736 21.104064,52.1790545 C21.037104,51.8779636 20.864304,51.9194182 20.775744,51.9259636 C20.581344,51.9412364 20.581344,52.2706909 20.581344,52.2706909 C20.581344,52.2706909 16.611264,50.5885091 16.611264,53.2197818 C16.611264,54.4568727 17.911584,54.6597818 18.488304,54.9630545 C19.669824,55.5914182 21.142944,55.9710545 21.279024,56.9048727 C21.391344,57.7557818 20.639664,58.7005091 19.032624,58.7005091 C17.416944,58.7005091 16.725744,57.1492364 16.781904,56.8459636 C16.844544,56.5492364 17.144784,56.7303273 17.388864,56.7303273 C17.624304,56.7303273 18.039024,56.4706909 17.846784,55.9710545 C17.693424,55.5870545 16.449264,55.5565091 16.449264,56.8285091 C16.449264,58.6437818 18.231264,59.1870545 19.008864,59.1870545 C19.777824,59.1870545 21.380544,58.9186909 21.739104,57.2736 C22.123584,55.5565091 21.294144,54.9630545 19.669824,54.3216" id="Fill-7" fill="#231F20"></path>
                        <path d="M23.98032,44.6035636 C23.55048,44.4879273 22.734,44.2370182 22.77936,44.0755636 L22.79232,44.0384727 L22.7988,44.0319273 C22.94136,43.9512 23.56128,44.0602909 24.07752,44.1955636 C24.51384,44.2981091 25.32816,44.5577455 25.28496,44.7257455 L25.26768,44.7519273 L25.2504,44.7628364 C25.11432,44.8392 24.50736,44.7388364 23.98032,44.6035636 M21.83328,43.9250182 C21.69072,43.9250182 21.58056,43.8552 21.58056,43.7635636 C21.58056,43.6697455 21.69072,43.5933818 21.83328,43.5933818 C21.95856,43.5933818 22.06656,43.6697455 22.06656,43.7635636 C22.06656,43.8552 21.95856,43.9250182 21.83328,43.9250182 M19.01448,43.8792 C18.82008,43.8792 18.66888,43.7832 18.66888,43.6413818 C18.66888,43.5061091 18.82008,43.3970182 19.01448,43.3970182 C19.20672,43.3970182 19.3536,43.5061091 19.3536,43.6413818 C19.3536,43.7832 19.20672,43.8792 19.01448,43.8792 M26.92656,44.2828364 C27.04536,44.2828364 27.14688,44.3810182 27.14688,44.5032 C27.14688,44.6297455 27.04536,44.7235636 26.92656,44.7235636 C26.80128,44.7235636 26.68248,44.6297455 26.68248,44.5032 C26.68248,44.3810182 26.80128,44.2828364 26.92656,44.2828364 M26.32608,46.0588364 L26.98272,46.3708364 C27.36072,46.5213818 27.60048,46.4515636 27.6804,46.4188364 C27.77976,46.3708364 28.11024,46.0042909 28.19448,45.6857455 C28.22472,45.5548364 28.20744,45.4457455 28.13184,45.3650182 C27.88992,45.0617455 27.43632,43.6610182 27.27216,42.9104727 C27.20304,42.6290182 27.27864,41.8544727 27.3456,41.2326545 C27.39312,40.7002909 27.42552,40.3752 27.39744,40.2857455 C27.34992,40.1526545 27.15984,40.0282909 26.93736,39.8821091 L26.57448,39.6377455 C26.39304,39.4784727 26.38224,39.2668364 26.37576,39.0421091 L26.32608,38.6799273 C26.25264,38.3526545 24.58296,36.6312 24.3216,36.6159273 C23.95224,36.5810182 23.84856,37.0086545 23.82696,37.2552 C23.80968,37.3948364 23.98032,38.0537455 24.1272,38.6341091 L24.29784,39.3213818 C24.46848,40.4275636 25.62192,42.3606545 26.11008,43.1853818 L26.34984,43.5802909 C26.45136,43.8115636 26.406,43.9970182 26.22456,44.1017455 C26.05392,44.2021091 24.55488,44.0384727 23.84424,43.8792 C23.5332,43.8072 23.14224,43.6566545 22.77936,43.4973818 C22.34952,43.3293818 21.95856,43.1613818 21.72312,43.1504727 C21.44448,43.1417455 21.32568,43.1897455 21.21768,43.2333818 L21.0492,43.2857455 L20.88936,43.2290182 C20.69496,43.1504727 20.32776,42.9802909 19.31904,42.8930182 C17.8416,42.7512 17.7228,43.0479273 17.65584,43.2137455 C17.59104,43.4166545 18.48744,44.3810182 18.6516,44.5184727 C18.86112,44.6908364 19.52208,44.9417455 19.93032,44.8762909 C20.39688,44.8042909 21.14208,44.7017455 21.25008,44.7257455 L21.39264,44.8152 L21.53952,44.9199273 C21.6648,44.9722909 22.50072,45.0115636 22.74048,45.0290182 C23.03424,45.0486545 23.78808,45.1948364 24.33888,45.3213818 L24.948,45.4479273 C25.20288,45.4915636 25.8228,45.7992 26.32608,46.0588364" id="Fill-9" fill="#231F20"></path>
                        <path d="M26.110728,14.7091636 C26.156088,14.6655273 26.309448,14.6829818 26.376408,14.7549818 C26.410968,14.7855273 26.458488,14.8728 26.361288,15.0102545 C26.246808,15.1498909 26.115048,15.2480727 25.996248,15.3288 L25.788888,15.5186182 C25.730568,15.6015273 25.626888,15.6386182 25.555608,15.5949818 C25.534008,15.5818909 25.480008,15.5491636 25.480008,15.4553455 C25.480008,15.4117091 25.486488,15.3680727 25.505928,15.3135273 C25.588008,15.0560727 25.918488,14.8400727 26.054568,14.7528 L26.110728,14.7091636 Z M26.676648,15.2851636 C26.728488,15.2546182 26.806248,15.2786182 26.845128,15.3462545 C26.892648,15.4160727 26.909928,15.5448 26.773848,15.6669818 C26.551368,15.8698909 26.376408,15.9942545 26.106408,16.0968 C25.918488,16.1666182 25.670088,16.2211636 25.562088,16.1360727 C25.534008,16.1164364 25.523208,16.0837091 25.523208,16.0335273 L25.523208,16.0138909 C25.534008,15.8197091 25.918488,15.6975273 26.177688,15.6211636 C26.296488,15.5906182 26.421768,15.4858909 26.529768,15.3942545 L26.676648,15.2851636 Z M27.117288,27.2851636 C27.398088,28.5658909 28.756728,30.5077091 28.987848,30.8000727 C28.992168,30.8000727 29.009448,30.8044364 29.009448,30.8044364 C29.009448,30.8044364 29.009448,30.8175273 28.998648,30.8218909 C29.009448,30.8262545 29.015928,30.8437091 29.022408,30.8502545 C29.015928,30.8546182 29.009448,30.8611636 28.992168,30.8502545 L28.987848,30.8546182 L28.977048,30.8502545 C28.931688,30.8328 28.806408,30.7804364 28.471608,30.6124364 C28.450008,30.6102545 28.024488,30.3724364 27.147528,28.9455273 C27.000648,28.6880727 26.516808,27.4269818 26.516808,26.9688 C26.516808,26.9251636 26.516808,26.8837091 26.529768,26.8531636 C26.547048,26.8269818 26.568648,26.8008 26.581608,26.7920727 L26.588088,26.7920727 C26.709048,26.7549818 26.806248,26.7571636 26.875368,26.8008 C27.017928,26.8815273 27.071928,27.0757091 27.117288,27.2851636 Z M27.493128,23.4168 C27.611928,23.4168 27.702648,23.4909818 27.702648,23.5738909 C27.702648,23.6655273 27.611928,23.7331636 27.493128,23.7331636 C27.378648,23.7331636 27.279288,23.6655273 27.279288,23.5738909 C27.279288,23.4909818 27.378648,23.4168 27.493128,23.4168 Z M27.702648,22.9848 C27.817128,22.9848 27.920808,23.0568 27.920808,23.1397091 C27.920808,23.2291636 27.817128,23.2968 27.702648,23.2968 C27.590328,23.2968 27.486648,23.2291636 27.486648,23.1397091 C27.486648,23.0568 27.583848,22.9848 27.702648,22.9848 Z M27.920808,22.4764364 C28.052568,22.4764364 28.160568,22.5549818 28.160568,22.6618909 C28.160568,22.7644364 28.052568,22.8451636 27.920808,22.8451636 C27.791208,22.8451636 27.691848,22.7644364 27.691848,22.6618909 C27.691848,22.5549818 27.791208,22.4764364 27.920808,22.4764364 Z M28.013688,10.6488 C28.128168,10.6488 28.234008,10.7688 28.279368,10.8757091 C28.307448,10.9411636 28.296648,11.0000727 28.251288,11.0240727 C28.208088,11.0589818 28.160568,11.0764364 28.100088,11.0633455 C28.052568,11.0480727 28.013688,11.0197091 27.992088,10.9695273 L27.860328,10.8997091 C27.784728,10.8713455 27.709128,10.8538909 27.709128,10.7884364 C27.709128,10.6706182 27.849528,10.6488 28.013688,10.6488 Z M28.450008,11.3753455 C28.540728,11.4364364 28.523448,11.5040727 28.501848,11.5346182 C28.460808,11.6393455 28.257768,11.7200727 28.128168,11.6895273 L28.041768,11.6720727 C27.974808,11.6611636 27.974808,11.6480727 27.957528,11.5826182 L27.942408,11.5346182 C27.927288,11.4778909 27.953208,11.4146182 28.013688,11.3709818 C28.110888,11.2968 28.296648,11.2706182 28.450008,11.3753455 Z M28.687608,13.1469818 C28.784808,13.1186182 28.873368,13.0902545 28.942488,13.1317091 C29.009448,13.1709818 29.082888,13.2255273 29.067768,13.2997091 C29.056968,13.3520727 29.009448,13.3935273 28.914408,13.4240727 L28.828008,13.4393455 C28.620648,13.5004364 28.313928,13.5833455 28.268568,13.6684364 C28.218888,13.7535273 28.013688,13.8604364 27.888408,13.8189818 C27.849528,13.8058909 27.791208,13.7666182 27.810648,13.6509818 L27.817128,13.5746182 C27.860328,13.3171636 27.920808,12.9615273 28.251288,12.8393455 C28.354968,12.8066182 28.415448,12.8022545 28.443528,12.8328 C28.480248,12.8764364 28.460808,12.9375273 28.432728,13.0073455 C28.400328,13.0902545 28.387368,13.1557091 28.421928,13.1753455 C28.484568,13.2015273 28.586088,13.1753455 28.687608,13.1469818 Z M28.899288,14.8728 C28.791288,14.8728 28.709208,14.7898909 28.709208,14.6960727 C28.709208,14.5935273 28.791288,14.5193455 28.899288,14.5193455 C28.998648,14.5193455 29.078568,14.5935273 29.078568,14.6960727 C29.078568,14.7898909 28.998648,14.8728 28.899288,14.8728 Z M29.158488,15.2524364 C29.158488,15.3484364 29.089368,15.4335273 28.992168,15.4335273 C28.884168,15.4335273 28.806408,15.3484364 28.806408,15.2524364 C28.806408,15.1542545 28.884168,15.0800727 28.992168,15.0800727 C29.089368,15.0800727 29.158488,15.1542545 29.158488,15.2524364 Z M28.977048,15.9811636 C28.856088,15.9811636 28.756728,15.9091636 28.756728,15.8153455 C28.756728,15.7237091 28.856088,15.6451636 28.977048,15.6451636 C29.089368,15.6451636 29.175768,15.7237091 29.175768,15.8153455 C29.175768,15.9091636 29.089368,15.9811636 28.977048,15.9811636 Z M28.964088,16.5113455 C28.840968,16.5113455 28.726488,16.4262545 28.726488,16.3280727 C28.726488,16.2211636 28.840968,16.1360727 28.964088,16.1360727 C29.089368,16.1360727 29.193048,16.2211636 29.193048,16.3280727 C29.193048,16.4262545 29.089368,16.5113455 28.964088,16.5113455 Z M28.977048,17.1549818 C28.828008,17.1549818 28.709208,17.0677091 28.709208,16.9542545 C28.709208,16.8517091 28.828008,16.7600727 28.977048,16.7600727 C29.128248,16.7600727 29.231928,16.8517091 29.231928,16.9542545 C29.231928,17.0677091 29.128248,17.1549818 28.977048,17.1549818 Z M28.884168,18.9789818 C28.709208,18.9789818 28.573128,18.8895273 28.573128,18.7760727 C28.573128,18.6626182 28.709208,18.5688 28.884168,18.5688 C29.056968,18.5688 29.193048,18.6626182 29.193048,18.7760727 C29.193048,18.8895273 29.056968,18.9789818 28.884168,18.9789818 Z M28.579608,17.6349818 C28.579608,17.5346182 28.687608,17.4517091 28.851768,17.4386182 C28.946808,17.4277091 29.050488,17.4538909 29.106648,17.4975273 L29.156328,17.5957091 C29.171448,17.6982545 29.044008,17.7877091 28.884168,17.8029818 C28.767528,17.8138909 28.687608,17.7877091 28.627128,17.7397091 L28.579608,17.6437091 L28.579608,17.6349818 Z M28.828008,18.0866182 C28.942488,18.0713455 29.050488,18.0888 29.128248,18.1389818 L29.175768,18.2218909 C29.175768,18.3331636 29.056968,18.4291636 28.873368,18.4618909 C28.756728,18.4793455 28.637928,18.4597091 28.579608,18.4095273 L28.523448,18.3222545 C28.501848,18.2088 28.637928,18.1106182 28.828008,18.0866182 Z M28.752408,19.6553455 C28.545048,19.6553455 28.370088,19.5702545 28.370088,19.4458909 C28.370088,19.3258909 28.545048,19.2320727 28.752408,19.2320727 C28.964088,19.2320727 29.134728,19.3258909 29.134728,19.4458909 C29.134728,19.5702545 28.964088,19.6553455 28.752408,19.6553455 Z M28.620648,20.2269818 C28.471608,20.2269818 28.339848,20.1288 28.339848,20.0109818 C28.339848,19.8866182 28.471608,19.7993455 28.620648,19.7993455 C28.763208,19.7993455 28.892808,19.8866182 28.892808,20.0109818 C28.892808,20.1288 28.763208,20.2269818 28.620648,20.2269818 Z M28.471608,20.9622545 C28.307448,20.9622545 28.182168,20.8531636 28.182168,20.7157091 C28.182168,20.5848 28.307448,20.4778909 28.471608,20.4778909 C28.631448,20.4778909 28.756728,20.5848 28.756728,20.7157091 C28.756728,20.8531636 28.631448,20.9622545 28.471608,20.9622545 Z M28.279368,21.6189818 C28.160568,21.6189818 28.052568,21.5273455 28.052568,21.4051636 C28.052568,21.2873455 28.160568,21.1935273 28.279368,21.1935273 C28.415448,21.1935273 28.523448,21.2873455 28.523448,21.4051636 C28.523448,21.5273455 28.415448,21.6189818 28.279368,21.6189818 Z M28.110888,22.2429818 C27.996408,22.2429818 27.888408,22.1448 27.888408,22.0313455 C27.888408,21.9113455 27.996408,21.8153455 28.110888,21.8153455 C28.234008,21.8153455 28.339848,21.9113455 28.339848,22.0313455 C28.339848,22.1448 28.234008,22.2429818 28.110888,22.2429818 Z M28.670328,34.1077091 C28.540728,34.2669818 28.450008,34.4524364 28.432728,34.5964364 C28.415448,34.7011636 28.339848,34.7731636 28.272888,34.7993455 C28.218888,34.8168 28.160568,34.7993455 28.128168,34.7753455 C28.052568,34.6946182 28.069848,34.4611636 28.093608,34.4131636 C28.093608,34.4131636 28.251288,33.5469818 28.268568,33.5360727 C28.268568,33.5338909 28.354968,33.4335273 28.471608,33.4291636 L28.648728,33.5011636 C28.845288,33.6888 28.812888,33.9528 28.670328,34.1077091 Z M25.674408,18.6386182 L25.622568,18.7542545 C25.495128,19.1077091 25.266168,19.4044364 25.063128,19.6662545 L24.756408,20.0960727 C24.512328,20.4909818 24.011208,20.9928 23.879448,21.0909818 C23.795208,21.1455273 23.726088,21.1193455 23.685048,21.0844364 C23.641848,21.0408 23.631048,20.9753455 23.659128,20.9251636 L23.931288,20.4277091 L24.752088,18.8589818 L24.795288,18.7695273 C25.073928,18.2677091 25.464888,17.5804364 25.691688,17.5193455 L25.782408,17.5280727 C26.037288,17.6851636 25.985448,17.8117091 25.674408,18.6386182 Z M25.233768,25.3542545 C25.108488,25.4371636 24.888168,25.3673455 24.795288,25.3149818 C24.626808,25.2298909 24.540408,25.1251636 24.540408,25.0051636 C24.540408,24.8808 24.713208,24.6429818 24.948648,24.6429818 C25.199208,24.6429818 25.300728,24.6931636 25.328808,25.1229818 C25.328808,25.2298909 25.300728,25.3062545 25.233768,25.3542545 Z M24.832008,35.7702545 C24.823368,35.7593455 22.866408,34.2429818 22.201128,33.6015273 C21.728088,33.1455273 21.190248,32.5149818 21.216168,32.2553455 C21.229128,32.2182545 21.250728,32.1833455 21.283128,32.1615273 C21.516408,32.0328 21.745368,32.0808 22.218408,32.7157091 C22.691448,33.3397091 24.849288,35.7091636 24.875208,35.7331636 L24.832008,35.7702545 Z M21.326328,23.2400727 C21.445128,23.0437091 22.000248,22.5702545 22.684968,22.5833455 C23.743368,22.6138909 24.060888,23.1397091 24.127848,23.3011636 C24.151608,23.3338909 24.168888,23.3818909 24.140808,23.4168 C24.093288,23.4713455 23.974488,23.4342545 23.726088,23.3491636 C23.464728,23.2618909 23.086728,23.1397091 22.738968,23.1506182 C22.272408,23.1637091 21.890088,23.2444364 21.648168,23.3055273 L21.347928,23.3578909 L21.309048,23.3491636 L21.302568,23.3338909 C21.296088,23.3142545 21.302568,23.2793455 21.326328,23.2400727 Z M24.456168,15.2088 L24.294168,15.2306182 L24.175368,15.2764364 L24.099768,15.2873455 L24.060888,15.2328 C24.032808,15.1673455 24.054408,15.1477091 24.093288,15.1106182 L24.117048,15.0844364 L24.406488,14.8793455 C24.631128,14.7200727 24.942168,14.5062545 24.996168,14.4451636 C25.028568,14.3971636 25.084728,14.3797091 25.130088,14.3928 C25.181928,14.3971636 25.203528,14.4211636 25.210008,14.4495273 C25.222968,14.4866182 25.214328,14.5411636 25.147368,14.6284364 L24.985368,14.8924364 L24.875208,15.0735273 C24.790968,15.1586182 24.609528,15.1848 24.456168,15.2088 Z M23.810328,12.5884364 C23.849208,12.4597091 24.011208,12.3375273 24.186168,12.2960727 L24.512328,12.2611636 L24.551208,12.2720727 C24.728328,12.2764364 24.903288,12.4073455 25.006968,12.6102545 C25.108488,12.8153455 25.097688,13.0509818 24.989688,13.2102545 C24.948648,13.2648 24.896808,13.2997091 24.823368,13.3040727 C24.559848,13.3258909 24.104088,13.0357091 23.849208,12.7520727 C23.799528,12.7084364 23.795208,12.6517091 23.810328,12.5884364 Z M25.240248,11.6851636 C25.346088,11.6371636 25.458408,11.6284364 25.534008,11.6502545 L25.600968,11.7200727 C25.642008,11.8117091 25.555608,11.9404364 25.387128,12.0189818 C25.289928,12.0648 25.181928,12.0778909 25.097688,12.0517091 L25.028568,11.9818909 C25.024248,11.9666182 25.024248,11.9491636 25.024248,11.9360727 C25.024248,11.8488 25.108488,11.7462545 25.240248,11.6851636 Z M29.808648,48.1608 L29.838888,48.1651636 L29.845368,48.1738909 C29.972808,48.3091636 29.009448,49.2997091 28.964088,49.3477091 C28.523448,49.8058909 28.002888,50.2662545 27.860328,50.2662545 L27.832248,50.2597091 L27.817128,50.2553455 C27.691848,50.1178909 28.659528,49.1229818 28.709208,49.0771636 C29.149848,48.6189818 29.672568,48.1608 29.808648,48.1608 Z M30.914568,47.4866182 C31.061448,47.4866182 31.184568,47.6088 31.184568,47.7484364 C31.184568,47.8989818 31.061448,48.0080727 30.914568,48.0080727 C30.769848,48.0080727 30.648888,47.8989818 30.648888,47.7484364 C30.648888,47.6088 30.769848,47.4866182 30.914568,47.4866182 Z M33.813288,38.2618909 C33.847848,38.1178909 34.016328,38.0393455 34.016328,38.0349818 L34.022808,38.0349818 L34.027128,38.0349818 C34.046568,38.0393455 34.368408,38.1440727 34.368408,38.3928 C34.368408,38.6677091 34.340328,38.8684364 34.310088,39.0189818 C34.282008,39.1346182 34.193448,39.1935273 34.124328,39.1935273 C34.063848,39.2000727 34.016328,39.1564364 33.988248,39.0931636 L33.955848,38.8138909 L33.934248,38.6218909 L33.886728,38.5215273 C33.837048,38.4538909 33.780888,38.3644364 33.813288,38.2618909 Z M37.992888,36.3462545 L38.424888,35.7004364 C38.787768,35.1724364 39.252168,34.5048 39.347208,34.1622545 C39.472488,33.7302545 39.489768,32.7768 39.489768,32.0655273 C39.489768,31.5702545 39.472488,31.1884364 39.472488,31.1797091 L39.528648,31.1731636 C39.532968,31.1884364 40.245768,33.2022545 39.895848,34.3040727 C39.567528,35.3164364 39.124728,35.7702545 38.757528,36.1411636 L38.474568,36.4313455 C38.260728,36.6953455 38.107368,36.6168 38.072808,36.5818909 C38.005848,36.5513455 37.977768,36.4880727 37.977768,36.4182545 C37.984248,36.3986182 37.984248,36.3724364 37.992888,36.3462545 Z M26.845128,51.2960727 C26.734968,51.4117091 26.609688,51.4880727 26.529768,51.4880727 L26.452008,51.4640727 C26.393688,51.3811636 26.484408,51.1935273 26.609688,51.0604364 C26.724168,50.9448 26.847288,50.8706182 26.938008,50.8706182 L27.000648,50.8946182 C27.078408,50.9731636 26.981208,51.1564364 26.845128,51.2960727 Z M25.577208,53.2182545 C25.464888,53.3448 25.318008,53.4233455 25.214328,53.4233455 L25.130088,53.3906182 C25.108488,53.3709818 25.097688,53.3426182 25.097688,53.3055273 C25.097688,53.2008 25.168968,53.0611636 25.300728,52.9280727 C25.419528,52.7993455 25.562088,52.7186182 25.670088,52.7186182 L25.741368,52.7600727 C25.834248,52.8429818 25.762968,53.0349818 25.577208,53.2182545 Z M29.231928,45.5273455 L29.218968,45.5971636 L29.175768,45.5317091 C29.149848,45.4880727 28.432728,44.3295273 28.620648,44.0328 C28.637928,43.9738909 28.709208,43.9455273 28.802088,43.9586182 C28.903608,43.9629818 28.992168,44.0131636 29.056968,44.1004364 C29.368008,44.4800727 29.231928,45.4815273 29.231928,45.5273455 Z M28.268568,42.0320727 L28.234008,42.0648 L28.225368,42.0648 C28.192968,42.0735273 28.167048,42.0342545 28.160568,42.0189818 C28.104408,41.9273455 28.046088,41.6698909 28.046088,41.4211636 C28.046088,41.2400727 28.074168,41.0720727 28.160568,40.9477091 C28.160568,40.9477091 28.579608,40.2255273 28.586088,40.2168 C28.612008,40.2146182 28.756728,40.1535273 28.845288,40.2233455 C28.884168,40.2691636 28.884168,40.3498909 28.845288,40.4764364 L28.681128,40.8364364 L28.501848,41.3142545 L28.268568,42.0320727 Z M18.261288,26.0437091 C18.047448,26.5717091 17.790408,26.9906182 17.630568,27.0648 L17.542008,27.0669818 C17.490168,27.0408 17.466408,26.9644364 17.466408,26.8488 C17.466408,26.6088 17.574408,26.1964364 17.716968,25.8146182 C17.926488,25.2800727 18.183528,24.8655273 18.352008,24.7978909 L18.440568,24.7913455 C18.488088,24.8131636 18.505368,24.8960727 18.505368,25.0051636 C18.505368,25.2560727 18.397368,25.6640727 18.261288,26.0437091 Z M16.963128,29.3317091 C16.760088,29.4822545 16.146648,29.1004364 16.004088,28.9848 L15.168168,28.3455273 L15.183288,28.2953455 C15.189768,28.3018909 15.950088,28.4568 16.386408,28.7317091 C16.777368,28.9782545 16.980408,29.1288 17.004168,29.2444364 C17.004168,29.2618909 16.993368,29.3011636 16.963128,29.3317091 Z M13.660488,31.5506182 L13.617288,31.5440727 L13.604328,31.5375273 C13.509288,31.4720727 13.349448,31.0793455 13.247928,30.5862545 C13.168008,30.2371636 13.057848,29.5738909 13.209048,29.5346182 L13.247928,29.5411636 L13.258728,29.5433455 C13.366728,29.6109818 13.513608,29.9993455 13.621608,30.4946182 C13.699368,30.8437091 13.807368,31.5178909 13.660488,31.5506182 Z M13.101048,26.9600727 C13.170168,26.8531636 13.265208,26.7833455 13.338648,26.7746182 L13.433688,26.8008 C13.520088,26.8640727 13.509288,27.0342545 13.388328,27.1848 C13.312728,27.2895273 13.215528,27.3528 13.146408,27.3702545 L13.051368,27.3418909 C12.964968,27.2808 12.986568,27.1171636 13.101048,26.9600727 Z M15.487848,35.2815273 C15.621768,35.2815273 15.742728,35.3949818 15.742728,35.5368 C15.742728,35.6698909 15.621768,35.7877091 15.487848,35.7877091 C15.338808,35.7877091 15.220008,35.6698909 15.220008,35.5368 C15.220008,35.3949818 15.338808,35.2815273 15.487848,35.2815273 Z M16.237368,25.0749818 L16.183368,25.1033455 C16.086168,25.1077091 15.889608,24.9898909 15.706008,24.8131636 C15.524568,24.6451636 15.366888,24.4488 15.366888,24.3375273 C15.366888,24.3157091 15.377688,24.2982545 15.394968,24.2851636 L15.448968,24.2568 C15.546168,24.2524364 15.742728,24.3658909 15.939288,24.5513455 C16.155288,24.7455273 16.319448,24.9898909 16.237368,25.0749818 Z M14.381928,22.6553455 C14.172408,22.6553455 13.997448,22.5549818 13.997448,22.4306182 C13.997448,22.3040727 14.172408,22.1971636 14.381928,22.1971636 C14.602248,22.1971636 14.766408,22.3040727 14.766408,22.4306182 C14.766408,22.5549818 14.602248,22.6553455 14.381928,22.6553455 Z M13.520088,24.2633455 C13.388328,24.6582545 13.215528,24.9702545 13.101048,25.0248 L13.040568,25.0291636 C12.908808,24.9833455 12.982248,24.5382545 13.118328,24.1237091 C13.247928,23.7288 13.418568,23.4168 13.524408,23.3600727 L13.604328,23.3535273 C13.731768,23.3993455 13.660488,23.8509818 13.520088,24.2633455 Z M11.725128,30.8502545 C11.610648,30.8502545 11.513448,30.7564364 11.513448,30.6473455 C11.513448,30.5295273 11.610648,30.4400727 11.725128,30.4400727 C11.854728,30.4400727 11.958408,30.5295273 11.958408,30.6473455 C11.958408,30.7564364 11.854728,30.8502545 11.725128,30.8502545 Z M23.300568,12.4073455 L22.609368,12.8611636 L22.136328,13.0509818 L22.078008,13.0640727 C21.816648,13.1469818 21.635208,13.1360727 21.592008,13.0357091 C21.527208,12.8764364 21.885768,12.7149818 22.298328,12.5360727 L22.430088,12.4902545 L22.700088,12.3528 C22.898808,12.2589818 23.086728,12.1695273 23.272488,12.1302545 C23.348088,12.1193455 23.443128,12.1149818 23.464728,12.1695273 C23.488488,12.2568 23.317848,12.3920727 23.300568,12.4073455 Z M21.697848,14.8509818 C21.602808,14.8509818 21.516408,14.7658909 21.516408,14.6655273 C21.516408,14.5586182 21.602808,14.4757091 21.697848,14.4757091 C21.810168,14.4757091 21.890088,14.5586182 21.890088,14.6655273 C21.890088,14.7658909 21.810168,14.8509818 21.697848,14.8509818 Z M21.136248,13.8713455 L21.118968,13.9346182 C21.086568,14.0153455 21.071448,14.0262545 20.974248,14.0197091 C20.918088,14.0197091 20.877048,14.0109818 20.864088,13.9826182 C20.831688,13.9564364 20.842488,13.9237091 20.864088,13.8997091 L20.864088,13.8735273 L20.864088,13.8255273 C20.842488,13.7535273 20.820888,13.6640727 20.870568,13.6204364 C20.877048,13.6160727 20.890008,13.5964364 20.950488,13.6073455 C21.013128,13.6204364 21.097368,13.6488 21.136248,13.7186182 C21.162168,13.7644364 21.157848,13.8102545 21.136248,13.8713455 Z M20.244168,14.3098909 C20.244168,14.3098909 20.146968,14.3928 20.140488,14.3971636 C20.000088,14.5324364 19.930968,14.5935273 19.799208,14.5084364 C19.727928,14.4691636 19.699848,14.3360727 19.699848,14.2640727 C19.689048,14.0917091 19.717128,13.8604364 19.825128,13.7644364 L19.892088,13.6946182 C19.943928,13.6204364 20.004408,13.5440727 20.146968,13.5440727 C20.261448,13.5440727 20.419128,13.5637091 20.492568,13.6553455 C20.542248,13.7077091 20.566008,13.7709818 20.555208,13.8604364 C20.537928,14.0633455 20.380248,14.1942545 20.244168,14.3098909 Z M25.834248,8.63934545 L25.670088,9.01243636 C25.670088,9.00807273 25.505928,9.27207273 25.505928,9.27207273 L25.505928,9.2808 C25.505928,9.3288 25.534008,9.57752727 25.534008,9.57752727 C25.534008,9.59716364 25.698168,9.76298182 25.706808,9.77170909 C25.691688,9.77170909 25.635528,10.0269818 25.635528,10.0313455 C25.635528,10.0182545 24.957288,10.0444364 24.957288,10.0444364 L24.406488,9.78261818 L23.980968,9.63425455 C23.974488,9.63207273 22.985208,9.66698182 22.985208,9.66698182 C22.967928,9.67789091 22.792968,9.93752727 22.792968,9.93752727 L22.780008,9.97243636 L23.205528,10.0400727 C23.205528,10.0400727 23.272488,10.0749818 23.311368,10.1011636 C23.272488,10.1251636 23.196888,10.1928 23.196888,10.1928 C23.196888,10.1862545 22.598568,10.1557091 22.598568,10.1557091 C22.587768,10.1644364 22.162248,10.3346182 22.162248,10.3346182 L22.112568,10.3564364 L22.326408,10.4960727 C22.343688,10.4982545 23.240088,10.5288 23.240088,10.5288 C23.240088,10.5288 23.907528,10.7055273 23.914008,10.7055273 C23.914008,10.7098909 24.032808,10.8997091 24.032808,10.8997091 C24.032808,10.8997091 24.127848,11.0284364 24.158088,11.0786182 C24.121368,11.1026182 23.879448,11.2357091 23.879448,11.2357091 L23.052168,11.5826182 L21.369528,12.5404364 L20.261448,12.7084364 C20.244168,12.7128 19.825128,12.9528 19.825128,12.9528 C19.807848,12.9593455 19.466568,13.4371636 19.466568,13.4371636 C19.462248,13.4480727 19.270008,14.0437091 19.270008,14.0437091 C19.259208,15.0560727 19.298088,15.0822545 19.315368,15.0844364 C19.330488,15.1040727 19.635048,15.2764364 19.857528,15.1542545 C20.101608,15.0168 20.652408,14.8793455 20.950488,14.8117091 C21.071448,14.7855273 21.136248,14.8378909 21.157848,14.8902545 C21.166488,14.9491636 21.125448,15.0211636 21.023928,15.0560727 L20.961288,15.0691636 C20.473128,15.2088 19.972008,15.3680727 19.989288,15.5557091 L20.075688,15.7084364 C20.287368,15.8655273 20.877048,15.7869818 21.166488,15.7193455 L21.477528,15.6298909 C21.760488,15.5491636 22.065048,15.4553455 22.326408,15.4858909 C22.484088,15.5055273 22.609368,15.5709818 22.780008,15.6429818 C22.985208,15.7498909 23.240088,15.8698909 23.607288,15.8960727 C24.222888,15.9397091 24.644088,16.0618909 24.676488,16.0968 C24.756408,16.2648 24.695928,16.5157091 24.665688,16.7186182 L24.626808,16.8997091 C24.456168,18.4706182 22.713048,20.2466182 21.885768,21.1040727 C21.652488,21.3288 21.501288,21.4815273 21.473208,21.5448 L21.382488,21.7717091 C21.302568,21.9789818 21.233448,22.1622545 20.961288,22.2648 C20.814408,22.3237091 20.458008,22.6029818 20.038968,22.9106182 C19.438488,23.3666182 18.701928,23.9229818 18.488088,23.8968 C18.151128,23.8618909 16.548408,22.7491636 16.481448,22.6793455 C14.926248,21.1586182 14.263128,21.4749818 13.882968,21.6560727 L13.813848,21.6822545 C13.349448,21.8938909 12.874248,23.2291636 12.824568,23.5149818 L12.625848,24.3331636 L12.485448,24.9353455 C12.437928,25.1426182 12.252168,25.6400727 12.068568,26.1222545 L11.697048,27.1782545 C11.632248,27.4182545 11.485368,27.7673455 11.351448,28.0444364 L11.191608,28.4524364 C11.072808,28.9389818 11.072808,31.5702545 11.271528,31.7971636 L11.284488,31.8080727 L11.323368,31.8233455 C11.530728,31.7971636 11.958408,31.3498909 12.172248,31.1360727 L12.213288,31.0837091 C12.392568,30.9048 12.578328,30.4248 12.578328,30.2197091 C12.578328,30.0255273 12.485448,29.6175273 12.459528,29.5084364 C12.172248,28.6357091 12.280248,27.8088 12.336408,27.4008 L12.360168,27.2262545 C12.370968,27.0408 12.552408,26.8400727 12.731688,26.6415273 L12.960648,26.3840727 C13.079448,26.2160727 13.209048,26.1593455 13.334328,26.1091636 L13.524408,25.9913455 L13.571928,25.9608 C13.699368,25.8255273 13.926168,25.6008 14.025528,25.2975273 L14.211288,24.4618909 L14.254488,24.2371636 C14.256648,24.1913455 14.280408,24.1673455 14.319288,24.1629818 C14.392728,24.1433455 14.515848,24.2044364 14.563368,24.2720727 L15.943608,25.8888 C16.291368,26.1964364 16.662888,26.5542545 16.662888,26.6349818 L16.662888,26.6415273 C16.662888,26.6349818 16.652088,26.6415273 16.652088,26.6415273 C16.455528,26.6633455 15.487848,26.4517091 15.319368,26.4058909 C13.997448,26.0175273 13.401288,26.0808 12.930408,26.6720727 C12.405528,27.3418909 12.574008,29.4037091 12.675528,29.6328 C12.779208,29.8378909 13.258728,32.3448 13.282488,32.6829818 C13.306248,33.0124364 13.427208,33.6015273 13.567608,33.7302545 L13.600008,33.7695273 C13.757688,33.9353455 14.187528,34.3738909 14.263128,34.7993455 C14.347368,35.2618909 15.330168,36.5208 15.706008,36.6298909 C15.764328,36.6429818 15.807528,36.6320727 15.863688,36.5949818 C16.155288,36.3898909 16.284888,35.3884364 16.302168,34.9760727 C16.319448,34.4415273 16.140168,34.1862545 15.939288,33.9135273 L15.857208,33.8066182 C15.712488,33.6080727 15.455448,33.5360727 15.280488,33.4837091 C15.209208,33.4662545 15.112008,33.4444364 15.112008,33.4204364 C15.112008,33.4073455 15.088248,32.6371636 14.850648,32.4866182 C14.664888,32.3666182 14.470488,31.6248 14.444568,31.3455273 C14.420808,31.0597091 14.312808,30.3833455 14.172408,30.0844364 C14.025528,29.7833455 13.893768,29.2313455 13.956408,28.8037091 C13.986648,28.6248 14.116248,28.5658909 14.222088,28.5484364 C14.392728,28.5200727 14.613048,28.6029818 14.645448,28.6575273 C14.710248,28.8146182 16.114248,29.6524364 16.585128,29.8400727 C16.868088,29.9513455 17.263368,30.2829818 17.613288,30.5862545 C17.857368,30.8000727 18.079848,30.9833455 18.205128,31.0422545 C18.380088,31.1360727 18.896328,31.1469818 19.308888,31.1491636 C19.522728,31.1535273 19.749528,31.1578909 19.777608,31.1775273 C19.619928,31.2429818 19.619928,31.5375273 19.626408,31.6335273 C19.799208,32.8531636 24.175368,36.1848 24.512328,36.3746182 C24.903288,36.5884364 26.315928,38.0720727 26.426088,38.2706182 C26.568648,38.4735273 26.683128,38.6895273 26.659368,38.8575273 C26.631288,39.1040727 26.724168,39.3877091 26.925048,39.6102545 C27.117288,39.8240727 27.350568,39.9615273 27.577368,39.9615273 C27.780408,39.9615273 27.905688,39.7826182 28.002888,39.6538909 L28.024488,39.6233455 C28.279368,39.2764364 28.670328,38.7615273 28.720008,37.9673455 C28.767528,37.1491636 29.149848,36.8175273 29.270808,36.8022545 C29.316168,36.7869818 29.368008,36.8022545 29.372328,36.8393455 C29.396088,36.8742545 29.372328,36.9418909 29.301048,36.9898909 C29.139048,37.1011636 29.039688,37.4611636 28.931688,37.8538909 C28.931688,37.8582545 28.892808,38.2422545 28.892808,38.2422545 C28.884168,38.5368 28.866888,38.8771636 28.579608,39.2000727 C28.143288,39.6669818 27.640008,40.7688 27.519048,42.1542545 C27.436968,42.9833455 27.810648,44.1855273 28.627128,45.7215273 L28.670328,45.8218909 L28.899288,46.1993455 C29.128248,46.5549818 29.486808,47.1528 29.476008,47.2902545 C29.441448,47.4909818 29.430648,47.6502545 29.089368,48.0713455 C28.715688,48.5404364 27.367848,50.1397091 27.231768,50.1658909 C26.959608,50.1658909 26.920728,50.1942545 26.704728,50.3622545 L26.473608,50.5346182 C26.225208,50.7200727 26.177688,50.8553455 26.138808,50.9731636 C26.106408,51.0604364 26.071848,51.1389818 25.963848,51.2262545 L25.877448,51.2895273 C25.855848,51.2982545 25.806168,51.3658909 25.266168,51.9200727 C24.644088,52.5440727 24.358968,53.2531636 24.456168,53.9491636 C24.490728,54.1629818 24.676488,54.2458909 25.222968,54.2677091 C25.778088,54.2938909 27.046008,53.3971636 27.106488,53.1113455 L27.119448,52.9957091 C27.171288,52.7382545 27.259848,52.2953455 27.398088,52.2298909 C27.573048,52.1448 27.871128,51.8022545 28.093608,51.5557091 L28.128168,51.5055273 C28.234008,51.3658909 28.268568,51.2306182 28.296648,51.1128 C28.318248,51.0015273 28.339848,50.9033455 28.415448,50.8095273 C28.460808,50.7440727 28.540728,50.7048 28.627128,50.6677091 C28.791288,50.5804364 29.009448,50.4800727 29.156328,50.0895273 C29.305368,49.7120727 30.214728,49.0509818 30.880008,48.5775273 C31.208328,48.3353455 31.480488,48.1389818 31.547448,48.0560727 C31.644648,47.9426182 31.690008,47.7200727 31.690008,47.4822545 C31.690008,47.2138909 31.616568,46.9106182 31.439448,46.7426182 C31.186728,46.5113455 30.953448,45.8088 30.880008,45.5884364 L30.880008,45.5862545 C30.880008,45.5033455 30.867048,45.3288 30.856248,45.0168 L30.856248,44.9775273 C30.856248,44.1549818 32.063688,43.3455273 32.595048,42.9986182 L32.824008,42.8393455 C34.720488,41.1484364 35.092008,39.8720727 35.156808,39.5229818 L35.195688,39.0931636 C35.210808,38.8051636 35.234568,38.5215273 35.392248,38.4888 C35.461368,38.4800727 35.569368,38.5324364 35.651448,38.6109818 C35.690328,38.6611636 35.744328,38.7506182 35.711928,38.8662545 C35.625528,39.0975273 35.580168,41.4735273 35.575848,41.5760727 C35.597448,41.5869818 35.791848,41.8269818 35.791848,41.8269818 L35.830728,41.8706182 L35.835048,41.8160727 C35.835048,41.7833455 35.943048,41.1397091 35.943048,40.9018909 C35.943048,40.6531636 36.364248,39.5513455 36.446328,39.5338909 C36.446328,39.5426182 36.461448,39.5491636 36.461448,39.5491636 C36.508968,39.6997091 36.565128,40.0728 36.565128,40.4677091 C36.565128,40.8582545 36.508968,41.2662545 36.331848,41.4997091 C36.038088,41.8553455 35.824248,42.4138909 35.666568,42.7848 L35.530488,43.1011636 C35.511048,43.1273455 35.511048,43.1840727 35.511048,43.2342545 C35.511048,43.5418909 35.666568,44.1768 35.772408,44.2968 C35.802648,44.3295273 35.824248,44.3295273 35.830728,44.3295273 C35.869608,44.3142545 35.897688,44.2706182 35.897688,44.0175273 C35.897688,43.0553455 36.686088,42.3593455 36.707688,42.3528 C37.407528,41.7942545 37.560888,40.7404364 37.560888,39.9418909 C37.560888,39.3397091 37.483128,38.8837091 37.472328,38.8662545 C37.465848,38.8575273 37.141848,38.3753455 37.126728,38.3644364 C37.144008,38.3753455 37.239048,38.2989818 37.267128,38.2706182 C37.297368,38.3164364 37.614888,38.7462545 37.614888,38.7462545 C37.675368,38.8204364 37.822248,39.0429818 37.822248,39.1324364 C37.822248,39.6233455 37.891368,39.9658909 37.936728,40.2168 L37.951848,40.2691636 C38.005848,40.5375273 38.366568,41.3797091 38.379528,41.4124364 L38.418408,41.4997091 L38.435688,41.4015273 C38.435688,41.3971636 38.478888,40.9586182 38.435688,40.5833455 C38.396808,40.3738909 38.442168,40.1164364 38.474568,39.8349818 L38.537208,39.1935273 C38.537208,38.6720727 38.468088,38.3404364 38.275848,38.0393455 L38.185128,37.8975273 C38.163528,37.8429818 38.118168,37.7884364 38.118168,37.7688 L38.185128,37.7382545 C39.679848,37.2320727 40.377528,36.1280727 40.660488,35.5062545 C40.952088,34.8604364 40.967208,33.8589818 40.967208,33.6691636 C40.967208,33.4204364 40.952088,32.1157091 40.740408,31.4502545 C40.604328,31.0553455 40.660488,30.6364364 40.690728,30.1760727 L40.740408,29.3993455 C40.740408,28.8626182 41.012568,28.4655273 41.282568,28.0815273 L41.610888,27.5753455 C41.811768,27.1608 41.714568,26.7920727 41.621688,26.6917091 C41.589288,26.6458909 41.561208,26.6458909 41.550408,26.6502545 C41.533128,26.6546182 41.511528,26.6720727 41.511528,26.7178909 C41.481288,26.9338909 41.211288,27.4618909 41.012568,27.5382545 C40.593528,27.7040727 40.381848,28.1993455 40.230648,28.5571636 C40.142088,28.7360727 40.062168,28.9149818 39.999528,28.9149818 C39.990888,28.9149818 39.958488,28.8931636 39.919608,28.8320727 C39.662568,28.3848 39.798648,27.7040727 39.930408,27.1520727 L39.947688,27.0189818 C40.038408,26.5542545 40.576248,25.9062545 40.904568,25.5135273 L41.034168,25.3455273 C41.260968,25.0706182 41.317128,24.1368 41.278248,24.0669818 C41.260968,24.0626182 41.256648,24.0713455 41.245848,24.0778909 C41.239368,24.0822545 41.239368,24.0888 41.228568,24.0975273 L41.228568,24.0888 L41.228568,24.0997091 C41.211288,24.1106182 41.198328,24.1106182 41.198328,24.1586182 C41.137848,24.4488 40.604328,25.0466182 39.707928,25.8320727 C39.528648,25.9913455 39.310488,26.2858909 39.142008,26.5149818 C39.034008,26.6764364 38.904408,26.8509818 38.859048,26.8531636 C38.636568,25.6509818 39.049128,24.9702545 39.245688,24.6342545 L39.319128,24.4662545 C39.707928,23.4168 40.690728,22.6248 40.701528,22.6160727 C40.712328,22.5833455 40.712328,22.5549818 40.690728,22.5266182 C40.660488,22.5004364 40.582728,22.5135273 40.472568,22.5702545 L40.422888,22.6029818 C40.077288,22.7666182 39.040488,23.2793455 38.411928,24.5033455 C37.951848,25.3848 37.783368,26.3666182 37.783368,27.1128 C37.783368,27.4924364 37.833048,27.8000727 37.908648,28.0117091 C38.118168,28.6117091 38.509128,30.0953455 38.625768,30.6844364 C38.707848,31.0422545 38.718648,32.2858909 38.718648,33.0669818 L38.718648,33.7302545 L38.522088,34.3564364 C38.522088,34.3629818 38.424888,34.8560727 37.625688,35.6829818 C36.822168,36.5098909 35.923608,36.7782545 35.919288,36.7869818 C35.554248,36.8153455 35.234568,36.8022545 35.217288,36.7498909 C35.217288,35.8029818 33.603768,33.5949818 32.787288,32.8640727 C31.944888,32.1157091 31.275288,31.5920727 30.126168,30.8873455 C28.964088,30.1717091 27.681048,27.1782545 27.663768,27.1477091 L27.555768,26.7484364 C27.555768,26.7484364 27.493128,25.9411636 27.469368,25.7208 C27.519048,25.7469818 27.573048,25.7884364 27.573048,25.7884364 L27.968328,26.0197091 C27.974808,26.0197091 28.415448,26.1964364 28.415448,26.1964364 C28.421928,26.2008 29.015928,26.3120727 29.015928,26.3120727 C29.015928,26.3142545 29.350728,26.4888 29.350728,26.4888 L29.661768,26.6895273 L30.126168,27.0342545 C30.139128,27.0342545 30.629448,27.2960727 30.629448,27.2960727 C30.640248,27.3004364 31.208328,27.3288 31.208328,27.3288 L31.219128,27.2808 C31.219128,27.2808 30.558168,26.9644364 30.551688,26.9644364 C30.551688,26.9513455 30.311928,26.5346182 30.311928,26.5346182 C30.311928,26.5324364 30.028968,26.1288 30.028968,26.1288 C30.013848,26.1178909 29.683368,25.9171636 29.683368,25.9171636 C29.672568,25.9171636 29.253528,25.8473455 29.253528,25.8473455 C29.253528,25.8473455 29.158488,25.7797091 29.128248,25.7382545 C29.156328,25.7164364 29.231928,25.6728 29.231928,25.6728 C29.231928,25.6749818 29.689848,25.7295273 29.694168,25.7295273 C29.694168,25.7360727 30.111048,26.0197091 30.111048,26.0197091 L30.558168,26.3666182 C30.558168,26.3688 30.981528,26.5324364 30.981528,26.5324364 L31.037688,26.5542545 L30.851928,26.0720727 C30.838968,26.0677091 30.499848,25.7426182 30.499848,25.7426182 L30.003048,25.3062545 C29.985768,25.3018909 29.594808,25.0989818 29.594808,25.0989818 L29.171448,24.9528 L28.726488,24.6669818 L28.726488,24.6102545 C28.791288,24.6298909 29.355048,24.8589818 29.355048,24.8589818 L29.892888,25.0051636 C29.888568,25.0051636 30.329208,25.1818909 30.329208,25.1818909 C30.329208,25.1775273 30.988008,25.4982545 30.988008,25.4982545 C30.998808,25.4982545 31.525848,25.6182545 31.525848,25.6182545 C31.530168,25.6182545 32.182488,25.4982545 32.182488,25.4982545 C32.199768,25.4938909 32.817528,25.0618909 32.817528,25.0618909 C32.817528,25.0466182 32.929848,24.7913455 32.929848,24.7913455 L32.960088,24.7237091 L32.765688,24.8131636 C32.754888,24.8131636 32.199768,25.0989818 32.199768,25.0989818 L31.813128,25.1928 C31.813128,25.1862545 31.372488,25.0989818 31.372488,25.0989818 C31.372488,25.0924364 31.009608,24.7542545 31.009608,24.7542545 L30.499848,24.2633455 C30.499848,24.2568 30.052728,24.0255273 30.052728,24.0255273 C30.035448,24.0233455 29.508408,23.9404364 29.508408,23.9404364 C29.508408,23.9404364 29.175768,23.7680727 29.175768,23.7637091 L29.175768,23.7506182 C29.175768,23.7091636 29.171448,23.6218909 29.158488,23.5804364 C29.218968,23.5891636 29.838888,23.6437091 29.838888,23.6437091 C29.845368,23.6437091 30.573288,23.5804364 30.573288,23.5804364 L30.998808,23.6677091 C30.998808,23.6698909 31.417848,23.8444364 31.417848,23.8444364 C31.417848,23.8466182 31.830408,23.8968 31.830408,23.8968 L31.916808,23.9142545 L31.439448,23.4473455 C31.432968,23.4473455 30.953448,23.1004364 30.953448,23.1004364 C30.949128,23.1004364 30.551688,22.9542545 30.551688,22.9542545 C30.551688,22.9477091 29.888568,22.8866182 29.866968,22.8866182 C29.877768,22.8866182 29.877768,22.8778909 29.877768,22.8648 C29.877768,22.8211636 29.866968,22.7666182 29.866968,22.7360727 C29.916648,22.7317091 30.178008,22.6815273 30.178008,22.6815273 L30.681288,22.7993455 C30.681288,22.8015273 31.156488,23.0851636 31.156488,23.0851636 L31.666248,23.2618909 C31.677048,23.2618909 32.411448,23.1462545 32.411448,23.1462545 L32.450328,23.1397091 L32.227848,22.8451636 C32.210568,22.8364364 31.852008,22.7186182 31.852008,22.7186182 C31.852008,22.7120727 31.547448,22.4895273 31.547448,22.4895273 L31.096008,22.1688 C31.089528,22.1688 30.743928,22.0509818 30.743928,22.0509818 L30.214728,21.9637091 C30.214728,21.9549818 29.955528,21.7149818 29.944728,21.7084364 C29.955528,21.7084364 29.972808,21.6189818 29.972808,21.5775273 C30.013848,21.5949818 30.257928,21.6648 30.257928,21.6648 L30.622968,21.8371636 C30.629448,21.8371636 31.139208,22.0008 31.139208,22.0008 L31.020408,21.7717091 C31.009608,21.7651636 30.823848,21.5600727 30.823848,21.5600727 C30.823848,21.5600727 30.694248,21.4029818 30.648888,21.3309818 C30.681288,21.3266182 30.715848,21.3091636 30.715848,21.3091636 C30.715848,21.3200727 31.264488,21.6037091 31.264488,21.6037091 C31.264488,21.6037091 31.690008,21.7498909 31.694328,21.7498909 C31.694328,21.7520727 32.018328,22.0640727 32.018328,22.0640727 C32.024808,22.0684364 32.644728,22.4240727 32.644728,22.4240727 L32.709528,22.4568 L32.595048,22.1535273 C32.595048,22.1382545 32.253768,21.7084364 32.253768,21.7084364 L31.970808,21.2218909 C31.966488,21.2131636 31.469688,20.6917091 31.469688,20.6917091 C31.458888,20.6851636 30.817368,20.3360727 30.817368,20.3360727 L30.558168,20.0502545 L30.115368,19.5877091 C30.115368,19.5833455 30.063528,19.4175273 30.035448,19.3411636 C30.121848,19.3608 30.482568,19.4808 30.482568,19.4808 L30.998808,19.6291636 L31.350888,19.8604364 C31.350888,19.8626182 31.648968,20.2335273 31.648968,20.2335273 C31.666248,20.2378909 32.141448,20.4408 32.141448,20.4408 L33.361848,20.6044364 L33.433128,20.6109818 L33.106968,20.2531636 C33.089688,20.2509818 32.433048,19.9564364 32.433048,19.9564364 L32.050728,19.6662545 L31.830408,19.2713455 L31.605768,18.8633455 C31.605768,18.8568 31.236408,18.5055273 31.236408,18.5055273 C31.232088,18.5033455 30.776328,18.2415273 30.776328,18.2415273 L30.329208,17.8706182 C30.329208,17.8706182 30.221208,17.6415273 30.165048,17.4866182 C30.275208,17.6000727 30.471768,17.7898909 30.471768,17.7898909 L31.061448,18.3135273 C31.072248,18.3222545 31.519368,18.5251636 31.519368,18.5251636 L31.910328,18.8415273 L32.357448,19.2975273 C32.374728,19.3062545 33.081048,19.4131636 33.081048,19.4131636 L33.163128,19.4197091 L32.450328,18.8022545 C32.450328,18.7891636 32.290488,18.2895273 32.290488,18.2895273 C32.279688,18.2764364 31.916808,17.9273455 31.916808,17.9273455 L31.724568,17.6982545 C31.724568,17.6960727 31.530168,17.0982545 31.530168,17.0982545 C31.519368,17.0851636 31.128408,16.6793455 31.128408,16.6793455 C31.128408,16.6771636 30.482568,16.0728 30.482568,16.0706182 L30.482568,16.0662545 C30.482568,16.0662545 30.454488,15.9658909 30.443688,15.9048 C30.493368,15.9331636 30.558168,15.9658909 30.558168,15.9658909 L31.156488,16.3149818 C31.156488,16.3193455 31.864968,16.5178909 31.864968,16.5178909 L32.595048,16.6968 L33.439608,16.8364364 L33.236568,16.4262545 C33.230088,16.4131636 32.813208,16.2386182 32.813208,16.2386182 L32.411448,16.0073455 L31.931928,15.8022545 L31.519368,15.6255273 C31.519368,15.6211636 31.236408,15.2698909 31.089528,15.0691636 C31.232088,15.1695273 31.458888,15.3266182 31.458888,15.3266182 C31.469688,15.3288 31.830408,15.3549818 31.830408,15.3549818 L32.992488,15.3549818 L33.467688,15.6189818 L33.847848,16.0597091 L33.921288,16.1120727 L33.862968,15.6189818 C33.847848,15.6080727 33.603768,15.2873455 33.603768,15.2873455 C33.597288,15.2786182 32.916888,14.9011636 32.916888,14.9011636 L32.385528,14.7004364 C32.374728,14.6960727 31.569048,14.5542545 31.558248,14.5542545 L31.558248,14.5433455 C31.558248,14.5368 31.417848,14.3535273 31.417848,14.3535273 C31.407048,14.3491636 30.817368,13.7971636 30.817368,13.7971636 L30.530088,13.6553455 C30.530088,13.6509818 30.432888,13.5615273 30.376728,13.4938909 L30.681288,13.4938909 C30.681288,13.5004364 31.150008,13.7840727 31.150008,13.7840727 C31.156488,13.7928 31.769928,13.9913455 31.769928,13.9913455 L32.562648,14.1113455 C32.562648,14.1178909 32.856408,14.4473455 32.856408,14.4473455 C32.867208,14.4495273 33.292728,14.7178909 33.292728,14.7178909 C33.297048,14.7178909 33.780888,14.8051636 33.780888,14.8051636 L33.841368,14.8095273 L32.845608,13.5724364 C32.834808,13.5637091 32.363928,13.3040727 32.363928,13.3040727 C32.357448,13.3040727 31.791528,13.1317091 31.791528,13.1317091 C31.791528,13.1251636 31.286088,12.5557091 31.286088,12.5557091 C31.286088,12.5469818 30.676968,12.1717091 30.676968,12.1717091 C30.659688,12.1695273 30.307608,12.0778909 30.214728,12.0582545 C30.238488,12.0102545 30.329208,11.8575273 30.329208,11.8575273 L30.834648,11.6306182 C30.838968,11.6371636 31.558248,11.4909818 31.558248,11.4909818 C31.586328,11.4778909 31.644648,11.3011636 31.644648,11.3011636 C31.633848,11.2706182 31.324968,11.0677091 31.324968,11.0677091 C31.314168,11.0633455 30.949128,10.9477091 30.949128,10.9477091 C30.925368,10.9520727 30.733128,11.0677091 30.733128,11.0677091 C30.733128,11.0633455 30.121848,11.0895273 30.121848,11.0895273 L29.396088,10.9171636 C29.396088,10.9128 28.637928,10.2866182 28.637928,10.2866182 C28.637928,10.2778909 28.307448,10.1011636 28.307448,10.1011636 C28.296648,10.1011636 27.050328,9.95934545 27.050328,9.95934545 C27.050328,9.94189091 26.756568,9.50552727 26.756568,9.50552727 C26.756568,9.50334545 26.361288,9.06916364 26.361288,9.06916364 C26.361288,9.06261818 25.860168,8.60225455 25.860168,8.60225455 L25.834248,8.63934545 Z" id="Fill-11" fill="#231F20"></path>
                        <path d="M24.957072,9.95018182 C24.989472,9.95018182 25.300512,9.80181818 25.300512,9.80181818 C25.317792,9.76909091 25.250832,9.468 25.250832,9.468 C25.240032,9.45709091 24.553152,8.652 24.553152,8.652 L24.512112,8.61709091 L24.512112,8.66290909 L24.434352,8.98581818 L24.224832,9.51163636 L24.207552,9.53345455 L24.676272,9.77127273 L24.957072,9.95018182 Z" id="Fill-13" fill="#231F20"></path>
                    </g>
                </g>
            </g>
        </g>
    </g>
</svg>