<?xml version="1.0" encoding="UTF-8"?>
<svg width="122px" height="80px" viewBox="0 0 122 80" version="1.1" xmlns="http://www.w3.org/2000/svg" xmlns:xlink="http://www.w3.org/1999/xlink">
    <!-- Generator: Sketch 49.2 (51160) - http://www.bohemiancoding.com/sketch -->
    <title>Rectangle 3 Copy 19</title>
    <desc>Created with Sketch.</desc>
    <defs>
        <polygon id="path-1" points="2.80087527e-05 0 63.8841838 0 63.8841838 62.8935661 2.80087527e-05 62.8935661"></polygon>
    </defs>
    <g id="Ilustraciones" stroke="none" stroke-width="1" fill="none" fill-rule="evenodd">
        <g id="FIAT" transform="translate(-39.000000, -60.000000)">
            <g id="Group" transform="translate(39.000000, 60.000000)">
                <rect id="Rectangle-3-Copy-19" x="0" y="0" width="122" height="80"></rect>
                <g id="Page-1" transform="translate(29.000000, 9.000000)">
                    <mask id="mask-2" fill="white">
                        <use xlink:href="#path-1"></use>
                    </mask>
                    <g id="Clip-2"></g>
                    <path d="M48.3924306,51.6958018 C41.7979098,58.3200991 19.894365,56.8977423 15.8749689,51.6958018 C10.9571921,40.9869119 9.18913961,30.0181123 9.79384858,18.8529581 C9.61865383,15.1423414 10.847958,12.6410749 13.481481,11.3494361 C22.6268989,7.2810793 40.9145138,6.83397357 49.3971046,11.1856916 C52.899319,12.5278414 54.1814197,15.8692004 54.0380149,20.7374075 C54.3189427,32.9528855 51.7963344,43.052174 48.3924306,51.6958018 Z M5.25615055,18.7798282 C5.97863632,14.3606696 8.83146783,11.1042357 13.4097786,8.47932819 C23.404702,1.94356388 39.2659186,1.84503965 50.6808858,8.70940308 C54.8019536,10.8393304 57.1766757,14.0931278 58.291284,18.3101035 C60.5943037,30.3014736 58.5874766,40.7759868 53.4900236,49.8341101 C47.9251046,62.456174 18.4869252,62.6705683 11.571144,51.3073943 C5.71311335,43.440304 2.85874136,30.3257577 5.25615055,18.7798282 Z M31.9420499,62.8935661 C14.3038179,62.8935661 2.80087527e-05,48.8114009 2.80087527e-05,31.4467137 C2.80087527e-05,14.0821652 14.3038179,0 31.9420499,0 C49.5802818,0 63.8842118,14.0821652 63.8842118,31.4467137 C63.8842118,48.8114009 49.5802818,62.8935661 31.9420499,62.8935661 Z M39.8213322,19.4536784 L47.9189427,19.4536784 L47.891354,22.3082445 L45.2421462,22.3018612 L45.2124569,44.8010485 L42.5689908,44.8010485 L42.451074,22.3174031 L39.8178311,22.3007511 L39.8213322,19.4536784 Z M36.5902425,29.2976366 L32.9391615,29.2976366 L32.9391615,22.1880727 L35.203249,22.1807181 L36.5902425,25.5134736 L36.5902425,29.2976366 Z M39.2331484,44.8010485 L36.5896823,44.8010485 L36.5725969,32.6810419 L32.9294985,32.6804868 L32.8725007,44.8035463 L30.4843344,44.8010485 L30.4843344,19.3798546 L36.7189427,19.3798546 L39.2331484,24.4108348 L39.2331484,44.8010485 Z M24.6939449,44.8751498 L27.3374109,44.8751498 L27.3374109,19.3798546 L24.6939449,19.3798546 L24.6939449,44.8751498 Z M15.8193716,19.4536784 L23.4981112,19.4536784 L23.4981112,22.2618965 L18.4668989,22.2688348 L18.4754416,29.8606123 L22.4248158,29.8664405 L22.4379799,32.7114317 L18.4786626,32.702967 L18.4626976,44.8751498 L15.8193716,44.8751498 L15.8193716,19.4536784 Z" id="Fill-1" fill="#231F20" mask="url(#mask-2)"></path>
                </g>
            </g>
        </g>
    </g>
</svg>