<?xml version="1.0" encoding="UTF-8"?>
<svg width="122px" height="80px" viewBox="0 0 122 80" version="1.1" xmlns="http://www.w3.org/2000/svg" xmlns:xlink="http://www.w3.org/1999/xlink">
    <!-- Generator: Sketch 49.2 (51160) - http://www.bohemiancoding.com/sketch -->
    <title>Rectangle 3 Copy 19</title>
    <desc>Created with Sketch.</desc>
    <defs>
        <polygon id="path-1" points="0 0.602352941 77.6287952 0.602352941 77.6287952 31.0585412 0 31.0585412"></polygon>
        <path d="M0.833566265,0.175058824 C-0.0234939759,1.06917647 -0.0883373494,2.224 0.473638554,2.74635294 C0.673807229,2.93176471 0.904987952,3.01835294 1.15120482,3.03152941 C0.783759036,2.56658824 0.612722892,1.65647059 1.06662651,0.935529412 C0.982048193,0.721882353 0.967012048,0.483764706 1.01493976,0.242823529 C1.02621687,0.186352941 0.980168675,0.132705882 0.921903614,0.132705882 C0.893710843,0.132705882 0.862698795,0.144941176 0.833566265,0.175058824" id="path-3"></path>
        <path d="M0.276289157,0.209882353 C0.276289157,0.206117647 0.275349398,0.203294118 0.275349398,0.200470588 C0.275349398,0.196705882 0.275349398,0.196705882 0.27346988,0.193882353 C0.274409639,0.198588235 0.275349398,0.204235294 0.276289157,0.209882353 M0.35053012,0.778352941 C0.394698795,0.693647059 0.43886747,0.602352941 0.486795181,0.508235294 C0.521566265,0.433882353 0.504650602,0.412235294 0.473638554,0.400941176 C0.383421687,0.368 0.294144578,0.302117647 0.28286747,0.231529412 C0.279108434,0.224 0.277228916,0.217411765 0.276289157,0.209882353 C0.287566265,0.346352941 0.323277108,0.592941176 0.35053012,0.778352941" id="path-5"></path>
        <path d="M0.87773494,1.00988235 C0.889951807,1.15482353 0.999903614,1.17270588 1.09106024,1.04564706 C1.11455422,1.00988235 1.14180723,0.967529412 1.17281928,0.918588235 C1.14744578,0.883764706 1.12207229,0.850823529 1.09387952,0.817882353 C0.968891566,0.669176471 0.671927711,0.350117647 0.383421687,0.0969411765 C0.670048193,0.369882353 0.844843373,0.704 0.87773494,1.00988235" id="path-7"></path>
        <path d="M1.05346988,1.81270588 C1.04971084,1.96141176 1.15872289,1.95105882 1.22826506,1.84941176 C1.2686747,1.79388235 1.3053253,1.74211765 1.3419759,1.69129412 C1.1746988,1.17458824 0.91626506,0.667294118 0.732072289,0.476235294 C0.961373494,0.788705882 1.06850602,1.23764706 1.05346988,1.81270588" id="path-9"></path>
        <path d="M0.631518072,0.0809411765 L0.631518072,0.0790588235 L0.631518072,0.0809411765 Z" id="path-11"></path>
        <path d="M2.72060241,1.04752941 C2.62662651,1.63670588 2.30992771,2.15435294 1.76768675,2.42352941 C1.31096386,2.64658824 0.774361446,2.60894118 0.400337349,2.27388235 C0.28286747,2.16752941 0.198289157,2.03858824 0.137204819,1.90023529 C0.234939759,2.34541176 0.317638554,2.67294118 0.435108434,2.848 C0.78939759,3.38070588 1.40024096,3.51529412 2.07404819,3.14917647 C2.56366265,2.88376471 2.99407229,2.32376471 2.93862651,1.41364706 C2.91043373,0.96 2.77886747,0.494117647 2.56836145,0.117647059 C2.71120482,0.393411765 2.7713494,0.713411765 2.72060241,1.04752941" id="path-13"></path>
        <path d="M0.440746988,0.674823529 C0.797855422,1.20752941 0.993325301,1.95576471 1.01118072,2.73129412 C1.03279518,2.89505882 1.10327711,2.89976471 1.18409639,2.81505882 C1.25551807,2.74070588 1.32506024,2.66352941 1.39554217,2.58823529 C1.29028916,2.17129412 1.1286506,1.79858824 0.962313253,1.43717647 C0.900289157,1.30541176 0.627759036,0.838588235 0.392819277,0.617411765 C0.411614458,0.636235294 0.425710843,0.655058824 0.440746988,0.674823529" id="path-15"></path>
        <path d="M2.77510843,1.19811765 C2.05337349,1.56611765 1.18785542,2.19764706 0.758385542,3.05694118 C0.40973494,3.75905882 0.34113253,4.60705882 0.872096386,5.41364706 C0.91626506,5.47952941 0.963253012,5.54352941 1.01681928,5.60282353 C0.847662651,4.93364706 1.03091566,4.21364706 1.29874699,3.67435294 C1.72539759,2.81317647 2.32590361,2.40094118 2.91513253,2.02729412 C3.16980723,1.86729412 3.28163855,1.712 3.13127711,1.29223529 C3.08804819,1.17270588 3.06361446,0.956235294 3.01662651,0.766117647 C3.03260241,0.952470588 2.94050602,1.11341176 2.77510843,1.19811765" id="path-17"></path>
        <path d="M0.80913253,0.511058824 C0.798795181,0.486588235 0.785638554,0.466823529 0.773421687,0.450823529 C0.785638554,0.469647059 0.798795181,0.488470588 0.80913253,0.511058824" id="path-19"></path>
        <path d="M1.69814458,2.13082353 C1.39272289,2.71529412 0.890891566,3.02776471 0.407855422,3.17835294 C0.407855422,3.17835294 0.307301205,3.20094118 0.32139759,3.29223529 C0.333614458,3.39858824 0.675686747,3.616 0.890891566,3.76658824 C0.920024096,3.75717647 0.967012048,3.74117647 0.967012048,3.74117647 C1.21416867,3.64329412 1.62766265,3.392 1.86636145,2.86776471 C2.01860241,2.52988235 2.10224096,2.26447059 2.03645783,1.68564706 C1.98853012,1.28094118 1.90677108,0.914823529 1.7986988,0.726588235 C2.0073253,1.15105882 1.92274699,1.69505882 1.69814458,2.13082353" id="path-21"></path>
        <path d="M7.85168675,0.339764706 C7.9146506,0.489411765 7.9146506,0.707764706 7.79718072,0.985411765 C6.91850602,3.05694118 5.23633735,4.69835294 3.18860241,4.76894118 C1.95375904,4.80941176 1.0299759,4.17694118 0.596746988,3.24047059 C0.914385542,3.93976471 1.56187952,4.56282353 2.13137349,4.91952941 C2.57493976,5.19717647 3.12187952,5.34964706 3.74775904,5.32894118 C5.88007229,5.25552941 7.49739759,3.49647059 8.034,2.00752941 C8.17684337,1.60658824 8.06595181,1.17647059 7.99828916,0.886588235 C7.97103614,0.773647059 7.93438554,0.522352941 7.85356627,0.339764706 L7.85168675,0.339764706 Z" id="path-23"></path>
    </defs>
    <g id="Ilustraciones" stroke="none" stroke-width="1" fill="none" fill-rule="evenodd">
        <g id="FORD" transform="translate(-39.000000, -60.000000)">
            <g id="Group" transform="translate(39.000000, 60.000000)">
                <rect id="Rectangle-3-Copy-19" x="0" y="0" width="122" height="80"></rect>
                <g id="Page-1" transform="translate(22.000000, 24.000000)">
                    <g id="Group-14" transform="translate(0.000000, 0.339106)">
                        <g id="Group-3">
                            <mask id="mask-2" fill="white">
                                <use xlink:href="#path-1"></use>
                            </mask>
                            <g id="Clip-2"></g>
                            <path d="M38.8146795,0.602070588 C17.2697639,0.602070588 -0.000187951807,7.35877647 -0.000187951807,15.8293647 C-0.000187951807,24.2500706 17.413547,31.0585412 38.8146795,31.0585412 C60.2176916,31.0585412 77.629547,24.2265412 77.629547,15.8293647 C77.629547,7.43218824 60.2176916,0.602070588 38.8146795,0.602070588" id="Fill-1" fill="#231F20" mask="url(#mask-2)"></path>
                        </g>
                        <path d="M38.8146795,0.864941176 C17.4107277,0.864941176 0.252607229,7.50588235 0.252607229,15.8287059 C0.252607229,24.1044706 17.5516916,30.7962353 38.8146795,30.7962353 C60.0786072,30.7962353 77.3776916,24.0809412 77.3776916,15.8287059 C77.3776916,7.57929412 60.0786072,0.864941176 38.8146795,0.864941176" id="Fill-4" fill="#231F20"></path>
                        <path d="M38.8146795,1.2096 C17.6992337,1.2096 0.596559036,7.74042353 0.596559036,15.8213647 C0.596559036,23.8985412 17.6992337,30.4321882 38.8146795,30.4321882 C59.9338843,30.4321882 77.0328,23.8985412 77.0328,15.8213647 C77.0328,7.74042353 59.9338843,1.2096 38.8146795,1.2096" id="Fill-6" fill="#231F20"></path>
                        <path d="M3.64983614,16.3842824 C3.64983614,9.69534118 19.4706795,4.27416471 38.9885349,4.27416471 C56.9435711,4.27416471 71.7663904,8.8624 74.0283904,14.8031059 C72.5210169,8.55369412 57.3326313,3.64169412 38.8128,3.64169412 C19.2940048,3.64169412 3.4741012,9.09581176 3.4741012,15.8252235 C3.4741012,16.3729882 3.57935422,16.9122824 3.78234217,17.4412235 C3.69494458,17.0939294 3.64983614,16.7409882 3.64983614,16.3842824" id="Fill-8" fill="#231F20"></path>
                        <path d="M75.1991422,14.3015529 C75.3570217,14.8013176 75.437841,15.3086118 75.437841,15.8253176 C75.437841,23.1909647 59.0399855,29.1636706 38.812612,29.1636706 C20.810588,29.1636706 5.8449253,24.4342588 2.7662747,18.2036706 C5.10815422,24.6930824 20.4703952,29.7020235 39.0757446,29.7020235 C59.3002988,29.7020235 75.6925157,23.7829647 75.6925157,16.4766118 C75.6925157,15.7349647 75.5261783,15.0074353 75.1991422,14.3015529" id="Fill-10" fill="#606164"></path>
                        <path d="M38.8128,3.6416 C19.2940048,3.6416 3.4741012,9.09571765 3.4741012,15.8251294 C3.4741012,22.5554824 19.2940048,28.0096 38.8128,28.0096 C58.3315952,28.0096 74.1514988,22.5554824 74.1514988,15.8251294 C74.1514988,9.09571765 58.3315952,3.6416 38.8128,3.6416 M38.8128,29.1634824 C18.5844867,29.1634824 2.18569157,23.1907765 2.18569157,15.8251294 C2.18569157,8.4576 18.5844867,2.48677647 38.8128,2.48677647 C59.0392337,2.48677647 75.4380289,8.4576 75.4380289,15.8251294 C75.4380289,23.1907765 59.0392337,29.1634824 38.8128,29.1634824" id="Fill-12" fill="#FEFEFE"></path>
                    </g>
                    <g id="Group-17" transform="translate(45.108434, 17.280282)">
                        <mask id="mask-4" fill="white">
                            <use xlink:href="#path-3"></use>
                        </mask>
                        <g id="Clip-16"></g>
                        <path d="M0.833566265,0.175058824 C-0.0234939759,1.06917647 -0.0883373494,2.224 0.473638554,2.74635294 C0.673807229,2.93176471 0.904987952,3.01835294 1.15120482,3.03152941 C0.783759036,2.56658824 0.612722892,1.65647059 1.06662651,0.935529412 C0.982048193,0.721882353 0.967012048,0.483764706 1.01493976,0.242823529 C1.02621687,0.186352941 0.980168675,0.132705882 0.921903614,0.132705882 C0.893710843,0.132705882 0.862698795,0.144941176 0.833566265,0.175058824" id="Fill-15" mask="url(#mask-4)"></path>
                    </g>
                    <g id="Group-20" transform="translate(54.506024, 19.162635)">
                        <mask id="mask-6" fill="white">
                            <use xlink:href="#path-5"></use>
                        </mask>
                        <g id="Clip-19"></g>
                        <path d="M0.276289157,0.209882353 C0.276289157,0.206117647 0.275349398,0.203294118 0.275349398,0.200470588 C0.275349398,0.196705882 0.275349398,0.196705882 0.27346988,0.193882353 C0.274409639,0.198588235 0.275349398,0.204235294 0.276289157,0.209882353 M0.35053012,0.778352941 C0.394698795,0.693647059 0.43886747,0.602352941 0.486795181,0.508235294 C0.521566265,0.433882353 0.504650602,0.412235294 0.473638554,0.400941176 C0.383421687,0.368 0.294144578,0.302117647 0.28286747,0.231529412 C0.279108434,0.224 0.277228916,0.217411765 0.276289157,0.209882353 C0.287566265,0.346352941 0.323277108,0.592941176 0.35053012,0.778352941" id="Fill-18" mask="url(#mask-6)"></path>
                    </g>
                    <g id="Group-23" transform="translate(55.445783, 16.339106)">
                        <mask id="mask-8" fill="white">
                            <use xlink:href="#path-7"></use>
                        </mask>
                        <g id="Clip-22"></g>
                        <path d="M0.87773494,1.00988235 C0.889951807,1.15482353 0.999903614,1.17270588 1.09106024,1.04564706 C1.11455422,1.00988235 1.14180723,0.967529412 1.17281928,0.918588235 C1.14744578,0.883764706 1.12207229,0.850823529 1.09387952,0.817882353 C0.968891566,0.669176471 0.671927711,0.350117647 0.383421687,0.0969411765 C0.670048193,0.369882353 0.844843373,0.704 0.87773494,1.00988235" id="Fill-21" mask="url(#mask-8)"></path>
                    </g>
                    <g id="Group-26" transform="translate(43.228916, 15.397929)">
                        <mask id="mask-10" fill="white">
                            <use xlink:href="#path-9"></use>
                        </mask>
                        <g id="Clip-25"></g>
                        <path d="M1.05346988,1.81270588 C1.04971084,1.96141176 1.15872289,1.95105882 1.22826506,1.84941176 C1.2686747,1.79388235 1.3053253,1.74211765 1.3419759,1.69129412 C1.1746988,1.17458824 0.91626506,0.667294118 0.732072289,0.476235294 C0.961373494,0.788705882 1.06850602,1.23764706 1.05346988,1.81270588" id="Fill-24" mask="url(#mask-10)"></path>
                    </g>
                    <g id="Group-29" transform="translate(62.024096, 11.633224)">
                        <mask id="mask-12" fill="white">
                            <use xlink:href="#path-11"></use>
                        </mask>
                        <g id="Clip-28"></g>
                        <path d="M0.631518072,0.0809411765 L0.631518072,0.0790588235 L0.631518072,0.0809411765 Z" id="Fill-27" mask="url(#mask-12)"></path>
                    </g>
                    <g id="Group-38" transform="translate(31.951807, 16.339106)" fill="#4E4F51">
                        <path d="M19.1053952,6.43021176 C19.2040699,6.48385882 19.3055639,6.51868235 19.4098771,6.53656471 C19.3732265,6.39727059 19.3572506,6.2608 19.3553711,6.14503529 C19.344094,5.13985882 19.656094,4.1328 20.4558289,3.14927059 C21.4256602,1.95397647 22.444359,1.35821176 23.1529373,1.68574118 C23.1162867,1.42503529 22.9800217,1.19538824 22.6792988,1.05515294 C21.9726,0.713505882 20.8946964,1.33656471 19.9201663,2.53844706 C19.1204313,3.52197647 18.6890819,4.52244706 18.6721663,5.49844706 C18.6665277,5.84385882 18.7990337,6.27209412 19.1053952,6.43021176" id="Fill-30"></path>
                        <path d="M4.08579036,1.23905882 C4.21077831,1.18352941 4.22675422,1.112 4.20326024,1 C4.16097108,0.808941176 4.0275253,0.334588235 3.98805542,0.222588235 L3.98805542,0.220705882 C4.01812771,0.325176471 3.99181446,0.406117647 3.86776627,0.452235294 C2.78046506,0.866352941 1.69316386,1.50541176 0.939477108,2.51435294 C0.0880554217,3.65976471 -0.143125301,5.04047059 0.428248193,5.83294118 C0.564513253,6.02023529 0.726151807,6.15858824 0.904706024,6.248 C0.597404819,5.29741176 0.82106747,4.02588235 1.54468193,3.04611765 C2.2908506,2.03529412 3.1281759,1.65223529 4.08579036,1.23905882" id="Fill-32"></path>
                        <path d="M16.1869735,4.74635294 C15.9285398,4.93176471 15.592106,5.136 15.1720337,5.29223529 C14.656106,5.48517647 14.4136482,5.55670588 13.9362506,5.55105882 C13.3348048,5.54823529 12.7935036,5.29223529 12.4110217,4.69458824 C12.1986361,4.37364706 12.1102988,3.88235294 12.0905639,3.52376471 C12.0886843,3.48329412 12.0351181,3.41364706 11.9777928,3.504 C10.966612,5.05129412 10.023094,6.54776471 9.02131084,8.11952941 C8.9696241,8.19294118 8.92263614,8.23905882 8.81926265,8.24470588 C8.19902169,8.24470588 7.52145542,8.24282353 6.83731084,8.24658824 C6.7649494,8.24658824 6.71608193,8.21364706 6.69916627,8.16564706 C6.75367229,8.40470588 6.84106988,8.83858824 6.86456386,8.93929412 C6.88147952,9.00894118 6.93222651,9.04376471 7.00834699,9.04376471 C7.74417831,9.04376471 8.64352771,9.04376471 9.2562506,9.04 C9.34646747,9.03717647 9.40849157,8.98541176 9.45641928,8.91576471 C10.3689253,7.48517647 11.3434554,5.93411765 12.2738169,4.49976471 C12.4796241,5.22258824 12.5839373,5.55858824 12.9636,5.89929412 C13.3507807,6.24658824 13.7069494,6.336 14.2341542,6.34164706 C14.7134313,6.34729412 15.1851904,6.15623529 15.744347,5.92094118 C15.9445157,5.83811765 16.1268289,5.73364706 16.2856482,5.63011765 C16.2856482,5.36376471 16.313841,5.09929412 16.3617687,4.84423529 C16.364588,4.816 16.3373349,4.64188235 16.1869735,4.74635294" id="Fill-34"></path>
                        <path d="M29.4225398,4.20225882 C29.4225398,4.24084706 29.4056241,4.27378824 29.3858892,4.30014118 C28.4226361,5.48131765 27.3541301,6.59567059 26.3316723,7.38437647 C24.7425398,8.61731765 23.158106,8.92978824 22.3724675,8.14202353 C22.0811422,7.84555294 21.9213831,7.42672941 21.9007084,7.07190588 C21.8913108,6.87896471 21.7926361,6.86955294 21.7005398,6.95802353 C20.7645398,7.88790588 19.1368771,8.91567059 17.6539373,8.18343529 C16.8880337,7.80508235 16.4876964,7.09543529 16.3467325,6.31425882 C16.3467325,6.32367059 16.3504916,6.33308235 16.3523711,6.34155294 C16.4454072,6.89684706 16.5647566,7.69496471 16.8260096,8.1872 C16.9942265,8.51284706 17.3748289,8.87896471 17.6060096,8.99472941 C18.9197928,9.6432 20.7974313,8.90625882 22.0031422,7.74484706 C22.0162988,7.72978824 22.0200578,7.72790588 22.0369735,7.71002353 C22.0914795,7.91896471 22.1582024,8.1712 22.1685398,8.20602353 C22.2512386,8.47614118 22.3799855,8.72084706 22.4936964,8.85072941 C23.3178651,9.78531765 25.0705157,9.35990588 26.8936482,7.9472 C27.912347,7.15849412 28.6679133,6.36602353 29.5935759,5.28649412 C29.6302265,5.24225882 29.6264675,5.17637647 29.6057928,5.07755294 C29.5531663,4.84225882 29.468588,4.41590588 29.4225398,4.20225882" id="Fill-36"></path>
                    </g>
                    <g id="Group-41" transform="translate(46.048193, 16.339106)">
                        <mask id="mask-14" fill="white">
                            <use xlink:href="#path-13"></use>
                        </mask>
                        <g id="Clip-40"></g>
                        <path d="M2.72060241,1.04752941 C2.62662651,1.63670588 2.30992771,2.15435294 1.76768675,2.42352941 C1.31096386,2.64658824 0.774361446,2.60894118 0.400337349,2.27388235 C0.28286747,2.16752941 0.198289157,2.03858824 0.137204819,1.90023529 C0.234939759,2.34541176 0.317638554,2.67294118 0.435108434,2.848 C0.78939759,3.38070588 1.40024096,3.51529412 2.07404819,3.14917647 C2.56366265,2.88376471 2.99407229,2.32376471 2.93862651,1.41364706 C2.91043373,0.96 2.77886747,0.494117647 2.56836145,0.117647059 C2.71120482,0.393411765 2.7713494,0.713411765 2.72060241,1.04752941" id="Fill-39" mask="url(#mask-14)"></path>
                    </g>
                    <path d="M62.8794651,12.7858824 C62.8597301,12.6992941 62.6736578,11.7985882 62.6558024,11.7157647 C62.6633205,11.7402353 62.6558024,11.7694118 62.6388867,11.8004706 C62.3306458,12.3350588 56.3913687,21.3910588 56.0164048,22.3284706 C55.8970554,22.624 55.882959,22.8498824 56.004188,23.0136471 C56.1263566,23.1792941 56.3067904,23.2414118 56.5088386,23.2376471 C56.5285735,23.1237647 56.5727422,22.9938824 56.628188,22.8574118 C57.002212,21.9181176 62.5655855,13.4531765 62.8700675,12.9185882 C62.8982602,12.8724706 62.8869831,12.8207059 62.8794651,12.7858824" id="Fill-42" fill="#4E4F51"></path>
                    <g id="Group-46" transform="translate(37.590361, 15.397929)">
                        <mask id="mask-16" fill="white">
                            <use xlink:href="#path-15"></use>
                        </mask>
                        <g id="Clip-45"></g>
                        <path d="M0.440746988,0.674823529 C0.797855422,1.20752941 0.993325301,1.95576471 1.01118072,2.73129412 C1.03279518,2.89505882 1.10327711,2.89976471 1.18409639,2.81505882 C1.25551807,2.74070588 1.32506024,2.66352941 1.39554217,2.58823529 C1.29028916,2.17129412 1.1286506,1.79858824 0.962313253,1.43717647 C0.900289157,1.30541176 0.627759036,0.838588235 0.392819277,0.617411765 C0.411614458,0.636235294 0.425710843,0.655058824 0.440746988,0.674823529" id="Fill-44" mask="url(#mask-16)"></path>
                    </g>
                    <path d="M41.254012,18.6387765 C41.6703253,18.2839529 42.1261084,18.0524235 42.4117952,18.1625412 C42.5828313,17.7192471 42.502012,17.4754824 42.318759,17.3559529 C42.0396506,17.1752471 41.4833133,17.4472471 41.0134337,17.8058353 C39.7306627,18.7780706 38.6546386,20.2933647 38.1095783,20.9700706 C37.7881807,21.3681882 37.4846386,21.9564235 36.6454337,22.8684235 C35.3231928,24.3056 33.5733614,25.1310118 31.8855542,24.5597176 C30.9636506,24.2491294 30.2964217,23.5065412 30.041747,22.5964235 C29.9919398,22.4204235 29.8923253,22.3705412 29.7974096,22.4881882 C29.5239398,22.8279529 28.9676024,23.3277176 28.5014819,23.6458353 C28.4497952,23.6806588 28.3248072,23.7559529 28.2157952,23.7032471 C28.1171205,23.6590118 27.7712892,23.1696 27.7036265,23.0284235 C27.6951687,23.0133647 27.6895301,22.9973647 27.6876506,22.9823059 L27.6876506,22.9879529 C27.8079398,23.5912471 27.8239157,23.6608941 27.9893133,23.9385412 C28.1763253,24.2472471 28.3558193,24.4618353 28.3971687,24.4806588 C28.5071205,24.5361882 28.6170723,24.4863059 28.6715783,24.4571294 C29.0333855,24.2688941 29.7391446,23.7267765 30.0426867,23.3484235 C30.1347831,23.2599529 30.2231205,23.3192471 30.252253,23.4105412 C30.381,23.8152471 30.5661325,24.1258353 30.7738193,24.4571294 C31.0021807,24.8223059 31.4579639,25.2053647 32.0481325,25.3663059 C32.8140361,25.5818353 33.6391446,25.6204235 34.7226867,25.2053647 C35.5929036,24.8703059 36.5025904,24.1917176 37.2045904,23.4293647 C38.0456747,22.5154824 38.3492169,21.9291294 38.6696747,21.5281882 C39.2137952,20.8524235 40.0623976,19.6571294 41.254012,18.6387765" id="Fill-47" fill="#4E4F51"></path>
                    <g id="Group-51" transform="translate(16.915663, 15.397929)">
                        <mask id="mask-18" fill="white">
                            <use xlink:href="#path-17"></use>
                        </mask>
                        <g id="Clip-50"></g>
                        <path d="M2.77510843,1.19811765 C2.05337349,1.56611765 1.18785542,2.19764706 0.758385542,3.05694118 C0.40973494,3.75905882 0.34113253,4.60705882 0.872096386,5.41364706 C0.91626506,5.47952941 0.963253012,5.54352941 1.01681928,5.60282353 C0.847662651,4.93364706 1.03091566,4.21364706 1.29874699,3.67435294 C1.72539759,2.81317647 2.32590361,2.40094118 2.91513253,2.02729412 C3.16980723,1.86729412 3.28163855,1.712 3.13127711,1.29223529 C3.08804819,1.17270588 3.06361446,0.956235294 3.01662651,0.766117647 C3.03260241,0.952470588 2.94050602,1.11341176 2.77510843,1.19811765" id="Fill-49" mask="url(#mask-18)"></path>
                    </g>
                    <g id="Group-58" transform="translate(15.036145, 6.927341)" fill="#4E4F51">
                        <path d="M7.93936627,5.04047059 C7.7918241,4.02023529 8.55396867,2.35152941 10.5565952,1.68894118 C13.1757036,0.824 16.0964747,1.37176471 18.4439928,1.87341176 C18.7710289,1.66729412 19.0585952,1.52611765 19.3461614,1.36988235 C19.4890048,1.29458824 19.3273663,1.20423529 19.2841373,1.20423529 C16.2571735,0.633882353 13.1089807,-0.103058824 10.1017518,1.01317647 C8.01830602,1.79058824 7.10673976,3.44517647 7.54466747,4.55011765 C7.63018554,4.76094118 7.76457108,4.92470588 7.93936627,5.04047059" id="Fill-52"></path>
                        <path d="M15.9429181,8.27397647 C16.9409422,8.1488 17.8355928,8.09421176 18.716147,8.00950588 C18.9792795,7.98503529 19.1794482,7.96150588 19.2753036,8.05750588 C19.5938819,8.37468235 19.9622675,8.66738824 20.2084843,8.80856471 C20.3710627,8.81044706 20.5073277,8.84715294 20.6041229,8.93374118 C20.7056169,8.91962353 20.8014723,8.86221176 20.8616169,8.80291765 C20.9753277,8.69091765 20.9809663,8.56103529 20.9612313,8.44903529 C20.9217614,8.23162353 20.8634964,7.80150588 20.7939542,7.67821176 C20.8418819,7.77232941 20.8118096,7.90597647 20.7159542,8.01515294 C20.6454723,8.09421176 20.5374,8.16950588 20.3973759,8.16574118 C20.2846048,8.16385882 20.2160024,8.12527059 20.0722193,8.04621176 C19.7761952,7.88621176 19.4078096,7.62362353 19.1615928,7.31303529 C19.0770145,7.20762353 19.0347253,7.20574118 18.825159,7.21703529 C17.881641,7.27256471 16.4109181,7.41374118 15.4147735,7.53891765 C15.1741952,7.56809412 15.1384843,7.61421176 15.0886771,7.69703529 C13.4995446,10.3200941 11.8042193,13.1492706 9.94161687,15.0419765 C7.94368916,17.0739765 6.2840747,17.6085647 4.52108675,17.6236235 C2.48556867,17.6358588 0.674653012,16.4819765 0.21886988,14.4518588 C0.46226747,15.5850353 1.1934,16.9506824 2.03636386,17.5464471 C2.8934241,18.1525647 3.73920723,18.3530353 4.72595422,18.3699765 C6.72952048,18.4066824 8.56111084,17.5775059 10.5007735,15.6029176 C12.3633759,13.7092706 13.9769422,11.0645647 15.5670145,8.44150588 C15.6205807,8.34927059 15.6769663,8.30691765 15.9429181,8.27397647" id="Fill-54"></path>
                        <path d="M12.6720867,7.9376 C11.7708578,7.96301176 10.9852193,8.23124706 10.2230747,8.80348235 C10.0022313,8.96348235 9.68647229,8.94089412 9.54738795,8.73007059 C9.50133976,8.65854118 9.4797253,8.58136471 9.47690602,8.50230588 C9.45717108,8.84207059 9.59343614,9.33995294 9.70338795,9.50936471 C9.82461687,9.69477647 10.1638699,9.78512941 10.4335807,9.58654118 C11.0406651,9.1376 11.5904241,8.87689412 12.203147,8.75924706 C12.3619663,8.54465882 12.5330024,8.30371765 12.7275325,8.03548235 C12.7435084,8.01477647 12.7482072,7.9856 12.7406892,7.97054118 C12.7303518,7.94701176 12.7106169,7.94136471 12.6720867,7.9376" id="Fill-56"></path>
                    </g>
                    <g id="Group-61" transform="translate(49.807229, 6.927341)">
                        <mask id="mask-20" fill="white">
                            <use xlink:href="#path-19"></use>
                        </mask>
                        <g id="Clip-60"></g>
                        <path d="M0.80913253,0.511058824 C0.798795181,0.486588235 0.785638554,0.466823529 0.773421687,0.450823529 C0.785638554,0.469647059 0.798795181,0.488470588 0.80913253,0.511058824" id="Fill-59" mask="url(#mask-20)"></path>
                    </g>
                    <g id="Group-66" transform="translate(30.781380, 6.927341)" fill="#4E4F51">
                        <path d="M0.188472946,6.44122353 C0.151822344,6.48357647 0.171557284,6.52592941 0.234521139,6.52028235 C0.519268127,6.50710588 0.791798248,6.49487059 1.06338861,6.47981176 C2.04261752,4.94475294 3.09044885,4.06287059 4.69179825,2.87887059 C4.81020789,2.78851765 4.93049704,2.72451765 4.89102716,2.38287059 C8.10688258,3.09722353 10.5530754,4.28310588 14.7049308,4.29628235 C15.9444729,4.29816471 17.6933645,3.88404706 18.6331235,3.31651765 C19.7138464,2.66522353 20.0004729,2.18710588 20.0408826,1.68169412 C20.0521597,1.52357647 20.0117501,1.28828235 19.9854368,1.16687059 C19.9487862,0.996517647 19.9252922,0.777223529 19.875485,0.616282353 C19.8924007,0.682164706 19.8999187,0.757458824 19.8942802,0.840282353 C19.8613886,1.42098824 19.4131235,1.98004706 18.3042079,2.58428235 C17.0449308,3.27604706 15.7292681,3.48498824 14.3525211,3.49628235 C11.0267139,3.52357647 7.92832837,2.22569412 4.72187054,1.52734118 C4.72656933,1.66945882 4.76228018,1.83604706 4.6448103,1.92451765 C2.86960548,3.23745882 1.26449704,4.57016471 0.188472946,6.44122353" id="Fill-62"></path>
                        <path d="M4.51747295,5.53684706 C4.65091873,5.42108235 4.81631632,5.36555294 4.95915969,5.39002353 C5.08132837,5.14531765 5.11703921,4.85261176 4.96761752,4.72461176 C4.82289463,4.59943529 4.59453319,4.62296471 4.40940066,4.75567059 C4.36993078,4.79237647 4.3257621,4.83096471 4.28065367,4.87143529 C3.96395487,5.20084706 3.86715969,5.63567059 3.91320789,5.96508235 C3.93952114,6.10155294 3.99120789,6.12696471 4.05229222,6.11567059 C4.11149704,6.10343529 4.17352114,6.08272941 4.23554524,6.05731765 C4.25903921,5.87472941 4.33515969,5.70061176 4.51747295,5.53684706" id="Fill-64"></path>
                    </g>
                    <g id="Group-69" transform="translate(34.771084, 10.692047)">
                        <mask id="mask-22" fill="white">
                            <use xlink:href="#path-21"></use>
                        </mask>
                        <g id="Clip-68"></g>
                        <path d="M1.69814458,2.13082353 C1.39272289,2.71529412 0.890891566,3.02776471 0.407855422,3.17835294 C0.407855422,3.17835294 0.307301205,3.20094118 0.32139759,3.29223529 C0.333614458,3.39858824 0.675686747,3.616 0.890891566,3.76658824 C0.920024096,3.75717647 0.967012048,3.74117647 0.967012048,3.74117647 C1.21416867,3.64329412 1.62766265,3.392 1.86636145,2.86776471 C2.01860241,2.52988235 2.10224096,2.26447059 2.03645783,1.68564706 C1.98853012,1.28094118 1.90677108,0.914823529 1.7986988,0.726588235 C2.0073253,1.15105882 1.92274699,1.69505882 1.69814458,2.13082353" id="Fill-67" mask="url(#mask-22)"></path>
                    </g>
                    <g id="Group-72" transform="translate(19.734940, 9.750871)">
                        <mask id="mask-24" fill="white">
                            <use xlink:href="#path-23"></use>
                        </mask>
                        <g id="Clip-71"></g>
                        <path d="M7.85168675,0.339764706 C7.9146506,0.489411765 7.9146506,0.707764706 7.79718072,0.985411765 C6.91850602,3.05694118 5.23633735,4.69835294 3.18860241,4.76894118 C1.95375904,4.80941176 1.0299759,4.17694118 0.596746988,3.24047059 C0.914385542,3.93976471 1.56187952,4.56282353 2.13137349,4.91952941 C2.57493976,5.19717647 3.12187952,5.34964706 3.74775904,5.32894118 C5.88007229,5.25552941 7.49739759,3.49647059 8.034,2.00752941 C8.17684337,1.60658824 8.06595181,1.17647059 7.99828916,0.886588235 C7.97103614,0.773647059 7.93438554,0.522352941 7.85356627,0.339764706 L7.85168675,0.339764706 Z" id="Fill-70" mask="url(#mask-24)"></path>
                    </g>
                    <g id="Group-77" transform="translate(15.036145, 5.986165)" fill="#FEFEFE">
                        <path d="M39.752559,13.4081882 C39.7638361,13.4778353 39.8531133,13.5446588 39.9433301,13.5776 C39.9743422,13.5879529 39.9912578,13.6105412 39.9564867,13.6839529 C39.7027518,14.2260706 39.4715711,14.5385412 39.1539325,15.0091294 C38.8644867,15.4448941 38.5355711,15.7827765 38.1389928,16.1103059 C37.5403663,16.6063059 36.7077398,17.1474824 36.0207759,16.7832471 C35.7144145,16.6251294 35.5828482,16.1968941 35.587547,15.8514824 C35.6044627,14.8754824 36.035812,13.8750118 36.835547,12.8914824 C37.8110169,11.6896 38.8879807,11.0665412 39.5946795,11.4081882 C40.3248723,11.7573647 40.091812,12.6044235 39.7657157,13.2707765 C39.7412819,13.3216 39.7394024,13.3658353 39.752559,13.4081882 M47.603306,5.81477647 C47.6559325,5.72254118 47.6014265,5.65477647 47.4839566,5.65477647 L45.4334024,5.65477647 C45.283041,5.65477647 45.2041012,5.67265882 45.1326795,5.81477647 C44.8977398,6.26465882 42.0324145,10.5648941 41.4995711,11.3987765 C41.410294,11.5258353 41.2994024,11.5070118 41.2871855,11.3620706 C41.2336193,10.8679529 40.8060289,10.2976 40.1322217,10.0256 C39.6181735,9.81665882 39.1172819,9.77995294 38.5966554,9.84771765 C37.6550169,9.97477647 36.8139325,10.4726588 36.0762217,11.0336 C34.963547,11.8806588 34.0059325,12.9780706 32.7663904,13.7884235 C32.0916434,14.2298353 31.1641012,14.6138353 30.5457398,14.0406588 C29.9837639,13.5183059 30.0486072,12.3644235 30.9056675,11.4684235 C30.9958843,11.3752471 31.1039566,11.4543059 31.087041,11.5371294 C31.0062217,11.9427765 31.1058361,12.3437176 31.4121976,12.6270118 C31.7862217,12.9611294 32.3228241,12.9997176 32.779547,12.7757176 C33.3208482,12.5074824 33.6384867,11.9888941 33.7324627,11.4006588 C33.875306,10.4886588 33.1742458,9.68395294 32.2965108,9.61995294 C31.5832337,9.57007059 30.9000289,9.81854118 30.2337398,10.3681882 C29.9001253,10.6448941 29.7084145,10.8510118 29.4208482,11.2613647 C29.351306,11.3620706 29.242294,11.3733647 29.246053,11.2246588 C29.2789446,10.0547765 28.7968482,9.39877647 27.8307759,9.37712941 C27.0827277,9.35830588 26.282053,9.76677647 25.6599325,10.2627765 C24.9748482,10.8124235 24.379041,11.5427765 23.7381253,12.2260706 C23.657306,12.3107765 23.5877639,12.3070118 23.5652096,12.1432471 C23.5473542,11.3677176 23.3528241,10.6194824 22.9947759,10.0867765 C22.8679084,9.90042353 22.6019566,9.80912941 22.378294,9.93618824 C22.2739807,9.99077647 21.914053,10.1564235 21.6528,10.3681882 C21.5231133,10.4764235 21.4723663,10.6307765 21.5287518,10.8293647 C21.8755229,11.9851294 21.7994024,13.2999529 21.3295229,14.4114824 C20.900053,15.4279529 20.0646072,16.3456 19.0816193,16.6561882 C18.4341253,16.8623059 17.7612578,16.7616 17.3440048,16.1856 C16.7726313,15.3931294 17.003812,14.0133647 17.8552337,12.8679529 C18.6089205,11.8590118 19.6962217,11.2190118 20.7825831,10.8048941 C20.9103904,10.7578353 20.9367036,10.6750118 20.900053,10.5658353 C20.841788,10.3879529 20.7468723,10.1432471 20.7083422,10.0331294 C20.6096675,9.76677647 20.330559,9.72442353 19.9903663,9.76112941 C19.2019084,9.85336471 18.4895711,10.1234824 17.7866313,10.4999529 C15.9465831,11.4872471 15.0237398,13.3968941 14.6196434,14.4190118 C14.4251133,14.9103059 14.2578361,15.2171294 14.0426313,15.4891294 C13.7522458,15.8552471 13.3876193,16.1856 12.7213301,16.7719529 C12.6621253,16.8256 12.6170169,16.9376 12.6677639,17.0420706 C12.7354265,17.1841882 13.0812578,17.6726588 13.1799325,17.7168941 C13.2889446,17.7705412 13.4139325,17.6952471 13.4646795,17.6604235 C13.9308,17.3423059 14.4871373,16.8416 14.7606072,16.5018353 C14.8564627,16.3841882 14.9551373,16.4340706 15.0058843,16.6100706 C15.260559,17.5201882 15.9268482,18.2627765 16.8496916,18.5733647 C18.5374988,19.1456 20.2873301,18.3201882 21.6086313,16.8820706 C22.4487759,15.9710118 22.7513783,15.3827765 23.0737157,14.9837176 C23.6187759,14.3070118 24.6948,12.7926588 25.9775711,11.8204235 C26.4474506,11.4618353 27.003788,11.1898353 27.2819566,11.3696 C27.506559,11.5145412 27.5798602,11.8552471 27.2199325,12.5112471 C25.9127277,14.8990118 23.9899807,17.7074824 23.6375711,18.3879529 C23.5727277,18.5074824 23.630053,18.5997176 23.7531614,18.5997176 C24.437306,18.5959529 25.1148723,18.5978353 25.7351133,18.5978353 C25.837547,18.5921882 25.8854747,18.5460706 25.9371614,18.4726588 C26.9389446,16.9008941 27.8824627,15.4044235 28.8936434,13.8571294 C28.9509687,13.7667765 29.0035952,13.8364235 29.0054747,13.8768941 C29.0261494,14.2354824 29.1144867,14.7258353 29.3268723,15.0477176 C29.7084145,15.6453647 30.2506554,15.9004235 30.8521012,15.9041882 C31.3294988,15.9098353 31.5719566,15.8383059 32.0878843,15.6453647 C32.5079566,15.4891294 32.8434506,15.2848941 33.1028241,15.0994824 C33.2531855,14.9950118 33.2804386,15.1691294 33.2766795,15.1964235 C33.0436193,16.4453647 33.3302458,17.9230118 34.5688482,18.5366588 C36.051788,19.2688941 37.6803904,18.2411294 38.6163904,17.3103059 C38.7084867,17.2227765 38.8071614,17.2312471 38.816559,17.4251294 C38.836294,17.7799529 38.996053,18.1987765 39.2883181,18.4943059 C40.0739566,19.2830118 41.6574506,18.9705412 43.2475229,17.7376 C44.2699807,16.9488941 45.337547,15.8345412 46.3017398,14.6524235 C46.3383904,14.6063059 46.3637639,14.5328941 46.2961012,14.4594824 C46.1494988,14.3051294 45.9361735,14.1291294 45.7914506,13.9926588 C45.723788,13.9371294 45.626053,13.9540706 45.5706072,13.9964235 C44.5819807,14.9376 43.6910892,16.0114824 42.404559,16.9008941 C41.9694506,17.2039529 41.2796675,17.4486588 40.9676675,17.0279529 C40.8464386,16.8641882 40.8614747,16.6383059 40.9808241,16.3418353 C41.3548482,15.4044235 47.2941253,6.34936471 47.603306,5.81477647" id="Fill-73"></path>
                        <path d="M19.6588193,6.90635294 C19.6841928,7.04282353 19.7368193,7.06823529 19.7969639,7.05694118 C20.100506,6.99670588 20.4313012,6.74635294 20.6267711,6.45741176 C20.8062651,6.19482353 20.8899036,5.81835294 20.7122892,5.66588235 C20.5534699,5.52941176 20.2969157,5.568 20.1061446,5.73741176 C19.7255422,6.07341176 19.6099518,6.55152941 19.6588193,6.90635294 M4.52118072,18.5647059 C2.30616867,18.5788235 0.355228916,17.2075294 0.132506024,14.8367059 C0.00751807229,13.52 0.377783133,12.3491765 1.12113253,11.3844706 C1.78084337,10.5242353 2.89633735,9.80894118 3.83985542,9.63388235 C4.14715663,9.57929412 4.5606506,9.61411765 4.73074699,9.81835294 C4.99857831,10.1308235 4.92057831,10.4724706 4.65462651,10.6108235 C3.93383133,10.9778824 3.06737349,11.6084706 2.63884337,12.4687059 C2.29019277,13.1708235 2.21971084,14.0188235 2.75161446,14.8254118 C3.64062651,16.1712941 6.11971084,16.208 8.42493976,14.0630588 C8.99443373,13.5388235 9.50566265,13.0334118 10.0253494,12.4376471 C11.0402892,11.2743529 11.3776627,10.8508235 12.7271566,8.976 C12.7440723,8.95623529 12.7478313,8.92611765 12.741253,8.912 C12.7299759,8.88752941 12.710241,8.88282353 12.6717108,8.87905882 C11.7704819,8.90447059 10.9857831,9.17270588 10.2226988,9.74494118 C10.0027952,9.90494118 9.68703614,9.88235294 9.54701205,9.67152941 C9.39383133,9.43247059 9.50378313,9.12188235 9.75751807,8.94494118 C10.9857831,8.09035294 12.3268193,7.936 13.696988,7.70447059 C13.6960482,7.70447059 13.7928434,7.70823529 13.8708434,7.60282353 C14.4328193,6.88094118 14.8585301,6.22776471 15.4571566,5.49835294 C16.0614217,4.75576471 16.8423614,4.07529412 17.4381687,3.56235294 C18.2698554,2.848 18.8036386,2.60517647 19.3458795,2.31058824 C19.4887229,2.23529412 19.3270843,2.14494118 19.2847952,2.14494118 C16.2568916,1.57552941 13.1086988,0.838588235 10.1014699,1.95388235 C8.0180241,2.73129412 7.10739759,4.38588235 7.54438554,5.49082353 C7.85638554,6.27576471 8.8873012,6.40282353 9.85055422,5.93035294 C10.6512289,5.53694118 11.391759,4.90447059 11.9180241,4.08847059 C12.2112289,3.63576471 12.8295904,3.96329412 12.4959759,4.75011765 C11.6163614,6.82164706 9.93419277,8.46305882 7.88739759,8.53364706 C6.14414458,8.59011765 5.02019277,7.30541176 5.02395181,5.72235294 C5.02959036,2.59764706 8.50387952,0.538352941 12.1539036,0.231529412 C16.5491566,-0.132705882 20.7132289,1.04094118 25.0784096,1.56988235 C28.4220723,1.97647059 31.6285301,1.984 34.9891084,1.21129412 C35.3856867,1.12470588 35.6647952,1.37882353 35.6394217,1.78164706 C35.6065301,2.36235294 35.1582651,2.92141176 34.0493494,3.52564706 C32.791012,4.21741176 31.4744096,4.42635294 30.0976627,4.43764706 C26.7718554,4.46494118 23.6734699,3.16705882 20.467012,2.46870588 C20.4717108,2.61082353 20.5074217,2.77741176 20.3899518,2.86588235 C18.614747,4.17882353 17.0096386,5.51152941 15.9336145,7.38258824 C15.8969639,7.42494118 15.9176386,7.46729412 15.9796627,7.46164706 C16.9128434,7.41176471 17.752988,7.38823529 18.6241446,7.31764706 C18.7773253,7.30541176 18.7820241,7.26870588 18.7688675,7.15670588 C18.692747,6.51105882 18.879759,5.776 19.4464337,5.27058824 C20.0262651,4.75011765 20.7526988,4.68988235 21.2329157,5.06447059 C21.7817349,5.49270588 21.7319277,6.26070588 21.4330843,6.83670588 C21.1276627,7.42117647 20.6248916,7.73364706 20.1427952,7.88423529 C20.1427952,7.88423529 20.0413012,7.90588235 20.0563373,7.99811765 C20.0751325,8.14682353 20.7339036,8.51105882 20.7893494,8.60894118 C20.8438554,8.70211765 20.8156627,8.84611765 20.7160482,8.95623529 C20.6455663,9.03529412 20.537494,9.11058824 20.3974699,9.10682353 C20.2846988,9.10494118 20.2160964,9.06635294 20.0713735,8.98729412 C19.7762892,8.82729412 19.4069639,8.56470588 19.1616867,8.25411765 C19.0771084,8.14870588 19.0348193,8.14682353 18.825253,8.15811765 C17.8817349,8.21364706 16.411012,8.35482353 15.4148675,8.48 C15.1742892,8.50917647 15.1376386,8.55529412 15.0887711,8.63811765 C13.4996386,11.2611765 11.8043133,14.0903529 9.94171084,15.984 C7.94378313,18.0150588 6.28416867,18.5496471 4.52118072,18.5647059" id="Fill-75"></path>
                    </g>
                </g>
            </g>
        </g>
    </g>
</svg>