<?xml version="1.0" encoding="UTF-8"?>
<svg width="122px" height="80px" viewBox="0 0 122 80" version="1.1" xmlns="http://www.w3.org/2000/svg" xmlns:xlink="http://www.w3.org/1999/xlink">
    <!-- Generator: Sketch 49.2 (51160) - http://www.bohemiancoding.com/sketch -->
    <title>Rectangle 3 Copy 19</title>
    <desc>Created with Sketch.</desc>
    <defs>
        <polygon id="path-1" points="0 0.958769231 24.2828717 0.958769231 24.2828717 17.5384615 0 17.5384615"></polygon>
        <polygon id="path-3" points="0.607958491 0.959207692 22.8804906 0.959207692 22.8804906 17.5384615 0.607958491 17.5384615"></polygon>
    </defs>
    <g id="Ilustraciones" stroke="none" stroke-width="1" fill="none" fill-rule="evenodd">
        <g id="GMC" transform="translate(-39.000000, -60.000000)">
            <g id="Group" transform="translate(39.000000, 60.000000)">
                <rect id="Rectangle-3-Copy-19" x="0" y="0" width="122" height="80"></rect>
                <g id="Page-1" transform="translate(22.000000, 31.000000)">
                    <g id="Group-3" transform="translate(0.000000, 0.502331)">
                        <mask id="mask-2" fill="white">
                            <use xlink:href="#path-1"></use>
                        </mask>
                        <g id="Clip-2"></g>
                        <path d="M4.66513585,17.5384615 L19.274683,17.5384615 C22.3402302,17.5384615 24.2828717,15.9921538 24.2828717,13.1640769 L24.2828717,7.24046154 L12.317966,7.24046154 L12.317966,10.9264615 L20.1797774,10.9264615 L20.1797774,12.4318462 C20.1797774,13.4110769 19.6352491,13.6770769 18.9244189,13.6770769 L5.49370189,13.6770769 C4.51649434,13.6770769 4.20890943,13.1757692 4.20890943,12.3909231 L4.20890943,5.96015385 C4.20890943,5.10515385 4.68573962,4.82307692 5.21260755,4.82307692 L24.2828717,4.82307692 L24.2828717,0.958769231 L4.6239283,0.958769231 C1.59811698,0.958769231 -0.000147169811,2.79592308 -0.000147169811,5.52023077 L-0.000147169811,13.0135385 C-0.000147169811,15.8445385 1.69524906,17.5384615 4.66513585,17.5384615" id="Fill-1" fill="#231F20" mask="url(#mask-2)"></path>
                    </g>
                    <polygon id="Fill-4" fill="#231F20" points="31.0738755 5.46498462 37.7980642 18.0400615 41.6877623 18.0400615 48.4001774 5.46498462 48.4001774 18.0400615 52.6254226 18.0400615 52.6254226 1.46183077 46.1367057 1.46183077 39.739234 13.3689846 33.3373472 1.46183077 26.8633472 1.46183077 26.8633472 18.0400615 31.0738755 18.0400615"></polygon>
                    <g id="Group-8" transform="translate(54.452830, 0.502331)">
                        <mask id="mask-4" fill="white">
                            <use xlink:href="#path-3"></use>
                        </mask>
                        <g id="Clip-7"></g>
                        <path d="M0.607958491,5.52066923 L0.607958491,13.0139769 C0.607958491,15.8435154 2.30335472,17.5389 5.26588302,17.5389 L22.8806377,17.5389 L22.8806377,13.3662077 L6.10622264,13.3662077 C5.12901509,13.3662077 4.8140717,12.8707462 4.8140717,12.0859 L4.8140717,6.26751538 C4.8140717,5.42420769 5.29973208,5.12313077 5.8266,5.12313077 L22.8806377,5.12313077 L22.8806377,0.959207692 L5.22909057,0.959207692 C2.20769434,0.959207692 0.607958491,2.79636154 0.607958491,5.52066923" id="Fill-6" fill="#231F20" mask="url(#mask-4)"></path>
                    </g>
                </g>
            </g>
        </g>
    </g>
</svg>