<?xml version="1.0" encoding="UTF-8"?>
<svg width="122px" height="80px" viewBox="0 0 122 80" version="1.1" xmlns="http://www.w3.org/2000/svg" xmlns:xlink="http://www.w3.org/1999/xlink">
    <!-- Generator: Sketch 49.2 (51160) - http://www.bohemiancoding.com/sketch -->
    <title>Rectangle 3 Copy 19</title>
    <desc>Created with Sketch.</desc>
    <defs>
        <polygon id="path-1" points="1.2003931 0.557296552 9.60153103 0.557296552 9.60153103 6.72413793 1.2003931 6.72413793"></polygon>
        <polygon id="path-3" points="1.04614138 0.556893103 11.6662448 0.556893103 11.6662448 6.72413793 1.04614138 6.72413793"></polygon>
        <polygon id="path-5" points="0.498662069 0.556893103 6.67814483 0.556893103 6.67814483 6.72413793 0.498662069 6.72413793"></polygon>
        <polygon id="path-7" points="0.556893103 0.556893103 6.73355172 0.556893103 6.73355172 6.72413793 0.556893103 6.72413793"></polygon>
    </defs>
    <g id="Ilustraciones" stroke="none" stroke-width="1" fill="none" fill-rule="evenodd">
        <g id="GREAT-WALL" transform="translate(-39.000000, -60.000000)">
            <g id="Group" transform="translate(39.000000, 60.000000)">
                <rect id="Rectangle-3-Copy-19" x="0" y="0" width="122" height="80"></rect>
                <g id="Page-1" transform="translate(22.000000, 21.000000)">
                    <path d="M25.5997345,21.3491379 C28.7977345,19.6546552 33.6122172,18.8598621 38.3500448,18.9123103 C43.2532862,18.9674483 48.1188724,19.9236207 51.1043897,21.6974483 C47.6185966,24.9922759 42.958769,26.645069 38.3500448,26.6316207 C33.6122172,26.6168276 28.9120448,24.8591379 25.5997345,21.3491379 Z M22.974631,17.1801724 C26.5935621,14.8052069 31.3300448,14.0373103 36.4888034,13.7374138 L36.4888034,10.0364483 L38.3500448,10.0364483 L40.2381828,10.0364483 L40.2381828,13.7374138 C45.7129759,13.9821724 50.0123897,15.2368966 53.7402517,17.2272414 C53.511631,17.8512414 53.1821483,18.5505517 52.8432517,19.1194138 C48.9002172,16.7336897 43.5612517,15.5717586 38.3500448,15.491069 C32.7111828,15.4076897 27.2068034,16.5763448 23.7250448,18.8706207 C23.3901828,18.3031034 23.2072862,17.7934138 22.974631,17.1801724 Z M38.3500448,1.56537931 C38.4024931,1.55058621 38.4616655,1.55058621 38.5154586,1.55058621 C45.2960793,1.41341379 54.5888379,6.18082759 54.2445621,14.3143448 C51.2092862,12.5391724 47.7813207,11.4054828 43.5168724,10.8514138 L43.5168724,6.66496552 L38.3500448,6.66496552 L33.3593897,6.66496552 L33.3593897,10.8204828 C29.1097345,11.3839655 25.5593897,12.4436897 22.5214241,14.2175172 C22.5214241,5.32282759 31.7778724,1.62455172 38.3500448,1.56537931 Z M38.4024931,27.8204483 C48.3663207,27.7612759 56.7513207,21.6006207 56.7513207,13.8961034 C56.7513207,6.21444828 48.6245276,0 38.4024931,0 L38.3500448,0 C28.1723897,0.0295862069 19.9124586,6.23596552 19.9124586,13.8961034 C19.9124586,21.5683448 28.0298379,27.7922069 38.3500448,27.8204483 L38.4024931,27.8204483 Z" id="Fill-1" fill="#231F20"></path>
                    <path d="M0.00605172414,34.3653207 C-0.0383275862,35.2085276 0.156672414,36.1068724 0.816982759,36.7093552 C2.2962931,38.0609069 5.33022414,37.5794586 7.2587069,37.5229759 L7.2587069,34.2873207 L2.71453448,34.2873207 C2.77505172,34.596631 2.93912069,34.9180448 3.22422414,35.197769 L5.29122414,35.197769 L5.29122414,36.9151138 C4.51794828,36.9769759 3.88991379,36.7174241 3.20808621,36.4861138 C1.3307069,35.8567345 1.12360345,33.3943552 3.30625862,32.685631 C4.47894828,32.2969759 5.88025862,32.4865966 7.2587069,32.8833207 L7.2587069,31.5627 C3.5537069,31.5075621 0.129775862,31.1458034 0.00605172414,34.3653207" id="Fill-3" fill="#231F20"></path>
                    <path d="M13.0208897,34.3903345 L12.2785448,34.3903345 L10.8920276,34.3903345 L10.8920276,32.6272655 L12.2785448,32.6272655 L13.104269,32.6272655 C13.9367172,32.9567483 13.7914759,34.2034034 13.0208897,34.3903345 M14.5284414,31.5070241 L14.2756138,31.5070241 L12.2785448,31.5070241 L8.76854483,31.5070241 L8.76854483,37.6744034 L10.8624414,37.6744034 L10.8624414,35.1703345 L12.2785448,35.1703345 L13.6220276,37.6744034 L15.7724069,37.6744034 L14.235269,35.0735069 C15.1578207,34.7077138 15.7455103,33.9035069 15.7724069,33.1194724 L15.7724069,32.9890241 C15.7455103,32.3757828 15.3703034,31.8001966 14.5284414,31.5070241" id="Fill-5" fill="#231F20"></path>
                    <path d="M18.8349828,34.9418483 L22.1351897,34.9768138 C22.5211552,34.9768138 22.6368103,34.3326414 22.7242241,34.0098828 L18.8349828,34.0098828 L18.8349828,32.4781241 L22.1351897,32.4781241 C22.5386379,32.4781241 22.748431,31.8285724 22.8439138,31.5071586 L16.7410862,31.5071586 L16.7410862,37.1002966 C16.7478103,37.4244 16.9024655,37.6745379 17.2427069,37.6745379 L23.1276724,37.6745379 L23.1276724,36.7170207 L18.8349828,36.7170207 L18.8349828,34.9418483 Z" id="Fill-7" fill="#231F20"></path>
                    <g id="Group-11" transform="translate(22.862069, 30.950669)">
                        <mask id="mask-2" fill="white">
                            <use xlink:href="#path-1"></use>
                        </mask>
                        <g id="Clip-10"></g>
                        <path d="M5.38011724,4.4061931 L4.21953103,4.4061931 L5.21066897,2.27195172 L5.38011724,2.27195172 L5.66253103,2.27195172 L6.5286,4.4061931 L5.38011724,4.4061931 Z M5.38011724,0.557296552 L3.86987586,0.557296552 L1.2003931,6.72467586 L3.39246207,6.72467586 L3.89542759,5.56274483 L5.38011724,5.56274483 L6.87287586,5.56274483 L7.40811724,6.72467586 L9.60153103,6.72467586 L6.84463448,0.557296552 L5.38011724,0.557296552 Z" id="Fill-9" fill="#231F20" mask="url(#mask-2)"></path>
                    </g>
                    <path d="M58.5480103,35.3253931 L57.3995276,35.3253931 L58.3812517,33.2005655 L58.5480103,33.2005655 L58.8398379,33.2005655 L59.6938034,35.3253931 L58.5480103,35.3253931 Z M58.5480103,31.4778414 L57.0364241,31.4778414 L54.3709759,37.6506 L56.5630448,37.6506 L57.0633207,36.4859793 L58.5480103,36.4859793 L60.0380793,36.4859793 L60.5746655,37.6506 L62.770769,37.6506 L60.0286655,31.4778414 L58.5480103,31.4778414 Z" id="Fill-12" fill="#231F20"></path>
                    <path d="M31.8603103,32.6553724 L34.3953103,32.6553724 L34.3953103,37.674269 L36.5322414,37.674269 L36.5322414,32.6553724 L38.5871379,32.6553724 C39.0605172,32.6553724 39.4061379,32.0098552 39.5473448,31.5068897 L31.8603103,31.5068897 L31.8603103,32.6553724 Z" id="Fill-14" fill="#231F20"></path>
                    <g id="Group-18" transform="translate(43.034483, 30.950669)">
                        <mask id="mask-4" fill="white">
                            <use xlink:href="#path-3"></use>
                        </mask>
                        <g id="Clip-17"></g>
                        <polygon id="Fill-16" fill="#231F20" mask="url(#mask-4)" points="9.8466931 0.556893103 8.91876207 4.97196207 8.33914138 4.97196207 6.81814138 0.556893103 5.98972759 0.556893103 4.36921034 4.97196207 3.81648621 4.97196207 2.9046931 0.556893103 1.04614138 0.556893103 2.83476207 6.72427241 5.23796897 6.72427241 6.36896897 3.79792759 7.63041724 6.72427241 9.9636931 6.72427241 11.6662448 0.556893103"></polygon>
                    </g>
                    <g id="Group-21" transform="translate(63.206897, 30.950669)">
                        <mask id="mask-6" fill="white">
                            <use xlink:href="#path-5"></use>
                        </mask>
                        <g id="Clip-20"></g>
                        <path d="M2.6208,0.556893103 L0.498662069,0.556893103 L0.498662069,5.99806552 C0.498662069,6.37192759 0.651972414,6.72427241 1.10114483,6.72427241 L6.67814483,6.72427241 L6.67814483,5.59058276 L2.6208,5.59058276 L2.6208,0.556893103 Z" id="Fill-19" fill="#231F20" mask="url(#mask-6)"></path>
                    </g>
                    <g id="Group-24" transform="translate(69.931034, 30.950669)">
                        <mask id="mask-8" fill="white">
                            <use xlink:href="#path-7"></use>
                        </mask>
                        <g id="Clip-23"></g>
                        <path d="M2.6628931,0.556893103 L0.556893103,0.556893103 L0.556893103,5.98058276 C0.556893103,6.37192759 0.70347931,6.72427241 1.14996207,6.72427241 L6.73368621,6.72427241 L6.73368621,5.57847931 L2.6628931,5.57847931 L2.6628931,0.556893103 Z" id="Fill-22" fill="#231F20" mask="url(#mask-8)"></path>
                    </g>
                </g>
            </g>
        </g>
    </g>
</svg>