<?xml version="1.0" encoding="UTF-8"?>
<svg width="122px" height="80px" viewBox="0 0 122 80" version="1.1" xmlns="http://www.w3.org/2000/svg" xmlns:xlink="http://www.w3.org/1999/xlink">
    <!-- Generator: Sketch 49.2 (51160) - http://www.bohemiancoding.com/sketch -->
    <title>Rectangle 3 Copy 19</title>
    <desc>Created with Sketch.</desc>
    <defs>
        <polygon id="path-1" points="0 1.51499799 62.964 1.51499799 62.964 41.8657406 0 41.8657406"></polygon>
    </defs>
    <g id="Ilustraciones" stroke="none" stroke-width="1" fill="none" fill-rule="evenodd">
        <g id="HINO" transform="translate(-39.000000, -60.000000)">
            <g id="Group" transform="translate(39.000000, 60.000000)">
                <rect id="Rectangle-3-Copy-19" x="0" y="0" width="122" height="80"></rect>
                <g id="Page-1" transform="translate(29.000000, 9.000000)">
                    <path d="M53.9668,56.9918 C53.9668,57.6418 53.4388,58.1638 52.7868,58.1638 L49.2048,58.1638 C48.7808,58.1638 48.5008,57.9518 48.3708,57.8238 C48.2408,57.6918 48.0228,57.4138 48.0228,56.9918 L48.0228,55.3838 C48.0228,54.9558 48.2408,54.6758 48.3708,54.5498 C48.5008,54.4198 48.7808,54.2018 49.2048,54.2018 L52.7868,54.2018 C53.2148,54.2018 53.4928,54.4198 53.6348,54.5498 C53.7548,54.6818 53.9668,54.9558 53.9668,55.3838 L53.9668,56.9918 Z M54.1548,52.2258 L47.8908,52.2258 C46.0788,52.2258 44.3588,53.1238 44.3588,55.3978 L44.3588,57.1758 C44.3588,59.0998 45.1748,59.8778 47.1388,60.2018 C48.2908,60.3918 49.9628,60.4858 51.0228,60.4858 C52.0828,60.4858 53.7548,60.3918 54.9048,60.2018 C56.8768,59.8778 57.6988,59.0998 57.6988,57.1758 L57.6988,55.3978 C57.6988,53.1238 55.9768,52.2258 54.1548,52.2258 Z" id="Fill-1" fill="#231F20"></path>
                    <path d="M14.043,53.7398 C14.043,54.4198 13.589,54.7578 13.109,54.7578 L9.955,54.7578 C9.489,54.7578 9.025,54.4198 9.025,53.7398 L9.025,52.5238 L5.627,52.5238 L5.627,59.8358 L9.025,59.8358 L9.025,58.3938 C9.025,57.7318 9.489,57.3878 9.955,57.3878 L13.109,57.3878 C13.589,57.3878 14.043,57.7318 14.043,58.3938 L14.043,59.8358 L17.897,59.8358 L17.897,52.5238 L14.043,52.5238 L14.043,53.7398 Z" id="Fill-3" fill="#231F20"></path>
                    <g id="Group-7" transform="translate(0.000000, 0.485800)">
                        <mask id="mask-2" fill="white">
                            <use xlink:href="#path-1"></use>
                        </mask>
                        <g id="Clip-6"></g>
                        <path d="M61.7598,22.1564 C61.7098,23.3724 61.3578,22.5504 61.3138,22.0904 C61.2958,21.6164 60.8898,16.8564 57.1258,12.8644 C56.6898,12.4124 56.4278,12.5424 56.7518,13.1064 C57.0638,13.6644 59.8998,17.3864 59.6558,22.3924 C59.4198,27.3904 55.5438,36.8244 38.3758,40.4264 C37.8838,40.5324 36.6738,40.4264 38.3538,39.9504 C40.0418,39.4664 51.3578,36.9464 56.1898,28.7984 C60.7218,21.1384 53.5478,21.9864 49.9478,21.9124 C46.6778,21.8364 36.7458,21.8984 32.1978,21.9064 L32.1978,21.9124 L31.5618,21.9124 L30.9358,21.9124 L30.9358,21.9064 C26.3778,21.8984 16.4458,21.8364 13.1838,21.9124 C9.5798,21.9864 2.4038,21.1384 6.9418,28.7984 C11.7578,36.9464 23.0958,39.4664 24.7678,39.9504 C26.4578,40.4264 25.2578,40.5324 24.7438,40.4264 C7.5938,36.8244 3.7058,27.3904 3.4598,22.3924 C3.2238,17.3864 6.0598,13.6644 6.3758,13.1064 C6.6958,12.5424 6.4278,12.4124 5.9938,12.8644 C2.2258,16.8564 1.8298,21.6164 1.7958,22.0904 C1.7718,22.5504 1.4198,23.3724 1.3718,22.1564 C1.2958,20.4784 1.9678,13.9404 8.8418,8.8924 C15.7118,3.8564 22.2498,3.0204 23.7858,2.7544 C25.3238,2.4824 26.9058,2.6144 23.9858,3.3864 C12.1358,6.5104 8.3078,11.5684 6.0998,16.1424 C3.8758,20.7224 8.2378,20.7224 11.1198,20.8204 C13.9198,20.9184 24.1598,20.9484 31.5618,20.9524 C38.9658,20.9484 49.2058,20.9184 52.0138,20.8204 C54.8838,20.7224 59.2438,20.7224 57.0318,16.1424 C54.8218,11.5684 50.9878,6.5104 39.1278,3.3864 C36.2218,2.6144 37.7998,2.4824 39.3358,2.7544 C40.8798,3.0204 47.4158,3.8564 54.2818,8.8924 C61.1558,13.9404 61.8318,20.4784 61.7598,22.1564 M31.5618,19.5904 C51.6158,19.5904 50.4238,19.2524 52.4718,18.3424 C52.9138,18.1484 53.1998,18.1064 53.3598,18.2104 C53.5238,18.3184 53.7338,18.4484 54.1138,18.6624 C54.4758,18.8784 54.6718,19.1424 54.1338,19.3284 C51.6278,20.2004 35.2798,20.1784 31.5618,20.1784 C27.8518,20.1784 11.4958,20.2004 8.9918,19.3284 C8.4538,19.1424 8.6498,18.8784 9.0258,18.6624 C9.3918,18.4484 9.6078,18.3184 9.7698,18.2104 C9.9258,18.1064 10.2098,18.1484 10.6458,18.3424 C12.7038,19.2524 11.5118,19.5904 31.5618,19.5904 M37.3978,1.5204 C33.5658,1.6704 34.1698,3.5444 36.6618,4.3724 C39.1558,5.1984 50.5398,8.8424 51.3978,15.7904 C51.7298,18.3664 46.9678,18.7404 31.4798,18.7424 C15.9218,18.7424 11.2298,18.3664 11.5518,15.7904 C12.4158,8.8424 23.7938,5.1984 26.2938,4.3724 C28.7918,3.5444 29.3858,1.6704 25.5538,1.5204 C20.9298,1.3324 -0.0002,6.0124 -0.0002,21.6904 C-0.0102,37.3104 20.9298,42.0484 25.5538,41.8604 C29.3858,41.7124 28.7918,39.8324 26.2938,39.0064 C23.7938,38.1784 12.4158,34.5304 11.5518,27.5844 C11.2298,25.0044 16.0238,24.6064 31.4798,24.6364 C46.9678,24.6664 51.7298,25.0044 51.3978,27.5844 C50.5398,34.5304 39.1558,38.1744 36.6618,39.0064 C34.1698,39.8324 33.5658,41.7124 37.3978,41.8604 C42.0178,42.0484 62.9658,37.2984 62.9658,21.6904 C62.9658,6.0124 42.0178,1.3324 37.3978,1.5204" id="Fill-5" fill="#231F20" mask="url(#mask-2)"></path>
                    </g>
                    <path d="M23.1796,59.8356 L23.1796,52.5236" id="Stroke-8" stroke="#020303" stroke-width="3.436"></path>
                    <path d="M37.7012,54.6402 C37.7012,55.0122 37.5512,55.1222 37.2552,55.1222 C36.8192,55.1222 32.6232,52.5222 32.2032,52.5222 L28.4432,52.5222 L28.4432,59.8422 L32.2032,59.8422 L32.2032,56.8022 C32.2032,56.5242 32.3812,56.3142 32.6792,56.3142 C33.1812,56.3142 34.1272,56.6562 37.0712,58.7442 C37.7352,59.2142 37.7012,59.5822 37.7012,59.8302 L37.7012,59.8422 L41.4472,59.8422 L41.4472,52.5222 L37.7012,52.5222 L37.7012,54.6402 Z" id="Fill-10" fill="#231F20"></path>
                </g>
            </g>
        </g>
    </g>
</svg>