<?xml version="1.0" encoding="UTF-8"?>
<svg width="122px" height="80px" viewBox="0 0 122 80" version="1.1" xmlns="http://www.w3.org/2000/svg" xmlns:xlink="http://www.w3.org/1999/xlink">
    <!-- Generator: Sketch 49.2 (51160) - http://www.bohemiancoding.com/sketch -->
    <title>Rectangle 3 Copy 19</title>
    <desc>Created with Sketch.</desc>
    <defs></defs>
    <g id="Ilustraciones" stroke="none" stroke-width="1" fill="none" fill-rule="evenodd">
        <g id="HONDA" transform="translate(-39.000000, -60.000000)">
            <g id="Group" transform="translate(39.000000, 60.000000)">
                <rect id="Rectangle-3-Copy-19" x="0" y="0" width="122" height="80"></rect>
                <g id="Page-1" transform="translate(22.000000, 16.000000)" fill="#231F20">
                    <path d="M62.0777182,11.1973018 C61.9164,8.47112 61.5148773,5.49726545 59.5054909,3.48024727 C57.6716045,1.64052 55.0266955,1.12468364 52.5643773,0.794156364 C47.9322409,0.173192727 43.3656955,0.00392 38.6874682,0.000356363636 C34.0092409,0.00392 29.4426955,0.173192727 24.8105591,0.794156364 C22.3491273,1.12468364 19.7024455,1.64052 17.8703318,3.48024727 C15.8600591,5.49726545 15.4594227,8.47112 15.2972182,11.1973018 C15.1093091,14.3573564 15.2706273,17.5085018 15.4647409,20.66232 C15.6597409,23.7662473 16.0080818,26.9004655 16.7623773,29.92332 C17.1116045,31.32472 17.5849227,32.7323564 18.3941727,33.9377564 C19.1724,35.0950473 20.2927636,35.9146836 21.5478545,36.4911018 C24.2149227,37.7161018 27.2923773,37.8203382 30.1721727,37.9994109 C32.9970136,38.17492 35.8413545,38.2809382 38.6874682,38.2951927 C41.5335818,38.2809382 44.37615,38.17492 47.2018773,37.9994109 C50.0825591,37.8203382 53.1591273,37.7161018 55.8261955,36.4911018 C57.0821727,35.9146836 58.2025364,35.0950473 58.9807636,33.9377564 C59.7900136,32.7323564 60.2633318,31.32472 60.6134455,29.92332 C61.3668545,26.9004655 61.7151955,23.7662473 61.9101955,20.66232 C62.1034227,17.5085018 62.2656273,14.3573564 62.0777182,11.1973018 M21.2837182,33.1582109 C19.4790818,31.2062291 19.2415364,27.9098655 18.8958545,25.3921564 C18.3941727,21.7394291 18.2248773,17.9985018 18.2674227,14.3145927 C18.3002182,11.4280473 18.0883773,7.76462909 19.9080818,5.32710182 C20.8689,4.03795636 22.4696727,3.60942909 23.9277409,3.18535636 C24.6988773,3.21742909 24.3930818,4.43262909 24.4365136,4.92619273 C24.4764,7.84837455 24.64215,10.77412 24.7680136,13.6954109 C25.1943545,20.6551927 25.6924909,27.5918109 26.5939227,34.5070473 C26.8270364,36.7200655 21.9174682,33.8477745 21.2837182,33.1582109 M45.0551045,35.8710291 C44.7679227,35.9218109 43.8017864,35.9200291 42.7354909,35.9458655 C41.3837864,35.9788291 40.0365136,35.9823927 38.6874682,35.9823927 C37.3393091,35.9823927 35.99115,35.9788291 34.6403318,35.9458655 C33.57315,35.9200291 32.6070136,35.9218109 32.3198318,35.8710291 C32.03265,35.8211382 31.7366045,35.80332 31.8225818,35.4817018 C31.9094455,35.1583018 33.2053091,30.9594473 33.2053091,30.9594473 C34.0553318,28.1682291 34.1147182,27.9847018 36.2987182,27.5543927 C37.0237636,27.4109564 37.8507409,27.3191927 38.6874682,27.3138473 C39.5233091,27.3191927 40.3511727,27.4109564 41.0771045,27.5543927 C43.2602182,27.9847018 43.3196045,28.1682291 44.1696273,30.9594473 C44.1696273,30.9594473 45.4663773,35.1583018 45.5514682,35.4817018 C45.6392182,35.80332 45.3431727,35.8211382 45.0551045,35.8710291 M48.8602636,3.12477455 C47.8622182,6.77572 46.7090591,11.61692 45.68265,15.2839018 C44.8609909,18.2176655 43.9187864,21.9969018 40.3556045,22.3719745 C39.8237864,22.4272109 39.2582864,22.4735382 38.6874682,22.4824473 C38.1157636,22.4735382 37.5520364,22.4272109 37.0193318,22.3719745 C33.45615,21.9969018 32.5139455,18.2176655 31.6922864,15.2839018 C30.6658773,11.61692 29.5136045,6.77572 28.5146727,3.12477455 C28.3427182,2.49490182 28.6015364,2.63922909 29.8911955,2.46372 C32.2090364,2.15101091 35.6667409,2.10201091 38.6874682,2.13141091 C41.7081955,2.10201091 45.1659,2.15101091 47.4837409,2.46372 C48.7734,2.63922909 49.0322182,2.49490182 48.8602636,3.12477455 M58.4790818,25.3921564 C58.1334,27.9098655 57.8949682,31.2062291 56.0912182,33.1582109 C55.4574682,33.8477745 50.5479,36.7200655 50.7810136,34.5070473 C51.6815591,27.5918109 52.1796955,20.6551927 52.6069227,13.6954109 C52.7327864,10.77412 52.8994227,7.84837455 52.9384227,4.92619273 C52.9809682,4.43262909 52.6760591,3.21742909 53.4471955,3.18535636 C54.9043773,3.60942909 56.5060364,4.03795636 57.4668545,5.32710182 C59.2865591,7.76462909 59.0747182,11.4289382 59.1075136,14.3145927 C59.1509455,17.9985018 58.98165,21.7394291 58.4790818,25.3921564" id="Fill-1"></path>
                    <path d="M14.2413818,46.9502855 C14.2236545,46.7222127 14.2059273,46.5841218 14.2059273,46.3578309 L14.2059273,41.8640855 C14.2059273,41.5994855 14.1146318,41.1700673 14.6455636,41.0854309 L15.9485182,40.9491218 L15.9485182,39.9040855 L9.00385909,39.9040855 L9.00385909,40.9491218 C9.29635909,40.9491218 10.1100409,41.0480127 10.3440409,41.1371036 C10.4787682,41.1869945 10.7482227,41.2876673 10.7482227,41.8640855 L10.7482227,43.4641582 L5.2377,43.4641582 L5.2377,41.7919218 C5.2377,41.5763218 5.28379091,41.2386673 5.67024545,41.10414 C5.91222273,41.0177218 6.66385909,40.9838673 7.01840455,40.9491218 L7.01840455,39.9040855 L0.000177272727,39.9040855 L0.000177272727,40.9491218 C0.508063636,41.0007945 0.926427273,40.9990127 1.3962,41.1085945 C1.80392727,41.2057036 1.78088182,41.6422491 1.78088182,41.8819036 L1.78088182,46.5244309 C1.76847273,46.9796855 1.76847273,46.8772309 1.76847273,46.8772309 C1.76847273,47.2834855 1.36163182,47.4135582 1.0647,47.4224673 L0.000177272727,47.4981945 L0.000177272727,48.54234 L7.01840455,48.54234 L7.01840455,47.4981945 C6.79947273,47.4981945 6.10722273,47.40554 5.8032,47.3618855 C5.24301818,47.2817036 5.2377,46.9422673 5.2377,46.6331218 L5.2377,45.0989764 L10.7482227,45.0989764 L10.7482227,46.4166309 C10.7482227,46.7035036 10.8687682,47.2407218 10.2713591,47.3387218 C9.75460909,47.4224673 9.18733636,47.4981945 9.00385909,47.4981945 L9.00385909,48.54234 L15.9857455,48.54234 L15.9857455,47.4981945 C15.5718136,47.4554309 15.4220182,47.4554309 14.6260636,47.3387218 C14.3858591,47.3030855 14.2591091,47.1168855 14.2413818,46.9502855" id="Fill-3"></path>
                    <path d="M20.3650023,45.1754164 C20.0911159,44.0974164 20.3330932,42.9677436 20.9437977,42.2514527 C21.9640023,40.9302345 24.9962523,41.0175436 25.9668205,42.3004527 C26.7512523,43.2252164 26.7512523,44.67918 26.2229795,45.8623073 C25.6078432,47.0249436 24.4006159,47.26638 22.8849341,47.2147073 C21.5740023,47.0926527 20.7062523,46.4770345 20.3650023,45.1754164 M28.6259114,40.7627436 C27.2343205,39.8406527 25.3862523,39.6624709 23.4309341,39.6624709 C21.712275,39.6624709 19.6630023,39.9252891 18.4371614,40.7128527 C17.0686159,41.5877255 16.3914341,43.0684164 16.3914341,44.3014345 C16.3914341,45.4266527 17.1421841,46.9171436 18.3112977,47.7421255 C19.5530932,48.6161073 21.4942295,48.8655618 23.3219114,48.8655618 C25.2586159,48.8655618 27.0340023,48.7345982 28.4601614,47.8481436 C29.7764114,47.0489982 30.584775,45.6743255 30.5643886,44.2693618 C30.5493205,42.8839982 29.8863205,41.6233618 28.6259114,40.7627436" id="Fill-5"></path>
                    <path d="M40.9305,39.8856436 L40.9305,40.9645345 C42.4851818,40.9761164 42.6527045,41.3494073 42.6527045,42.3302982 L42.6527045,46.5122255 L37.5445909,39.8856436 L31.1246591,39.8856436 L31.1246591,40.93068 C31.9108636,40.93068 32.8876364,41.2371527 32.8876364,42.3008982 L32.8761136,46.1282436 C32.8202727,47.1706073 32.8699091,47.4699527 31.1689773,47.51628 L31.1689773,48.5595345 L36.5359091,48.5595345 L36.5359091,47.51628 C34.85625,47.4931164 34.8792955,46.9915345 34.8792955,45.9856982 L34.8792955,42.1129164 L39.8615455,48.6557527 L44.6585455,48.6557527 L44.6585455,42.8087164 C44.6585455,42.4630436 44.6461364,42.0487709 44.7409773,41.7093345 C44.9262273,41.0331345 45.4970455,41.0135345 46.4108864,40.93068 L46.4108864,39.8856436 L40.9305,39.8856436 Z" id="Fill-7"></path>
                    <path d="M57.5039932,44.1130964 C57.5660386,45.3897691 57.3533114,47.1306055 54.5524023,46.9925145 L52.0377886,46.9925145 L52.0377886,41.5855873 L54.6694023,41.5855873 C55.6133795,41.5793509 56.1425386,41.70586 56.7044932,42.1424055 C57.3409023,42.6386418 57.4685386,43.3754236 57.5039932,44.1130964 M59.9317432,41.0091691 C59.4025841,40.6394418 58.6934932,40.3935509 57.9604705,40.1957691 C57.0359932,39.9463145 55.7693795,39.9213691 54.8386977,39.9088964 L53.1395386,39.9213691 L47.1122659,39.9213691 L47.1122659,40.9646236 L48.2937886,41.07866 C48.6031295,41.1490418 48.8185159,41.3842418 48.8096523,41.8172236 L48.8096523,46.7991873 C48.8096523,46.7991873 48.7671068,47.23306 48.431175,47.3675873 C48.0916977,47.5012236 47.6059705,47.5163691 47.1122659,47.5163691 L47.1122659,48.5596236 L53.4559705,48.5703145 C54.3414477,48.5489327 56.2728341,48.60506 57.4853795,48.4001509 C58.8264477,48.1774236 60.1834705,47.5119145 60.7569477,46.65486 C61.4846523,45.5697327 61.5608795,44.8970964 61.5608795,44.1442782 C61.5608795,43.0074782 61.1203568,41.8715691 59.9317432,41.0091691" id="Fill-9"></path>
                    <path d="M66.2715477,44.4698164 L68.1444341,41.5387255 L70.0634114,44.4698164 L66.2715477,44.4698164 Z M63.9634568,39.8896527 L63.9634568,41.0050709 C63.9634568,41.0050709 66.5277068,40.8144164 65.4091159,42.50358 L63.3633886,45.8774527 C62.7190023,46.9064527 62.5186841,47.5087073 60.8984114,47.5167255 L60.8984114,48.55998 L66.4488205,48.55998 L66.4488205,47.5167255 C65.6989568,47.4632709 64.5847977,47.3287436 65.207025,46.3683436 C65.207025,46.3683436 65.4950932,45.9380345 65.4933205,45.9193255 L70.9347068,45.9228891 L71.2573432,46.3683436 C72.1499114,47.6797618 69.9641386,47.5167255 69.9641386,47.5167255 L69.9641386,48.55998 L77.3741386,48.55998 L77.3741386,47.5167255 C76.1518432,47.4935618 75.9018886,47.3037982 75.4631386,46.6204709 L70.8274568,39.8851982 L63.9634568,39.8896527 Z" id="Fill-11"></path>
                </g>
            </g>
        </g>
    </g>
</svg>