<?xml version="1.0" encoding="UTF-8"?>
<svg width="122px" height="80px" viewBox="0 0 122 80" version="1.1" xmlns="http://www.w3.org/2000/svg" xmlns:xlink="http://www.w3.org/1999/xlink">
    <!-- Generator: Sketch 49.2 (51160) - http://www.bohemiancoding.com/sketch -->
    <title>Rectangle 3 Copy 19</title>
    <desc>Created with Sketch.</desc>
    <defs>
        <polygon id="path-1" points="0.169118182 0.114975 12.5581182 0.114975 12.5581182 7.875 0.169118182 7.875"></polygon>
        <polygon id="path-3" points="0.988590909 0.031725 2.36481818 0.031725 2.36481818 1.3176 0.988590909 1.3176"></polygon>
    </defs>
    <g id="Ilustraciones" stroke="none" stroke-width="1" fill="none" fill-rule="evenodd">
        <g id="HUMMER" transform="translate(-39.000000, -60.000000)">
            <g id="Group" transform="translate(39.000000, 60.000000)">
                <rect id="Rectangle-3-Copy-19" x="0" y="0" width="122" height="80"></rect>
                <g id="Page-1" transform="translate(22.000000, 36.000000)">
                    <polygon id="Fill-1" fill="#231F20" points="6.91257273 1.21127625 6.91257273 4.17902625 4.65766364 4.17902625 4.65766364 1.21127625 0.000118181818 1.21127625 0.000118181818 8.96815125 4.65766364 8.96815125 4.65766364 5.96215125 6.91257273 5.96215125 6.91257273 8.96815125 11.5653909 8.96815125 11.5653909 1.21127625"></polygon>
                    <g id="Group-16" transform="translate(11.818182, 1.093039)">
                        <path d="M3.80864545,7.875 L8.68719091,7.875 C11.3486455,7.875 12.0671909,6.166125 12.0671909,5.369625 L12.0671909,0.115875 L7.40964545,0.115875 L7.40964545,5.299875 C7.40964545,5.839875 7.07046364,6.445125 6.24200909,6.445125 C5.41591818,6.445125 5.08146364,5.839875 5.08146364,5.299875 L5.08146364,0.115875 L0.422736364,0.115875 L0.422736364,5.369625 C0.422736364,6.166125 1.13773636,7.875 3.80864545,7.875" id="Fill-2" fill="#231F20"></path>
                        <polygon id="Fill-4" fill="#231F20" points="16.9459727 4.5550125 18.8628818 7.8748875 20.8140636 7.8748875 22.7297909 4.5550125 22.7297909 7.8748875 27.0115182 7.8748875 27.0115182 0.1157625 21.6791545 0.1157625 19.8343364 3.2623875 17.9977909 0.1157625 12.6618818 0.1157625 12.6618818 7.8748875 16.9459727 7.8748875"></polygon>
                        <polygon id="Fill-6" fill="#231F20" points="31.8906545 4.5550125 33.8075636 7.8748875 35.7587455 7.8748875 37.6744727 4.5550125 37.6744727 7.8748875 41.9502909 7.8748875 41.9502909 0.1157625 36.6191091 0.1157625 34.7837455 3.2623875 32.9436545 0.1157625 27.6124727 0.1157625 27.6124727 7.8748875 31.8906545 7.8748875"></polygon>
                        <polygon id="Fill-8" fill="#231F20" points="51.5706455 5.7360375 47.2853727 5.7360375 47.2853727 4.8686625 51.5706455 4.8686625 51.5706455 3.0866625 47.2853727 3.0866625 47.2853727 2.2665375 51.5706455 2.2665375 51.5706455 0.1155375 42.4812818 0.1155375 42.4812818 7.8746625 51.5706455 7.8746625"></polygon>
                        <g id="Group-12" transform="translate(52.000000, 0.000000)">
                            <mask id="mask-2" fill="white">
                                <use xlink:href="#path-1"></use>
                            </mask>
                            <g id="Clip-11"></g>
                            <path d="M6.10184545,3.69585 L4.82666364,3.69585 L4.82666364,1.939725 L6.25311818,1.939725 C7.42075455,1.939725 7.30493636,3.69585 6.10184545,3.69585 M11.8880273,2.686725 C11.8880273,1.7226 11.2474818,0.114975 9.44284545,0.114975 L0.169118182,0.114975 L0.169118182,7.875225 L4.82666364,7.875225 L4.82666364,5.62635 L6.8133,7.875225 L12.5581182,7.875225 L10.1188455,5.125725 C11.0914818,5.163975 11.8880273,3.6531 11.8880273,2.686725" id="Fill-10" fill="#231F20" mask="url(#mask-2)"></path>
                        </g>
                        <g id="Group-15" transform="translate(62.636364, 0.000000)">
                            <mask id="mask-4" fill="white">
                                <use xlink:href="#path-3"></use>
                            </mask>
                            <g id="Clip-14"></g>
                            <path d="M1.67759091,1.21185 C1.36795455,1.21185 1.1245,0.98235 1.1245,0.670725 C1.1245,0.360225 1.36795455,0.1386 1.67759091,0.1386 C1.98722727,0.1386 2.22831818,0.360225 2.22831818,0.670725 C2.22831818,0.98235 1.98722727,1.21185 1.67759091,1.21185 M1.67759091,0.031725 C1.30768182,0.031725 0.988590909,0.3006 0.988590909,0.670725 C0.988590909,1.050975 1.30768182,1.3176 1.67759091,1.3176 C2.05104545,1.3176 2.36540909,1.050975 2.36540909,0.670725 C2.36540909,0.3006 2.05104545,0.031725 1.67759091,0.031725" id="Fill-13" fill="#231F20" mask="url(#mask-4)"></path>
                        </g>
                    </g>
                </g>
            </g>
        </g>
    </g>
</svg>