<?xml version="1.0" encoding="UTF-8"?>
<svg width="122px" height="80px" viewBox="0 0 122 80" version="1.1" xmlns="http://www.w3.org/2000/svg" xmlns:xlink="http://www.w3.org/1999/xlink">
    <!-- Generator: Sketch 49.2 (51160) - http://www.bohemiancoding.com/sketch -->
    <title>Rectangle 3 Copy 19</title>
    <desc>Created with Sketch.</desc>
    <defs>
        <polygon id="path-1" points="0.486284544 0.16 59.9641318 0.16 59.9641318 30.5910276 0.486284544 30.5910276"></polygon>
        <polygon id="path-3" points="0.431865306 1.36208 11.5250667 1.36208 11.5250667 12.8 0.431865306 12.8"></polygon>
        <polygon id="path-5" points="0.703715646 1.31689067 11.8723959 1.31689067 11.8723959 12.8 0.703715646 12.8"></polygon>
        <polygon id="path-7" points="0 1.30256 10.9862204 1.30256 10.9862204 12.8 0 12.8"></polygon>
        <polygon id="path-9" points="0.0144857143 1.316835 3.1804898 1.316835 3.1804898 12.79952 0.0144857143 12.79952"></polygon>
    </defs>
    <g id="Ilustraciones" stroke="none" stroke-width="1" fill="none" fill-rule="evenodd">
        <g id="HYUNDAI" transform="translate(-39.000000, -60.000000)">
            <g id="Group" transform="translate(39.000000, 60.000000)">
                <rect id="Rectangle-3-Copy-19" x="0" y="0" width="122" height="80"></rect>
                <g id="Page-1" transform="translate(22.000000, 16.000000)">
                    <g id="Group-3" transform="translate(9.551020, 1.440480)">
                        <mask id="mask-2" fill="white">
                            <use xlink:href="#path-1"></use>
                        </mask>
                        <g id="Clip-2"></g>
                        <path d="M18.1001388,3.85312 C18.692302,3.69952 19.3369959,3.68832 19.9625878,3.68192 C20.4910776,3.68032 20.6104653,3.93632 20.2952816,4.36032 C19.4277306,5.51552 18.5315265,6.62432 17.6830776,7.78272 C14.6235673,11.96192 11.9731592,16.35712 10.2141796,21.25152 C10.0581796,21.70752 9.83691429,22.13792 9.58062857,22.52832 C9.23679184,23.08992 8.84360816,23.18752 8.22597551,22.98432 C7.48258776,22.70592 6.88564898,22.22272 6.32054694,21.68992 C5.06936327,20.47392 3.94711837,19.15232 3.37087347,17.46912 C3.14483265,16.81152 3.06205714,16.10432 2.90287347,15.41952 C2.93948571,15.40352 2.96654694,15.39712 2.99042449,15.39392 C3.01111837,13.68032 3.73699592,12.24032 4.81466939,10.95232 C6.04197551,9.46752 7.58924082,8.35232 9.24475102,7.39232 C12.0177306,5.76832 15.0135673,4.70272 18.1001388,3.85312 M26.6737714,4.02432 C27.7594041,2.88032 29.1092816,2.39072 30.6645061,2.34272 C34.5820163,2.20672 38.4358531,2.69792 42.2307918,3.64672 C43.2575265,3.89472 44.2778939,4.22272 45.290302,4.54752 C45.6118531,4.65472 45.9158939,4.81632 46.2008327,4.99712 C46.5510367,5.24192 46.5733224,5.55872 46.2852,5.87552 C46.0957714,6.08192 45.8729143,6.27072 45.6245878,6.41472 C41.6465878,8.88672 37.4425469,10.94272 32.9981388,12.43872 C31.3076082,12.98912 29.5947918,13.42592 27.8103429,13.51552 C27.0414857,13.55392 26.2853633,13.46592 25.5626694,13.15232 C24.4117714,12.62272 24.0567918,11.66592 24.0806694,10.22432 C24.2732816,8.06592 24.9625469,5.83712 26.6737714,4.02432 M50.3284653,9.73952 C50.565649,9.27232 50.799649,8.79712 51.0447918,8.32992 C51.3583837,7.73312 51.676751,7.58752 52.272098,7.89312 C55.0944245,9.28992 56.834302,11.51552 57.3436898,14.67552 C57.3787102,14.89312 57.3436898,15.13952 57.3436898,15.36352 C57.3659755,16.98112 56.7769959,18.36032 55.820302,19.60992 C54.5356898,21.30592 52.856302,22.52352 51.0161388,23.54752 C47.8802204,25.29472 44.5230367,26.43712 40.9827918,27.05152 C40.8363429,27.07072 40.5482204,27.02752 40.532302,26.95872 C40.4718122,26.78912 40.4925061,26.54272 40.5864245,26.40352 C41.0369143,25.75392 41.5256082,25.12032 42.0095265,24.48032 C43.7334857,22.19072 45.1947918,19.73472 46.5510367,17.21472 C47.8722612,14.75552 49.074098,12.24032 50.3284653,9.73952 M36.5129143,21.20832 C36.1117714,23.66592 34.9306286,25.70592 33.0809143,27.35232 C32.3900571,27.96032 31.5400163,28.19872 30.6597306,28.26912 C30.0341388,28.32032 29.4005878,28.33952 29.0249143,28.35552 C26.7374449,28.32032 24.7205878,28.10112 22.6989551,27.82432 C20.6104653,27.54112 18.5315265,27.17952 16.5019347,26.60832 C15.7999347,26.41152 15.1106694,26.18112 14.4452816,25.93312 C13.8881388,25.70432 13.8722204,25.36512 14.3322612,24.99712 C18.7209551,21.48192 23.7018122,19.23392 29.1411184,17.97792 C30.5562612,17.64672 31.9873224,17.38592 33.4565878,17.49312 C34.5533633,17.56672 35.5562204,17.88672 36.1611184,18.92832 C36.5877306,19.63232 36.6450367,20.42752 36.5129143,21.20832 M2.02099592,10.72352 C0.550138776,12.97312 0.0646285714,15.39712 0.87964898,18.01952 C1.53707755,20.12352 2.87740408,21.76512 4.50903673,23.17792 C6.68826122,25.08192 9.20177143,26.41152 11.8617306,27.45952 C17.044751,29.50112 22.4490367,30.36832 27.9711184,30.55872 C30.6597306,30.64832 33.3483429,30.55232 36.0162612,30.26112 C38.787649,29.95232 41.5208327,29.47072 44.1967102,28.71712 C47.6812408,27.73952 51.0129551,26.41152 54.0135673,24.34912 C55.8664653,23.07392 57.5108327,21.59072 58.668098,19.62592 C59.8078531,17.71712 60.2519755,15.66912 59.7744245,13.45792 C59.3860163,11.63872 58.4420571,10.12992 57.2067918,8.78112 C55.3316082,6.75392 53.0489143,5.31712 50.5783837,4.14272 C47.6350776,2.73152 44.5389551,1.81632 41.3489143,1.18112 C39.128302,0.73952 36.8869959,0.43072 34.6170367,0.28992 C34.0996898,0.26272 33.5950776,0.20512 33.084098,0.15872 L28.130302,0.15872 C28.0507102,0.17792 27.9631592,0.21152 27.8835673,0.21952 C27.0335265,0.27232 26.1962204,0.30752 25.3557306,0.38912 C22.6878122,0.63392 20.0453633,1.05312 17.4586286,1.71552 C13.8801796,2.61792 10.4386286,3.87072 7.29315918,5.81952 C5.2269551,7.11232 3.37087347,8.64672 2.02099592,10.72352" id="Fill-1" fill="#231F20" mask="url(#mask-2)"></path>
                    </g>
                    <g id="Group-6" transform="translate(49.346939, 35.040480)">
                        <mask id="mask-4" fill="white">
                            <use xlink:href="#path-3"></use>
                        </mask>
                        <g id="Clip-5"></g>
                        <path d="M8.17296735,8.98128 C8.1363551,9.80848 7.91031429,10.01968 7.10643673,10.02928 L3.82088571,10.02928 L3.82088571,4.09168 C5.00202857,4.09168 6.1688449,4.08048 7.33566122,4.09968 C7.83231429,4.11248 8.0281102,4.35408 8.11566122,4.84528 C8.15227347,5.00528 8.17296735,5.17008 8.17296735,5.33328 C8.17933469,6.49168 8.17296735,7.65968 8.17296735,8.82288 C8.17296735,8.88528 8.17933469,8.92848 8.17296735,8.98128 M9.74729388,1.40688 C9.53876327,1.37488 9.31272245,1.36208 9.09304898,1.36208 L0.836191837,1.36208 C0.718395918,1.36208 0.599008163,1.38128 0.450967347,1.38768 L0.450967347,1.81488 L0.450967347,12.37648 C0.450967347,12.51248 0.43504898,12.66288 0.431865306,12.80048 L9.81415102,12.80048 C9.93513061,12.75408 10.0592939,12.70928 10.1786816,12.66288 C10.8918245,12.42128 11.3088857,11.90768 11.4378245,11.18128 C11.5046816,10.89648 11.5174163,10.61168 11.5174163,10.33008 C11.5253755,8.93328 11.5174163,7.55568 11.5174163,6.17008 C11.5174163,5.34768 11.5412939,4.52688 11.5046816,3.71088 C11.461702,2.29168 10.9363959,1.63568 9.74729388,1.40688" id="Fill-4" fill="#231F20" mask="url(#mask-4)"></path>
                    </g>
                    <path d="M69.9957673,42.44368 L65.640502,42.44368 C65.640502,41.61168 65.6182163,40.78448 65.6564204,39.95728 C65.6596041,39.52688 65.9604612,39.22608 66.3934408,39.20528 C67.249849,39.14608 68.126951,39.16208 68.9897265,39.14608 C69.3176449,39.14128 69.6551143,39.14608 69.9957673,39.14608 L69.9957673,42.44368 Z M73.3036041,36.78608 L73.3036041,36.38928 C73.1523796,36.38288 73.0552776,36.36688 72.9597673,36.36688 C70.3427878,36.38288 67.717849,36.38928 65.0960939,36.40368 C64.9830735,36.40368 64.8796041,36.42128 64.7713592,36.42768 C63.3960122,36.51088 62.4265837,37.44048 62.4202163,38.81168 C62.3867878,41.82768 62.4074816,44.83568 62.4074816,47.84048 L65.640502,47.84048 L65.640502,45.33968 L70.0005429,45.33968 L70.0005429,47.84048 L73.3083796,47.84048 C73.3036041,47.71088 73.2972367,47.57648 73.2972367,47.44528 C73.2972367,43.89488 73.3036041,40.33488 73.3036041,36.78608 Z" id="Fill-7" fill="#231F20"></path>
                    <g id="Group-11" transform="translate(23.877551, 35.040480)">
                        <mask id="mask-6" fill="white">
                            <use xlink:href="#path-5"></use>
                        </mask>
                        <g id="Clip-10"></g>
                        <path d="M11.4887633,1.32656 C10.5909673,1.32656 9.68202857,1.34256 8.78582449,1.31696 C8.47223265,1.31376 8.39582449,1.42096 8.4006,1.71536 C8.41174286,4.20016 8.41174286,6.70256 8.4006,9.19216 C8.4006,9.83856 8.20639592,10.01616 7.57921224,10.02416 L4.43692653,10.02416 L4.07398776,10.02416 L4.07398776,1.35536 L0.707253061,1.35536 L0.707253061,1.81616 C0.707253061,4.01776 0.699293878,6.21616 0.707253061,8.41776 C0.707253061,9.88496 0.707253061,11.34096 0.715212245,12.80016 L10.1723143,12.80016 C10.2057429,12.79376 10.2312122,12.75056 10.2741918,12.74256 C11.2006408,12.58096 11.657498,11.99056 11.7848449,11.10256 C11.8294163,10.83056 11.8580694,10.54896 11.8580694,10.27216 C11.8708041,7.43216 11.8708041,4.57616 11.8723959,1.74576 L11.8723959,1.34896 C11.7291306,1.34256 11.6049673,1.32656 11.4887633,1.32656" id="Fill-9" fill="#231F20" mask="url(#mask-6)"></path>
                    </g>
                    <path d="M48.3085837,41.04688 C48.3085837,40.15248 48.295849,39.26448 48.2417265,38.39248 C48.1716857,37.44688 47.6670735,36.79888 46.8393184,36.57648 C46.3920122,36.46608 45.9319714,36.38288 45.4830735,36.38288 C42.8071959,36.35408 40.1265429,36.35728 37.4506653,36.35728 C37.3615224,36.35728 37.2851143,36.36688 37.160951,36.37808 L37.160951,36.75568 L37.160951,39.64208 C37.160951,42.37808 37.160951,45.10288 37.1529918,47.84048 L40.5229102,47.84048 C40.5229102,44.97968 40.5229102,42.13008 40.5117673,39.26768 C40.5117673,39.24048 40.5276857,39.21328 40.5404204,39.16208 C40.5993184,39.14768 40.6582163,39.13328 40.720298,39.13328 C41.8377673,39.12848 42.9711551,39.12368 44.0886245,39.12848 C44.6139306,39.12848 44.8431551,39.35408 44.8431551,39.88528 C44.8495224,42.48048 44.8431551,45.08368 44.8431551,47.68048 C44.8431551,47.73808 44.8304204,47.79568 44.814502,47.84048 L48.3292776,47.84048 C48.3117673,47.78288 48.295849,47.71088 48.295849,47.65488 C48.3085837,45.44048 48.3117673,43.23728 48.3085837,41.04688" id="Fill-12" fill="#231F20"></path>
                    <g id="Group-16" transform="translate(0.000000, 35.040480)">
                        <mask id="mask-8" fill="white">
                            <use xlink:href="#path-7"></use>
                        </mask>
                        <g id="Clip-15"></g>
                        <path d="M7.75797551,1.32656 C7.53352653,1.32656 7.56536327,1.48816 7.56536327,1.63536 L7.56536327,4.76976 L7.56536327,5.41616 L3.22601633,5.41616 L3.22601633,1.32656 L2.8089551,1.32656 C1.8729551,1.31696 0.941730612,1.31376 -0.000636734694,1.30256 L-0.000636734694,12.80016 L3.24193469,12.80016 L3.24193469,8.30096 L7.60515918,8.30096 L7.60515918,12.80016 L10.9798531,12.80016 C10.9862204,12.77616 10.9862204,12.74256 10.9862204,12.70896 L10.9862204,1.60496 C10.9862204,1.52656 10.9639347,1.43856 10.9512,1.33776 C9.87034286,1.32656 8.8149551,1.33776 7.75797551,1.32656" id="Fill-14" fill="#231F20" mask="url(#mask-8)"></path>
                    </g>
                    <path d="M20.9356776,36.38272 C20.8322082,36.38272 20.6857592,36.50112 20.618902,36.60352 C19.7752286,37.76672 18.9602082,38.95072 18.122902,40.11392 C18.0719633,40.21152 17.9939633,40.28992 17.9064122,40.40832 C17.8188612,40.28192 17.7663306,40.20352 17.7138,40.11392 C16.9608612,38.96352 16.2031469,37.80512 15.4502082,36.64512 C15.3467388,36.48992 15.2464531,36.39552 15.0331469,36.39552 C14.0000449,36.39552 12.9669429,36.38272 11.9290653,36.36672 L11.5072286,36.36672 C11.6282082,36.54592 11.6855143,36.64512 11.7523714,36.74112 C12.974902,38.58752 14.1655959,40.45952 15.442249,42.27712 C15.978698,43.03552 16.2318,43.79232 16.1681265,44.73312 C16.094902,45.76512 16.1394735,46.80672 16.1315143,47.84032 L19.5046163,47.84032 C19.5046163,46.44352 19.5046163,45.03232 19.5205347,43.62752 C19.5205347,43.45792 19.5842082,43.25472 19.6781265,43.10592 C21.1442082,40.97312 22.618249,38.83232 24.0875143,36.69952 C24.1495959,36.61632 24.2005347,36.52352 24.2610245,36.42112 C24.2037184,36.39552 24.1750653,36.37792 24.1416367,36.37792 C23.0798816,36.37792 22.0038,36.35712 20.9356776,36.38272" id="Fill-17" fill="#231F20"></path>
                    <g id="Group-21" transform="translate(74.816327, 35.040480)">
                        <mask id="mask-10" fill="white">
                            <use xlink:href="#path-9"></use>
                        </mask>
                        <g id="Clip-20"></g>
                        <path d="M0.0304040816,1.75792 C0.0479142857,5.29392 0.0431387755,8.84112 0.0431387755,12.37712 C0.0431387755,12.51312 0.0144857143,12.66192 0.0144857143,12.79952 L3.18064898,12.79952 L3.18064898,1.38192 C2.27489388,1.35472 1.35640408,1.36272 0.444281633,1.31792 C0.102036735,1.30352 0.0304040816,1.43152 0.0304040816,1.75792" id="Fill-19" fill="#231F20" mask="url(#mask-10)"></path>
                    </g>
                </g>
            </g>
        </g>
    </g>
</svg>