<?xml version="1.0" encoding="UTF-8"?>
<svg width="122px" height="80px" viewBox="0 0 122 80" version="1.1" xmlns="http://www.w3.org/2000/svg" xmlns:xlink="http://www.w3.org/1999/xlink">
    <!-- Generator: Sketch 49.2 (51160) - http://www.bohemiancoding.com/sketch -->
    <title>Rectangle 3 Copy 19</title>
    <desc>Created with Sketch.</desc>
    <defs>
        <polygon id="path-1" points="1.30297959 1.10183333 1.64020408 1.10183333 1.64020408 5.5 1.30297959 5.5"></polygon>
        <polygon id="path-3" points="0.694836735 0.111833333 65.2119796 0.111833333 65.2119796 31.7174 0.694836735 31.7174"></polygon>
    </defs>
    <g id="Ilustraciones" stroke="none" stroke-width="1" fill="none" fill-rule="evenodd">
        <g id="INFINITI" transform="translate(-39.000000, -60.000000)">
            <g id="Group" transform="translate(39.000000, 60.000000)">
                <rect id="Rectangle-3-Copy-19" x="0" y="0" width="122" height="80"></rect>
                <g id="Page-1" transform="translate(16.000000, 18.000000)">
                    <polygon id="Fill-1" fill="#231F20" points="23.921449 39.4555333 23.921449 43.8555333 24.7461429 43.8555333 24.7461429 41.8608667 26.171449 41.8608667 26.171449 41.2155333 24.7461429 41.2155333 24.7461429 40.1008667 26.261449 40.1008667 26.261449 39.4555333"></polygon>
                    <path d="M60.7716735,43.8890833 L60.7716735,39.4909167" id="Stroke-2" stroke="#020303" stroke-width="0.668571429"></path>
                    <polygon id="Fill-4" fill="#231F20" points="71.091551 39.4670833 71.091551 40.1105833 72.0595102 40.1105833 72.0595102 43.8689167 72.8842041 43.8689167 72.8842041 40.1105833 73.8503265 40.1105833 73.8503265 39.4670833"></polygon>
                    <path d="M0.337040816,43.8890833 L0.337040816,39.4909167" id="Stroke-5" stroke="#020303" stroke-width="0.674081633"></path>
                    <path d="M49.3901633,39.4505833 L49.3846531,42.7689167 L48.2679184,39.4505833 L47.2962857,39.4505833 L47.2962857,43.8505833 L47.9942449,43.8505833 L47.9942449,40.53775 L49.1403673,43.8505833 L50.0973061,43.8505833 L50.0973061,39.4505833 L49.3901633,39.4505833 Z M49.3846531,42.7689167 L49.3993469,42.80375 L49.3846531,42.80375 L49.3846531,42.7689167 Z" id="Fill-7" fill="#231F20"></path>
                    <g id="Group-13" transform="translate(34.897959, 38.389083)">
                        <g id="Group-10" transform="translate(47.755102, 0.000000)">
                            <mask id="mask-2" fill="white">
                                <use xlink:href="#path-1"></use>
                            </mask>
                            <g id="Clip-9"></g>
                            <path d="M1.30297959,5.5 L1.30297959,1.10183333" id="Stroke-8" stroke="#020303" stroke-width="0.674081633" mask="url(#mask-2)"></path>
                        </g>
                        <path d="M1.68153061,5.5 L1.68153061,1.10183333" id="Stroke-11" stroke="#020303" stroke-width="0.672244898"></path>
                    </g>
                    <path d="M13.012898,39.4505833 L13.0073878,42.7689167 L11.8906531,39.4505833 L10.9190204,39.4505833 L10.9190204,43.8505833 L11.6077959,43.8505833 L11.6077959,40.53775 L12.763102,43.8505833 L13.725551,43.8505833 L13.725551,39.4505833 L13.012898,39.4505833 Z M13.0073878,42.7689167 L13.0220816,42.80375 L13.0073878,42.80375 L13.0073878,42.7689167 Z" id="Fill-14" fill="#231F20"></path>
                    <g id="Group-17" transform="translate(9.183673, 1.722417)">
                        <mask id="mask-4" fill="white">
                            <use xlink:href="#path-3"></use>
                        </mask>
                        <g id="Clip-16"></g>
                        <path d="M47.7666735,24.4079 L32.9534082,7.29923333 L18.2007551,24.3620667 C10.9291224,22.3435667 6.1407551,18.8089 6.1407551,14.4694 C6.1407551,7.58706667 18.0538163,1.1264 32.9295306,1.1264 C47.8015714,1.1264 60.0011633,7.58706667 60.0011633,14.4694 C60.0011633,18.8419 55.1301429,22.3985667 47.7666735,24.4079 M32.9534082,0.110733333 C15.1425918,0.110733333 0.694836735,7.35606667 0.694836735,16.2899 C0.694836735,23.5242333 10.1668776,29.6475667 23.227898,31.7174 L32.9534082,8.6064 L42.6807551,31.7174 C55.7491224,29.6475667 65.2119796,23.5242333 65.2119796,16.2899 C65.2119796,7.35606667 50.7734082,0.110733333 32.9534082,0.110733333" id="Fill-15" fill="#231F20" mask="url(#mask-4)"></path>
                    </g>
                </g>
            </g>
        </g>
    </g>
</svg>