<?xml version="1.0" encoding="UTF-8"?>
<svg width="122px" height="80px" viewBox="0 0 122 80" version="1.1" xmlns="http://www.w3.org/2000/svg" xmlns:xlink="http://www.w3.org/1999/xlink">
    <!-- Generator: Sketch 49.2 (51160) - http://www.bohemiancoding.com/sketch -->
    <title>Rectangle 3 Copy 19</title>
    <desc>Created with Sketch.</desc>
    <defs>
        <polygon id="path-1" points="0 0.1545 3.8767625 0.1545 3.8767625 13.3078333 0 13.3078333"></polygon>
        <polygon id="path-3" points="0.1196 0.15 14.78035 0.15 14.78035 13.3328333 0.1196 13.3328333"></polygon>
        <polygon id="path-5" points="0.8034 0.15 15.4659989 0.15 15.4659989 13.3328333 0.8034 13.3328333"></polygon>
    </defs>
    <g id="Ilustraciones" stroke="none" stroke-width="1" fill="none" fill-rule="evenodd">
        <g id="IZUZU" transform="translate(-39.000000, -60.000000)">
            <g id="Group" transform="translate(39.000000, 60.000000)">
                <rect id="Rectangle-3-Copy-19" x="0" y="0" width="122" height="80"></rect>
                <g id="Page-1" transform="translate(22.000000, 33.000000)">
                    <g id="Group-3" transform="translate(0.000000, 1.516983)">
                        <mask id="mask-2" fill="white">
                            <use xlink:href="#path-1"></use>
                        </mask>
                        <g id="Clip-2"></g>
                        <path d="M3.1991375,0.1545 L0.6820125,0.1545 C0.2156375,0.1545 -0.0004875,0.382833333 -0.0004875,0.846166667 L-0.0004875,12.6195 C-0.0004875,13.0828333 0.2286375,13.3045 0.6820125,13.3045 L3.2072625,13.3078333 C3.6720125,13.3078333 3.8767625,13.0678333 3.8767625,12.6111667 L3.8767625,0.846166667 C3.8767625,0.3745 3.6508875,0.1545 3.1991375,0.1545" id="Fill-1" fill="#231F20" mask="url(#mask-2)"></path>
                    </g>
                    <path d="M20.2696,8.11931667 C18.935475,7.68098333 11.73835,5.35098333 11.40685,5.24598333 C11.141975,5.16431667 11.1371,4.97931667 11.174475,4.85265 C11.2021,4.72431667 11.3126,4.66931667 11.528725,4.66931667 C11.7676,4.66931667 21.385975,4.67098333 21.385975,4.67098333 C21.840975,4.67098333 22.048975,4.45931667 22.048975,3.98098333 L22.048975,2.36265 C22.048975,1.90098333 21.8491,1.67098333 21.382725,1.67098333 L11.3971,1.67098333 C8.632975,1.67098333 7.44185,3.22431667 7.44185,5.03098333 C7.44185,6.46098333 8.119475,7.63098333 9.913475,8.24598333 C10.28235,8.37431667 18.880225,11.16765 19.140225,11.2509833 C19.3856,11.33765 19.419725,11.5393167 19.377475,11.65765 C19.33685,11.7959833 19.237725,11.8709833 19.032975,11.8709833 L8.09835,11.8709833 C7.635225,11.8709833 7.414225,12.0909833 7.414225,12.5593167 L7.414225,14.1259833 C7.414225,14.63765 7.618975,14.8243167 8.103225,14.8243167 C8.103225,14.8243167 18.1506,14.8393167 19.0996,14.8209833 C21.6151,14.7893167 23.079225,13.7609833 23.079225,11.5859833 C23.079225,9.76765 22.3106,8.79765 20.2696,8.11931667" id="Fill-4" fill="#231F20"></path>
                    <g id="Group-8" transform="translate(26.000000, 1.516983)">
                        <mask id="mask-4" fill="white">
                            <use xlink:href="#path-3"></use>
                        </mask>
                        <g id="Clip-7"></g>
                        <path d="M14.105975,0.1545 L11.5596,0.1495 C11.07535,0.1495 10.878725,0.3745 10.878725,0.837833333 L10.878725,8.30116667 C10.878725,9.54116667 10.693475,10.2711667 9.0376,10.3261667 C8.6541,10.3361667 7.950475,10.3445 7.4386,10.3445 C6.92835,10.3445 6.3401,10.3361667 5.9501,10.3261667 C4.294225,10.2711667 4.0001,9.54116667 4.0001,8.30116667 L4.0001,0.837833333 C4.0001,0.366166667 3.77585,0.1545 3.325725,0.1545 L0.784225,0.1545 C0.319475,0.1545 0.1196,0.376166667 0.1196,0.837833333 C0.1196,0.837833333 0.12285,7.43283333 0.12285,8.92616667 C0.12285,11.0045 0.576225,13.2495 4.391725,13.2945 C5.785975,13.3128333 7.4386,13.3328333 7.4386,13.3328333 C7.4386,13.3328333 8.990475,13.3178333 10.387975,13.2945 C14.427725,13.2261667 14.78035,11.0978333 14.78035,8.92616667 L14.78035,0.846166667 C14.78035,0.3795 14.5756,0.1545 14.105975,0.1545" id="Fill-6" fill="#231F20" mask="url(#mask-4)"></path>
                    </g>
                    <g id="Group-11" transform="translate(61.750000, 1.516983)">
                        <mask id="mask-6" fill="white">
                            <use xlink:href="#path-5"></use>
                        </mask>
                        <g id="Clip-10"></g>
                        <path d="M14.7979,0.1545 L12.241775,0.1495 C11.764025,0.1495 11.56415,0.3745 11.56415,0.837833333 L11.56415,8.30116667 C11.56415,9.54116667 11.3789,10.2711667 9.726275,10.3261667 C9.342775,10.3361667 8.634275,10.3445 8.1289,10.3445 C7.617025,10.3445 7.02715,10.3361667 6.638775,10.3261667 C4.981275,10.2711667 4.685525,9.54116667 4.685525,8.30116667 L4.685525,0.837833333 C4.685525,0.366166667 4.464525,0.1545 4.012775,0.1545 L1.4729,0.1545 C1.003275,0.1545 0.8034,0.376166667 0.8034,0.837833333 L0.8034,8.92616667 C0.8034,11.0045 1.2649,13.2495 5.082025,13.2945 C6.47465,13.3128333 8.1289,13.3328333 8.1289,13.3328333 C8.1289,13.3328333 9.677525,13.3178333 11.068525,13.2945 C15.1164,13.2261667 15.465775,11.0978333 15.465775,8.92616667 L15.465775,0.846166667 C15.4739,0.3795 15.261025,0.1545 14.7979,0.1545" id="Fill-9" fill="#231F20" mask="url(#mask-6)"></path>
                    </g>
                    <path d="M58.8014375,11.8709833 L47.8538125,11.8709833 C47.6571875,11.8709833 47.5596875,11.7959833 47.5174375,11.6593167 C47.4751875,11.5393167 47.5044375,11.33765 47.7595625,11.2493167 C48.0114375,11.16765 56.6141875,8.37765 56.9814375,8.24598333 C58.7754375,7.62598333 59.4514375,6.46098333 59.4514375,5.03098333 C59.4514375,3.22431667 58.2619375,1.67098333 55.4978125,1.67098333 L45.5138125,1.67098333 C45.0425625,1.67098333 44.8378125,1.90098333 44.8378125,2.36265 L44.8378125,3.98098333 C44.8378125,4.45931667 45.0506875,4.67098333 45.5089375,4.67098333 C45.5089375,4.67098333 55.1240625,4.66931667 55.3710625,4.66931667 C55.5839375,4.66931667 55.6895625,4.72431667 55.7236875,4.85265 C55.7545625,4.97931667 55.7496875,5.16431667 55.4929375,5.24598333 C55.1614375,5.35098333 47.9513125,7.67931667 46.6220625,8.11931667 C44.5810625,8.79765 43.8140625,9.76765 43.8140625,11.5859833 C43.8140625,13.7609833 45.2765625,14.7893167 47.7904375,14.8209833 C48.7361875,14.8393167 58.7916875,14.82265 58.7916875,14.82265 C59.2726875,14.82265 59.4806875,14.63765 59.4806875,14.12765 L59.4806875,12.5593167 C59.4806875,12.0909833 59.2645625,11.8709833 58.8014375,11.8709833" id="Fill-12" fill="#231F20"></path>
                </g>
            </g>
        </g>
    </g>
</svg>