<?xml version="1.0" encoding="UTF-8"?>
<svg width="122px" height="80px" viewBox="0 0 122 80" version="1.1" xmlns="http://www.w3.org/2000/svg" xmlns:xlink="http://www.w3.org/1999/xlink">
    <!-- Generator: Sketch 49.2 (51160) - http://www.bohemiancoding.com/sketch -->
    <title>Rectangle 3 Copy 19</title>
    <desc>Created with Sketch.</desc>
    <defs>
        <polygon id="path-1" points="0.866390864 1.14 2.6387082 1.14 2.6387082 2.63985 0.866390864 2.63985"></polygon>
        <polygon id="path-3" points="0 1.1733 9.81885 1.1733 9.81885 7.3008 0 7.3008"></polygon>
        <polygon id="path-5" points="1.05765 1.17345 12.39015 1.17345 12.39015 7.5 1.05765 7.5"></polygon>
    </defs>
    <g id="Ilustraciones" stroke="none" stroke-width="1" fill="none" fill-rule="evenodd">
        <g id="JAGUAR" transform="translate(-39.000000, -60.000000)">
            <g id="Group" transform="translate(39.000000, 60.000000)">
                <rect id="Rectangle-3-Copy-19" x="0" y="0" width="122" height="80"></rect>
                <g id="Page-1" transform="translate(22.000000, 22.000000)">
                    <g id="Group-3" transform="translate(13.500000, 0.360300)">
                        <mask id="mask-2" fill="white">
                            <use xlink:href="#path-1"></use>
                        </mask>
                        <g id="Clip-2"></g>
                        <path d="M1.3155,1.57485 C1.668,1.58235 2.073,1.43835 2.3415,1.30935 C2.529,1.21935 2.655,1.14885 2.637,1.14885 C2.394,1.14285 1.992,1.13985 1.8465,1.13985 C1.2045,1.13985 0.867,1.50585 0.867,1.53285 C0.858,1.55085 0.9495,1.56285 1.0905,1.56735 C1.1505,1.57485 1.224,1.57485 1.3155,1.57485" id="Fill-1" fill="#231F20" mask="url(#mask-2)"></path>
                    </g>
                    <path d="M10.33455,4.9365 C10.33455,4.9365 10.38255,4.779 10.39605,4.74 C10.42155,4.71 10.56405,4.3005 10.93005,4.263 C10.93005,4.263 11.14155,4.2465 11.47155,4.2465 C11.47155,4.2465 11.30955,4.7595 10.67655,4.872 C10.67655,4.872 10.43205,4.9365 10.33455,4.9365 M8.38155,6.7365 C8.89755,5.568 9.86955,5.403 9.99855,5.379 C10.13655,5.367 10.58205,5.2995 10.58205,5.2995 C11.82105,5.0895 12.41355,3.7995 12.41355,3.7995 C11.57655,3.7875 11.16705,3.8475 11.16705,3.8475 C10.34805,3.993 10.06305,4.9605 10.06305,4.9515 C9.37155,5.118 9.38355,4.5135 9.50805,4.3365 C9.61605,4.1655 10.02555,3.453 12.70605,2.8335 C12.70605,2.8335 14.02455,2.4375 16.85055,2.5635 L16.73055,2.7735 C16.48305,3.249 15.49155,4.2195 13.84755,3.861 C13.84755,3.861 13.86705,4.5885 15.64155,4.8405 C15.64155,4.8405 17.25255,5.1285 19.97055,7.305 C19.97055,7.305 18.67005,4.728 16.46205,4.062 C16.46205,4.062 16.18455,4.0125 16.31805,3.8325 C16.31805,3.8325 17.68305,2.5755 19.43955,2.5215 C19.43955,2.5215 25.38705,1.947 28.68705,6.4785 C28.68705,6.4785 27.69255,4.5555 26.93805,3.7185 C26.93805,3.7185 30.38955,4.6935 35.70705,6.534 C35.70705,6.534 39.32805,7.806 41.64105,8.7195 C44.77605,9.945 52.60155,12.984 57.60405,15.7035 C58.49055,16.1835 67.52205,20.8725 67.52205,20.8725 C70.02105,21.9945 71.75505,21.3225 71.75505,21.3225 C72.31755,21.1035 73.33155,20.316 73.78455,20.763 C74.01105,20.994 74.04555,21.3 73.93755,21.603 C73.80255,22.047 73.15905,22.647 72.38055,23.001 C71.54805,23.361 69.83955,23.4585 68.85105,23.298 C68.84805,23.298 66.92805,23.1015 65.25255,21.354 C64.71705,20.805 64.06605,20.178 63.46605,19.557 C63.20055,19.281 62.54655,18.633 61.46355,18.4875 C60.33855,18.333 57.57555,18.261 56.54655,17.919 C55.85055,17.685 55.01355,17.2185 53.90655,15.582 C53.36805,14.7915 52.98855,14.58 52.25805,14.1165 C52.25805,14.1165 52.81755,14.5635 53.13555,15.1155 C53.58855,15.93 53.83005,16.5225 54.07605,16.95 C54.32055,17.388 54.60255,17.7675 55.02855,18.108 C55.55055,18.5355 55.88205,18.609 56.45055,18.705 C56.99805,18.7935 58.84455,18.78 60.42555,18.7545 C61.98255,18.726 62.67855,19.2315 63.18855,19.6605 C63.66255,20.058 64.47255,21.1995 64.97505,21.6915 C65.56455,22.278 66.00105,22.8885 67.18305,23.4795 C67.58805,23.6835 68.25705,24.186 68.22405,24.6765 C67.69305,25.1985 67.03905,25.3425 65.46705,24.924 C65.57055,25.0365 66.40155,25.896 67.80855,25.488 C67.37955,25.842 66.96105,25.989 66.52755,25.9665 C65.05305,25.887 63.60855,24.0735 62.80155,23.409 C62.17905,22.9005 62.11005,22.7745 61.06455,22.047 C59.47755,20.9565 55.91655,21.264 55.91655,21.264 L53.29305,21.4035 C48.19605,21.7815 46.05555,17.2815 45.49005,16.341 C45.29805,16.017 45.12255,15.759 44.95305,15.5385 C44.69055,15.195 43.29255,13.401 41.88855,12.801 C41.88855,12.801 43.27305,13.9965 43.19655,14.7765 C43.19655,14.7765 42.61755,14.5185 41.05605,14.7375 C34.35255,15.6855 32.06805,14.016 32.06805,14.016 C32.37405,12.6645 31.43505,11.2965 31.43505,11.2965 C31.95555,11.4555 35.25405,12.5745 38.39205,11.934 C38.39205,11.934 33.29205,11.967 29.71605,9.1275 C29.71605,9.1275 31.93755,11.904 31.40955,13.722 C31.40955,13.722 31.04505,15.6555 27.16155,14.8815 C26.74905,14.799 26.26305,14.6595 20.45805,13.0515 C19.09005,12.6495 18.62205,13.2975 18.37305,13.686 C18.36105,14.2545 17.68305,14.9265 17.34255,15.1365 C15.54855,14.814 16.26255,13.155 16.26255,13.155 C15.13305,14.7615 16.30605,15.477 16.68405,15.5235 C16.46655,15.642 16.25655,15.7125 16.07505,15.7785 C16.07505,15.7785 14.60055,14.907 15.42705,13.479 C16.57155,11.4855 17.74005,10.845 19.87605,10.656 C20.80905,10.5645 21.58455,10.5015 22.17855,10.581 C23.73105,10.788 24.70755,11.664 27.02055,11.8965 C22.10205,10.4415 22.08705,7.602 22.07205,7.548 C22.07205,7.5405 22.06755,7.5405 22.06755,7.5405 C21.79755,8.4765 21.94305,9.2625 22.18755,9.9375 C22.11705,9.909 21.03855,9.21 20.62455,8.955 C18.85905,7.8795 17.45805,7.6965 17.45805,7.6965 C16.87755,7.617 16.59705,6.912 16.59705,6.912 C16.58655,6.8745 16.55505,6.84 16.54155,6.8085 C15.72855,5.409 14.90955,5.3955 14.90955,5.3955 C15.37305,6.0015 15.38355,6.882 15.38355,6.882 C15.62205,8.6055 13.66155,9.1395 13.66155,9.1395 C12.46005,10.6575 12.51855,10.6905 12.25755,10.7325 C11.99055,10.77 11.39955,10.47 11.39955,10.47 C11.30505,10.3305 11.44155,10.1835 11.44155,10.1835 C11.67105,10.005 11.85105,9.8295 11.85105,9.8295 C13.12155,8.5305 13.27455,7.902 13.11555,7.0665 C12.79905,5.379 11.58555,5.5815 11.58555,5.5815 C11.01705,5.61 10.76205,6.111 10.76205,6.111 C10.56405,6.423 10.13655,7.3785 10.13655,7.3785 C9.87405,7.9455 9.60105,8.0685 9.46605,8.0925 C9.40455,8.1045 9.30105,8.0985 9.25905,8.0985 C8.84655,8.085 8.54355,7.7145 8.54355,7.7145 C8.52255,7.695 8.50005,7.6755 8.49255,7.6575 C8.11755,7.263 8.38155,6.7365 8.38155,6.7365 M7.90155,7.506 C8.02755,7.7205 8.14305,8.019 8.29905,8.2005 C8.52255,8.472 8.97855,8.931 9.62205,8.8215 C9.90105,8.7765 9.90555,8.6895 9.90555,8.6895 C10.23405,9.009 10.74405,8.997 10.74405,8.997 C10.68555,8.793 10.45755,8.4 10.42605,8.154 C10.39305,7.8855 10.46955,7.635 10.46955,7.635 C10.56405,7.3335 10.74105,6.957 10.93905,6.765 C11.11155,6.5895 11.56155,6.3975 11.91705,6.639 C12.20355,6.843 12.54105,7.503 12.26055,8.442 C12.24255,8.508 11.93055,9.1785 11.59905,9.2775 C11.59905,9.2775 11.56605,9.288 11.50305,9.288 C11.27955,9.288 10.85805,9.0495 10.85805,9.0495 C10.85805,9.0495 10.84605,9.111 10.90305,9.3585 C10.93905,9.492 10.99755,9.645 11.03505,9.7665 C11.03505,9.7665 10.94655,9.909 10.90305,9.993 C10.82655,10.0875 10.74405,10.41 10.92255,10.545 C10.92255,10.545 11.67105,11.0505 12.38955,11.0895 C12.88755,11.1165 13.07505,10.7835 13.07505,10.7835 C13.43955,10.2825 13.72005,9.8565 14.10255,9.5055 C15.16005,8.538 16.63905,8.283 16.63905,8.283 C16.73805,8.274 18.35655,7.818 21.11655,10.017 C20.32605,10.0725 19.38705,10.2675 18.67455,10.392 C16.63605,10.758 15.32505,12.6645 14.95155,13.4475 C13.95855,15.4845 15.98205,16.1835 15.98205,16.1835 C15.99555,16.164 17.91105,16.017 18.83355,13.9965 C18.83355,13.9965 19.17405,13.0905 20.06505,13.3815 C20.66055,13.575 25.84455,15.381 27.01155,15.6855 C27.01155,15.6855 30.48705,16.5855 31.80105,14.9955 C33.88155,15.681 35.84355,16.0095 40.97955,15.3495 C41.87805,15.228 42.57555,15.2625 42.57555,15.2625 C43.77855,15.3495 44.87505,16.155 45.19905,16.6875 C46.55505,18.837 48.26655,23.1165 54.22305,22.6005 L56.91855,22.3575 C58.55805,22.2615 59.89005,22.188 61.25355,22.905 C61.84155,23.214 62.17305,23.325 63.16905,24.2775 C64.54005,25.581 65.80305,26.9865 67.48455,26.223 C68.08005,25.9485 68.74905,24.8895 68.74905,24.8895 C68.67855,24.4095 68.47455,23.9355 67.93305,23.541 C69.45555,23.898 72.89205,24.1305 74.22555,21.813 C74.56755,21.2715 74.60505,20.793 74.47305,20.5005 C74.10705,19.6935 73.09905,19.9545 73.09905,19.9545 C72.62055,20.058 72.08355,20.5995 71.27655,20.844 C69.54555,21.3495 68.15055,20.76 68.15055,20.76 C65.48055,19.6005 56.88405,14.709 52.51305,12.5625 C52.51305,12.5625 47.44005,10.2165 40.07355,7.3095 C40.07355,7.3095 25.59705,1.1595 15.93405,1.6575 C15.93405,1.6575 10.78455,1.7985 9.16455,4.0575 C9.16455,4.0575 8.89755,4.368 9.04455,4.713 C9.04455,4.713 9.08205,4.8075 9.01305,4.8705 C9.01305,4.8705 8.15205,5.646 7.70355,6.342 C7.55055,6.582 7.40355,6.99 7.69905,7.2975 C7.69905,7.2975 7.83855,7.413 7.90155,7.506" id="Fill-4" fill="#231F20"></path>
                    <g id="Group-8" transform="translate(0.000000, 27.360300)">
                        <mask id="mask-4" fill="white">
                            <use xlink:href="#path-3"></use>
                        </mask>
                        <g id="Clip-7"></g>
                        <path d="M9.13485,6.1803 C9.59385,5.7123 9.81885,5.1228 9.81885,4.1673 L9.81885,1.1733 L7.52535,1.1733 L7.52535,3.9783 C7.52535,4.7898 7.34385,5.3463 6.94035,5.7423 C6.41385,6.2643 5.53635,6.4788 4.23735,6.4788 L-0.00015,6.4788 L-0.00015,7.3008 L4.60335,7.3008 C6.78585,7.3008 8.32335,7.0068 9.13485,6.1803" id="Fill-6" fill="#231F20" mask="url(#mask-4)"></path>
                    </g>
                    <path d="M56.73195,29.4273 L59.44545,32.5608 L54.02895,32.5608 L56.73195,29.4273 Z M60.12945,33.3573 L61.25745,34.6608 L63.82695,34.6608 L58.48995,28.5333 L56.23395,28.5333 L50.89545,34.6608 L52.22295,34.6608 L53.35245,33.3573 L60.12945,33.3573 Z" id="Fill-9" fill="#231F20"></path>
                    <path d="M13.99665,32.56635 L16.69815,29.42685 L19.40865,32.56635 L13.99665,32.56635 Z M21.22215,34.66035 L23.79015,34.66035 L18.45165,28.53435 L16.19265,28.53435 L10.86015,34.66035 L12.18765,34.66035 L13.30665,33.36135 L20.09865,33.36135 L21.22215,34.66035 Z" id="Fill-11" fill="#231F20"></path>
                    <path d="M68.14605,31.76655 L68.14605,29.30205 L72.65655,29.30205 C73.51305,29.30205 73.89255,29.37705 74.15655,29.57655 C74.40705,29.76555 74.48955,30.04455 74.48955,30.48855 L74.48955,30.60705 C74.48955,30.99855 74.40255,31.32255 74.10255,31.52805 C73.81305,31.72455 73.41555,31.76655 72.68355,31.76655 L68.14605,31.76655 Z M75.92805,32.03655 C76.51005,31.72455 76.78005,31.13055 76.78005,30.51555 C76.78005,29.69655 76.41555,29.17305 75.75105,28.88505 C75.15255,28.62255 74.41755,28.53405 72.95655,28.53405 L65.86455,28.53405 L65.86455,34.66155 L68.14605,34.66155 L68.14605,32.53755 L71.14905,32.53755 L74.58405,34.66155 L77.37105,34.66155 L73.77855,32.48955 C74.62605,32.47155 75.35505,32.33655 75.92805,32.03655 Z" id="Fill-13" fill="#231F20"></path>
                    <g id="Group-17" transform="translate(37.500000, 27.360300)">
                        <mask id="mask-6" fill="white">
                            <use xlink:href="#path-5"></use>
                        </mask>
                        <g id="Clip-16"></g>
                        <path d="M1.05765,1.17345 L1.05765,4.22895 C1.05765,5.01795 1.14015,5.64195 1.53915,6.15645 C2.19465,7.01445 3.38865,7.50045 6.69615,7.50045 L6.73665,7.50045 C10.05915,7.50045 11.25315,7.01445 11.89965,6.15645 C12.30015,5.64195 12.39015,5.01795 12.39015,4.22145 L12.39015,1.17345 L10.10115,1.17345 L10.10115,4.14045 C10.10115,4.90995 9.99765,5.39895 9.70215,5.81295 C9.21165,6.50895 8.42715,6.76095 6.81765,6.76095 L6.62115,6.76095 C5.08965,6.76095 4.23615,6.50895 3.73365,5.81295 C3.44115,5.39895 3.34215,4.93395 3.34215,4.14045 L3.34215,1.17345 L1.05765,1.17345 Z" id="Fill-15" fill="#231F20" mask="url(#mask-6)"></path>
                    </g>
                    <path d="M30.08205,29.34525 L35.79405,29.34525 L35.79405,28.53375 L29.36505,28.53375 C27.80805,28.53375 26.87805,28.71075 26.04705,29.17425 C25.26405,29.60925 24.64905,30.41775 24.64905,31.58175 C24.64905,32.81925 25.21155,33.72825 26.44905,34.21725 C27.18555,34.51425 28.16805,34.66125 29.40555,34.66125 L36.03405,34.66125 L36.03405,31.84575 L33.75105,31.84575 L33.75105,33.84225 L30.10305,33.84225 C28.91655,33.84225 28.22955,33.66975 27.72255,33.28275 C27.23655,32.91825 26.98455,32.35425 26.98455,31.59225 C26.98455,30.86175 27.22755,30.31725 27.67305,29.94675 C28.18755,29.53725 28.85505,29.34525 30.08205,29.34525" id="Fill-18" fill="#231F20"></path>
                </g>
            </g>
        </g>
    </g>
</svg>