<?xml version="1.0" encoding="UTF-8"?>
<svg width="122px" height="80px" viewBox="0 0 122 80" version="1.1" xmlns="http://www.w3.org/2000/svg" xmlns:xlink="http://www.w3.org/1999/xlink">
    <!-- Generator: Sketch 49.2 (51160) - http://www.bohemiancoding.com/sketch -->
    <title>Rectangle 3 Copy 19</title>
    <desc>Created with Sketch.</desc>
    <defs>
        <polygon id="path-1" points="0.455832 0.342491304 16.185 0.342491304 16.185 27.3476652 0.455832 27.3476652"></polygon>
        <polygon id="path-3" points="0.000156 0.477782609 16.011996 0.477782609 16.011996 27.5226913 0.000156 27.5226913"></polygon>
    </defs>
    <g id="Ilustraciones" stroke="none" stroke-width="1" fill="none" fill-rule="evenodd">
        <g id="JEEP" transform="translate(-39.000000, -60.000000)">
            <g id="Group" transform="translate(39.000000, 60.000000)">
                <rect id="Rectangle-3-Copy-19" x="0" y="0" width="122" height="80"></rect>
                <g id="Page-1" transform="translate(22.000000, 23.000000)">
                    <path d="M46.57458,14.9920783 C47.10186,14.105687 47.79294,13.661687 48.67278,13.661687 C49.42158,13.661687 50.03154,13.9512522 50.49486,14.5416435 C50.9535,15.1207739 51.23274,16.0892087 51.34506,17.4501652 L45.95682,17.4501652 C46.04262,16.3610783 46.23762,15.5454696 46.57458,14.9920783 M44.13318,27.5978174 C45.22518,28.276687 46.70874,28.6177304 48.59634,28.6177304 C50.78034,28.6177304 52.45734,28.2171652 53.61954,27.430513 C54.78174,26.6293826 55.77858,25.3086435 56.6007,23.4763391 L51.21402,22.8344696 C50.87082,23.3910783 50.5479,23.7723391 50.24994,23.989513 C49.77414,24.3353826 49.26246,24.5123391 48.71802,24.5123391 C47.87094,24.5123391 47.17674,24.1198174 46.64478,23.3138609 C46.26882,22.7669043 46.03326,21.9336 45.93186,20.8010783 L56.91426,20.8010783 L56.91426,20.0160348 C56.91426,17.6029913 56.6007,15.6452087 55.98294,14.1459043 C55.36674,12.6498174 54.46038,11.4915565 53.2779,10.7081217 C52.0923,9.9102087 50.49018,9.51768696 48.44034,9.51768696 C45.91938,9.51768696 43.94442,10.405687 42.50922,12.1704261 C41.0787,13.9303391 40.3611,16.251687 40.3611,19.1087304 C40.3611,21.1083391 40.72146,22.8537739 41.43594,24.3386 C42.14574,25.8314696 43.0443,26.9141217 44.13318,27.5978174" id="Fill-1" fill="#231F20"></path>
                    <g id="Group-5" transform="translate(60.840000, 9.174713)">
                        <mask id="mask-2" fill="white">
                            <use xlink:href="#path-1"></use>
                        </mask>
                        <g id="Clip-4"></g>
                        <path d="M10.062312,13.2088391 C9.631752,13.8828826 9.101352,14.2158826 8.458632,14.2158826 C7.739472,14.2158826 7.124832,13.865187 6.661512,13.1686217 C6.184152,12.4607957 5.943912,11.386187 5.943912,9.94157826 C5.943912,8.3731 6.179472,7.23575217 6.644352,6.53757826 C7.106112,5.83940435 7.691112,5.48227391 8.396232,5.48227391 C9.043632,5.48227391 9.584952,5.83618696 10.035792,6.53757826 C10.486632,7.21805652 10.711272,8.31357826 10.711272,9.79357826 C10.711272,11.391013 10.494432,12.5364043 10.062312,13.2088391 M10.183992,0.342491304 C9.210552,0.342491304 8.332272,0.606317391 7.525752,1.15327391 C6.940752,1.54901304 6.293352,2.31636087 5.581992,3.45531739 L5.581992,0.76236087 L0.455832,0.76236087 L0.455832,27.3476652 L5.987592,27.3476652 L5.987592,17.2611435 C6.533592,17.9818391 7.157592,18.5255783 7.848672,18.8987957 C8.539752,19.2623609 9.308832,19.4425348 10.162152,19.4425348 C11.898432,19.4425348 13.342992,18.6494478 14.480232,17.052013 C15.620592,15.4384913 16.185312,13.1203609 16.185312,10.091187 C16.185312,7.33066522 15.658032,5.01736087 14.622192,3.14323043 C13.566072,1.27392609 12.098112,0.342491304 10.183992,0.342491304" id="Fill-3" fill="#231F20" mask="url(#mask-2)"></path>
                    </g>
                    <g id="Group-8" transform="translate(0.000000, 1.131235)">
                        <mask id="mask-4" fill="white">
                            <use xlink:href="#path-3"></use>
                        </mask>
                        <g id="Clip-7"></g>
                        <path d="M12.996516,25.954213 C14.205516,24.9166043 15.007356,23.6393 15.408276,22.1319522 C15.801396,20.6278217 16.011996,18.438387 16.011996,15.5604304 L16.011996,0.4773 L9.903036,0.4773 L9.903036,17.4039957 C9.903036,18.9419087 9.742356,20.029387 9.416316,20.6873435 C9.105876,21.3308217 8.603556,21.6493435 7.915596,21.6493435 C7.483476,21.6493435 7.162116,21.5415609 6.921876,21.324387 C6.589596,21.0010391 6.339996,20.5602565 6.193356,20.0197348 C6.059196,19.4808217 5.976516,18.6539522 5.968716,17.5423435 L0.000156,17.3171261 C0.114036,19.2652565 0.605436,22.1480391 1.201356,23.4719957 C1.798836,24.7911261 2.638116,25.806213 3.734796,26.4899087 C4.834596,27.1784304 6.369636,27.5226913 8.363316,27.5226913 C10.247796,27.5226913 11.790636,27.0063 12.996516,25.954213" id="Fill-6" fill="#231F20" mask="url(#mask-4)"></path>
                    </g>
                    <path d="M26.367588,14.9920783 C26.887068,14.105687 27.570348,13.661687 28.445508,13.661687 C29.200548,13.661687 29.808948,13.9512522 30.273828,14.5416435 C30.732468,15.1207739 31.017948,16.0892087 31.125588,17.4501652 L25.729548,17.4501652 C25.815348,16.3610783 26.027508,15.5454696 26.367588,14.9920783 M23.921508,27.5978174 C25.004148,28.276687 26.483028,28.6177304 28.384668,28.6177304 C30.567108,28.6177304 32.237868,28.2171652 33.407868,27.430513 C34.565388,26.6293826 35.554428,25.3086435 36.390588,23.4763391 L30.986748,22.8344696 C30.649788,23.3910783 30.331548,23.7723391 30.038268,23.989513 C29.549988,24.3353826 29.039868,24.5123391 28.501668,24.5123391 C27.643668,24.5123391 26.960388,24.1198174 26.425308,23.3138609 C26.052468,22.7669043 25.812228,21.9336 25.713948,20.8010783 L36.696348,20.8010783 L36.696348,20.0160348 C36.696348,17.6029913 36.390588,15.6452087 35.766588,14.1459043 C35.150388,12.6498174 34.242468,11.4915565 33.055308,10.7081217 C31.877508,9.9102087 30.261348,9.51768696 28.222428,9.51768696 C25.701468,9.51768696 23.724948,10.405687 22.286628,12.1704261 C20.865468,13.9303391 20.138508,16.251687 20.138508,19.1087304 C20.138508,21.1083391 20.505108,22.8537739 21.210228,24.3386 C21.932508,25.8314696 22.824828,26.9141217 23.921508,27.5978174" id="Fill-9" fill="#231F20"></path>
                </g>
            </g>
        </g>
    </g>
</svg>