<?xml version="1.0" encoding="UTF-8"?>
<svg width="122px" height="80px" viewBox="0 0 122 80" version="1.1" xmlns="http://www.w3.org/2000/svg" xmlns:xlink="http://www.w3.org/1999/xlink">
    <!-- Generator: Sketch 49.2 (51160) - http://www.bohemiancoding.com/sketch -->
    <title>Rectangle 3 Copy 19</title>
    <desc>Created with Sketch.</desc>
    <defs>
        <polygon id="path-1" points="0.00583541147 0.0636774194 77.9769501 0.0636774194 77.9769501 38.9941935 0.00583541147 38.9941935"></polygon>
    </defs>
    <g id="Ilustraciones" stroke="none" stroke-width="1" fill="none" fill-rule="evenodd">
        <g id="KIA" transform="translate(-39.000000, -60.000000)">
            <g id="Group" transform="translate(39.000000, 60.000000)">
                <rect id="Rectangle-3-Copy-19" x="0" y="0" width="122" height="80"></rect>
                <g id="vert_2d_symbolmark_red" transform="translate(22.000000, 21.000000)">
                    <g id="Group-3">
                        <mask id="mask-2" fill="white">
                            <use xlink:href="#path-1"></use>
                        </mask>
                        <g id="Clip-2"></g>
                        <path d="M38.9879401,36.5480323 C20.0087506,36.5480323 4.56698753,28.9138065 4.56698753,19.5314516 C4.56698753,10.1492903 20.0087506,2.51758065 38.9879401,2.51758065 C57.9677132,2.51758065 73.4088928,10.1492903 73.4088928,19.5314516 C73.4088928,28.9138065 57.9677132,36.5480323 38.9879401,36.5480323 Z M38.9886209,0.0636774194 C17.4558554,0.0636774194 0,8.77983871 0,19.5317419 C0,30.2837419 17.4558554,39 38.9886209,39 C60.5214838,39 77.9769501,30.2837419 77.9769501,19.5317419 C77.9769501,8.77983871 60.5214838,0.0636774194 38.9886209,0.0636774194 Z" id="Fill-1" fill="#231F20" mask="url(#mask-2)"></path>
                    </g>
                    <path d="M35.1968678,10.8014516 L35.8260224,10.8014516 C36.0458229,10.8014516 36.2181621,10.9725484 36.2181621,11.1915484 L36.2181621,28.9887097 C36.2181621,29.2240645 36.4028529,29.4057097 36.6378254,29.4057097 L41.3216185,29.4057097 C41.5574663,29.4057097 41.7430324,29.2240645 41.7430324,28.9887097 L41.7430324,10.0261935 C41.7430324,9.79635484 41.5541596,9.60793548 41.3216185,9.60793548 L35.1968678,9.60793548 C35.1361796,9.60793548 35.1361796,9.66522581 35.1361796,9.71080645 L35.1361796,10.6999355 C35.1361796,10.7427097 35.1361796,10.8014516 35.1968678,10.8014516" id="Fill-4" fill="#231F20"></path>
                    <path d="M45.7574065,29.4057097 L50.355808,29.4057097 C50.578818,29.4057097 50.8159302,29.2292903 50.9074489,28.9942258 L54.8300125,16.7088387 C54.8300125,16.7060323 54.8750424,16.5377419 55.0213167,16.5377419 C55.1610748,16.5377419 55.2080499,16.7074839 55.2094115,16.7088387 L59.1738928,28.9942258 C59.2693017,29.2333548 59.5021347,29.4057097 59.7283541,29.4057097 L64.3251022,29.4057097 C64.4863541,29.4057097 64.5786509,29.3267419 64.6286409,29.2602581 C64.7171446,29.139871 64.7268703,28.9873548 64.697985,28.8950323 L58.2987756,9.88451613 C58.1992818,9.63870968 57.9494289,9.60793548 57.7429526,9.60793548 L50.401616,9.60793548 C50.3478329,9.60793548 50.2969676,9.65729032 50.2969676,9.71080645 L50.2969676,10.6999355 C50.2969676,10.7506452 50.3491945,10.8014516 50.401616,10.8014516 L50.9422668,10.8014516 C51.1766559,10.8014516 51.3339202,10.9378065 51.3339202,11.1421935 C51.3339202,11.2089677 51.3189426,11.2799032 51.2879177,11.3668065 L45.3847182,28.8965806 C45.350581,29.0208387 45.3769377,29.1556452 45.4553267,29.2587097 C45.5286584,29.3548065 45.6358354,29.4057097 45.7574065,29.4057097" id="Fill-5" fill="#231F20"></path>
                    <path d="M14.4687082,10.8014516 C14.6888978,10.8014516 14.8625012,10.9725484 14.8625012,11.1915484 L14.8625012,28.9887097 C14.8625012,29.2240645 15.0455387,29.4057097 15.2800249,29.4057097 L19.8334938,29.4057097 C20.0631172,29.4057097 20.2498504,29.2185484 20.2498504,28.9887097 L20.2498504,21.5042903 C20.2498504,21.3412258 20.3249327,21.2475484 20.4580773,21.2475484 C20.6143691,21.2475484 20.6878953,21.353129 20.7455686,21.4374194 C20.7520848,21.4467097 20.7574339,21.4560968 20.7644364,21.464129 L26.1276658,28.9511613 C26.300783,29.2105161 26.6145337,29.4057097 26.8582594,29.4057097 L32.2645736,29.4057097 C32.3920773,29.4057097 32.5317382,29.3148387 32.5977756,29.1892258 C32.6681895,29.0542258 32.6500998,28.9005484 32.5477855,28.7561613 C32.5314464,28.7319677 25.7688853,19.2161613 25.7004165,19.1199677 C25.6802843,19.0905484 25.6716284,19.0717742 25.6587905,19.0504839 C25.6440075,19.0235806 25.6299052,18.9928065 25.6246534,18.9649355 C25.6201796,18.9448065 25.612788,18.9273871 25.612788,18.9006774 C25.612788,18.8204516 25.6522743,18.7389677 25.6951646,18.6521613 L25.7004165,18.6413226 L31.4231072,10.2106452 C31.4961471,10.0930645 31.4961471,9.93803226 31.4239825,9.8096129 C31.352596,9.68409677 31.2289825,9.60793548 31.0933092,9.60793548 L25.9610648,9.60793548 C25.7174364,9.60793548 25.4015461,9.80312903 25.2255112,10.0623871 L20.7636584,16.3399355 C20.6246783,16.5456774 20.4882269,16.5564194 20.4622594,16.5564194 L20.4580773,16.5564194 C20.3331995,16.5564194 20.2498504,16.4735806 20.2498504,16.3466129 L20.2498504,10.0261935 C20.2498504,9.79635484 20.0631172,9.60793548 19.8334938,9.60793548 L13.8387756,9.60793548 C13.7843117,9.60793548 13.7349052,9.65729032 13.7349052,9.71080645 L13.7349052,10.6999355 C13.7349052,10.7519032 13.785187,10.8014516 13.8387756,10.8014516 L14.4687082,10.8014516" id="Fill-6" fill="#231F20"></path>
                </g>
            </g>
        </g>
    </g>
</svg>