<?xml version="1.0" encoding="UTF-8"?>
<svg width="122px" height="80px" viewBox="0 0 122 80" version="1.1" xmlns="http://www.w3.org/2000/svg" xmlns:xlink="http://www.w3.org/1999/xlink">
    <!-- Generator: Sketch 49.2 (51160) - http://www.bohemiancoding.com/sketch -->
    <title>Rectangle 3 Copy 19</title>
    <desc>Created with Sketch.</desc>
    <defs>
        <polygon id="path-1" points="0.000239410958 0.5754375 63.0523871 0.5754375 63.0523871 63.9375 0.000239410958 63.9375"></polygon>
    </defs>
    <g id="Ilustraciones" stroke="none" stroke-width="1" fill="none" fill-rule="evenodd">
        <g id="FIAT-Copy-2" transform="translate(-39.000000, -60.000000)">
            <g id="Group" transform="translate(39.000000, 60.000000)">
                <rect id="Rectangle-3-Copy-19" x="0" y="0" width="122" height="80"></rect>
                <g id="Page-1" transform="translate(29.000000, 7.000000)">
                    <path d="M28.0538839,51.3510937 C20.9003355,50.1465937 14.6882065,45.1862812 12.1137548,38.6275312 C11.1227871,36.1009687 10.7408516,34.2612187 10.6520774,31.5799687 C10.5777548,29.3813437 10.7284645,27.8159062 11.1971097,25.9699687 C13.2203355,17.9406562 19.4283355,12.0006563 27.4014968,10.4640937 C29.1749161,10.1196563 29.3008516,10.1320313 29.5176258,10.6476563 C29.9986581,11.8047188 30.442529,14.2013438 30.882271,18.0664687 C31.0701419,18.4170937 30.8389161,21.0921562 31.6069161,20.7642187 C31.7576258,20.6714063 31.8319484,20.3991562 31.8938839,19.7288437 C32.3645935,14.9067187 33.1181419,10.9095937 33.6631742,10.3465313 C33.8056258,10.1980312 33.9790452,10.2021563 35.0071742,10.3671562 C39.266271,11.0539687 43.1475613,13.0669687 46.3000774,16.2225937 C47.9558194,17.8787813 48.9963355,19.2833437 49.9873032,21.1911562 C51.7793032,24.6499687 52.5266581,27.8757187 52.3842065,31.5923437 C52.3160774,33.4795312 52.138529,34.6365937 51.6636903,36.3814687 C49.6611097,43.7136562 43.5893677,49.4639062 36.1282065,51.0953437 C35.4056258,51.2562187 34.5612387,51.4191562 34.2577548,51.4604062 L33.7085935,51.5346562 L33.5186581,51.0953437 C32.9694968,49.7835937 32.2716903,45.9122812 31.978529,42.5792812 C31.906271,41.7563437 31.8257548,40.9911562 31.7927226,40.8777187 C31.7328516,40.6755937 31.3488516,40.5992812 31.2435613,40.7725312 C31.2125935,40.8282187 31.0474323,42.0471562 30.8884645,43.4867812 C30.4033032,47.8035937 29.730271,51.1489687 29.3070452,51.4191562 C29.1233032,51.5346562 29.1584,51.5367187 28.0538839,51.3510937 M34.0347871,54.2839687 C38.2360774,53.8281562 42.2763355,52.2524062 45.6414968,49.7609062 C46.7955613,48.9049688 48.8435613,46.9290937 49.7973677,45.7555312 C52.2087226,42.7772812 53.8768516,39.2524687 54.690271,35.4285937 C54.9916903,34.0199062 55.010271,33.7517813 55.0123355,30.9880312 C55.0123355,28.4243438 54.9834323,27.8757188 54.7604645,26.7207188 C53.4226581,19.7556562 49.2399484,13.9146562 43.050529,10.3754062 C40.8786581,9.13378125 38.0791742,8.14790625 35.3870452,7.67559375 C33.5929806,7.36003125 30.058529,7.29815625 28.3449806,7.54978125 C22.5024,8.41396875 17.3514323,11.1942188 13.6518194,15.4718438 C8.36872258,21.5850937 6.59736774,29.6700938 8.83117419,37.4477812 C10.6500129,43.7672813 15.3075613,49.2494062 21.3008516,52.1121562 C23.4747871,53.1516562 26.4704,54.0096562 28.8631742,54.2777812 C30.1349161,54.4200937 32.7485935,54.4242187 34.0347871,54.2839687" id="Fill-1" fill="#231F20"></path>
                    <path d="M45.0557935,32.1118875 C45.0888258,31.969575 45.2808258,31.0105125 45.4914065,29.9772 C45.6999226,28.94595 45.9043097,28.10445 45.9559226,28.10445 C46.0034065,28.10445 46.2077935,28.9975125 46.4142452,30.0927 C46.6268903,31.1878875 46.8168258,32.14695 46.845729,32.22945 C46.8870194,32.3346375 46.6619871,32.3717625 45.9538581,32.3717625 C45.0268903,32.3717625 45.0041806,32.3635125 45.0557935,32.1118875 Z M50.2191484,36.8185125 C50.4772129,36.5050125 50.3141161,36.2410125 49.8248258,36.177075 L49.3726968,36.1213875 L48.0679226,30.1236375 C47.3515355,26.8236375 46.7631484,24.11145 46.7631484,24.09495 C46.7631484,24.07845 46.6083097,24.066075 46.4183742,24.066075 C46.0157935,24.066075 46.0921806,23.83095 45.3262452,27.41145 C45.0310194,28.7747625 44.4921806,31.2662625 44.1350194,32.9492625 L43.4702452,36.0058875 L42.9190194,36.04095 L42.3698581,36.0760125 L42.4028903,30.6207 L42.429729,25.1612625 L42.8343742,25.105575 C43.1936,25.0540125 43.2369548,25.0086375 43.2369548,24.701325 L43.2369548,24.3527625 L41.4511484,24.3527625 L39.6612129,24.3527625 L39.6612129,24.701325 C39.6612129,25.0086375 39.7004387,25.0540125 40.0658581,25.105575 L40.4622452,25.1612625 L40.4622452,30.5856375 L40.4622452,36.0058875 L40.0658581,36.0636375 C39.7045677,36.1131375 39.6550194,36.1647 39.6261161,36.4967625 L39.5868903,36.8762625 L42.3430194,36.8432625 L45.0888258,36.8143875 L45.1239226,36.4947 C45.1528258,36.2203875 45.1074065,36.1667625 44.8039226,36.1048875 C44.6077935,36.0657 44.4550194,36.0017625 44.4570839,35.9646375 C44.4570839,35.9233875 44.5830194,35.3211375 44.7213419,34.6198875 L44.981471,33.3535125 L45.9270194,33.31845 C46.8271484,33.28545 46.8725677,33.2957625 46.9283097,33.54945 C47.1347613,34.52295 47.3350194,35.66145 47.3350194,35.8450125 C47.3350194,35.9997 47.2565677,36.0636375 47.0563097,36.0636375 C46.8890839,36.0636375 46.7156645,36.1585125 46.6516645,36.2863875 C46.4947613,36.5751375 46.4988903,36.589575 46.7115355,36.804075 C46.9675355,37.0618875 50.0085677,37.0722 50.2191484,36.8185125 Z M37.2126968,36.9793875 C38.205729,36.7030125 38.9613419,35.640825 39.3246968,34.015575 C39.5476645,33.0235125 39.4981161,32.8337625 39.0315355,32.8337625 C38.6165677,32.8337625 38.6103742,32.8420125 38.3296,33.941325 C38.0199226,35.1437625 37.6379871,35.7790125 37.109471,35.9481375 C36.349729,36.201825 35.6684387,35.8615125 35.2926968,35.0427 C35.0656,34.5497625 35.0408258,34.2733875 35.0077935,31.507575 C34.9479226,27.258825 35.1997935,25.7016375 36.0194065,25.278825 C37.0929548,24.7240125 38.0013419,25.49745 38.3213419,27.2402625 C38.4658581,27.9992625 38.5566968,28.1436375 38.8705032,28.0858875 C39.0625032,28.0487625 39.0872774,27.8755125 39.1492129,26.2585125 C39.1863742,25.2747 39.1905032,24.4063875 39.1636645,24.32595 C39.0748903,24.0702 38.5670194,24.1588875 38.4328258,24.4600125 L38.3027613,24.7322625 L37.749471,24.387825 C37.2395355,24.0722625 37.1156645,24.041325 36.4343742,24.0867 C35.8336,24.1258875 35.5858581,24.206325 35.197729,24.47445 C33.845471,25.4293875 32.9040516,27.910575 32.9040516,30.5155125 C32.9040516,33.5267625 34.0952774,36.2245125 35.7324387,36.9422625 C36.157729,37.125825 36.6325677,37.1402625 37.2126968,36.9793875 Z M20.6656,32.2851375 C20.6594065,32.0087625 21.5265032,28.10445 21.5925677,28.10445 C21.6834065,28.10445 22.4906323,32.1552 22.4266323,32.2851375 C22.4018581,32.332575 21.9951484,32.3717625 21.5265032,32.3717625 C21.0516645,32.3717625 20.6656,32.332575 20.6656,32.2851375 Z M31.8366968,31.0806375 L31.869729,25.11795 L32.2970839,25.0828875 C32.693471,25.0498875 32.7368258,25.0127625 32.7677935,24.6786375 L32.8008258,24.313575 L31.5951484,24.27645 C30.0219871,24.2290125 29.9972129,24.2352 30.0405677,24.6807 C30.0715355,25.0003875 30.1252129,25.0540125 30.4782452,25.105575 L30.8849548,25.1612625 L30.9138581,27.8548875 C30.9303742,29.3316375 30.901471,30.5155125 30.8498581,30.4825125 C30.7982452,30.451575 30.1912774,29.04495 29.5037935,27.3598875 L28.2506323,24.2908875 L26.7394065,24.321825 L25.2261161,24.3527625 L25.2261161,24.701325 C25.2261161,25.0168875 25.2612129,25.0498875 25.661729,25.0828875 L26.0911484,25.11795 L26.0684387,30.5608875 L26.0333419,36.0058875 L25.5151484,36.0058875 L24.9990194,36.0058875 L23.797471,30.4701375 C22.3502452,23.7628875 22.4348903,24.1052625 22.2160516,24.0207 C21.7350194,23.8371375 21.6730839,24.033075 20.6263742,28.81395 C19.5714065,33.636075 19.2761806,34.593075 18.6093419,35.294325 C18.1406968,35.7913875 17.5192774,36.0636375 16.8606968,36.0636375 L16.2743742,36.0636375 L16.3053419,30.61245 L16.3342452,25.1612625 L16.7368258,25.105575 C17.1001806,25.0540125 17.141471,25.0086375 17.141471,24.701325 L17.141471,24.3527625 L15.3536,24.3527625 L13.5636645,24.3527625 L13.5223742,24.68895 C13.4852129,25.06845 13.6441806,25.2148875 14.1107613,25.2190125 L14.4307613,25.2190125 L14.4307613,30.6433875 L14.4307613,36.0636375 L14.1520516,36.0636375 C13.6751484,36.0636375 13.5058581,36.185325 13.5058581,36.5297625 C13.5058581,36.7112625 13.5450839,36.8803875 13.5946323,36.9092625 C13.6379871,36.9402 15.0769548,36.927825 16.7946323,36.886575 L19.8996645,36.8143875 L20.2526968,35.079825 L20.6077935,33.3535125 L21.557471,33.31845 C22.4658581,33.28545 22.5112774,33.2957625 22.5608258,33.54945 C22.7693419,34.5126375 22.973729,35.6593875 22.973729,35.838825 C22.973729,35.99145 22.8725677,36.0595125 22.6000516,36.0842625 C22.2717935,36.1172625 22.2222452,36.160575 22.2222452,36.4678875 L22.2222452,36.8143875 L24.9990194,36.8432625 C27.3979871,36.8721375 27.7861161,36.84945 27.8976,36.6947625 C28.1370839,36.37095 27.9554065,36.078075 27.4929548,36.04095 L27.0759226,36.0058875 L27.0428903,31.7427 C27.0284387,29.3997 27.0532129,27.4423875 27.1068903,27.3928875 C27.1543742,27.341325 27.9946323,29.2842 28.9711484,31.7117625 C31.3804387,37.69095 31.1120516,37.1237625 31.4898581,37.08045 L31.8077935,37.043325 L31.8366968,31.0806375 Z" id="Fill-3" fill="#231F20"></path>
                    <g id="Group-7" transform="translate(0.000000, 1.487681)">
                        <mask id="mask-2" fill="white">
                            <use xlink:href="#path-1"></use>
                        </mask>
                        <g id="Clip-6"></g>
                        <path d="M60.1889032,13.6358062 C50.2895484,6.87699375 40.5594839,3.30886875 31.0152258,3.23668125 C21.4833548,3.16243125 12.0732903,6.56761875 2.79329032,13.7451188 C2.19458065,24.2948063 3.65832258,33.8029312 8.10735484,41.8095563 C12.5646452,49.8326813 20.0443871,56.4017438 31.4797419,61.0650563 C42.048,56.7482437 49.6516129,50.6081812 54.3938065,42.7005562 C59.1236129,34.8053063 61.0270968,25.0971188 60.1889032,13.6358062 M31.0234839,0.57605625 C41.3089032,0.65649375 51.716129,4.50718125 62.2327742,11.8043062 L62.7509677,12.1611188 L62.8046452,12.7943063 C63.803871,25.0847438 61.7950968,35.5292438 56.6792258,44.0638688 C51.5592258,52.6088063 43.3610323,59.1861188 31.9772903,63.7380563 L31.483871,63.9381188 L30.9883871,63.7380563 C18.6549677,58.8148688 10.5909677,51.7652438 5.77858065,43.1048063 C0.978580645,34.4546813 -0.551225806,24.2514938 0.169290323,12.9778688 L0.206451613,12.3818063 L0.67716129,12.0146813 C10.5950968,4.19986875 20.7153548,0.49561875 31.0234839,0.57605625" id="Fill-5" fill="#231F20" mask="url(#mask-2)"></path>
                    </g>
                </g>
            </g>
        </g>
    </g>
</svg>