<?xml version="1.0" encoding="UTF-8"?>
<svg width="122px" height="80px" viewBox="0 0 122 80" version="1.1" xmlns="http://www.w3.org/2000/svg" xmlns:xlink="http://www.w3.org/1999/xlink">
    <!-- Generator: Sketch 49.2 (51160) - http://www.bohemiancoding.com/sketch -->
    <title>Rectangle 3 Copy 19</title>
    <desc>Created with Sketch.</desc>
    <defs></defs>
    <g id="Ilustraciones" stroke="none" stroke-width="1" fill="none" fill-rule="evenodd">
        <g id="LANDROVER" transform="translate(-39.000000, -60.000000)">
            <g id="Group" transform="translate(39.000000, 60.000000)">
                <rect id="Rectangle-3-Copy-19" x="0" y="0" width="122" height="80"></rect>
                <g id="Page-1" transform="translate(22.000000, 20.000000)" fill="#231F20">
                    <path d="M62.273564,23.6454107 L61.1907017,23.6454107 L60.551692,25.5895179 L61.5844698,25.5895179 C61.6984553,25.5895179 61.9246993,25.5538929 62.2787452,25.4639821 C62.4497234,25.4215714 62.6172476,25.3265714 62.7726824,25.1603214 C62.9298442,24.9991607 63.0386486,24.8193393 63.1111848,24.6072857 C63.2113539,24.2968393 63.2113539,24.0593393 63.1060036,23.8930893 C62.9989263,23.7302321 62.7225978,23.6454107 62.273564,23.6454107" id="Fill-1"></path>
                    <path d="M46.9542572,17.3516607 C47.4637379,17.3516607 47.8419626,17.2855 48.1027476,17.1396071 C48.3635326,17.0021964 48.6156824,16.7579107 48.8557428,16.4135357 C49.0992572,16.0674643 49.3583152,15.5076429 49.643279,14.7374643 C50.002506,13.7043393 50.1233998,13.0071071 49.9886896,12.6321964 C49.8557065,12.2505 49.480936,12.0689821 48.8557428,12.0689821 L48.2633635,12.0689821 L46.3722403,17.3516607 L46.9542572,17.3516607 Z" id="Fill-3"></path>
                    <path d="M25.4976944,23.6454107 L24.4251944,23.6454107 L23.7810036,25.5895179 L24.8086002,25.5895179 C24.9208587,25.5895179 25.1471027,25.5538929 25.5028756,25.4639821 C25.6738539,25.4215714 25.841378,25.3265714 26.003721,25.1603214 C26.1539746,24.9991607 26.2714143,24.8193393 26.3422234,24.6072857 C26.4423925,24.2968393 26.4423925,24.0593393 26.3387693,23.8930893 C26.2213297,23.7302321 25.9467283,23.6454107 25.4976944,23.6454107" id="Fill-5"></path>
                    <polygon id="Fill-7" points="30.2672971 12.3784107 28.1775628 15.8577857 29.8838913 15.8577857"></polygon>
                    <path d="M65.6551341,24.3692768 C65.4824287,24.9036518 65.230279,25.3599911 64.9159553,25.7484732 C64.6050857,26.1318661 64.2441316,26.4474018 63.8296389,26.6849018 C63.574035,26.8375804 63.2441679,26.9715982 62.8486727,27.0615089 C63.1008225,27.1870446 63.2735278,27.3024018 63.3702428,27.4143661 C63.4289626,27.4991875 63.508407,27.6637411 63.5964867,27.9215982 C63.6759312,28.1794554 63.7311969,28.3796339 63.7398321,28.5187411 L64.0075254,31.2991875 L61.2304239,31.2991875 L60.8867403,28.3626696 C60.8470181,27.9877589 60.7917524,27.7468661 60.6915833,27.6264196 C60.5655085,27.4805268 60.389349,27.4007946 60.161378,27.4007946 L59.9489505,27.4007946 L58.6553877,31.2991875 L56.196064,31.2991875 L59.3738418,21.7143661 L63.4565954,21.7143661 C64.2164988,21.7143661 64.7726099,21.7873125 65.1214746,21.9518661 C65.4703394,22.0977589 65.6948563,22.3929375 65.8002065,22.8221339 C65.9072838,23.2445446 65.8502911,23.7636518 65.6551341,24.3692768 Z M55.0320302,27.2396339 L51.2204239,27.2396339 L50.5935036,29.1243661 L54.8247838,29.1243661 L54.1080568,31.2991875 L47.4157258,31.2991875 L50.5935036,21.7143661 L57.1614867,21.7143661 L56.4810278,23.7636518 L52.3758225,23.7636518 L51.8680688,25.2819554 L55.6848563,25.2819554 L55.0320302,27.2396339 Z M40.26918,31.2991875 L40.4505205,21.7143661 L43.0186486,21.7143661 L42.5108949,28.6086518 L46.5591075,21.7143661 L49.0512452,21.7143661 L42.9271147,31.2991875 L40.26918,31.2991875 Z M38.5973925,19.5429375 L37.5974287,14.2348125 L35.6993973,19.5429375 L33.4525012,19.5429375 L36.9083345,9.87499107 L39.1448684,9.87499107 L40.1465592,15.2221339 L42.05668,9.87499107 L44.3139384,9.87499107 L40.8581051,19.5429375 L38.5973925,19.5429375 Z M38.0861848,26.4270446 C37.7183225,27.5466875 37.2589263,28.4712411 36.7045423,29.1905268 C36.1536123,29.9115089 35.5284191,30.4594554 34.8030568,30.8699911 C34.0759674,31.2601696 33.2763418,31.4654375 32.3972717,31.4654375 C31.4974771,31.4654375 30.8170181,31.2873125 30.3472597,30.9497232 C29.8757742,30.6019554 29.5804481,30.0506161 29.4647355,29.3092768 C29.3386606,28.5611518 29.4681896,27.6349018 29.8412331,26.5135625 C30.3628031,24.9511518 31.1296147,23.7297232 32.1364867,22.8577589 C33.1450857,21.9840982 34.2970302,21.5498125 35.5802307,21.5498125 C36.9014263,21.5498125 37.7787693,21.9773125 38.2036244,22.8306161 C38.6336606,23.6924018 38.5973925,24.8900804 38.0861848,26.4270446 Z M28.8809915,24.3692768 C28.7031051,24.9036518 28.4595906,25.3599911 28.1418128,25.7484732 C27.8292162,26.1318661 27.4682621,26.4474018 27.0537693,26.6849018 C26.7981655,26.8375804 26.4700254,26.9715982 26.0728031,27.0615089 C26.32668,27.1870446 26.4976582,27.3024018 26.5943732,27.4143661 C26.6565471,27.4991875 26.7342645,27.6637411 26.8206171,27.9215982 C26.9052428,28.1794554 26.9518732,28.3796339 26.9639626,28.5187411 L27.2264746,31.2991875 L24.4631896,31.2991875 L24.1212331,28.3626696 C24.0797838,27.9877589 24.0124287,27.7468661 23.9174408,27.6264196 C23.79482,27.4805268 23.6169336,27.4007946 23.3958708,27.4007946 L23.1730809,27.4007946 L21.8864263,31.2991875 L19.4219215,31.2991875 L22.5979722,21.7143661 L26.6910882,21.7143661 C27.4440833,21.7143661 27.9950133,21.7873125 28.3456051,21.9518661 C28.6944698,22.0977589 28.9172597,22.3929375 29.024337,22.8221339 C29.1348684,23.2445446 29.0847838,23.7636518 28.8809915,24.3692768 Z M18.2958829,27.1022232 L11.5983708,27.2158839 L12.936837,25.1818661 L19.5497234,22.0977589 L16.0282621,25.2140982 L18.9849771,25.1072232 L18.2958829,27.1022232 Z M19.8225978,9.87499107 L22.2145664,9.87499107 L19.6101703,17.1594554 L23.3423321,17.1594554 L22.4960761,19.5429375 L16.3633104,19.5429375 L19.8225978,9.87499107 Z M29.8844094,9.87499107 L32.4939867,9.87499107 L31.949965,19.5429375 L29.4509191,19.5429375 L29.6408949,17.9482946 L26.9086969,17.9482946 L25.9639988,19.5429375 L23.5184915,19.5429375 L29.8844094,9.87499107 Z M50.2066437,9.87499107 C50.9164626,9.87499107 51.4380326,9.9954375 51.7851703,10.2312411 C52.134035,10.4704375 52.3671872,10.8046339 52.4811727,11.2423125 C52.6003394,11.6969554 52.6279722,12.2143661 52.5450737,12.8030268 C52.4621751,13.3950804 52.3015592,14.0176696 52.0614988,14.6758839 C51.6901824,15.7107054 51.3102307,16.5148125 50.9250978,17.0797232 C50.5330568,17.6565089 50.0995664,18.1213304 49.629808,18.5081161 C49.1531413,18.8915089 48.7075616,19.1578482 48.2723442,19.2816875 C47.681692,19.4564196 47.1860278,19.5429375 46.7594457,19.5429375 L43.1999891,19.5429375 L46.6592766,9.87499107 L50.2066437,9.87499107 Z M55.544965,15.5410625 L56.2323321,13.5392768 L62.9298442,13.4324018 L61.589651,15.4664196 L54.9784915,18.5454375 L58.5051341,15.4341875 L55.544965,15.5410625 Z M38.8702669,3.10963393 C18.5998442,3.10963393 2.06158333,10.7978482 2.06158333,20.2147232 C2.06158333,29.6332946 18.5998442,37.3181161 38.8702669,37.3181161 C59.1424167,37.3181161 75.6841316,29.6332946 75.6841316,20.2147232 C75.6841316,10.7978482 59.1424167,3.10963393 38.8702669,3.10963393 Z" id="Fill-9"></path>
                    <path d="M34.8312077,23.7894375 C34.3407246,23.7894375 33.8796014,23.9980982 33.4305676,24.4272946 C32.9936232,24.8429196 32.6153986,25.5469375 32.2838043,26.5257768 C31.9642995,27.4910446 31.8900362,28.1882768 32.0420169,28.6089911 C32.2043599,29.0330982 32.5376812,29.2468482 33.0454348,29.2468482 C33.572186,29.2468482 34.0557609,29.0381875 34.4806159,28.6191696 C34.9020169,28.2086339 35.2923309,27.4622054 35.6463768,26.3900625 C35.9486111,25.4909554 36.0159662,24.8361339 35.8501691,24.4171161 C35.6826449,23.9980982 35.3510507,23.7894375 34.8312077,23.7894375" id="Fill-11"></path>
                    <g id="Group-15" transform="translate(0.000000, 0.420455)">
                        <path d="M38.8706123,37.9012679 C17.9352742,37.9012679 0.865080918,29.7668929 0.865080918,19.7935893 C0.865080918,9.82028571 17.9352742,1.68930357 38.8706123,1.68930357 C59.8042234,1.68930357 76.8795978,9.82028571 76.8795978,19.7935893 C76.8795978,29.7668929 59.8042234,37.9012679 38.8706123,37.9012679 M38.8706123,0.561178571 C17.4620616,0.561178571 -0.000172705314,9.207875 -0.000172705314,19.7935893 C-0.000172705314,30.3826964 17.4620616,39.0175179 38.8706123,39.0175179 C60.279163,39.0175179 77.7344891,30.3826964 77.7344891,19.7935893 C77.7344891,9.207875 60.279163,0.561178571 38.8706123,0.561178571" id="Fill-13"></path>
                    </g>
                </g>
            </g>
        </g>
    </g>
</svg>