<?xml version="1.0" encoding="UTF-8"?>
<svg width="122px" height="80px" viewBox="0 0 122 80" version="1.1" xmlns="http://www.w3.org/2000/svg" xmlns:xlink="http://www.w3.org/1999/xlink">
    <!-- Generator: Sketch 49.2 (51160) - http://www.bohemiancoding.com/sketch -->
    <title>Rectangle 3 Copy 19</title>
    <desc>Created with Sketch.</desc>
    <defs>
        <polygon id="path-1" points="0.00015 0.944695652 76.7205 0.944695652 76.7205 10.6518696 0.00015 10.6518696"></polygon>
    </defs>
    <g id="Ilustraciones" stroke="none" stroke-width="1" fill="none" fill-rule="evenodd">
        <g id="LEXUS" transform="translate(-39.000000, -60.000000)">
            <g id="Group" transform="translate(39.000000, 60.000000)">
                <rect id="Rectangle-3-Copy-19" x="0" y="0" width="122" height="80"></rect>
                <g id="Page-1" transform="translate(22.000000, 23.000000)">
                    <path d="M32.5437,10.8393478 C31.5687,12.3991304 31.4817,13.153913 31.4547,13.6621739 C31.4217,14.1567391 31.4217,15.0469565 32.2137,15.7743478 C33.5547,16.9795652 35.4237,16.7832609 37.0812,16.7832609 L50.7582,16.7832609 C51.3402,16.7832609 51.5127,16.6113043 51.8247,16.1836957 C52.9182,14.4930435 53.4102,12.663913 53.4102,11.025 C53.4102,7.51434783 51.1527,3.09521739 45.4482,1.09565217 L44.8062,2.02543478 C49.3302,4.19695652 51.2052,7.03956522 51.2052,11.0173913 C51.2277,12.081087 50.9547,13.2345652 50.2632,14.2997826 L36.9642,14.2997826 C36.1677,14.2997826 36.0597,13.3882609 36.3417,12.8769565 C37.5237,10.7632609 38.7342,8.89304348 40.1547,6.97108696 C41.4987,5.15717391 42.8247,3.46195652 44.2092,1.68456522 C44.5872,1.19304348 44.3352,0.71673913 43.5867,0.561521739 C42.0342,0.229782609 40.4112,0 38.4477,0 C27.5367,0 23.5572,6.33347826 23.5572,11.0265217 C23.5572,16.1136957 27.5727,22.0256522 38.4747,22.0256522 C44.5272,22.0256522 48.4917,20.0519565 50.7867,17.5213043 L48.4722,17.5213043 C46.4637,19.3945652 43.0212,20.7215217 38.4747,20.7215217 C29.2392,20.7215217 25.8342,15.4745652 25.8342,10.9565217 C25.9032,6.92695652 29.5572,1.35891304 38.7057,1.17326087 C39.0522,1.16413043 39.3207,1.48369565 39.0792,1.78652174 C37.5147,3.73130435 33.0537,10.0267391 32.5437,10.8393478" id="Fill-1" fill="#231F20"></path>
                    <g id="Group-5" transform="translate(0.000000, 24.139043)">
                        <mask id="mask-2" fill="white">
                            <use xlink:href="#path-1"></use>
                        </mask>
                        <g id="Clip-4"></g>
                        <path d="M30.33765,8.666 L26.00715,8.666 L17.79015,8.666 C17.82315,7.67382609 18.86565,6.67556522 19.81665,6.67556522 L26.00715,6.67556522 L27.71865,6.67556522 L27.71865,4.68665217 L26.00715,4.68665217 L17.68815,4.68665217 C17.57415,4.10686957 18.65115,2.96252174 19.47315,2.96252174 L26.00715,2.96252174 L28.48965,2.96252174 L28.48965,1.89578261 L34.33365,6.13382609 L30.33765,8.666 Z M73.65015,4.87382609 L64.89915,4.87382609 C65.01615,3.79643478 65.93265,2.89556522 66.86115,2.89556522 L75.71865,2.89556522 L75.68715,1.02382609 L66.29865,1.02382609 C63.32865,1.02382609 60.95415,3.51643478 60.88215,6.41686957 C60.87015,6.61926087 61.00515,6.74404348 61.23315,6.74404348 L71.88765,6.706 C72.43365,6.78208696 72.85365,7.22034783 72.85365,7.73621739 C72.85365,8.316 72.32865,8.78165217 71.69865,8.78165217 L59.97615,8.78165217 L59.97615,1.02991304 L56.52765,1.02991304 L56.52765,8.80143478 L50.18265,8.80143478 C48.45765,8.80143478 48.10215,7.74534783 48.10215,6.77447826 L48.10215,0.98426087 L42.37815,0.98426087 C41.81115,1.37382609 41.26365,1.79991304 40.68165,2.15752174 L37.29015,4.27121739 L32.87265,1.01317391 L26.00715,1.01317391 L19.52865,1.01317391 C17.77515,1.01317391 16.42665,1.47578261 15.42615,2.27469565 C13.62915,3.70665217 13.05915,5.22230435 13.08165,5.901 L15.41865,5.901 C14.39265,6.67556522 13.69965,7.6083913 13.33815,8.68578261 L5.65965,8.68578261 C4.27965,8.68578261 3.39465,7.69665217 3.39465,6.7333913 L3.39465,0.944695652 L0.00015,0.944695652 L0.00015,6.9586087 C0.00015,9.11947826 2.02965,10.6153478 5.28915,10.6153478 L26.00715,10.6153478 L31.02165,10.6153478 C31.55865,10.2501304 32.06415,9.86056522 32.62215,9.51665217 L36.11865,7.37708696 L40.54815,10.5727391 L45.59115,10.5727391 L38.92815,5.50230435 L42.35265,3.24252174 C43.08165,2.7586087 43.84665,2.35230435 44.59515,1.90491304 L44.59515,7.01034783 C44.59515,9.16056522 45.13815,10.6518696 49.42815,10.6518696 L73.65015,10.5955652 C75.51915,10.6229565 76.72065,9.31273913 76.72065,7.73621739 C76.72065,6.16578261 75.34065,4.87382609 73.65015,4.87382609 Z" id="Fill-3" fill="#231F20" mask="url(#mask-2)"></path>
                    </g>
                </g>
            </g>
        </g>
    </g>
</svg>