<?xml version="1.0" encoding="UTF-8"?>
<svg width="122px" height="80px" viewBox="0 0 122 80" version="1.1" xmlns="http://www.w3.org/2000/svg" xmlns:xlink="http://www.w3.org/1999/xlink">
    <!-- Generator: Sketch 49.2 (51160) - http://www.bohemiancoding.com/sketch -->
    <title>Rectangle 3 Copy 19</title>
    <desc>Created with Sketch.</desc>
    <defs>
        <polygon id="path-1" points="0.302542105 0.130333333 23.8977 0.130333333 23.8977 56.51905 0.302542105 56.51905"></polygon>
        <polygon id="path-3" points="0 1.04181667 3.58801579 1.04181667 3.58801579 7.01448333 0 7.01448333"></polygon>
        <polygon id="path-5" points="0.0764526316 0.967725 3.66887368 0.967725 3.66887368 7.08333333 0.0764526316 7.08333333"></polygon>
    </defs>
    <g id="Ilustraciones" stroke="none" stroke-width="1" fill="none" fill-rule="evenodd">
        <g id="LINCOLN" transform="translate(-39.000000, -60.000000)">
            <g id="Group" transform="translate(39.000000, 60.000000)">
                <rect id="Rectangle-3-Copy-19" x="0" y="0" width="122" height="80"></rect>
                <g id="Page-1" transform="translate(34.000000, 6.000000)">
                    <g id="Group-3" transform="translate(14.210526, 1.286617)">
                        <mask id="mask-2" fill="white">
                            <use xlink:href="#path-1"></use>
                        </mask>
                        <g id="Clip-2"></g>
                        <path d="M10.5426474,29.6491333 L11.6212263,48.2882167 L7.72327895,48.2882167 C6.91327895,42.0166333 6.49122632,35.6246333 6.47559474,29.1306333 L10.5426474,29.6491333 Z M7.73038421,8.36513333 L11.6098579,8.36513333 L10.5398053,27.0056333 L6.48412105,27.5368833 C6.52675263,21.2497167 6.94596316,14.86055 7.73038421,8.36513333 Z M16.2851211,8.36513333 C17.1988579,14.7443833 17.6692263,21.1293 17.7090158,27.5156333 L13.6519105,26.99855 L12.5704895,8.36513333 L16.2851211,8.36513333 Z M16.2851211,48.2882167 L12.5903842,48.2882167 L13.6519105,29.6448833 L17.7090158,29.1178833 C17.6692263,35.5056333 17.1889105,41.8933833 16.2851211,48.2882167 Z M6.21980526,49.1906333 L6.30933158,49.8933 L11.7221211,49.8933 L12.1171737,56.51905 L12.5008579,49.8933 L17.6862789,49.8933 L17.7900158,49.2048 C18.7804895,42.4331333 19.3005947,35.6614667 19.3261737,28.9053833 L23.8977,28.3089667 L19.3261737,27.7281333 C19.3005947,20.9649667 18.7804895,14.2131333 17.7900158,7.44855 L17.6862789,6.75721667 L12.4681737,6.75721667 L12.0830684,0.13005 L11.7036474,6.75721667 L6.30506842,6.75721667 L6.2127,7.46271667 C5.36006842,14.33355 4.90817368,21.0981333 4.87264737,27.7479667 L0.302542105,28.3387167 L4.86412105,28.9223833 C4.87975263,35.8031333 5.33448947,42.5549667 6.21980526,49.1906333 Z" id="Fill-1" fill="#231F20" mask="url(#mask-2)"></path>
                    </g>
                    <path d="M26.5711263,61.998575 C26.9107579,61.998575 27.1878632,62.117575 27.3967579,62.3456583 C27.6113368,62.585075 27.7832842,62.9222417 27.9054947,63.362825 L28.1030211,63.2976583 L27.8188105,61.760575 C27.7704947,61.828575 27.7250211,61.8724917 27.6696,61.8979917 C27.6184421,61.9277417 27.5488105,61.9319917 27.4564421,61.9319917 C27.3555474,61.9319917 27.2248105,61.9064917 27.0812842,61.8441583 C26.9306526,61.790325 26.7814421,61.760575 26.6237053,61.760575 C25.9870737,61.760575 25.4840211,62.0481583 25.1088632,62.6289917 C24.7408105,63.214075 24.5432842,63.9479083 24.5432842,64.8262417 C24.5432842,65.8759917 24.7237579,66.648075 25.0733368,67.136825 C25.4300211,67.6269917 25.9032316,67.8664083 26.4986526,67.8664083 C26.8851789,67.8664083 27.2248105,67.7091583 27.5061789,67.400325 C27.7989158,67.0801583 27.9964421,66.677825 28.0973368,66.1919083 L27.9054947,66.082825 C27.8244947,66.5347417 27.6568105,66.8846583 27.4180737,67.153825 C27.1622842,67.4187417 26.8780737,67.549075 26.5384421,67.549075 C26.0453368,67.549075 25.6929158,67.3096583 25.4740737,66.813825 C25.2651789,66.3279083 25.1571789,65.653575 25.1571789,64.795075 C25.1571789,64.0059917 25.2808105,63.3387417 25.5238105,62.8046583 C25.7739158,62.2691583 26.1206526,61.998575 26.5711263,61.998575" id="Fill-4" fill="#231F20"></path>
                    <path d="M16.9756105,62.5989583 L19.4255053,67.7967083 L19.5960316,67.7967083 L19.5960316,62.3170417 C19.5960316,62.2235417 19.6258737,62.1569583 19.6812947,62.1087917 C19.7381368,62.060625 19.7949789,62.0422083 19.8845053,62.0422083 L20.1445579,62.0422083 L20.1445579,61.8240417 L18.8613474,61.8240417 L18.8613474,62.0422083 L19.1185579,62.0422083 C19.2180316,62.0422083 19.3004526,62.060625 19.3388211,62.1087917 C19.3800316,62.1569583 19.4056105,62.2235417 19.4056105,62.3170417 L19.4056105,66.399875 L19.3388211,66.399875 L17.1816632,61.8240417 L16.1712947,61.8240417 L16.1712947,62.0422083 L16.3929789,62.0422083 C16.5194526,62.0422083 16.5961895,62.0549583 16.6459263,62.1087917 C16.6928211,62.1569583 16.7198211,62.2235417 16.7198211,62.3170417 L16.7198211,67.3037083 C16.7198211,67.4014583 16.6928211,67.4694583 16.6487684,67.5190417 C16.6075579,67.560125 16.5393474,67.5842083 16.4256632,67.5842083 L16.1712947,67.5842083 L16.1712947,67.7967083 L17.4530842,67.7967083 L17.4530842,67.5842083 L17.1958737,67.5842083 C17.1063474,67.5842083 17.0352947,67.560125 16.9898211,67.5190417 C16.9429263,67.4694583 16.9145053,67.4014583 16.9145053,67.3037083 L16.9145053,62.5947083 L16.9756105,62.5947083 L16.9756105,62.5989583 Z" id="Fill-6" fill="#231F20"></path>
                    <path d="M11.2601368,67.5836417 L10.5226105,67.5836417 C10.4359263,67.5836417 10.3677158,67.5638083 10.3122947,67.518475 C10.2554526,67.4688917 10.2355579,67.4008917 10.2355579,67.310225 L10.2355579,62.316475 C10.2355579,62.2243917 10.2554526,62.1578083 10.3122947,62.1096417 C10.3677158,62.061475 10.4359263,62.0430583 10.5226105,62.0430583 L11.2601368,62.0430583 L11.2601368,61.8291417 L8.70082105,61.8291417 L8.70082105,62.0430583 L9.43408421,62.0430583 C9.54776842,62.0430583 9.61882105,62.061475 9.65576842,62.1096417 C9.69555789,62.1578083 9.71687368,62.2243917 9.71687368,62.316475 L9.71687368,67.310225 C9.71687368,67.4008917 9.69555789,67.4688917 9.65576842,67.518475 C9.61882105,67.5638083 9.54776842,67.5836417 9.43408421,67.5836417 L8.70082105,67.5836417 L8.70082105,67.7961417 L11.2601368,67.7961417 L11.2601368,67.5836417 Z" id="Fill-8" fill="#231F20"></path>
                    <g id="Group-12" transform="translate(0.000000, 60.786617)">
                        <mask id="mask-4" fill="white">
                            <use xlink:href="#path-3"></use>
                        </mask>
                        <g id="Clip-11"></g>
                        <path d="M3.58801579,5.64598333 L3.42885789,5.58223333 C3.31943684,5.99448333 3.16027895,6.31181667 2.95138421,6.5059 C2.7297,6.7014 2.47675263,6.80056667 2.18685789,6.80056667 L1.31433158,6.80056667 C1.22480526,6.80056667 1.16227895,6.7779 1.10685789,6.72831667 C1.05143684,6.68581667 1.02585789,6.61498333 1.02585789,6.5229 L1.02585789,1.53056667 C1.02585789,1.44131667 1.05143684,1.37048333 1.10685789,1.32231667 C1.16227895,1.27556667 1.22480526,1.25006667 1.31433158,1.25006667 L1.53601579,1.25006667 L1.53601579,1.04181667 L-0.000142105263,1.04181667 L-0.000142105263,1.25006667 L0.205910526,1.25006667 C0.325278947,1.25006667 0.403436842,1.27556667 0.441805263,1.32231667 C0.494384211,1.37048333 0.510015789,1.44131667 0.510015789,1.53056667 L0.510015789,6.5229 C0.510015789,6.61498333 0.494384211,6.68581667 0.450331579,6.72831667 C0.416226316,6.7779 0.338068421,6.80056667 0.228647368,6.80056667 L-0.000142105263,6.80056667 L-0.000142105263,7.01448333 L3.29954211,7.01448333 L3.58801579,5.64598333 Z" id="Fill-10" fill="#231F20" mask="url(#mask-4)"></path>
                    </g>
                    <path d="M50.1802105,67.5836417 L49.923,67.5836417 C49.8434211,67.5836417 49.7652632,67.5638083 49.7183684,67.518475 C49.6657895,67.4688917 49.6331053,67.4008917 49.6331053,67.310225 L49.6331053,62.5983917 L49.6984737,62.5983917 L52.1497895,67.7961417 L52.3288421,67.7961417 L52.3288421,62.316475 C52.3288421,62.2243917 52.3487368,62.1578083 52.4084211,62.1096417 C52.4567368,62.061475 52.5334737,62.0430583 52.6187368,62.0430583 L52.8631579,62.0430583 L52.8631579,61.8291417 L51.5870526,61.8291417 L51.5870526,62.0430583 L51.8442632,62.0430583 C51.9451579,62.0430583 52.0233158,62.061475 52.0716316,62.1096417 C52.1071579,62.1578083 52.1242105,62.2243917 52.1242105,62.316475 L52.1242105,66.3993083 L52.0716316,66.3993083 L49.9173158,61.8291417 L48.9083684,61.8291417 L48.9083684,62.0430583 L49.1201053,62.0430583 C49.2366316,62.0430583 49.3218947,62.0558083 49.3673684,62.1096417 C49.4213684,62.1578083 49.4469474,62.2243917 49.4469474,62.316475 L49.4469474,67.310225 C49.4469474,67.4008917 49.4270526,67.4688917 49.3886842,67.518475 C49.3389474,67.5595583 49.2664737,67.5836417 49.1584737,67.5836417 L48.9083684,67.5836417 L48.9083684,67.7961417 L50.1802105,67.7961417 L50.1802105,67.5836417 Z" id="Fill-13" fill="#231F20"></path>
                    <path d="M44.496,66.4326 L44.3396842,66.36885 C44.2274211,66.7811 44.0711053,67.0984333 43.8565263,67.2925167 C43.6433684,67.4880167 43.3861579,67.5871833 43.092,67.5871833 L42.2194737,67.5871833 C42.1455789,67.5871833 42.0716842,67.5645167 42.0162632,67.5149333 C41.9594211,67.4724333 41.9352632,67.4016 41.9352632,67.3095167 L41.9352632,62.3171833 C41.9352632,62.2279333 41.9594211,62.1571 42.0162632,62.1089333 C42.0716842,62.0621833 42.1455789,62.0366833 42.2194737,62.0366833 L42.4468421,62.0366833 L42.4468421,61.8284333 L40.9121053,61.8284333 L40.9121053,62.0366833 L41.121,62.0366833 C41.2346842,62.0366833 41.3057368,62.0621833 41.3583158,62.1089333 C41.4066316,62.1571 41.4279474,62.2279333 41.4279474,62.3171833 L41.4279474,67.3095167 C41.4279474,67.4016 41.4066316,67.4724333 41.3583158,67.5149333 C41.3156842,67.5645167 41.2460526,67.5871833 41.1337895,67.5871833 L40.9021579,67.5871833 L40.9021579,67.8011 L44.2018421,67.8011 L44.496,66.4326 Z" id="Fill-15" fill="#231F20"></path>
                    <g id="Group-19" transform="translate(32.684211, 60.786617)">
                        <mask id="mask-6" fill="white">
                            <use xlink:href="#path-5"></use>
                        </mask>
                        <g id="Clip-18"></g>
                        <path d="M3.05924211,4.00789167 C3.05924211,5.056225 2.94555789,5.791475 2.73808421,6.22355833 C2.51497895,6.66130833 2.22934737,6.870975 1.87124211,6.870975 C1.53303158,6.870975 1.2474,6.64430833 1.02429474,6.18955833 C0.794084211,5.73480833 0.684663158,5.009475 0.684663158,4.00789167 C0.684663158,3.07289167 0.791242105,2.378725 1.00866316,1.915475 C1.22608421,1.44939167 1.51171579,1.21139167 1.87124211,1.21139167 C2.29187368,1.21139167 2.59597895,1.47205833 2.77929474,1.983475 C2.96261053,2.497725 3.05924211,3.173475 3.05924211,4.00789167 M1.87124211,0.967725 C1.33976842,0.967725 0.910610526,1.25105833 0.576663158,1.81205833 C0.239873684,2.365975 0.0764526316,3.10405833 0.0764526316,4.00789167 C0.0764526316,4.94005833 0.259768421,5.68239167 0.613610526,6.241975 C0.957505263,6.79730833 1.37813684,7.083475 1.87124211,7.083475 C2.37713684,7.083475 2.80487368,6.80580833 3.15587368,6.254725 C3.48555789,5.71639167 3.66887368,4.95989167 3.66887368,4.00789167 C3.66887368,3.173475 3.50118947,2.45380833 3.18997895,1.86164167 C2.86171579,1.26380833 2.42261053,0.967725 1.87124211,0.967725" id="Fill-17" fill="#231F20" mask="url(#mask-6)"></path>
                    </g>
                </g>
            </g>
        </g>
    </g>
</svg>