<?xml version="1.0" encoding="UTF-8"?>
<svg width="122px" height="80px" viewBox="0 0 122 80" version="1.1" xmlns="http://www.w3.org/2000/svg" xmlns:xlink="http://www.w3.org/1999/xlink">
    <!-- Generator: Sketch 49.2 (51160) - http://www.bohemiancoding.com/sketch -->
    <title>Rectangle 3 Copy 19</title>
    <desc>Created with Sketch.</desc>
    <defs>
        <polygon id="path-1" points="0.000210526316 1.99181818 39.0021053 1.99181818 39.0021053 67.8787879 0.000210526316 67.8787879"></polygon>
        <polygon id="path-3" points="0 68.0083939 39.0021053 68.0083939 39.0021053 2.12142424 0 2.12142424"></polygon>
    </defs>
    <g id="Ilustraciones" stroke="none" stroke-width="1" fill="none" fill-rule="evenodd">
        <g id="MASERATI" transform="translate(-39.000000, -60.000000)">
            <g id="Group" transform="translate(39.000000, 60.000000)">
                <rect id="Rectangle-3-Copy-19" x="0" y="0" width="122" height="80"></rect>
                <g id="Page-1" transform="translate(42.000000, 5.000000)">
                    <g id="Group-3" transform="translate(0.000000, 0.129606)">
                        <mask id="mask-2" fill="white">
                            <use xlink:href="#path-1"></use>
                        </mask>
                        <g id="Clip-2"></g>
                        <path d="M19.5033684,66.9051515 C14.6065263,66.9051515 9.98547368,63.6151515 6.47178947,57.639697 C2.92231579,51.5857576 0.972842105,43.5251515 0.972842105,34.9342424 C0.972842105,26.3475758 2.92231579,18.2890909 6.47178947,12.2351515 C9.98547368,6.25969697 14.6065263,2.96757576 19.5033684,2.96757576 C24.4107368,2.96757576 29.036,6.25969697 32.5370526,12.2351515 C36.0823158,18.2890909 38.036,26.3475758 38.036,34.9342424 C38.036,43.5251515 36.0823158,51.5857576 32.5370526,57.639697 C29.036,63.6151515 24.4107368,66.9051515 19.5033684,66.9051515 M19.5033684,1.99181818 C14.2465263,1.99181818 9.32021053,5.45575758 5.636,11.7366667 C2.00021053,17.9412121 0.000210526316,26.1842424 0.000210526316,34.9342424 C0.000210526316,43.6906061 2.00021053,51.9315152 5.636,58.1381818 C9.32021053,64.4190909 14.2465263,67.8787879 19.5033684,67.8787879 C24.7707368,67.8787879 29.6928421,64.4190909 33.3749474,58.1381818 C37.0086316,51.9315152 39.0023158,43.6906061 39.0023158,34.9342424 C39.0023158,26.1842424 37.0086316,17.9412121 33.3749474,11.7366667 C29.6928421,5.45575758 24.7707368,1.99181818 19.5033684,1.99181818" id="Fill-1" fill="#231F20" mask="url(#mask-2)"></path>
                    </g>
                    <polygon id="Fill-4" fill="#231F20" points="28.6008421 33.2113939 28.6008421 32.8804848 19.504 32.8804848 10.4113684 32.8804848 10.4113684 33.2113939 19.504 33.2113939"></polygon>
                    <polygon id="Fill-6" fill="#231F20" points="19.5033684 35.1563333 28.6002105 35.1563333 28.6002105 34.8169394 19.5033684 34.8169394 10.4065263 34.8169394 10.4065263 35.1563333"></polygon>
                    <polygon id="Fill-8" fill="#231F20" points="29.5661053 33.7665152 19.5029474 33.7665152 9.43557895 33.7665152 9.43557895 34.1101515 19.5029474 34.1101515 29.5661053 34.1101515"></polygon>
                    <path d="M27.3086316,37.5925455 C28.1928421,37.5925455 28.6012632,36.7801212 28.6012632,36.1331515 L29.4917895,36.1331515 L29.4917895,35.7237576 L19.5023158,35.7237576 L9.51915789,35.7237576 L9.51915789,36.1331515 L10.4054737,36.1331515 C10.4054737,36.7801212 10.8138947,37.5925455 11.6981053,37.5925455 C12.5823158,37.5925455 12.9128421,37.0240606 12.9128421,36.2116364 C13.8012632,36.2116364 17.0391579,36.2116364 17.0391579,40.1104242 L19.5023158,40.1104242 L21.9654737,40.1104242 C21.9654737,36.2116364 25.2012632,36.2116364 26.0938947,36.2116364 C26.0938947,37.0240606 26.416,37.5925455 27.3086316,37.5925455" id="Fill-10" fill="#231F20"></path>
                    <path d="M22.9151579,40.552697 L19.5025263,40.552697 L16.092,40.552697 C15.9993684,40.552697 15.9214737,40.6311818 15.9214737,40.7245152 L15.9214737,42.0863333 C15.9214737,42.1796667 15.9993684,42.2581515 16.092,42.2581515 L19.5025263,42.2581515 L22.9151579,42.2581515 C23.0035789,42.2581515 23.0814737,42.1796667 23.0814737,42.0863333 L23.0814737,40.7245152 C23.0814737,40.6311818 23.0035789,40.552697 22.9151579,40.552697" id="Fill-12" fill="#231F20"></path>
                    <path d="M18.5711579,27.1873636 L18.5711579,31.5252424 L16.5122105,31.5252424 C17.2027368,30.1443333 18.2785263,28.861 18.5711579,27.1873636 Z M20.4364211,27.1873636 C20.7290526,28.861 21.8069474,30.1443333 22.4974737,31.5252424 L20.4364211,31.5252424 L20.4364211,27.1873636 Z M9.44063158,31.5252424 L9.44063158,32.541303 L19.5037895,32.541303 L29.5732632,32.541303 L29.5732632,31.5252424 L28.6911579,31.5252424 C28.6911579,26.691 29.5732632,20.6773636 32.9122105,16.2334242 C30.748,16.7276667 28.0974737,19.0461515 27.0216842,20.4779697 C27.9016842,20.181 28.6911579,19.591303 29.4637895,19.2964545 C28.6911579,20.9743333 26.4216842,27.8958485 26.4216842,31.5252424 L24.268,31.5252424 C21.708,27.1873636 20.2385263,24.8200909 20.2385263,15.940697 C21.6069474,16.7276667 22.0995789,17.3216061 23.5774737,17.6143333 C21.9101053,15.940697 19.5037895,12.1925152 19.5037895,8.53978788 C19.5037895,12.1925152 17.0974737,15.940697 15.4343158,17.6143333 C16.9037895,17.3216061 17.3943158,16.7276667 18.7711579,15.940697 C18.7711579,24.8200909 17.3016842,27.1852424 14.7395789,31.5252424 L12.5816842,31.5252424 C12.5816842,27.8958485 10.3206316,20.9743333 9.53536842,19.2964545 C10.3206316,19.591303 11.1037895,20.181 11.9943158,20.4779697 C10.9143158,19.0461515 8.26378947,16.7276667 6.10168421,16.2334242 C9.44063158,20.6773636 10.3206316,26.691 10.3206316,31.5252424 L9.44063158,31.5252424 Z" id="Fill-14" fill="#231F20"></path>
                    <polygon id="Fill-16" fill="#231F20" points="26.0793684 52.2670909 27.0856842 52.2670909 26.5698947 50.3155758"></polygon>
                    <mask id="mask-4" fill="white">
                        <use xlink:href="#path-3"></use>
                    </mask>
                    <g id="Clip-19"></g>
                    <path d="M31.9852632,53.8768788 L32.7242105,53.8768788 L32.7242105,48.6077879 L31.9852632,48.6077879 L31.9852632,53.8768788 Z M31.1452632,49.4944545 L30.0589474,49.4944545 L30.0589474,53.879 L29.3115789,53.879 L29.3115789,49.4944545 L28.2315789,49.4944545 L28.2315789,48.6077879 L31.1452632,48.6077879 L31.1452632,49.4944545 Z M27.5368421,53.879 L27.3326316,53.0580909 L25.8526316,53.0580909 L25.6652632,53.879 L24.7536842,53.879 L26.1684211,48.6077879 L26.9642105,48.6077879 L28.4484211,53.879 L27.5368421,53.879 Z M23.9263158,53.879 L23.1810526,53.879 L22.6021053,52.7102121 C22.4505263,52.7208182 22.3073684,52.7271818 22.1684211,52.7271818 L22.1684211,53.879 L21.4315789,53.879 L21.4315789,48.6077879 L22.1684211,48.6077879 C23.2905263,48.6077879 24.4357895,48.9514242 24.4357895,50.548697 C24.4357895,51.7853636 23.9052632,52.3283939 23.2652632,52.5617273 L23.9263158,53.879 Z M20.4526316,53.879 L18.0463158,53.879 L18.0463158,48.6077879 L20.3831579,48.6077879 L20.3831579,49.4944545 L18.7915789,49.4944545 L18.7915789,50.6611212 L20.24,50.6611212 L20.24,51.5435455 L18.7915789,51.5435455 L18.7915789,52.9880909 L20.4526316,52.9880909 L20.4526316,53.879 Z M17.2463158,53.1917273 C17.1242105,53.4483939 16.9536842,53.6520303 16.7494737,53.779303 C16.5305263,53.908697 16.2589474,53.9702121 15.9536842,53.9702121 C15.48,53.9702121 15.1305263,53.8174848 14.3410526,53.219303 L14.8821053,52.5299091 C15.5515789,52.9838485 15.7305263,53.0623333 15.96,53.0623333 C16.1915789,53.0623333 16.3789474,52.9880909 16.4884211,52.8459697 C16.6105263,52.7017273 16.6673684,52.5341515 16.6673684,52.339 C16.6673684,52.2202121 16.64,52.1099091 16.5936842,52.0250606 C16.5452632,51.9380909 16.4505263,51.8574848 16.3347368,51.7938485 C16.2378947,51.7514242 16.0210526,51.6135455 15.7178947,51.4735455 C15.3031579,51.2550606 14.9936842,50.9899091 14.7873684,50.8180909 C14.5431579,50.6017273 14.2947368,50.2623333 14.2947368,49.848697 C14.2947368,49.5771818 14.3642105,49.3162727 14.4694737,49.0850606 C14.5747368,48.8517273 14.7389474,48.7117273 14.9347368,48.588697 C15.1368421,48.4614242 15.5178947,48.4338485 15.8,48.4338485 C16.2547368,48.4338485 16.7094737,48.6565758 17.1621053,49.1274848 L16.5768421,49.7468788 C16.2589474,49.4435455 16.0315789,49.3396061 15.8315789,49.3014242 C15.6568421,49.2674848 15.4189474,49.3056667 15.3031579,49.4350606 C15.2168421,49.5177879 15.1810526,49.6259697 15.1810526,49.7596061 C15.1810526,49.889 15.2168421,49.988697 15.2968421,50.0841515 C15.3873684,50.198697 15.6947368,50.4468788 16.0105263,50.6420303 C16.3810526,50.8583939 16.6715789,51.0217273 16.8421053,51.1468788 C17.2463158,51.4459697 17.2778947,51.6368788 17.3094737,51.7217273 C17.4105263,51.9550606 17.4273684,52.0717273 17.4273684,52.4132424 C17.4273684,52.7123333 17.3621053,52.9265758 17.2463158,53.1917273 Z M13.0505263,53.879 L12.8421053,53.0580909 L11.3684211,53.0580909 L11.1831579,53.879 L10.2736842,53.879 L11.6926316,48.6077879 L12.4778947,48.6077879 L13.9621053,53.879 L13.0505263,53.879 Z M9.70105263,53.879 L9.02105263,53.879 L9.01684211,49.7277879 L7.89894737,53.0262727 L6.85052632,49.7277879 L6.85052632,53.879 L6.16631579,53.879 L6.16631579,48.6077879 L7.27789474,48.6077879 L7.93473684,50.909303 L8.58736842,48.6077879 L9.70105263,48.6077879 L9.70105263,53.879 Z M22.1368421,45.7908182 L22.1368421,42.8105152 C22.1368421,42.7235455 22.0673684,42.6429394 21.9663158,42.6429394 L19.5031579,42.6429394 L17.0378947,42.6429394 C16.9326316,42.6429394 16.8589474,42.7235455 16.8589474,42.8105152 L16.8589474,45.7908182 L2.83368421,45.7929394 C5.31789474,57.7268788 11.8463158,66.2435455 19.5031579,66.2435455 C27.1663158,66.2435455 33.6926316,57.7247576 36.1810526,45.788697 L22.1368421,45.7908182 Z" id="Fill-18" fill="#231F20" mask="url(#mask-4)"></path>
                    <polygon id="Fill-20" fill="#231F20" mask="url(#mask-4)" points="11.5983158 52.2670909 12.6193684 52.2670909 12.0888421 50.3155758"></polygon>
                    <path d="M22.1688421,49.3979394 L22.1688421,51.954 C22.7772632,51.954 23.6151579,51.8288485 23.6151579,50.5900606 C23.6151579,49.5676364 22.8783158,49.3979394 22.1688421,49.3979394" id="Fill-21" fill="#231F20" mask="url(#mask-4)"></path>
                </g>
            </g>
        </g>
    </g>
</svg>