<?xml version="1.0" encoding="UTF-8"?>
<svg width="122px" height="80px" viewBox="0 0 122 80" version="1.1" xmlns="http://www.w3.org/2000/svg" xmlns:xlink="http://www.w3.org/1999/xlink">
    <!-- Generator: Sketch 49.2 (51160) - http://www.bohemiancoding.com/sketch -->
    <title>Rectangle 3 Copy 19</title>
    <desc>Created with Sketch.</desc>
    <defs>
        <polygon id="path-1" points="0 0.358540057 76.9184 0.358540057 76.9184 13.8176636 0 13.8176636"></polygon>
    </defs>
    <g id="Ilustraciones" stroke="none" stroke-width="1" fill="none" fill-rule="evenodd">
        <g id="LANDROVER-Copy-2" transform="translate(-39.000000, -60.000000)">
            <g id="Group" transform="translate(39.000000, 60.000000)">
                <rect id="Rectangle-3-Copy-19" x="0" y="0" width="122" height="80"></rect>
                <g id="Page-1" transform="translate(22.000000, 12.000000)">
                    <path d="M38.4177733,34.4179818 C29.3247067,34.4957091 20.7481733,31.8840727 20.7481733,18.8863455 C20.7481733,17.9173455 20.7481733,16.9466182 20.9007067,16.1227091 C20.9509733,15.9430727 20.9891067,15.7599818 21.0411067,15.5803455 C24.10564,16.6046182 27.16324,17.6340727 30.23124,18.6652545 C33.8313733,20.1610727 36.2407067,22.2528 38.4177733,26.9509818 C40.6017733,22.2528 42.9331067,19.8605273 46.6199067,18.3664364 C49.7139067,17.2678909 52.7957733,16.1693455 55.8811067,15.0742545 C55.90884,15.1485273 55.92444,15.2262545 55.9383067,15.3091636 C56.09604,16.3489818 56.1723067,17.6219818 56.1723067,18.8915273 C56.1723067,31.8840727 47.5229733,34.4957091 38.4177733,34.4179818 M23.0777733,9.47961818 C26.24284,4.63116364 32.2609733,3.43243636 38.4177733,3.43243636 C44.5953733,3.43243636 50.4575067,4.55516364 53.6919067,9.32934545 C53.7473733,9.44161818 53.82884,9.55043636 53.8877733,9.65752727 C48.41564,12.8512545 42.1825733,12.9669818 38.4177733,20.9780727 C34.3271067,13.2001636 28.1651067,13.1466182 22.7519067,10.0668909 C22.85244,9.86825455 22.9651067,9.67998182 23.0777733,9.47961818 M57.74964,6.26861818 C52.92924,1.11270909 45.04604,0.000345454545 38.4177733,0.000345454545 C31.7323067,0.000345454545 23.60644,1.11270909 18.8727067,6.56743636 C18.7825733,6.66416364 18.7201733,6.76434545 18.6387067,6.86798182 C16.31604,9.62470909 14.8825733,13.5853455 14.8825733,18.8863455 C14.8825733,35.2401636 28.2691067,37.8518 38.4177733,37.8518 C48.6531067,37.8518 62.0379067,35.2401636 62.0379067,18.8863455 C62.0379067,13.5853455 60.6079067,9.62470909 58.26964,6.86798182 C58.0945733,6.67107273 57.91604,6.46898182 57.74964,6.26861818" id="Fill-1" fill="#231F20"></path>
                    <polygon id="Fill-3" fill="#231F20" points="39.93444 47.1920273 44.7981733 43.1778455 34.57844 43.1778455 34.57844 47.1920273"></polygon>
                    <g id="Group-7" transform="translate(0.000000, 42.815809)">
                        <mask id="mask-2" fill="white">
                            <use xlink:href="#path-1"></use>
                        </mask>
                        <g id="Clip-6"></g>
                        <path d="M72.6544,10.1264818 L67.8513333,10.1264818 C67.8513333,10.1264818 66.8668,10.1817545 66.8668,9.20584545 C66.8668,8.3923 67.6832,8.3353 67.9570667,8.3353 L72.6544,8.3353 L72.6544,10.1264818 Z M56.7632,9.8553 L52.6656,9.8553 L52.6656,4.16048182 L56.8134667,4.16048182 C56.8134667,4.16048182 58.7738667,4.32111818 58.7738667,6.81875455 C58.7738667,9.31466364 57.8586667,9.8553 56.7632,9.8553 Z M29.7145333,10.1264818 L24.9045333,10.1264818 C24.9045333,10.1264818 23.9304,10.1817545 23.9304,9.20584545 C23.9304,8.3923 24.6896,8.3353 24.9617333,8.3353 L29.7145333,8.3353 L29.7145333,10.1264818 Z M72.878,0.362209091 L63.8577333,0.362209091 L63.8577333,3.99984545 L71.0129333,3.99984545 C73.0929333,3.99984545 72.7636,5.3523 72.7636,5.3523 L67.0297333,5.3523 C66.3208,5.3523 64.0796,5.24520909 62.9893333,6.97766364 L62.9893333,6.32993636 C62.9893333,0.199845455 58.3405333,0.362209091 58.3405333,0.362209091 L46.2176,0.362209091 L33.8710667,10.0729364 L33.8710667,4.10520909 C33.8710667,0.199845455 29.8254667,0.362209091 29.8254667,0.362209091 L20.8156,0.362209091 L20.8156,3.99984545 L27.9690667,3.99984545 C30.0490667,3.99984545 29.7734667,5.3523 29.7734667,5.3523 L24.0378667,5.3523 C23.3306667,5.3523 21.1449333,5.24520909 20.0494667,6.92411818 L20.0494667,5.41102727 C20.0494667,0.0409363636 15.1805333,0.362209091 15.1805333,0.362209091 L0,0.362209091 L0,13.8176636 L4.5916,13.8176636 L4.5916,4.37639091 L7.81386667,4.37639091 L7.81386667,13.8142091 L12.1888,13.8142091 L12.1888,4.37639091 L13.6569333,4.37639091 C15.7906667,4.37639091 15.5116,6.11057273 15.5116,6.11057273 L15.5116,13.8142091 L20.0494667,13.8142091 L20.0494667,12.0247545 C21.1449333,13.8142091 23.3306667,13.8142091 23.3306667,13.8142091 L35.8938667,13.8142091 L48.2889333,3.89102727 L48.2889333,13.7641182 L58.0164,13.7641182 C59.8762667,13.7641182 61.62,12.8417545 62.4433333,10.3458455 C62.9356,13.7641182 66.3728,13.8176636 66.3728,13.8176636 L76.9184,13.8176636 L76.9184,4.10520909 C76.9184,0.199845455 72.878,0.362209091 72.878,0.362209091 Z" id="Fill-5" fill="#231F20" mask="url(#mask-2)"></path>
                    </g>
                    <polygon id="Fill-8" fill="#231F20" points="37.3158933 56.6322636 47.5304267 56.6322636 47.5304267 52.6733545 42.17096 52.6733545"></polygon>
                </g>
            </g>
        </g>
    </g>
</svg>