<?xml version="1.0" encoding="UTF-8"?>
<svg width="122px" height="80px" viewBox="0 0 122 80" version="1.1" xmlns="http://www.w3.org/2000/svg" xmlns:xlink="http://www.w3.org/1999/xlink">
    <!-- Generator: Sketch 49.2 (51160) - http://www.bohemiancoding.com/sketch -->
    <title>Rectangle 3 Copy 19</title>
    <desc>Created with Sketch.</desc>
    <defs>
        <polygon id="path-1" points="0.000903287891 0 63.4559743 0 63.4559743 62.533125 0.000903287891 62.533125"></polygon>
    </defs>
    <g id="Ilustraciones" stroke="none" stroke-width="1" fill="none" fill-rule="evenodd">
        <g id="MERCEDES" transform="translate(-39.000000, -60.000000)">
            <g id="Group" transform="translate(39.000000, 60.000000)">
                <rect id="Rectangle-3-Copy-19" x="0" y="0" width="122" height="80"></rect>
                <g id="Page-1" transform="translate(29.000000, 9.000000)">
                    <mask id="mask-2" fill="white">
                        <use xlink:href="#path-1"></use>
                    </mask>
                    <g id="Clip-2"></g>
                    <path d="M62.104204,25.963875 C62.0341992,25.878375 61.9890348,25.754625 61.9325793,25.603875 C59.6133877,18.482625 57.6397036,15.683625 53.8278287,11.521125 C48.8123227,6.033375 40.624018,1.798875 31.9118063,1.787625 C15.2574358,1.787625 1.74876536,15.256125 1.74876536,31.845375 C1.74876536,36.784125 2.82593617,41.038875 3.69083432,43.180875 C4.71380786,45.662625 6.46844459,49.003875 6.55651516,49.156875 C6.63555285,49.330125 6.64684395,49.402125 6.65136038,49.552875 C6.5271583,49.458375 6.47521925,49.381875 6.3668247,49.222125 C5.86098348,48.493125 3.79245421,44.778375 3.14660337,43.158375 C1.74876536,39.625875 0.709984282,35.776125 0.709984282,31.732875 C0.709984282,14.630625 14.6048103,0.754875 31.7808295,0.754875 C47.1186579,0.754875 59.493702,11.374875 62.104204,25.592625 C62.1132369,25.725375 62.1538848,25.842375 62.104204,25.963875 Z M5.7029081,46.261125 C4.65057771,44.092125 3.54405004,41.038875 3.08563144,38.622375 C3.07885678,38.480625 3.05627458,38.368125 3.09918075,38.242125 C3.18047666,38.338875 3.21434996,38.446875 3.27758011,38.613375 C4.00021043,40.831875 4.62122085,42.820875 6.26520481,45.817875 L5.7029081,46.261125 Z M6.27875413,45.984375 L28.5018945,30.061125 L26.6004735,28.983375 L6.80491933,45.385875 C4.57831468,41.367375 3.03369238,36.214875 3.03369238,31.312125 C3.03369238,15.780375 15.4380933,3.209625 31.1553026,3.112875 L27.1017982,28.227375 L28.9941864,29.323125 L31.5414582,3.112875 C31.5866226,2.784375 31.8056699,2.784375 31.8056699,3.112875 L31.9614871,30.751875 L36.4734101,28.110375 L32.155694,3.108375 C47.5974005,3.522375 60.3992481,15.926625 60.3992481,31.262625 C60.3992481,36.205875 58.8907573,41.367375 56.6167301,45.412875 L36.8392417,28.994625 L34.9333043,30.079125 L56.1967012,45.442125 C56.7093171,45.802125 56.5512417,45.968625 56.0024943,45.667125 L32.1263371,31.946625 L32.1263371,37.087875 L56.061208,46.198125 C51.0479602,54.347625 41.9924991,59.563125 31.6363034,59.563125 C21.2597838,59.563125 12.3533652,54.354375 7.33334274,46.189125 L31.313378,37.072125 L31.313378,31.930875 L6.48651034,46.220625 C5.88808212,46.542375 5.7367814,46.366875 6.27875413,45.984375 Z M31.7175994,61.345125 C19.7987156,61.345125 10.4474277,55.171125 5.99421844,46.684125 L6.6762008,46.432125 C7.83015108,48.317625 9.34541652,49.969125 11.3778143,52.203375 C13.88218,54.948375 21.7994983,60.238125 31.7063083,60.238125 C42.2567108,60.240375 51.5244446,54.788625 56.7251246,46.459125 C57.1248295,46.348875 57.2558063,46.173375 57.1180549,45.826875 C59.5004767,41.646375 61.117362,36.394875 61.117362,31.262625 C61.117362,28.027125 60.6431358,25.401375 59.8866322,23.050125 C59.3243355,21.279375 58.5339586,19.517625 58.1861928,18.822375 C58.0845729,18.655875 58.0777982,18.568125 58.0732818,18.417375 C58.1974839,18.520875 58.260714,18.590625 58.3578175,18.759375 C58.8184943,19.600875 59.8459843,21.650625 60.3292433,22.984875 C60.9818688,24.773625 62.1538848,27.239625 62.1538848,31.262625 C62.1538848,47.716875 48.6339233,61.354125 31.7175994,61.345125 Z M31.7175994,-0.001125 C14.2073636,-0.007875 0.000903287891,13.993875 0.000903287891,31.262625 C0.000903287891,48.526875 14.1960725,62.528625 31.7175994,62.533125 C49.2459009,62.533125 63.4568776,48.535875 63.4568776,31.262625 C63.4568776,14.005125 49.2504173,-0.001125 31.7175994,-0.001125 Z" id="Fill-1" fill="#231F20" mask="url(#mask-2)"></path>
                </g>
            </g>
        </g>
    </g>
</svg>