<?xml version="1.0" encoding="UTF-8"?>
<svg width="122px" height="80px" viewBox="0 0 122 80" version="1.1" xmlns="http://www.w3.org/2000/svg" xmlns:xlink="http://www.w3.org/1999/xlink">
    <!-- Generator: Sketch 49.2 (51160) - http://www.bohemiancoding.com/sketch -->
    <title>Rectangle 3 Copy 19</title>
    <desc>Created with Sketch.</desc>
    <defs>
        <polygon id="path-1" points="0 0.911272727 89.4021429 0.911272727 89.4021429 38.1818182 0 38.1818182"></polygon>
    </defs>
    <g id="Ilustraciones" stroke="none" stroke-width="1" fill="none" fill-rule="evenodd">
        <g id="MINI" transform="translate(-39.000000, -60.000000)">
            <g id="Group" transform="translate(39.000000, 60.000000)">
                <rect id="Rectangle-3-Copy-19" x="0" y="0" width="122" height="80"></rect>
                <g id="Page-1" transform="translate(16.000000, 20.000000)">
                    <path d="M44.7560816,6.18072727 C52.722,6.18072727 59.1707755,12.5716364 59.1707755,20.4516364 C59.1707755,28.3243636 52.722,34.7116364 44.7560816,34.7116364 C36.7956735,34.7116364 30.3450612,28.3243636 30.3450612,20.4516364 C30.3450612,12.5716364 36.7956735,6.18072727 44.7560816,6.18072727 M44.7560816,35.8589091 C53.3538367,35.8589091 60.3260816,28.9589091 60.3260816,20.4516364 C60.3260816,11.9352727 53.3538367,5.03345455 44.7560816,5.03345455 C36.1546531,5.03345455 29.1842449,11.9352727 29.1842449,20.4516364 C29.1842449,28.9589091 36.1546531,35.8589091 44.7560816,35.8589091" id="Fill-1" fill="#231F20"></path>
                    <g id="Group-5" transform="translate(0.000000, 0.907273)">
                        <mask id="mask-2" fill="white">
                            <use xlink:href="#path-1"></use>
                        </mask>
                        <g id="Clip-4"></g>
                        <path d="M26.9752041,13.4003636 C26.6372449,14.3458182 26.3837755,15.3276364 26.2037755,16.3403636 L5.63602041,16.3403636 C4.64785714,15.2567273 3.7827551,14.2658182 3.05908163,13.4003636 L26.9752041,13.4003636 Z M28.4133673,28.8058182 L19.4280612,28.8058182 C18.1607143,27.8712727 16.8988776,26.8858182 15.6443878,25.864 L27.0413265,25.864 C27.4086735,26.8821818 27.8715306,27.8658182 28.4133673,28.8058182 Z M44.7566327,3.40945455 C53.7566327,3.40945455 61.0503061,10.6330909 61.0503061,19.544 C61.0503061,28.444 53.7566327,35.6676364 44.7566327,35.6676364 C35.7584694,35.6676364 28.4592857,28.444 28.4592857,19.544 C28.4592857,10.6330909 35.7584694,3.40945455 44.7566327,3.40945455 Z M62.4756122,25.864 L73.7641837,25.864 C72.5170408,26.8858182 71.2533673,27.8712727 69.9823469,28.8058182 L61.1017347,28.8058182 C61.6417347,27.8658182 62.0990816,26.8821818 62.4756122,25.864 Z M86.3531633,13.4003636 C85.6276531,14.2585455 84.762551,15.2567273 83.772551,16.3403636 L63.3076531,16.3403636 C63.1313265,15.3276364 62.8741837,14.3458182 62.539898,13.4003636 L86.3531633,13.4003636 Z M77.5496939,22.5694545 L63.3352041,22.5694545 C63.4968367,21.6185455 63.5794898,20.6330909 63.585,19.6385455 L80.6207143,19.6385455 C79.6105102,20.6367273 78.5856122,21.6185455 77.5496939,22.5694545 Z M11.8588776,22.5694545 C10.8229592,21.6185455 9.79622449,20.6367273 8.78969388,19.6385455 L25.9319388,19.6385455 C25.9356122,20.6330909 26.0145918,21.6185455 26.1743878,22.5694545 L11.8588776,22.5694545 Z M2.4272449,13.4003636 C3.13622449,14.2494545 3.99030612,15.2458182 4.98397959,16.3403636 L4.97846939,16.3403636 C5.90418367,17.3621818 6.94928571,18.4694545 8.10642857,19.6385455 L8.11010204,19.6385455 C9.05234694,20.5749091 10.0643878,21.5676364 11.1535714,22.5694545 L11.142551,22.5694545 C12.3143878,23.6494545 13.5596939,24.7512727 14.8858163,25.864 L14.8968367,25.864 C16.0741837,26.8512727 17.3231633,27.8330909 18.6180612,28.8058182 C20.0727551,29.8912727 21.6045918,30.9512727 23.202551,31.9749091 L23.2080612,31.9749091 L28.2278571,31.9749091 L30.7405102,31.9749091 C34.1843878,35.784 39.1876531,38.1821818 44.7566327,38.1821818 C50.3219388,38.1821818 55.3288776,35.784 58.7727551,31.9749091 L66.1968367,31.9749091 L66.2005102,31.9749091 C80.3947959,22.8785455 89.4021429,10.3367273 89.4021429,10.3367273 L89.3966327,10.3367273 L61.1347959,10.3367273 C57.8947959,4.69854545 51.7729592,0.911272727 44.7566327,0.911272727 C37.7384694,0.911272727 31.6166327,4.69854545 28.3821429,10.3367273 L27.2396939,10.3367273 L0.00826530612,10.3367273 L-0.000918367347,10.3367273 C-0.000918367347,10.3367273 0.842142857,11.5076364 2.42357143,13.4003636 L2.4272449,13.4003636 Z" id="Fill-3" fill="#231F20" mask="url(#mask-2)"></path>
                    </g>
                    <path d="M43.774898,24.4832727 L43.774898,16.4996364" id="Stroke-6" stroke="#020303" stroke-width="2.03693878"></path>
                    <polygon id="Fill-8" fill="#231F20" points="37.0125918 24.4832727 39.0385102 19.7923636 39.0385102 24.4832727 41.0203469 24.4832727 41.0203469 16.4996364 39.0825918 16.4996364 39.0385102 16.4996364 38.8364694 16.4996364 36.5534082 21.7632727 34.4540204 16.4996364 32.2315714 16.4996364 32.2315714 24.4832727 33.9232041 24.4832727 33.9232041 19.6778182 35.8517755 24.4832727"></polygon>
                    <polygon id="Fill-10" fill="#231F20" points="48.185449 19.6698182 51.930551 24.4825455 53.4495306 24.4825455 53.4495306 16.5007273 51.7413673 16.5007273 51.7413673 21.3534545 51.7413673 21.3570909 47.9687143 16.5007273 46.4993265 16.5007273 46.4993265 24.4825455 48.185449 24.4825455"></polygon>
                    <path d="M56.2051837,24.4832727 L56.2051837,16.4996364" id="Stroke-12" stroke="#020303" stroke-width="2.03693878"></path>
                </g>
            </g>
        </g>
    </g>
</svg>