<?xml version="1.0" encoding="UTF-8"?>
<svg width="122px" height="80px" viewBox="0 0 122 80" version="1.1" xmlns="http://www.w3.org/2000/svg" xmlns:xlink="http://www.w3.org/1999/xlink">
    <!-- Generator: Sketch 49.2 (51160) - http://www.bohemiancoding.com/sketch -->
    <title>Rectangle 3 Copy 19</title>
    <desc>Created with Sketch.</desc>
    <defs>
        <polygon id="path-1" points="0.79670303 0.739666667 6.37827879 0.739666667 6.37827879 9.72222222 0.79670303 9.72222222"></polygon>
    </defs>
    <g id="Ilustraciones" stroke="none" stroke-width="1" fill="none" fill-rule="evenodd">
        <g id="MITSUBISHI" transform="translate(-39.000000, -60.000000)">
            <g id="Group" transform="translate(39.000000, 60.000000)">
                <rect id="Rectangle-3-Copy-19" x="0" y="0" width="122" height="80"></rect>
                <g id="Page-1" transform="translate(29.000000, 5.000000)">
                    <polygon id="Fill-1" fill="#231F20" points="31.2576 -0.000194444444 20.8411152 18.1045278 31.2576 36.12175 41.7516606 18.1045278"></polygon>
                    <polygon id="Fill-2" fill="#231F20" points="31.2576 36.1215556 41.7516606 54.1582222 62.5904485 54.1582222 52.1778424 36.1215556"></polygon>
                    <polygon id="Fill-3" fill="#231F20" points="10.4238545 36.1215556 -0.000387878788 54.1582222 20.8403394 54.1582222 31.2568242 36.1215556"></polygon>
                    <polygon id="Fill-4" fill="#231F20" points="9.49701818 59.3790556 7.70695758 63.3321111 6.01386667 59.3790556 4.30138182 59.3790556 4.30138182 68.061 5.84901818 68.061 5.84901818 62.4007222 7.70695758 66.5112778 9.65410909 62.4007222 9.65410909 68.061 11.2017455 68.061 11.2017455 59.3790556"></polygon>
                    <path d="M13.3711515,68.0575 L13.3711515,59.3794444" id="Stroke-5" stroke="#020303" stroke-width="1.07636364"></path>
                    <polygon id="Fill-7" fill="#231F20" points="14.8538182 59.3790556 14.8538182 60.7032222 16.7117576 60.7032222 16.7117576 68.061 18.2593939 68.061 18.2593939 60.7032222 20.1192727 60.7032222 20.1192727 59.3790556"></polygon>
                    <g id="Group-23" transform="translate(19.393939, 58.566083)">
                        <g id="Group-10">
                            <mask id="mask-2" fill="white">
                                <use xlink:href="#path-1"></use>
                            </mask>
                            <g id="Clip-9"></g>
                            <path d="M4.1344,4.45744444 C2.90094545,3.83522222 2.42385455,3.52605556 2.42385455,2.90966667 C2.42385455,2.35744444 2.81173333,2.05411111 3.50797576,2.05411111 C4.28955152,2.05411111 4.67161212,2.75216667 4.67161212,3.45605556 L6.23088485,3.45605556 C6.15524848,1.98216667 5.45512727,0.739666667 3.50797576,0.739666667 C1.72955152,0.739666667 0.878157576,1.67105556 0.878157576,2.98744444 C0.878157576,4.22411111 1.65779394,4.92411111 2.81173333,5.61827778 C4.45052121,6.54966667 4.82870303,6.78494444 4.82870303,7.31966667 C4.82870303,7.94577778 4.36906667,8.32688889 3.5894303,8.32688889 C2.65658182,8.32688889 2.27452121,7.55688889 2.27452121,6.78494444 L0.79670303,6.78494444 C0.878157576,8.40855556 1.58021818,9.723 3.5894303,9.723 C5.06530909,9.723 6.37827879,8.87327778 6.37827879,7.24966667 C6.37827879,5.84966667 5.53076364,5.23522222 4.1344,4.45744444" id="Fill-8" fill="#231F20" mask="url(#mask-2)"></path>
                        </g>
                        <path d="M11.3654303,6.78455556 C11.3654303,7.71594444 10.9096727,8.25066667 10.0679758,8.25066667 C9.04397576,8.25066667 8.57464242,7.71594444 8.57464242,6.78455556 L8.57464242,0.817055556 L7.03476364,0.817055556 L7.03476364,6.78455556 C7.03476364,9.09844444 8.65803636,9.64872222 10.0679758,9.64872222 C11.3654303,9.64872222 12.9188848,9.03233333 12.9188848,6.78455556 L12.9188848,0.817055556 L11.3654303,0.817055556 L11.3654303,6.78455556 Z" id="Fill-11" fill="#231F20"></path>
                        <path d="M16.7197091,8.17541667 L15.4746182,8.17541667 L15.4746182,2.13791667 L16.6460121,2.13791667 C17.3480727,2.13791667 17.8872242,2.44319444 17.8872242,3.22097222 C17.8872242,3.99875 17.4198303,4.30402778 16.6460121,4.30402778 L16.0312242,4.30402778 L16.0312242,5.69430556 L16.6460121,5.69430556 C17.5691636,5.69430556 18.1160727,6.01125 18.1160727,6.85708333 C18.1160727,7.79041667 17.5691636,8.17541667 16.7197091,8.17541667 M18.1955879,4.92430556 C18.5795879,4.83875 19.4387394,4.14652778 19.4387394,2.98763889 C19.4387394,1.59347222 18.4186182,0.815694444 16.803103,0.815694444 L13.9347394,0.815694444 L13.9347394,9.49569444 L17.1075879,9.49569444 C18.6629818,9.49569444 19.7509818,8.48458333 19.7509818,7.08847222 C19.7509818,5.69430556 18.7347394,5.07986111 18.1955879,4.92430556" id="Fill-13" fill="#231F20"></path>
                        <polygon id="Fill-15" fill="#231F20" points="34.2442667 4.22294444 31.139297 4.22294444 31.139297 0.816277778 29.5160242 0.816277778 29.5160242 9.49433333 31.139297 9.49433333 31.139297 5.69488889 34.3160242 5.69488889 34.3160242 9.49433333 35.8597818 9.49433333 35.8597818 0.816277778 34.2442667 0.816277778"></polygon>
                        <path d="M21.3767758,9.49141667 L21.3767758,0.813361111" id="Stroke-17" stroke="#020303" stroke-width="1.07830303"></path>
                        <path d="M38.1249939,9.49141667 L38.1249939,0.813361111" id="Stroke-19" stroke="#020303" stroke-width="1.07442424"></path>
                        <path d="M26.5037576,4.37772222 C25.2509091,3.68355556 24.7912727,3.3705 24.7912727,2.828 C24.7912727,2.2855 25.2509091,1.98022222 25.865697,1.98022222 C26.6472727,1.98022222 27.0351515,2.59466667 27.1127273,3.3705 L28.5789091,3.3705 C28.4993939,1.90244444 27.8186667,0.658 25.865697,0.658 C24.0872727,0.658 23.2378182,1.59327778 23.2378182,2.91161111 C23.2378182,4.14633333 24.009697,4.83855556 25.1713939,5.4705 C26.806303,6.39411111 27.1806061,6.70133333 27.1806061,7.24772222 C27.1806061,7.86411111 26.7267879,8.25105556 25.9529697,8.25105556 C25.0201212,8.25105556 24.6322424,7.39938889 24.6322424,6.62161111 L23.1544242,6.62161111 C23.2378182,8.32688889 23.9340606,9.57133333 25.9529697,9.57133333 C27.4210909,9.57133333 28.745697,8.71383333 28.745697,7.17188889 C28.7340606,5.69411111 27.894303,5.1555 26.5037576,4.37772222" id="Fill-21" fill="#231F20"></path>
                    </g>
                </g>
            </g>
        </g>
    </g>
</svg>