<?xml version="1.0" encoding="UTF-8"?>
<svg width="122px" height="80px" viewBox="0 0 122 80" version="1.1" xmlns="http://www.w3.org/2000/svg" xmlns:xlink="http://www.w3.org/1999/xlink">
    <!-- Generator: Sketch 49.2 (51160) - http://www.bohemiancoding.com/sketch -->
    <title>Rectangle 3 Copy 19</title>
    <desc>Created with Sketch.</desc>
    <defs></defs>
    <g id="Ilustraciones" stroke="none" stroke-width="1" fill="none" fill-rule="evenodd">
        <g id="NISSAN" transform="translate(-39.000000, -60.000000)">
            <g id="Group" transform="translate(39.000000, 60.000000)">
                <rect id="Rectangle-3-Copy-19" x="0" y="0" width="122" height="80"></rect>
                <g id="Group-24" transform="translate(22.000000, 14.000000)">
                    <ellipse id="Oval-4" stroke="#231F20" stroke-width="4.43181818" fill="#FFFFFF" cx="39" cy="26" rx="25.7045455" ry="25.559322"></ellipse>
                    <g id="Nissan">
                        <path d="M76.5778295,35.9923729 C75.8869091,36.7194915 74.9260909,37.1566441 73.8673295,37.1566441 L62.2705909,37.1566441 C60.36225,41.6083729 57.0685227,45.2911186 52.9393977,47.8695254 C48.7508864,50.4858305 43.6977273,51.9691525 38.3573864,51.9691525 C33.0090682,51.9691525 28.0605,50.4862712 23.946,47.9171186 C19.7761023,45.3122712 16.4602159,41.5889831 14.4486136,37.1566441 L3.81136364,37.1566441 C2.75304545,37.1566441 1.79222727,36.7194915 1.10086364,35.9923729 C0.429886364,35.2859661 0.0137386364,34.3054576 0.0137386364,33.1887797 L0.0137386364,21.5967458 C0.0137386364,20.4752203 0.434761364,19.4471186 1.11194318,18.7006102 C1.80020455,17.9417627 2.75526136,17.4675932 3.81136364,17.4675932 L13.3796591,17.4675932 C15.4750227,12.2997627 18.9265227,7.94718644 23.2776818,4.88976271 C27.6164318,1.84115254 32.84775,0.0793220339 38.5178182,0.0793220339 C44.1573068,0.0793220339 49.4311705,1.83189831 53.8124659,4.91091525 C58.1312727,7.94542373 61.5818864,12.2675932 63.6599659,17.4675932 L73.8673295,17.4675932 C74.9234318,17.4675932 75.8784886,17.9417627 76.56675,18.7006102 C77.2439318,19.4471186 77.6649545,20.4752203 77.6649545,21.5967458 L77.6649545,33.1887797 C77.6649545,34.3054576 77.24925,35.2859661 76.5778295,35.9923729 Z M14.6436136,17.4675932 L62.3955682,17.4675932 C60.3870682,12.6769831 57.1571591,8.69281356 53.1459205,5.87379661 C48.9560795,2.92962712 43.9122273,1.25328814 38.5178182,1.25328814 C33.0954886,1.25328814 28.0928523,2.93755932 23.9442273,5.85308475 C19.9015227,8.69369492 16.667625,12.7056271 14.6436136,17.4675932 Z M52.3185,46.8700678 C56.0571818,44.5353559 59.0730341,41.2597966 60.9171136,37.3179322 L15.8189318,37.3179322 C17.7543068,41.2487797 20.7927614,44.5600339 24.5668977,46.9172203 C28.5045682,49.3762034 33.2399659,50.7951864 38.3573864,50.7951864 C43.470375,50.7951864 48.3081477,49.3748814 52.3185,46.8700678 Z" id="Fill-8" fill="#231F20"></path>
                        <path d="M73.8673295,35.982678 C74.5928182,35.982678 75.2527159,35.6812542 75.7286932,35.1806441 C76.2024545,34.6817966 76.4962841,33.9855254 76.4962841,33.1887797 L76.4962841,21.5967458 C76.4962841,20.7823729 76.1904886,20.0358644 75.6994432,19.4938305 C75.2234659,18.9694237 74.5746477,18.6415593 73.8673295,18.6415593 L3.81136364,18.6415593 C3.10404545,18.6415593 2.45522727,18.9694237 1.97969318,19.4938305 C1.48820455,20.0358644 1.18285227,20.7823729 1.18285227,21.5967458 L1.18285227,33.1887797 C1.18285227,33.9855254 1.47623864,34.6817966 1.95,35.1806441 C2.42597727,35.6812542 3.08631818,35.982678 3.81136364,35.982678 L73.8673295,35.982678 Z" id="Path" fill="#FFFFFF"></path>
                        <polyline id="Fill-2" fill="#231F20" points="4.77572727 22.0797288 4.77572727 32.0615254 7.82880682 32.0615254 7.82880682 25.4606102 11.5245 32.0615254 16.1841136 32.0615254 16.1841136 22.0797288 13.6132159 22.0797288 13.6132159 29.1636271 9.91752273 22.0797288 4.77572727 22.0797288"></polyline>
                        <polygon id="Fill-3" fill="#231F20" points="18.4337045 32.0615254 21.9685227 32.0615254 21.9685227 22.0797288 18.4337045 22.0797288"></polygon>
                        <path d="M54.7466932,22.0797288 L50.7296932,22.0797288 L46.2305114,32.0615254 L49.4444659,32.0615254 L50.2475114,30.2908814 L55.3893068,30.2908814 L56.3532273,32.0615254 L59.5667386,32.0615254 L54.7466932,22.0797288 Z M51.3723068,27.714678 L52.8184091,24.8167797 L54.2645114,27.714678 L51.3723068,27.714678 Z" id="Fill-4" fill="#231F20"></path>
                        <polyline id="Fill-5" fill="#231F20" points="60.3702273 22.0797288 60.3702273 32.0615254 63.4233068 32.0615254 63.4233068 25.2997627 67.2794318 32.0615254 72.0994773 32.0615254 72.0994773 22.0797288 69.0468409 22.0797288 69.0468409 29.0027797 65.6724545 22.0797288 60.3702273 22.0797288"></polyline>
                        <path d="M24.0572386,29.6470508 L24.0572386,32.0615254 L32.7338523,32.0615254 C34.6616932,31.2564068 34.5012614,29.1636271 34.5012614,29.1636271 L34.5012614,28.6806441 C34.5012614,26.7487119 32.5729773,26.1048814 32.5729773,26.1048814 L27.1103182,26.1048814 L27.1103182,24.6559322 L33.6977727,24.6559322 L33.6977727,22.0797288 L26.4672614,22.0797288 C23.7359318,22.7235593 23.8963636,25.2997627 23.8963636,25.2997627 L23.8963636,25.7827458 C24.2181136,28.197661 26.1459545,28.3589492 26.1459545,28.3589492 L31.6090568,28.3589492 L31.6090568,29.6470508 L24.0572386,29.6470508" id="Fill-6" fill="#231F20"></path>
                        <path d="M35.6260568,29.6470508 L35.6260568,32.0615254 L44.3026705,32.0615254 C46.2305114,31.2564068 46.0700795,29.1636271 46.0700795,29.1636271 L46.0700795,28.6806441 C46.0700795,26.7487119 44.1417955,26.1048814 44.1417955,26.1048814 L38.6786932,26.1048814 L38.6786932,24.6559322 L45.2665909,24.6559322 L45.2665909,22.0797288 L38.0360795,22.0797288 C35.3043068,22.7235593 35.4651818,25.2997627 35.4651818,25.2997627 L35.4651818,25.7827458 C35.7864886,28.197661 37.7147727,28.3589492 37.7147727,28.3589492 L43.1774318,28.3589492 L43.1774318,29.6470508 L35.6260568,29.6470508" id="Fill-7" fill="#231F20"></path>
                    </g>
                </g>
            </g>
        </g>
    </g>
</svg>