<?xml version="1.0" encoding="UTF-8"?>
<svg width="122px" height="80px" viewBox="0 0 122 80" version="1.1" xmlns="http://www.w3.org/2000/svg" xmlns:xlink="http://www.w3.org/1999/xlink">
    <!-- Generator: Sketch 49.2 (51160) - http://www.bohemiancoding.com/sketch -->
    <title>Rectangle 3 Copy 19</title>
    <desc>Created with Sketch.</desc>
    <defs>
        <polygon id="path-1" points="0.000292862676 0 62.9656216 0 62.9656216 56.5162153 0.000292862676 56.5162153"></polygon>
    </defs>
    <g id="Ilustraciones" stroke="none" stroke-width="1" fill="none" fill-rule="evenodd">
        <g id="OPEL" transform="translate(-39.000000, -60.000000)">
            <g id="Group" transform="translate(39.000000, 60.000000)">
                <rect id="Rectangle-3-Copy-19" x="0" y="0" width="122" height="80"></rect>
                <g id="Page-1" transform="translate(30.000000, 11.000000)">
                    <mask id="mask-2" fill="white">
                        <use xlink:href="#path-1"></use>
                    </mask>
                    <g id="Clip-2"></g>
                    <path d="M11.4025514,18.2536455 L5.48514595,18.0014636 L5.48514595,14.5641909 L11.9335784,14.4985545 C13.9660108,6.17828182 21.4834162,-0.000172727273 30.4416865,-0.000172727273 C40.9619027,-0.000172727273 49.4929297,8.52046364 49.4929297,19.0257364 C49.4929297,19.3159182 49.4912,19.6043727 49.472173,19.8911 L55.3480649,20.1450091 L55.3480649,23.5201 L48.9463351,23.5874636 C46.8966054,31.8921909 39.3878486,38.0533727 30.4416865,38.0533727 C19.9197405,38.0533727 11.3869838,29.5327364 11.3869838,19.0257364 C11.3869838,18.7666455 11.3939027,18.5092818 11.4025514,18.2536455 Z M29.2550919,52.4640091 L22.6181189,52.4640091 C22.5385514,52.4640091 22.4693622,52.5296455 22.4693622,52.6091 L22.4693622,56.0308273 C22.4693622,56.1672818 22.3621189,56.2761 22.2254703,56.2761 L18.214227,56.2761 C18.0775784,56.2761 17.9668757,56.1672818 17.9668757,56.0308273 L17.9668757,44.0953727 C17.9668757,44.0107364 18.0326054,43.9468273 18.1156324,43.9468273 L29.2550919,43.9451 C31.5988757,43.9451 33.2922811,45.1835545 33.2922811,48.2045545 C33.2922811,51.2255545 31.5988757,52.4640091 29.2550919,52.4640091 Z M12.9039568,56.2415545 C9.62957838,56.6146455 6.79801081,56.6008273 3.8124973,56.2415545 C2.46503784,56.0377364 0.726659459,55.2535545 0.302875676,53.5504636 C-0.126097297,51.8473727 -0.0742054054,48.4809182 0.302875676,46.6102818 C0.726659459,44.9037364 2.46157838,44.1109182 3.8124973,43.9468273 C6.79801081,43.5892818 9.62957838,43.5720091 12.9039568,43.9468273 C14.2566054,44.1005545 15.9897946,44.9037364 16.4153081,46.6102818 C16.7923892,48.4809182 16.8442811,51.8473727 16.4153081,53.5504636 C15.9897946,55.2535545 14.2479568,56.0377364 12.9039568,56.2415545 Z M10.8715243,53.4209182 C11.5634162,53.3190091 12.2518486,52.8440091 12.4715243,51.9717364 C12.5908757,51.5019182 12.582227,48.7382818 12.4715243,48.1838273 C12.2518486,47.3115545 11.558227,46.9263727 10.8715243,46.8434636 C9.19714595,46.6500091 7.42417297,46.6638273 5.89509189,46.8434636 C5.2032,46.9263727 4.51476757,47.3115545 4.29682162,48.1838273 C4.18265946,48.7382818 4.1792,51.5019182 4.29682162,51.9717364 C4.51476757,52.8440091 5.20665946,53.3190091 5.89509189,53.4209182 C7.42417297,53.6074636 9.19714595,53.6143727 10.8715243,53.4209182 Z M48.0780108,43.9468273 C48.2129297,43.9468273 48.3270919,44.0556455 48.3270919,44.1938273 L48.3270919,46.3581 C48.3270919,46.4911 48.2129297,46.6033727 48.0780108,46.6033727 L38.8550919,46.6033727 C38.7703351,46.6033727 38.7080649,46.6707364 38.7080649,46.7501909 L38.7080649,48.6363727 C38.7080649,48.7192818 38.7703351,48.7849182 38.8550919,48.7849182 L46.0317405,48.7849182 C46.1649297,48.7849182 46.2756324,48.8937364 46.2756324,49.0284636 L46.2756324,51.1927364 C46.2756324,51.3309182 46.1649297,51.4397364 46.0317405,51.4397364 L38.8550919,51.4397364 C38.7703351,51.4397364 38.7080649,51.5036455 38.7080649,51.5882818 L38.7080649,53.4727364 C38.7080649,53.5539182 38.7703351,53.6212818 38.8550919,53.6212818 L48.0780108,53.6212818 C48.2129297,53.6212818 48.3270919,53.7266455 48.3270919,53.8648273 L48.3270919,56.0308273 C48.3270919,56.1672818 48.2129297,56.2761 48.0780108,56.2761 L34.3543351,56.2761 C34.2695784,56.2761 34.2021189,56.2121909 34.2021189,56.1275545 L34.2021189,44.0953727 C34.2021189,44.0107364 34.2695784,43.9468273 34.3543351,43.9468273 L48.0780108,43.9468273 Z M49.5482811,44.1938273 C49.5482811,44.0556455 49.6607135,43.9468273 49.7956324,43.9468273 L53.8068757,43.9468273 C53.9452541,43.9468273 54.0524973,44.0556455 54.0524973,44.1938273 L54.0524973,53.4727364 C54.0524973,53.5539182 54.1164973,53.6212818 54.2012541,53.6212818 L62.7184432,53.6212818 C62.8533622,53.6212818 62.9657946,53.7266455 62.9657946,53.8648273 L62.9657946,56.0308273 C62.9657946,56.1672818 62.8533622,56.2761 62.7184432,56.2761 L49.6987676,56.2761 C49.6174703,56.2761 49.5482811,56.2121909 49.5482811,56.1292818 L49.5482811,44.1938273 Z M27.5184432,49.8005545 C28.4057946,49.8005545 29.0492541,49.3480091 29.0492541,48.2045545 C29.0492541,47.0593727 28.4057946,46.6068273 27.5184432,46.6068273 L22.6181189,46.6033727 C22.5385514,46.6033727 22.4693622,46.6707364 22.4693622,46.7501909 L22.4693622,49.6571909 C22.4693622,49.7401 22.5385514,49.8057364 22.6181189,49.8057364 L27.5184432,49.8005545 Z M14.1977946,14.4761 L41.4323892,14.2187364 L34.7833081,19.2606455 L47.2927135,19.7978273 C47.3048216,19.5439182 47.3117405,19.2831 47.3117405,19.0257364 C47.3117405,9.7261 39.7580108,2.18482727 30.4416865,2.18482727 C22.7080649,2.18482727 16.1852541,7.38391818 14.1977946,14.4761 Z M13.5872,18.3451909 C13.5750919,18.5680091 13.5733622,18.7977364 13.5733622,19.0257364 C13.5733622,28.3288273 21.1253622,35.8701 30.4416865,35.8701 C38.1683892,35.8701 44.6773622,30.6831 46.6769297,23.6099182 L19.6083892,23.8949182 L26.1190919,18.8875545 L13.5872,18.3451909 Z" id="Fill-1" fill="#231F20" mask="url(#mask-2)"></path>
                </g>
            </g>
        </g>
    </g>
</svg>