<?xml version="1.0" encoding="UTF-8"?>
<svg width="122px" height="80px" viewBox="0 0 122 80" version="1.1" xmlns="http://www.w3.org/2000/svg" xmlns:xlink="http://www.w3.org/1999/xlink">
    <!-- Generator: Sketch 49.2 (51160) - http://www.bohemiancoding.com/sketch -->
    <title>Rectangle 3 Copy 19</title>
    <desc>Created with Sketch.</desc>
    <defs></defs>
    <g id="Ilustraciones" stroke="none" stroke-width="1" fill="none" fill-rule="evenodd">
        <g id="PEUGEOT" transform="translate(-39.000000, -60.000000)">
            <g id="Group-2" transform="translate(39.000000, 60.000000)">
                <rect id="Rectangle-3-Copy-19" x="0" y="0" width="122" height="80"></rect>
                <g id="Group" transform="translate(29.000000, 7.000000)" fill="#231F20">
                    <path d="M27.0423301,3.3148962 C26.5329918,3.3957462 24.9053542,3.8281782 24.7341717,3.8859282 C24.5578443,3.9422922 24.4652373,3.9986562 24.3497125,4.1839182 C24.2341876,4.3664082 24.183207,4.7669622 24.2323168,4.9208082 C24.2800234,5.0806602 24.4432548,5.1998562 24.6953516,5.0949822 C25.0400553,4.9545342 27.0577645,4.2213402 27.4122902,4.1095362 C27.5647643,4.0605642 27.6307117,3.9829482 27.6606452,3.9020982 C27.7111581,3.7722762 27.7265926,3.6013362 27.7111581,3.4650462 C27.6770151,3.1873842 27.3837598,3.2603802 27.0423301,3.3148962" id="Fill-1"></path>
                    <path d="M62.0759649,61.0367142 C61.1742163,61.6955262 59.8014818,63.2469222 59.4549073,63.7722162 C59.1537008,64.2222042 59.1279766,64.2360642 58.6495073,64.1880162 C54.6847133,63.8165682 49.5380112,63.8105622 48.1040064,63.8105622 C47.8397491,63.8105622 47.9412426,63.6567162 47.9094382,63.5389062 C47.8299272,63.2501562 48.1577933,61.8161082 48.3696668,61.0935402 C48.5614286,60.4596762 48.7344821,60.3589602 50.0305118,59.9371542 C51.5725581,59.4377322 56.6752952,58.4767722 57.8992974,58.1247282 C58.7439851,57.8775582 58.4862758,56.7881622 57.953552,55.9001982 C45.9936901,36.0499062 39.3718246,30.6962502 23.8980431,22.3784022 C21.8667701,21.2991702 13.8230603,17.0196642 12.2169375,16.3770222 C10.6950029,15.7690302 8.05897847,15.4862862 7.28865692,15.4340802 C6.33499229,15.3666282 5.18816264,15.6470622 5.15682594,15.2525142 C5.13344034,14.9369682 5.44072708,14.1552642 5.93182461,14.0753382 C7.01036832,13.8993162 9.34799256,13.6544562 11.5223853,14.1996162 C12.5041127,14.4458622 13.406329,14.8385622 14.4979686,15.3804882 C17.4562466,16.8459522 21.3639798,18.8006742 22.295662,19.2645222 C23.6716705,19.9510542 29.9974744,23.1550242 31.7139771,23.8535682 C33.3154228,24.4999062 33.9847186,24.0610062 34.5375541,23.2677522 C35.0899219,22.4744982 36.9612373,18.6523722 37.453738,17.1809022 C37.991139,15.5888502 38.073924,14.8357902 37.2643146,13.2839322 C36.4448833,11.7149802 33.737299,8.0989062 32.1933819,6.4851402 C31.1789147,5.4266982 28.3249365,5.4738222 25.6673973,6.0365382 C23.2834696,6.5387322 20.2802913,7.6872642 19.8303524,7.8623622 C19.4926644,7.9958802 19.158718,8.1377142 18.8851066,8.1293982 C18.6077534,8.1293982 18.0605304,7.1462622 17.9819548,6.9499122 C17.7813064,6.4823682 17.7845804,6.4199982 18.6264619,6.0513222 C20.1479288,5.3768022 21.5983035,5.0510922 22.227376,4.6884222 C22.8615934,4.3266762 22.9013489,3.6604722 23.8059038,3.1180842 C26.8890609,1.2881022 30.2706181,0.8607522 31.223815,0.9443742 C32.6199352,1.0626462 39.4522711,2.9097222 41.3853245,4.0859742 C41.5247026,4.1649762 41.587376,4.2051702 41.6692256,4.2911022 C41.8904534,4.4990022 41.9231932,4.6958142 41.9231932,4.6958142 C42.1088748,5.6175042 42.6191486,6.8163942 43.7458666,8.0873562 C44.7280617,9.1943082 46.5044316,10.7226042 46.9623216,11.0395362 C47.4810141,11.4031302 47.9150508,11.9353542 48.0492841,12.5743002 C48.6980005,15.6493722 48.9917236,20.8094502 48.882279,21.8729742 C48.7747053,22.8565722 48.6820983,23.2686762 47.3940197,23.6170242 C46.0713303,23.9829282 42.8399086,24.6440502 41.4980431,25.0644702 C39.4429168,25.7071122 39.8278437,27.2580462 40.8151836,28.6371162 C41.8226351,30.0443682 49.1180058,38.5183722 53.4204879,44.7757002 C57.8043518,51.1351302 61.0044369,57.2533962 62.1381706,60.0729822 C62.2013117,60.2406882 62.455747,60.7585902 62.0759649,61.0367142 M21.462667,50.5677942 C20.6965549,52.0180122 20.7119894,52.6195362 20.7325687,53.9630322 C20.7545512,55.2436962 20.9079607,56.8218882 20.8242402,57.5592402 C20.7419229,58.3044462 20.2606474,58.6218402 19.5076311,58.8292782 C18.7560181,59.0325582 14.3034005,59.7394182 13.3179314,60.0263202 C12.3357364,60.3150702 12.1112347,60.8588442 11.9461323,61.5610842 C11.7782238,62.2624002 11.7319203,62.5215822 11.6912293,62.8006302 C11.6561509,63.0454902 11.6622312,63.3162222 11.3713144,63.3370122 C11.0934935,63.3564162 10.0780909,63.4206342 9.75911135,63.4659102 C9.43451927,63.5070282 9.39055434,63.4395762 9.39990858,63.0986202 C9.41253681,62.7502722 9.73338719,61.2196662 9.95367951,60.4139382 C10.1716333,59.6026662 10.5205464,59.0575062 11.6388456,58.7886222 C12.752,58.5220482 17.2799192,57.7703742 18.1325581,57.6197622 C19.1348647,57.4400442 19.3808812,57.0196242 19.3313037,56.0665182 C19.2840648,55.0699842 19.137671,53.6872182 19.1119469,52.8352902 C19.0829487,51.9792042 19.1348647,51.2783502 19.4215721,50.5174362 C19.7354069,49.6844502 21.345739,46.2370062 22.6894754,43.8078102 C24.5467595,40.4532282 26.8348063,36.8602542 27.2842774,36.3252582 C27.6444156,35.8900542 27.8918352,35.7191142 28.3352261,35.8558662 C28.6556088,35.9556582 29.5096508,36.5493282 29.9680085,36.8801202 C30.3365655,37.1457702 30.6260792,37.3582902 30.6260792,37.3582902 C27.5284231,41.1804162 22.9387659,47.7791622 21.462667,50.5677942 M14.8436078,31.3504422 C12.2253564,31.3555242 9.75490194,31.4266722 8.90600478,31.4978202 C8.61789423,31.5223062 8.39245708,31.5763602 8.2208068,31.4848842 C8.04401169,31.3897122 8.17122934,31.0579962 8.42519692,30.7992762 C8.65016636,30.5701242 9.70766303,29.7242022 10.3811682,29.5685082 C11.071511,29.4137382 13.2117608,29.1938262 14.2425979,29.1356142 C14.5335147,29.1199062 18.2812905,28.7895762 18.6273973,28.8057462 C18.9678916,28.8214542 19.9856327,30.3220302 20.9949551,31.4063442 C20.8780271,31.4146602 17.6133978,31.3439742 14.8436078,31.3504422 M49.8813117,23.6100942 C49.9046973,23.3231922 49.9135838,23.0307462 49.9271475,22.7239782 C49.942582,22.4112042 49.9365017,22.1469402 49.9491299,21.7898142 C49.9594196,21.5019882 50.1923402,21.4252962 50.3373309,21.6174882 C50.4968206,21.8263122 50.8639745,22.9364982 51.6516014,24.3751662 C52.8302355,26.5377882 54.2319681,29.2409502 54.71605,30.4033422 C55.1734722,31.5130662 54.9499059,32.3594502 54.2525474,33.2127642 C53.308237,34.3659162 50.5506075,35.6193222 49.8883274,35.8336902 C48.9837725,36.1265982 48.3939878,35.8738842 47.9543386,35.4580842 C47.5104799,35.0413602 43.9119043,30.7623162 42.7543173,29.4543942 C42.1706128,28.7946582 41.7342376,27.2894622 43.4900282,26.6482062 C44.9305809,26.1303042 47.4468711,25.4964402 48.2284178,25.2825342 C49.2634643,24.9984042 49.8139612,24.4306062 49.8813117,23.6100942 M63.592287,60.6560262 C62.3636078,57.0362562 57.4105384,47.9510262 53.5182397,42.8389962 C52.6749551,41.7246522 52.9920638,41.1517722 53.4415349,40.7904882 C53.8891353,40.4310522 55.3381068,39.1947402 57.0527388,37.2575742 C58.7837406,35.3005422 59.2009397,33.0894102 57.9764698,29.8905222 C56.7580803,26.7212022 52.7324837,19.1869062 51.8887313,16.6911822 C50.9191645,13.8138462 50.820945,12.5341062 51.4055849,10.9656162 C52.0931214,9.1194642 53.0991698,9.0418482 53.85546,9.0524742 C54.2619017,9.0607902 54.564979,9.4844442 54.5673176,9.6784842 C54.5869615,10.4920662 54.6295233,11.4969162 55.4330524,13.5999402 C56.7155185,16.9471302 60.0086782,19.1342382 61.0474664,19.5759102 C61.7719522,19.8845262 61.9015084,19.3310502 61.838835,19.0640142 C61.7719522,18.7992882 60.6994887,14.6491422 59.8945565,11.5301802 C59.0540781,8.2624542 58.6312665,7.5532842 57.8838629,6.8602842 C56.6916652,5.7436302 54.878346,5.1458022 53.3437832,5.2030902 C49.9262121,5.3342982 48.4140994,8.5978662 48.2284178,8.9009382 C48.0633154,9.1712082 48.000642,9.3624762 47.6521967,9.1236222 C46.6765496,8.4486402 43.8197651,6.0942882 43.5573787,4.6181982 C43.402566,3.7468662 43.2496242,3.6239742 42.3670518,3.2862522 C38.9359171,1.9635462 35.9626723,0.8006922 32.6732543,0.2264262 C31.3529035,-0.0018018 31.2827467,-0.1154538 29.7430391,0.1677522 C27.1289971,0.6505422 25.5261483,1.2451362 23.5622259,2.2633842 C22.4785373,2.8288722 22.3531905,3.2095602 22.1431879,3.4789062 C21.9804241,3.6886542 21.8045644,3.9422922 21.414025,4.0679562 C20.7620345,4.2781662 18.335545,5.1702882 17.5034855,5.6489202 C16.9843253,5.9459862 16.702295,6.2606082 16.9674876,6.8394942 C17.4323933,7.8609762 18.8299166,9.9898722 19.4393452,10.5267162 C19.8083699,10.8487302 20.7358427,11.0723382 20.9566027,11.1171522 C21.176895,11.1707442 21.3317077,11.2340382 21.414025,11.0723382 C21.5047611,10.8930822 21.5384364,10.6334382 21.9715376,10.3322142 C22.6225926,9.8817642 23.8339665,9.5689902 24.4784736,9.5126262 C24.9714419,9.4719702 25.2726484,9.4558002 25.5270837,9.6359802 C25.7796482,9.8203182 26.3638204,10.4352402 26.5663396,11.0538582 C26.7693266,11.6715522 26.6430444,11.9039382 26.2922604,12.0494682 C25.9414765,12.1931502 24.8900601,12.4301562 23.6716705,12.5267142 C22.457958,12.6237342 22.1123189,12.2915562 22.0253245,12.2180982 C21.9617157,12.1497222 21.8012905,12.0462342 21.6773468,12.2083962 C21.4738921,12.4906782 21.1675408,12.6717822 20.6928132,12.9050922 C20.422008,13.0344522 20.2788881,13.3171962 20.5342588,13.7579442 C21.3092575,15.0797262 22.3279341,16.5641322 23.2741153,16.8473382 C24.0252607,17.0778762 24.4288961,16.8353262 25.2763901,16.2379602 C26.0322126,15.6969582 26.5247133,15.7001922 26.7328451,15.8508042 C26.9592176,16.0203582 27.4175753,16.4028942 27.2997119,16.7831202 C27.0981281,17.4479382 25.7464406,19.0279782 25.4859251,19.3546122 C25.2417794,19.6623042 25.0111974,19.8277002 24.5724837,19.6202622 C23.9326537,19.3181142 14.2154706,14.3377542 12.9185054,13.8383322 C11.5036769,13.3028742 10.5733978,13.1716662 9.18148711,13.1079102 C8.05523678,13.0594002 6.55154292,13.1670462 5.61097422,13.3347522 C4.92530853,13.4604162 4.53476907,13.7810442 3.89587457,14.3645502 C3.01610842,15.1679682 2.0862971,16.1954562 1.99883497,17.0520042 C1.93616157,17.6678502 2.62977837,18.9249522 2.7055477,19.0131942 C2.78178475,19.1074422 2.90900239,19.2802302 3.28644592,19.2395742 C3.66950199,19.1970702 4.63205315,18.7041162 5.77841509,18.9000042 C6.81813872,19.0783362 6.9233739,19.8845262 6.97622535,20.5031442 C6.98464417,20.6094042 7.11700664,20.8496442 7.41026202,20.8454862 C7.82512251,20.8399422 8.47243582,20.8524162 9.21983949,21.2063082 C10.1426351,21.6392022 11.9676471,23.0353662 12.2478065,23.3439822 C12.4751145,23.5971582 12.4601478,23.8244622 12.0265788,23.8669662 C9.70859846,24.0683982 6.18345363,24.7493862 4.55113898,25.2783762 C3.39355195,25.6530582 2.02783311,26.1663402 1.54608982,26.9942442 C0.998866862,27.9330282 0.30618549,29.4409962 0.109278767,30.5156082 C-0.0894988041,31.5865242 1.07042679,32.9138502 1.38098751,33.2090682 C1.58958703,33.4095762 1.73130375,33.5357022 2.10126389,33.3356562 C2.66813075,33.0141042 4.03852671,32.1801942 5.35092639,32.1025782 C6.14650438,32.0563782 6.46595163,32.7969642 6.65584268,33.0686202 C6.84853999,33.3361182 7.03235078,33.1522422 7.74467606,32.9618982 C9.00890141,32.6269482 16.0587234,32.7535362 18.5478863,32.8690362 C19.6853617,32.9166222 21.2699697,33.0843282 22.4345724,33.7195782 C23.5940303,34.3497462 25.6903152,36.3040062 25.6903152,36.3040062 C25.6903152,36.3040062 22.9041552,40.9180002 21.4051385,43.6521162 C20.0165017,46.1783322 19.0025023,48.0762282 18.5029859,49.1753262 C18.0427574,50.1797142 17.6676524,51.6059082 17.7504374,52.7299542 C17.8743811,54.3719022 17.9188137,55.2150522 17.8982344,55.9593342 C17.8771874,56.6144502 17.260743,56.6860602 16.3837832,56.8990422 C15.1752155,57.2016522 12.7669668,57.4211022 10.8152049,57.8960382 C9.04070582,58.3321662 8.37936115,58.7456562 8.05897847,60.1007022 C7.81155886,61.1540622 7.44487271,63.7763742 7.40231092,64.9900482 C7.38079617,65.4806922 7.37144193,65.7200082 8.00191762,65.5915722 C8.36299123,65.5218102 9.40739197,65.3735082 10.7361616,65.2769502 C12.383443,65.1522102 14.1658932,65.1780822 15.5447079,65.1730002 C18.0792389,65.1586782 25.5645007,65.5915722 26.0682264,65.6396202 C26.7080563,65.7024522 26.8371448,65.6262222 26.7936476,65.1850122 C26.7328451,64.6010442 26.6248036,62.7433422 26.5986117,61.6354662 C26.5663396,60.5234322 26.3974956,59.3961522 27.4124305,58.3150722 C28.4217529,57.2330682 36.0496668,48.8274402 36.4734138,48.3973182 C36.8429062,48.0304902 37.0893904,47.6414862 37.6553218,48.1543062 C38.2301398,48.6735942 44.508237,53.1466782 45.7846229,54.0605142 C47.0619442,54.9752742 48.2475939,55.2862002 49.702178,55.3060662 C50.7376923,55.3245462 51.0262705,57.1111002 50.145569,57.2788062 C49.2396109,57.4506702 47.8617316,57.7297182 46.898245,57.9473202 C45.4118565,58.2901242 44.9567728,58.7692182 44.508237,59.7597462 C44.1265841,60.5950422 43.7070465,64.6999122 43.691612,65.0538042 C43.6813223,65.3083662 43.6654201,65.6793522 44.0756035,65.5943442 C45.9071634,65.2289022 48.8139931,65.1235662 51.9205357,65.2201242 C55.4877746,65.3291562 58.9516492,65.6206782 59.4376019,65.6483982 C59.9623747,65.6839722 60.0133553,65.6072802 60.2771448,65.2021062 C60.7294223,64.5058722 62.0712878,62.9738802 63.2386968,62.0281662 C63.8224013,61.5583122 63.8350295,61.3633482 63.592287,60.6560262" id="Fill-3"></path>
                </g>
            </g>
        </g>
    </g>
</svg>