<?xml version="1.0" encoding="UTF-8"?>
<svg width="122px" height="80px" viewBox="0 0 122 80" version="1.1" xmlns="http://www.w3.org/2000/svg" xmlns:xlink="http://www.w3.org/1999/xlink">
    <!-- Generator: Sketch 49.2 (51160) - http://www.bohemiancoding.com/sketch -->
    <title>Rectangle 3 Copy 19</title>
    <desc>Created with Sketch.</desc>
    <defs>
        <polygon id="path-1" points="0 0.981859375 10.3019636 0.981859375 10.3019636 11.1059531 0 11.1059531"></polygon>
    </defs>
    <g id="Ilustraciones" stroke="none" stroke-width="1" fill="none" fill-rule="evenodd">
        <g id="RENAULT" transform="translate(-39.000000, -60.000000)">
            <g id="Group" transform="translate(39.000000, 60.000000)">
                <rect id="Rectangle-3-Copy-19" x="0" y="0" width="122" height="80"></rect>
                <g id="Page-1" transform="translate(29.000000, 17.000000)">
                    <path d="M31.2712727,9.07144062 L35.5549091,15.2196281 L31.2712727,21.4955969 L26.8087273,15.2196281 L31.2712727,9.07144062 Z M36.6007273,14.8744719 L31.8312727,7.53806562 L34.3534545,1.40456562 L25.6712727,14.8083781 L31.2392727,22.6720656 L36.6007273,14.8744719 Z" id="Fill-1" fill="#231F20"></path>
                    <path d="M27.7095273,-0.000146875 L27.5568,0.246603125 L18.9226182,14.6961656 L18.7568,14.9561344 L18.9226182,15.2175719 L27.8869818,29.9271031 L28.0338909,30.1679781 L34.8353455,30.1679781 L34.9793455,29.9197594 L43.8171636,15.2175719 L43.9713455,14.9502594 L43.8171636,14.6932281 L35.0477091,0.243665625 L34.8964364,-0.000146875 L27.7095273,-0.000146875 Z M19.9364364,14.9429156 L28.2768,1.01182187 L34.3335273,1.01182187 L42.7975273,14.9561344 L42.7888,14.9737594 L37.4593455,14.9737594 L29.8069818,26.1186344 L30.8295273,23.6114781 L24.8397091,14.9737594 L19.9524364,14.9737594 L19.9364364,14.9429156 Z" id="Fill-2" fill="#231F20"></path>
                    <g id="Group-18" transform="translate(0.000000, 34.385934)">
                        <g id="Group-5">
                            <mask id="mask-2" fill="white">
                                <use xlink:href="#path-1"></use>
                            </mask>
                            <g id="Clip-4"></g>
                            <path d="M6.41832727,5.16779688 L4.54632727,5.16779688 L4.54632727,2.94557813 L6.41832727,2.94557813 C6.41832727,2.94557813 6.75432727,3.55951563 6.75432727,4.08532813 C6.75432727,4.61701563 6.41832727,5.16779688 6.41832727,5.16779688 M9.97032727,3.66673438 C9.97032727,1.31232813 8.04014545,0.981859375 8.04014545,0.981859375 L-0.000581818182,0.981859375 C0.0561454545,1.67217188 1.26632727,2.36835937 1.26632727,2.36835937 L1.26632727,9.57992188 L0.360145455,10.0234844 L0.360145455,11.1059531 L5.5616,11.1059531 L5.5616,10.0234844 L4.54632727,9.57992188 L4.54632727,6.44267188 L5.00596364,6.42064063 L6.72232727,11.0765781 L10.3019636,11.0765781 L10.3019636,10.0719531 L7.87869091,6.47792188 C7.87869091,6.47792188 9.97032727,6.02554688 9.97032727,3.66673438" id="Fill-3" fill="#231F20" mask="url(#mask-2)"></path>
                        </g>
                        <polygon id="Fill-6" fill="#231F20" points="19.3067636 7.65350938 17.1438545 7.65350938 17.1438545 9.40425938 15.2514909 9.40425938 15.2514909 6.56369688 16.5169455 6.56369688 16.9838545 7.19819688 18.0747636 7.19819688 18.0747636 4.37672813 17.1205818 4.37672813 16.4893091 5.01710313 15.2514909 5.01710313 15.2514909 2.67738438 17.1205818 2.67738438 17.1205818 3.76719688 19.4376727 3.76719688 19.4376727 0.950134375 10.9184 0.950134375 10.9184 1.87691563 11.8667636 2.31019688 11.8667636 9.53938438 10.9184 10.1547906 10.9184 11.1359156 19.3067636 11.1359156"></polygon>
                        <polygon id="Fill-8" fill="#231F20" points="25.5610182 11.1360625 28.2868364 11.1360625 28.2868364 2.51596875 29.3922909 2.04303125 29.4184727 0.922375 25.6526545 0.922375 25.6526545 2.015125 26.5981091 2.33678125 26.6257455 5.8133125 23.8446545 0.922375 19.9435636 0.9488125 19.9435636 1.8565 20.5457455 2.17228125 20.5457455 9.7055 19.5988364 10.3179688 19.5988364 11.1360625 23.3457455 11.1360625 23.3457455 10.3179688 22.4468364 9.75103125 22.4468364 5.9484375"></polygon>
                        <path d="M32.2989091,6.28375313 L32.7352727,4.78562813 L33.2836364,6.28375313 L32.2989091,6.28375313 Z M33.4261818,11.1056594 L38.6741818,11.1056594 L38.6741818,10.0231906 L37.7214545,9.60900313 L34.6741818,0.925753125 L30.2989091,0.905190625 L30.2989091,2.01262813 L31.5469091,3.20965938 L29.6283636,9.60900313 C29.6283636,9.60900313 29.1745455,9.96297188 28.6203636,10.1685969 L28.6203636,11.1056594 L32.1883636,11.1056594 L32.1883636,10.1685969 L31.2603636,9.84547188 L31.7985455,8.00512813 L33.9309091,8.00512813 L34.5287273,9.60900313 L33.4261818,10.1994406 L33.4261818,11.1056594 Z" id="Fill-10" fill="#231F20"></path>
                        <path d="M42.5560727,11.75 C45.9204364,11.75 46.2957091,9.088625 46.2957091,9.088625 L46.2957091,2.5115625 L47.0753455,2.1884375 L47.0753455,1.1045 L43.6513455,1.1045 L43.6513455,2.15759375 L44.7262545,2.5115625 L44.7262545,9.3735625 C44.7262545,9.3735625 44.0004364,9.84503125 43.3371636,9.84503125 C42.6666182,9.84503125 42.1182545,9.3735625 42.1182545,9.3735625 L42.1182545,2.5115625 L43.3371636,2.0121875 L43.3371636,1.0721875 L37.1320727,1.1045 L37.1320727,2.04303125 L38.6942545,2.5115625 L38.6942545,9.14884375 C38.6942545,9.14884375 39.1829818,11.75 42.5560727,11.75" id="Fill-12" fill="#231F20"></path>
                        <polygon id="Fill-14" fill="#231F20" points="53.4274909 9.87381875 51.7140364 9.87381875 51.7140364 2.97656875 53.1394909 2.18931875 53.1394909 1.07306875 47.5074909 1.07306875 47.5074909 2.15700625 48.2944 2.510975 48.2944 10.0280375 47.3707636 10.3511625 47.3707636 11.3983813 55.3096727 11.4262875 55.3096727 8.12013125 53.4274909 8.12013125"></polygon>
                        <polygon id="Fill-16" fill="#231F20" points="54.2101818 4.55385938 56.2436364 4.55385938 56.2741818 2.94557813 56.9956364 2.94557813 56.9956364 9.52851563 55.6036364 10.1674219 55.6036364 11.3982344 61.5134545 11.3982344 61.5134545 10.1674219 60.1272727 9.55789063 60.1272727 2.94557813 60.7352727 2.94557813 60.7352727 4.55385938 62.7294545 4.55385938 62.7294545 1.10376562 54.2101818 1.10376562"></polygon>
                    </g>
                </g>
            </g>
        </g>
    </g>
</svg>