<?xml version="1.0" encoding="UTF-8"?>
<svg width="122px" height="80px" viewBox="0 0 122 80" version="1.1" xmlns="http://www.w3.org/2000/svg" xmlns:xlink="http://www.w3.org/1999/xlink">
    <!-- Generator: Sketch 49.2 (51160) - http://www.bohemiancoding.com/sketch -->
    <title>Rectangle 3 Copy 19</title>
    <desc>Created with Sketch.</desc>
    <defs>
        <polygon id="path-1" points="0.0866929847 0.68175 41.9372126 0.68175 41.9372126 37.8238953 0.0866929847 37.8238953"></polygon>
        <polygon id="path-3" points="1.31604211 0.75616875 14.3013053 0.75616875 14.3013053 8.4375 1.31604211 8.4375"></polygon>
        <polygon id="path-5" points="0.75094508 0.75650625 14.3307789 0.75650625 14.3307789 8.4375 0.75094508 8.4375"></polygon>
    </defs>
    <g id="Ilustraciones" stroke="none" stroke-width="1" fill="none" fill-rule="evenodd">
        <g id="SEAT" transform="translate(-39.000000, -60.000000)">
            <g id="Group-2" transform="translate(39.000000, 60.000000)">
                <g id="Group">
                    <rect id="Rectangle-3-Copy-19" x="0" y="0" width="122" height="80"></rect>
                    <g id="Page-1" transform="translate(29.000000, 13.000000)">
                        <g id="Group-3" transform="translate(10.105263, 1.005750)">
                            <mask id="mask-2" fill="white">
                                <use xlink:href="#path-1"></use>
                            </mask>
                            <g id="Clip-2"></g>
                            <path d="M15.2584421,36.2564437 C13.5506526,36.2125687 2.93844211,35.3350687 2.52412632,35.2658812 C2.11317895,35.1966937 2.08623158,35.0228812 2.08623158,34.4187562 C2.08623158,33.8196937 1.83696842,24.5603812 1.83696842,24.5603812 C1.83696842,24.5603812 1.77128421,24.1233187 2.26475789,24.1891312 C3.34938947,24.3359437 20.3834947,25.9390687 21.9717053,25.9542562 C23.5531789,25.9829437 23.1203368,25.4665687 23.0816,25.3754437 C23.0310737,25.2623812 22.5881263,24.8590687 21.7140211,24.6565687 C20.8483368,24.4439437 16.0314947,23.1833812 12.7691789,22.4442562 C9.51528421,21.7118812 1.9296,19.9821937 1.9296,19.9821937 C1.9296,19.9821937 1.73086316,19.9973812 1.71738947,19.7223187 C1.71738947,18.9207562 1.69549474,17.8896937 1.69549474,17.8896937 C1.69549474,17.8896937 1.62644211,17.4728812 1.94138947,17.5083187 C2.84581053,17.6956312 17.9599158,20.7213187 19.4959158,21.0250687 C21.0336,21.3186937 40.1746526,25.6623187 40.1746526,25.6623187 C40.1746526,25.6623187 40.3582316,25.6707562 40.3531789,25.9829437 C40.3531789,26.7676312 40.2740211,29.7511312 40.1746526,30.1696312 C40.0904421,30.5813812 40.3717053,35.5476937 31.1691789,36.0708187 C21.4883368,36.6901312 16.9510737,36.3020062 15.2584421,36.2564437 M1.91275789,8.30975625 C2.45002105,5.83250625 4.94770526,2.74944375 10.9232842,2.40181875 C20.6074947,1.85506875 25.1447579,2.17063125 26.8407579,2.22294375 C28.5384421,2.26681875 39.1557053,3.14094375 39.5632842,3.20844375 C39.9809684,3.27931875 39.9809684,3.46663125 39.9961263,4.05894375 C40.0230737,4.65294375 40.2352842,10.8798187 40.2504421,11.2105687 C40.2571789,11.5362562 40.0786526,11.6391937 39.8462316,11.6391937 C38.5999158,11.6391937 23.4689684,10.3685062 20.2588632,10.4258812 C19.4554947,10.4410687 19.4184421,10.8696937 19.5868632,11.1228187 C19.7283368,11.3033812 20.0180211,11.3438812 20.0180211,11.3438812 C20.0180211,11.3438812 39.9321263,14.6024437 40.2453895,14.7306937 C40.3026526,14.7627562 40.4188632,14.7728812 40.4188632,15.1390687 L40.4188632,18.0972562 C40.4188632,18.0972562 40.5384421,18.5630062 39.7485474,18.3301312 C26.7178105,15.3449437 1.87402105,12.0678187 1.87402105,12.0678187 C1.71738947,12.0458812 1.67865263,12.0306937 1.67865263,11.9446312 C1.67865263,11.1582562 1.74265263,9.08263125 1.91275789,8.30975625 M40.3868632,20.8613812 L40.3818105,23.5225687 C40.3818105,23.5225687 40.4289684,23.8499437 39.9321263,23.7065062 C38.6588632,23.3453812 14.6369684,17.9386312 1.85886316,16.0790062 C1.72244211,16.0587562 1.75444211,15.8157562 1.75444211,15.8039437 L1.75444211,13.8481312 C1.75444211,13.8481312 1.73086316,13.6068187 1.89423158,13.6270687 C6.83065263,14.3813812 19.2281263,16.3996312 22.2748632,16.9362562 C25.3283368,17.4205687 39.0394947,20.0075062 40.1914947,20.2572562 C40.4222316,20.2977562 40.3868632,20.8613812 40.3868632,20.8613812 M41.7510737,31.0623187 C41.8437053,30.6066937 41.9194947,27.3801937 41.9312842,26.5330687 C41.9548632,25.6825687 41.9060211,13.0938187 41.8218105,10.5558187 C41.8066526,10.1980687 41.5776,3.46663125 41.5472842,2.81694375 C41.5287579,2.16388125 41.5287579,1.96981875 41.0874947,1.89556875 C40.6344421,1.82975625 29.1481263,0.87294375 27.3072842,0.82738125 C25.4698105,0.77506875 20.5721263,0.43081875 10.0862316,1.02988125 C3.63233684,1.38594375 0.919073684,4.74069375 0.346442105,7.42044375 C0.162863158,8.26250625 0.0803368421,10.4832562 0.0870736842,11.3303812 C0.134231579,14.7576937 0.204968421,22.6265062 0.267284211,24.9957562 C0.267284211,24.9957562 0.541810526,35.0228812 0.541810526,35.6573812 C0.541810526,36.3020062 0.565389474,36.5028187 1.01002105,36.5855062 C1.45296842,36.6580687 12.9460211,37.6030687 14.7750737,37.6536937 C16.6192842,37.6941937 21.5270737,38.1194437 31.9893895,37.4495062 C41.9548632,36.8926312 41.6432842,31.5095062 41.7510737,31.0623187" id="Fill-1" fill="#231F20" mask="url(#mask-2)"></path>
                        </g>
                        <path d="M10.8653474,48.8225812 C10.5925053,48.7938937 6.34829474,48.6774562 4.64555789,48.6302062 C4.43503158,48.6183937 4.1184,48.6302062 3.72429474,48.5728312 C3.42113684,48.5272687 2.99671579,48.4901437 2.99671579,47.8455187 C2.99671579,47.2312687 3.33187368,47.1300187 3.64850526,47.0827687 C3.95671579,47.0338312 4.69608421,47.0372062 4.69608421,47.0372062 L13.0228211,47.0372062 L13.0228211,45.6365812 L3.60303158,45.6365812 C2.43755789,45.6365812 -0.0281263158,45.4610812 0.000505263158,48.0378937 C0.0173473684,50.1118312 1.81945263,49.9734562 2.85355789,50.0358937 C3.50703158,50.0814562 7.07587368,50.1810187 8.68429474,50.2198312 C9.1744,50.2265812 9.32934737,50.2299562 9.58029474,50.2704562 C9.84134737,50.3126437 10.3718737,50.3565187 10.3718737,51.0517687 C10.3718737,51.7453312 9.95924211,51.8313937 9.52471579,51.8803312 C9.09355789,51.9326437 8.67082105,51.9191437 8.67082105,51.9191437 L0.0325052632,51.9191437 L0.0325052632,53.3079562 C0.0325052632,53.3079562 10.4729263,53.3028937 10.4948211,53.3180812 C11.6249263,53.2151437 13.2704,53.2404562 13.3226105,51.2475187 C13.4000842,48.7331437 11.2021895,48.8664562 10.8653474,48.8225812" id="Fill-4" fill="#231F20"></path>
                        <g id="Group-8" transform="translate(15.157895, 44.880750)">
                            <mask id="mask-4" fill="white">
                                <use xlink:href="#path-3"></use>
                            </mask>
                            <g id="Clip-7"></g>
                            <polygon id="Fill-6" fill="#231F20" mask="url(#mask-4)" points="1.31604211 8.42754375 14.2423579 8.43766875 14.2423579 7.01173125 4.37625263 7.01173125 4.37625263 5.22635625 13.8246737 5.22635625 13.8246737 3.80885625 4.37625263 3.80885625 4.37625263 2.15679375 14.3013053 2.15679375 14.3013053 0.75616875 1.31604211 0.75616875"></polygon>
                        </g>
                        <g id="Group-11" transform="translate(32.000000, 44.880750)">
                            <mask id="mask-6" fill="white">
                                <use xlink:href="#path-5"></use>
                            </mask>
                            <g id="Clip-10"></g>
                            <path d="M11.3884632,2.15375625 L11.3884632,4.01675625 L3.66804211,4.01675625 C3.6512,2.16388125 4.61625263,2.15375625 5.33035789,2.15375625 L11.3884632,2.15375625 Z M0.750989474,3.68769375 L0.75094508,8.43800625 L3.67983158,8.43800625 L3.67983158,5.38700625 L11.3884632,5.38700625 L11.3884632,8.43800625 L14.3307789,8.42788125 L14.3307789,0.75650625 L4.22046316,0.75650625 C3.07856842,0.77169375 0.7392,0.83919375 0.750989474,3.68769375 Z" id="Fill-9" fill="#231F20" mask="url(#mask-6)"></path>
                        </g>
                        <polygon id="Fill-12" fill="#231F20" points="49.3916632 47.1168562 54.7019789 47.1168562 54.7019789 53.3082937 57.7756632 53.3082937 57.7756632 47.1033562 63.1196632 47.1033562 63.1196632 45.6369187 49.3916632 45.6369187"></polygon>
                    </g>
                </g>
            </g>
        </g>
    </g>
</svg>