<?xml version="1.0" encoding="UTF-8"?>
<svg width="122px" height="80px" viewBox="0 0 122 80" version="1.1" xmlns="http://www.w3.org/2000/svg" xmlns:xlink="http://www.w3.org/1999/xlink">
    <!-- Generator: Sketch 49.2 (51160) - http://www.bohemiancoding.com/sketch -->
    <title>Rectangle 3 Copy 19</title>
    <desc>Created with Sketch.</desc>
    <defs>
        <polygon id="path-1" points="0.243387931 1.55479545 14.1517241 1.55479545 14.1517241 12.7272197 0.243387931 12.7272197"></polygon>
        <polygon id="path-3" points="0 1.19970455 13.9092228 1.19970455 13.9092228 12.7035682 0 12.7035682"></polygon>
    </defs>
    <g id="Ilustraciones" stroke="none" stroke-width="1" fill="none" fill-rule="evenodd">
        <g id="SUBARU" transform="translate(-39.000000, -60.000000)">
            <g id="Group" transform="translate(39.000000, 60.000000)">
                <rect id="Rectangle-3-Copy-19" x="0" y="0" width="122" height="80"></rect>
                <g id="Page-1" transform="translate(16.000000, 23.000000)">
                    <path d="M39.3531207,31.4747045 C36.7648448,31.4747045 33.3432931,31.5272045 33.2610517,31.4747045 L33.2610517,29.0787955 C33.3432931,29.0247045 37.3219138,29.0501591 39.3081207,29.0247045 C39.9908793,28.9960682 40.6255345,29.4908409 40.6255345,30.2751591 C40.6255345,31.1087955 39.9908793,31.4747045 39.3531207,31.4747045 Z M33.2610517,24.86925 C33.3432931,24.8135682 37.0736379,24.86925 39.2057069,24.86925 C39.8388103,24.86925 40.4238103,25.2749318 40.4238103,26.0051591 C40.4238103,26.8403864 39.9117414,27.2031136 39.3034655,27.2031136 C36.9634655,27.2031136 33.3432931,27.2540227 33.2610517,27.2031136 L33.2610517,24.86925 Z M41.8498448,28.14175 C41.9227759,28.1147045 43.4155345,27.3590227 43.4155345,25.5358409 C43.4155345,24.86925 43.1238103,22.6228864 40.1196724,22.6228864 L30.0148448,22.6228864 L30.0148448,33.7131136 C30.0350172,33.7131136 36.2605345,33.7640227 40.1196724,33.7131136 C43.4698448,33.68925 43.6234655,31.5781136 43.6234655,30.5885682 C43.6234655,28.8226591 41.8762241,28.14175 41.8498448,28.14175 Z" id="Fill-1" fill="#231F20"></path>
                    <path d="M69.2782759,28.2424545 C66.9382759,28.2424545 63.3817241,28.2742727 63.3336207,28.2424545 L63.3336207,24.8681364 C63.4112069,24.8140455 67.1508621,24.8681364 69.2782759,24.8681364 C70.0913793,24.8681364 70.6003448,25.8465455 70.6003448,26.6292727 C70.6003448,27.4104091 70.0634483,28.2424545 69.2782759,28.2424545 M71.9177586,29.442 C71.9968966,29.4197273 73.5424138,28.3554091 73.5424138,26.5767727 C73.5424138,24.4974545 72.7324138,22.6233636 69.7344828,22.6233636 L60.0812069,22.6233636 L60.0812069,33.712 L63.3336207,33.712 L63.3336207,30.2740455 C63.3584483,30.2740455 67.2408621,30.3042727 69.1774138,30.2740455 C70.0184483,30.2517727 70.7027586,31.1633636 70.7027586,31.9413182 L70.7027586,33.712 L73.602931,33.712 L73.602931,31.9985909 C73.602931,30.3790455 71.9394828,29.442 71.9177586,29.442" id="Fill-3" fill="#231F20"></path>
                    <path d="M49.1649828,29.0805455 L51.2939483,25.0666818 L53.528431,29.0805455 L49.1649828,29.0805455 Z M49.3682586,22.6182727 L43.5260172,33.7132727 L46.7737759,33.7132727 L47.993431,31.4748636 L54.7977414,31.4748636 L55.9723966,33.7132727 L59.1705,33.7132727 L53.3282586,22.6182727 L49.3682586,22.6182727 Z" id="Fill-5" fill="#231F20"></path>
                    <g id="Group-9" transform="translate(74.482759, 21.008591)">
                        <mask id="mask-2" fill="white">
                            <use xlink:href="#path-1"></use>
                        </mask>
                        <g id="Clip-8"></g>
                        <path d="M10.8917069,1.61047727 C10.9491207,1.69320455 10.8917069,6.45797727 10.8482586,9.52843182 C10.8482586,9.95002273 10.6961897,10.4654773 10.0848103,10.4654773 L4.44739655,10.4654773 C3.78325862,10.4654773 3.53653448,10.0709318 3.53653448,9.57934091 C3.53653448,6.14297727 3.40463793,1.66297727 3.48222414,1.55479545 L0.279465517,1.55479545 C0.231362069,1.63593182 0.231362069,6.92411364 0.279465517,10.4113864 C0.305844828,12.1247955 2.06394828,12.7038864 4.0392931,12.7038864 C6.84015517,12.7038864 8.36084483,12.7563864 11.4642931,12.7038864 C13.0889483,12.6768409 14.1782586,11.7986591 14.1518793,10.4113864 C14.1270517,7.34570455 14.1006724,1.61047727 14.1006724,1.61047727 L10.8917069,1.61047727 Z" id="Fill-7" fill="#231F20" mask="url(#mask-2)"></path>
                    </g>
                    <g id="Group-12" transform="translate(0.000000, 21.008591)">
                        <mask id="mask-4" fill="white">
                            <use xlink:href="#path-3"></use>
                        </mask>
                        <g id="Clip-11"></g>
                        <path d="M11.5735345,5.83243182 C8.97905172,5.70038636 5.82905172,5.73220455 3.90025862,5.62084091 C2.83267241,5.56993182 2.83267241,3.48902273 4.00577586,3.48902273 L9.94732759,3.48902273 C10.7573276,3.48902273 10.7573276,4.39584091 10.7573276,4.42765909 L13.7056034,4.42765909 C13.6497414,4.29561364 14.0112931,1.19970455 11.1623276,1.19970455 L2.57818966,1.19970455 C1.16146552,1.19970455 0.137327586,2.08425 0.137327586,3.16765909 L0.137327586,5.51265909 C0.137327586,7.03197727 1.4625,7.75743182 3.29043103,7.81311364 C5.97646552,7.88152273 7.60577586,7.96584091 9.7425,8.07243182 C11.5176724,8.17265909 11.2693966,10.4349318 9.7425,10.46675 C7.71284483,10.51925 6.44043103,10.46675 4.21060345,10.46675 C2.9412931,10.46675 2.98939655,9.16061364 2.98939655,9.16061364 L0.0426724138,9.16061364 C-0.0147413793,9.53129545 -0.0147413793,9.83993182 0.0426724138,10.2074318 C0.242844828,11.6297045 1.41439655,12.7035682 2.83267241,12.7035682 L11.3190517,12.7035682 C12.6085345,12.7035682 13.9337069,11.9749318 13.9088793,10.4110682 C13.9088793,10.4110682 13.8576724,8.12175 13.8576724,8.07243182 C13.8623276,6.72175 12.7916379,5.91038636 11.5735345,5.83243182" id="Fill-10" fill="#231F20" mask="url(#mask-4)"></path>
                    </g>
                    <path d="M25.5390517,22.6190682 C25.5902586,22.7017955 25.5902586,27.4665682 25.5390517,30.5370227 C25.5390517,30.9586136 25.3838793,31.4740682 24.7818103,31.4740682 L19.0931897,31.4740682 C18.4833621,31.4740682 18.174569,31.0795227 18.174569,30.5879318 C18.174569,27.1515682 18.1218103,22.6508864 18.174569,22.5633864 L14.9237069,22.5633864 C14.8693966,22.6445227 14.9438793,27.9327045 14.9749138,31.4199773 C15.0028448,33.1158864 16.7019828,33.7124773 18.6819828,33.7124773 C21.5262931,33.7124773 23.0562931,33.7649773 26.1023276,33.7124773 C27.7269828,33.6854318 28.8675,32.80725 28.8426724,31.4199773 C28.8162931,28.3542955 28.794569,22.6190682 28.794569,22.6190682 L25.5390517,22.6190682 Z" id="Fill-13" fill="#231F20"></path>
                    <path d="M60.3726207,9.61290909 C60.3726207,11.9324545 58.5850345,14.2185909 55.7500345,15.9208636 C52.9662414,17.5833636 49.1846897,18.6779091 45.0772759,18.6779091 C40.9915862,18.6779091 37.2333103,17.5833636 34.4650345,15.9208636 C31.6331379,14.2154091 29.8548621,11.9324545 29.8548621,9.61290909 C29.8548621,7.29654545 31.6486552,4.98018182 34.479,3.25881818 C37.2488276,1.57881818 41.004,0.465181818 45.0772759,0.465181818 C49.1722759,0.465181818 52.9538276,1.56768182 55.7252069,3.25404545 C58.5772759,4.97540909 60.3726207,7.29177273 60.3726207,9.61290909 M34.2462414,2.85154545 C31.2700345,4.66040909 29.3955517,7.11677273 29.3955517,9.61290909 C29.3955517,12.0995 31.266931,14.5351818 34.2245172,16.3201818 C37.0626207,18.0256364 40.9108966,19.1488182 45.0695172,19.1488182 C49.2715862,19.1488182 53.1291724,18.0383636 55.9765862,16.3313182 C58.9558966,14.5383636 60.8350345,12.1090455 60.8350345,9.61290909 C60.8350345,7.11677273 58.9481379,4.65563636 55.961069,2.84677273 C53.1167586,1.13018182 49.2591724,0.000636363636 45.0772759,0.000636363636 C40.9155517,0.000636363636 37.0812414,1.13654545 34.2462414,2.85154545" id="Fill-15" fill="#231F20"></path>
                    <polygon id="Fill-17" fill="#231F20" points="39.3076552 2.52222727 37.8536897 6.30222727 31.3969655 7.72609091 37.8536897 9.13404545 39.3852414 13.1606364 40.923 9.21995455 47.9181724 7.72609091 40.8454138 6.15109091"></polygon>
                    <polygon id="Fill-19" fill="#231F20" points="47.3057069 9.85059091 44.5327759 10.4758182 47.3057069 11.1153636 47.9931207 12.8399091 48.6091552 11.1949091 51.6055345 10.4758182 48.6091552 9.85059091 47.9186379 8.27718182"></polygon>
                    <polygon id="Fill-21" fill="#231F20" points="55.2977069 8.27765909 54.6056379 9.85106818 51.9102931 10.4762955 54.6056379 11.1158409 55.2977069 12.8403864 55.9121897 11.1953864 58.9101207 10.4762955 55.9121897 9.85106818"></polygon>
                    <polygon id="Fill-23" fill="#231F20" points="53.3777586 8.20384091 53.9922414 6.45861364 56.987069 5.83179545 53.9922414 5.19384091 53.2955172 3.61884091 52.6810345 5.19384091 49.922069 5.83179545 52.6810345 6.45861364"></polygon>
                    <polygon id="Fill-25" fill="#231F20" points="50.5318966 12.0544773 49.8413793 13.6310682 47.1522414 14.2594773 49.8413793 14.8910682 50.5318966 16.5440227 51.2177586 14.8910682 54.2265517 14.2594773 51.1448276 13.5499318"></polygon>
                    <polygon id="Fill-27" fill="#231F20" points="42.5367931 12.5252273 41.9223103 14.1877273 39.1524828 14.8177273 41.9223103 15.3665909 42.6190345 17.0975 43.2288621 15.4413636 46.2236897 14.8177273 43.2288621 14.105"></polygon>
                </g>
            </g>
        </g>
    </g>
</svg>