<?xml version="1.0" encoding="UTF-8"?>
<svg width="122px" height="80px" viewBox="0 0 122 80" version="1.1" xmlns="http://www.w3.org/2000/svg" xmlns:xlink="http://www.w3.org/1999/xlink">
    <!-- Generator: Sketch 49.2 (51160) - http://www.bohemiancoding.com/sketch -->
    <title>Rectangle 3 Copy 19</title>
    <desc>Created with Sketch.</desc>
    <defs></defs>
    <g id="Ilustraciones" stroke="none" stroke-width="1" fill="none" fill-rule="evenodd">
        <g id="TOYOTA" transform="translate(-39.000000, -60.000000)">
            <g id="Group" transform="translate(39.000000, 60.000000)">
                <rect id="Rectangle-3-Copy-19" x="0" y="0" width="122" height="80"></rect>
                <g id="Page-1" transform="translate(22.000000, 8.000000)" fill="#231F20">
                    <path d="M41.6593412,57.5572679 C41.5905176,55.1128036 43.2996353,53.1442321 45.4652824,53.1581607 C47.5231059,53.1442321 49.2299294,55.1128036 49.2551647,57.5572679 C49.2299294,59.9529821 47.5231059,61.9261964 45.4652824,61.9586964 C43.2996353,61.9261964 41.5905176,59.9529821 41.6593412,57.5572679 M52.3430471,57.5572679 C52.2696353,53.7036964 49.1955176,50.6022679 45.4652824,50.5953036 C41.6318118,50.6022679 38.5645765,53.7036964 38.5783412,57.5572679 C38.5645765,61.3574464 41.6318118,64.4704821 45.4652824,64.5192321 C49.1955176,64.4704821 52.2696353,61.3574464 52.3430471,57.5572679" id="Fill-1"></path>
                    <polygon id="Fill-3" points="60.1253824 53.5254107 64.1033824 53.5254107 64.1033824 51.1505893 53.0640882 51.1505893 53.0640882 53.5254107 57.2256176 53.5254107 57.2256176 64.1505893 60.1253824 64.1505893"></polygon>
                    <path d="M70.2663,54.25875 L72.0671824,59.0246429 L70.2663,59.0246429 L68.4516529,59.0246429 L70.2663,54.25875 Z M67.5408882,61.2183929 L72.8058882,61.2183929 L73.8864176,64.1526786 L77.3275941,64.1526786 L72.0671824,51.1480357 L68.4562412,51.1480357 L63.0237706,64.1526786 L66.4649471,64.1526786 L67.5408882,61.2183929 Z" id="Fill-5"></path>
                    <polygon id="Fill-7" points="3.99015882 64.1498929 6.88992353 64.1498929 6.88992353 53.5247143 10.8725118 53.5247143 10.8725118 51.1498929 0.000688235294 51.1498929 0.000688235294 53.5247143 3.99015882 53.5247143"></polygon>
                    <path d="M14.6777647,57.5572679 C14.625,55.1128036 16.341,53.1442321 18.4768235,53.1581607 C20.5667647,53.1442321 22.2758824,55.1128036 22.2758824,57.5572679 C22.2758824,59.9529821 20.5667647,61.9261964 18.4768235,61.9586964 C16.341,61.9261964 14.625,59.9529821 14.6777647,57.5572679 M25.3545882,57.5572679 C25.3018235,53.7036964 22.23,50.6022679 18.4699412,50.5953036 C14.6662941,50.6022679 11.5990588,53.7036964 11.5944706,57.5572679 C11.5990588,61.3574464 14.6662941,64.4704821 18.4699412,64.5192321 C22.23,64.4704821 25.3018235,61.3574464 25.3545882,57.5572679" id="Fill-9"></path>
                    <polygon id="Fill-11" points="31.8724059 64.1498929 33.3222882 64.1498929 33.3222882 59.20525 38.3922882 51.1498929 35.1369353 51.1498929 31.8724059 56.6423929 28.7959941 51.1498929 25.3548176 51.1498929 30.4294059 59.20525 30.4294059 64.1498929"></polygon>
                    <path d="M37.8967588,1.10732143 C56.8943471,1.10732143 72.3567,10.70875 72.3567,22.5178571 C72.3567,34.3176786 56.8943471,43.9144643 37.8967588,43.9144643 C18.8877,43.9144643 3.42993529,34.3176786 3.42993529,22.5178571 C3.42993529,10.70875 18.8877,1.10732143 37.8967588,1.10732143 M37.8967588,45.0148214 C57.4977,45.0148214 73.4487,34.9235714 73.4487,22.5178571 C73.4487,10.0982143 57.4977,0 37.8967588,0 C18.2935235,0 2.34022941,10.0958929 2.34022941,22.5178571 C2.34022941,34.9235714 18.2935235,45.0148214 37.8967588,45.0148214" id="Fill-13"></path>
                    <path d="M20.1698824,10.1483571 C20.9544706,7.90121429 26.2951765,5.93960714 33.1224706,5.30353571 C31.1724706,7.53442857 29.6812941,11.128 28.899,15.4899643 C24.4598824,14.6588929 21.2710588,13.22425 20.3373529,11.6108571 C20.1652941,11.3044286 20.0712353,11.0026429 20.0712353,10.7055 C20.0712353,10.5221071 20.0987647,10.3363929 20.1698824,10.1483571 M29.2362353,16.6785357 L29.7707647,16.7737143 L29.8625294,16.2258571 C30.7021765,11.0583571 32.5374706,6.98657143 34.9027059,5.07603571 L36.2493529,3.98960714 L34.5356471,4.09175 C26.2102941,4.60942857 20.1698824,6.84032143 19.1352353,9.77692857 C19.032,10.0833571 18.9746471,10.3944286 18.9746471,10.7031786 C18.9746471,11.1999643 19.1122941,11.6921071 19.3944706,12.1656786 C20.5438235,14.1574643 24.1295294,15.7987143 29.2362353,16.6785357" id="Fill-15"></path>
                    <path d="M37.8967588,10.2061607 C39.4200529,10.2061607 40.8286412,12.520625 41.5788176,16.1350893 C40.3652294,16.2140179 39.1378765,16.2627679 37.8967588,16.2627679 C36.6487588,16.2627679 35.4259941,16.2140179 34.2124059,16.1350893 C34.9511118,12.520625 36.3665824,10.2061607 37.8967588,10.2061607 M33.0125824,16.5552679 L32.9070529,17.1611607 L33.5058176,17.1983036 C34.9327588,17.3120536 36.4124647,17.3700893 37.8967588,17.3700893 C39.3741706,17.3700893 40.8515824,17.3120536 42.2831118,17.1983036 L42.8795824,17.1611607 L42.7763471,16.5552679 C41.9481706,11.8915179 40.1312294,9.09883929 37.8967588,9.09883929 C35.6668765,9.09883929 33.8315824,11.8915179 33.0125824,16.5552679" id="Fill-17"></path>
                    <path d="M55.6211118,10.1483571 C55.6853471,10.3363929 55.7197588,10.5221071 55.7197588,10.7055 C55.7197588,11.0026429 55.6325824,11.3044286 55.4559353,11.6108571 C54.5130529,13.22425 51.3242294,14.6588929 46.8851118,15.4899643 C46.1097,11.128 44.6116412,7.53442857 42.6685235,5.30353571 C49.4912294,5.93960714 54.8319353,7.90585714 55.6211118,10.1483571 M45.9215824,16.2258571 L46.0133471,16.7737143 L46.5501706,16.6785357 C51.6545824,15.7987143 55.2471706,14.1574643 56.3965235,12.1656786 C56.8415824,11.3996071 56.9264647,10.5708571 56.6488765,9.77692857 C55.6211118,6.84032143 49.5761118,4.60014286 41.2484647,4.09175 L39.5347588,3.98264286 L40.8814059,5.07603571 C43.2420529,6.98657143 45.0911118,11.0583571 45.9215824,16.2258571" id="Fill-19"></path>
                    <path d="M13.9562647,13.3584286 C15.3877941,17.1284286 20.7307941,20.2600357 28.2807353,21.7225357 C28.2738529,22.152 28.2692647,22.6975357 28.2692647,22.6975357 C28.2692647,30.0750357 29.9944412,36.4473571 32.8552059,39.8784286 C19.3038529,38.4112857 9.24644118,31.252 9.24644118,22.8391429 C9.25102941,19.4452143 10.8775588,16.1905714 13.9562647,13.3584286 M34.2477353,41.1366429 L35.9017941,41.262 L34.6377353,40.1616429 C31.3823824,37.34575 29.3612647,30.65075 29.3612647,22.6975357 L29.3910882,20.8241429 L28.9345588,20.7336071 C21.1093235,19.30825 15.5506765,15.9839643 14.7569118,12.2511071 L14.5687941,11.3596786 L13.8667941,11.947 C10.1273824,15.1180714 8.15902941,18.8811071 8.15902941,22.8391429 C8.15902941,32.1503929 19.3703824,40.0061071 34.2477353,41.1366429" id="Fill-21"></path>
                    <path d="M37.8967588,33.9123571 C35.8894059,33.9123571 33.7489941,29.3159286 33.6572294,22.4375357 C35.0474647,22.542 36.4698176,22.6023571 37.8967588,22.6023571 C39.3237,22.6023571 40.7299941,22.542 42.1225235,22.4375357 C42.0422294,29.3159286 39.9018176,33.9123571 37.8967588,33.9123571 M43.2214059,22.0475357 L43.2145235,21.242 L42.6249353,21.2953929 C41.0809941,21.4300357 39.4865824,21.5043214 37.8967588,21.5043214 C36.2977588,21.5043214 34.6964647,21.4300357 33.1639941,21.2953929 L32.5767,21.242 L32.5675235,21.8386071 L32.5675235,22.0475357 C32.5675235,29.4343214 34.8593471,35.0173571 37.8967588,35.0173571 C40.9318765,35.0196786 43.2214059,29.4343214 43.2214059,22.0475357" id="Fill-23"></path>
                    <path d="M61.8280765,13.3584286 C64.9021941,16.1905714 66.5356059,19.4452143 66.5356059,22.8391429 C66.5356059,31.252 56.4873706,38.4112857 42.9383118,39.8784286 C45.7899,36.4473571 47.5150765,30.0750357 47.5150765,22.6975357 C47.5150765,22.6975357 47.5104882,22.152 47.4990176,21.7225357 C55.0558412,20.2600357 60.3965471,17.1284286 61.8280765,13.3584286 Z M46.3909588,20.8148571 L46.4230765,22.6975357 C46.4230765,30.65075 44.4019588,37.34575 41.1466059,40.1616429 L39.8825471,41.262 L41.5389,41.1366429 C56.4208412,40.0061071 67.6253118,32.1503929 67.6253118,22.8391429 C67.6253118,18.8811071 65.6523706,15.1111071 61.9106647,11.947 L61.2247235,11.3596786 L61.0274294,12.2511071 C60.2405471,15.9839643 54.6681353,19.30825 46.8497824,20.7336071 L46.3909588,20.8148571 Z" id="Fill-25"></path>
                </g>
            </g>
        </g>
    </g>
</svg>