<?xml version="1.0" encoding="UTF-8"?>
<svg width="122px" height="80px" viewBox="0 0 122 80" version="1.1" xmlns="http://www.w3.org/2000/svg" xmlns:xlink="http://www.w3.org/1999/xlink">
    <!-- Generator: Sketch 49.2 (51160) - http://www.bohemiancoding.com/sketch -->
    <title>Rectangle 3 Copy 19</title>
    <desc>Created with Sketch.</desc>
    <defs></defs>
    <g id="Ilustraciones" stroke="none" stroke-width="1" fill="none" fill-rule="evenodd">
        <g id="VOLKSWAGEN" transform="translate(-39.000000, -60.000000)">
            <g id="Group-2" transform="translate(39.000000, 60.000000)">
                <rect id="Rectangle-3-Copy-19" x="0" y="0" width="122" height="80"></rect>
                <g id="Group" transform="translate(29.000000, 8.000000)">
                    <circle id="Oval" fill="#231F20" cx="32" cy="32" r="32"></circle>
                    <path d="M4.52525253,32.3232323 C4.52525253,16.9704424 16.970751,4.52525253 32.322543,4.52525253 C47.6757136,4.52525253 60.1212121,16.9704424 60.1212121,32.3232323 C60.1212121,47.6760222 47.6757136,60.1212121 32.322543,60.1212121 C16.970751,60.1212121 4.52525253,47.6760222 4.52525253,32.3232323 M25.5696847,10.314258 L32.3266791,25.4892004 L39.0822947,10.3156367 C36.9453143,9.65939312 34.6759789,9.30783408 32.322543,9.30783408 C29.9732432,9.30783408 27.7039078,9.65939312 25.5696847,10.314258 M39.0836734,54.330828 L32.3266791,39.1558856 L25.5696847,54.3322067 C27.7039078,54.9870715 29.9732432,55.3386306 32.322543,55.3386306 C34.6759789,55.3386306 36.946693,54.9856929 39.0836734,54.330828 M54.2520987,25.3113529 L41.784541,53.3119961 C49.7782267,49.701278 55.3398907,41.6622947 55.3398907,32.3232323 C55.3398907,29.878863 54.9593703,27.5227281 54.2520987,25.3113529 M13.6246532,18.8991918 L24.4419105,43.1967465 L28.9268121,33.1352648 L35.7196526,33.1352648 L40.2073116,43.1898532 L51.0231901,18.8991918 C49.1922804,16.3541801 46.8553889,14.19933 44.1586574,12.5794011 L35.7196526,31.5111999 L28.9268121,31.5111999 L20.4919434,12.5766438 C17.7938332,14.1965727 15.4555629,16.3541801 13.6246532,18.8991918 M9.30657399,32.3232323 C9.30657399,41.6622947 14.8696167,49.701278 22.8619236,53.3119961 L10.394366,25.3113529 C9.68847308,27.5227281 9.30657399,29.878863 9.30657399,32.3232323" id="Fill-4" fill="#FFFFFF"></path>
                </g>
            </g>
        </g>
    </g>
</svg>