<?xml version="1.0" encoding="UTF-8"?>
<svg width="122px" height="80px" viewBox="0 0 122 80" version="1.1" xmlns="http://www.w3.org/2000/svg" xmlns:xlink="http://www.w3.org/1999/xlink">
    <!-- Generator: Sketch 49.2 (51160) - http://www.bohemiancoding.com/sketch -->
    <title>Rectangle 3 Copy 19</title>
    <desc>Created with Sketch.</desc>
    <defs>
        <polygon id="path-1" points="7.54540177e-05 1.04151943 63.4475789 1.04151943 63.4475789 55.3235294 7.54540177e-05 55.3235294"></polygon>
    </defs>
    <g id="Ilustraciones" stroke="none" stroke-width="1" fill="none" fill-rule="evenodd">
        <g id="VOLVO" transform="translate(-39.000000, -60.000000)">
            <g id="Group" transform="translate(39.000000, 60.000000)">
                <rect id="Rectangle-3-Copy-19" x="0" y="0" width="122" height="80"></rect>
                <g id="Page-1" transform="translate(29.000000, 12.000000)">
                    <g id="Group-3" transform="translate(0.000000, 0.634879)">
                        <mask id="mask-2" fill="white">
                            <use xlink:href="#path-1"></use>
                        </mask>
                        <g id="Clip-2"></g>
                        <path d="M58.0353684,36.2856971 L56.4471579,36.2856971 L54.6315789,36.2856971 L48.0698947,36.2856971 L46.1701053,36.2856971 L17.4492632,36.2856971 L15.5545263,36.2856971 L8.73684211,36.2856971 L6.91115789,36.2856971 L5.59073684,36.2856971 C2.992,34.3275794 1.70357895,32.3074324 1.76252632,30.2554324 C1.83663158,27.2394618 4.77052632,24.9041382 5.57894737,24.3106676 L6.84715789,24.3106676 L8.65094737,24.3106676 L15.3103158,24.3106676 L17.1797895,24.3106676 L46.448,24.3106676 L48.3174737,24.3106676 L54.7073684,24.3106676 L56.5229474,24.3106676 L58.032,24.3106676 C60.496,26.2117853 61.7254737,28.2101382 61.6901053,30.2403441 C61.6412632,33.2630206 58.8404211,35.6654029 58.0353684,36.2856971 M18.3570526,38.0376088 L45.2690526,38.0376088 C42.5221053,42.5992853 37.5149474,45.6437559 31.8172632,45.6437559 C26.1077895,45.6437559 21.104,42.5992853 18.3570526,38.0376088 M31.6825263,53.5717853 C21.3701053,53.5717853 12.5768421,47.0804912 9.28926316,38.0376088 L16.3511579,38.0376088 C19.2665263,43.5900794 25.0989474,47.4023735 31.8071579,47.4023735 C38.5221053,47.4023735 44.3562105,43.5900794 47.2715789,38.0376088 L54.0707368,38.0376088 C50.7797895,47.0804912 41.9898947,53.5717853 31.6825263,53.5717853 M45.6446316,22.5654618 L17.9848421,22.5654618 C20.6341053,17.6399912 25.84,14.2803441 31.8122105,14.2803441 C37.7911579,14.2803441 42.9835789,17.6399912 45.6446316,22.5654618 M31.6825263,6.75466765 C36.5347368,6.75466765 41.2033684,8.18805 45.1865263,10.9005794 C45.5301053,11.1386382 45.9949474,11.0900206 46.2896842,10.8016676 L50.9010526,6.35734412 C51.0846316,6.18131471 51.1856842,5.93319706 51.1705263,5.66496176 C51.1469474,5.41013824 51.0189474,5.17207941 50.8067368,5.02957941 L48.6206316,3.44866765 L59.2025263,2.84849118 L59.3372632,12.9961676 L57.8012632,11.20905 C57.6463158,11.03805 57.4155789,10.92405 57.1747368,10.9190206 C56.9322105,10.9139912 56.7065263,10.9894324 56.528,11.1621088 L51.4922105,15.91155 C51.1738947,16.2082853 51.1250526,16.6844029 51.3726316,17.0331088 C52.5650526,18.7632265 53.4981053,20.6207559 54.1768421,22.5654618 L47.6050526,22.5654618 C44.8143158,16.6408147 38.7848421,12.5317853 31.8071579,12.5317853 C24.8378947,12.5317853 18.8117895,16.6408147 16.0176842,22.5654618 L9.19831579,22.5654618 C12.4117895,13.3767265 21.2724211,6.75466765 31.6825263,6.75466765 M58.8522105,22.7347853 C58.7023158,22.6191088 58.5136842,22.5654618 58.3284211,22.5654618 L56.0294737,22.5654618 C55.3675789,20.4983735 54.4328421,18.5184618 53.2404211,16.6743441 L57.0686316,13.0565206 L59.5848421,15.9534618 C59.8290526,16.2317559 60.2147368,16.3256382 60.5650526,16.1999029 C60.9086316,16.0775206 61.1393684,15.7388735 61.1326316,15.3683735 L60.9541053,1.91134412 C60.9473684,1.66993235 60.8463158,1.45031471 60.6661053,1.28602059 C60.4909474,1.11166765 60.2602105,1.02952059 60.0210526,1.04293235 L46.064,1.84093235 C45.6934737,1.86105 45.3785263,2.11252059 45.2741053,2.46290294 C45.1696842,2.81999118 45.2993684,3.19887353 45.5957895,3.42016765 L48.9254737,5.82590294 L45.5806316,9.05143235 C41.4391579,6.40931471 36.6442105,5.00778529 31.6825263,5.00778529 C20.2871579,5.00778529 10.6181053,12.3943147 7.33389474,22.5654618 L5.29431579,22.5654618 C5.12589474,22.5654618 4.96252632,22.6056971 4.81768421,22.7012559 C4.62063158,22.8286676 0.123789474,25.8077559 0.00252631579,30.2001088 C-0.0715789474,32.9226971 1.53515789,35.4994324 4.77726316,37.8699618 C4.92884211,37.9755794 5.11073684,38.0376088 5.29431579,38.0376088 L7.42821053,38.0376088 C10.7848421,48.0629029 20.3882105,55.3236971 31.6825263,55.3236971 C42.9768421,55.3236971 52.5717895,48.0629029 55.9317895,38.0376088 L58.3284211,38.0376088 C58.5086316,38.0376088 58.6787368,37.9839618 58.8303158,37.8783441 C59.0172632,37.7509324 63.3675789,34.6913735 63.4467368,30.2805794 C63.4972632,27.5881676 61.9528421,25.0483147 58.8522105,22.7347853" id="Fill-1" fill="#231F20" mask="url(#mask-2)"></path>
                    </g>
                    <polygon id="Fill-4" fill="#231F20" points="17.8839579 27.6966353 16.3934316 27.6966353 14.6098526 27.6966353 12.8212211 27.6966353 12.8212211 28.6840765 14.1702737 28.6840765 11.8342737 33.0009882 9.30122105 28.7041941 11.1488 28.6907824 11.1454316 27.6966353 8.11385263 27.6966353 6.34711579 27.6966353 3.80058947 27.6966353 3.80058947 28.7041941 5.49153684 28.7041941 6.16858947 29.9347235 8.04985263 33.3865765 8.80437895 34.7529 12.8768 34.7529 14.4195368 31.9397824 16.1879579 28.6907824 16.2401684 28.6907824 17.8839579 28.6773706"></polygon>
                    <path d="M22.3592421,33.8409 C21.6080842,33.8409 21.0000842,32.6405471 21.0000842,31.1518412 C21.0000842,29.6614588 21.6080842,28.4611059 22.3592421,28.4611059 C23.1154526,28.4611059 23.7184,29.6614588 23.7184,31.1518412 C23.7184,32.6405471 23.1154526,33.8409 22.3592421,33.8409 M22.4417684,27.4954588 C19.5584,27.4954588 17.2274526,29.1652235 17.2274526,31.2239294 C17.2274526,33.2792824 19.5584,34.9540765 22.4417684,34.9540765 C25.3167158,34.9540765 27.6409263,33.2792824 27.6409263,31.2239294 C27.6409263,29.1652235 25.3167158,27.4954588 22.4417684,27.4954588" id="Fill-6" fill="#231F20"></path>
                    <path d="M55.2574316,33.7976471 C55.1900632,33.8227941 55.1176421,33.8412353 55.0384842,33.8412353 C54.2923789,33.8412353 53.6826947,32.6408824 53.6826947,31.1505 C53.6826947,29.6617941 54.2923789,28.4597647 55.0384842,28.4597647 C55.1496421,28.4597647 55.2506947,28.4849118 55.3483789,28.5268235 C55.9530105,28.7933824 56.3993263,29.8696765 56.3993263,31.1505 C56.3993263,32.4916765 55.9008,33.5981471 55.2574316,33.7976471 M55.2220632,27.4991471 C55.1900632,27.4941176 55.1496421,27.4941176 55.1176421,27.4941176 C52.2376421,27.4941176 49.9134316,29.1655588 49.9134316,31.2242647 C49.9134316,33.2745882 52.2208,34.941 55.0822737,34.9544118 L55.1176421,34.9544118 C55.7509053,34.9544118 56.3471158,34.8739412 56.9045895,34.7230588 C58.9020632,34.1983235 60.3252211,32.8353529 60.3252211,31.2242647 C60.3252211,29.6416765 58.9576421,28.3005 57.0292211,27.7539706 C56.4717474,27.5947059 55.8637474,27.5075294 55.2220632,27.4991471" id="Fill-8" fill="#231F20"></path>
                    <path d="M34.9168842,33.6534706 L33.1602526,33.6534706 L33.1602526,28.7045294 L34.8276211,28.6911176 L34.8276211,27.6969706 L28.1312,27.6969706 L28.1312,28.7045294 L29.8272,28.7045294 L29.8272,33.6534706 L28.0453053,33.6534706 L28.0453053,34.7498824 L29.8272,34.7565882 L38.2785684,34.7565882 L38.2785684,31.4790882 L37.1754105,31.4790882 C37.1181474,33.2142353 35.5703579,33.6534706 34.9168842,33.6534706" id="Fill-10" fill="#231F20"></path>
                    <polygon id="Fill-12" fill="#231F20" points="50.5468632 27.6966353 49.0159158 27.6966353 47.2289684 27.6966353 45.4874947 27.6966353 45.4874947 28.6840765 46.8314947 28.6840765 44.4904421 33.0009882 41.9607579 28.7041941 43.8117053 28.6907824 43.8066526 27.6966353 36.4584421 27.6966353 36.4584421 28.7041941 38.1544421 28.7041941 41.4588632 34.7529 45.5380211 34.7529 47.4883368 31.1870471 48.8474947 28.6907824 49.1557053 28.6907824 50.5451789 28.6773706"></polygon>
                </g>
            </g>
        </g>
    </g>
</svg>